<svg xmlns="http://www.w3.org/2000/svg" width="512" height="512"><circle r="240" cy="257.072" cx="254.924" transform="rotate(-.24)" fill="#cfd8dc"/><path d="M425.627 86.373L86.373 425.627a240 240 0 0 0 170.635 70.371 240 240 0 0 0 238.99-241.006 240 240 0 0 0-70.371-168.619z" fill="#b0bec5" fill-rule="evenodd"/><path d="M254.992 16.002a240 240 0 0 0-80.275 14.445l-14.158 30.467 95.412 48.475 95.412-48.475-14.137-30.426a240 240 0 0 0-82.254-14.486zm157.053 88.943l-16.62 105.723 75.587 75.762 24.593-22.871a240 240 0 0 0 .393-8.567 240 240 0 0 0-50.475-145.982l-33.478-4.065zM99.937 105l-33.335 4.047a240 240 0 0 0-50.6 147.96 240 240 0 0 0 .258 6.497l24.71 22.98 75.587-75.761L99.937 105zM256 155.678l-95.412 69.32 36.443 112.164H314.97l36.443-112.164L256 155.678zm191.88 202.05L342.2 374.595l-48.698 95.299 29.576 16.447a240 240 0 0 0 131.32-95.328l-6.517-33.283zm-383.714.034l-6.473 33.054a240 240 0 0 0 131.352 95.514l29.5-16.404-48.697-95.299-105.682-16.865z" fill="#37474f" fill-rule="evenodd"/><path d="M412.045 104.945l-16.62 105.723 75.587 75.762 24.593-22.871a240 240 0 0 0 .393-8.567 240 240 0 0 0-50.475-145.982l-33.478-4.065zm-97.94 92.95L191.588 320.412l5.443 16.75H314.97l36.443-112.164-37.307-27.103zm133.776 159.834l-105.682 16.865-48.697 95.299 29.576 16.447a240 240 0 0 0 131.32-95.328l-6.517-33.283zm-306.04 12.43l-55.32 55.32a240 240 0 0 0 102.524 60.851l29.5-16.404-48.697-95.299-28.006-4.469z" fill="#263238" fill-rule="evenodd"/></svg>