<svg xmlns="http://www.w3.org/2000/svg" width="512" height="512"><g transform="matrix(1.54135 -.42939 .43311 1.55583 358.767 -147.225)"><path fill="#e65100" fill-rule="evenodd" d="m-179.295 122.686-60.225 19.058a19.4 19.4 0 0 0-6.64 2.352c-9.378 5.444-12.621 17.555-7.242 27.049 5.377 9.492 17.727 13.071 30.282 1.267s27.4-30.835 43.825-49.726"/><ellipse cx="-175.529" cy="174.905" fill="#fb8c00" rx="47.656" ry="48.246" transform="rotate(.17)skewX(.004)"/><ellipse cx="-282.909" cy="86.832" fill="#ef6c00" rx="22.194" ry="22.333" transform="matrix(.86482 -.50208 .49286 .8701 0 0)"/><ellipse cx="-141.782" cy="82.14" fill="#e65100" rx="15.318" ry="15.508" transform="rotate(.17)skewX(.004)"/><ellipse cx="-143.486" cy="83.865" fill="#ffb74d" rx="10.212" ry="10.339" transform="rotate(.17)skewX(.004)"/><ellipse cx="-207.266" cy="82.122" fill="#e65100" rx="15.318" ry="15.508" transform="rotate(.17)skewX(.004)"/><ellipse cx="-205.567" cy="83.847" fill="#ffb74d" rx="10.212" ry="10.339" transform="rotate(.17)skewX(.004)"/><path fill="#e65100" fill-rule="evenodd" d="m-172.705 122.82 60.224 19.058a19.4 19.4 0 0 1 6.641 2.351c9.378 5.445 12.62 17.555 7.242 27.05-5.377 9.492-17.727 13.07-30.282 1.267s-27.4-30.835-43.825-49.727z"/><path fill="#ff9800" d="M-128.194 114.564c.064-21.926-23.694-46.387-47.522-46.458s-47.726 24.25-47.79 46.175c-.063 21.926 21.231 36.455 47.551 36.533s47.698-14.325 47.761-36.25"/><path fill="#f57c00" d="M-175.895 126.139a47.656 48.246.004 0 0-.105.004v96.48a47.656 48.246.004 0 0 47.621-48.098 47.656 48.246.004 0 0-47.516-48.386"/><ellipse cx="21.853" cy="263.691" fill="#e65100" rx="22.196" ry="22.331" transform="rotate(29.863)scale(-.99994 1)skewY(-.612)"/><path fill="#fb8c00" d="M-175.955 150.814c-.091 0-.18-.005-.272-.006V68.121c.171-.002.342-.016.512-.016 23.828.07 47.585 24.534 47.522 46.46-.064 21.925-21.442 36.327-47.762 36.25z"/><ellipse cx="-175.529" cy="119.765" fill="#ffb74d" rx="22.126" ry="13.785" transform="rotate(.17)skewX(.004)"/><ellipse cx="124.073" cy="175.529" fill="#ffb74d" rx="14.646" ry="11.914" transform="rotate(90.17)skewY(-.004)"/><ellipse cx="-175.529" cy="114.596" fill="#263238" rx="8.51" ry="3.446" transform="rotate(.17)skewX(.004)"/><path fill="#263238" d="M-175.855 112.352a1.71 1.71 0 0 1 1.697 1.728l-.05 17.231a1.71 1.71 0 0 1-1.707 1.718 1.71 1.71 0 0 1-1.697-1.728l.05-17.23a1.71 1.71 0 0 1 1.707-1.719"/><ellipse cx="-192.106" cy="97.694" fill="#263238" rx="5.446" ry="5.259" transform="rotate(.13)skewX(-.088)"/><ellipse cx="-158.106" cy="97.617" fill="#263238" rx="5.446" ry="5.259" transform="rotate(.13)skewX(-.088)"/></g><g transform="matrix(1.1606 .30808 -.316 1.16851 773.453 -319.769)"><path fill="#546e7a" fill-rule="evenodd" d="m-199.612 408.177-63.074 3.44a19.4 19.4 0 0 0-7.018.621c-10.44 2.934-16.6 13.854-13.758 24.389 2.841 10.534 13.908 17.079 29.01 8.778s34.224-23.029 54.84-37.228"/><ellipse cx="-86.834" cy="497.014" fill="#78909c" rx="47.656" ry="48.246" transform="rotate(14.608)skewX(.004)"/><ellipse cx="-365.435" cy="409.708" fill="#607d8b" rx="22.194" ry="22.333" transform="matrix(.9627 -.27058 .26034 .96552 0 0)"/><ellipse cx="-53.086" cy="404.249" fill="#546e7a" rx="15.318" ry="15.508" transform="rotate(14.608)skewX(.004)"/><ellipse cx="-54.791" cy="405.974" fill="#cfd8dc" rx="10.212" ry="10.339" transform="rotate(14.608)skewX(.004)"/><ellipse cx="-118.57" cy="404.231" fill="#607d8b" rx="15.318" ry="15.508" transform="rotate(14.608)skewX(.004)"/><ellipse cx="-116.871" cy="405.956" fill="#cfd8dc" rx="10.212" ry="10.339" transform="rotate(14.608)skewX(.004)"/><path fill="#546e7a" fill-rule="evenodd" d="m-193.264 409.95 53.57 33.472c2.17.942 4.15 2.275 5.845 3.933 7.725 7.611 7.845 20.148.27 28s-20.427 8.24-29.643-6.322c-9.215-14.562-18.846-36.693-30.042-59.084z"/><path fill="#b0bec5" d="M-148.1 413.053c5.529-21.217-11.379-50.83-34.437-56.84s-52.265 11.584-57.794 32.801 11.471 40.597 36.94 47.235c25.469 6.639 49.763-1.979 55.291-23.196"/><path fill="#607d8b" d="M-197.18 412.368a47.656 48.246 14.443 0 0-.103-.022l-24.057 93.433a47.656 48.246 14.443 0 0 58.11-34.704 47.656 48.246 14.443 0 0-33.95-58.707"/><ellipse cx="-214.785" cy="497.029" fill="#455a64" rx="22.196" ry="22.331" transform="rotate(44.301)scale(-.99994 1)skewY(-.613)"/><path fill="#90a4ae" d="m-203.391 436.25-.262-.074 20.618-80.076c.165.04.334.07.5.113 23.057 6.01 39.964 35.623 34.436 56.84-5.529 21.218-29.823 29.835-55.292 23.197"/><ellipse cx="-86.834" cy="441.874" fill="#cfd8dc" rx="22.126" ry="13.785" transform="rotate(14.608)skewX(.004)"/><ellipse cx="446.182" cy="86.834" fill="#cfd8dc" rx="14.646" ry="11.914" transform="rotate(104.604)skewX(-.004)"/><ellipse cx="-86.834" cy="436.705" fill="#263238" rx="8.51" ry="3.446" transform="rotate(14.608)skewX(.004)"/><path fill="#263238" d="M-193.704 399.027a1.71 1.71 0 0 1 1.212 2.097l-4.344 16.674a1.71 1.71 0 0 1-2.082 1.238 1.71 1.71 0 0 1-1.212-2.096l4.344-16.675a1.71 1.71 0 0 1 2.082-1.238"/><ellipse cx="-103.121" cy="419.866" fill="#263238" rx="5.446" ry="5.259" transform="rotate(14.568)skewX(-.088)"/><ellipse cx="-69.121" cy="419.789" fill="#263238" rx="5.446" ry="5.259" transform="rotate(14.568)skewX(-.088)"/></g><g transform="matrix(1.40091 -.00327 -.00327 1.41224 455.495 -215.804)"><path fill="#5d4037" fill-rule="evenodd" d="m-53.608 383.477-63.075 3.44a19.4 19.4 0 0 0-7.017.621c-10.44 2.934-16.6 13.854-13.758 24.39 2.84 10.533 13.908 17.078 29.01 8.777 15.101-8.3 34.223-23.028 54.84-37.228"/><ellipse cx="48.224" cy="436.289" fill="#a1887f" rx="47.656" ry="48.246" transform="rotate(14.608)skewX(.004)"/><ellipse cx="-218.027" cy="425.436" fill="#795548" rx="22.194" ry="22.333" transform="matrix(.9627 -.27058 .26034 .96552 0 0)"/><ellipse cx="81.972" cy="343.524" fill="#5d4037" rx="15.318" ry="15.508" transform="rotate(14.608)skewX(.004)"/><ellipse cx="80.268" cy="345.249" fill="#d7ccc8" rx="10.212" ry="10.339" transform="rotate(14.608)skewX(.004)"/><ellipse cx="16.488" cy="343.506" fill="#6d4c41" rx="15.318" ry="15.508" transform="rotate(14.608)skewX(.004)"/><ellipse cx="18.187" cy="345.231" fill="#d7ccc8" rx="10.212" ry="10.339" transform="rotate(14.608)skewX(.004)"/><path fill="#5d4037" fill-rule="evenodd" d="m-47.26 385.25 53.57 33.472a19.4 19.4 0 0 1 5.845 3.934c7.724 7.61 7.845 20.147.269 28-7.575 7.852-20.427 8.238-29.642-6.323s-18.847-36.693-30.042-59.084z"/><path fill="#bcaaa4" d="M-2.096 388.353c5.528-21.217-11.38-50.83-34.437-56.84-23.058-6.009-52.266 11.584-57.794 32.801-5.529 21.218 11.47 40.597 36.94 47.236 25.468 6.638 49.763-1.98 55.291-23.197"/><path fill="#8d6e63" d="M-51.176 387.669a47.656 48.246 14.443 0 0-.104-.023l-24.056 93.433a47.656 48.246 14.443 0 0 58.11-34.704 47.656 48.246 14.443 0 0-33.95-58.706"/><ellipse cx="-302.031" cy="376.446" fill="#5d4037" rx="22.196" ry="22.331" transform="rotate(44.301)scale(-.99994 1)skewY(-.613)"/><path fill="#a1887f" d="m-57.388 411.55-.261-.074 20.617-80.076c.166.041.335.07.5.113 23.058 6.01 39.964 35.623 34.436 56.84s-29.823 29.835-55.292 23.197"/><ellipse cx="48.224" cy="381.149" fill="#d7ccc8" rx="22.126" ry="13.785" transform="rotate(14.608)skewX(.004)"/><ellipse cx="385.457" cy="-48.224" fill="#d7ccc8" rx="14.646" ry="11.914" transform="rotate(104.604)skewX(-.004)"/><ellipse cx="48.224" cy="375.98" fill="#263238" rx="8.51" ry="3.446" transform="rotate(14.608)skewX(.004)"/><path fill="#263238" d="M-47.7 374.327a1.71 1.71 0 0 1 1.212 2.097l-4.345 16.674a1.71 1.71 0 0 1-2.081 1.238 1.71 1.71 0 0 1-1.213-2.096l4.345-16.674a1.71 1.71 0 0 1 2.081-1.239z"/><ellipse cx="31.883" cy="359.236" fill="#263238" rx="5.446" ry="5.259" transform="rotate(14.568)skewX(-.088)"/><ellipse cx="65.882" cy="359.159" fill="#263238" rx="5.446" ry="5.259" transform="rotate(14.568)skewX(-.088)"/></g><g transform="matrix(.70592 -.70922 .71163 .71493 145.806 5.698)"><path fill="#616161" fill-rule="evenodd" d="m-313.472 212.768-63.074 3.44a19.4 19.4 0 0 0-7.018.622c-10.44 2.934-16.599 13.854-13.757 24.389 2.84 10.534 13.908 17.079 29.01 8.778 15.101-8.3 34.223-23.029 54.84-37.229z"/><ellipse cx="-246.286" cy="336.64" fill="#bdbdbd" rx="47.656" ry="48.246" transform="rotate(14.608)skewX(.004)"/><ellipse cx="-424.499" cy="190.768" fill="#757575" rx="22.194" ry="22.333" transform="matrix(.9627 -.27058 .26034 .96552 0 0)"/><ellipse cx="-212.538" cy="243.875" fill="#616161" rx="15.318" ry="15.508" transform="rotate(14.608)skewX(.004)"/><ellipse cx="-214.242" cy="245.6" fill="#f5f5f5" rx="10.212" ry="10.339" transform="rotate(14.608)skewX(.004)"/><ellipse cx="-278.022" cy="243.857" fill="#9e9e9e" rx="15.318" ry="15.508" transform="rotate(14.608)skewX(.004)"/><ellipse cx="-276.323" cy="245.582" fill="#f5f5f5" rx="10.212" ry="10.339" transform="rotate(14.608)skewX(.004)"/><path fill="#616161" fill-rule="evenodd" d="m-307.124 214.541 53.57 33.473c2.17.942 4.15 2.275 5.845 3.933 7.725 7.611 7.845 20.148.27 28s-20.427 8.24-29.642-6.323c-9.216-14.561-18.847-36.693-30.043-59.083"/><path fill="#e0e0e0" d="M-261.96 217.645c5.529-21.217-11.379-50.83-34.437-56.84-23.057-6.01-52.265 11.584-57.794 32.801s11.471 40.597 36.94 47.235c25.47 6.638 49.763-1.979 55.292-23.196z"/><path fill="#9e9e9e" d="M-311.04 216.96a47.656 48.246 14.443 0 0-.103-.022L-335.2 310.37a47.656 48.246 14.443 0 0 58.11-34.704 47.656 48.246 14.443 0 0-33.95-58.707z"/><ellipse cx="3.193" cy="439.033" fill="#616161" rx="22.196" ry="22.331" transform="rotate(44.301)scale(-.99994 1)skewY(-.613)"/><path fill="#bdbdbd" d="M-317.251 240.841c-.088-.023-.174-.05-.261-.073l20.617-80.076c.166.04.334.07.5.113 23.057 6.01 39.964 35.623 34.436 56.84-5.529 21.218-29.823 29.835-55.292 23.196"/><ellipse cx="-246.286" cy="281.5" fill="#f5f5f5" rx="22.126" ry="13.785" transform="rotate(14.608)skewX(.004)"/><ellipse cx="285.808" cy="246.286" fill="#f5f5f5" rx="14.646" ry="11.914" transform="rotate(104.604)skewX(-.004)"/><ellipse cx="-246.286" cy="276.331" fill="#263238" rx="8.51" ry="3.446" transform="rotate(14.608)skewX(.004)"/><path fill="#263238" d="M-307.564 203.62a1.71 1.71 0 0 1 1.212 2.096l-4.344 16.674a1.71 1.71 0 0 1-2.082 1.238 1.71 1.71 0 0 1-1.212-2.097l4.344-16.674a1.71 1.71 0 0 1 2.082-1.238z"/><ellipse cx="-262.717" cy="259.379" fill="#263238" rx="5.446" ry="5.259" transform="rotate(14.568)skewX(-.088)"/><ellipse cx="-228.717" cy="259.303" fill="#263238" rx="5.446" ry="5.259" transform="rotate(14.568)skewX(-.088)"/></g></svg>