<svg xmlns="http://www.w3.org/2000/svg" width="512" height="512"><g transform="matrix(1.54135 -.42939 .43311 1.55583 358.767 -147.225)"><path d="M-179.295 122.686l-60.225 19.058a19.416 19.416 0 0 0-6.64 2.352c-9.378 5.444-12.621 17.555-7.242 27.049 5.377 9.492 17.727 13.071 30.282 1.267s27.4-30.835 43.825-49.726z" fill="#e65100" fill-rule="evenodd"/><ellipse cx="-175.529" cy="174.905" rx="47.656" ry="48.246" transform="rotate(.17) skewX(.004)" fill="#fb8c00"/><ellipse cx="-282.909" cy="86.832" transform="matrix(.86482 -.50208 .49286 .8701 0 0)" rx="22.194" ry="22.333" fill="#ef6c00"/><ellipse cy="82.14" cx="-141.782" transform="rotate(.17) skewX(.004)" rx="15.318" ry="15.508" fill="#e65100"/><ellipse ry="10.339" rx="10.212" cx="-143.486" cy="83.865" transform="rotate(.17) skewX(.004)" fill="#ffb74d"/><ellipse cx="-207.266" cy="82.122" transform="rotate(.17) skewX(.004)" rx="15.318" ry="15.508" fill="#e65100"/><ellipse cy="83.847" cx="-205.567" rx="10.212" ry="10.339" transform="rotate(.17) skewX(.004)" fill="#ffb74d"/><path d="M-172.705 122.82l60.224 19.058a19.416 19.416 0 0 1 6.641 2.351c9.378 5.445 12.62 17.555 7.242 27.05-5.377 9.492-17.727 13.07-30.282 1.267-12.555-11.804-27.4-30.835-43.825-49.727z" fill="#e65100" fill-rule="evenodd"/><path d="M-128.194 114.564c.064-21.926-23.694-46.387-47.522-46.458-23.828-.07-47.726 24.25-47.79 46.175-.063 21.926 21.231 36.455 47.551 36.533 26.32.078 47.698-14.325 47.761-36.25z" fill="#ff9800"/><path d="M-175.895 126.139a47.656 48.246.004 0 0-.105.004v96.48a47.656 48.246.004 0 0 47.621-48.098 47.656 48.246.004 0 0-47.516-48.386z" fill="#f57c00"/><ellipse cy="263.691" cx="21.853" transform="matrix(-.86185 -.50716 -.49792 .86722 0 0)" rx="22.196" ry="22.331" fill="#e65100"/><path d="M-175.955 150.814c-.091 0-.18-.005-.272-.006V68.121c.171-.002.342-.016.512-.016 23.828.07 47.585 24.534 47.522 46.46-.064 21.925-21.442 36.327-47.762 36.25z" fill="#fb8c00"/><ellipse cx="-175.529" cy="119.765" rx="22.126" ry="13.785" transform="rotate(.17) skewX(.004)" fill="#ffb74d"/><ellipse ry="11.914" rx="14.646" cy="175.529" cx="124.073" transform="rotate(90.166) skewX(-.004)" fill="#ffb74d"/><ellipse cx="-175.529" cy="114.596" rx="8.51" ry="3.446" transform="rotate(.17) skewX(.004)" fill="#263238"/><path d="M-175.855 112.352c.943.003 1.7.774 1.697 1.728l-.05 17.231a1.709 1.709 0 0 1-1.707 1.718 1.709 1.709 0 0 1-1.697-1.728l.05-17.23a1.709 1.709 0 0 1 1.707-1.719z" fill="#263238"/><ellipse cx="-192.106" cy="97.694" rx="5.446" ry="5.259" transform="rotate(.13) skewX(-.088)" fill="#263238"/><ellipse transform="rotate(.13) skewX(-.088)" ry="5.259" rx="5.446" cy="97.617" cx="-158.106" fill="#263238"/></g><g transform="matrix(1.1606 .30808 -.316 1.16851 773.453 -319.769)"><path d="M-199.612 408.177l-63.074 3.44a19.416 19.416 0 0 0-7.018.621c-10.44 2.934-16.6 13.854-13.758 24.389 2.841 10.534 13.908 17.079 29.01 8.778 15.102-8.3 34.224-23.029 54.84-37.228z" fill="#546e7a" fill-rule="evenodd"/><ellipse cx="-86.834" cy="497.014" rx="47.656" ry="48.246" transform="rotate(14.608) skewX(.004)" fill="#78909c"/><ellipse cx="-365.435" cy="409.708" transform="matrix(.9627 -.27058 .26034 .96552 0 0)" rx="22.194" ry="22.333" fill="#607d8b"/><ellipse cy="404.249" cx="-53.086" transform="rotate(14.608) skewX(.004)" rx="15.318" ry="15.508" fill="#546e7a"/><ellipse ry="10.339" rx="10.212" cx="-54.791" cy="405.974" transform="rotate(14.608) skewX(.004)" fill="#cfd8dc"/><ellipse cx="-118.57" cy="404.231" transform="rotate(14.608) skewX(.004)" rx="15.318" ry="15.508" fill="#607d8b"/><ellipse cy="405.956" cx="-116.871" rx="10.212" ry="10.339" transform="rotate(14.608) skewX(.004)" fill="#cfd8dc"/><path d="M-193.264 409.95l53.57 33.472c2.17.942 4.15 2.275 5.845 3.933 7.725 7.611 7.845 20.148.27 28-7.575 7.853-20.427 8.24-29.643-6.322-9.215-14.562-18.846-36.693-30.042-59.084z" fill="#546e7a" fill-rule="evenodd"/><path d="M-148.1 413.053c5.529-21.217-11.379-50.83-34.437-56.84-23.058-6.01-52.265 11.584-57.794 32.801-5.528 21.217 11.471 40.597 36.94 47.235 25.469 6.639 49.763-1.979 55.291-23.196z" fill="#b0bec5"/><path d="M-197.18 412.368a47.656 48.246 14.443 0 0-.103-.022l-24.057 93.433a47.656 48.246 14.443 0 0 58.11-34.704 47.656 48.246 14.443 0 0-33.95-58.707z" fill="#607d8b"/><ellipse cy="497.029" cx="-214.785" transform="matrix(-.70817 -.70604 -.69843 .71568 0 0)" rx="22.196" ry="22.331" fill="#455a64"/><path d="M-203.391 436.25c-.088-.023-.174-.05-.262-.074l20.618-80.076c.165.04.334.07.5.113 23.057 6.01 39.964 35.623 34.436 56.84-5.529 21.218-29.823 29.835-55.292 23.197z" fill="#90a4ae"/><ellipse cx="-86.834" cy="441.874" rx="22.126" ry="13.785" transform="rotate(14.608) skewX(.004)" fill="#cfd8dc"/><ellipse ry="11.914" rx="14.646" cy="86.834" cx="446.182" transform="rotate(104.604) skewX(-.004)" fill="#cfd8dc"/><ellipse cx="-86.834" cy="436.705" rx="8.51" ry="3.446" transform="rotate(14.608) skewX(.004)" fill="#263238"/><path d="M-193.704 399.027a1.709 1.709 0 0 1 1.212 2.097l-4.344 16.674a1.709 1.709 0 0 1-2.082 1.238 1.709 1.709 0 0 1-1.212-2.096l4.344-16.675a1.709 1.709 0 0 1 2.082-1.238z" fill="#263238"/><ellipse cx="-103.121" cy="419.866" rx="5.446" ry="5.259" transform="rotate(14.568) skewX(-.088)" fill="#263238"/><ellipse transform="rotate(14.568) skewX(-.088)" ry="5.259" rx="5.446" cy="419.789" cx="-69.121" fill="#263238"/></g><g transform="matrix(1.40091 -.00327 -.00327 1.41224 455.495 -215.804)"><path d="M-53.608 383.477l-63.075 3.44a19.416 19.416 0 0 0-7.017.621c-10.44 2.934-16.6 13.854-13.758 24.39 2.84 10.533 13.908 17.078 29.01 8.777 15.101-8.3 34.223-23.028 54.84-37.228z" fill="#5d4037" fill-rule="evenodd"/><ellipse transform="rotate(14.608) skewX(.004)" ry="48.246" rx="47.656" cy="436.289" cx="48.224" fill="#a1887f"/><ellipse ry="22.333" rx="22.194" transform="matrix(.9627 -.27058 .26034 .96552 0 0)" cy="425.436" cx="-218.027" fill="#795548"/><ellipse ry="15.508" rx="15.318" transform="rotate(14.608) skewX(.004)" cx="81.972" cy="343.524" fill="#5d4037"/><ellipse transform="rotate(14.608) skewX(.004)" cy="345.249" cx="80.268" rx="10.212" ry="10.339" fill="#d7ccc8"/><ellipse ry="15.508" rx="15.318" transform="rotate(14.608) skewX(.004)" cy="343.506" cx="16.488" fill="#6d4c41"/><ellipse transform="rotate(14.608) skewX(.004)" ry="10.339" rx="10.212" cx="18.187" cy="345.231" fill="#d7ccc8"/><path d="M-47.26 385.25l53.57 33.472c2.17.942 4.15 2.275 5.845 3.934 7.724 7.61 7.845 20.147.269 28-7.575 7.852-20.427 8.238-29.642-6.323-9.215-14.562-18.847-36.693-30.042-59.084z" fill="#5d4037" fill-rule="evenodd"/><path d="M-2.096 388.353c5.528-21.217-11.38-50.83-34.437-56.84-23.058-6.009-52.266 11.584-57.794 32.801-5.529 21.218 11.47 40.597 36.94 47.236 25.468 6.638 49.763-1.98 55.291-23.197z" fill="#bcaaa4"/><path d="M-51.176 387.669a47.656 48.246 14.443 0 0-.104-.023l-24.056 93.433a47.656 48.246 14.443 0 0 58.11-34.704 47.656 48.246 14.443 0 0-33.95-58.706z" fill="#8d6e63"/><ellipse ry="22.331" rx="22.196" transform="matrix(-.70817 -.70604 -.69843 .71568 0 0)" cx="-302.031" cy="376.446" fill="#5d4037"/><path d="M-57.388 411.55c-.088-.023-.173-.05-.261-.074l20.617-80.076c.166.041.335.07.5.113 23.058 6.01 39.964 35.623 34.436 56.84-5.528 21.218-29.823 29.835-55.292 23.197z" fill="#a1887f"/><ellipse transform="rotate(14.608) skewX(.004)" ry="13.785" rx="22.126" cy="381.149" cx="48.224" fill="#d7ccc8"/><ellipse transform="rotate(104.604) skewX(-.004)" cx="385.457" cy="-48.224" rx="14.646" ry="11.914" fill="#d7ccc8"/><ellipse transform="rotate(14.608) skewX(.004)" ry="3.446" rx="8.51" cy="375.98" cx="48.224" fill="#263238"/><path d="M-47.7 374.327a1.709 1.709 0 0 1 1.212 2.097l-4.345 16.674a1.709 1.709 0 0 1-2.081 1.238 1.709 1.709 0 0 1-1.213-2.096l4.345-16.674a1.709 1.709 0 0 1 2.081-1.239z" fill="#263238"/><ellipse transform="rotate(14.568) skewX(-.088)" ry="5.259" rx="5.446" cy="359.236" cx="31.883" fill="#263238"/><ellipse cx="65.882" cy="359.159" rx="5.446" ry="5.259" transform="rotate(14.568) skewX(-.088)" fill="#263238"/></g><g transform="matrix(.70592 -.70922 .71163 .71493 145.806 5.698)"><path d="M-313.472 212.768l-63.074 3.44a19.416 19.416 0 0 0-7.018.622c-10.44 2.934-16.599 13.854-13.757 24.389 2.84 10.534 13.908 17.079 29.01 8.778 15.101-8.3 34.223-23.029 54.84-37.229z" fill="#616161" fill-rule="evenodd"/><ellipse transform="rotate(14.608) skewX(.004)" ry="48.246" rx="47.656" cy="336.64" cx="-246.286" fill="#bdbdbd"/><ellipse ry="22.333" rx="22.194" transform="matrix(.9627 -.27058 .26034 .96552 0 0)" cy="190.768" cx="-424.499" fill="#757575"/><ellipse ry="15.508" rx="15.318" transform="rotate(14.608) skewX(.004)" cx="-212.538" cy="243.875" fill="#616161"/><ellipse transform="rotate(14.608) skewX(.004)" cy="245.6" cx="-214.242" rx="10.212" ry="10.339" fill="#f5f5f5"/><ellipse ry="15.508" rx="15.318" transform="rotate(14.608) skewX(.004)" cy="243.857" cx="-278.022" fill="#9e9e9e"/><ellipse transform="rotate(14.608) skewX(.004)" ry="10.339" rx="10.212" cx="-276.323" cy="245.582" fill="#f5f5f5"/><path d="M-307.124 214.541l53.57 33.473c2.17.942 4.15 2.275 5.845 3.933 7.725 7.611 7.845 20.148.27 28-7.575 7.853-20.427 8.24-29.642-6.323-9.216-14.561-18.847-36.693-30.043-59.083z" fill="#616161" fill-rule="evenodd"/><path d="M-261.96 217.645c5.529-21.217-11.379-50.83-34.437-56.84-23.057-6.01-52.265 11.584-57.794 32.801-5.528 21.217 11.471 40.597 36.94 47.235 25.47 6.638 49.763-1.979 55.292-23.196z" fill="#e0e0e0"/><path d="M-311.04 216.96a47.656 48.246 14.443 0 0-.103-.022L-335.2 310.37a47.656 48.246 14.443 0 0 58.11-34.704 47.656 48.246 14.443 0 0-33.95-58.707z" fill="#9e9e9e"/><ellipse ry="22.331" rx="22.196" transform="matrix(-.70817 -.70604 -.69843 .71568 0 0)" cx="3.193" cy="439.033" fill="#616161"/><path d="M-317.251 240.841c-.088-.023-.174-.05-.261-.073l20.617-80.076c.166.04.334.07.5.113 23.057 6.01 39.964 35.623 34.436 56.84-5.529 21.218-29.823 29.835-55.292 23.196z" fill="#bdbdbd"/><ellipse transform="rotate(14.608) skewX(.004)" ry="13.785" rx="22.126" cy="281.5" cx="-246.286" fill="#f5f5f5"/><ellipse transform="rotate(104.604) skewX(-.004)" cx="285.808" cy="246.286" rx="14.646" ry="11.914" fill="#f5f5f5"/><ellipse transform="rotate(14.608) skewX(.004)" ry="3.446" rx="8.51" cy="276.331" cx="-246.286" fill="#263238"/><path d="M-307.564 203.62a1.709 1.709 0 0 1 1.212 2.096l-4.344 16.674a1.709 1.709 0 0 1-2.082 1.238 1.709 1.709 0 0 1-1.212-2.097l4.344-16.674a1.709 1.709 0 0 1 2.082-1.238z" fill="#263238"/><ellipse transform="rotate(14.568) skewX(-.088)" ry="5.259" rx="5.446" cy="259.379" cx="-262.717" fill="#263238"/><ellipse cx="-228.717" cy="259.303" rx="5.446" ry="5.259" transform="rotate(14.568) skewX(-.088)" fill="#263238"/></g></svg>