<svg xmlns="http://www.w3.org/2000/svg" width="512" height="512"><g transform="scale(2.32586) rotate(45 257.385 136.63)"><path d="M67.733 197.517c-5.123 5.588-13.625 14.868-18.815 25.4h37.63c-5.19-10.532-13.692-19.812-18.815-25.4zm18.815 25.4zm1.74 3.902zm-39.37-3.902zm-1.739 3.902zm-.959 2.65zm43.027.003zm-43.474 1.464zm43.921 0zm-44.12.722zm44.33.048zm-44.527.736c-.03.12-.06.24-.087.36l.087-.36zm44.721.033c.026.109.054.218.079.327-.025-.109-.053-.218-.079-.327zM45.136 233.5c-.442 2.106-.686 4.228-.686 6.35 0 1.458.117 2.867.333 4.233h45.9a27.15 27.15 0 0 0 .334-4.233c0-2.122-.244-4.244-.686-6.35zm45.548 10.583zm-.124.72zm-.67 2.799zm-.21.68zm-.225.671zm-.24.665zm-44.431-5.527zm.124.724zm.142.712zm.16.706zm.173.681zm.193.688zm.21.68zm.236.7zm.243.67zm.243.623zm42.431.047zm-42.16.603zm.283.64zm.297.635zm41.33-1.275zm-.284.64zm-.307.655zm-40.42.627zm.313.6zm39.751-.512zm-.266.513zm-39.15.615zm38.814 0zm-38.47.604c2.29 3.929 5.275 7.42 8.343 10.583h21.441c3.067-3.164 6.052-6.654 8.342-10.583zm29.784 10.583zm-21.441 0zm1.543 1.56c.271.269.54.53.81.795-.27-.264-.54-.526-.81-.795zm18.354 0c-.27.269-.54.531-.809.795.27-.264.539-.526.81-.795zm-16.586 1.727c1.375 1.328 2.72 2.601 3.982 3.823-1.261-1.22-2.609-2.497-3.982-3.823zm14.818 0c-1.373 1.326-2.72 2.603-3.981 3.823 1.262-1.222 2.607-2.495 3.981-3.823zm-8.689 5.951zm2.553.007z" fill="#37474f"/><path d="M48.918 222.917c-1.687 3.423-3.026 6.978-3.782 10.583H90.33c-.757-3.605-2.096-7.16-3.783-10.583zm-4.135 21.166c.608 3.862 2.014 7.37 3.888 10.584h38.125c1.873-3.214 3.28-6.722 3.888-10.584zm12.23 21.167c3.847 3.969 7.824 7.424 10.72 10.583 2.897-3.16 6.873-6.614 10.721-10.583z" fill="#ffc107"/><path d="M67.733 197.517v25.4h18.815c-5.19-10.532-13.692-19.812-18.815-25.4zm21.514 31.955zM67.733 233.5v10.583h22.95a27.15 27.15 0 0 0 .334-4.233c0-2.122-.244-4.244-.686-6.35zm21.206 16.822zm-.84 1.898zm-20.366 2.447v10.583h10.721c3.067-3.164 6.052-6.654 8.342-10.583z" fill="#263238"/><path d="M67.733 222.917V233.5h22.598c-.757-3.605-2.096-7.16-3.783-10.583zm0 21.166v10.584h19.063c1.873-3.214 3.28-6.722 3.888-10.584zm0 21.167v10.583c2.897-3.16 6.873-6.614 10.721-10.583z" fill="#ffb300"/><ellipse cx="67.733" cy="199.633" rx="19.05" ry="14.817" fill="#37474f"/><path d="M67.733 184.817v29.633a19.05 14.817 0 0 0 19.05-14.817 19.05 14.817 0 0 0-19.05-14.816z" fill="#263238"/><path d="M103.814 223.548c6.9 4.127 12.849 14.086 9.55 20.007-3.3 5.921-14.6 5.563-21.5 1.436-6.899-4.126-15.985-16.709-19.897-26.196 9.887-1.234 24.948.627 31.847 4.753z" fill="#cfd8dc"/><path d="M103.717 205.983c8.466 0 19.05 5.686 19.05 12.7 0 7.014-10.584 12.7-19.05 12.7-8.467 0-23.284-6.35-31.75-12.7 8.466-6.35 23.283-12.7 31.75-12.7z" fill="#eceff1"/><path d="M31.652 223.548c-6.9 4.127-12.848 14.086-9.548 20.007 3.3 5.921 14.599 5.563 21.498 1.436 6.9-4.126 15.986-16.709 19.898-26.196-9.887-1.234-24.948.627-31.848 4.753z" fill="#cfd8dc"/><path d="M31.75 205.983c-8.467 0-19.05 5.686-19.05 12.7 0 7.014 10.583 12.7 19.05 12.7s23.283-6.35 31.75-12.7c-8.467-6.35-23.283-12.7-31.75-12.7z" fill="#eceff1"/><g transform="translate(1.498 2.52)" fill="#37474f"><circle r="3.175" cy="172.117" cx="50.8"/><path d="M50.8 171.191v1.852c3.771 0 7.776 2.94 9.755 6.896 1.978 3.958 2.017 8.73-1.944 12.69l1.31 1.309c4.507-4.507 4.545-10.317 2.29-14.827s-6.714-7.92-11.41-7.92z" style="line-height:normal;text-indent:0;text-align:start;text-decoration-line:none;text-decoration-style:solid;text-decoration-color:#000;text-transform:none;isolation:auto;mix-blend-mode:normal" color="#000" font-weight="400" font-family="sans-serif" white-space="normal" overflow="visible"/></g><g transform="matrix(-1 0 0 1 133.968 2.52)" fill="#263238"><circle cx="50.8" cy="172.117" r="3.175"/><path style="line-height:normal;text-indent:0;text-align:start;text-decoration-line:none;text-decoration-style:solid;text-decoration-color:#000;text-transform:none;isolation:auto;mix-blend-mode:normal" d="M50.8 171.191v1.852c3.771 0 7.776 2.94 9.755 6.896 1.978 3.958 2.017 8.73-1.944 12.69l1.31 1.309c4.507-4.507 4.545-10.317 2.29-14.827s-6.714-7.92-11.41-7.92z" color="#000" font-weight="400" font-family="sans-serif" white-space="normal" overflow="visible"/></g></g><g transform="matrix(-1.43905 -1.43905 1.43905 -1.43905 157.557 796.497)"><path d="M67.733 197.517c-5.123 5.588-13.625 14.868-18.815 25.4h37.63c-5.19-10.532-13.692-19.812-18.815-25.4zm18.815 25.4zm1.74 3.902zm-39.37-3.902zm-1.739 3.902zm-.959 2.65zm43.027.003zm-43.474 1.464zm43.921 0zm-44.12.722zm44.33.048zm-44.527.736c-.03.12-.06.24-.087.36l.087-.36zm44.721.033c.026.109.054.218.079.327-.025-.109-.053-.218-.079-.327zM45.136 233.5c-.442 2.106-.686 4.228-.686 6.35 0 1.458.117 2.867.333 4.233h45.9a27.15 27.15 0 0 0 .334-4.233c0-2.122-.244-4.244-.686-6.35zm45.548 10.583zm-.124.72zm-.67 2.799zm-.21.68zm-.225.671zm-.24.665zm-44.431-5.527zm.124.724zm.142.712zm.16.706zm.173.681zm.193.688zm.21.68zm.236.7zm.243.67zm.243.623zm42.431.047zm-42.16.603zm.283.64zm.297.635zm41.33-1.275zm-.284.64zm-.307.655zm-40.42.627zm.313.6zm39.751-.512zm-.266.513zm-39.15.615zm38.814 0zm-38.47.604c2.29 3.929 5.275 7.42 8.343 10.583h21.441c3.067-3.164 6.052-6.654 8.342-10.583zm29.784 10.583zm-21.441 0zm1.543 1.56c.271.269.54.53.81.795-.27-.264-.54-.526-.81-.795zm18.354 0c-.27.269-.54.531-.809.795.27-.264.539-.526.81-.795zm-16.586 1.727c1.375 1.328 2.72 2.601 3.982 3.823-1.261-1.22-2.609-2.497-3.982-3.823zm14.818 0c-1.373 1.326-2.72 2.603-3.981 3.823 1.262-1.222 2.607-2.495 3.981-3.823zm-8.689 5.951zm2.553.007z" fill="#37474f"/><path d="M48.918 222.917c-1.687 3.423-3.026 6.978-3.782 10.583H90.33c-.757-3.605-2.096-7.16-3.783-10.583zm-4.135 21.166c.608 3.862 2.014 7.37 3.888 10.584h38.125c1.873-3.214 3.28-6.722 3.888-10.584zm12.23 21.167c3.847 3.969 7.824 7.424 10.72 10.583 2.897-3.16 6.873-6.614 10.721-10.583z" fill="#ffc107"/><path d="M67.733 197.517v25.4h18.815c-5.19-10.532-13.692-19.812-18.815-25.4zm21.514 31.955zM67.733 233.5v10.583h22.95a27.15 27.15 0 0 0 .334-4.233c0-2.122-.244-4.244-.686-6.35zm21.206 16.822zm-.84 1.898zm-20.366 2.447v10.583h10.721c3.067-3.164 6.052-6.654 8.342-10.583z" fill="#263238"/><path d="M67.733 222.917V233.5h22.598c-.757-3.605-2.096-7.16-3.783-10.583zm0 21.166v10.584h19.063c1.873-3.214 3.28-6.722 3.888-10.584zm0 21.167v10.583c2.897-3.16 6.873-6.614 10.721-10.583z" fill="#ffb300"/><ellipse ry="14.817" rx="19.05" cy="199.633" cx="67.733" fill="#37474f"/><path d="M67.733 184.817v29.633a19.05 14.817 0 0 0 19.05-14.817 19.05 14.817 0 0 0-19.05-14.816z" fill="#263238"/><path d="M103.814 223.548c6.9 4.127 12.849 14.086 9.55 20.007-3.3 5.921-14.6 5.563-21.5 1.436-6.899-4.126-15.985-16.709-19.897-26.196 9.887-1.234 24.948.627 31.847 4.753z" fill="#cfd8dc"/><path d="M103.717 205.983c8.466 0 19.05 5.686 19.05 12.7 0 7.014-10.584 12.7-19.05 12.7-8.467 0-23.284-6.35-31.75-12.7 8.466-6.35 23.283-12.7 31.75-12.7z" fill="#eceff1"/><path d="M31.652 223.548c-6.9 4.127-12.848 14.086-9.548 20.007 3.3 5.921 14.599 5.563 21.498 1.436 6.9-4.126 15.986-16.709 19.898-26.196-9.887-1.234-24.948.627-31.848 4.753z" fill="#cfd8dc"/><path d="M31.75 205.983c-8.467 0-19.05 5.686-19.05 12.7 0 7.014 10.583 12.7 19.05 12.7s23.283-6.35 31.75-12.7c-8.467-6.35-23.283-12.7-31.75-12.7z" fill="#eceff1"/><g transform="translate(1.498 2.52)" fill="#37474f"><circle cx="50.8" cy="172.117" r="3.175"/><path style="line-height:normal;text-indent:0;text-align:start;text-decoration-line:none;text-decoration-style:solid;text-decoration-color:#000;text-transform:none;isolation:auto;mix-blend-mode:normal" d="M50.8 171.191v1.852c3.771 0 7.776 2.94 9.755 6.896 1.978 3.958 2.017 8.73-1.944 12.69l1.31 1.309c4.507-4.507 4.545-10.317 2.29-14.827s-6.714-7.92-11.41-7.92z" color="#000" font-weight="400" font-family="sans-serif" white-space="normal" overflow="visible"/></g><g transform="matrix(-1 0 0 1 133.968 2.52)" fill="#263238"><circle r="3.175" cy="172.117" cx="50.8"/><path d="M50.8 171.191v1.852c3.771 0 7.776 2.94 9.755 6.896 1.978 3.958 2.017 8.73-1.944 12.69l1.31 1.309c4.507-4.507 4.545-10.317 2.29-14.827s-6.714-7.92-11.41-7.92z" style="line-height:normal;text-indent:0;text-align:start;text-decoration-line:none;text-decoration-style:solid;text-decoration-color:#000;text-transform:none;isolation:auto;mix-blend-mode:normal" color="#000" font-weight="400" font-family="sans-serif" white-space="normal" overflow="visible"/></g></g><g transform="scale(-1.7444) rotate(-45 -444.594 403.966)"><path d="M67.733 197.517c-5.123 5.588-13.625 14.868-18.815 25.4h37.63c-5.19-10.532-13.692-19.812-18.815-25.4zm18.815 25.4zm1.74 3.902zm-39.37-3.902zm-1.739 3.902zm-.959 2.65zm43.027.003zm-43.474 1.464zm43.921 0zm-44.12.722zm44.33.048zm-44.527.736c-.03.12-.06.24-.087.36l.087-.36zm44.721.033c.026.109.054.218.079.327-.025-.109-.053-.218-.079-.327zM45.136 233.5c-.442 2.106-.686 4.228-.686 6.35 0 1.458.117 2.867.333 4.233h45.9a27.15 27.15 0 0 0 .334-4.233c0-2.122-.244-4.244-.686-6.35zm45.548 10.583zm-.124.72zm-.67 2.799zm-.21.68zm-.225.671zm-.24.665zm-44.431-5.527zm.124.724zm.142.712zm.16.706zm.173.681zm.193.688zm.21.68zm.236.7zm.243.67zm.243.623zm42.431.047zm-42.16.603zm.283.64zm.297.635zm41.33-1.275zm-.284.64zm-.307.655zm-40.42.627zm.313.6zm39.751-.512zm-.266.513zm-39.15.615zm38.814 0zm-38.47.604c2.29 3.929 5.275 7.42 8.343 10.583h21.441c3.067-3.164 6.052-6.654 8.342-10.583zm29.784 10.583zm-21.441 0zm1.543 1.56c.271.269.54.53.81.795-.27-.264-.54-.526-.81-.795zm18.354 0c-.27.269-.54.531-.809.795.27-.264.539-.526.81-.795zm-16.586 1.727c1.375 1.328 2.72 2.601 3.982 3.823-1.261-1.22-2.609-2.497-3.982-3.823zm14.818 0c-1.373 1.326-2.72 2.603-3.981 3.823 1.262-1.222 2.607-2.495 3.981-3.823zm-8.689 5.951zm2.553.007z" fill="#37474f"/><path d="M48.918 222.917c-1.687 3.423-3.026 6.978-3.782 10.583H90.33c-.757-3.605-2.096-7.16-3.783-10.583zm-4.135 21.166c.608 3.862 2.014 7.37 3.888 10.584h38.125c1.873-3.214 3.28-6.722 3.888-10.584zm12.23 21.167c3.847 3.969 7.824 7.424 10.72 10.583 2.897-3.16 6.873-6.614 10.721-10.583z" fill="#ffc107"/><path d="M67.733 197.517v25.4h18.815c-5.19-10.532-13.692-19.812-18.815-25.4zm21.514 31.955zM67.733 233.5v10.583h22.95a27.15 27.15 0 0 0 .334-4.233c0-2.122-.244-4.244-.686-6.35zm21.206 16.822zm-.84 1.898zm-20.366 2.447v10.583h10.721c3.067-3.164 6.052-6.654 8.342-10.583z" fill="#263238"/><path d="M67.733 222.917V233.5h22.598c-.757-3.605-2.096-7.16-3.783-10.583zm0 21.166v10.584h19.063c1.873-3.214 3.28-6.722 3.888-10.584zm0 21.167v10.583c2.897-3.16 6.873-6.614 10.721-10.583z" fill="#ffb300"/><ellipse cx="67.733" cy="199.633" rx="19.05" ry="14.817" fill="#37474f"/><path d="M67.733 184.817v29.633a19.05 14.817 0 0 0 19.05-14.817 19.05 14.817 0 0 0-19.05-14.816z" fill="#263238"/><path d="M103.814 223.548c6.9 4.127 12.849 14.086 9.55 20.007-3.3 5.921-14.6 5.563-21.5 1.436-6.899-4.126-15.985-16.709-19.897-26.196 9.887-1.234 24.948.627 31.847 4.753z" fill="#cfd8dc"/><path d="M103.717 205.983c8.466 0 19.05 5.686 19.05 12.7 0 7.014-10.584 12.7-19.05 12.7-8.467 0-23.284-6.35-31.75-12.7 8.466-6.35 23.283-12.7 31.75-12.7z" fill="#eceff1"/><path d="M31.652 223.548c-6.9 4.127-12.848 14.086-9.548 20.007 3.3 5.921 14.599 5.563 21.498 1.436 6.9-4.126 15.986-16.709 19.898-26.196-9.887-1.234-24.948.627-31.848 4.753z" fill="#cfd8dc"/><path d="M31.75 205.983c-8.467 0-19.05 5.686-19.05 12.7 0 7.014 10.583 12.7 19.05 12.7s23.283-6.35 31.75-12.7c-8.467-6.35-23.283-12.7-31.75-12.7z" fill="#eceff1"/><g transform="translate(1.498 2.52)" fill="#37474f"><circle r="3.175" cy="172.117" cx="50.8"/><path d="M50.8 171.191v1.852c3.771 0 7.776 2.94 9.755 6.896 1.978 3.958 2.017 8.73-1.944 12.69l1.31 1.309c4.507-4.507 4.545-10.317 2.29-14.827s-6.714-7.92-11.41-7.92z" style="line-height:normal;text-indent:0;text-align:start;text-decoration-line:none;text-decoration-style:solid;text-decoration-color:#000;text-transform:none;isolation:auto;mix-blend-mode:normal" color="#000" font-weight="400" font-family="sans-serif" white-space="normal" overflow="visible"/></g><g transform="matrix(-1 0 0 1 133.968 2.52)" fill="#263238"><circle cx="50.8" cy="172.117" r="3.175"/><path style="line-height:normal;text-indent:0;text-align:start;text-decoration-line:none;text-decoration-style:solid;text-decoration-color:#000;text-transform:none;isolation:auto;mix-blend-mode:normal" d="M50.8 171.191v1.852c3.771 0 7.776 2.94 9.755 6.896 1.978 3.958 2.017 8.73-1.944 12.69l1.31 1.309c4.507-4.507 4.545-10.317 2.29-14.827s-6.714-7.92-11.41-7.92z" color="#000" font-weight="400" font-family="sans-serif" white-space="normal" overflow="visible"/></g></g><g transform="scale(1.45366) rotate(-45 123.418 190.273)"><path d="M67.733 197.517c-5.123 5.588-13.625 14.868-18.815 25.4h37.63c-5.19-10.532-13.692-19.812-18.815-25.4zm18.815 25.4zm1.74 3.902zm-39.37-3.902zm-1.739 3.902zm-.959 2.65zm43.027.003zm-43.474 1.464zm43.921 0zm-44.12.722zm44.33.048zm-44.527.736c-.03.12-.06.24-.087.36l.087-.36zm44.721.033c.026.109.054.218.079.327-.025-.109-.053-.218-.079-.327zM45.136 233.5c-.442 2.106-.686 4.228-.686 6.35 0 1.458.117 2.867.333 4.233h45.9a27.15 27.15 0 0 0 .334-4.233c0-2.122-.244-4.244-.686-6.35zm45.548 10.583zm-.124.72zm-.67 2.799zm-.21.68zm-.225.671zm-.24.665zm-44.431-5.527zm.124.724zm.142.712zm.16.706zm.173.681zm.193.688zm.21.68zm.236.7zm.243.67zm.243.623zm42.431.047zm-42.16.603zm.283.64zm.297.635zm41.33-1.275zm-.284.64zm-.307.655zm-40.42.627zm.313.6zm39.751-.512zm-.266.513zm-39.15.615zm38.814 0zm-38.47.604c2.29 3.929 5.275 7.42 8.343 10.583h21.441c3.067-3.164 6.052-6.654 8.342-10.583zm29.784 10.583zm-21.441 0zm1.543 1.56c.271.269.54.53.81.795-.27-.264-.54-.526-.81-.795zm18.354 0c-.27.269-.54.531-.809.795.27-.264.539-.526.81-.795zm-16.586 1.727c1.375 1.328 2.72 2.601 3.982 3.823-1.261-1.22-2.609-2.497-3.982-3.823zm14.818 0c-1.373 1.326-2.72 2.603-3.981 3.823 1.262-1.222 2.607-2.495 3.981-3.823zm-8.689 5.951zm2.553.007z" fill="#37474f"/><path d="M48.918 222.917c-1.687 3.423-3.026 6.978-3.782 10.583H90.33c-.757-3.605-2.096-7.16-3.783-10.583zm-4.135 21.166c.608 3.862 2.014 7.37 3.888 10.584h38.125c1.873-3.214 3.28-6.722 3.888-10.584zm12.23 21.167c3.847 3.969 7.824 7.424 10.72 10.583 2.897-3.16 6.873-6.614 10.721-10.583z" fill="#ffc107"/><path d="M67.733 197.517v25.4h18.815c-5.19-10.532-13.692-19.812-18.815-25.4zm21.514 31.955zM67.733 233.5v10.583h22.95a27.15 27.15 0 0 0 .334-4.233c0-2.122-.244-4.244-.686-6.35zm21.206 16.822zm-.84 1.898zm-20.366 2.447v10.583h10.721c3.067-3.164 6.052-6.654 8.342-10.583z" fill="#263238"/><path d="M67.733 222.917V233.5h22.598c-.757-3.605-2.096-7.16-3.783-10.583zm0 21.166v10.584h19.063c1.873-3.214 3.28-6.722 3.888-10.584zm0 21.167v10.583c2.897-3.16 6.873-6.614 10.721-10.583z" fill="#ffb300"/><ellipse ry="14.817" rx="19.05" cy="199.633" cx="67.733" fill="#37474f"/><path d="M67.733 184.817v29.633a19.05 14.817 0 0 0 19.05-14.817 19.05 14.817 0 0 0-19.05-14.816z" fill="#263238"/><path d="M103.814 223.548c6.9 4.127 12.849 14.086 9.55 20.007-3.3 5.921-14.6 5.563-21.5 1.436-6.899-4.126-15.985-16.709-19.897-26.196 9.887-1.234 24.948.627 31.847 4.753z" fill="#cfd8dc"/><path d="M103.717 205.983c8.466 0 19.05 5.686 19.05 12.7 0 7.014-10.584 12.7-19.05 12.7-8.467 0-23.284-6.35-31.75-12.7 8.466-6.35 23.283-12.7 31.75-12.7z" fill="#eceff1"/><path d="M31.652 223.548c-6.9 4.127-12.848 14.086-9.548 20.007 3.3 5.921 14.599 5.563 21.498 1.436 6.9-4.126 15.986-16.709 19.898-26.196-9.887-1.234-24.948.627-31.848 4.753z" fill="#cfd8dc"/><path d="M31.75 205.983c-8.467 0-19.05 5.686-19.05 12.7 0 7.014 10.583 12.7 19.05 12.7s23.283-6.35 31.75-12.7c-8.467-6.35-23.283-12.7-31.75-12.7z" fill="#eceff1"/><g transform="translate(1.498 2.52)" fill="#37474f"><circle cx="50.8" cy="172.117" r="3.175"/><path style="line-height:normal;text-indent:0;text-align:start;text-decoration-line:none;text-decoration-style:solid;text-decoration-color:#000;text-transform:none;isolation:auto;mix-blend-mode:normal" d="M50.8 171.191v1.852c3.771 0 7.776 2.94 9.755 6.896 1.978 3.958 2.017 8.73-1.944 12.69l1.31 1.309c4.507-4.507 4.545-10.317 2.29-14.827s-6.714-7.92-11.41-7.92z" color="#000" font-weight="400" font-family="sans-serif" white-space="normal" overflow="visible"/></g><g transform="matrix(-1 0 0 1 133.968 2.52)" fill="#263238"><circle r="3.175" cy="172.117" cx="50.8"/><path d="M50.8 171.191v1.852c3.771 0 7.776 2.94 9.755 6.896 1.978 3.958 2.017 8.73-1.944 12.69l1.31 1.309c4.507-4.507 4.545-10.317 2.29-14.827s-6.714-7.92-11.41-7.92z" style="line-height:normal;text-indent:0;text-align:start;text-decoration-line:none;text-decoration-style:solid;text-decoration-color:#000;text-transform:none;isolation:auto;mix-blend-mode:normal" color="#000" font-weight="400" font-family="sans-serif" white-space="normal" overflow="visible"/></g></g></svg>