<svg xmlns="http://www.w3.org/2000/svg" width="512" height="512"><path fill="#37474f" d="M407 209a96 96 0 0 0-96 96 96 96 0 0 0 96 96 96 96 0 0 0 96-96 96 96 0 0 0-96-96m0 16a80 80 0 0 1 80 80 80 80 0 0 1-80 80 80 80 0 0 1-80-80 80 80 0 0 1 80-80"/><path fill="#eceff1" d="M407 225a80 80 0 0 0-80 80 80 80 0 0 0 80 80 80 80 0 0 0 80-80 80 80 0 0 0-80-80m0 16a64 64 0 0 1 64 64 64 64 0 0 1-64 64 64 64 0 0 1-64-64 64 64 0 0 1 64-64"/><path fill="#37474f" d="M112 209a96 96 0 0 0-96 96 96 96 0 0 0 96 96 96 96 0 0 0 96-96 96 96 0 0 0-96-96m0 16a80 80 0 0 1 80 80 80 80 0 0 1-80 80 80 80 0 0 1-80-80 80 80 0 0 1 80-80"/><path fill="#263238" fill-rule="evenodd" d="M248 251a6 6 0 1 0 0 12h10.307a6 6 0 0 0-.246 2.848l8 56a6 6 0 1 0 11.878-1.696l-8-56a6 6 0 0 0-.267-1.152H280a6 6 0 1 0 0-12z" color="#000" font-family="sans-serif" font-weight="400" overflow="visible" style="line-height:normal;font-variant-ligatures:normal;font-variant-position:normal;font-variant-caps:normal;font-variant-numeric:normal;font-variant-alternates:normal;font-feature-settings:normal;text-indent:0;text-align:start;text-decoration-line:none;text-decoration-style:solid;text-decoration-color:#000;text-transform:none;text-orientation:mixed;shape-padding:0;isolation:auto;mix-blend-mode:normal"/><path fill="#eceff1" d="M112 225a80 80 0 0 0-80 80 80 80 0 0 0 80 80 80 80 0 0 0 80-80 80 80 0 0 0-80-80m0 16a64 64 0 0 1 64 64 64 64 0 0 1-64 64 64 64 0 0 1-64-64 64 64 0 0 1 64-64"/><path fill="#d32f2f" fill-rule="evenodd" d="M120 129a8 8 0 1 0 0 16h44.9l-12.1 36.307a8 8 0 0 0-.656 1.798l-47.57 118.924a8 8 0 1 0 14.855 5.942l43.015-107.541 42.33 50.797 11.362-11.362L177.08 193H263l16-16H171.1l12.49-37.47A8 8 0 0 0 176 129z" color="#000" font-family="sans-serif" font-weight="400" overflow="visible" style="line-height:normal;font-variant-ligatures:normal;font-variant-position:normal;font-variant-caps:normal;font-variant-numeric:normal;font-variant-alternates:normal;font-feature-settings:normal;text-indent:0;text-align:start;text-decoration-line:none;text-decoration-style:solid;text-decoration-color:#000;text-transform:none;text-orientation:mixed;shape-padding:0;isolation:auto;mix-blend-mode:normal"/><path fill="#607d8b" fill-rule="evenodd" d="M120 129c-23.2 0-38 15.556-38 32s14.8 32 38 32a8 8 0 1 0 0-16c-16.8 0-22-8.444-22-16s5.2-16 22-16a8 8 0 1 0 0-16" color="#000" font-family="sans-serif" font-weight="400" overflow="visible" style="line-height:normal;font-variant-ligatures:normal;font-variant-position:normal;font-variant-caps:normal;font-variant-numeric:normal;font-variant-alternates:normal;font-feature-settings:normal;text-indent:0;text-align:start;text-decoration-line:none;text-decoration-style:solid;text-decoration-color:#000;text-transform:none;text-orientation:mixed;shape-padding:0;isolation:auto;mix-blend-mode:normal"/><circle cx="112" cy="305" r="16" fill="#37474f"/><path fill="#b71c1c" fill-rule="evenodd" d="M343.992 120.89a8 8 0 0 0-7.611 5.672L320.24 177H279l-16 16h52.121l-38.3 119.688-60.686-72.823-11.362 11.362 68.284 81.937a8 8 0 0 0 9.677 3.463l126.74-23.764a8 8 0 0 0 5.182-12.3l-79.16-118.74 16.123-50.386a8 8 0 0 0-7.627-10.546zm-14.732 80.42 65.37 98.057-102.923 19.299z" color="#000" font-family="sans-serif" font-weight="400" overflow="visible" style="line-height:normal;font-variant-ligatures:normal;font-variant-position:normal;font-variant-caps:normal;font-variant-numeric:normal;font-variant-alternates:normal;font-feature-settings:normal;text-indent:0;text-align:start;text-decoration-line:none;text-decoration-style:solid;text-decoration-color:#000;text-transform:none;text-orientation:mixed;shape-padding:0;isolation:auto;mix-blend-mode:normal"/><path fill="#263238" d="m179.357 236.643-11.341 11.341A80 80 0 0 1 192 305a80 80 0 0 1-80 80 80 80 0 0 1-57.05-23.95l-11.272 11.272A96 96 0 0 0 112 401a96 96 0 0 0 96-96 96 96 0 0 0-28.643-68.357"/><path fill="#cfd8dc" d="m168.05 247.95-11.34 11.34A64 64 0 0 1 176 305a64 64 0 0 1-64 64 64 64 0 0 1-45.744-19.256l-11.272 11.272A80 80 0 0 0 112 385a80 80 0 0 0 80-80 80 80 0 0 0-23.95-57.05"/><path fill="#263238" d="m122.79 293.21-22.581 22.581A16 16 0 0 0 112 321a16 16 0 0 0 16-16 16 16 0 0 0-5.21-11.79"/><circle cx="407" cy="305" r="16" fill="#37474f"/><path fill="#263238" d="m474.357 236.643-11.341 11.341A80 80 0 0 1 487 305a80 80 0 0 1-80 80 80 80 0 0 1-57.05-23.95l-11.272 11.272A96 96 0 0 0 407 401a96 96 0 0 0 96-96 96 96 0 0 0-28.643-68.357"/><path fill="#cfd8dc" d="m463.05 247.95-11.34 11.34A64 64 0 0 1 471 305a64 64 0 0 1-64 64 64 64 0 0 1-45.744-19.256l-11.272 11.272A80 80 0 0 0 407 385a80 80 0 0 0 80-80 80 80 0 0 0-23.95-57.05"/><path fill="#263238" d="m417.79 293.21-22.581 22.581A16 16 0 0 0 407 321a16 16 0 0 0 16-16 16 16 0 0 0-5.21-11.79"/><path fill="#90a4ae" fill-rule="evenodd" d="M292 111c-6.33.001-8.346 8.535-2.684 11.367l24 12A6 6 0 0 0 316 135h22.406l26.617 15.209a6 6 0 0 0 8.186-2.232l16-28c2.284-4-.603-8.976-5.209-8.977h-68z" color="#000" font-family="sans-serif" font-weight="400" overflow="visible" style="line-height:normal;font-variant-ligatures:normal;font-variant-position:normal;font-variant-caps:normal;font-variant-numeric:normal;font-variant-alternates:normal;font-feature-settings:normal;text-indent:0;text-align:start;text-decoration-line:none;text-decoration-style:solid;text-decoration-color:#000;text-transform:none;text-orientation:mixed;shape-padding:0;isolation:auto;mix-blend-mode:normal"/><path fill="#607d8b" d="m361 111-24 24h1.406l26.617 15.209a6 6 0 0 0 8.186-2.232l16-28c2.284-4-.603-8.976-5.209-8.977z"/><circle cx="272" cy="321" r="28" fill="#cfd8dc"/><path fill="#b0bec5" d="m291.787 301.213-39.574 39.574A28 28 0 0 0 272 349a28 28 0 0 0 28-28 28 28 0 0 0-8.213-19.787"/><path fill="#37474f" fill-rule="evenodd" d="M272.246 314.922a6 6 0 0 0-6.185 6.926L273.082 371H264a6 6 0 1 0 0 12h14.922a6 6 0 0 0 2.187 0H296a6 6 0 1 0 0-12h-10.797l-7.264-50.848a6 6 0 0 0-5.693-5.23" color="#000" font-family="sans-serif" font-weight="400" overflow="visible" style="line-height:normal;font-variant-ligatures:normal;font-variant-position:normal;font-variant-caps:normal;font-variant-numeric:normal;font-variant-alternates:normal;font-feature-settings:normal;text-indent:0;text-align:start;text-decoration-line:none;text-decoration-style:solid;text-decoration-color:#000;text-transform:none;text-orientation:mixed;shape-padding:0;isolation:auto;mix-blend-mode:normal"/></svg>