<svg xmlns="http://www.w3.org/2000/svg" width="512" height="512"><path fill="#ffe0b2" fill-rule="evenodd" d="m132.57 214.326 19.86-55.372 98.925 24.48-10.166 29.254 91.514 69.537-32.62 46.4-63.4-13.371-34.73-59.084z"/><ellipse cx="231" cy="425.645" fill="#cfd8dc" rx="144" ry="68"/><path fill="#b0bec5" d="M231 357.645v136a144 68 0 0 0 144-68 144 68 0 0 0-144-68"/><path fill="#ffecb3" fill-rule="evenodd" d="m86.6 289.955 19.861-55.371 98.924 24.48-10.166 29.253 91.515 69.537-32.621 46.4-63.4-13.371-34.73-59.083z"/><path fill="#ffe0b2" fill-rule="evenodd" d="m184.73 425.586-48.009-33.994 50.134-88.724 25.45 17.645 91.55-69.492 35.942 43.878-29.898 57.484-66.237 17.598z"/><path fill="#ffecb3" fill-rule="evenodd" d="m220.61 334.86-48.01-33.996 50.134-88.723 25.451 17.644 91.549-69.492 35.942 43.878-29.898 57.485-66.237 17.597zm-12.762 140.38-48.009-33.993 50.134-88.724 25.451 17.645 91.549-69.493 35.942 43.879-29.898 57.484-66.237 17.597z"/><path fill="#78909c" fill-rule="evenodd" d="m31 125.645 72 288a128 64 0 0 0 128 64 128 64 0 0 0 128-64l72-288z"/><path fill="#607d8b" fill-rule="evenodd" d="M231 125.645v352a128 64 0 0 0 128-64l72-288z"/><ellipse cx="231" cy="105.645" fill="#607d8b" rx="184" ry="68"/><path fill="#cfd8dc" d="m181.724 281.677 34.347 19.83 12.186-21.607 10.236 17.728-10.619 6.306 39.854 4.671 18.397-36.118-12.196 7.198-25.967-47.155-42.734 7.483.131.226zm26.388 116.775v-39.66l-24.805.25 10.235-17.729 10.77 6.043-15.881-36.85-40.477 2.127 12.33 6.963-27.853 46.066 27.847 33.267.13-.227zm88.84-79.725-34.348 19.83 12.62 21.358h-20.472l-.152-12.35-23.971 32.18 22.08 33.99-.135-14.16 53.82 1.09 14.887-40.75h-.261z"/><path fill="#fff" fill-rule="evenodd" d="m355.65 94.325 15.598 56.72-95.005 36.868-68.064-14.18-55.302-19.852v-56.72l59.556-25.523 62.392 28.36z"/><path fill="#ffecb3" fill-rule="evenodd" d="M79.887 160.817 76.289 96.79l81.662-41.617 7.313 33.613 98.726 4.802v64.026l-51.19 28.812-53.63-3.201z"/><path fill="#cfd8dc" d="M231 21.645a208 88 0 0 0-208 88 208 88 0 0 0 208 88 208 88 0 0 0 208-88 208 88 0 0 0-208-88m0 16a184 68 0 0 1 184 68 184 68 0 0 1-184 68 184 68 0 0 1-184-68 184 68 0 0 1 184-68"/><path fill="#b0bec5" d="M231 21.645v16a184 68 0 0 1 184 68 184 68 0 0 1-184 68v24a208 88 0 0 0 208-88 208 88 0 0 0-208-88"/><path fill="#ffe0b2" fill-rule="evenodd" d="m186.362 165.912-40.337-42.817 66.69-77.056 91.238 6.578 33.705-34.262 26.555 50.12-40.677 50.436-26.252 10.021-44.275-23.377z"/><path fill="#b0bec5" d="M247.96 232.53 231 235.5v49.15l7.492 12.979-7.492 4.45v2.222l36.729 4.304 18.396-36.117-12.195 7.198zm48.991 86.197-34.347 19.83 12.619 21.357h-20.471l-.152-12.348-23.6 31.68v1.07l21.709 33.42-.135-14.162 53.82 1.09 14.887-40.75h-.261z"/></svg>