<svg xmlns="http://www.w3.org/2000/svg" width="512" height="512"><g color="#000"><path style="isolation:auto;mix-blend-mode:normal" d="M260.444 123.47s-16.228-13.69-48.888-26.508c-32.66-12.819-160-39.762-160-39.762L24.889 70.454l22.222 322.51 204.445 53.014z" overflow="visible" fill="#cfd8dc"/><path d="M224.889 121.26L20.444 68.245 16 70.454l4.444 322.51 204.445 53.014z" style="isolation:auto;mix-blend-mode:normal" overflow="visible" fill="#2196f3"/><path style="isolation:auto;mix-blend-mode:normal" d="M220.444 123.47L16 70.453V397.38l204.444 53.015z" overflow="visible" fill="#03a9f4"/><path d="M251.556 123.47s16.228-13.69 48.888-26.508c32.66-12.819 160-39.762 160-39.762l26.667 13.254-22.222 322.51-204.445 53.014z" style="isolation:auto;mix-blend-mode:normal" overflow="visible" fill="#cfd8dc"/><path style="isolation:auto;mix-blend-mode:normal" d="M287.111 121.26l204.445-53.015L496 70.454l-4.444 322.51-204.445 53.014z" overflow="visible" fill="#2196f3"/><path d="M291.556 123.47L496 70.453V397.38l-204.444 53.015z" style="isolation:auto;mix-blend-mode:normal" overflow="visible" fill="#03a9f4"/><path style="isolation:auto;mix-blend-mode:normal" d="M224.889 121.26a86.36 86.36 0 0 0 62.222 0l4.445 2.21v323.215c-17.778 8.13-53.334 8.13-71.112 0V123.469z" overflow="visible" fill="#263238"/><path d="M220.444 123.47c17.778 8.835 53.334 8.835 71.112 0v327.633c-17.778 8.13-53.334 8.13-71.112 0z" style="isolation:auto;mix-blend-mode:normal" overflow="visible" fill="#607d8b"/><path style="isolation:auto;mix-blend-mode:normal" d="M220.444 149.977c17.778 8.836 53.334 8.836 71.112 0v36.05c-17.778 8.13-53.334 8.13-71.112 0zM220.444 415.053c17.778 8.836 53.334 8.836 71.112 0v18.378c-17.778 8.13-53.334 8.13-71.112 0z" overflow="visible" fill="#ffc107"/><path style="isolation:auto;mix-blend-mode:normal" d="M220.444 388.545c17.778 8.836 53.334 8.836 71.112 0v18.379c-17.778 8.129-53.334 8.129-71.112 0z" overflow="visible" fill="#ffc107"/><path d="M291.556 123.47c-8.89 4.417-22.223 6.626-35.556 6.626V457.2c13.333 0 26.667-2.032 35.556-6.096V123.469z" style="isolation:auto;mix-blend-mode:normal" overflow="visible" opacity=".5" fill="#263238"/></g></svg>