<svg xmlns="http://www.w3.org/2000/svg" width="512" height="512"><path fill="#8bc34a" d="M168 259.778 177.274 218l9.082-35.99 42.31-9.015 28-4.567 18.667 4.567 42 9.135 9.334 36.54L336 259.778h-79.333z"/><path fill="#33691e" d="m197.037 259.778 8.296-50.242 9.334-18.27 14-18.27 28-7.203 18.666 7.203 14 18.27 9.334 18.27L308 259.778h-50.815z"/><path fill="#3e2723" d="M228.667 152.442h46.666v25.121L252 214.103l-23.333-36.54z"/><path fill="#795548" d="m312.667 104.484-9.334 27.405-14 13.702-11.666 11.419L266 161.577h-28l-11.667-4.567-11.666-11.419-14-15.986-9.334-25.12L196 77.078l9.333-31.404L252 36.54l46.667 9.135L308 77.079z"/><path fill="#263238" d="M238 87.356a9.333 10.277 0 0 1-9.333 10.277 9.333 10.277 0 0 1-9.334-10.277 9.333 10.277 0 0 1 9.334-10.277A9.333 10.277 0 0 1 238 87.356m46.667 0a9.333 10.277 0 0 1-9.334 10.277A9.333 10.277 0 0 1 266 87.356a9.333 10.277 0 0 1 9.333-10.277 9.333 10.277 0 0 1 9.334 10.277"/><path fill="#795548" d="m176.667 86.782 4.666 22.837 14 13.702H200l9.333-27.404-14-18.27h-14z"/><path fill="#263238" d="m190.667 109.62 4.666-4.568V91.349l-4.666-4.567L186 95.917z"/><path fill="#795548" d="m327.333 86.782-4.666 22.837-14 13.702H304l-9.333-27.404 14-18.27h14z"/><path fill="#263238" d="m313.333 109.62-4.666-4.568V91.349l4.666-4.567L318 95.917z"/><path fill="#3e2723" fill-rule="evenodd" d="m192 84 4-2.353 4.667-13.703L212 64l16-20 4 16 20-1.19L268 60l7.333-1.19L294 54.242 296 60l8 8v12l4 4 8-28-8-16-12-8 8-12-33.333-2.298L252 16l-18.667 1.702L220 20l-10 11.405L196 40l-8 16z"/><path fill="#263238" d="m233.333 131.889 2.334-4.568L252 129.605l16.333-2.284 2.334 4.568-12.445 9.135h-12.444z"/><path fill="#f44336" d="m21.333 496 8.833-40.652 8.65-35.02 40.295-8.773 26.667-4.444 17.778 4.444 40 8.89L172.444 456l8.89 40h-75.556z"/><path fill="#b71c1c" d="m48.987 496 7.902-48.889 8.889-17.778 13.333-17.778 26.667-7.008 17.778 7.008 13.333 17.778 8.889 17.778L154.667 496H106.27z"/><path fill="#ff9800" d="M79.111 391.555h44.445V416l-22.223 35.555L79.111 416z"/><path fill="#ffc107" d="m159.111 344.889-8.889 26.666-13.333 13.334-11.111 11.11-11.111 4.445H88L76.889 396l-11.111-11.111-13.334-15.556-8.888-24.444L48 318.222l8.889-26.667 44.444-8.888 44.445 8.888 8.889 26.667z"/><path fill="#3e2723" d="M88 328.222a8.889 10 0 0 1-8.889 10 8.889 10 0 0 1-8.889-10 8.889 10 0 0 1 8.89-10 8.889 10 0 0 1 8.888 10m44.444 0a8.889 10 0 0 1-8.888 10 8.889 10 0 0 1-8.89-10 8.889 10 0 0 1 8.89-10 8.889 10 0 0 1 8.888 10"/><path fill="#ffc107" d="m25.778 331.555 4.444 22.223 13.334 13.333H48l8.889-26.667-13.333-17.777H30.222z"/><path fill="#ff9800" d="m39.111 353.778 4.445-4.445V336l-4.445-4.445-4.444 8.89z"/><path fill="#ffc107" d="m176.889 331.555-4.445 22.223-13.333 13.333h-4.444l-8.89-26.667 13.334-17.777h13.333z"/><path fill="#ff9800" d="m163.556 353.778-4.445-4.445V336l4.445-4.445 4.444 8.89z"/><path fill="#3e2723" fill-rule="evenodd" d="M48 344.889v-22.222l4.444-13.334L61.334 296l17.777 4.444 8.063-8.889 14.16 8.89 13.333-8.89 8.889 8.89L141.333 296l8.89 13.333 4.444 13.334 4.444 22.222L168 300.444 154.667 256l-13.334 17.778-8.889-26.667-13.333 13.333-17.778-13.333-17.777 13.333-13.334-13.333-8.889 26.667L48 256l-13.333 44.444z"/><path fill="#ff9800" d="m83.556 371.555 2.222-4.444 15.555 2.222 15.556-2.222 2.222 4.444-11.852 8.89H95.407z"/><path fill="#03a9f4" d="m317.038 496 9.275-41.777 9.081-35.99 42.31-9.015 28-4.567 18.667 4.567 42 9.135 9.334 36.54L485.038 496h-79.333z"/><path fill="#01579b" d="m346.075 496 8.296-50.242 9.334-18.27 14-18.27 28-7.202 18.666 7.202 14 18.27 9.334 18.27L457.038 496h-50.815z"/><path fill="#f8bbd0" d="M377.705 388.665h46.666v25.12l-23.333 36.54-23.333-36.54z"/><path fill="#ffcdd2" d="m461.705 340.706-9.334 27.405-14 13.702-11.666 11.42-11.667 4.567h-28l-11.667-4.568-11.666-11.419-14-15.986-9.334-25.12 4.667-27.405 9.333-31.405 46.667-9.135 46.667 9.135 9.333 31.405z"/><path fill="#3e2723" d="M387.038 323.578a9.333 10.277 0 0 1-9.333 10.277 9.333 10.277 0 0 1-9.334-10.277 9.333 10.277 0 0 1 9.334-10.276 9.333 10.277 0 0 1 9.333 10.276m46.667 0a9.333 10.277 0 0 1-9.333 10.277 9.333 10.277 0 0 1-9.334-10.277 9.333 10.277 0 0 1 9.334-10.276 9.333 10.277 0 0 1 9.333 10.276"/><path fill="#ffcdd2" d="m325.705 323.004 4.666 22.837 14 13.703h4.667l9.333-27.405-14-18.27h-14z"/><path fill="#f8bbd0" d="m339.705 345.841 4.666-4.567V327.57l-4.666-4.567-4.667 9.135z"/><path fill="#ffcdd2" d="m476.371 323.004-4.666 22.837-14 13.703h-4.667l-9.333-27.405 14-18.27h14z"/><path fill="#f8bbd0" d="m462.371 345.841-4.666-4.567V327.57l4.666-4.567 4.667 9.135z"/><path fill="#ff9800" fill-rule="evenodd" d="m461.038 320.222-4-2.353-4.667-13.702-11.333-3.945-16-20-4 16-20-1.19-16 1.19-7.333-1.19-18.667-4.568-2 5.758-8 8v12l-4 4-8-28 8-16 12-8-8-12 33.333-2.297 18.667-1.703 18.667 1.703 13.333 2.297 10 11.405 14 8.595 8 16z"/><path fill="#f8bbd0" d="m382.371 368.111 2.334-4.567 16.333 2.283 16.333-2.283 2.334 4.567-12.445 9.135h-12.444z"/></svg>