<svg xmlns="http://www.w3.org/2000/svg" xmlns:xlink="http://www.w3.org/1999/xlink" width="512" height="512"><defs><lineargradient xlink:href="#a" id="b" gradientunits="userSpaceOnUse" x1="312" y1="344" x2="312" y2="368" gradienttransform="matrix(1.9285714,0,0,1.9285714,2978.2577,727.52696)"/></defs><path d="M168 259.778L177.274 218l9.082-35.99 42.31-9.015 28-4.567 18.667 4.567 42 9.135 9.334 36.54L336 259.778h-79.333z" fill="#8bc34a"/><path d="M197.037 259.778l8.296-50.242 9.334-18.27 14-18.27 28-7.203 18.666 7.203 14 18.27 9.334 18.27L308 259.778h-50.815z" fill="#33691e"/><path d="M228.667 152.442h46.666v25.121L252 214.103l-23.333-36.54z" fill="#3e2723"/><path d="M312.667 104.484l-9.334 27.405-14 13.702-11.666 11.419L266 161.577h-28l-11.667-4.567-11.666-11.419-14-15.986-9.334-25.12L196 77.078l9.333-31.404L252 36.54l46.667 9.135L308 77.079z" fill="#795548"/><path d="M238 87.356a9.333 10.277 0 0 1-9.333 10.277 9.333 10.277 0 0 1-9.334-10.277 9.333 10.277 0 0 1 9.334-10.277A9.333 10.277 0 0 1 238 87.356zM284.667 87.356a9.333 10.277 0 0 1-9.334 10.277A9.333 10.277 0 0 1 266 87.356a9.333 10.277 0 0 1 9.333-10.277 9.333 10.277 0 0 1 9.334 10.277z" fill="#263238"/><path d="M176.667 86.782l4.666 22.837 14 13.702H200l9.333-27.404-14-18.27h-14z" fill="#795548"/><path d="M190.667 109.62l4.666-4.568V91.349l-4.666-4.567L186 95.917z" fill="#263238"/><path d="M327.333 86.782l-4.666 22.837-14 13.702H304l-9.333-27.404 14-18.27h14z" fill="#795548"/><path d="M313.333 109.62l-4.666-4.568V91.349l4.666-4.567L318 95.917z" fill="#263238"/><path d="M192 84l4-2.353 4.667-13.703L212 64l16-20 4 16 20-1.19L268 60l7.333-1.19L294 54.242 296 60l8 8v12l4 4 8-28-8-16-12-8 8-12-33.333-2.298L252 16l-18.667 1.702L220 20l-10 11.405L196 40l-8 16z" fill="#3e2723" fill-rule="evenodd"/><path d="M233.333 131.889l2.334-4.568L252 129.605l16.333-2.284 2.334 4.568-12.445 9.135h-12.444z" fill="#263238"/><g><path d="M21.333 496l8.833-40.652 8.65-35.02 40.295-8.773 26.667-4.444 17.778 4.444 40 8.89L172.444 456l8.89 40h-75.556z" fill="#f44336"/><path d="M48.987 496l7.902-48.889 8.889-17.778 13.333-17.778 26.667-7.008 17.778 7.008 13.333 17.778 8.889 17.778L154.667 496H106.27z" fill="#b71c1c"/><path d="M79.111 391.555h44.445V416l-22.223 35.555L79.111 416z" fill="#ff9800"/><path d="M159.111 344.889l-8.889 26.666-13.333 13.334-11.111 11.11-11.111 4.445H88L76.889 396l-11.111-11.111-13.334-15.556-8.888-24.444L48 318.222l8.889-26.667 44.444-8.888 44.445 8.888 8.889 26.667z" fill="#ffc107"/><path d="M88 328.222a8.889 10 0 0 1-8.889 10 8.889 10 0 0 1-8.889-10 8.889 10 0 0 1 8.89-10 8.889 10 0 0 1 8.888 10zM132.444 328.222a8.889 10 0 0 1-8.888 10 8.889 10 0 0 1-8.89-10 8.889 10 0 0 1 8.89-10 8.889 10 0 0 1 8.888 10z" fill="#3e2723"/><path d="M25.778 331.555l4.444 22.223 13.334 13.333H48l8.889-26.667-13.333-17.777H30.222z" fill="#ffc107"/><path d="M39.111 353.778l4.445-4.445V336l-4.445-4.445-4.444 8.89z" fill="#ff9800"/><path d="M176.889 331.555l-4.445 22.223-13.333 13.333h-4.444l-8.89-26.667 13.334-17.777h13.333z" fill="#ffc107"/><path d="M163.556 353.778l-4.445-4.445V336l4.445-4.445 4.444 8.89z" fill="#ff9800"/><path d="M48 344.889v-22.222l4.444-13.334L61.334 296l17.777 4.444 8.063-8.889 14.16 8.89 13.333-8.89 8.889 8.89L141.333 296l8.89 13.333 4.444 13.334 4.444 22.222L168 300.444 154.667 256l-13.334 17.778-8.889-26.667-13.333 13.333-17.778-13.333-17.777 13.333-13.334-13.333-8.889 26.667L48 256l-13.333 44.444z" fill="#3e2723" fill-rule="evenodd"/><path d="M83.556 371.555l2.222-4.444 15.555 2.222 15.556-2.222 2.222 4.444-11.852 8.89H95.407z" fill="#ff9800"/></g><g><path d="M317.038 496l9.275-41.777 9.081-35.99 42.31-9.015 28-4.567 18.667 4.567 42 9.135 9.334 36.54L485.038 496h-79.333z" fill="#03a9f4"/><path d="M346.075 496l8.296-50.242 9.334-18.27 14-18.27 28-7.202 18.666 7.202 14 18.27 9.334 18.27L457.038 496h-50.815z" fill="#01579b"/><path d="M377.705 388.665h46.666v25.12l-23.333 36.54-23.333-36.54z" fill="#f8bbd0"/><path d="M461.705 340.706l-9.334 27.405-14 13.702-11.666 11.42-11.667 4.567h-28l-11.667-4.568-11.666-11.419-14-15.986-9.334-25.12 4.667-27.405 9.333-31.405 46.667-9.135 46.667 9.135 9.333 31.405z" fill="#ffcdd2"/><path d="M387.038 323.578a9.333 10.277 0 0 1-9.333 10.277 9.333 10.277 0 0 1-9.334-10.277 9.333 10.277 0 0 1 9.334-10.276 9.333 10.277 0 0 1 9.333 10.276zM433.705 323.578a9.333 10.277 0 0 1-9.333 10.277 9.333 10.277 0 0 1-9.334-10.277 9.333 10.277 0 0 1 9.334-10.276 9.333 10.277 0 0 1 9.333 10.276z" fill="#3e2723"/><path d="M325.705 323.004l4.666 22.837 14 13.703h4.667l9.333-27.405-14-18.27h-14z" fill="#ffcdd2"/><path d="M339.705 345.841l4.666-4.567V327.57l-4.666-4.567-4.667 9.135z" fill="#f8bbd0"/><path d="M476.371 323.004l-4.666 22.837-14 13.703h-4.667l-9.333-27.405 14-18.27h14z" fill="#ffcdd2"/><path d="M462.371 345.841l-4.666-4.567V327.57l4.666-4.567 4.667 9.135z" fill="#f8bbd0"/><path d="M461.038 320.222l-4-2.353-4.667-13.702-11.333-3.945-16-20-4 16-20-1.19-16 1.19-7.333-1.19-18.667-4.568-2 5.758-8 8v12l-4 4-8-28 8-16 12-8-8-12 33.333-2.297 18.667-1.703 18.667 1.703 13.333 2.297 10 11.405 14 8.595 8 16z" fill="#ff9800" fill-rule="evenodd"/><path d="M382.371 368.111l2.334-4.567 16.333 2.283 16.333-2.283 2.334 4.567-12.445 9.135h-12.444z" fill="#f8bbd0"/></g></svg>