<svg xmlns="http://www.w3.org/2000/svg" width="512" height="512"><path d="M37.64 107.43c6.412 59.112 108.855 102.748 228.81 97.461 119.956-5.286 212-57.491 205.585-116.603-2.897-26.695-25.931-51.534-64.585-69.644 13.226 10.977 20.838 23.388 22.233 36.25 4.965 45.761-68.257 61.567-163.546 65.765S89.579 115.86 84.615 70.1c-1.97-18.163 8.543-36.37 29.92-51.821C62.465 40.9 34.003 73.899 37.64 107.43" style="fill:#bdbdbd;stroke-width:1.1427"/><path d="M37.64 107.43c6.412 59.112 108.855 102.748 228.81 97.461 119.956-5.286 212-57.491 205.585-116.603-2.897-26.695-25.931-51.534-64.585-69.644 13.226 10.977 20.838 23.388 22.233 36.25 4.965 45.761-68.257 61.567-163.546 65.765S89.579 115.86 84.615 70.1c-1.97-18.163 8.543-36.37 29.92-51.821C62.465 40.9 34.003 73.899 37.64 107.43" style="fill:#bdbdbd;stroke-width:1.1427"/><path d="M37.64 107.43c6.412 59.112 108.855 102.748 228.81 97.461 119.956-5.286 212-57.491 205.585-116.603-2.896-26.695-25.931-51.534-64.585-69.644 16.653 11.405 34.548 31.528 37.657 55.959 4.966 45.76-87.537 87.428-182.826 91.626S69.013 138.14 64.049 92.38c-6.254-28.446 21.397-58.65 50.486-74.101C62.465 40.9 34.003 73.899 37.64 107.43" style="fill:#9e9e9e;stroke-width:1.1427"/><path fill="#455a64" d="M352.595 251.12c-10.312-4.993-37.229-65.602-31.067-74.512 6.16-8.91 82.366-19.587 92.68-14.593 10.311 4.993 57.852 75.587 51.691 84.496-6.16 8.912-102.992 9.602-113.304 4.609" color="#000" overflow="visible" style="isolation:auto;mix-blend-mode:normal;fill:#4e342e"/><path fill="#263238" d="M364.918 233.298c-10.312-4.993-28.927-37.792-22.766-46.704 6.16-8.91 49.421-11.752 59.732-6.76 10.313 4.995 39.24 42.788 33.079 51.7-6.16 8.91-59.733 6.759-70.045 1.764" color="#000" overflow="visible" style="isolation:auto;mix-blend-mode:normal"/><g color="#000"><path fill="#455a64" d="M112.256 249.267c11.427.83 65.042-38.2 64.161-48.996-.88-10.797-61.538-58.146-72.966-58.978s-87.896 36.534-87.015 47.33c.88 10.798 84.393 59.81 95.82 60.643z" overflow="visible" style="isolation:auto;mix-blend-mode:normal;fill:#5d4037" transform="rotate(-30 135.123 171.371)"/><path fill="#263238" d="M110.495 227.67c11.427.833 43.948-18.265 43.068-29.063s-36.924-34.888-48.35-35.72c-11.428-.831-55.376 17.435-54.496 28.233.88 10.797 48.35 35.72 59.778 36.55" overflow="visible" style="isolation:auto;mix-blend-mode:normal" transform="rotate(-30 135.123 171.371)"/></g><path fill="#455a64" d="M392 187.615c0 35.313-14.408 138.034-22.947 168.52C353.669 411.06 303.73 448 256 448c-47.67 0-98.28-27.128-113.053-91.865C135.904 325.273 120 223.02 120 187.615c0-90.63 64.842-69.192 136-69.192s136-34.386 136 69.192" color="#000" overflow="visible" style="isolation:auto;mix-blend-mode:normal;fill:#6d4c41;stroke-width:.974647"/><path d="M330.303 113.006c-21.822.582-47.619 5.418-74.303 5.418h-.3V448h.3c47.73 0 97.669-36.942 113.053-91.865C377.592 325.648 392 222.928 392 187.615c0-64.736-25.328-75.58-61.697-74.61" style="isolation:auto;mix-blend-mode:normal;fill:#5d4037;stroke-width:.974647"/><circle cx="336" cy="204" r="24" fill="#263238" color="#000" overflow="visible" style="isolation:auto;mix-blend-mode:normal"/><ellipse cx="256" cy="432" fill="#f8bbd0" color="#000" overflow="visible" rx="88" ry="64" style="isolation:auto;mix-blend-mode:normal;fill:#d7ccc8"/><path fill="#f48fb1" d="M256 368v128a88 64 0 0 0 88-64 88 64 0 0 0-88-64" color="#000" overflow="visible" style="isolation:auto;mix-blend-mode:normal;fill:#a1887f"/><ellipse cx="256" cy="424" fill="#f06292" color="#000" overflow="visible" rx="80" ry="56" style="isolation:auto;mix-blend-mode:normal;fill:#795548"/><ellipse cx="256" cy="400" fill="#f8bbd0" color="#000" overflow="visible" rx="112" ry="64" style="isolation:auto;mix-blend-mode:normal;fill:#d7ccc8"/><ellipse cx="215.284" cy="394.142" fill="#f06292" color="#000" overflow="visible" rx="20" ry="21.333" style="isolation:auto;mix-blend-mode:normal;fill:#424242"/><path fill="#f06292" d="M256 368v112a80 56 0 0 0 80-56 80 56 0 0 0-80-56" color="#000" overflow="visible" style="isolation:auto;mix-blend-mode:normal;fill:#6d4c41"/><path fill="#f48fb1" d="M256 336v128a112 64 0 0 0 112-64 112 64 0 0 0-112-64" color="#000" overflow="visible" style="isolation:auto;mix-blend-mode:normal;fill:#a1887f"/><ellipse cx="298.002" cy="392.857" fill="#f06292" color="#000" overflow="visible" rx="20" ry="21.333" style="isolation:auto;mix-blend-mode:normal;fill:#424242"/><path d="M222.441 385.905c-4.125.06-8.247 2.324-9.614 5.795-.8 1.992-1.434 4.031-2.173 6.04-1.617 4.647-2.92 9.485-2.495 14.375.597 10.337 5.926 20.364 14.463 27.533 8.486 7.213 20.06 11.564 31.894 12 11.293.486 22.754-2.516 31.802-8.449 9.702-6.296 16.603-15.866 18.61-26.296a38.7 38.7 0 0 0-.87-18.258c-.974-3.16-2.368-6.298-4.694-8.896-2.932-3.049-8.03-4.273-12.346-3.006-2.903.775-5.553 2.857-5.942 5.585-.307 1.93.722 3.795 2.084 5.258 1.957 2.398 3.019 5.278 3.289 8.198.078.698.124 1.416.145 2.023.14 3.063-.088 6.166-1.138 9.107-2.252 6.719-7.855 12.484-15.035 15.586-4.584 2.001-9.755 2.982-14.879 2.77a40 40 0 0 1-2.25-.15c-8.635-.86-16.754-5.16-21.491-11.536-3.565-4.766-5.35-10.638-4.48-16.311.723-4.15 2.993-7.904 5.02-11.654 1.174-2.549.347-5.707-2.112-7.46-2.11-1.632-5.007-2.328-7.788-2.254" style="fill:#ffc107;stroke-width:.578234"/><circle cx="176" cy="204" r="24" fill="#263238" color="#000" overflow="visible" style="isolation:auto;mix-blend-mode:normal"/><path fill="#bcaaa4" d="M221.815 80.861c40.34 0 64.543 16.136 64.543 32.272s-57.285 45.69-80.679 40.34c15.924-12.978 26.38-24.804 16.136-32.272-10.922 14.233-25.059 26.323-48.407 32.271l16.135-32.271c-11.73 2.039-29.863 24.564-48.407 48.407 8.068-48.407 40.34-88.747 80.68-88.747" color="#000" overflow="visible" style="isolation:auto;mix-blend-mode:normal;stroke-width:.504245"/><path fill="#bcaaa4" d="M291.72 78.437c-40.34 0-64.543 16.136-64.543 32.272s57.285 45.69 80.68 40.34c-15.925-12.978-26.38-24.804-16.137-32.272 10.922 14.233 25.06 26.323 48.408 32.272l-16.136-32.272c11.73 2.04 29.863 24.565 48.407 48.407-8.067-48.407-40.34-88.747-80.679-88.747" color="#000" overflow="visible" style="isolation:auto;mix-blend-mode:normal;stroke-width:.504245"/><path d="M290.355 386.25c-1.13.016-2.259.176-3.337.492-2.903.775-5.553 2.858-5.942 5.586-.307 1.93.722 3.795 2.084 5.258 1.957 2.398 3.02 5.278 3.29 8.2.078.696.122 1.414.144 2.02.139 3.063-.089 6.167-1.139 9.108-2.251 6.719-7.853 12.484-15.033 15.586-4.384 1.914-9.305 2.895-14.207 2.791v16.404c10.736.13 21.508-2.86 30.103-8.496 9.702-6.296 16.603-15.866 18.61-26.297a38.7 38.7 0 0 0-.87-18.257c-.974-3.16-2.37-6.299-4.695-8.897-2.199-2.286-5.615-3.545-9.008-3.498" style="fill:#ffb300;stroke-width:.578234"/></svg>