<svg xmlns="http://www.w3.org/2000/svg" width="512" height="512"><g color="#000"><path fill="#ffd54f" d="M208 69.864C208 78.181 200.837 88 192 88s-16-9.819-16-18.136 8-20.59 16-37.864c8 17.274 16 29.547 16 37.864" overflow="visible" style="isolation:auto;mix-blend-mode:normal"/><path fill="#f5f5f5" d="M192 96c8.864 0 16 7.136 16 16v64c0 8.864-7.136 16-16 16s-16-7.136-16-16v-64c0-8.864 7.136-16 16-16m128 0c8.864 0 16 7.136 16 16v64c0 8.864-7.136 16-16 16s-16-7.136-16-16v-64c0-8.864 7.136-16 16-16m-64 0c8.864 0 16 7.136 16 16v64c0 8.864-7.136 16-16 16s-16-7.136-16-16v-64c0-8.864 7.136-16 16-16" overflow="visible" style="isolation:auto;mix-blend-mode:normal"/><path fill="#ffcdd2" d="M144 176c-8.864 0-16 7.136-16 16v112h256V192c0-8.864-7.136-16-16-16z" overflow="visible" style="isolation:auto;mix-blend-mode:normal"/><path fill="#f8bbd0" d="M256 176v128h128V192c0-8.864-7.136-16-16-16z" overflow="visible" style="isolation:auto;mix-blend-mode:normal"/><path fill="#cfd8dc" d="M192 96v96c8.864 0 16-7.136 16-16v-64c0-8.864-7.136-16-16-16" overflow="visible" style="isolation:auto;mix-blend-mode:normal"/><path fill="#e91e63" d="M144 176c-8.864 0-16 7.136-16 16v32a32 32 0 0 0 32 32 32 32 0 0 0 32-32 32 32 0 0 0 32 32 32 32 0 0 0 32-32 32 32 0 0 0 32 32 32 32 0 0 0 32-32 32 32 0 0 0 32 32 32 32 0 0 0 32-32v-32c0-8.864-7.136-16-16-16z" overflow="visible" style="isolation:auto;mix-blend-mode:normal"/><circle cx="160" cy="224" r="16" fill="#fafafa" overflow="visible" style="isolation:auto;mix-blend-mode:normal"/><circle cx="224" cy="224" r="16" fill="#fafafa" overflow="visible" style="isolation:auto;mix-blend-mode:normal"/><path fill="#cfd8dc" d="M256 96v96c8.864 0 16-7.136 16-16v-64c0-8.864-7.136-16-16-16m64 0v96c8.864 0 16-7.136 16-16v-64c0-8.864-7.136-16-16-16" overflow="visible" style="isolation:auto;mix-blend-mode:normal"/><path fill="#c2185b" d="M256 176v48a32 32 0 0 0 32 32 32 32 0 0 0 32-32 32 32 0 0 0 32 32 32 32 0 0 0 32-32v-32c0-8.864-7.136-16-16-16z" overflow="visible" style="isolation:auto;mix-blend-mode:normal"/><circle cx="288" cy="224" r="16" fill="#f5f5f5" overflow="visible" style="isolation:auto;mix-blend-mode:normal"/><circle cx="352" cy="224" r="16" fill="#f5f5f5" overflow="visible" style="isolation:auto;mix-blend-mode:normal"/><path fill="#ffcdd2" d="M80 320c-8.864 0-16 7.136-16 16v128h384V336c0-8.864-7.136-16-16-16z" overflow="visible" style="isolation:auto;mix-blend-mode:normal"/><path fill="#f8bbd0" d="M256 320v144h192V336c0-8.864-7.136-16-16-16z" overflow="visible" style="isolation:auto;mix-blend-mode:normal"/><path fill="#e91e63" d="M80 304c-8.864 0-16 7.136-16 16v32a32 32 0 0 0 32 32 32 32 0 0 0 32-32 32 32 0 0 0 32 32 32 32 0 0 0 32-32 32 32 0 0 0 32 32 32 32 0 0 0 32-32 32 32 0 0 0 32 32 32 32 0 0 0 32-32 32 32 0 0 0 32 32 32 32 0 0 0 32-32 32 32 0 0 0 32 32 32 32 0 0 0 32-32v-32c0-8.864-7.136-16-16-16z" overflow="visible" style="isolation:auto;mix-blend-mode:normal"/><circle cx="96" cy="352" r="16" fill="#fafafa" overflow="visible" style="isolation:auto;mix-blend-mode:normal"/><circle cx="160" cy="352" r="16" fill="#fafafa" overflow="visible" style="isolation:auto;mix-blend-mode:normal"/><circle cx="224" cy="352" r="16" fill="#fafafa" overflow="visible" style="isolation:auto;mix-blend-mode:normal"/><path fill="#c2185b" d="M256 304v48a32 32 0 0 0 32 32 32 32 0 0 0 32-32 32 32 0 0 0 32 32 32 32 0 0 0 32-32 32 32 0 0 0 32 32 32 32 0 0 0 32-32v-32c0-8.864-7.136-16-16-16z" overflow="visible" style="isolation:auto;mix-blend-mode:normal"/><circle cx="288" cy="352" r="16" fill="#eee" overflow="visible" style="isolation:auto;mix-blend-mode:normal"/><circle cx="352" cy="352" r="16" fill="#eee" overflow="visible" style="isolation:auto;mix-blend-mode:normal"/><circle cx="416" cy="352" r="16" fill="#eee" overflow="visible" style="isolation:auto;mix-blend-mode:normal"/><path fill="#b3e5fc" d="M16 456h480v32H16z" overflow="visible" style="isolation:auto;mix-blend-mode:normal"/><path fill="#03a9f4" d="M34.667 456H72l-18.667 32H16zm84 0H156l-18.667 32H100zm84 0H240l-18.667 32H184z" overflow="visible" style="isolation:auto;mix-blend-mode:normal"/><path fill="#81d4fa" d="M256 456v32h240v-32z" overflow="visible" style="isolation:auto;mix-blend-mode:normal"/><path fill="#039be5" d="M290.667 456H328l-18.667 32H272zm84 0H412l-18.667 32H356zm84 0H496l-18.667 32H440z" overflow="visible" style="isolation:auto;mix-blend-mode:normal"/><path fill="#ffc107" d="M192 32v56c8.837 0 16-9.818 16-18.136S200 49.274 192 32" overflow="visible" style="isolation:auto;mix-blend-mode:normal"/><path fill="#ffd54f" d="M272 69.864C272 78.181 264.837 88 256 88s-16-9.819-16-18.136 8-20.59 16-37.864c8 17.274 16 29.547 16 37.864" overflow="visible" style="isolation:auto;mix-blend-mode:normal"/><path fill="#ffc107" d="M256 32v56c8.837 0 16-9.818 16-18.136S264 49.274 256 32" overflow="visible" style="isolation:auto;mix-blend-mode:normal"/><path fill="#ffd54f" d="M336 69.864C336 78.181 328.837 88 320 88s-16-9.819-16-18.136 8-20.59 16-37.864c8 17.274 16 29.547 16 37.864" overflow="visible" style="isolation:auto;mix-blend-mode:normal"/><path fill="#ffc107" d="M320 32v56c8.837 0 16-9.818 16-18.136S328 49.274 320 32" overflow="visible" style="isolation:auto;mix-blend-mode:normal"/></g></svg>