<svg xmlns="http://www.w3.org/2000/svg" width="512" height="512"><g color="#000"><path style="isolation:auto;mix-blend-mode:normal" d="M208 69.864C208 78.181 200.837 88 192 88s-16-9.819-16-18.136c0-8.317 8-20.59 16-37.864 8 17.274 16 29.547 16 37.864z" overflow="visible" fill="#ffd54f"/><path style="isolation:auto;mix-blend-mode:normal" d="M192 96c8.864 0 16 7.136 16 16v64c0 8.864-7.136 16-16 16s-16-7.136-16-16v-64c0-8.864 7.136-16 16-16zM320 96c8.864 0 16 7.136 16 16v64c0 8.864-7.136 16-16 16s-16-7.136-16-16v-64c0-8.864 7.136-16 16-16zM256 96c8.864 0 16 7.136 16 16v64c0 8.864-7.136 16-16 16s-16-7.136-16-16v-64c0-8.864 7.136-16 16-16z" overflow="visible" fill="#f5f5f5"/><path style="isolation:auto;mix-blend-mode:normal" d="M144 176c-8.864 0-16 7.136-16 16v112h256V192c0-8.864-7.136-16-16-16H144z" overflow="visible" fill="#ffcdd2"/><path style="isolation:auto;mix-blend-mode:normal" d="M256 176v128h128V192c0-8.864-7.136-16-16-16H256z" overflow="visible" fill="#f8bbd0"/><path style="isolation:auto;mix-blend-mode:normal" d="M192 96v96c8.864 0 16-7.136 16-16v-64c0-8.864-7.136-16-16-16z" overflow="visible" fill="#cfd8dc"/><path style="isolation:auto;mix-blend-mode:normal" d="M144 176c-8.864 0-16 7.136-16 16v32a32 32 0 0 0 32 32 32 32 0 0 0 32-32 32 32 0 0 0 32 32 32 32 0 0 0 32-32 32 32 0 0 0 32 32 32 32 0 0 0 32-32 32 32 0 0 0 32 32 32 32 0 0 0 32-32v-32c0-8.864-7.136-16-16-16H144z" overflow="visible" fill="#e91e63"/><circle style="isolation:auto;mix-blend-mode:normal" cx="160" cy="224" r="16" overflow="visible" fill="#fafafa"/><circle r="16" cy="224" cx="224" style="isolation:auto;mix-blend-mode:normal" overflow="visible" fill="#fafafa"/><path d="M256 96v96c8.864 0 16-7.136 16-16v-64c0-8.864-7.136-16-16-16zM320 96v96c8.864 0 16-7.136 16-16v-64c0-8.864-7.136-16-16-16z" style="isolation:auto;mix-blend-mode:normal" overflow="visible" fill="#cfd8dc"/><path style="isolation:auto;mix-blend-mode:normal" d="M256 176v48a32 32 0 0 0 32 32 32 32 0 0 0 32-32 32 32 0 0 0 32 32 32 32 0 0 0 32-32v-32c0-8.864-7.136-16-16-16H256z" overflow="visible" fill="#c2185b"/><circle style="isolation:auto;mix-blend-mode:normal" cx="288" cy="224" r="16" overflow="visible" fill="#f5f5f5"/><circle r="16" cy="224" cx="352" style="isolation:auto;mix-blend-mode:normal" overflow="visible" fill="#f5f5f5"/><path style="isolation:auto;mix-blend-mode:normal" d="M80 320c-8.864 0-16 7.136-16 16v128h384V336c0-8.864-7.136-16-16-16H80z" overflow="visible" fill="#ffcdd2"/><path style="isolation:auto;mix-blend-mode:normal" d="M256 320v144h192V336c0-8.864-7.136-16-16-16H256z" overflow="visible" fill="#f8bbd0"/><path style="isolation:auto;mix-blend-mode:normal" d="M80 304c-8.864 0-16 7.136-16 16v32a32 32 0 0 0 32 32 32 32 0 0 0 32-32 32 32 0 0 0 32 32 32 32 0 0 0 32-32 32 32 0 0 0 32 32 32 32 0 0 0 32-32 32 32 0 0 0 32 32 32 32 0 0 0 32-32 32 32 0 0 0 32 32 32 32 0 0 0 32-32 32 32 0 0 0 32 32 32 32 0 0 0 32-32v-32c0-8.864-7.136-16-16-16H80z" overflow="visible" fill="#e91e63"/><circle r="16" cy="352" cx="96" style="isolation:auto;mix-blend-mode:normal" overflow="visible" fill="#fafafa"/><circle style="isolation:auto;mix-blend-mode:normal" cx="160" cy="352" r="16" overflow="visible" fill="#fafafa"/><circle r="16" cy="352" cx="224" style="isolation:auto;mix-blend-mode:normal" overflow="visible" fill="#fafafa"/><path style="isolation:auto;mix-blend-mode:normal" d="M256 304v48a32 32 0 0 0 32 32 32 32 0 0 0 32-32 32 32 0 0 0 32 32 32 32 0 0 0 32-32 32 32 0 0 0 32 32 32 32 0 0 0 32-32v-32c0-8.864-7.136-16-16-16H256z" overflow="visible" fill="#c2185b"/><circle style="isolation:auto;mix-blend-mode:normal" cx="288" cy="352" r="16" overflow="visible" fill="#eee"/><circle r="16" cy="352" cx="352" style="isolation:auto;mix-blend-mode:normal" overflow="visible" fill="#eee"/><circle style="isolation:auto;mix-blend-mode:normal" cx="416" cy="352" r="16" overflow="visible" fill="#eee"/><path style="isolation:auto;mix-blend-mode:normal" overflow="visible" fill="#b3e5fc" d="M16 456h480v32H16z"/><path style="isolation:auto;mix-blend-mode:normal" overflow="visible" fill="#03a9f4" d="M34.667 456H72l-18.667 32H16zM118.667 456H156l-18.667 32H100zM202.667 456H240l-18.667 32H184z"/><path style="isolation:auto;mix-blend-mode:normal" d="M256 456v32h240v-32H256z" overflow="visible" fill="#81d4fa"/><path style="isolation:auto;mix-blend-mode:normal" overflow="visible" fill="#039be5" d="M290.667 456H328l-18.667 32H272zM374.667 456H412l-18.667 32H356zM458.667 456H496l-18.667 32H440z"/><path style="isolation:auto;mix-blend-mode:normal" d="M192 32v56c8.837 0 16-9.818 16-18.136 0-8.317-8-20.59-16-37.864z" overflow="visible" fill="#ffc107"/><path d="M272 69.864C272 78.181 264.837 88 256 88s-16-9.819-16-18.136c0-8.317 8-20.59 16-37.864 8 17.274 16 29.547 16 37.864z" style="isolation:auto;mix-blend-mode:normal" overflow="visible" fill="#ffd54f"/><path d="M256 32v56c8.837 0 16-9.818 16-18.136 0-8.317-8-20.59-16-37.864z" style="isolation:auto;mix-blend-mode:normal" overflow="visible" fill="#ffc107"/><path style="isolation:auto;mix-blend-mode:normal" d="M336 69.864C336 78.181 328.837 88 320 88s-16-9.819-16-18.136c0-8.317 8-20.59 16-37.864 8 17.274 16 29.547 16 37.864z" overflow="visible" fill="#ffd54f"/><path style="isolation:auto;mix-blend-mode:normal" d="M320 32v56c8.837 0 16-9.818 16-18.136 0-8.317-8-20.59-16-37.864z" overflow="visible" fill="#ffc107"/></g></svg>