<svg xmlns="http://www.w3.org/2000/svg" width="512" height="512"><rect style="isolation:auto;mix-blend-mode:normal" width="304" height="448" x="104" y="32" ry="32" rx="32" color="#000" overflow="visible" fill="#f5f5f5"/><path style="isolation:auto;mix-blend-mode:normal" d="M104 216L408 72v16L104 232zM104 264l304-144v32L104 296zM104 360l304-144v72L104 432z" color="#000" overflow="visible" fill="#fafafa"/><path style="isolation:auto;mix-blend-mode:normal" d="M224 192c-17.673 0-32 14.327-32 32 0 40 32 72 64 96 32-24 64-56 64-96 0-17.673-14.327-32-32-32-17.673 0-32 14.327-32 32 0-17.673-14.327-32-32-32z" color="#000" overflow="visible" fill="#b71c1c"/><g fill="#b71c1c"><path d="M174.795 127.807h-48q.825-8.74 4.989-16.419 4.203-7.726 15.712-18.205 7.031-6.422 8.995-9.754 1.964-3.332 1.964-6.326 0-3.236-1.964-5.505-1.925-2.318-4.87-2.318-3.065 0-5.029 2.366Q144.668 74.012 144 80l-16.026-1.594q.943-8.305 3.456-12.941 2.514-4.684 7.07-7.147 4.597-2.511 12.688-2.511 8.445 0 13.12 2.366 4.713 2.366 7.384 7.292 2.71 4.877 2.71 10.962 0 6.47-3.102 12.362-3.064 5.891-11.195 12.941-4.832 4.105-6.481 5.747-1.61 1.642-3.81 4.298h24.981v16.032z" font-weight="400" font-size="40" font-family="Arial Black" letter-spacing="0" word-spacing="0"/><path style="isolation:auto;mix-blend-mode:normal" d="M200 64c-8.837 0-16 7.163-16 16 0 20 16 36 32 48 16-12 32-28 32-48 0-8.837-7.163-16-16-16s-16 7.163-16 16c0-8.837-7.163-16-16-16z" color="#000" overflow="visible"/></g><g fill="#b71c1c"><path d="M335.018 383.968h48q-.825 8.74-4.989 16.418-4.202 7.727-15.711 18.206-7.032 6.422-8.996 9.754-1.964 3.332-1.964 6.326 0 3.235 1.964 5.505 1.925 2.318 4.871 2.318 3.064 0 5.028-2.366 1.925-2.366 2.592-8.354l16.027 1.593q-.943 8.306-3.457 12.942-2.514 4.684-7.07 7.147-4.596 2.51-12.688 2.51-8.445 0-13.12-2.365-4.713-2.367-7.384-7.292-2.71-4.877-2.71-10.962 0-6.47 3.103-12.362 3.064-5.891 11.195-12.942 4.831-4.104 6.48-5.746Q357.8 402.656 360 400h-24.982v-16.032z" font-weight="400" font-size="40" font-family="Arial Black" letter-spacing="0" word-spacing="0"/><path d="M309.813 447.775c8.837 0 16-7.164 16-16 0-20-16-36-32-48-16 12-32 28-32 48 0 8.836 7.164 16 16 16 8.837 0 16-7.164 16-16 0 8.836 7.164 16 16 16z" style="isolation:auto;mix-blend-mode:normal" color="#000" overflow="visible"/></g><rect rx="32" ry="32" y="32" x="104" height="448" width="304" style="isolation:auto;mix-blend-mode:normal" color="#000" overflow="visible" fill="none" stroke="#9e9e9e" stroke-width="8" stroke-linecap="round" stroke-linejoin="round"/></svg>