<svg xmlns="http://www.w3.org/2000/svg" width="512" height="512"><g color="#000"><g transform="translate(3.556 -150.044) scale(.71111)"><path d="M168 256A128 176 0 0 0 40 432h16.68a48 48 0 0 1-.68-8 48 48 0 0 1 48-48 48 48 0 0 1 48 48 48 48 0 0 1-.725 8H268.541a48 48 0 0 1-.342-5.219 48 48 0 0 1 48-48 48 48 0 0 1 48 48 48 48 0 0 1-.304 5.219H400a128 104 0 0 0-128-104 128 104 0 0 0-.91.025A128 176 0 0 0 168 256z" style="isolation:auto;mix-blend-mode:normal" overflow="visible" fill="#f44336"/><circle r="40" cy="424" cx="104" style="isolation:auto;mix-blend-mode:normal" overflow="visible" fill="#616161"/><path d="M132.268 395.732l-56.536 56.536A40 40 0 0 0 104 464a40 40 0 0 0 40-40 40 40 0 0 0-11.732-28.268z" style="isolation:auto;mix-blend-mode:normal" overflow="visible" fill="#263238"/><circle r="16" style="isolation:auto;mix-blend-mode:normal" cx="104" cy="424" overflow="visible" fill="#eceff1"/><path d="M168 272a112 160 0 0 0-85.059 56H252.94A112 160 0 0 0 168 272z" style="isolation:auto;mix-blend-mode:normal" overflow="visible" fill="#b3e5fc"/><circle style="isolation:auto;mix-blend-mode:normal" cx="316.199" cy="426.781" r="40" overflow="visible" fill="#616161"/><path style="isolation:auto;mix-blend-mode:normal" d="M344.467 398.514l-56.535 56.535a40 40 0 0 0 28.267 11.732 40 40 0 0 0 40-40 40 40 0 0 0-11.732-28.267z" overflow="visible" fill="#263238"/><circle cy="426.781" cx="316.199" style="isolation:auto;mix-blend-mode:normal" r="16" overflow="visible" fill="#eceff1"/><path d="M168 272v56h84.94A112 160 0 0 0 168 272z" style="isolation:auto;mix-blend-mode:normal" overflow="visible" fill="#e1f5fe"/><path d="M272 328L168 432h100.541a48 48 0 0 1-.342-5.219 48 48 0 0 1 48-48 48 48 0 0 1 48 48 48 48 0 0 1-.304 5.219H400a128 104 0 0 0-128-104z" style="isolation:auto;mix-blend-mode:normal" overflow="visible" fill="#d32f2f"/><path d="M115.307 412.693l-22.614 22.614A16 16 0 0 0 104 440a16 16 0 0 0 16-16 16 16 0 0 0-4.693-11.307zM327.506 415.475l-22.613 22.613a16 16 0 0 0 11.306 4.693 16 16 0 0 0 16-16 16 16 0 0 0-4.693-11.306z" style="isolation:auto;mix-blend-mode:normal" overflow="visible" fill="#cfd8dc"/></g><g transform="translate(75.022 85.311)"><path style="isolation:auto;mix-blend-mode:normal" d="M228.622 255.536a79.644 109.511 0 0 0-79.644 109.511h10.378a29.867 29.867 0 0 1-.423-4.978 29.867 29.867 0 0 1 29.867-29.866 29.867 29.867 0 0 1 29.867 29.866 29.867 29.867 0 0 1-.451 4.978H291.182a29.867 29.867 0 0 1-.214-3.247 29.867 29.867 0 0 1 29.867-29.867 29.867 29.867 0 0 1 29.867 29.867 29.867 29.867 0 0 1-.19 3.247h22.466a79.644 64.711 0 0 0-79.645-64.71 79.644 64.711 0 0 0-.566.015 79.644 109.511 0 0 0-64.145-44.816z" overflow="visible" fill="#03a9f4"/><circle style="isolation:auto;mix-blend-mode:normal" cx="188.8" cy="360.069" r="24.889" overflow="visible" fill="#616161"/><path style="isolation:auto;mix-blend-mode:normal" d="M206.389 342.48l-35.178 35.178a24.889 24.889 0 0 0 17.589 7.3 24.889 24.889 0 0 0 24.889-24.889 24.889 24.889 0 0 0-7.3-17.588z" overflow="visible" fill="#263238"/><circle cy="360.069" cx="188.8" style="isolation:auto;mix-blend-mode:normal" r="9.956" overflow="visible" fill="#eceff1"/><path style="isolation:auto;mix-blend-mode:normal" d="M228.622 265.492a69.689 99.556 0 0 0-52.925 34.844h105.776a69.689 99.556 0 0 0-52.85-34.844z" overflow="visible" fill="#b3e5fc"/><circle r="24.889" cy="361.8" cx="320.835" style="isolation:auto;mix-blend-mode:normal" overflow="visible" fill="#616161"/><path d="M338.424 344.211l-35.178 35.178a24.889 24.889 0 0 0 17.59 7.3 24.889 24.889 0 0 0 24.888-24.889 24.889 24.889 0 0 0-7.3-17.589z" style="isolation:auto;mix-blend-mode:normal" overflow="visible" fill="#263238"/><circle r="9.956" style="isolation:auto;mix-blend-mode:normal" cx="320.835" cy="361.8" overflow="visible" fill="#eceff1"/><path style="isolation:auto;mix-blend-mode:normal" d="M228.622 265.492v34.844h52.851a69.689 99.556 0 0 0-52.85-34.844z" overflow="visible" fill="#e1f5fe"/><path style="isolation:auto;mix-blend-mode:normal" d="M293.333 300.336l-64.71 64.711h62.558a29.867 29.867 0 0 1-.213-3.247 29.867 29.867 0 0 1 29.867-29.867 29.867 29.867 0 0 1 29.867 29.867 29.867 29.867 0 0 1-.19 3.247h22.466a79.644 64.711 0 0 0-79.645-64.71z" overflow="visible" fill="#0288d1"/><path style="isolation:auto;mix-blend-mode:normal" d="M195.835 353.034l-14.07 14.07a9.956 9.956 0 0 0 7.035 2.921 9.956 9.956 0 0 0 9.956-9.956 9.956 9.956 0 0 0-2.92-7.035zM327.87 354.765l-14.07 14.07a9.956 9.956 0 0 0 7.035 2.92 9.956 9.956 0 0 0 9.956-9.955 9.956 9.956 0 0 0-2.92-7.035z" overflow="visible" fill="#cfd8dc"/></g><g transform="translate(-160.356 57.647)"><path d="M532.622 101.936a68.267 93.867 0 0 0-68.266 93.867h8.895a25.6 25.6 0 0 1-.362-4.267 25.6 25.6 0 0 1 25.6-25.6 25.6 25.6 0 0 1 25.6 25.6 25.6 25.6 0 0 1-.387 4.267h62.542a25.6 25.6 0 0 1-.182-2.784 25.6 25.6 0 0 1 25.6-25.6 25.6 25.6 0 0 1 25.6 25.6 25.6 25.6 0 0 1-.163 2.784h19.257a68.267 55.467 0 0 0-68.267-55.467 68.267 55.467 0 0 0-.486.014 68.267 93.867 0 0 0-54.98-38.414z" style="isolation:auto;mix-blend-mode:normal" overflow="visible" fill="#8bc34a"/><circle r="21.333" cy="191.536" cx="498.489" style="isolation:auto;mix-blend-mode:normal" overflow="visible" fill="#616161"/><path d="M513.565 176.46l-30.152 30.152a21.333 21.333 0 0 0 15.076 6.257 21.333 21.333 0 0 0 21.333-21.333 21.333 21.333 0 0 0-6.257-15.076z" style="isolation:auto;mix-blend-mode:normal" overflow="visible" fill="#263238"/><circle r="8.533" style="isolation:auto;mix-blend-mode:normal" cx="498.489" cy="191.536" overflow="visible" fill="#eceff1"/><path d="M532.622 110.47a59.733 85.333 0 0 0-45.364 29.866h90.665a59.733 85.333 0 0 0-45.3-29.867z" style="isolation:auto;mix-blend-mode:normal" overflow="visible" fill="#b3e5fc"/><circle style="isolation:auto;mix-blend-mode:normal" cx="611.662" cy="193.019" r="21.333" overflow="visible" fill="#616161"/><path style="isolation:auto;mix-blend-mode:normal" d="M626.738 177.943l-30.152 30.152a21.333 21.333 0 0 0 15.076 6.258 21.333 21.333 0 0 0 21.333-21.334 21.333 21.333 0 0 0-6.257-15.076z" overflow="visible" fill="#263238"/><circle cy="193.019" cx="611.662" style="isolation:auto;mix-blend-mode:normal" r="8.533" overflow="visible" fill="#eceff1"/><path d="M532.622 110.47v29.866h45.301a59.733 85.333 0 0 0-45.3-29.867z" style="isolation:auto;mix-blend-mode:normal" overflow="visible" fill="#e1f5fe"/><path d="M588.089 140.336l-55.467 55.467h53.622a25.6 25.6 0 0 1-.182-2.784 25.6 25.6 0 0 1 25.6-25.6 25.6 25.6 0 0 1 25.6 25.6 25.6 25.6 0 0 1-.163 2.784h19.257a68.267 55.467 0 0 0-68.267-55.467z" style="isolation:auto;mix-blend-mode:normal" overflow="visible" fill="#689f38"/><path d="M504.52 185.506l-12.061 12.06a8.533 8.533 0 0 0 6.03 2.503 8.533 8.533 0 0 0 8.533-8.533 8.533 8.533 0 0 0-2.503-6.03zM617.692 186.99l-12.06 12.06a8.533 8.533 0 0 0 6.03 2.503 8.533 8.533 0 0 0 8.533-8.534 8.533 8.533 0 0 0-2.503-6.03z" style="isolation:auto;mix-blend-mode:normal" overflow="visible" fill="#cfd8dc"/></g><g transform="translate(-260.752 355.677)"><path style="isolation:auto;mix-blend-mode:normal" d="M349.641-83.677a56.889 78.222 0 0 0-56.889 78.222h7.413a21.333 21.333 0 0 1-.302-3.556 21.333 21.333 0 0 1 21.334-21.333A21.333 21.333 0 0 1 342.53-9.011a21.333 21.333 0 0 1-.322 3.556h52.118a21.333 21.333 0 0 1-.152-2.32 21.333 21.333 0 0 1 21.333-21.333 21.333 21.333 0 0 1 21.334 21.333 21.333 21.333 0 0 1-.136 2.32h16.047a56.889 46.222 0 0 0-56.889-46.222 56.889 46.222 0 0 0-.404.01 56.889 78.222 0 0 0-45.818-32.01z" overflow="visible" fill="#ffc107"/><circle style="isolation:auto;mix-blend-mode:normal" cx="321.197" cy="-9.011" r="17.778" overflow="visible" fill="#616161"/><path style="isolation:auto;mix-blend-mode:normal" d="M333.76-21.574L308.633 3.553a17.778 17.778 0 0 0 12.564 5.214 17.778 17.778 0 0 0 17.777-17.778 17.778 17.778 0 0 0-5.214-12.563z" overflow="visible" fill="#263238"/><circle cy="-9.011" cx="321.197" style="isolation:auto;mix-blend-mode:normal" r="7.111" overflow="visible" fill="#eceff1"/><path style="isolation:auto;mix-blend-mode:normal" d="M349.641-76.566a49.778 71.111 0 0 0-37.804 24.889h75.555a49.778 71.111 0 0 0-37.751-24.89z" overflow="visible" fill="#b3e5fc"/><circle r="17.778" cy="-7.775" cx="415.507" style="isolation:auto;mix-blend-mode:normal" overflow="visible" fill="#616161"/><path d="M428.07-20.338L402.945 4.789a17.778 17.778 0 0 0 12.563 5.214 17.778 17.778 0 0 0 17.778-17.778 17.778 17.778 0 0 0-5.214-12.563z" style="isolation:auto;mix-blend-mode:normal" overflow="visible" fill="#263238"/><circle r="7.111" style="isolation:auto;mix-blend-mode:normal" cx="415.507" cy="-7.775" overflow="visible" fill="#eceff1"/><path style="isolation:auto;mix-blend-mode:normal" d="M349.641-76.566v24.889h37.75a49.778 71.111 0 0 0-37.75-24.89z" overflow="visible" fill="#e1f5fe"/><path style="isolation:auto;mix-blend-mode:normal" d="M395.863-51.677L349.641-5.455h44.685a21.333 21.333 0 0 1-.152-2.32 21.333 21.333 0 0 1 21.333-21.333 21.333 21.333 0 0 1 21.334 21.333 21.333 21.333 0 0 1-.136 2.32h16.047a56.889 46.222 0 0 0-56.889-46.222z" overflow="visible" fill="#ffa000"/><path style="isolation:auto;mix-blend-mode:normal" d="M326.222-14.036l-10.05 10.05a7.111 7.111 0 0 0 5.025 2.086 7.111 7.111 0 0 0 7.11-7.11 7.111 7.111 0 0 0-2.085-5.026zM420.532-12.8l-10.05 10.05a7.111 7.111 0 0 0 5.025 2.086 7.111 7.111 0 0 0 7.111-7.11 7.111 7.111 0 0 0-2.086-5.026z" overflow="visible" fill="#cfd8dc"/></g></g></svg>