<svg xmlns="http://www.w3.org/2000/svg" width="512" height="512"><g color="#000"><g transform="translate(3.556 -150.044)scale(.71111)"><path fill="#f44336" d="M168 256A128 176 0 0 0 40 432h16.68a48 48 0 0 1-.68-8 48 48 0 0 1 48-48 48 48 0 0 1 48 48 48 48 0 0 1-.725 8h117.266a48 48 0 0 1-.342-5.219 48 48 0 0 1 48-48 48 48 0 0 1 48 48 48 48 0 0 1-.304 5.219H400a128 104 0 0 0-128-104 128 104 0 0 0-.91.025A128 176 0 0 0 168 256" overflow="visible" style="isolation:auto;mix-blend-mode:normal"/><circle cx="104" cy="424" r="40" fill="#616161" overflow="visible" style="isolation:auto;mix-blend-mode:normal"/><path fill="#263238" d="m132.268 395.732-56.536 56.536A40 40 0 0 0 104 464a40 40 0 0 0 40-40 40 40 0 0 0-11.732-28.268" overflow="visible" style="isolation:auto;mix-blend-mode:normal"/><circle cx="104" cy="424" r="16" fill="#eceff1" overflow="visible" style="isolation:auto;mix-blend-mode:normal"/><path fill="#b3e5fc" d="M168 272a112 160 0 0 0-85.059 56H252.94A112 160 0 0 0 168 272" overflow="visible" style="isolation:auto;mix-blend-mode:normal"/><circle cx="316.199" cy="426.781" r="40" fill="#616161" overflow="visible" style="isolation:auto;mix-blend-mode:normal"/><path fill="#263238" d="m344.467 398.514-56.535 56.535a40 40 0 0 0 28.267 11.732 40 40 0 0 0 40-40 40 40 0 0 0-11.732-28.267" overflow="visible" style="isolation:auto;mix-blend-mode:normal"/><circle cx="316.199" cy="426.781" r="16" fill="#eceff1" overflow="visible" style="isolation:auto;mix-blend-mode:normal"/><path fill="#e1f5fe" d="M168 272v56h84.94A112 160 0 0 0 168 272" overflow="visible" style="isolation:auto;mix-blend-mode:normal"/><path fill="#d32f2f" d="M272 328 168 432h100.541a48 48 0 0 1-.342-5.219 48 48 0 0 1 48-48 48 48 0 0 1 48 48 48 48 0 0 1-.304 5.219H400a128 104 0 0 0-128-104" overflow="visible" style="isolation:auto;mix-blend-mode:normal"/><path fill="#cfd8dc" d="m115.307 412.693-22.614 22.614A16 16 0 0 0 104 440a16 16 0 0 0 16-16 16 16 0 0 0-4.693-11.307m212.199 2.782-22.613 22.613a16 16 0 0 0 11.306 4.693 16 16 0 0 0 16-16 16 16 0 0 0-4.693-11.306" overflow="visible" style="isolation:auto;mix-blend-mode:normal"/></g><g transform="translate(75.022 85.311)"><path fill="#03a9f4" d="M228.622 255.536a79.644 109.511 0 0 0-79.644 109.511h10.378a30 30 0 0 1-.423-4.978 29.867 29.867 0 0 1 29.867-29.866 29.867 29.867 0 0 1 29.867 29.866 30 30 0 0 1-.451 4.978h72.966a30 30 0 0 1-.214-3.247 29.867 29.867 0 0 1 29.867-29.867 29.867 29.867 0 0 1 29.867 29.867 30 30 0 0 1-.19 3.247h22.466a79.644 64.711 0 0 0-79.645-64.71 79.644 64.711 0 0 0-.566.015 79.644 109.511 0 0 0-64.145-44.816" overflow="visible" style="isolation:auto;mix-blend-mode:normal"/><circle cx="188.8" cy="360.069" r="24.889" fill="#616161" overflow="visible" style="isolation:auto;mix-blend-mode:normal"/><path fill="#263238" d="m206.389 342.48-35.178 35.178a24.9 24.9 0 0 0 17.589 7.3 24.89 24.89 0 0 0 24.889-24.889 24.9 24.9 0 0 0-7.3-17.588z" overflow="visible" style="isolation:auto;mix-blend-mode:normal"/><circle cx="188.8" cy="360.069" r="9.956" fill="#eceff1" overflow="visible" style="isolation:auto;mix-blend-mode:normal"/><path fill="#b3e5fc" d="M228.622 265.492a69.689 99.556 0 0 0-52.925 34.844h105.776a69.689 99.556 0 0 0-52.85-34.844z" overflow="visible" style="isolation:auto;mix-blend-mode:normal"/><circle cx="320.835" cy="361.8" r="24.889" fill="#616161" overflow="visible" style="isolation:auto;mix-blend-mode:normal"/><path fill="#263238" d="m338.424 344.211-35.178 35.178a24.9 24.9 0 0 0 17.59 7.3 24.89 24.89 0 0 0 24.888-24.889 24.9 24.9 0 0 0-7.3-17.589" overflow="visible" style="isolation:auto;mix-blend-mode:normal"/><circle cx="320.835" cy="361.8" r="9.956" fill="#eceff1" overflow="visible" style="isolation:auto;mix-blend-mode:normal"/><path fill="#e1f5fe" d="M228.622 265.492v34.844h52.851a69.689 99.556 0 0 0-52.85-34.844z" overflow="visible" style="isolation:auto;mix-blend-mode:normal"/><path fill="#0288d1" d="m293.333 300.336-64.71 64.711h62.558a30 30 0 0 1-.213-3.247 29.867 29.867 0 0 1 29.867-29.867 29.867 29.867 0 0 1 29.867 29.867 30 30 0 0 1-.19 3.247h22.466a79.644 64.711 0 0 0-79.645-64.71z" overflow="visible" style="isolation:auto;mix-blend-mode:normal"/><path fill="#cfd8dc" d="m195.835 353.034-14.07 14.07a9.96 9.96 0 0 0 7.035 2.921 9.956 9.956 0 0 0 9.956-9.956 9.96 9.96 0 0 0-2.92-7.035zm132.035 1.731-14.07 14.07a9.96 9.96 0 0 0 7.035 2.92 9.956 9.956 0 0 0 9.956-9.955 9.96 9.96 0 0 0-2.92-7.035z" overflow="visible" style="isolation:auto;mix-blend-mode:normal"/></g><g transform="translate(-160.356 57.647)"><path fill="#8bc34a" d="M532.622 101.936a68.267 93.867 0 0 0-68.266 93.867h8.895a25.6 25.6 0 0 1-.362-4.267 25.6 25.6 0 0 1 25.6-25.6 25.6 25.6 0 0 1 25.6 25.6 25.6 25.6 0 0 1-.387 4.267h62.542a26 26 0 0 1-.182-2.784 25.6 25.6 0 0 1 25.6-25.6 25.6 25.6 0 0 1 25.6 25.6 26 26 0 0 1-.163 2.784h19.257a68.267 55.467 0 0 0-68.267-55.467 68.267 55.467 0 0 0-.486.014 68.267 93.867 0 0 0-54.98-38.414z" overflow="visible" style="isolation:auto;mix-blend-mode:normal"/><circle cx="498.489" cy="191.536" r="21.333" fill="#616161" overflow="visible" style="isolation:auto;mix-blend-mode:normal"/><path fill="#263238" d="m513.565 176.46-30.152 30.152a21.33 21.33 0 0 0 15.076 6.257 21.333 21.333 0 0 0 21.333-21.333 21.33 21.33 0 0 0-6.257-15.076" overflow="visible" style="isolation:auto;mix-blend-mode:normal"/><circle cx="498.489" cy="191.536" r="8.533" fill="#eceff1" overflow="visible" style="isolation:auto;mix-blend-mode:normal"/><path fill="#b3e5fc" d="M532.622 110.47a59.733 85.333 0 0 0-45.364 29.866h90.665a59.733 85.333 0 0 0-45.3-29.867z" overflow="visible" style="isolation:auto;mix-blend-mode:normal"/><circle cx="611.662" cy="193.019" r="21.333" fill="#616161" overflow="visible" style="isolation:auto;mix-blend-mode:normal"/><path fill="#263238" d="m626.738 177.943-30.152 30.152a21.33 21.33 0 0 0 15.076 6.258 21.333 21.333 0 0 0 21.333-21.334 21.33 21.33 0 0 0-6.257-15.076" overflow="visible" style="isolation:auto;mix-blend-mode:normal"/><circle cx="611.662" cy="193.019" r="8.533" fill="#eceff1" overflow="visible" style="isolation:auto;mix-blend-mode:normal"/><path fill="#e1f5fe" d="M532.622 110.47v29.866h45.301a59.733 85.333 0 0 0-45.3-29.867z" overflow="visible" style="isolation:auto;mix-blend-mode:normal"/><path fill="#689f38" d="m588.089 140.336-55.467 55.467h53.622a26 26 0 0 1-.182-2.784 25.6 25.6 0 0 1 25.6-25.6 25.6 25.6 0 0 1 25.6 25.6 26 26 0 0 1-.163 2.784h19.257a68.267 55.467 0 0 0-68.267-55.467" overflow="visible" style="isolation:auto;mix-blend-mode:normal"/><path fill="#cfd8dc" d="m504.52 185.506-12.061 12.06a8.53 8.53 0 0 0 6.03 2.503 8.533 8.533 0 0 0 8.533-8.533 8.53 8.53 0 0 0-2.503-6.03zm113.172 1.484-12.06 12.06a8.53 8.53 0 0 0 6.03 2.503 8.533 8.533 0 0 0 8.533-8.534 8.53 8.53 0 0 0-2.503-6.03z" overflow="visible" style="isolation:auto;mix-blend-mode:normal"/></g><g transform="translate(-260.752 355.677)"><path fill="#ffc107" d="M349.641-83.677a56.889 78.222 0 0 0-56.889 78.222h7.413a21.3 21.3 0 0 1-.302-3.556 21.333 21.333 0 0 1 21.334-21.333A21.333 21.333 0 0 1 342.53-9.011a21.3 21.3 0 0 1-.322 3.556h52.118a21 21 0 0 1-.152-2.32 21.333 21.333 0 0 1 21.333-21.333 21.333 21.333 0 0 1 21.334 21.333 21 21 0 0 1-.136 2.32h16.047a56.889 46.222 0 0 0-56.889-46.222 56.889 46.222 0 0 0-.404.01 56.889 78.222 0 0 0-45.818-32.01" overflow="visible" style="isolation:auto;mix-blend-mode:normal"/><circle cx="321.197" cy="-9.011" r="17.778" fill="#616161" overflow="visible" style="isolation:auto;mix-blend-mode:normal"/><path fill="#263238" d="M333.76-21.574 308.633 3.553a17.78 17.78 0 0 0 12.564 5.214 17.78 17.78 0 0 0 17.777-17.778 17.78 17.78 0 0 0-5.214-12.563" overflow="visible" style="isolation:auto;mix-blend-mode:normal"/><circle cx="321.197" cy="-9.011" r="7.111" fill="#eceff1" overflow="visible" style="isolation:auto;mix-blend-mode:normal"/><path fill="#b3e5fc" d="M349.641-76.566a49.778 71.111 0 0 0-37.804 24.889h75.555a49.778 71.111 0 0 0-37.751-24.89z" overflow="visible" style="isolation:auto;mix-blend-mode:normal"/><circle cx="415.507" cy="-7.775" r="17.778" fill="#616161" overflow="visible" style="isolation:auto;mix-blend-mode:normal"/><path fill="#263238" d="M428.07-20.338 402.945 4.789a17.78 17.78 0 0 0 12.563 5.214 17.78 17.78 0 0 0 17.778-17.778 17.78 17.78 0 0 0-5.214-12.563z" overflow="visible" style="isolation:auto;mix-blend-mode:normal"/><circle cx="415.507" cy="-7.775" r="7.111" fill="#eceff1" overflow="visible" style="isolation:auto;mix-blend-mode:normal"/><path fill="#e1f5fe" d="M349.641-76.566v24.889h37.75a49.778 71.111 0 0 0-37.75-24.89z" overflow="visible" style="isolation:auto;mix-blend-mode:normal"/><path fill="#ffa000" d="M395.863-51.677 349.641-5.455h44.685a21 21 0 0 1-.152-2.32 21.333 21.333 0 0 1 21.333-21.333 21.333 21.333 0 0 1 21.334 21.333 21 21 0 0 1-.136 2.32h16.047a56.889 46.222 0 0 0-56.889-46.222" overflow="visible" style="isolation:auto;mix-blend-mode:normal"/><path fill="#cfd8dc" d="m326.222-14.036-10.05 10.05a7.1 7.1 0 0 0 5.025 2.086 7.11 7.11 0 0 0 7.11-7.11 7.1 7.1 0 0 0-2.085-5.026m94.31 1.236-10.05 10.05a7.1 7.1 0 0 0 5.025 2.086 7.11 7.11 0 0 0 7.111-7.11 7.1 7.1 0 0 0-2.086-5.026" overflow="visible" style="isolation:auto;mix-blend-mode:normal"/></g></g></svg>