<svg xmlns="http://www.w3.org/2000/svg" width="512" height="512"><path fill="#212121" fill-rule="evenodd" d="M191.965 102.253c-12.434-16.349-13.608-39.984-12.96-64.797 52.893 8.825 61.516 30.538 86.397 47.518z"/><path fill="#e1bee7" fill-rule="evenodd" d="M205.227 116.798c-5.154-21.6-16.141-43.199-12.96-64.798 36.1 12.19 31.248 20.137 60 36z"/><path fill="#212121" fill-rule="evenodd" d="M348.303 102.253c12.433-16.349 13.608-39.984 12.96-64.797-52.893 8.825-61.516 30.538-86.398 47.518z"/><path fill="#e1bee7" fill-rule="evenodd" d="M335.04 116.798C340.195 95.198 351.182 73.599 348 52c-36.099 12.19-31.248 20.137-60 36z"/><ellipse cx="410.862" cy="394.308" fill="#212121" color="#000" overflow="visible" rx="34.559" ry="109.322" style="isolation:auto;mix-blend-mode:normal" transform="scale(1 .98253)skewX(-10.542)"/><ellipse cx="-127.947" cy="393.658" fill="#212121" color="#000" overflow="visible" rx="34.559" ry="108.604" style="isolation:auto;mix-blend-mode:normal" transform="scale(-1 .9823)skewX(-10.61)"/><path fill="#212121" fill-rule="evenodd" d="M96.12 203.795c-8.913.355-16.762 3.438-22.915 6.406-8.204 3.958-14.02 8.496-14.02 8.496a12.001 12.001 0 1 0 14.735 18.944s3.904-3.02 9.713-5.823c5.808-2.801 12.893-4.597 17.33-3.77s8.255 2.423 12.101 14.556 5.606 34.48 1.184 70.187c-9.45 76.303 16.791 117.298 46.723 135.9s61.941 16.08 61.941 16.08a12.001 12.001 0 1 0-1.687-23.939s-25.023 1.497-47.584-12.525-44.277-42.295-35.575-112.567c4.655-37.58 3.503-62.639-2.125-80.39-5.627-17.752-17.844-28.52-30.578-30.895a41.3 41.3 0 0 0-9.244-.66z" color="#000" font-family="sans-serif" font-weight="400" overflow="visible" style="line-height:normal;text-indent:0;text-align:start;text-decoration-line:none;text-decoration-style:solid;text-decoration-color:#000;text-transform:none;block-progression:tb;isolation:auto;mix-blend-mode:normal"/><ellipse cx="269.586" cy="327.526" fill="#212121" color="#000" overflow="visible" rx="73.438" ry="168.474" style="isolation:auto;mix-blend-mode:normal"/><ellipse cx="268" cy="300" fill="#cfd8dc" color="#000" overflow="visible" rx="28" ry="100" style="isolation:auto;mix-blend-mode:normal"/><path fill="#212121" d="M315.172 193.883c0 21.753-18.395 43.034-45.586 43.034S224 215.636 224 193.883c0-21.752 18.395-35.74 45.586-35.74s45.586 13.988 45.586 35.74" color="#000" overflow="visible" style="isolation:auto;mix-blend-mode:normal"/><path fill="#212121" d="M355.172 134.954c0 40.869-34.537 77.046-85.586 77.046S184 175.823 184 134.954 218.537 64 269.586 64s85.586 30.085 85.586 70.954" color="#000" overflow="visible" style="isolation:auto;mix-blend-mode:normal"/><circle cx="254.467" cy="182.81" r="19.439" fill="#607d8b" color="#000" overflow="visible" style="isolation:auto;mix-blend-mode:normal"/><circle cx="289.025" cy="182.81" r="19.439" fill="#607d8b" color="#000" overflow="visible" style="isolation:auto;mix-blend-mode:normal"/><ellipse cx="269.586" cy="161.211" fill="#e1bee7" color="#000" overflow="visible" rx="21.599" ry="10.8" style="isolation:auto;mix-blend-mode:normal"/><ellipse cx="167.691" cy="-269.586" fill="#e1bee7" color="#000" overflow="visible" rx="17.279" ry="8.64" style="isolation:auto;mix-blend-mode:normal" transform="rotate(90)"/><path fill="none" stroke="#cfd8dc" stroke-linecap="round" stroke-linejoin="round" stroke-width="4" d="m239.347 180.65-66.937-14.14m66.937 14.14-69.118 8.64m69.118-8.64-51.838 25.92m116.636-25.92 66.937-14.141m-66.937 14.141 69.118 8.64m-69.118-8.64 51.838 25.92"/><path fill="#f5f5f5" d="M235.08 115.494a26.18 26.18 0 0 0-26.149.008 26.18 26.18 0 0 0 13.058 22.665 26.18 26.18 0 0 0 26.148-.008 26.18 26.18 0 0 0-13.058-22.665z" color="#000" overflow="visible" style="isolation:auto;mix-blend-mode:normal"/><path fill="#f5f5f5" d="M235.089 130.615a15.14 15.14 0 0 0-.005-15.118 15.14 15.14 0 0 0-13.104 7.55 15.14 15.14 0 0 0 .005 15.117 15.14 15.14 0 0 0 13.104-7.55zm69.831-15.121a26.18 26.18 0 0 1 26.149.008 26.18 26.18 0 0 1-13.058 22.665 26.18 26.18 0 0 1-26.148-.008 26.18 26.18 0 0 1 13.058-22.665z" color="#000" overflow="visible" style="isolation:auto;mix-blend-mode:normal"/><path fill="#f5f5f5" d="M304.911 130.615a15.14 15.14 0 0 1 .005-15.118 15.14 15.14 0 0 1 13.104 7.55 15.14 15.14 0 0 1-.005 15.117 15.14 15.14 0 0 1-13.104-7.55z" color="#000" overflow="visible" style="isolation:auto;mix-blend-mode:normal"/><path fill="#212121" d="M269.838 468A49.838 26.651 0 0 0 220 494.651a49.838 26.651 0 0 0 .088 1.349h99.462a49.838 26.651 0 0 0 .126-1.349A49.838 26.651 0 0 0 269.838 468" color="#000" overflow="visible" style="isolation:auto;mix-blend-mode:normal"/><path fill="#cfd8dc" d="M345.87 464.163A71.598 36.81 0 0 1 376 494.136a71.598 36.81 0 0 1-.127 1.864h-60.016a71.598 36.81 0 0 1-.181-1.864 71.598 36.81 0 0 1 30.194-29.973m-151.838.171A71.213 36.613 0 0 1 224 494.146a71.213 36.613 0 0 1-.126 1.854H164.18a71.213 36.613 0 0 1-.18-1.854 71.213 36.613 0 0 1 30.032-29.812" color="#000" overflow="visible" style="isolation:auto;mix-blend-mode:normal"/><path fill="#212121" fill-rule="evenodd" d="M81.412 206.76c-2.979 1.045-5.735 2.249-8.207 3.441-8.204 3.958-14.02 8.496-14.02 8.496a12.001 12.001 0 1 0 14.735 18.944s3.904-3.02 9.713-5.823a45 45 0 0 1 4.012-1.685 29.87 30.281 0 0 0 .355-4.414 29.87 30.281 0 0 0-6.588-18.96z" color="#000" font-family="sans-serif" font-weight="400" overflow="visible" style="line-height:normal;text-indent:0;text-align:start;text-decoration-line:none;text-decoration-style:solid;text-decoration-color:#000;text-transform:none;block-progression:tb;isolation:auto;mix-blend-mode:normal"/></svg>