<svg xmlns="http://www.w3.org/2000/svg" width="512" height="512"><path d="M191.965 102.253c-12.434-16.349-13.608-39.984-12.96-64.797 52.893 8.825 61.516 30.538 86.397 47.518z" fill="#212121" fill-rule="evenodd"/><path d="M205.227 116.798c-5.154-21.6-16.141-43.199-12.96-64.798 36.1 12.19 31.248 20.137 60 36z" fill="#e1bee7" fill-rule="evenodd"/><path d="M348.303 102.253c12.433-16.349 13.608-39.984 12.96-64.797-52.893 8.825-61.516 30.538-86.398 47.518z" fill="#212121" fill-rule="evenodd"/><path d="M335.04 116.798C340.195 95.198 351.182 73.599 348 52c-36.099 12.19-31.248 20.137-60 36z" fill="#e1bee7" fill-rule="evenodd"/><ellipse style="isolation:auto;mix-blend-mode:normal" cx="410.862" cy="394.308" rx="34.559" ry="109.322" transform="matrix(1 0 -.1861 .98253 0 0)" color="#000" overflow="visible" fill="#212121"/><ellipse transform="matrix(-1 0 .18733 .9823 0 0)" ry="108.604" rx="34.559" cy="393.658" cx="-127.947" style="isolation:auto;mix-blend-mode:normal" color="#000" overflow="visible" fill="#212121"/><path style="line-height:normal;text-indent:0;text-align:start;text-decoration-line:none;text-decoration-style:solid;text-decoration-color:#000;text-transform:none;block-progression:tb;isolation:auto;mix-blend-mode:normal" d="M96.12 203.795c-8.913.355-16.762 3.438-22.915 6.406-8.204 3.958-14.02 8.496-14.02 8.496a12.001 12.001 0 1 0 14.735 18.944s3.904-3.02 9.713-5.823c5.808-2.801 12.893-4.597 17.33-3.77 4.437.828 8.255 2.423 12.101 14.556 3.847 12.132 5.606 34.48 1.184 70.187-9.45 76.303 16.791 117.298 46.723 135.9 29.931 18.603 61.941 16.08 61.941 16.08a12.001 12.001 0 1 0-1.687-23.939s-25.023 1.497-47.584-12.525c-22.562-14.022-44.277-42.295-35.575-112.567 4.655-37.58 3.503-62.639-2.125-80.39-5.627-17.752-17.844-28.52-30.578-30.895a41.308 41.308 0 0 0-9.244-.66z" color="#000" font-weight="400" font-family="sans-serif" white-space="normal" overflow="visible" fill="#212121" fill-rule="evenodd"/><ellipse style="isolation:auto;mix-blend-mode:normal" cx="269.586" cy="327.526" rx="73.438" ry="168.474" color="#000" overflow="visible" fill="#212121"/><ellipse style="isolation:auto;mix-blend-mode:normal" cx="268" cy="300" rx="28" ry="100" color="#000" overflow="visible" fill="#cfd8dc"/><path d="M315.172 193.883c0 21.753-18.395 43.034-45.586 43.034-27.19 0-45.586-21.281-45.586-43.034 0-21.752 18.395-35.74 45.586-35.74 27.19 0 45.586 13.988 45.586 35.74z" style="isolation:auto;mix-blend-mode:normal" color="#000" overflow="visible" fill="#212121"/><path style="isolation:auto;mix-blend-mode:normal" d="M355.172 134.954c0 40.869-34.537 77.046-85.586 77.046-51.05 0-85.586-36.177-85.586-77.046C184 94.084 218.537 64 269.586 64c51.05 0 85.586 30.085 85.586 70.954z" color="#000" overflow="visible" fill="#212121"/><circle style="isolation:auto;mix-blend-mode:normal" cx="254.467" cy="182.81" r="19.439" color="#000" overflow="visible" fill="#607d8b"/><circle r="19.439" cy="182.81" cx="289.025" style="isolation:auto;mix-blend-mode:normal" color="#000" overflow="visible" fill="#607d8b"/><ellipse style="isolation:auto;mix-blend-mode:normal" cx="269.586" cy="161.211" rx="21.599" ry="10.8" color="#000" overflow="visible" fill="#e1bee7"/><ellipse ry="8.64" rx="17.279" cy="-269.586" cx="167.691" style="isolation:auto;mix-blend-mode:normal" transform="rotate(90)" color="#000" overflow="visible" fill="#e1bee7"/><path d="M239.347 180.65L172.41 166.51M239.347 180.65l-69.118 8.64M239.347 180.65l-51.838 25.92M304.145 180.65l66.937-14.141M304.145 180.65l69.118 8.64M304.145 180.65l51.838 25.92" fill="none" stroke="#cfd8dc" stroke-width="4" stroke-linecap="round" stroke-linejoin="round"/><path d="M235.08 115.494a26.18 26.18 0 0 0-26.149.008 26.18 26.18 0 0 0 13.058 22.665 26.18 26.18 0 0 0 26.148-.008 26.18 26.18 0 0 0-13.058-22.665z" style="isolation:auto;mix-blend-mode:normal" color="#000" overflow="visible" fill="#f5f5f5"/><path style="isolation:auto;mix-blend-mode:normal" d="M235.089 130.615a15.137 15.137 0 0 0-.005-15.118 15.137 15.137 0 0 0-13.104 7.55 15.137 15.137 0 0 0 .005 15.117 15.137 15.137 0 0 0 13.104-7.55zM304.92 115.494a26.18 26.18 0 0 1 26.149.008 26.18 26.18 0 0 1-13.058 22.665 26.18 26.18 0 0 1-26.148-.008 26.18 26.18 0 0 1 13.058-22.665z" color="#000" overflow="visible" fill="#f5f5f5"/><path d="M304.911 130.615a15.137 15.137 0 0 1 .005-15.118 15.137 15.137 0 0 1 13.104 7.55 15.137 15.137 0 0 1-.005 15.117 15.137 15.137 0 0 1-13.104-7.55z" style="isolation:auto;mix-blend-mode:normal" color="#000" overflow="visible" fill="#f5f5f5"/><path d="M269.838 468A49.838 26.651 0 0 0 220 494.651a49.838 26.651 0 0 0 .088 1.349h99.462a49.838 26.651 0 0 0 .126-1.349A49.838 26.651 0 0 0 269.838 468z" style="isolation:auto;mix-blend-mode:normal" color="#000" overflow="visible" fill="#212121"/><path style="isolation:auto;mix-blend-mode:normal" d="M345.87 464.163A71.598 36.81 0 0 1 376 494.136a71.598 36.81 0 0 1-.127 1.864h-60.016a71.598 36.81 0 0 1-.181-1.864 71.598 36.81 0 0 1 30.194-29.973zM194.032 464.334A71.213 36.613 0 0 1 224 494.146a71.213 36.613 0 0 1-.126 1.854H164.18a71.213 36.613 0 0 1-.18-1.854 71.213 36.613 0 0 1 30.032-29.812z" color="#000" overflow="visible" fill="#cfd8dc"/><path style="line-height:normal;text-indent:0;text-align:start;text-decoration-line:none;text-decoration-style:solid;text-decoration-color:#000;text-transform:none;block-progression:tb;isolation:auto;mix-blend-mode:normal" d="M81.412 206.76c-2.979 1.045-5.735 2.249-8.207 3.441-8.204 3.958-14.02 8.496-14.02 8.496a12.001 12.001 0 1 0 14.735 18.944s3.904-3.02 9.713-5.823a45.304 45.304 0 0 1 4.012-1.685 29.87 30.281 0 0 0 .355-4.414 29.87 30.281 0 0 0-6.588-18.96z" color="#000" font-weight="400" font-family="sans-serif" white-space="normal" overflow="visible" fill="#212121" fill-rule="evenodd"/></svg>