<svg xmlns="http://www.w3.org/2000/svg" width="512" height="512"><circle cx="362.039" r="240" fill="#1976d2" color="#000" overflow="visible" style="isolation:auto;mix-blend-mode:normal" transform="rotate(45)"/><circle cx="256" cy="256" r="28.8" fill="#607d8b" color="#000" overflow="visible" style="isolation:auto;mix-blend-mode:normal"/><path fill="#0d47a1" d="M425.706 86.294 86.294 425.706a240 240 0 0 0 339.412 0 240 240 0 0 0 0-339.412" color="#000" overflow="visible" style="isolation:auto;mix-blend-mode:normal"/><circle cx="256" cy="-256" r="201.6" fill="#cfd8dc" color="#000" overflow="visible" style="isolation:auto;mix-blend-mode:normal" transform="rotate(90)"/><path fill="#b0bec5" d="M398.552 113.448 113.448 398.552a201.6 201.6 0 0 0 285.104 0 201.6 201.6 0 0 0 0-285.104" color="#000" overflow="visible" style="isolation:auto;mix-blend-mode:normal"/><circle cx="362.039" r="182.4" fill="#fafafa" color="#000" overflow="visible" style="isolation:auto;mix-blend-mode:normal" transform="rotate(45)"/><path fill="#eee" d="M384.977 127.023 127.023 384.977a182.4 182.4 0 0 0 257.954 0 182.4 182.4 0 0 0 0-257.954" color="#000" overflow="visible" style="isolation:auto;mix-blend-mode:normal"/><path fill="#f44336" fill-rule="evenodd" d="M255.852 251.977a4 4 0 0 0-1.788.523l-134.4 74.361a4 4 0 1 0 3.873 7L257.936 259.5a4 4 0 0 0-2.084-7.523" color="#000" font-family="sans-serif" font-weight="400" overflow="visible" style="line-height:normal;text-indent:0;text-align:start;text-decoration-line:none;text-decoration-style:solid;text-decoration-color:#000;text-transform:none;block-progression:tb;isolation:auto;mix-blend-mode:normal"/><path fill="#78909c" fill-rule="evenodd" d="M326.06 100.379a8 8 0 0 0-7.496 4.678l-69.796 147.521a8.001 8.001 0 1 0 14.464 6.844L333.027 111.9a8 8 0 0 0-6.966-11.521z" color="#000" font-family="sans-serif" font-weight="400" overflow="visible" style="line-height:normal;text-indent:0;text-align:start;text-decoration-line:none;text-decoration-style:solid;text-decoration-color:#000;text-transform:none;block-progression:tb;isolation:auto;mix-blend-mode:normal"/><path fill="#78909c" fill-rule="evenodd" d="M255.916 247.92a8 8 0 0 0-5.572 13.736l76.799 76.801a8 8 0 1 0 11.314-11.314l-76.8-76.8a8 8 0 0 0-5.741-2.423" color="#000" font-family="sans-serif" font-weight="400" overflow="visible" style="line-height:normal;text-indent:0;text-align:start;text-decoration-line:none;text-decoration-style:solid;text-decoration-color:#000;text-transform:none;block-progression:tb;isolation:auto;mix-blend-mode:normal"/><circle cx="362.039" r="24" fill="#ffc107" color="#000" overflow="visible" style="isolation:auto;mix-blend-mode:normal" transform="rotate(45)"/><path fill="none" stroke="#cfd8dc" stroke-linecap="round" stroke-linejoin="round" stroke-width="12" d="M256 92.8v38.4M92.8 256h38.4M256 419.2v-38.4M419.2 256h-38.4"/><path fill="#ffa000" d="m272.97 239.03-33.94 33.94a24 24 0 0 0 33.94 0 24 24 0 0 0 0-33.94" color="#000" overflow="visible" style="isolation:auto;mix-blend-mode:normal"/></svg>