<svg xmlns="http://www.w3.org/2000/svg" width="512" height="512"><circle style="isolation:auto;mix-blend-mode:normal" cx="362.039" r="240" transform="rotate(45)" color="#000" overflow="visible" fill="#1976d2"/><circle style="isolation:auto;mix-blend-mode:normal" cx="256" cy="256" r="28.8" color="#000" overflow="visible" fill="#607d8b"/><path style="isolation:auto;mix-blend-mode:normal" d="M425.706 86.294L86.294 425.706a240 240 0 0 0 339.412 0 240 240 0 0 0 0-339.412z" color="#000" overflow="visible" fill="#0d47a1"/><circle cy="-256" cx="256" style="isolation:auto;mix-blend-mode:normal" r="201.6" transform="rotate(90)" color="#000" overflow="visible" fill="#cfd8dc"/><path style="isolation:auto;mix-blend-mode:normal" d="M398.552 113.448L113.448 398.552a201.6 201.6 0 0 0 285.104 0 201.6 201.6 0 0 0 0-285.104z" color="#000" overflow="visible" fill="#b0bec5"/><circle style="isolation:auto;mix-blend-mode:normal" cx="362.039" r="182.4" transform="rotate(45)" color="#000" overflow="visible" fill="#fafafa"/><path style="isolation:auto;mix-blend-mode:normal" d="M384.977 127.023L127.023 384.977a182.4 182.4 0 0 0 257.954 0 182.4 182.4 0 0 0 0-257.954z" color="#000" overflow="visible" fill="#eee"/><path style="line-height:normal;text-indent:0;text-align:start;text-decoration-line:none;text-decoration-style:solid;text-decoration-color:#000;text-transform:none;block-progression:tb;isolation:auto;mix-blend-mode:normal" d="M255.852 251.977a4 4 0 0 0-1.788.523l-134.4 74.361a4 4 0 1 0 3.873 7L257.936 259.5a4 4 0 0 0-2.084-7.523z" color="#000" font-weight="400" font-family="sans-serif" white-space="normal" overflow="visible" fill="#f44336" fill-rule="evenodd"/><path style="line-height:normal;text-indent:0;text-align:start;text-decoration-line:none;text-decoration-style:solid;text-decoration-color:#000;text-transform:none;block-progression:tb;isolation:auto;mix-blend-mode:normal" d="M326.06 100.379a8 8 0 0 0-7.496 4.678l-69.796 147.521a8.001 8.001 0 1 0 14.464 6.844L333.027 111.9a8 8 0 0 0-6.966-11.521z" color="#000" font-weight="400" font-family="sans-serif" white-space="normal" overflow="visible" fill="#78909c" fill-rule="evenodd"/><path style="line-height:normal;text-indent:0;text-align:start;text-decoration-line:none;text-decoration-style:solid;text-decoration-color:#000;text-transform:none;block-progression:tb;isolation:auto;mix-blend-mode:normal" d="M255.916 247.92a8 8 0 0 0-5.572 13.736l76.799 76.801a8 8 0 1 0 11.314-11.314l-76.8-76.8a8 8 0 0 0-5.741-2.423z" color="#000" font-weight="400" font-family="sans-serif" white-space="normal" overflow="visible" fill="#78909c" fill-rule="evenodd"/><circle style="isolation:auto;mix-blend-mode:normal" cx="362.039" r="24" transform="rotate(45)" color="#000" overflow="visible" fill="#ffc107"/><path d="M256 92.8v38.4M92.8 256h38.4M256 419.2v-38.4M419.2 256h-38.4" fill="none" stroke="#cfd8dc" stroke-width="12" stroke-linecap="round" stroke-linejoin="round"/><path style="isolation:auto;mix-blend-mode:normal" d="M272.97 239.03l-33.94 33.94a24 24 0 0 0 33.94 0 24 24 0 0 0 0-33.94z" color="#000" overflow="visible" fill="#ffa000"/></svg>