<svg xmlns="http://www.w3.org/2000/svg" width="512" height="512"><g color="#000"><path fill="#673ab7" d="M243.58 503.998c-16.47-.33-20.857-36.204-36.458-38.655s-66.76 24.696-80.228 20.322c-13.467-4.373 24.995-35.644 14.751-41.587-10.244-5.942-85.181 4.17-91.371-2.86s62.91-23.77 61.276-31.316c-1.635-7.548-76.559-17.682-73.506-25.135s80.854-4.347 88.347-11.103-43.629-33.918-32.303-39.43c11.327-5.51 73.126 16.457 87.368 12.637s3.153-39.387 19.157-41.205c16.004-1.82 42.181 32.033 58.65 32.363s48.934-32.35 64.534-29.9c15.6 2.452-2.156 37.442 11.312 41.816s79.178-15.043 89.422-9.1-45.809 30.961-39.619 37.99 84.284 7.042 85.92 14.59c1.635 7.547-74.918 14.65-77.97 22.104-3.053 7.454 62.63 26.89 55.137 33.645s-80.24-6.31-91.566-.8c-11.326 5.512 21.092 38.2 6.85 42.02s-60.087-25.268-76.091-23.45c-16.004 1.82-27.143 37.383-43.612 37.054" overflow="visible" style="isolation:auto;mix-blend-mode:normal"/><path fill="#512da8" d="M322.286 308.002c-16.103-.312-47.068 30.346-63.023 30.027-.955-.019-1.946-.163-2.963-.394v159.803c10.318-10.286 19.338-29.18 30.892-30.493 16.004-1.82 61.85 27.268 76.092 23.449 14.242-3.82-18.177-36.509-6.85-42.02 11.326-5.51 84.073 7.556 91.566.8s-58.19-26.191-55.137-33.645c3.052-7.453 79.604-14.557 77.97-22.105-1.636-7.547-79.73-7.558-85.92-14.588-6.191-7.03 49.863-32.05 39.619-37.992s-75.954 13.475-89.422 9.101 4.287-39.363-11.313-41.814q-.732-.115-1.51-.13z" overflow="visible" style="isolation:auto;mix-blend-mode:normal"/></g><g fill="#03a9f4" color="#000" transform="matrix(-1 0 0 .9936 8 31.846)"><circle cx="-120" cy="224" r="32" overflow="visible" style="isolation:auto;mix-blend-mode:normal"/><circle cx="-104" cy="264" r="32" overflow="visible" style="isolation:auto;mix-blend-mode:normal"/><circle cx="-152" cy="192" r="32" overflow="visible" style="isolation:auto;mix-blend-mode:normal"/><circle cx="-96" cy="184" r="32" overflow="visible" style="isolation:auto;mix-blend-mode:normal"/><circle cx="-64" cy="224" r="32" overflow="visible" style="isolation:auto;mix-blend-mode:normal"/><circle cx="-48" cy="176" r="32" overflow="visible" style="isolation:auto;mix-blend-mode:normal"/></g><g fill="#0288d1" color="#000" transform="matrix(1 0 0 .9936 8 31.846)"><circle cx="376" cy="224" r="32" overflow="visible" style="isolation:auto;mix-blend-mode:normal"/><circle cx="392" cy="264" r="32" overflow="visible" style="isolation:auto;mix-blend-mode:normal"/><circle cx="344" cy="192" r="32" overflow="visible" style="isolation:auto;mix-blend-mode:normal"/><circle cx="400" cy="184" r="32" overflow="visible" style="isolation:auto;mix-blend-mode:normal"/><circle cx="432" cy="224" r="32" overflow="visible" style="isolation:auto;mix-blend-mode:normal"/><circle cx="448" cy="176" r="32" overflow="visible" style="isolation:auto;mix-blend-mode:normal"/></g><ellipse cx="256" cy="303.097" fill="#fce4ec" color="#000" overflow="visible" rx="136" ry="126.186" style="isolation:auto;mix-blend-mode:normal"/><path fill="#f8bbd0" d="M256 176.91v252.373a136 126.186 0 0 0 136-126.186A136 126.186 0 0 0 256 176.91" color="#000" overflow="visible" style="isolation:auto;mix-blend-mode:normal"/><ellipse cx="256" cy="310.052" fill="#f44336" color="#000" overflow="visible" rx="48" ry="31.795" style="isolation:auto;mix-blend-mode:normal"/><path fill="#fff" fill-rule="evenodd" d="M144 333.898c16-23.846 72 15.898 112 15.898s88-39.744 112-15.898-64.521 87.436-112 87.436-128-63.59-112-87.436"/><path fill="#f44336" fill-rule="evenodd" d="M208 365.693c9.037-11.964 32 7.949 48 7.949s34.444-19.913 48-7.949-24 39.744-47.57 39.744c-23.569 0-57.467-27.78-48.43-39.744"/><path fill="#263238" d="m232.721 271.01-24.554 1.563-12.624 20.985-9.085-22.72-23.987-5.445 18.94-15.605-2.201-24.35L200 238.513l22.627-9.604-6.09 23.687zm46.558 0 24.554 1.563 12.624 20.985 9.085-22.72 23.987-5.445-18.94-15.605 2.201-24.35L312 238.513l-22.627-9.604 6.09 23.687z" color="#000" overflow="visible" style="isolation:auto;mix-blend-mode:normal"/><path fill="#7cb342" fill-rule="evenodd" d="M256 31.846 144 230.565c40-23.847 73.657-31.42 112-31.795 38.343-.376 72 7.948 109.605 29.624z"/><path fill="#689f38" fill-rule="evenodd" d="M256 31.846V198.77c38.343-.376 72 7.948 109.605 29.624z"/><path fill="#03a9f4" d="M256 159.026a24 23.846 0 0 0-23.135 17.605 24 23.846 0 0 0-8.865-1.708 24 23.846 0 0 0-24 23.847 24 23.846 0 0 0 24 23.846 24 23.846 0 0 0 8.848-1.689A24 23.846 0 0 0 256 238.513a24 23.846 0 0 0 23.135-17.605 24 23.846 0 0 0 8.865 1.708 24 23.846 0 0 0 24-23.846 24 23.846 0 0 0-24-23.847 24 23.846 0 0 0-8.848 1.689A24 23.846 0 0 0 256 159.026" color="#000" overflow="visible" style="isolation:auto;mix-blend-mode:normal"/><ellipse cx="256" cy="39.795" fill="#ffc107" color="#000" overflow="visible" rx="32" ry="31.795" style="isolation:auto;mix-blend-mode:normal"/><path fill="#ffa000" fill-rule="evenodd" d="M256 8v63.59a32 31.795 0 0 0 32-31.795A32 31.795 0 0 0 256 8"/><ellipse cx="232" cy="143.128" fill="#ffc107" color="#000" overflow="visible" rx="8" ry="7.949" style="isolation:auto;mix-blend-mode:normal"/><ellipse cx="240" cy="103.385" fill="#ffc107" color="#000" overflow="visible" rx="8" ry="7.949" style="isolation:auto;mix-blend-mode:normal"/><ellipse cx="200" cy="166.975" fill="#ffc107" color="#000" overflow="visible" rx="8" ry="7.949" style="isolation:auto;mix-blend-mode:normal"/><ellipse cx="272" cy="111.334" fill="#ffa000" color="#000" overflow="visible" rx="8" ry="7.949" style="isolation:auto;mix-blend-mode:normal"/><ellipse cx="288" cy="151.077" fill="#ffa000" color="#000" overflow="visible" rx="8" ry="7.949" style="isolation:auto;mix-blend-mode:normal"/><ellipse cx="320" cy="182.872" fill="#ffa000" color="#000" overflow="visible" rx="8" ry="7.949" style="isolation:auto;mix-blend-mode:normal"/><ellipse cx="123.496" cy="269.802" fill="#fce4ec" color="#000" overflow="visible" rx="23.497" ry="36.819" style="isolation:auto;mix-blend-mode:normal"/><ellipse cx="388.504" cy="269.802" fill="#f8bbd0" color="#000" overflow="visible" rx="23.497" ry="36.819" style="isolation:auto;mix-blend-mode:normal"/></svg>