<svg xmlns="http://www.w3.org/2000/svg" width="512" height="512"><path fill="#cfd8dc" d="M136 96h240v400H136z" color="#000" overflow="visible" style="isolation:auto;mix-blend-mode:normal"/><path fill="#212121" d="M192 16h116v104H192z" color="#000" overflow="visible" style="isolation:auto;mix-blend-mode:normal"/><path fill="#cfd8dc" d="m360 72 104 53 24 355h-80l-24-264.143-24-22.714zm-208-8L48 118 24 480h80l24-272 24-24z" color="#000" overflow="visible" style="isolation:auto;mix-blend-mode:normal"/><path fill="#607d8b" d="m113.616 61.255 58.226 99.777L292 188.133 192 16z" color="#000" overflow="visible" style="isolation:auto;mix-blend-mode:normal"/><path fill="#b0bec5" d="m360 72 104 53 24 355h-16l-24-347.429-104-53z" color="#000" overflow="visible" style="isolation:auto;mix-blend-mode:normal"/><path fill="#607d8b" d="m386.384 61.255-75.196 129.171-123.639 33.13L308 16z" color="#000" overflow="visible" style="isolation:auto;mix-blend-mode:normal"/><circle cx="224" cy="304" r="16" fill="#b71c1c" color="#000" overflow="visible" style="isolation:auto;mix-blend-mode:normal"/><circle cx="224" cy="352" r="16" fill="#b71c1c" color="#000" overflow="visible" style="isolation:auto;mix-blend-mode:normal"/><circle cx="224" cy="400" r="16" fill="#b71c1c" color="#000" overflow="visible" style="isolation:auto;mix-blend-mode:normal"/><circle cx="224" cy="448" r="16" fill="#b71c1c" color="#000" overflow="visible" style="isolation:auto;mix-blend-mode:normal"/><path fill="#b0bec5" d="m360 192 16 16v288h-16zm-248 7.6 16-15.6 8 8v8l-8 7.4L104 480H88z" color="#000" overflow="visible" style="isolation:auto;mix-blend-mode:normal"/><path fill="#607d8b" d="M440 368h56v64h-48z" color="#000" overflow="visible" style="isolation:auto;mix-blend-mode:normal"/><path fill="#263238" d="M480 368h16v64h-16zm-408 0H16v64h48z" color="#000" overflow="visible" style="isolation:auto;mix-blend-mode:normal"/><path fill="#607d8b" d="M56 368H16v64h32z" color="#000" overflow="visible" style="isolation:auto;mix-blend-mode:normal"/><path fill="none" stroke="#263238" stroke-linejoin="round" stroke-width="8" d="M188 496V220L308 20H192l60 92"/></svg>