<svg xmlns="http://www.w3.org/2000/svg" width="512" height="512"><path style="isolation:auto;mix-blend-mode:normal" color="#000" overflow="visible" fill="#cfd8dc" d="M136 96h240v400H136z"/><path style="isolation:auto;mix-blend-mode:normal" color="#000" overflow="visible" fill="#212121" d="M192 16h116v104H192z"/><path style="isolation:auto;mix-blend-mode:normal" d="M360 72l104 53 24 355h-80l-24-264.143-24-22.714zM152 64L48 118 24 480h80l24-272 24-24z" color="#000" overflow="visible" fill="#cfd8dc"/><path d="M113.616 61.255l58.226 99.777L292 188.133 192 16z" style="isolation:auto;mix-blend-mode:normal" color="#000" overflow="visible" fill="#607d8b"/><path style="isolation:auto;mix-blend-mode:normal" d="M360 72l104 53 24 355h-16l-24-347.429-104-53z" color="#000" overflow="visible" fill="#b0bec5"/><path style="isolation:auto;mix-blend-mode:normal" d="M386.384 61.255l-75.196 129.171-123.639 33.13L308 16z" color="#000" overflow="visible" fill="#607d8b"/><circle style="isolation:auto;mix-blend-mode:normal" cx="224" cy="304" r="16" color="#000" overflow="visible" fill="#b71c1c"/><circle r="16" cy="352" cx="224" style="isolation:auto;mix-blend-mode:normal" color="#000" overflow="visible" fill="#b71c1c"/><circle style="isolation:auto;mix-blend-mode:normal" cx="224" cy="400" r="16" color="#000" overflow="visible" fill="#b71c1c"/><circle r="16" cy="448" cx="224" style="isolation:auto;mix-blend-mode:normal" color="#000" overflow="visible" fill="#b71c1c"/><path style="isolation:auto;mix-blend-mode:normal" d="M360 192l16 16v288h-16zM112 199.6l16-15.6 8 8v8l-8 7.4L104 480H88z" color="#000" overflow="visible" fill="#b0bec5"/><path style="isolation:auto;mix-blend-mode:normal" d="M440 368h56v64h-48z" color="#000" overflow="visible" fill="#607d8b"/><path style="isolation:auto;mix-blend-mode:normal" color="#000" overflow="visible" fill="#263238" d="M480 368h16v64h-16zM72 368H16v64h48z"/><path style="isolation:auto;mix-blend-mode:normal" d="M56 368H16v64h32z" color="#000" overflow="visible" fill="#607d8b"/><path d="M188 496V220L308 20H192l60 92" fill="none" stroke="#263238" stroke-width="8" stroke-linejoin="round"/></svg>