<svg xmlns="http://www.w3.org/2000/svg" width="512" height="512"><circle cx="256" cy="256" r="224" fill="#ffb300" color="#000" overflow="visible" style="isolation:auto;mix-blend-mode:normal"/><ellipse cx="272" cy="256" fill="#ffd54f" color="#000" overflow="visible" rx="208" ry="224" style="isolation:auto;mix-blend-mode:normal"/><path fill="#ffca28" d="M418.986 97.707 125.014 414.293A208 224 0 0 0 272 480a208 224 0 0 0 208-224 208 224 0 0 0-61.014-158.293" color="#000" overflow="visible" style="isolation:auto;mix-blend-mode:normal"/><g color="#000" transform="translate(4)"><ellipse cx="272" cy="256" fill="#ffb300" overflow="visible" rx="178.286" ry="192" style="isolation:auto;mix-blend-mode:normal"/><path fill="#ffa000" d="M397.988 120.32 146.012 391.68A178.286 192 0 0 0 272 448a178.286 192 0 0 0 178.286-192 178.286 192 0 0 0-52.298-135.68" overflow="visible" style="isolation:auto;mix-blend-mode:normal"/></g><g color="#000" transform="translate(8)"><ellipse cx="272" cy="256" fill="#ffecb3" overflow="visible" rx="148.571" ry="160" style="isolation:auto;mix-blend-mode:normal"/><path fill="#ffe082" d="M376.99 142.934 167.01 369.066A148.571 160 0 0 0 272 416a148.571 160 0 0 0 148.571-160 148.571 160 0 0 0-43.58-113.066z" overflow="visible" style="isolation:auto;mix-blend-mode:normal"/></g><g color="#000" transform="translate(4)"><ellipse cx="272" cy="256" fill="#ffd54f" overflow="visible" rx="133.714" ry="144" style="isolation:auto;mix-blend-mode:normal"/><path fill="#ffca28" d="M366.491 154.24 177.51 357.76A133.714 144 0 0 0 272 400a133.714 144 0 0 0 133.714-144 133.714 144 0 0 0-39.223-101.76" overflow="visible" style="isolation:auto;mix-blend-mode:normal"/></g><path fill="#ffa000" d="M273.008 241.639h36.216v30.646h-32.033q-.598 10.899-3.705 19.618-2.51 6.668-8.367 13.849 6.693-1.667 11.474-1.667 6.096 0 15.898 2.564 13.386 3.334 21.395 3.334 6.574 0 11.355-1.154 4.9-1.282 12.79-5.129l16.255 38.211q-11.833 6.412-20.798 8.848t-19.244 2.436q-11.235 0-25.698-4.231-19.005-5.642-23.547-6.54t-9.8-.897q-15.42 0-34.066 11.668l-15.419-36.416q25.1-19.362 25.1-38.724 0-1.026-.238-5.77h-24.862v-30.646h17.81q-4.542-16.926-5.14-19.619-.717-4.103-.717-10.13 0-16.028 7.889-28.722 8.008-12.823 20.917-18.593 13.028-5.77 35.021-5.77 20.559 0 32.511 5 12.072 4.873 20.32 16.413 8.367 11.413 11.474 27.697l-45.659 7.694q-3.466-13.72-8.008-18.208-4.423-4.488-10.16-4.488-6.932 0-11.235 4.872-4.303 4.873-4.303 13.849 0 4.744.836 9.232.837 4.36 5.738 20.773" font-family="Arial Black" font-size="263.113" font-weight="400" letter-spacing="0" word-spacing="0"/></svg>