<svg xmlns="http://www.w3.org/2000/svg" width="512" height="512"><circle cy="256" cx="256" style="isolation:auto;mix-blend-mode:normal" r="224" color="#000" overflow="visible" fill="#ffb300"/><ellipse style="isolation:auto;mix-blend-mode:normal" cx="272" cy="256" rx="208" ry="224" color="#000" overflow="visible" fill="#ffd54f"/><path style="isolation:auto;mix-blend-mode:normal" d="M418.986 97.707L125.014 414.293A208 224 0 0 0 272 480a208 224 0 0 0 208-224 208 224 0 0 0-61.014-158.293z" color="#000" overflow="visible" fill="#ffca28"/><g transform="translate(4)" color="#000"><ellipse ry="192" rx="178.286" style="isolation:auto;mix-blend-mode:normal" cx="272" cy="256" overflow="visible" fill="#ffb300"/><path d="M397.988 120.32L146.012 391.68A178.286 192 0 0 0 272 448a178.286 192 0 0 0 178.286-192 178.286 192 0 0 0-52.298-135.68z" style="isolation:auto;mix-blend-mode:normal" overflow="visible" fill="#ffa000"/></g><g transform="translate(8)" color="#000"><ellipse ry="160" rx="148.571" cy="256" cx="272" style="isolation:auto;mix-blend-mode:normal" overflow="visible" fill="#ffecb3"/><path d="M376.99 142.934L167.01 369.066A148.571 160 0 0 0 272 416a148.571 160 0 0 0 148.571-160 148.571 160 0 0 0-43.58-113.066z" style="isolation:auto;mix-blend-mode:normal" overflow="visible" fill="#ffe082"/></g><g transform="translate(4)" color="#000"><ellipse ry="144" rx="133.714" cy="256" cx="272" style="isolation:auto;mix-blend-mode:normal" overflow="visible" fill="#ffd54f"/><path d="M366.491 154.24L177.51 357.76A133.714 144 0 0 0 272 400a133.714 144 0 0 0 133.714-144 133.714 144 0 0 0-39.223-101.76z" style="isolation:auto;mix-blend-mode:normal" overflow="visible" fill="#ffca28"/></g><path d="M273.008 241.639h36.216v30.646h-32.033q-.598 10.899-3.705 19.618-2.51 6.668-8.367 13.849 6.693-1.667 11.474-1.667 6.096 0 15.898 2.564 13.386 3.334 21.395 3.334 6.574 0 11.355-1.154 4.9-1.282 12.79-5.129l16.255 38.211q-11.833 6.412-20.798 8.848-8.964 2.436-19.244 2.436-11.235 0-25.698-4.231-19.005-5.642-23.547-6.54-4.542-.897-9.8-.897-15.42 0-34.066 11.668l-15.419-36.416q25.1-19.362 25.1-38.724 0-1.026-.238-5.77h-24.862v-30.646h17.81q-4.542-16.926-5.14-19.619-.717-4.103-.717-10.13 0-16.028 7.889-28.722 8.008-12.823 20.917-18.593 13.028-5.77 35.021-5.77 20.559 0 32.511 5 12.072 4.873 20.32 16.413 8.367 11.413 11.474 27.697l-45.659 7.694q-3.466-13.72-8.008-18.208-4.423-4.488-10.16-4.488-6.932 0-11.235 4.872-4.303 4.873-4.303 13.849 0 4.744.836 9.232.837 4.36 5.738 20.773z" font-weight="400" font-size="263.113" font-family="Arial Black" letter-spacing="0" word-spacing="0" fill="#ffa000"/></svg>