<svg xmlns="http://www.w3.org/2000/svg" width="512" height="512"><path fill="#f44336" d="M108 304h24v120h-24z" color="#000" overflow="visible" style="isolation:auto;mix-blend-mode:normal"/><path fill="#d32f2f" d="M120 304h12v120h-12z" color="#000" overflow="visible" style="isolation:auto;mix-blend-mode:normal"/><path fill="#f44336" d="M176 308h24v120h-24zm68-4h24v120h-24z" color="#000" overflow="visible" style="isolation:auto;mix-blend-mode:normal"/><path fill="#d32f2f" d="M256 304h12v120h-12z" color="#000" overflow="visible" style="isolation:auto;mix-blend-mode:normal"/><path fill="#f44336" d="M312 308h24v120h-24z" color="#000" overflow="visible" style="isolation:auto;mix-blend-mode:normal"/><path fill="#d32f2f" d="M324 308h12v120h-12z" color="#000" overflow="visible" style="isolation:auto;mix-blend-mode:normal"/><path fill="#f44336" d="M380 308h24v120h-24z" color="#000" overflow="visible" style="isolation:auto;mix-blend-mode:normal"/><path fill="#d32f2f" d="M392 308h12v120h-12zm-204 0h12v120h-12z" color="#000" overflow="visible" style="isolation:auto;mix-blend-mode:normal"/><rect width="416" height="22.99" x="48" y="289.01" fill="#01579b" color="#000" overflow="visible" rx="19.658" ry="19.658" style="isolation:auto;mix-blend-mode:normal"/><rect width="416" height="26.266" x="48" y="424" fill="#263238" color="#000" overflow="visible" rx="19.658" ry="19.658" style="isolation:auto;mix-blend-mode:normal"/><rect width="32" height="248" x="448" y="240" fill="#2196f3" color="#000" overflow="visible" rx="16" ry="16" style="isolation:auto;mix-blend-mode:normal"/><rect width="32" height="256.209" x="32" y="239.791" fill="#2196f3" color="#000" overflow="visible" rx="16" ry="16" style="isolation:auto;mix-blend-mode:normal"/><path fill="none" stroke="#607d8b" stroke-linecap="round" stroke-width="4" d="M204 93.343v95.342"/><ellipse cx="204" cy="204" fill="#e91e63" color="#000" overflow="visible" rx="10.286" ry="36" style="isolation:auto;mix-blend-mode:normal"/><ellipse cy="288.5" fill="#e91e63" color="#000" overflow="visible" rx="10.286" ry="36" style="isolation:auto;mix-blend-mode:normal" transform="rotate(-45)"/><ellipse cx="-204" cy="204" fill="#e91e63" color="#000" overflow="visible" rx="10.286" ry="36" style="isolation:auto;mix-blend-mode:normal" transform="rotate(-90)"/><ellipse cx="-288.5" fill="#e91e63" color="#000" overflow="visible" rx="10.286" ry="36" style="isolation:auto;mix-blend-mode:normal" transform="rotate(-135)"/><path fill="none" stroke="#607d8b" stroke-linecap="round" stroke-width="4" d="M148.303 120.874v41.918"/><ellipse cx="148.914" cy="168" fill="#ffc107" color="#000" overflow="visible" rx="6.857" ry="24" style="isolation:auto;mix-blend-mode:normal"/><ellipse cx="-13.495" cy="224.092" fill="#ffc107" color="#000" overflow="visible" rx="6.857" ry="24" style="isolation:auto;mix-blend-mode:normal" transform="rotate(-45)"/><ellipse cx="-168" cy="148.914" fill="#ffc107" color="#000" overflow="visible" rx="6.857" ry="24" style="isolation:auto;mix-blend-mode:normal" transform="rotate(-90)"/><ellipse cx="-224.092" cy="-13.495" fill="#ffc107" color="#000" overflow="visible" rx="6.857" ry="24" style="isolation:auto;mix-blend-mode:normal" transform="rotate(-135)"/><path fill="#ffa000" d="m165.346 150.654-33.764 33.764a6.857 24 45 0 0 .361.553 6.857 24 45 0 0 11.334-3.352A6.857 24 0 0 0 148.914 192a6.857 24 0 0 0 5.647-10.383 24 6.857 45 0 0 11.324 3.354 24 6.857 45 0 0-3.35-11.334 24 6.857 0 0 0 10.38-5.637 24 6.857 0 0 0-10.384-5.646 6.857 24 45 0 0 3.354-11.325 6.857 24 45 0 0-.54-.375z" color="#000" overflow="visible" style="isolation:auto;mix-blend-mode:normal"/><circle cx="148.914" cy="168" r="8" fill="#795548" color="#000" overflow="visible" style="isolation:auto;mix-blend-mode:normal"/><path fill="#6d4c41" d="m154.094 161.906-11.268 11.268a8 8 0 0 0 6.088 2.826 8 8 0 0 0 8-8 8 8 0 0 0-2.82-6.094" color="#000" overflow="visible" style="isolation:auto;mix-blend-mode:normal"/><path fill="none" stroke="#8bc34a" stroke-linecap="round" stroke-linejoin="round" stroke-width="16" d="M48 191.886A143.885 143.885 0 0 1 191.887 48.001" color="#000" overflow="visible" style="isolation:auto;mix-blend-mode:normal"/><path fill="#1976d2" d="M464 240v248c8.864 0 16-7.136 16-16V256c0-8.864-7.136-16-16-16" color="#000" overflow="visible" style="isolation:auto;mix-blend-mode:normal"/><path fill="none" stroke="#263238" stroke-linecap="round" stroke-linejoin="round" stroke-width="12" d="M204 42.236v45.443"/><circle cx="-178.191" cy="110.309" r="24" fill="#ffd54f" color="#000" overflow="visible" style="isolation:auto;mix-blend-mode:normal" transform="rotate(-135)"/><path fill="#ffc107" d="M220.97 31.03a24 24 0 0 1 6.212 23.182 24 24 0 0 1-16.97 16.97 24 24 0 0 1-23.183-6.211L204 48z" color="#000" overflow="visible" style="isolation:auto;mix-blend-mode:normal"/><path fill="#c2185b" d="m229.455 178.545-50.91 50.91a10.286 36 45 0 0 17-5.025A10.286 36 0 0 0 204 240a10.286 36 0 0 0 8.467-15.576 36 10.286 45 0 0 16.988 5.031 36 10.286 45 0 0-5.025-17A36 10.286 0 0 0 240 204a36 10.286 0 0 0-15.576-8.467 10.286 36 45 0 0 5.031-16.988" color="#000" overflow="visible" style="isolation:auto;mix-blend-mode:normal"/><circle cx="204" cy="204" r="12" fill="#ffd54f" color="#000" overflow="visible" style="isolation:auto;mix-blend-mode:normal"/><g transform="translate(111.697 -.792)"><path fill="none" stroke="#607d8b" stroke-linecap="round" stroke-width="4" d="M148.303 120.874v41.918"/><ellipse cx="148.914" cy="168" fill="#ffc107" color="#000" overflow="visible" rx="6.857" ry="24" style="isolation:auto;mix-blend-mode:normal"/><ellipse cx="-13.495" cy="224.092" fill="#ffc107" color="#000" overflow="visible" rx="6.857" ry="24" style="isolation:auto;mix-blend-mode:normal" transform="rotate(-45)"/><ellipse cx="-168" cy="148.914" fill="#ffc107" color="#000" overflow="visible" rx="6.857" ry="24" style="isolation:auto;mix-blend-mode:normal" transform="rotate(-90)"/><ellipse cx="-224.092" cy="-13.495" fill="#ffc107" color="#000" overflow="visible" rx="6.857" ry="24" style="isolation:auto;mix-blend-mode:normal" transform="rotate(-135)"/><path fill="#ffa000" d="m165.346 150.654-33.764 33.764a6.857 24 45 0 0 .361.553 6.857 24 45 0 0 11.334-3.352A6.857 24 0 0 0 148.914 192a6.857 24 0 0 0 5.647-10.383 24 6.857 45 0 0 11.324 3.354 24 6.857 45 0 0-3.35-11.334 24 6.857 0 0 0 10.38-5.637 24 6.857 0 0 0-10.384-5.646 6.857 24 45 0 0 3.354-11.325 6.857 24 45 0 0-.54-.375z" color="#000" overflow="visible" style="isolation:auto;mix-blend-mode:normal"/><circle cx="148.914" cy="168" r="8" fill="#795548" color="#000" overflow="visible" style="isolation:auto;mix-blend-mode:normal"/><path fill="#6d4c41" d="m154.094 161.906-11.268 11.268a8 8 0 0 0 6.088 2.826 8 8 0 0 0 8-8 8 8 0 0 0-2.82-6.094" color="#000" overflow="visible" style="isolation:auto;mix-blend-mode:normal"/></g><path fill="none" stroke="#263238" stroke-linecap="round" stroke-linejoin="round" stroke-width="12" d="M148 116s20-24 56-24 56 24 56 24"/><path fill="#1976d2" d="M48 239.791V496c8.864 0 16-7.372 16-16.53V256.32c0-9.157-7.136-16.529-16-16.529" color="#000" overflow="visible" style="isolation:auto;mix-blend-mode:normal"/><circle cx="-192.333" cy="-124.451" r="32" fill="#ffd54f" color="#000" overflow="visible" style="isolation:auto;mix-blend-mode:normal" transform="rotate(-135)"/><path fill="#ffc107" d="M70.627 201.373a32 32 0 0 1 8.283 30.91 32 32 0 0 1-22.628 22.627 32 32 0 0 1-30.91-8.283L48 224z" color="#000" overflow="visible" style="isolation:auto;mix-blend-mode:normal"/><circle cx="-486.489" cy="169.706" r="32" fill="#ffd54f" color="#000" overflow="visible" style="isolation:auto;mix-blend-mode:normal" transform="rotate(-135)"/><path fill="#ffc107" d="M486.627 201.373a32 32 0 0 1 8.283 30.91 32 32 0 0 1-22.628 22.627 32 32 0 0 1-30.91-8.283L464 224zM212.48 195.52l-16.96 16.96A12 12 0 0 0 204 216a12 12 0 0 0 12-12 12 12 0 0 0-3.52-8.48" color="#000" overflow="visible" style="isolation:auto;mix-blend-mode:normal"/></svg>