<svg xmlns="http://www.w3.org/2000/svg" width="512" height="512"><g color="#000" transform="translate(0 -540.362)"><path fill="#90a4ae" d="M140.738 556.362a105.7 105.7 0 0 0 3.018 18.06c10.86 41.428 45.246 90.341 84.244 91.806v48.193c-45.41 10.219-91.512-20.872-104.57-70.523-8.118-31.082-1.62-63.947 17.308-87.536" overflow="visible" style="isolation:auto;mix-blend-mode:normal"/><path fill="#b0bec5" d="M140.772 556.623c.256 3.165.656 6.32 1.198 9.454a106 106 0 0 0 1.786 8.343C154.616 615.849 189 645.43 228 646.897v36.379c-40.172.168-76.32-29.744-87.552-72.448-4.685-17.926-4.572-36.754.324-54.205" overflow="visible" style="isolation:auto;mix-blend-mode:normal"/><path fill="#455a64" d="M111.828 764.35c11.427.831 65.042-38.199 64.161-48.996-.88-10.797-61.538-58.146-72.966-58.978s-87.896 36.534-87.015 47.33c.88 10.798 84.393 59.811 95.82 60.643z" overflow="visible" style="isolation:auto;mix-blend-mode:normal"/><path fill="#263238" d="M110.067 742.754c11.427.832 43.948-18.266 43.068-29.064-.88-10.797-36.924-34.888-48.35-35.72-11.428-.831-55.376 17.435-54.496 28.233.88 10.797 48.35 35.72 59.778 36.551" overflow="visible" style="isolation:auto;mix-blend-mode:normal"/><path fill="#37474f" d="M400.172 764.35c-11.427.831-65.042-38.199-64.161-48.996.88-10.797 61.538-58.146 72.966-58.978s87.896 36.534 87.015 47.33c-.88 10.798-84.393 59.811-95.82 60.643z" overflow="visible" style="isolation:auto;mix-blend-mode:normal"/><path fill="#263238" d="M401.933 742.754c-11.427.832-43.948-18.266-43.068-29.064.88-10.797 36.924-34.888 48.35-35.72 11.428-.831 55.376 17.435 54.496 28.233-.88 10.797-48.35 35.72-59.778 36.551" overflow="visible" style="isolation:auto;mix-blend-mode:normal"/><path fill="#90a4ae" d="M371.262 556.362a105.7 105.7 0 0 1-3.018 18.06c-10.86 41.428-45.246 90.341-84.244 91.806v48.193c45.41 10.219 91.512-20.872 104.57-70.523 8.118-31.082 1.62-63.947-17.308-87.536" overflow="visible" style="isolation:auto;mix-blend-mode:normal"/><path fill="#b0bec5" d="M371.228 556.623c-.256 3.165-.656 6.32-1.198 9.454a106 106 0 0 1-1.786 8.343C357.384 615.849 323 645.43 284 646.897v36.379c40.172.168 76.32-29.744 87.552-72.448 4.685-17.926 4.572-36.754-.324-54.205" overflow="visible" style="isolation:auto;mix-blend-mode:normal"/><path fill="#455a64" d="M392 756.362c0 37.174-34.408 82.147-42.947 114.24-15.384 57.818-45.323 117.76-93.053 117.76-47.67 0-78.279-49.612-93.053-117.76-7.043-32.49-42.947-76.97-42.947-114.24 0-95.407 64.842-136 136-136s136 26.963 136 136" overflow="visible" style="isolation:auto;mix-blend-mode:normal"/><circle cx="176" cy="724.362" r="24" fill="#263238" overflow="visible" style="isolation:auto;mix-blend-mode:normal"/><path fill="#37474f" d="M256 620.362v368c47.73 0 77.67-59.942 93.053-117.76C357.592 838.51 392 793.536 392 756.362c0-109.037-64.842-136-136-136" overflow="visible" style="isolation:auto;mix-blend-mode:normal"/><circle cx="336" cy="724.362" r="24" fill="#263238" overflow="visible" style="isolation:auto;mix-blend-mode:normal"/><path fill="#eceff1" d="M208 636.362c16-16 80-16 96 0s-24.862 93.288-24 136 24 108 40 124-144 16-128 0 40-84 40-124-40-120-24-136" overflow="visible" style="isolation:auto;mix-blend-mode:normal"/><ellipse cx="256" cy="972.362" fill="#f8bbd0" overflow="visible" rx="88" ry="64" style="isolation:auto;mix-blend-mode:normal"/><path fill="#f48fb1" d="M256 908.362v128a88 64 0 0 0 88-64 88 64 0 0 0-88-64" overflow="visible" style="isolation:auto;mix-blend-mode:normal"/><ellipse cx="256" cy="964.362" fill="#f06292" overflow="visible" rx="80" ry="56" style="isolation:auto;mix-blend-mode:normal"/><ellipse cx="256" cy="940.362" fill="#f8bbd0" overflow="visible" rx="112" ry="64" style="isolation:auto;mix-blend-mode:normal"/><ellipse cx="208" cy="932.362" fill="#f8bbd0" overflow="visible" rx="40" ry="32" style="isolation:auto;mix-blend-mode:normal"/><ellipse cx="208" cy="932.362" fill="#f06292" overflow="visible" rx="20" ry="21.333" style="isolation:auto;mix-blend-mode:normal"/><path fill="#cfd8dc" d="M256 624.362v284c36 0 72-4 64-12-16-16-39.138-81.288-40-124s40-120 24-136c-8-8-28-12-48-12" overflow="visible" style="isolation:auto;mix-blend-mode:normal"/><path fill="#f06292" d="M256 908.362v112a80 56 0 0 0 80-56 80 56 0 0 0-80-56" overflow="visible" style="isolation:auto;mix-blend-mode:normal"/><path fill="#f48fb1" d="M256 876.362v128a112 64 0 0 0 112-64 112 64 0 0 0-112-64" overflow="visible" style="isolation:auto;mix-blend-mode:normal"/><ellipse cx="304" cy="932.362" fill="#f48fb1" overflow="visible" rx="40" ry="32" style="isolation:auto;mix-blend-mode:normal"/><ellipse cx="304" cy="932.362" fill="#f06292" overflow="visible" rx="20" ry="21.333" style="isolation:auto;mix-blend-mode:normal"/></g></svg>