<svg xmlns="http://www.w3.org/2000/svg" xmlns:xlink="http://www.w3.org/1999/xlink" width="512" height="512" viewBox="0 0 512.00001 512.00001"><defs><lineargradient y2="368" x2="312" y1="344" x1="312" gradienttransform="matrix(1.9285714,0,0,1.9285714,2978.2577,727.52696)" gradientunits="userSpaceOnUse" id="b" xlink:href="#a"/></defs><g transform="translate(0 -540.362)"><g color="#000"><path d="M140.738 556.362a105.724 105.724 0 0 0 3.018 18.06c10.86 41.428 45.246 90.341 84.244 91.806v48.193c-45.41 10.219-91.512-20.872-104.57-70.523-8.118-31.082-1.62-63.947 17.308-87.536z" style="isolation:auto;mix-blend-mode:normal" overflow="visible" fill="#90a4ae"/><path d="M140.772 556.623c.256 3.165.656 6.32 1.198 9.454a105.801 105.801 0 0 0 1.786 8.343C154.616 615.849 189 645.43 228 646.897v36.379c-40.172.168-76.32-29.744-87.552-72.448-4.685-17.926-4.572-36.754.324-54.205z" style="isolation:auto;mix-blend-mode:normal" overflow="visible" fill="#b0bec5"/></g><path d="M111.828 764.35c11.427.831 65.042-38.199 64.161-48.996-.88-10.797-61.538-58.146-72.966-58.978-11.427-.832-87.896 36.534-87.015 47.33.88 10.798 84.393 59.811 95.82 60.643z" style="isolation:auto;mix-blend-mode:normal" color="#000" overflow="visible" fill="#455a64"/><path d="M110.067 742.754c11.427.832 43.948-18.266 43.068-29.064-.88-10.797-36.924-34.888-48.35-35.72-11.428-.831-55.376 17.435-54.496 28.233.88 10.797 48.35 35.72 59.778 36.551z" style="isolation:auto;mix-blend-mode:normal" color="#000" overflow="visible" fill="#263238"/><path d="M400.172 764.35c-11.427.831-65.042-38.199-64.161-48.996.88-10.797 61.538-58.146 72.966-58.978 11.427-.832 87.896 36.534 87.015 47.33-.88 10.798-84.393 59.811-95.82 60.643z" style="isolation:auto;mix-blend-mode:normal" color="#000" overflow="visible" fill="#37474f"/><path d="M401.933 742.754c-11.427.832-43.948-18.266-43.068-29.064.88-10.797 36.924-34.888 48.35-35.72 11.428-.831 55.376 17.435 54.496 28.233-.88 10.797-48.35 35.72-59.778 36.551z" style="isolation:auto;mix-blend-mode:normal" color="#000" overflow="visible" fill="#263238"/><g color="#000"><path style="isolation:auto;mix-blend-mode:normal" d="M371.262 556.362a105.724 105.724 0 0 1-3.018 18.06c-10.86 41.428-45.246 90.341-84.244 91.806v48.193c45.41 10.219 91.512-20.872 104.57-70.523 8.118-31.082 1.62-63.947-17.308-87.536z" overflow="visible" fill="#90a4ae"/><path style="isolation:auto;mix-blend-mode:normal" d="M371.228 556.623c-.256 3.165-.656 6.32-1.198 9.454a105.801 105.801 0 0 1-1.786 8.343C357.384 615.849 323 645.43 284 646.897v36.379c40.172.168 76.32-29.744 87.552-72.448 4.685-17.926 4.572-36.754-.324-54.205z" overflow="visible" fill="#b0bec5"/></g><path style="isolation:auto;mix-blend-mode:normal" d="M392 756.362c0 37.174-34.408 82.147-42.947 114.24-15.384 57.818-45.323 117.76-93.053 117.76-47.67 0-78.279-49.612-93.053-117.76-7.043-32.49-42.947-76.97-42.947-114.24 0-95.407 64.842-136 136-136s136 26.963 136 136z" color="#000" overflow="visible" fill="#455a64"/><circle style="isolation:auto;mix-blend-mode:normal" cx="176" cy="724.362" r="24" color="#000" overflow="visible" fill="#263238"/><path style="isolation:auto;mix-blend-mode:normal" d="M256 620.362v368c47.73 0 77.67-59.942 93.053-117.76C357.592 838.51 392 793.536 392 756.362c0-109.037-64.842-136-136-136z" color="#000" overflow="visible" fill="#37474f"/><circle r="24" cy="724.362" cx="336" style="isolation:auto;mix-blend-mode:normal" color="#000" overflow="visible" fill="#263238"/><path style="isolation:auto;mix-blend-mode:normal" d="M208 636.362c16-16 80-16 96 0s-24.862 93.288-24 136c.862 42.712 24 108 40 124s-144 16-128 0 40-84 40-124-40-120-24-136z" color="#000" overflow="visible" fill="#eceff1"/><ellipse cy="972.362" cx="256" style="isolation:auto;mix-blend-mode:normal" rx="88" ry="64" color="#000" overflow="visible" fill="#f8bbd0"/><path style="isolation:auto;mix-blend-mode:normal" d="M256 908.362v128a88 64 0 0 0 88-64 88 64 0 0 0-88-64z" color="#000" overflow="visible" fill="#f48fb1"/><ellipse style="isolation:auto;mix-blend-mode:normal" cx="256" cy="964.362" rx="80" ry="56" color="#000" overflow="visible" fill="#f06292"/><ellipse style="isolation:auto;mix-blend-mode:normal" cx="256" cy="940.362" rx="112" ry="64" color="#000" overflow="visible" fill="#f8bbd0"/><ellipse ry="32" rx="40" cy="932.362" cx="208" style="isolation:auto;mix-blend-mode:normal" color="#000" overflow="visible" fill="#f8bbd0"/><ellipse ry="21.333" rx="20" style="isolation:auto;mix-blend-mode:normal" cx="208" cy="932.362" color="#000" overflow="visible" fill="#f06292"/><path style="isolation:auto;mix-blend-mode:normal" d="M256 624.362v284c36 0 72-4 64-12-16-16-39.138-81.288-40-124-.862-42.712 40-120 24-136-8-8-28-12-48-12z" color="#000" overflow="visible" fill="#cfd8dc"/><path style="isolation:auto;mix-blend-mode:normal" d="M256 908.362v112a80 56 0 0 0 80-56 80 56 0 0 0-80-56z" color="#000" overflow="visible" fill="#f06292"/><path style="isolation:auto;mix-blend-mode:normal" d="M256 876.362v128a112 64 0 0 0 112-64 112 64 0 0 0-112-64z" color="#000" overflow="visible" fill="#f48fb1"/><ellipse style="isolation:auto;mix-blend-mode:normal" cx="304" cy="932.362" rx="40" ry="32" color="#000" overflow="visible" fill="#f48fb1"/><ellipse cy="932.362" cx="304" style="isolation:auto;mix-blend-mode:normal" rx="20" ry="21.333" color="#000" overflow="visible" fill="#f06292"/></g></svg>