<svg xmlns="http://www.w3.org/2000/svg" width="512" height="512"><rect width="115.787" height="540.34" x="-57.894" y="91.869" ry="19.298" style="fill:#f44336;stroke-width:1.47718" transform="rotate(-45)"/><path d="M447.039 447.039 64.961 64.961 37.67 92.252a19.256 19.256 0 0 0 0 27.292L392.456 474.33a19.256 19.256 0 0 0 27.292 0z" style="fill:#b71c1c;stroke-width:1.47718"/><path d="M267.039 267.039 64.961 64.961 37.67 92.252a19.256 19.256 0 0 0 0 27.292L212.456 294.33a19.256 19.256 0 0 0 27.292 0z" style="fill:#d32f2f;stroke-width:1.47718"/><rect width="115.787" height="540.34" x="304.145" y="-270.17" ry="19.298" style="fill:#f44336;stroke-width:1.47718" transform="rotate(45)"/><path d="M447.039 64.961 64.961 447.039l27.291 27.291a19.256 19.256 0 0 0 27.292 0L474.33 119.544a19.256 19.256 0 0 0 0-27.292z" style="fill:#d32f2f;stroke-width:1.47718"/></svg>