<svg xmlns="http://www.w3.org/2000/svg" width="512" height="512"><path style="isolation:auto;mix-blend-mode:normal" color="#000" overflow="visible" fill="#ffc107" d="M96 352h320v80H96z"/><rect style="isolation:auto;mix-blend-mode:normal" width="352" height="32" x="80" y="416" ry="16" rx="16" color="#000" overflow="visible" fill="#ffeb3b"/><ellipse style="isolation:auto;mix-blend-mode:normal" cx="256" cy="264" rx="176" ry="72" color="#000" overflow="visible" fill="#f44336"/><path style="isolation:auto;mix-blend-mode:normal" d="M256 64a32 32 0 0 0-32 32 32 32 0 0 0 18.771 29.104L176 272 70.613 166.613A32 32 0 0 0 80 144a32 32 0 0 0-32-32 32 32 0 0 0-32 32 32 32 0 0 0 32 32 32 32 0 0 0 7.754-.984l36.369 145.472A15.95 15.95 0 0 0 80 336c0 8.864 7.136 16 16 16h320c8.864 0 16-7.136 16-16a15.95 15.95 0 0 0-12.123-15.512l36.371-145.482A32 32 0 0 0 464 176a32 32 0 0 0 32-32 32 32 0 0 0-32-32 32 32 0 0 0-32 32 32 32 0 0 0 9.387 22.613L336 272l-66.773-146.902A32 32 0 0 0 288 96a32 32 0 0 0-32-32z" color="#000" overflow="visible" fill="#ffeb3b"/><circle style="isolation:auto;mix-blend-mode:normal" cx="128" cy="384" r="16" color="#000" overflow="visible" fill="#ffeb3b"/><circle r="16" cy="384" cx="192" style="isolation:auto;mix-blend-mode:normal" color="#000" overflow="visible" fill="#ffeb3b"/><path style="isolation:auto;mix-blend-mode:normal" color="#000" overflow="visible" fill="#ffa000" d="M256 352h160v80H256z"/><circle style="isolation:auto;mix-blend-mode:normal" cx="256" cy="384" r="16" color="#000" overflow="visible" fill="#ffeb3b"/><circle r="16" cy="384" cx="320" style="isolation:auto;mix-blend-mode:normal" color="#000" overflow="visible" fill="#fbc02d"/><circle style="isolation:auto;mix-blend-mode:normal" cx="384" cy="384" r="16" color="#000" overflow="visible" fill="#fbc02d"/><path style="isolation:auto;mix-blend-mode:normal" d="M256 192v144a176 72 0 0 0 176-72 176 72 0 0 0-176-72z" color="#000" overflow="visible" fill="#d32f2f"/><path style="isolation:auto;mix-blend-mode:normal" d="M256 64v288h160c8.864 0 16-7.136 16-16a15.95 15.95 0 0 0-12.123-15.512l36.371-145.482A32 32 0 0 0 464 176a32 32 0 0 0 32-32 32 32 0 0 0-32-32 32 32 0 0 0-32 32 32 32 0 0 0 9.387 22.613L336 272l-66.773-146.902A32 32 0 0 0 288 96a32 32 0 0 0-32-32zM256 416v32h160c8.864 0 16-7.136 16-16s-7.136-16-16-16H256z" color="#000" overflow="visible" fill="#fdd835"/><path style="isolation:auto;mix-blend-mode:normal" d="M256 368a16 16 0 0 1 13.856 8 16 16 0 0 1 0 16A16 16 0 0 1 256 400v-16z" color="#000" overflow="visible" fill="#fbc02d"/><path d="M256 240l-32 48 32 48 32-48z" fill="#ba68c8" fill-rule="evenodd"/><path d="M256 240v96l32-48-32-48z" fill="#9c27b0" fill-rule="evenodd"/><path d="M128 256l-16 32 16 32 16-32z" fill="#ba68c8" fill-rule="evenodd"/><path d="M384 256l-16 32 16 32 16-32z" fill="#9c27b0" fill-rule="evenodd"/></svg>