<svg xmlns="http://www.w3.org/2000/svg" width="512" height="512"><path fill="#689f38" d="M-154.026 168.695a65.117 87.204 16.286 0 0-86.96 65.442 65.117 87.204 16.286 0 0 38.049 101.967 65.117 87.204 16.286 0 0 86.96-65.444 65.117 87.204 16.286 0 0-38.049-101.965m-15.262 23.71a38.883 60.838 16.286 0 1 20.261 69.301 38.883 60.838 16.286 0 1-54.383 47.492 38.883 60.838 16.286 0 1-20.262-69.3 38.883 60.838 16.286 0 1 54.384-47.493" color="#000" overflow="visible" style="isolation:auto;mix-blend-mode:normal"/><path fill="#8bc34a" d="M-130.341 150.696a59.619 112.721 21.137 0 0-91.447 106.866 59.619 112.721 21.137 0 0 33.561 107.759A59.619 112.721 21.137 0 0-96.78 258.453a59.619 112.721 21.137 0 0-33.561-107.757m-16.654 33.22a35.768 78.271 19.145 0 1 17.131 75.131 35.768 78.271 19.145 0 1-57.514 74.6 35.768 78.271 19.145 0 1-17.13-75.132 35.768 78.271 19.145 0 1 57.513-74.6z" color="#000" overflow="visible" style="isolation:auto;mix-blend-mode:normal"/><path fill="#8bc34a" d="M-168 168a192 263.674 0 0 1-96 228.349 192 263.674 0 0 1-192 0A192 263.674 0 0 1-552 168h192z" color="#000" overflow="visible" style="isolation:auto;mix-blend-mode:normal"/><path fill="#8bc34a" d="M-168 167.674a192 79.674 0 0 1-96 69 192 79.674 0 0 1-192 0 192 79.674 0 0 1-96-69h192z" color="#000" overflow="visible" style="isolation:auto;mix-blend-mode:normal"/><path fill="#7cb342" d="M-356 168v263.582a192 263.674 0 0 0 92-35.232A192 263.674 0 0 0-168 168z" color="#000" overflow="visible" style="isolation:auto;mix-blend-mode:normal"/><path fill="#c5e1a5" d="M-360 88a192 79.674 0 0 0-192 79.674 192 79.674 0 0 0 192 79.674 192 79.674 0 0 0 192-79.674A192 79.674 0 0 0-360 88m0 16a176 63.674 0 0 1 176 63.674 176 63.674 0 0 1-176 63.674 176 63.674 0 0 1-176-63.674A176 63.674 0 0 1-360 104" color="#000" overflow="visible" style="isolation:auto;mix-blend-mode:normal"/><path fill="#689f38" d="M-184 167.674a176 63.674 0 0 1-88 55.144 176 63.674 0 0 1-176 0 176 63.674 0 0 1-88-55.144h176z" color="#000" overflow="visible" style="isolation:auto;mix-blend-mode:normal"/><path fill="#7cb342" d="M-356 104.072v127.225a176 63.674 0 0 0 172-63.623 176 63.674 0 0 0-172-63.602" color="#000" overflow="visible" style="isolation:auto;mix-blend-mode:normal"/><path fill="#795548" d="M-360.066 168.652A176 63.674 0 0 0-512 200.311 176 63.674 0 0 0-360.066 232a176 63.674 0 0 0 151.933-31.658 176 63.674 0 0 0-151.933-31.69" color="#000" overflow="visible" style="isolation:auto;mix-blend-mode:normal"/><path fill="#9ccc65" d="M-360 88a192 79.674 0 0 0-192 79.674 192 79.674 0 0 0 192 79.674 192 79.674 0 0 0 192-79.674A192 79.674 0 0 0-360 88m0 16a176 63.674 0 0 1 176 63.674 176 63.674 0 0 1-176 63.674 176 63.674 0 0 1-176-63.674A176 63.674 0 0 1-360 104" color="#000" overflow="visible" style="isolation:auto;mix-blend-mode:normal"/><path fill="#9ccc65" d="M-360 88a192 79.674 0 0 0-122.764 18.445l19.112 9.864A176 63.674 0 0 1-360 104a176 63.674 0 0 1 176 63.674 176 63.674 0 0 1-77.854 52.789l19.489 10.058A192 79.674 0 0 0-168 167.674 192 79.674 0 0 0-360 88" color="#000" overflow="visible" style="isolation:auto;mix-blend-mode:normal"/><path fill="#7cb342" d="M368 192a112 112 0 0 0-112 112 112 112 0 0 0 112 112 112 112 0 0 0 112-112 112 112 0 0 0-112-112m0 47.999A64 64 0 0 1 432 304a64 64 0 0 1-64 64 64 64 0 0 1-64-64 64 64 0 0 1 64-64.001" color="#000" overflow="visible" style="isolation:auto;mix-blend-mode:normal"/><path fill="#8bc34a" d="M384 159.999c0 109.928-83.078 320-176 320h-48c-64 0-128-210.072-128-320h176z" color="#000" overflow="visible" style="isolation:auto;mix-blend-mode:normal"/><path fill="#7cb342" d="M208 159.999v320h48c64 0 128-210.072 128-320z" color="#000" overflow="visible" style="isolation:auto;mix-blend-mode:normal"/><path fill="#cfd8dc" fill-rule="evenodd" d="M160 16s-33.69 30.926-32 48 26.052 17.64 32 32 0 48 0 48 33.69-30.926 32-48-26.052-17.64-32-32 0-48 0-48"/><path fill="#b0bec5" fill-rule="evenodd" d="M240 16s-33.69 30.926-32 48 26.052 17.64 32 32 0 48 0 48 33.69-30.926 32-48-26.052-17.64-32-32 0-48 0-48"/></svg>