<svg xmlns="http://www.w3.org/2000/svg" width="512" height="512"><ellipse cy="144" cx="256" style="isolation:auto;mix-blend-mode:normal" color="#000" overflow="visible" fill="#795548"/><ellipse cy="144" cx="256" style="isolation:auto;mix-blend-mode:normal" color="#000" overflow="visible" fill="#795548"/><ellipse cy="144" cx="256" style="isolation:auto;mix-blend-mode:normal" color="#000" overflow="visible" fill="#795548"/><g transform="rotate(14.999 -652.685 180.668) scale(.58077)"><path d="M471.067 119.206c12 20.785 10.143 49.57-3.713 57.57l-207.846 120-24-41.57z" fill="#b0bec5"/><path d="M320 32c-24 0-48 16-48 32v240h48z" fill="#cfd8dc"/><path d="M272 304c-.102 36.706.213 68.755 0 104 0 39.764 28.654 72 64 72 35.346 0 64-32.236 64-72 0-30.158-16-56-39.865-66.705C336.27 330.59 320 336 320 304zm64 64c17.673 0 32 17.909 32 40s-14.327 40-32 40c-17.673 0-32-17.909-32-40s14.327-40 32-40zM259.508 296.776c-31.738 18.44-59.65 34.193-90.067 52-34.437 19.882-76.68 11.185-94.354-19.426-17.673-30.61-4.083-71.543 30.354-91.426 26.118-15.079 56.499-14.143 77.701 1.172 21.203 15.315 24.653 32.11 52.366 16.11zm-87.426-23.426c-8.836-15.305-31.51-18.759-50.64-7.713-19.133 11.046-27.478 32.408-18.642 47.713 8.837 15.305 31.51 18.758 50.641 7.713 19.132-11.046 27.478-32.408 18.641-47.713z" fill="#03a9f4"/><circle r="16" cy="248" cx="296" fill="#b0bec5"/></g><g transform="rotate(45 472.735 184.97)" fill="#f44336"><circle r="16" cy="96" cx="368"/><circle cx="368" cy="144" r="16"/><circle cx="368" cy="192" r="16"/><circle r="16" cy="240" cx="368"/><circle cx="368" cy="288" r="16"/><circle r="16" cy="336" cx="368"/><circle r="16" cy="384" cx="368"/><circle cx="368" cy="432" r="16"/></g></svg>