<svg xmlns="http://www.w3.org/2000/svg" width="512" height="512"><g transform="rotate(14.999 -652.685 180.668)scale(.58077)"><path fill="#b0bec5" d="M471.067 119.206c12 20.785 10.143 49.57-3.713 57.57l-207.846 120-24-41.57z"/><path fill="#cfd8dc" d="M320 32c-24 0-48 16-48 32v240h48z"/><path fill="#03a9f4" d="M272 304c-.102 36.706.213 68.755 0 104 0 39.764 28.654 72 64 72s64-32.236 64-72c0-30.158-16-56-39.865-66.705S320 336 320 304zm64 64c17.673 0 32 17.909 32 40s-14.327 40-32 40-32-17.909-32-40 14.327-40 32-40m-76.492-71.224c-31.738 18.44-59.65 34.193-90.067 52-34.437 19.882-76.68 11.185-94.354-19.426s-4.083-71.543 30.354-91.426c26.118-15.079 56.499-14.143 77.701 1.172 21.203 15.315 24.653 32.11 52.366 16.11zm-87.426-23.426c-8.836-15.305-31.51-18.759-50.64-7.713-19.133 11.046-27.478 32.408-18.642 47.713s31.51 18.758 50.641 7.713c19.132-11.046 27.478-32.408 18.641-47.713"/><circle cx="296" cy="248" r="16" fill="#b0bec5"/></g><g fill="#f44336" transform="rotate(45 472.735 184.97)"><circle cx="368" cy="96" r="16"/><circle cx="368" cy="144" r="16"/><circle cx="368" cy="192" r="16"/><circle cx="368" cy="240" r="16"/><circle cx="368" cy="288" r="16"/><circle cx="368" cy="336" r="16"/><circle cx="368" cy="384" r="16"/><circle cx="368" cy="432" r="16"/></g></svg>