<svg xmlns="http://www.w3.org/2000/svg" width="512" height="512"><path fill="#8d6e63" d="M256 96c-77.932.138-142.18 54.685-146.28 165.053C100.708 280.878 96.035 302.316 96 324c0 86.156 71.634 156 160 156s160-69.844 160-156c-.067-21.51-4.696-42.773-13.595-62.455C398.478 150.915 334.107 96.058 256 96" color="#000" overflow="visible" style="isolation:auto;mix-blend-mode:normal"/><path fill="#795548" d="M256 96v384c88.366 0 160-69.844 160-156-.067-21.51-4.696-42.773-13.596-62.455C398.478 150.915 334.107 96.058 256 96" color="#000" overflow="visible" style="isolation:auto;mix-blend-mode:normal"/><path fill="#f5f5f5" d="M256 224c-15.537 74.146-116.364 144-82.205 233.642 24.82 14.572 53.232 22.3 82.205 22.358 28.979-.066 57.395-7.805 82.214-22.39C372.364 368 269.554 298.147 256 224" color="#000" overflow="visible" style="isolation:auto;mix-blend-mode:normal"/><circle cx="328" cy="248" r="24" fill="#263238" color="#000" overflow="visible" style="isolation:auto;mix-blend-mode:normal"/><circle cx="184" cy="248" r="24" fill="#263238" color="#000" overflow="visible" style="isolation:auto;mix-blend-mode:normal"/><path fill="#e0e0e0" d="M256 224v256c28.979-.066 57.395-7.804 82.215-22.389C372.365 368.001 269.553 298.146 256 224" color="#000" overflow="visible" style="isolation:auto;mix-blend-mode:normal"/><ellipse cx="256" cy="460" fill="#f8bbd0" color="#000" overflow="visible" rx="32" ry="36" style="isolation:auto;mix-blend-mode:normal"/><path fill="#f48fb1" d="M256 424v72a32 36 0 0 0 32-36 32 36 0 0 0-32-36" color="#000" overflow="visible" style="isolation:auto;mix-blend-mode:normal"/><path fill="#37474f" d="M256 327.555c-21.142 0-42.284 2.815-48 8.445-9.852 9.703 21.031 50.185 40 61.197v16.785c-6.701 12.109-16.676 15.788-26.387 15.041-10.122-.778-19.204-7.094-22.023-15.552a8 8 0 1 0-15.18 5.058c5.18 15.542 20.099 25.226 35.977 26.448 11.813.908 24.511-3.383 34.097-13.27.491.187.997.293 1.516.293s1.025-.106 1.516-.293c9.586 9.887 22.284 14.178 34.097 13.27 15.878-1.222 30.796-10.906 35.977-26.448a8 8 0 0 0-7.5-10.636 8 8 0 0 0-7.68 5.578c-2.82 8.458-11.901 14.774-22.023 15.552-9.71.747-19.686-2.932-26.387-15.04v-16.786c18.969-11.012 49.852-51.494 40-61.197-5.716-5.63-26.858-8.445-48-8.445" color="#000" overflow="visible" style="isolation:auto;mix-blend-mode:normal"/><path fill="#8d6e63" fill-rule="evenodd" d="M200.022 118.406c-7.91-16.138-36.718-77.308-84.5-69.765-47.783 7.543-84.671 98.837-92.41 145.918S4.254 297.856 49.515 303.997s51.701-122.908 79.208-145.917c27.506-23.01 34.402-1.935 47.572-7.397s31.636-16.138 23.727-32.277"/><path fill="#795548" fill-rule="evenodd" d="M321.903 118.406c7.91-16.138 36.718-77.308 84.5-69.765 47.783 7.543 84.671 98.837 92.41 145.918s18.858 103.297-26.403 109.438-51.701-122.908-79.208-145.917c-27.506-23.01-34.402-1.935-47.572-7.397s-31.636-16.138-23.727-32.277"/><path fill="#263238" d="M256 327.555V432c.519 0 1.025-.106 1.516-.293 9.586 9.887 22.284 14.178 34.097 13.27 15.878-1.222 30.796-10.906 35.977-26.448a8 8 0 0 0-7.5-10.636 8 8 0 0 0-7.68 5.578c-2.82 8.458-11.901 14.774-22.023 15.552-9.71.747-19.686-2.932-26.387-15.04v-16.786c18.969-11.012 49.852-51.494 40-61.197-5.716-5.63-26.858-8.445-48-8.445" color="#000" overflow="visible" style="isolation:auto;mix-blend-mode:normal"/></svg>