<svg xmlns="http://www.w3.org/2000/svg" width="512" height="512"><path fill="#ffa000" d="M280 360s4 48 0 52-4 16 0 20 56 16 56 16c8 0 32-36 24-36s-53 7-60 0 4-52 4-52c.532-8.152-23.468-6.07-24 0" color="#000" overflow="visible" style="isolation:auto;mix-blend-mode:normal"/><path fill="#263238" d="M31.997 224a58.849 44.787 35.584 0 0 42.59 66.896 58.849 44.787 35.584 0 0 64.231-22.883l-53.41-22.007z" color="#000" overflow="visible" style="isolation:auto;mix-blend-mode:normal"/><path fill="#689f38" d="M367.997 48c-31.784.035-51.415 13.55-64 32-12.584 18.45-8.545 61.689 0 96h64c-7.474-16.646-6.27-26.35 0-32 35.347 0 60-13.072 60-44s-24.653-52-60-52" color="#000" overflow="visible" style="isolation:auto;mix-blend-mode:normal"/><path fill="#b0bec5" d="M95.997 256a176 128 0 0 0 176 128 176 128 0 0 0 176-128h-176z" color="#000" overflow="visible" style="isolation:auto;mix-blend-mode:normal"/><path fill="#795548" d="M303.997 176c18.892 68.592 24.984 137.184 0 205.775C400 368 448 320 447.997 264s-52.724-76.702-80-88z" color="#000" overflow="visible" style="isolation:auto;mix-blend-mode:normal"/><path fill="#78909c" d="M63.997 256c-.291 10.038 64.471 64 144 64 79.53 0 131.998-40 144-56s20-36-23.997-60-109.279 26.42-160.003 36-103.708 5.962-104 16" color="#000" overflow="visible" style="isolation:auto;mix-blend-mode:normal"/><path fill="#ffc107" fill-rule="evenodd" d="M419.997 116c-2.707 5.058-24 8-16 20s64 24 68 24 12-4 8-8-36-20-40-32-4-20-12-20-5.292 10.942-8 16"/><path fill="#eceff1" d="M300.503 160a296 296 0 0 0 3.494 16h64c-2.813-6.266-4.394-11.547-4.94-16z" color="#000" overflow="visible" style="isolation:auto;mix-blend-mode:normal"/><path fill="#ffb300" d="M251.997 376s4 48 0 52-4 16 0 20 56 16 56 16c8 0 32-36 24-36s-53 7-60 0 4-52 4-52c.532-8.152-23.468-6.07-24 0" color="#000" overflow="visible" style="isolation:auto;mix-blend-mode:normal"/><path fill="#263238" d="M396.509 86.167c-5.735-3.32-12.454-2.726-16.124 1.107-1.474 5.105 1.372 11.238 7.106 14.559 5.735 3.32 12.454 2.726 16.124-1.107 1.474-5.105-1.372-11.238-7.106-14.559" color="#000" overflow="visible" style="isolation:auto;mix-blend-mode:normal"/></svg>