<svg xmlns="http://www.w3.org/2000/svg" width="512" height="512"><g color="#000"><path fill="#f44336" d="M18.364 100.205c-14.119 14.12 38.877 10.638 56.477 28.239 9.85 9.85 13.036 21.879 16.44 33.073-21.029-.124-46.625 11.231-62.327 26.933-4.802 4.828-9.535 9.992-12.064 16.185-6.26 15.325 28.875 7.709 43.832 22.643 14.93 14.95 7.317 50.088 22.651 43.82 6.188-2.53 11.351-7.255 16.177-12.052 15.702-15.702 27.057-41.298 26.933-62.328 11.194 3.405 23.224 6.591 33.073 16.441 17.6 17.6 14.12 70.596 28.239 56.477 40.354-40.355 89.735-122.029 83.701-168.417a116 116 0 0 0-.44-3.03 19.97 19.97 0 0 1-19.725-5.043c-7.798-7.798-7.798-20.44 0-28.239a20 20 0 0 1 6.262-4.22c-14.742-24.155-39.581-40.121-70.812-44.183C140.393 10.47 58.72 59.85 18.364 100.205" overflow="visible" style="isolation:auto;mix-blend-mode:normal"/><circle cx="51.951" cy="163.712" r="29.951" fill="#fff" overflow="visible" style="isolation:auto;mix-blend-mode:normal" transform="rotate(-45)"/><circle cx="51.951" cy="163.712" r="9.984" fill="#263238" overflow="visible" style="isolation:auto;mix-blend-mode:normal" transform="rotate(-45)"/><path fill="#d32f2f" d="M60.722 227.278c14.93 14.95 7.317 50.088 22.651 43.82 6.188-2.53 11.351-7.255 16.177-12.052 15.702-15.702 27.057-41.298 26.933-62.328 11.194 3.405 23.224 6.591 33.073 16.441 17.6 17.6 14.12 70.596 28.239 56.477 40.354-40.355 89.735-122.029 83.701-168.417a116 116 0 0 0-.44-3.03 19.97 19.97 0 0 1-19.725-5.043c-7.798-7.798-7.798-20.44 0-28.239a20 20 0 0 1 6.262-4.22 91 91 0 0 0-13.328-16.952z" overflow="visible" style="isolation:auto;mix-blend-mode:normal"/><path fill="#2196f3" d="M313.68 258.069c12.354-12.355 9.308 34.017 24.708 49.417 8.619 8.618 19.144 11.406 28.94 14.386-.11-18.401 9.827-40.798 23.566-54.538 4.224-4.2 8.743-8.342 14.162-10.555 13.41-5.477 6.745 25.265 19.812 38.353 13.082 13.064 43.827 6.402 38.343 19.82-2.213 5.414-6.348 9.932-10.545 14.154-13.74 13.74-36.137 23.675-54.538 23.567 2.98 9.795 5.768 20.32 14.386 28.939 15.4 15.4 61.772 12.354 49.417 24.708-35.31 35.31-106.775 78.519-147.365 73.24q-1.334-.177-2.65-.386a17.47 17.47 0 0 0-4.413-17.26c-6.824-6.822-17.886-6.822-24.709 0a17.5 17.5 0 0 0-3.693 5.48c-21.136-12.9-35.106-34.634-38.66-61.96-5.28-40.59 37.929-112.055 73.239-147.365" overflow="visible" style="isolation:auto;mix-blend-mode:normal"/><circle cx="56.771" cy="474.174" r="26.207" fill="#fff" overflow="visible" style="isolation:auto;mix-blend-mode:normal" transform="rotate(135)scale(1 -1)"/><circle cx="56.771" cy="474.174" r="8.736" fill="#263238" overflow="visible" style="isolation:auto;mix-blend-mode:normal" transform="rotate(135)scale(1 -1)"/><path fill="#0288d1" d="M424.868 295.132c13.082 13.064 43.827 6.402 38.343 19.82-2.213 5.414-6.348 9.932-10.545 14.154-13.74 13.74-36.137 23.675-54.538 23.567 2.98 9.795 5.768 20.32 14.386 28.939 15.4 15.4 61.772 12.354 49.417 24.708-35.31 35.31-106.775 78.519-147.365 73.24q-1.334-.177-2.65-.386a17.47 17.47 0 0 0-4.413-17.26c-6.824-6.822-17.886-6.822-24.709 0a17.5 17.5 0 0 0-3.693 5.48 79.5 79.5 0 0 1-14.833-11.662z" overflow="visible" style="isolation:auto;mix-blend-mode:normal"/><path fill="#ffc107" d="M190.522 372.628c8.825 8.825-24.297 6.65-35.298 17.65-6.156 6.155-8.147 13.674-10.275 20.67 13.143-.078 29.141 7.02 38.955 16.833 3 3.018 5.959 6.245 7.54 10.116 3.912 9.578-18.047 4.818-27.395 14.152-9.332 9.344-4.573 31.305-14.157 27.387-3.868-1.58-7.095-4.534-10.11-7.532-9.814-9.814-16.912-25.812-16.834-38.955-6.996 2.128-14.515 4.12-20.67 10.275-11 11-8.825 44.123-17.65 35.298-25.221-25.221-56.084-76.268-52.313-105.26.082-.636.177-1.266.275-1.893a12.48 12.48 0 0 0 12.328-3.153c4.874-4.874 4.874-12.775 0-17.649a12.5 12.5 0 0 0-3.913-2.638c9.213-15.097 24.738-25.075 44.257-27.614 28.992-3.771 80.039 27.092 105.26 52.313" overflow="visible" style="isolation:auto;mix-blend-mode:normal"/><circle cx="-329.569" cy="178.687" r="18.72" fill="#fff" overflow="visible" style="isolation:auto;mix-blend-mode:normal" transform="rotate(45)scale(-1 1)"/><circle cx="-329.569" cy="178.687" r="6.24" fill="#263238" overflow="visible" style="isolation:auto;mix-blend-mode:normal" transform="rotate(45)scale(-1 1)"/><path fill="#ffb300" d="M164.049 452.049c-9.332 9.344-4.573 31.305-14.157 27.387-3.868-1.58-7.095-4.534-10.11-7.532-9.814-9.814-16.912-25.812-16.834-38.955-6.996 2.128-14.515 4.12-20.67 10.275-11 11-8.825 44.123-17.65 35.298-25.221-25.221-56.084-76.268-52.313-105.26.082-.636.177-1.266.275-1.893a12.48 12.48 0 0 0 12.328-3.153c4.874-4.874 4.874-12.775 0-17.649a12.5 12.5 0 0 0-3.913-2.638 56.8 56.8 0 0 1 8.33-10.595L164.048 452.05z" overflow="visible" style="isolation:auto;mix-blend-mode:normal"/><path fill="#8bc34a" d="M432.846 17.773c-10.59-10.59-7.979 29.158-21.179 42.358-7.387 7.387-16.409 9.777-24.805 12.33.094-15.772-8.423-34.97-20.2-46.746-3.62-3.6-7.494-7.15-12.138-9.048-11.494-4.694-5.782 21.657-16.983 32.874-11.213 11.198-37.566 5.488-32.865 16.99 1.897 4.64 5.442 8.512 9.04 12.131 11.776 11.777 30.973 20.294 46.745 20.2-2.553 8.396-4.943 17.418-12.33 24.805-13.2 13.2-52.947 10.59-42.358 21.179 30.266 30.266 91.522 67.302 126.313 62.776a87 87 0 0 0 2.272-.33 14.98 14.98 0 0 1 3.783-14.794c5.848-5.848 15.33-5.848 21.178 0a15 15 0 0 1 3.166 4.696c18.116-11.056 30.09-29.685 33.137-53.108 4.526-34.791-32.51-96.047-62.776-126.313" overflow="visible" style="isolation:auto;mix-blend-mode:normal"/><circle cx="401.002" cy="-233.598" r="22.464" fill="#fff" overflow="visible" style="isolation:auto;mix-blend-mode:normal" transform="rotate(45)"/><circle cx="401.002" cy="-233.598" r="7.488" fill="#263238" overflow="visible" style="isolation:auto;mix-blend-mode:normal" transform="rotate(45)"/><path fill="#689f38" d="M337.541 49.541c-11.213 11.198-37.566 5.488-32.865 16.99 1.897 4.64 5.442 8.512 9.04 12.131 11.776 11.777 30.973 20.294 46.745 20.2-2.553 8.396-4.943 17.418-12.33 24.805-13.2 13.2-52.947 10.59-42.358 21.179 30.266 30.266 91.522 67.302 126.313 62.776a87 87 0 0 0 2.272-.33 14.98 14.98 0 0 1 3.783-14.794c5.848-5.848 15.33-5.848 21.178 0a15 15 0 0 1 3.166 4.696A68.2 68.2 0 0 0 475.2 187.2z" overflow="visible" style="isolation:auto;mix-blend-mode:normal"/></g></svg>