<svg xmlns="http://www.w3.org/2000/svg" width="512" height="512"><path d="M32 64h32v432H32z" style="fill:#90a4ae;stroke-width:1.46969"/><path d="M32 64h16v432H32z" style="fill:#cfd8dc;stroke-width:1.03923"/><ellipse cx="48" cy="48" rx="32" ry="32.629" style="fill:#ffca28;stroke-width:1.01176"/><path d="M48 15.371V80.63A32 32.63 0 0 0 80 48a32 32.63 0 0 0-32-32.629" style="fill:#ffb300;stroke-width:1.01176"/><path d="M64 96s32-32 112-32 144 64 224 64 112-32 112-32v352s-32 32-112 32-144-64-224-64-112 32-112 32z" style="fill:#d32f2f;stroke-width:1.00993" transform="matrix(.92857 0 0 .92308 4.571 20.923)"/><path d="M64 160s32-32 112-32 144 64 224 64 112-32 112-32v224s-32 32-112 32-144-64-224-64-112 32-112 32z" style="fill:#eceff1;stroke-width:1.00993" transform="matrix(.92857 0 0 .92308 4.571 20.923)"/><path d="M64 208s32-32 112-32 144 64 224 64 112-32 112-32v128s-32 32-112 32-144-64-224-64-112 32-112 32z" style="fill:#2196f3;stroke-width:1.00993" transform="matrix(.92857 0 0 .92308 4.571 20.923)"/><path d="M192 64.836v352c67.45 6.972 124.55 55.356 192 62.328v-352c-67.45-6.972-124.55-55.356-192-62.328" style="fill:#b71c1c;stroke-width:.92582" transform="matrix(.92857 0 0 .92308 4.571 20.923)"/><path d="M192 128.836v224c67.45 6.972 124.55 55.356 192 62.328v-224c-67.45-6.972-124.55-55.356-192-62.328" style="fill:#cfd8dc;stroke-width:1.00993" transform="matrix(.92857 0 0 .92308 4.571 20.923)"/><path d="M192 176.836v128c67.45 6.972 124.55 55.356 192 62.328v-128c-67.45-6.972-124.55-55.356-192-62.328" style="fill:#1e88e5;stroke-width:1.00993" transform="matrix(.92857 0 0 .92308 4.571 20.923)"/></svg>