<svg xmlns="http://www.w3.org/2000/svg" xmlns:xlink="http://www.w3.org/1999/xlink" width="512" height="512"><defs><lineargradient xlink:href="#a" id="b" gradientunits="userSpaceOnUse" gradienttransform="matrix(1.9285714,0,0,1.9285714,2978.2577,727.52696)" x1="312" y1="344" x2="312" y2="368"/></defs><g transform="scale(.62936) rotate(30 -494.76 2092.111)"><path d="M-288 208l64 192c8 24 24 24 32 0l64-192" fill="#ffc107"/><path d="M-208 208v210c6 0 12-6 16-18l64-192z" fill="#ffa000"/><path d="M-208 128a64 45 0 0 0-62.727 36.073A32 36 0 0 0-272 164a32 36 0 0 0-32 36 32 36 0 0 0 32 36 32 36 0 0 0 .846-.033A40 45 0 0 0-232 272a40 45 0 0 0 24.01-9.062A40 45 0 0 0-184 272a40 45 0 0 0 39.2-36.046 32 36 0 0 0 .8.046 32 36 0 0 0 32-36 32 36 0 0 0-32-36 32 36 0 0 0-1.346.053A64 45 0 0 0-208 128z" fill="#ffeb3b"/><path d="M-208 128v134.945a40 45 0 0 0 .01-.008A40 45 0 0 0-184 272a40 45 0 0 0 39.2-36.047 32 36 0 0 0 .8.047 32 36 0 0 0 32-36 32 36 0 0 0-32-36 32 36 0 0 0-1.346.053A64 45 0 0 0-208 128z" fill="#fdd835"/><path d="M-266.182 273.455l5.819 17.453 96.672 24.168 4.921-14.767zm17.455 52.363l5.819 17.455 64.447 16.112 4.922-14.77zm17.454 52.364l5.818 17.455 32.09 8.021A56.47 56.47 0 0 0-192 400l3.691-11.076z" fill="#ffd54f"/><path d="M-208 288v16l44.309 11.076 4.921-14.767zm0 48v16l29.54 7.385 4.92-14.77zm0 48v16l14.635 3.658A56.47 56.47 0 0 0-192 400l3.691-11.076z" fill="#ffca28"/><circle transform="scale(-1 1)" r="16" cy="184.693" cx="173.799" fill="#f44336"/><path d="M-185.105 173.387L-162.492 196a16 16 0 0 1-11.307 4.693 16 16 0 0 1-16-16 16 16 0 0 1 4.694-11.306z" fill="#c62828"/><g transform="matrix(-1 0 0 1 -385.185 22)"><circle r="16" cy="203.307" cx="-176" fill="#f44336"/><path d="M-164.693 192l-22.614 22.613A16 16 0 0 0-176 219.307a16 16 0 0 0 16-16A16 16 0 0 0-164.693 192z" fill="#c62828"/></g><path d="M-251.848 186.933c6 10.392 33.712-5.608 27.712-16l-48-83.139c-6-10.392-33.712 5.608-27.712 16z" fill="#795548"/><path d="M-290.492 88l57 98.727c-6.928 4-15.356 5.402-18.356.206l-48-83.139c-3-5.196 2.428-11.794 9.356-15.794z" fill="#4e342e"/></g><g transform="rotate(-30 116.745 265.992) scale(.71154)"><path d="M160 120a96 80 0 0 1 96-80 96 80 0 0 1 96 80h-96zM160 168h192v16c0 8.864-7.136 16-16 16H176c-8.864 0-16-7.136-16-16z" fill="#ff9800"/><rect rx="3.897" ry="3.897" y="120.207" x="156" height="7.793" width="200" fill="#f44336"/><rect rx="4.253" ry="4.253" y="127.493" x="156" height="8.507" width="200" fill="#8bc34a"/><rect rx="16" width="208" height="32" x="152" y="136" ry="16" fill="#8d6e63"/><path d="M192 136l24 24 24-24z" fill="#ffeb3b"/><path d="M256 136v32h88c8.864 0 16-7.136 16-16s-7.136-16-16-16z" fill="#5d4037"/><path d="M284 132a12 12 0 0 1 12 12 12 12 0 0 1 12-12h-12z" fill="#689f38"/><path d="M300 132a20 20 0 0 1 20 20 20 20 0 0 1 20-20h-20z" fill="#689f38"/><path d="M256 40v80h96a96 80 0 0 0-96-80z" fill="#f57c00"/><path d="M256 120.207V128h96.104a3.888 3.888 0 0 0 3.896-3.896 3.888 3.888 0 0 0-3.896-3.897z" fill="#f44336"/><path d="M256 127.492V136h95.746a4.245 4.245 0 0 0 4.254-4.254 4.245 4.245 0 0 0-4.254-4.254z" fill="#689f38"/><path d="M256 168v32h80c8.864 0 16-7.136 16-16v-16z" fill="#f57c00"/><circle r="8" cy="88" cx="192" fill="#fff8e1"/><circle cx="224" cy="64" r="8" fill="#fff8e1"/><circle r="8" cy="104" cx="240" fill="#fff8e1"/><circle cx="272" cy="88" r="8" fill="#ffe082"/><circle r="8" cy="64" cx="304" fill="#ffe082"/><circle cx="320" cy="104" r="8" fill="#ffe082"/><path d="M240 132a16 16 0 0 1 16 16 16 16 0 0 1 16-16h-16zM168 132a12 12 0 0 1 12 12 12 12 0 0 1 12-12h-12z" fill="#8bc34a"/><path d="M256 132v16a16 16 0 0 0 16-16z" fill="#689f38"/></g><path d="M43.452 335.267a93.726 93.726 0 0 1 0 132.549 93.726 93.726 0 0 1 132.548 0l-66.274-66.275z" fill="#8bc34a"/><path d="M176 467.816a93.726 93.726 0 0 1-132.548 0l66.274-66.275z" fill="#689f38"/><path d="M49.477 341.292a85.205 85.205 0 0 1 0 120.499 85.205 85.205 0 0 1 120.498 0l-60.25-60.25z" fill="#fafafa"/><path d="M169.975 461.79a85.205 85.205 0 0 1-120.498 0l60.249-60.249z" fill="#eee"/><path d="M55.502 347.317a76.685 76.685 0 0 1 0 108.449 76.685 76.685 0 0 1 108.448 0l-54.224-54.225z" fill="#f44336"/><path d="M163.95 455.766a76.685 76.685 0 0 1-108.448 0l54.224-54.225z" fill="#d32f2f"/><path d="M59.518 379.45c-2.218 2.218-1.993 6.04.502 8.535 2.496 2.496 6.317 2.72 8.536.502 2.218-2.218 6.01-10.056 3.514-12.551-2.496-2.496-10.334 1.296-12.552 3.514zM80.605 400.537c-2.218 2.219-1.993 6.04.502 8.536 2.496 2.495 6.317 2.72 8.536.502 2.218-2.219 6.01-10.057 3.514-12.552-2.495-2.496-10.333 1.296-12.552 3.514z" fill="#37474f"/><path d="M101.693 421.625c-2.219 2.218-1.994 6.04.502 8.535 2.495 2.495 6.317 2.72 8.535.502s6.01-10.056 3.515-12.552c-2.496-2.496-10.334 1.296-12.552 3.515zM122.78 442.712c-2.218 2.218-1.994 6.04.502 8.535 2.496 2.496 6.317 2.72 8.535.502 2.219-2.218 6.01-10.056 3.515-12.552-2.496-2.495-10.334 1.296-12.552 3.515z" fill="#263238"/><path d="M51.987 408.068c-2.218 2.219-1.994 6.04.502 8.536 2.496 2.495 6.317 2.72 8.535.502 2.219-2.218 6.01-10.056 3.515-12.552-2.496-2.496-10.334 1.296-12.552 3.514zM73.074 429.156c-2.218 2.218-1.993 6.04.502 8.535 2.496 2.496 6.317 2.72 8.536.502 2.218-2.218 6.01-10.056 3.514-12.552-2.495-2.495-10.333 1.296-12.552 3.515z" fill="#37474f"/><path d="M94.161 450.243c-2.218 2.218-1.993 6.04.503 8.535 2.495 2.496 6.317 2.72 8.535.502s6.01-10.056 3.514-12.552c-2.495-2.495-10.333 1.297-12.552 3.515zM73.606 437.717l12.046-12.046c2.44 2.526-1.33 10.312-3.54 12.522-2.21 2.21-6.01 1.994-8.506-.476z" fill="#263238"/><g transform="matrix(.35714 0 0 .35714 228.571 163.839)"><path d="M32 256a224 224 0 0 1 224 224 224 224 0 0 1 224-224H256z" style="isolation:auto;mix-blend-mode:normal" color="#000" overflow="visible" fill="#f5f5f5"/><path d="M256 256v224a224 224 0 0 0 224-224z" style="isolation:auto;mix-blend-mode:normal" color="#000" overflow="visible" fill="#e0e0e0"/><ellipse ry="80" rx="224" cy="256" cx="256" style="isolation:auto;mix-blend-mode:normal" color="#000" overflow="visible" fill="#e0e0e0"/><path d="M256 176v160a224 80 0 0 0 224-80 224 80 0 0 0-224-80z" style="isolation:auto;mix-blend-mode:normal" color="#000" overflow="visible" fill="#bdbdbd"/><ellipse ry="64" rx="192" cy="272" cx="256" style="isolation:auto;mix-blend-mode:normal" color="#000" overflow="visible" fill="#ff9800"/><path d="M316.664 211.336L195.336 332.664A192 64 0 0 0 256 336a192 64 0 0 0 192-64 192 64 0 0 0-131.336-60.664z" style="isolation:auto;mix-blend-mode:normal" color="#000" overflow="visible" fill="#f57c00"/><g color="#000"><path style="isolation:auto;mix-blend-mode:normal" d="M200 256c-11.046 19.132-28.407 20.55-43.713 11.713-15.305-8.837-22.758-24.581-11.713-43.713 8-13.856 21.857-5.856 59.713-39.426 5.857 21.857 6.759 52.294-4.287 71.426z" overflow="visible" fill="#7cb342"/><path style="isolation:auto;mix-blend-mode:normal" d="M204.287 184.574l-48 83.139c15.306 8.836 32.667 7.419 43.713-11.713 11.046-19.132 10.144-49.57 4.287-71.426z" overflow="visible" fill="#689f38"/></g><g color="#000"><path d="M96 288c11.046 19.132 28.407 20.55 43.713 11.713 15.305-8.837 22.758-24.581 11.713-43.713-8-13.856-21.857-5.856-59.713-39.426C85.856 238.431 84.954 268.868 96 288z" style="isolation:auto;mix-blend-mode:normal" overflow="visible" fill="#689f38"/><path d="M91.713 216.574l48 83.139C124.407 308.549 107.046 307.132 96 288c-11.046-19.132-10.144-49.57-4.287-71.426z" style="isolation:auto;mix-blend-mode:normal" overflow="visible" fill="#7cb342"/></g><ellipse ry="8" rx="28" cy="232" cx="248" style="isolation:auto;mix-blend-mode:normal" color="#000" overflow="visible" fill="#ffc107"/><ellipse style="isolation:auto;mix-blend-mode:normal" cx="184" cy="288" rx="28" ry="8" color="#000" overflow="visible" fill="#ffc107"/><ellipse ry="16" rx="44" cy="272" cx="336" style="isolation:auto;mix-blend-mode:normal" color="#000" overflow="visible" fill="#ffc107"/><path d="M32 256a224 224 0 0 0 224 224 224 224 0 0 0 224-224 224 80 0 0 1-224 80 224 80 0 0 1-224-80z" style="isolation:auto;mix-blend-mode:normal" color="#000" overflow="visible" fill="#f5f5f5"/><path d="M480 256a224 80 0 0 1-224 80v144a224 224 0 0 0 224-224z" style="isolation:auto;mix-blend-mode:normal" color="#000" overflow="visible" fill="#e0e0e0"/><path style="isolation:auto;mix-blend-mode:normal" d="M446.535 48.001c-11.043.103-21.668 5.694-26.752 16.159l-98.145 201.99a183.305 183.305 0 0 1-3.084 6.01h37.557l119.098-176c9.935-14.683 3.64-34.85-11.713-43.713A33.344 33.344 0 0 0 446.535 48zm1.39 16.16c2.58.068 5.18.762 7.57 2.143 7.654 4.418 10.275 14.203 5.856 21.856-4.418 7.652-14.202 10.273-21.855 5.855-7.653-4.418-10.276-14.203-5.858-21.855 3.038-5.262 8.613-8.146 14.288-7.998z" color="#000" overflow="visible" fill="#b0bec5"/><path d="M463.496 52.447l-8 13.857c7.653 4.418 10.274 14.203 5.855 21.856-4.418 7.652-14.202 10.273-21.855 5.855L336.644 272.16h19.467l119.098-176c9.935-14.683 3.64-34.85-11.713-43.713z" style="isolation:auto;mix-blend-mode:normal" color="#000" overflow="visible" fill="#90a4ae"/></g><g transform="matrix(.35767 0 0 .35767 180.555 323.822)" color="#000"><path style="isolation:auto;mix-blend-mode:normal" d="M89.244 39.964C57.233 95.41 125.757 177.3 232.894 239.155c107.138 61.856 212.318 80.255 244.33 24.81 21.736-37.648-129.327-74.667-193.99-112-76.21-44-172.254-149.648-193.99-112z" overflow="visible" fill="#33691e"/><circle transform="rotate(30)" style="isolation:auto;mix-blend-mode:normal" cx="225.27" cy="26.667" r="32" overflow="visible" fill="#8bc34a"/><circle transform="rotate(30)" r="24" cy="2.667" cx="153.27" style="isolation:auto;mix-blend-mode:normal" overflow="visible" fill="#8bc34a"/><circle transform="rotate(30)" r="40" cy="34.667" cx="313.27" style="isolation:auto;mix-blend-mode:normal" overflow="visible" fill="#8bc34a"/><circle transform="rotate(30)" r="32" cy="26.667" cx="401.27" style="isolation:auto;mix-blend-mode:normal" overflow="visible" fill="#8bc34a"/><circle transform="rotate(30)" style="isolation:auto;mix-blend-mode:normal" cx="473.27" cy="2.667" r="24" overflow="visible" fill="#8bc34a"/><path d="M87.816 42.439c-31.17 53.988 33.94 141.788 141.078 203.644 107.138 61.856 215.731 74.344 246.901 20.356 14.11-24.439-121.687-13.233-218.681-69.233C153.19 137.206 98.398 24.11 87.816 42.44z" style="isolation:auto;mix-blend-mode:normal" overflow="visible" fill="#689f38"/><path d="M89.244 39.964C57.233 95.41 125.757 177.3 232.894 239.155c107.138 61.856 212.318 80.255 244.33 24.81 21.736-37.648-129.327-74.667-193.99-112-76.21-44-172.254-149.648-193.99-112z" style="isolation:auto;mix-blend-mode:normal" overflow="visible" fill="#33691e"/><g transform="rotate(30 662.444 -43.959)"><circle style="isolation:auto;mix-blend-mode:normal" cx="336" cy="352" r="32" overflow="visible" fill="#8bc34a"/><path style="isolation:auto;mix-blend-mode:normal" d="M336 384a32 32 0 0 1 27.713-16 32 32 0 0 1 0-32A32 32 0 0 1 336 320v32z" overflow="visible" fill="#7cb342"/></g><g transform="rotate(30 537.019 -53.566) scale(.75)"><circle r="32" cy="352" cx="336" style="isolation:auto;mix-blend-mode:normal" overflow="visible" fill="#8bc34a"/><path d="M336 384a32 32 0 0 1 27.713-16 32 32 0 0 1 0-32A32 32 0 0 1 336 320v32z" style="isolation:auto;mix-blend-mode:normal" overflow="visible" fill="#7cb342"/></g><circle transform="rotate(30)" style="isolation:auto;mix-blend-mode:normal" cx="313.27" cy="34.667" r="40" overflow="visible" fill="#8bc34a"/><path style="isolation:auto;mix-blend-mode:normal" d="M233.966 221.299a40 40 0 0 1 40 0 40 40 0 0 1 20-34.641 40 40 0 0 1-20-34.641l-20 34.64z" overflow="visible" fill="#7cb342"/><g transform="rotate(30 574.444 284.462)"><circle r="32" cy="352" cx="336" style="isolation:auto;mix-blend-mode:normal" overflow="visible" fill="#8bc34a"/><path d="M336 384a32 32 0 0 1 27.713-16 32 32 0 0 1 0-32A32 32 0 0 1 336 320v32z" style="isolation:auto;mix-blend-mode:normal" overflow="visible" fill="#7cb342"/></g><g transform="rotate(30 377.019 543.562) scale(.75)"><circle style="isolation:auto;mix-blend-mode:normal" cx="336" cy="352" r="32" overflow="visible" fill="#8bc34a"/><path style="isolation:auto;mix-blend-mode:normal" d="M336 384a32 32 0 0 1 27.713-16 32 32 0 0 1 0-32A32 32 0 0 1 336 320v32z" overflow="visible" fill="#7cb342"/></g><path style="isolation:auto;mix-blend-mode:normal" d="M87.816 42.439c-31.17 53.988 33.94 141.788 141.078 203.644 107.138 61.856 215.731 74.344 246.901 20.356 14.11-24.439-121.687-13.233-218.681-69.233C153.19 137.206 98.398 24.11 87.816 42.44z" overflow="visible" fill="#689f38"/><g transform="rotate(60 251.692 230.75)"><path style="isolation:auto;mix-blend-mode:normal" d="M32 315.32C32 379.345 132.288 416 256 416s224-36.656 224-100.68c0-43.471-149.333 0-224 0-88 0-224-43.471-224 0z" overflow="visible" fill="#33691e"/><circle style="isolation:auto;mix-blend-mode:normal" cx="160" cy="352" r="32" overflow="visible" fill="#8bc34a"/><circle r="24" cy="328" cx="88" style="isolation:auto;mix-blend-mode:normal" overflow="visible" fill="#8bc34a"/><circle r="40" cy="360" cx="248" style="isolation:auto;mix-blend-mode:normal" overflow="visible" fill="#8bc34a"/><circle r="32" cy="352" cx="336" style="isolation:auto;mix-blend-mode:normal" overflow="visible" fill="#8bc34a"/><circle style="isolation:auto;mix-blend-mode:normal" cx="408" cy="328" r="24" overflow="visible" fill="#8bc34a"/><path d="M32 318.178C32 380.518 132.288 424 256 424s224-43.482 224-105.822c0-28.219-112 49.384-224 49.384-120 0-224-70.548-224-49.384z" style="isolation:auto;mix-blend-mode:normal" overflow="visible" fill="#689f38"/><path d="M32 315.32C32 379.345 132.288 416 256 416s224-36.656 224-100.68c0-43.471-149.333 0-224 0-88 0-224-43.471-224 0z" style="isolation:auto;mix-blend-mode:normal" overflow="visible" fill="#33691e"/><g transform="translate(-176)"><circle style="isolation:auto;mix-blend-mode:normal" cx="336" cy="352" r="32" overflow="visible" fill="#8bc34a"/><path style="isolation:auto;mix-blend-mode:normal" d="M336 384a32 32 0 0 1 27.713-16 32 32 0 0 1 0-32A32 32 0 0 1 336 320v32z" overflow="visible" fill="#7cb342"/></g><g transform="matrix(.75 0 0 .75 -164 64)"><circle r="32" cy="352" cx="336" style="isolation:auto;mix-blend-mode:normal" overflow="visible" fill="#8bc34a"/><path d="M336 384a32 32 0 0 1 27.713-16 32 32 0 0 1 0-32A32 32 0 0 1 336 320v32z" style="isolation:auto;mix-blend-mode:normal" overflow="visible" fill="#7cb342"/></g><circle style="isolation:auto;mix-blend-mode:normal" cx="248" cy="360" r="40" overflow="visible" fill="#8bc34a"/><path style="isolation:auto;mix-blend-mode:normal" d="M248 400a40 40 0 0 1 34.641-20 40 40 0 0 1 0-40A40 40 0 0 1 248 320v40z" overflow="visible" fill="#7cb342"/><circle r="32" cy="352" cx="336" style="isolation:auto;mix-blend-mode:normal" overflow="visible" fill="#8bc34a"/><path d="M336 384a32 32 0 0 1 27.713-16 32 32 0 0 1 0-32A32 32 0 0 1 336 320v32z" style="isolation:auto;mix-blend-mode:normal" overflow="visible" fill="#7cb342"/><g transform="matrix(.75 0 0 .75 156 64)"><circle style="isolation:auto;mix-blend-mode:normal" cx="336" cy="352" r="32" overflow="visible" fill="#8bc34a"/><path style="isolation:auto;mix-blend-mode:normal" d="M336 384a32 32 0 0 1 27.713-16 32 32 0 0 1 0-32A32 32 0 0 1 336 320v32z" overflow="visible" fill="#7cb342"/></g><path style="isolation:auto;mix-blend-mode:normal" d="M32 318.178C32 380.518 132.288 424 256 424s224-43.482 224-105.822c0-28.219-112 49.384-224 49.384-120 0-224-70.548-224-49.384z" overflow="visible" fill="#689f38"/></g></g><g transform="rotate(-30 207.68 -321.67) scale(.47904)"><ellipse ry="80" rx="64" cy="400" cx="368" style="isolation:auto;mix-blend-mode:normal" color="#000" overflow="visible" fill="#8bc34a"/><ellipse style="isolation:auto;mix-blend-mode:normal" cx="432" cy="400" rx="64" ry="80" color="#000" overflow="visible" fill="#8bc34a"/><ellipse ry="104" rx="48" cy="328" cx="384" style="isolation:auto;mix-blend-mode:normal" color="#000" overflow="visible" fill="#8bc34a"/><ellipse style="isolation:auto;mix-blend-mode:normal" cx="416" cy="328" rx="48" ry="104" color="#000" overflow="visible" fill="#8bc34a"/><path d="M416 224a48 104 0 0 0-16.01 6.072 48 104 0 0 0-.08-.052v239.21a64 80 0 0 0 .07-.048A64 80 0 0 0 432 480a64 80 0 0 0 64-80 64 80 0 0 0-32.064-69.246A48 104 0 0 0 464 328a48 104 0 0 0-48-104z" style="isolation:auto;mix-blend-mode:normal" color="#000" overflow="visible" fill="#7cb342"/><path d="M392 232c0 8 16 8 16 0l16-80c0-8-32-8-32 0z" fill="#8d6e63" fill-rule="evenodd"/><path d="M408 146c-.254 0-.504.02-.758.023l-6.699 91.944c3.81-.174 7.457-2.149 7.457-5.967l16-80c0-4-8-6-16-6z" fill="#795548" fill-rule="evenodd"/></g><g transform="matrix(.33333 0 0 .33333 11.108 156.112)" color="#000"><path d="M208 69.864C208 78.181 200.837 88 192 88s-16-9.819-16-18.136c0-8.317 8-20.59 16-37.864 8 17.274 16 29.547 16 37.864z" style="isolation:auto;mix-blend-mode:normal" overflow="visible" fill="#ffd54f"/><path d="M192 96c8.864 0 16 7.136 16 16v64c0 8.864-7.136 16-16 16s-16-7.136-16-16v-64c0-8.864 7.136-16 16-16zM320 96c8.864 0 16 7.136 16 16v64c0 8.864-7.136 16-16 16s-16-7.136-16-16v-64c0-8.864 7.136-16 16-16zM256 96c8.864 0 16 7.136 16 16v64c0 8.864-7.136 16-16 16s-16-7.136-16-16v-64c0-8.864 7.136-16 16-16z" style="isolation:auto;mix-blend-mode:normal" overflow="visible" fill="#f5f5f5"/><path d="M144 176c-8.864 0-16 7.136-16 16v112h256V192c0-8.864-7.136-16-16-16H144z" style="isolation:auto;mix-blend-mode:normal" overflow="visible" fill="#ffcdd2"/><path d="M256 176v128h128V192c0-8.864-7.136-16-16-16H256z" style="isolation:auto;mix-blend-mode:normal" overflow="visible" fill="#f8bbd0"/><path d="M192 96v96c8.864 0 16-7.136 16-16v-64c0-8.864-7.136-16-16-16z" style="isolation:auto;mix-blend-mode:normal" overflow="visible" fill="#cfd8dc"/><path d="M144 176c-8.864 0-16 7.136-16 16v32a32 32 0 0 0 32 32 32 32 0 0 0 32-32 32 32 0 0 0 32 32 32 32 0 0 0 32-32 32 32 0 0 0 32 32 32 32 0 0 0 32-32 32 32 0 0 0 32 32 32 32 0 0 0 32-32v-32c0-8.864-7.136-16-16-16H144z" style="isolation:auto;mix-blend-mode:normal" overflow="visible" fill="#e91e63"/><circle r="16" cy="224" cx="160" style="isolation:auto;mix-blend-mode:normal" overflow="visible" fill="#fafafa"/><circle style="isolation:auto;mix-blend-mode:normal" cx="224" cy="224" r="16" overflow="visible" fill="#fafafa"/><path style="isolation:auto;mix-blend-mode:normal" d="M256 96v96c8.864 0 16-7.136 16-16v-64c0-8.864-7.136-16-16-16zM320 96v96c8.864 0 16-7.136 16-16v-64c0-8.864-7.136-16-16-16z" overflow="visible" fill="#cfd8dc"/><path d="M256 176v48a32 32 0 0 0 32 32 32 32 0 0 0 32-32 32 32 0 0 0 32 32 32 32 0 0 0 32-32v-32c0-8.864-7.136-16-16-16H256z" style="isolation:auto;mix-blend-mode:normal" overflow="visible" fill="#c2185b"/><circle r="16" cy="224" cx="288" style="isolation:auto;mix-blend-mode:normal" overflow="visible" fill="#f5f5f5"/><circle style="isolation:auto;mix-blend-mode:normal" cx="352" cy="224" r="16" overflow="visible" fill="#f5f5f5"/><path d="M80 320c-8.864 0-16 7.136-16 16v128h384V336c0-8.864-7.136-16-16-16H80z" style="isolation:auto;mix-blend-mode:normal" overflow="visible" fill="#ffcdd2"/><path d="M256 320v144h192V336c0-8.864-7.136-16-16-16H256z" style="isolation:auto;mix-blend-mode:normal" overflow="visible" fill="#f8bbd0"/><path d="M80 304c-8.864 0-16 7.136-16 16v32a32 32 0 0 0 32 32 32 32 0 0 0 32-32 32 32 0 0 0 32 32 32 32 0 0 0 32-32 32 32 0 0 0 32 32 32 32 0 0 0 32-32 32 32 0 0 0 32 32 32 32 0 0 0 32-32 32 32 0 0 0 32 32 32 32 0 0 0 32-32 32 32 0 0 0 32 32 32 32 0 0 0 32-32v-32c0-8.864-7.136-16-16-16H80z" style="isolation:auto;mix-blend-mode:normal" overflow="visible" fill="#e91e63"/><circle style="isolation:auto;mix-blend-mode:normal" cx="96" cy="352" r="16" overflow="visible" fill="#fafafa"/><circle r="16" cy="352" cx="160" style="isolation:auto;mix-blend-mode:normal" overflow="visible" fill="#fafafa"/><circle style="isolation:auto;mix-blend-mode:normal" cx="224" cy="352" r="16" overflow="visible" fill="#fafafa"/><path d="M256 304v48a32 32 0 0 0 32 32 32 32 0 0 0 32-32 32 32 0 0 0 32 32 32 32 0 0 0 32-32 32 32 0 0 0 32 32 32 32 0 0 0 32-32v-32c0-8.864-7.136-16-16-16H256z" style="isolation:auto;mix-blend-mode:normal" overflow="visible" fill="#c2185b"/><circle r="16" cy="352" cx="288" style="isolation:auto;mix-blend-mode:normal" overflow="visible" fill="#eee"/><circle style="isolation:auto;mix-blend-mode:normal" cx="352" cy="352" r="16" overflow="visible" fill="#eee"/><circle r="16" cy="352" cx="416" style="isolation:auto;mix-blend-mode:normal" overflow="visible" fill="#eee"/><path style="isolation:auto;mix-blend-mode:normal" overflow="visible" fill="#b3e5fc" d="M16 456h480v32H16z"/><path style="isolation:auto;mix-blend-mode:normal" overflow="visible" fill="#03a9f4" d="M34.667 456H72l-18.667 32H16zM118.667 456H156l-18.667 32H100zM202.667 456H240l-18.667 32H184z"/><path d="M256 456v32h240v-32H256z" style="isolation:auto;mix-blend-mode:normal" overflow="visible" fill="#81d4fa"/><path style="isolation:auto;mix-blend-mode:normal" overflow="visible" fill="#039be5" d="M290.667 456H328l-18.667 32H272zM374.667 456H412l-18.667 32H356zM458.667 456H496l-18.667 32H440z"/><path d="M192 32v56c8.837 0 16-9.818 16-18.136 0-8.317-8-20.59-16-37.864z" style="isolation:auto;mix-blend-mode:normal" overflow="visible" fill="#ffc107"/><path style="isolation:auto;mix-blend-mode:normal" d="M272 69.864C272 78.181 264.837 88 256 88s-16-9.819-16-18.136c0-8.317 8-20.59 16-37.864 8 17.274 16 29.547 16 37.864z" overflow="visible" fill="#ffd54f"/><path style="isolation:auto;mix-blend-mode:normal" d="M256 32v56c8.837 0 16-9.818 16-18.136 0-8.317-8-20.59-16-37.864z" overflow="visible" fill="#ffc107"/><path d="M336 69.864C336 78.181 328.837 88 320 88s-16-9.819-16-18.136c0-8.317 8-20.59 16-37.864 8 17.274 16 29.547 16 37.864z" style="isolation:auto;mix-blend-mode:normal" overflow="visible" fill="#ffd54f"/><path d="M320 32v56c8.837 0 16-9.818 16-18.136 0-8.317-8-20.59-16-37.864z" style="isolation:auto;mix-blend-mode:normal" overflow="visible" fill="#ffc107"/></g><ellipse ry="40" rx="64" cy="55.826" cx="266.674" style="isolation:auto;mix-blend-mode:normal" color="#000" overflow="visible" fill="#8d6e63"/><path d="M210.674 71.826h112c8 32 8 72 0 104h-112c-8-32-8-72 0-104z" style="isolation:auto;mix-blend-mode:normal" color="#000" overflow="visible" fill="#8d6e63"/><path style="isolation:auto;mix-blend-mode:normal" d="M266.674 15.826v160h56c7.786-31.145 7.991-69.864.621-101.414a64 40 0 0 0 7.38-18.586 64 40 0 0 0-64-40z" color="#000" overflow="visible" fill="#6d4c41"/><path style="isolation:auto;mix-blend-mode:normal" d="M218.674 71.826h96c8 32 8 64 0 96h-96c-8-32-8-64 0-96z" color="#000" overflow="visible" fill="#efebe9"/><ellipse style="isolation:auto;mix-blend-mode:normal" cx="266.674" cy="55.826" rx="56" ry="32" color="#000" overflow="visible" fill="#efebe9"/><path d="M314.674 71.826c8 32 8 64 0 96h-96z" style="isolation:auto;mix-blend-mode:normal" color="#000" overflow="visible" fill="#d7ccc8"/><circle style="isolation:auto;mix-blend-mode:normal" cx="230.674" cy="51.826" r="4" color="#000" overflow="visible" opacity=".52" fill="#bcaaa4"/><circle r="8" cy="55.826" cx="258.674" style="isolation:auto;mix-blend-mode:normal" color="#000" overflow="visible" opacity=".52" fill="#bcaaa4"/><circle style="isolation:auto;mix-blend-mode:normal" cx="234.674" cy="111.826" r="8" color="#000" overflow="visible" opacity=".52" fill="#bcaaa4"/><circle r="8" cy="151.826" cx="282.674" style="isolation:auto;mix-blend-mode:normal" color="#000" overflow="visible" opacity=".52" fill="#bcaaa4"/><circle style="isolation:auto;mix-blend-mode:normal" cx="302.674" cy="115.826" r="4" color="#000" overflow="visible" opacity=".52" fill="#bcaaa4"/><circle r="4" cy="43.826" cx="294.674" style="isolation:auto;mix-blend-mode:normal" color="#000" overflow="visible" opacity=".52" fill="#bcaaa4"/><circle style="isolation:auto;mix-blend-mode:normal" cx="250.674" cy="155.826" r="4" color="#000" overflow="visible" opacity=".52" fill="#bcaaa4"/><circle r="8" cy="95.826" cx="266.674" style="isolation:auto;mix-blend-mode:normal" color="#000" overflow="visible" opacity=".52" fill="#bcaaa4"/><circle style="isolation:auto;mix-blend-mode:normal" cx="238.674" cy="83.826" r="4" color="#000" overflow="visible" opacity=".52" fill="#bcaaa4"/><circle style="isolation:auto;mix-blend-mode:normal" cx="306.674" cy="135.826" r="8" color="#000" overflow="visible" opacity=".52" fill="#bcaaa4"/><circle style="isolation:auto;mix-blend-mode:normal" cx="286.674" cy="67.826" r="4" color="#000" overflow="visible" opacity=".52" fill="#bcaaa4"/><circle r="4" cy="139.826" cx="230.674" style="isolation:auto;mix-blend-mode:normal" color="#000" overflow="visible" opacity=".52" fill="#bcaaa4"/><circle r="4" cy="123.826" cx="278.674" style="isolation:auto;mix-blend-mode:normal" color="#000" overflow="visible" opacity=".52" fill="#bcaaa4"/></svg>