<svg xmlns="http://www.w3.org/2000/svg" width="512" height="512"><g transform="rotate(30 -311.382 1316.691)scale(.62936)"><path fill="#ffc107" d="m-288 208 64 192c8 24 24 24 32 0l64-192"/><path fill="#ffa000" d="M-208 208v210c6 0 12-6 16-18l64-192z"/><path fill="#ffeb3b" d="M-208 128a64 45 0 0 0-62.727 36.073A32 36 0 0 0-272 164a32 36 0 0 0-32 36 32 36 0 0 0 32 36 32 36 0 0 0 .846-.033A40 45 0 0 0-232 272a40 45 0 0 0 24.01-9.062A40 45 0 0 0-184 272a40 45 0 0 0 39.2-36.046 32 36 0 0 0 .8.046 32 36 0 0 0 32-36 32 36 0 0 0-32-36 32 36 0 0 0-1.346.053A64 45 0 0 0-208 128"/><path fill="#fdd835" d="M-208 128v134.945a40 45 0 0 0 .01-.008A40 45 0 0 0-184 272a40 45 0 0 0 39.2-36.047 32 36 0 0 0 .8.047 32 36 0 0 0 32-36 32 36 0 0 0-32-36 32 36 0 0 0-1.346.053A64 45 0 0 0-208 128"/><path fill="#ffd54f" d="m-266.182 273.455 5.819 17.453 96.672 24.168 4.921-14.767zm17.455 52.363 5.819 17.455 64.447 16.112 4.922-14.77zm17.454 52.364 5.818 17.455 32.09 8.021A57 57 0 0 0-192 400l3.691-11.076z"/><path fill="#ffca28" d="M-208 288v16l44.309 11.076 4.921-14.767zm0 48v16l29.54 7.385 4.92-14.77zm0 48v16l14.635 3.658A57 57 0 0 0-192 400l3.691-11.076z"/><circle cx="173.799" cy="184.693" r="16" fill="#f44336" transform="scale(-1 1)"/><path fill="#c62828" d="M-185.105 173.387-162.492 196a16 16 0 0 1-11.307 4.693 16 16 0 0 1-16-16 16 16 0 0 1 4.694-11.306"/><g transform="matrix(-1 0 0 1 -385.185 22)"><circle cx="-176" cy="203.307" r="16" fill="#f44336"/><path fill="#c62828" d="m-164.693 192-22.614 22.613A16 16 0 0 0-176 219.307a16 16 0 0 0 16-16A16 16 0 0 0-164.693 192"/></g><path fill="#795548" d="M-251.848 186.933c6 10.392 33.712-5.608 27.712-16l-48-83.139c-6-10.392-33.712 5.608-27.712 16z"/><path fill="#4e342e" d="m-290.492 88 57 98.727c-6.928 4-15.356 5.402-18.356.206l-48-83.139c-3-5.196 2.428-11.794 9.356-15.794"/></g><g transform="rotate(-30 116.745 265.992)scale(.71154)"><path fill="#ff9800" d="M160 120a96 80 0 0 1 96-80 96 80 0 0 1 96 80h-96zm0 48h192v16c0 8.864-7.136 16-16 16H176c-8.864 0-16-7.136-16-16z"/><rect width="200" height="7.793" x="156" y="120.207" fill="#f44336" rx="3.897" ry="3.897"/><rect width="200" height="8.507" x="156" y="127.493" fill="#8bc34a" rx="4.253" ry="4.253"/><rect width="208" height="32" x="152" y="136" fill="#8d6e63" rx="16" ry="16"/><path fill="#ffeb3b" d="m192 136 24 24 24-24z"/><path fill="#5d4037" d="M256 136v32h88c8.864 0 16-7.136 16-16s-7.136-16-16-16z"/><path fill="#689f38" d="M284 132a12 12 0 0 0 12 12 12 12 0 0 0 12-12h-12z"/><path fill="#689f38" d="M300 132a20 20 0 0 0 20 20 20 20 0 0 0 20-20h-20z"/><path fill="#f57c00" d="M256 40v80h96a96 80 0 0 0-96-80"/><path fill="#f44336" d="M256 120.207V128h96.104a3.89 3.89 0 0 0 3.896-3.896 3.89 3.89 0 0 0-3.896-3.897z"/><path fill="#689f38" d="M256 127.492V136h95.746a4.245 4.245 0 0 0 4.254-4.254 4.245 4.245 0 0 0-4.254-4.254z"/><path fill="#f57c00" d="M256 168v32h80c8.864 0 16-7.136 16-16v-16z"/><circle cx="192" cy="88" r="8" fill="#fff8e1"/><circle cx="224" cy="64" r="8" fill="#fff8e1"/><circle cx="240" cy="104" r="8" fill="#fff8e1"/><circle cx="272" cy="88" r="8" fill="#ffe082"/><circle cx="304" cy="64" r="8" fill="#ffe082"/><circle cx="320" cy="104" r="8" fill="#ffe082"/><path fill="#8bc34a" d="M240 132a16 16 0 0 0 16 16 16 16 0 0 0 16-16h-16zm-72 0a12 12 0 0 0 12 12 12 12 0 0 0 12-12h-12z"/><path fill="#689f38" d="M256 132v16a16 16 0 0 0 16-16z"/></g><path fill="#8bc34a" d="M43.452 335.267a93.726 93.726 0 0 0 0 132.549 93.726 93.726 0 0 0 132.548 0l-66.274-66.275z"/><path fill="#689f38" d="M176 467.816a93.726 93.726 0 0 1-132.548 0l66.274-66.275z"/><path fill="#fafafa" d="M49.477 341.292a85.205 85.205 0 0 0 0 120.499 85.205 85.205 0 0 0 120.498 0l-60.25-60.25z"/><path fill="#eee" d="M169.975 461.79a85.205 85.205 0 0 1-120.498 0l60.249-60.249z"/><path fill="#f44336" d="M55.502 347.317a76.685 76.685 0 0 0 0 108.449 76.685 76.685 0 0 0 108.448 0l-54.224-54.225z"/><path fill="#d32f2f" d="M163.95 455.766a76.685 76.685 0 0 1-108.448 0l54.224-54.225z"/><path fill="#37474f" d="M59.518 379.45c-2.218 2.218-1.993 6.04.502 8.535s6.317 2.72 8.536.502 6.01-10.056 3.514-12.551-10.334 1.296-12.552 3.514m21.087 21.087c-2.218 2.219-1.993 6.04.502 8.536s6.317 2.72 8.536.502 6.01-10.057 3.514-12.552c-2.495-2.496-10.333 1.296-12.552 3.514"/><path fill="#263238" d="M101.693 421.625c-2.219 2.218-1.994 6.04.502 8.535s6.317 2.72 8.535.502 6.01-10.056 3.515-12.552c-2.496-2.496-10.334 1.296-12.552 3.515m21.087 21.087c-2.218 2.218-1.994 6.04.502 8.535s6.317 2.72 8.535.502 6.01-10.056 3.515-12.552c-2.496-2.495-10.334 1.296-12.552 3.515"/><path fill="#37474f" d="M51.987 408.068c-2.218 2.219-1.994 6.04.502 8.536s6.317 2.72 8.535.502 6.01-10.056 3.515-12.552c-2.496-2.496-10.334 1.296-12.552 3.514m21.087 21.088c-2.218 2.218-1.993 6.04.502 8.535s6.317 2.72 8.536.502 6.01-10.056 3.514-12.552c-2.495-2.495-10.333 1.296-12.552 3.515"/><path fill="#263238" d="M94.161 450.243c-2.218 2.218-1.993 6.04.503 8.535s6.317 2.72 8.535.502 6.01-10.056 3.514-12.552c-2.495-2.495-10.333 1.297-12.552 3.515m-20.555-12.526 12.046-12.046c2.44 2.526-1.33 10.312-3.54 12.522s-6.01 1.994-8.506-.476"/><g color="#000" transform="translate(228.571 163.839)scale(.35714)"><path fill="#f5f5f5" d="M32 256a224 224 0 0 0 224 224 224 224 0 0 0 224-224H256z" overflow="visible" style="isolation:auto;mix-blend-mode:normal"/><path fill="#e0e0e0" d="M256 256v224a224 224 0 0 0 224-224z" overflow="visible" style="isolation:auto;mix-blend-mode:normal"/><ellipse cx="256" cy="256" fill="#e0e0e0" overflow="visible" rx="224" ry="80" style="isolation:auto;mix-blend-mode:normal"/><path fill="#bdbdbd" d="M256 176v160a224 80 0 0 0 224-80 224 80 0 0 0-224-80" overflow="visible" style="isolation:auto;mix-blend-mode:normal"/><ellipse cx="256" cy="272" fill="#ff9800" overflow="visible" rx="192" ry="64" style="isolation:auto;mix-blend-mode:normal"/><path fill="#f57c00" d="M316.664 211.336 195.336 332.664A192 64 0 0 0 256 336a192 64 0 0 0 192-64 192 64 0 0 0-131.336-60.664" overflow="visible" style="isolation:auto;mix-blend-mode:normal"/><path fill="#7cb342" d="M200 256c-11.046 19.132-28.407 20.55-43.713 11.713-15.305-8.837-22.758-24.581-11.713-43.713 8-13.856 21.857-5.856 59.713-39.426 5.857 21.857 6.759 52.294-4.287 71.426" overflow="visible" style="isolation:auto;mix-blend-mode:normal"/><path fill="#689f38" d="m204.287 184.574-48 83.139c15.306 8.836 32.667 7.419 43.713-11.713s10.144-49.57 4.287-71.426" overflow="visible" style="isolation:auto;mix-blend-mode:normal"/><path fill="#689f38" d="M96 288c11.046 19.132 28.407 20.55 43.713 11.713 15.305-8.837 22.758-24.581 11.713-43.713-8-13.856-21.857-5.856-59.713-39.426C85.856 238.431 84.954 268.868 96 288" overflow="visible" style="isolation:auto;mix-blend-mode:normal"/><path fill="#7cb342" d="m91.713 216.574 48 83.139C124.407 308.549 107.046 307.132 96 288s-10.144-49.57-4.287-71.426" overflow="visible" style="isolation:auto;mix-blend-mode:normal"/><ellipse cx="248" cy="232" fill="#ffc107" overflow="visible" rx="28" ry="8" style="isolation:auto;mix-blend-mode:normal"/><ellipse cx="184" cy="288" fill="#ffc107" overflow="visible" rx="28" ry="8" style="isolation:auto;mix-blend-mode:normal"/><ellipse cx="336" cy="272" fill="#ffc107" overflow="visible" rx="44" ry="16" style="isolation:auto;mix-blend-mode:normal"/><path fill="#f5f5f5" d="M32 256a224 224 0 0 0 224 224 224 224 0 0 0 224-224 224 80 0 0 1-224 80 224 80 0 0 1-224-80" overflow="visible" style="isolation:auto;mix-blend-mode:normal"/><path fill="#e0e0e0" d="M480 256a224 80 0 0 1-224 80v144a224 224 0 0 0 224-224" overflow="visible" style="isolation:auto;mix-blend-mode:normal"/><path fill="#b0bec5" d="M446.535 48.001c-11.043.103-21.668 5.694-26.752 16.159l-98.145 201.99a183 183 0 0 1-3.084 6.01h37.557l119.098-176c9.935-14.683 3.64-34.85-11.713-43.713A33.34 33.34 0 0 0 446.535 48zm1.39 16.16c2.58.068 5.18.762 7.57 2.143 7.654 4.418 10.275 14.203 5.856 21.856-4.418 7.652-14.202 10.273-21.855 5.855s-10.276-14.203-5.858-21.855c3.038-5.262 8.613-8.146 14.288-7.998z" overflow="visible" style="isolation:auto;mix-blend-mode:normal"/><path fill="#90a4ae" d="m463.496 52.447-8 13.857c7.653 4.418 10.274 14.203 5.855 21.856-4.418 7.652-14.202 10.273-21.855 5.855L336.644 272.16h19.467l119.098-176c9.935-14.683 3.64-34.85-11.713-43.713" overflow="visible" style="isolation:auto;mix-blend-mode:normal"/></g><g color="#000" transform="translate(180.555 323.822)scale(.35767)"><path fill="#33691e" d="M89.244 39.964C57.233 95.41 125.757 177.3 232.894 239.155c107.138 61.856 212.318 80.255 244.33 24.81 21.736-37.648-129.327-74.667-193.99-112-76.21-44-172.254-149.648-193.99-112z" overflow="visible" style="isolation:auto;mix-blend-mode:normal"/><circle cx="225.27" cy="26.667" r="32" fill="#8bc34a" overflow="visible" style="isolation:auto;mix-blend-mode:normal" transform="rotate(30)"/><circle cx="153.27" cy="2.667" r="24" fill="#8bc34a" overflow="visible" style="isolation:auto;mix-blend-mode:normal" transform="rotate(30)"/><circle cx="313.27" cy="34.667" r="40" fill="#8bc34a" overflow="visible" style="isolation:auto;mix-blend-mode:normal" transform="rotate(30)"/><circle cx="401.27" cy="26.667" r="32" fill="#8bc34a" overflow="visible" style="isolation:auto;mix-blend-mode:normal" transform="rotate(30)"/><circle cx="473.27" cy="2.667" r="24" fill="#8bc34a" overflow="visible" style="isolation:auto;mix-blend-mode:normal" transform="rotate(30)"/><path fill="#689f38" d="M87.816 42.439c-31.17 53.988 33.94 141.788 141.078 203.644s215.731 74.344 246.901 20.356c14.11-24.439-121.687-13.233-218.681-69.233C153.19 137.206 98.398 24.11 87.816 42.44z" overflow="visible" style="isolation:auto;mix-blend-mode:normal"/><path fill="#33691e" d="M89.244 39.964C57.233 95.41 125.757 177.3 232.894 239.155c107.138 61.856 212.318 80.255 244.33 24.81 21.736-37.648-129.327-74.667-193.99-112-76.21-44-172.254-149.648-193.99-112z" overflow="visible" style="isolation:auto;mix-blend-mode:normal"/><g transform="rotate(30 662.444 -43.959)"><circle cx="336" cy="352" r="32" fill="#8bc34a" overflow="visible" style="isolation:auto;mix-blend-mode:normal"/><path fill="#7cb342" d="M336 384a32 32 0 0 0 27.713-16 32 32 0 0 0 0-32A32 32 0 0 0 336 320v32z" overflow="visible" style="isolation:auto;mix-blend-mode:normal"/></g><g transform="rotate(30 537.019 -53.566)scale(.75)"><circle cx="336" cy="352" r="32" fill="#8bc34a" overflow="visible" style="isolation:auto;mix-blend-mode:normal"/><path fill="#7cb342" d="M336 384a32 32 0 0 0 27.713-16 32 32 0 0 0 0-32A32 32 0 0 0 336 320v32z" overflow="visible" style="isolation:auto;mix-blend-mode:normal"/></g><circle cx="313.27" cy="34.667" r="40" fill="#8bc34a" overflow="visible" style="isolation:auto;mix-blend-mode:normal" transform="rotate(30)"/><path fill="#7cb342" d="M233.966 221.299a40 40 0 0 0 40 0 40 40 0 0 0 20-34.641 40 40 0 0 0-20-34.641l-20 34.64z" overflow="visible" style="isolation:auto;mix-blend-mode:normal"/><g transform="rotate(30 574.444 284.462)"><circle cx="336" cy="352" r="32" fill="#8bc34a" overflow="visible" style="isolation:auto;mix-blend-mode:normal"/><path fill="#7cb342" d="M336 384a32 32 0 0 0 27.713-16 32 32 0 0 0 0-32A32 32 0 0 0 336 320v32z" overflow="visible" style="isolation:auto;mix-blend-mode:normal"/></g><g transform="rotate(30 377.019 543.562)scale(.75)"><circle cx="336" cy="352" r="32" fill="#8bc34a" overflow="visible" style="isolation:auto;mix-blend-mode:normal"/><path fill="#7cb342" d="M336 384a32 32 0 0 0 27.713-16 32 32 0 0 0 0-32A32 32 0 0 0 336 320v32z" overflow="visible" style="isolation:auto;mix-blend-mode:normal"/></g><path fill="#689f38" d="M87.816 42.439c-31.17 53.988 33.94 141.788 141.078 203.644s215.731 74.344 246.901 20.356c14.11-24.439-121.687-13.233-218.681-69.233C153.19 137.206 98.398 24.11 87.816 42.44z" overflow="visible" style="isolation:auto;mix-blend-mode:normal"/><g transform="rotate(60 251.692 230.75)"><path fill="#33691e" d="M32 315.32C32 379.345 132.288 416 256 416s224-36.656 224-100.68c0-43.471-149.333 0-224 0-88 0-224-43.471-224 0" overflow="visible" style="isolation:auto;mix-blend-mode:normal"/><circle cx="160" cy="352" r="32" fill="#8bc34a" overflow="visible" style="isolation:auto;mix-blend-mode:normal"/><circle cx="88" cy="328" r="24" fill="#8bc34a" overflow="visible" style="isolation:auto;mix-blend-mode:normal"/><circle cx="248" cy="360" r="40" fill="#8bc34a" overflow="visible" style="isolation:auto;mix-blend-mode:normal"/><circle cx="336" cy="352" r="32" fill="#8bc34a" overflow="visible" style="isolation:auto;mix-blend-mode:normal"/><circle cx="408" cy="328" r="24" fill="#8bc34a" overflow="visible" style="isolation:auto;mix-blend-mode:normal"/><path fill="#689f38" d="M32 318.178C32 380.518 132.288 424 256 424s224-43.482 224-105.822c0-28.219-112 49.384-224 49.384-120 0-224-70.548-224-49.384" overflow="visible" style="isolation:auto;mix-blend-mode:normal"/><path fill="#33691e" d="M32 315.32C32 379.345 132.288 416 256 416s224-36.656 224-100.68c0-43.471-149.333 0-224 0-88 0-224-43.471-224 0" overflow="visible" style="isolation:auto;mix-blend-mode:normal"/><g transform="translate(-176)"><circle cx="336" cy="352" r="32" fill="#8bc34a" overflow="visible" style="isolation:auto;mix-blend-mode:normal"/><path fill="#7cb342" d="M336 384a32 32 0 0 0 27.713-16 32 32 0 0 0 0-32A32 32 0 0 0 336 320v32z" overflow="visible" style="isolation:auto;mix-blend-mode:normal"/></g><g transform="matrix(.75 0 0 .75 -164 64)"><circle cx="336" cy="352" r="32" fill="#8bc34a" overflow="visible" style="isolation:auto;mix-blend-mode:normal"/><path fill="#7cb342" d="M336 384a32 32 0 0 0 27.713-16 32 32 0 0 0 0-32A32 32 0 0 0 336 320v32z" overflow="visible" style="isolation:auto;mix-blend-mode:normal"/></g><circle cx="248" cy="360" r="40" fill="#8bc34a" overflow="visible" style="isolation:auto;mix-blend-mode:normal"/><path fill="#7cb342" d="M248 400a40 40 0 0 0 34.641-20 40 40 0 0 0 0-40A40 40 0 0 0 248 320v40z" overflow="visible" style="isolation:auto;mix-blend-mode:normal"/><circle cx="336" cy="352" r="32" fill="#8bc34a" overflow="visible" style="isolation:auto;mix-blend-mode:normal"/><path fill="#7cb342" d="M336 384a32 32 0 0 0 27.713-16 32 32 0 0 0 0-32A32 32 0 0 0 336 320v32z" overflow="visible" style="isolation:auto;mix-blend-mode:normal"/><g transform="matrix(.75 0 0 .75 156 64)"><circle cx="336" cy="352" r="32" fill="#8bc34a" overflow="visible" style="isolation:auto;mix-blend-mode:normal"/><path fill="#7cb342" d="M336 384a32 32 0 0 0 27.713-16 32 32 0 0 0 0-32A32 32 0 0 0 336 320v32z" overflow="visible" style="isolation:auto;mix-blend-mode:normal"/></g><path fill="#689f38" d="M32 318.178C32 380.518 132.288 424 256 424s224-43.482 224-105.822c0-28.219-112 49.384-224 49.384-120 0-224-70.548-224-49.384" overflow="visible" style="isolation:auto;mix-blend-mode:normal"/></g></g><g transform="rotate(-30 207.68 -321.67)scale(.47904)"><ellipse cx="368" cy="400" fill="#8bc34a" color="#000" overflow="visible" rx="64" ry="80" style="isolation:auto;mix-blend-mode:normal"/><ellipse cx="432" cy="400" fill="#8bc34a" color="#000" overflow="visible" rx="64" ry="80" style="isolation:auto;mix-blend-mode:normal"/><ellipse cx="384" cy="328" fill="#8bc34a" color="#000" overflow="visible" rx="48" ry="104" style="isolation:auto;mix-blend-mode:normal"/><ellipse cx="416" cy="328" fill="#8bc34a" color="#000" overflow="visible" rx="48" ry="104" style="isolation:auto;mix-blend-mode:normal"/><path fill="#7cb342" d="M416 224a48 104 0 0 0-16.01 6.072 48 104 0 0 0-.08-.052v239.21a64 80 0 0 0 .07-.048A64 80 0 0 0 432 480a64 80 0 0 0 64-80 64 80 0 0 0-32.064-69.246A48 104 0 0 0 464 328a48 104 0 0 0-48-104" color="#000" overflow="visible" style="isolation:auto;mix-blend-mode:normal"/><path fill="#8d6e63" fill-rule="evenodd" d="M392 232c0 8 16 8 16 0l16-80c0-8-32-8-32 0z"/><path fill="#795548" fill-rule="evenodd" d="M408 146c-.254 0-.504.02-.758.023l-6.699 91.944c3.81-.174 7.457-2.149 7.457-5.967l16-80c0-4-8-6-16-6"/></g><g color="#000" transform="translate(11.108 156.112)scale(.33333)"><path fill="#ffd54f" d="M208 69.864C208 78.181 200.837 88 192 88s-16-9.819-16-18.136 8-20.59 16-37.864c8 17.274 16 29.547 16 37.864" overflow="visible" style="isolation:auto;mix-blend-mode:normal"/><path fill="#f5f5f5" d="M192 96c8.864 0 16 7.136 16 16v64c0 8.864-7.136 16-16 16s-16-7.136-16-16v-64c0-8.864 7.136-16 16-16m128 0c8.864 0 16 7.136 16 16v64c0 8.864-7.136 16-16 16s-16-7.136-16-16v-64c0-8.864 7.136-16 16-16m-64 0c8.864 0 16 7.136 16 16v64c0 8.864-7.136 16-16 16s-16-7.136-16-16v-64c0-8.864 7.136-16 16-16" overflow="visible" style="isolation:auto;mix-blend-mode:normal"/><path fill="#ffcdd2" d="M144 176c-8.864 0-16 7.136-16 16v112h256V192c0-8.864-7.136-16-16-16z" overflow="visible" style="isolation:auto;mix-blend-mode:normal"/><path fill="#f8bbd0" d="M256 176v128h128V192c0-8.864-7.136-16-16-16z" overflow="visible" style="isolation:auto;mix-blend-mode:normal"/><path fill="#cfd8dc" d="M192 96v96c8.864 0 16-7.136 16-16v-64c0-8.864-7.136-16-16-16" overflow="visible" style="isolation:auto;mix-blend-mode:normal"/><path fill="#e91e63" d="M144 176c-8.864 0-16 7.136-16 16v32a32 32 0 0 0 32 32 32 32 0 0 0 32-32 32 32 0 0 0 32 32 32 32 0 0 0 32-32 32 32 0 0 0 32 32 32 32 0 0 0 32-32 32 32 0 0 0 32 32 32 32 0 0 0 32-32v-32c0-8.864-7.136-16-16-16z" overflow="visible" style="isolation:auto;mix-blend-mode:normal"/><circle cx="160" cy="224" r="16" fill="#fafafa" overflow="visible" style="isolation:auto;mix-blend-mode:normal"/><circle cx="224" cy="224" r="16" fill="#fafafa" overflow="visible" style="isolation:auto;mix-blend-mode:normal"/><path fill="#cfd8dc" d="M256 96v96c8.864 0 16-7.136 16-16v-64c0-8.864-7.136-16-16-16m64 0v96c8.864 0 16-7.136 16-16v-64c0-8.864-7.136-16-16-16" overflow="visible" style="isolation:auto;mix-blend-mode:normal"/><path fill="#c2185b" d="M256 176v48a32 32 0 0 0 32 32 32 32 0 0 0 32-32 32 32 0 0 0 32 32 32 32 0 0 0 32-32v-32c0-8.864-7.136-16-16-16z" overflow="visible" style="isolation:auto;mix-blend-mode:normal"/><circle cx="288" cy="224" r="16" fill="#f5f5f5" overflow="visible" style="isolation:auto;mix-blend-mode:normal"/><circle cx="352" cy="224" r="16" fill="#f5f5f5" overflow="visible" style="isolation:auto;mix-blend-mode:normal"/><path fill="#ffcdd2" d="M80 320c-8.864 0-16 7.136-16 16v128h384V336c0-8.864-7.136-16-16-16z" overflow="visible" style="isolation:auto;mix-blend-mode:normal"/><path fill="#f8bbd0" d="M256 320v144h192V336c0-8.864-7.136-16-16-16z" overflow="visible" style="isolation:auto;mix-blend-mode:normal"/><path fill="#e91e63" d="M80 304c-8.864 0-16 7.136-16 16v32a32 32 0 0 0 32 32 32 32 0 0 0 32-32 32 32 0 0 0 32 32 32 32 0 0 0 32-32 32 32 0 0 0 32 32 32 32 0 0 0 32-32 32 32 0 0 0 32 32 32 32 0 0 0 32-32 32 32 0 0 0 32 32 32 32 0 0 0 32-32 32 32 0 0 0 32 32 32 32 0 0 0 32-32v-32c0-8.864-7.136-16-16-16z" overflow="visible" style="isolation:auto;mix-blend-mode:normal"/><circle cx="96" cy="352" r="16" fill="#fafafa" overflow="visible" style="isolation:auto;mix-blend-mode:normal"/><circle cx="160" cy="352" r="16" fill="#fafafa" overflow="visible" style="isolation:auto;mix-blend-mode:normal"/><circle cx="224" cy="352" r="16" fill="#fafafa" overflow="visible" style="isolation:auto;mix-blend-mode:normal"/><path fill="#c2185b" d="M256 304v48a32 32 0 0 0 32 32 32 32 0 0 0 32-32 32 32 0 0 0 32 32 32 32 0 0 0 32-32 32 32 0 0 0 32 32 32 32 0 0 0 32-32v-32c0-8.864-7.136-16-16-16z" overflow="visible" style="isolation:auto;mix-blend-mode:normal"/><circle cx="288" cy="352" r="16" fill="#eee" overflow="visible" style="isolation:auto;mix-blend-mode:normal"/><circle cx="352" cy="352" r="16" fill="#eee" overflow="visible" style="isolation:auto;mix-blend-mode:normal"/><circle cx="416" cy="352" r="16" fill="#eee" overflow="visible" style="isolation:auto;mix-blend-mode:normal"/><path fill="#b3e5fc" d="M16 456h480v32H16z" overflow="visible" style="isolation:auto;mix-blend-mode:normal"/><path fill="#03a9f4" d="M34.667 456H72l-18.667 32H16zm84 0H156l-18.667 32H100zm84 0H240l-18.667 32H184z" overflow="visible" style="isolation:auto;mix-blend-mode:normal"/><path fill="#81d4fa" d="M256 456v32h240v-32z" overflow="visible" style="isolation:auto;mix-blend-mode:normal"/><path fill="#039be5" d="M290.667 456H328l-18.667 32H272zm84 0H412l-18.667 32H356zm84 0H496l-18.667 32H440z" overflow="visible" style="isolation:auto;mix-blend-mode:normal"/><path fill="#ffc107" d="M192 32v56c8.837 0 16-9.818 16-18.136S200 49.274 192 32" overflow="visible" style="isolation:auto;mix-blend-mode:normal"/><path fill="#ffd54f" d="M272 69.864C272 78.181 264.837 88 256 88s-16-9.819-16-18.136 8-20.59 16-37.864c8 17.274 16 29.547 16 37.864" overflow="visible" style="isolation:auto;mix-blend-mode:normal"/><path fill="#ffc107" d="M256 32v56c8.837 0 16-9.818 16-18.136S264 49.274 256 32" overflow="visible" style="isolation:auto;mix-blend-mode:normal"/><path fill="#ffd54f" d="M336 69.864C336 78.181 328.837 88 320 88s-16-9.819-16-18.136 8-20.59 16-37.864c8 17.274 16 29.547 16 37.864" overflow="visible" style="isolation:auto;mix-blend-mode:normal"/><path fill="#ffc107" d="M320 32v56c8.837 0 16-9.818 16-18.136S328 49.274 320 32" overflow="visible" style="isolation:auto;mix-blend-mode:normal"/></g><ellipse cx="266.674" cy="55.826" fill="#8d6e63" color="#000" overflow="visible" rx="64" ry="40" style="isolation:auto;mix-blend-mode:normal"/><path fill="#8d6e63" d="M210.674 71.826h112c8 32 8 72 0 104h-112c-8-32-8-72 0-104" color="#000" overflow="visible" style="isolation:auto;mix-blend-mode:normal"/><path fill="#6d4c41" d="M266.674 15.826v160h56c7.786-31.145 7.991-69.864.621-101.414a64 40 0 0 0 7.38-18.586 64 40 0 0 0-64-40z" color="#000" overflow="visible" style="isolation:auto;mix-blend-mode:normal"/><path fill="#efebe9" d="M218.674 71.826h96q12 48 0 96h-96q-12-48 0-96" color="#000" overflow="visible" style="isolation:auto;mix-blend-mode:normal"/><ellipse cx="266.674" cy="55.826" fill="#efebe9" color="#000" overflow="visible" rx="56" ry="32" style="isolation:auto;mix-blend-mode:normal"/><path fill="#d7ccc8" d="M314.674 71.826q12 48 0 96h-96z" color="#000" overflow="visible" style="isolation:auto;mix-blend-mode:normal"/><circle cx="230.674" cy="51.826" r="4" fill="#bcaaa4" color="#000" opacity=".52" overflow="visible" style="isolation:auto;mix-blend-mode:normal"/><circle cx="258.674" cy="55.826" r="8" fill="#bcaaa4" color="#000" opacity=".52" overflow="visible" style="isolation:auto;mix-blend-mode:normal"/><circle cx="234.674" cy="111.826" r="8" fill="#bcaaa4" color="#000" opacity=".52" overflow="visible" style="isolation:auto;mix-blend-mode:normal"/><circle cx="282.674" cy="151.826" r="8" fill="#bcaaa4" color="#000" opacity=".52" overflow="visible" style="isolation:auto;mix-blend-mode:normal"/><circle cx="302.674" cy="115.826" r="4" fill="#bcaaa4" color="#000" opacity=".52" overflow="visible" style="isolation:auto;mix-blend-mode:normal"/><circle cx="294.674" cy="43.826" r="4" fill="#bcaaa4" color="#000" opacity=".52" overflow="visible" style="isolation:auto;mix-blend-mode:normal"/><circle cx="250.674" cy="155.826" r="4" fill="#bcaaa4" color="#000" opacity=".52" overflow="visible" style="isolation:auto;mix-blend-mode:normal"/><circle cx="266.674" cy="95.826" r="8" fill="#bcaaa4" color="#000" opacity=".52" overflow="visible" style="isolation:auto;mix-blend-mode:normal"/><circle cx="238.674" cy="83.826" r="4" fill="#bcaaa4" color="#000" opacity=".52" overflow="visible" style="isolation:auto;mix-blend-mode:normal"/><circle cx="306.674" cy="135.826" r="8" fill="#bcaaa4" color="#000" opacity=".52" overflow="visible" style="isolation:auto;mix-blend-mode:normal"/><circle cx="286.674" cy="67.826" r="4" fill="#bcaaa4" color="#000" opacity=".52" overflow="visible" style="isolation:auto;mix-blend-mode:normal"/><circle cx="230.674" cy="139.826" r="4" fill="#bcaaa4" color="#000" opacity=".52" overflow="visible" style="isolation:auto;mix-blend-mode:normal"/><circle cx="278.674" cy="123.826" r="4" fill="#bcaaa4" color="#000" opacity=".52" overflow="visible" style="isolation:auto;mix-blend-mode:normal"/></svg>