<svg xmlns="http://www.w3.org/2000/svg" width="512" height="512"><g color="#000"><path fill="#ffcdd2" d="M261.866 34.571s34.963 233.083 34.963 256.391-58.27 81.58-128.196 104.888S75.4 419.158 40.438 430.812c-34.963 11.654-23.308 46.617 0 46.617h128.195c46.617 0 93.233-11.655 128.196-11.655s58.27 11.655 104.887 11.655 58.27 0 81.579-23.309c23.308-23.308 11.654-93.233-11.654-128.195-23.308-34.963-23.308-46.617-23.308-128.196V34.571z" overflow="visible" style="isolation:auto;mix-blend-mode:normal"/><path fill="#f8bbd0" d="M408.205 304.527c6.698 27.2 6.334 56.595-6.48 69.408-17.466 17.467-27.259 19.521-56.509 19.763 7.383 1.192 15.59 2.152 25.72 2.152 26.743 0 33.428 0 46.8-13.372s6.686-53.486-6.686-73.543a171 171 0 0 1-2.845-4.408m23.987-269.956v97.871c0 96.548-5.747 112.917 20.195 152.727-4.05-18.175-4.054-41.917-4.054-87.44V34.571zm41.347 294.336c14.207 43.047 16.572 95.357-4.507 116.436-28.446 28.445-42.667 28.447-99.558 28.447-4.744 0-9.276-.11-13.649-.29 13.146 2.157 27.743 3.929 45.891 3.929 46.617 0 58.27 0 81.579-23.309 22.665-22.665 12.267-89.4-9.756-125.213m-232.07 130.66c-42.668 0-99.56 14.223-156.452 14.223H28.3c3.42 2.267 7.547 3.639 12.138 3.639h128.195c45.96 0 91.897-11.307 126.688-11.626-17.685-3.236-34.3-6.237-53.852-6.237z" overflow="visible" style="isolation:auto;mix-blend-mode:normal"/><ellipse cx="-58.036" cy="431.692" fill="#f5f5f5" overflow="visible" rx="34.376" ry="7.828" style="isolation:auto;mix-blend-mode:normal" transform="rotate(-14.167)"/></g></svg>