<svg xmlns="http://www.w3.org/2000/svg" xmlns:xlink="http://www.w3.org/1999/xlink" width="512" height="512"><defs><lineargradient xlink:href="#a" id="b" gradientunits="userSpaceOnUse" gradienttransform="matrix(1.9285714,0,0,1.9285714,2978.2577,727.52696)" x1="312" y1="344" x2="312" y2="368"/></defs><g color="#000"><path d="M153.597 172.166c-20.287-6.25-40.11-.353-44.278 13.172-7.545 24.488 20.717 19.789 13.172 44.278-5.377 19.848-50.103-12.197-61.222-18.863L16 357.686l146.888 45.255c6.665-11.119 38.71-55.845 18.862-61.222-24.489-7.545-19.79 20.717-44.278 13.172-13.525-4.167-19.422-23.991-13.172-44.278s22.281-33.355 35.806-29.188c24.489 7.544 4.7 28.26 29.189 35.805 20.025 6.244 14.57-43.887 18.86-61.218-17.368-4.272-67.414 1.158-61.175-18.852 7.544-24.488 28.26-4.7 35.806-29.188 4.166-13.525-8.902-29.556-29.189-35.806z" style="isolation:auto;mix-blend-mode:normal" overflow="visible" fill="#ffc107"/><path style="isolation:auto;mix-blend-mode:normal" d="M292.058 201.418c6.25-20.287.353-40.11-13.172-44.278-24.488-7.545-19.789 20.717-44.278 13.172-19.848-5.377 12.197-50.103 18.862-61.222L106.538 63.82 61.283 210.71c11.119 6.665 55.845 38.71 61.222 18.862 7.544-24.49-20.717-19.79-13.172-44.278 4.167-13.525 23.99-19.422 44.278-13.172 20.287 6.25 33.355 22.281 29.188 35.806-7.544 24.489-28.26 4.7-35.806 29.189-6.243 20.024 43.888 14.57 61.22 18.86 4.271-17.368-1.159-67.414 18.85-61.175 24.49 7.544 4.7 28.26 29.189 35.806 13.525 4.166 29.556-8.902 35.806-29.189z" overflow="visible" fill="#f44336"/><path d="M124.359 310.582c-6.25 20.287-.353 40.11 13.171 44.278 24.49 7.545 19.79-20.717 44.278-13.172 19.849 5.377-12.196 50.103-18.862 61.222L309.88 448.18l45.255-146.888c-11.119-6.665-55.845-38.71-61.222-18.862-7.545 24.49 20.716 19.79 13.172 44.278-4.167 13.525-23.991 19.422-44.278 13.172s-33.356-22.281-29.189-35.806c7.545-24.489 28.262-4.7 35.806-29.189 6.244-20.024-43.887-14.57-61.219-18.86-4.271 17.368 1.159 67.414-18.85 61.175-24.49-7.544-4.7-28.26-29.19-35.806-13.524-4.166-29.555 8.902-35.805 29.189z" style="isolation:auto;mix-blend-mode:normal" overflow="visible" fill="#2196f3"/><path d="M252.327 110.901l-111.309 58.876a55.814 55.814 0 0 1 12.593 2.344c20.287 6.25 33.355 22.281 29.188 35.806-7.544 24.489-28.26 4.7-35.806 29.189-6.243 20.024 43.888 14.57 61.22 18.86 4.271-17.368-1.159-67.414 18.85-61.175 24.49 7.544 4.7 28.26 29.189 35.806 13.525 4.166 29.556-8.902 35.806-29.189 6.25-20.287.353-40.11-13.172-44.278-24.488-7.545-19.789 20.717-44.278 13.172-19.046-5.16 9.476-46.25 17.719-59.411zm-143.39 75.844l-46.583 24.64c12.38 7.648 54.903 37.56 60.15 18.186 7.39-23.987-19.547-19.988-13.566-42.826z" style="isolation:auto;mix-blend-mode:normal" overflow="visible" fill="#e53935"/><path d="M355.134 301.291l-48.05 25.416c-3.139 10.187-15.16 16.04-29.57 15.641L162.99 402.924l146.888 45.255 45.255-146.888z" style="isolation:auto;mix-blend-mode:normal" overflow="visible" fill="#1976d2"/><path d="M208.147 256.051l-47.996 25.387c24.417 7.557 4.67 28.252 29.144 35.792 20.01 6.24 14.579-43.813 18.852-61.179zm-77.644 41.07L16 357.686l146.888 45.255c6.665-11.119 38.71-55.845 18.862-61.222-24.489-7.545-19.79 20.717-44.278 13.172-13.525-4.167-19.422-23.991-13.172-44.278 1.536-4.985 3.668-9.528 6.203-13.492z" style="isolation:auto;mix-blend-mode:normal" overflow="visible" fill="#ffa000"/><path style="isolation:auto;mix-blend-mode:normal" d="M435.335 298.609c20.694-4.731 34.914-19.75 31.76-33.546-5.71-24.98-27.835-6.78-33.546-31.76-5.268-19.878 49.489-14.49 62.451-14.276L461.738 69.145l-149.836 34.252c-.213 12.962-5.602 67.718 14.276 62.45 24.98-5.71 6.78-27.835 31.76-33.545 13.796-3.154 28.815 11.065 33.546 31.76 4.73 20.694-2.619 40.027-16.415 43.18-24.98 5.71-18.2-22.125-43.181-16.414-20.464 4.605 9.325 45.293 14.275 62.447 17.178-4.985 57.804-34.71 62.406-14.262 5.71 24.98-22.125 18.2-16.415 43.18 3.154 13.797 22.487 21.146 43.181 16.416z" overflow="visible" fill="#689f38"/><path style="isolation:auto;mix-blend-mode:normal" d="M346.151 253.236l28.872-45.983c-24.924 5.664-18.17-22.132-43.135-16.425-20.449 4.602 9.28 45.233 14.263 62.408zm46.707-74.388l68.88-109.703-149.836 34.252c-.213 12.962-5.602 67.718 14.276 62.45 24.98-5.71 6.78-27.835 31.76-33.545 13.796-3.154 28.815 11.065 33.546 31.76 1.162 5.085 1.587 10.085 1.374 14.786z" overflow="visible" fill="#8bc34a"/></g></svg>