<svg xmlns="http://www.w3.org/2000/svg" width="512" height="512"><g color="#000"><path style="isolation:auto;mix-blend-mode:normal" overflow="visible" fill="#8d6e63" d="M88 208h312v32H88z"/><path style="isolation:auto;mix-blend-mode:normal" overflow="visible" fill="#795548" d="M88 224h312v16H88z"/><path style="isolation:auto;mix-blend-mode:normal" overflow="visible" fill="#8d6e63" d="M88 304h312v32H88zM88 400h312v32H88z"/><path style="isolation:auto;mix-blend-mode:normal" overflow="visible" fill="#795548" d="M88 416h312v16H88zM88 320h312v16H88z"/><path style="isolation:auto;mix-blend-mode:normal" d="M104 176l16-16 16 16v288h-32zM144 128l16-16 16 16v336h-32zM184 96l16-16 16 16v368h-32zM224 80l16-16 16 16v384h-32z" overflow="visible" fill="#a1887f"/><path style="isolation:auto;mix-blend-mode:normal" d="M240 64l16 16v384h-16z" overflow="visible" fill="#795548"/><path style="isolation:auto;mix-blend-mode:normal" overflow="visible" fill="#78909c" d="M72 136h32v360H72z"/><path style="isolation:auto;mix-blend-mode:normal" overflow="visible" fill="#546e7a" d="M88 136h16v360H88z"/><circle style="isolation:auto;mix-blend-mode:normal" cx="130.967" cy="-56.01" r="32" transform="rotate(75)" overflow="visible" fill="#78909c"/><path d="M416 176l-16-16-16 16v288h32zM376 128l-16-16-16 16v336h32zM336 96l-16-16-16 16v368h32zM296 80l-16-16-16 16v384h32z" style="isolation:auto;mix-blend-mode:normal" overflow="visible" fill="#a1887f"/><path d="M280 64l16 16v384h-16z" style="isolation:auto;mix-blend-mode:normal" overflow="visible" fill="#795548"/><path style="isolation:auto;mix-blend-mode:normal" d="M110.6 89.41l-45.2 45.199a32 32 0 0 0 30.88 8.309 32 32 0 0 0 22.628-39.192 32 32 0 0 0-8.309-14.317z" overflow="visible" fill="#546e7a"/><path style="isolation:auto;mix-blend-mode:normal" overflow="visible" fill="#78909c" d="M416 128h32v360h-32z"/><path style="isolation:auto;mix-blend-mode:normal" overflow="visible" fill="#546e7a" d="M432 128h16v360h-16z"/><circle transform="rotate(75)" r="32" cy="-390.359" cx="212.273" style="isolation:auto;mix-blend-mode:normal" overflow="visible" fill="#78909c"/><path d="M454.6 81.41l-45.2 45.199a32 32 0 0 0 30.88 8.309 32 32 0 0 0 22.628-39.192 32 32 0 0 0-8.309-14.317z" style="isolation:auto;mix-blend-mode:normal" overflow="visible" fill="#546e7a"/><path d="M120 160l16 16v288h-16zM160 112l16 16v336h-16zM200 80l16 16v368h-16zM320 80l16 16v368h-16zM360 112l16 16v336h-16zM400 160l16 16v288h-16z" style="isolation:auto;mix-blend-mode:normal" overflow="visible" fill="#795548"/><path style="isolation:auto;mix-blend-mode:normal" overflow="visible" fill="#78909c" d="M88 208h48v32H88zM88 304h48v32H88zM88 400h48v32H88z"/><circle style="isolation:auto;mix-blend-mode:normal" cx="120" cy="224" r="8" overflow="visible" fill="#546e7a"/><circle r="8" cy="320" cx="120" style="isolation:auto;mix-blend-mode:normal" overflow="visible" fill="#546e7a"/><circle style="isolation:auto;mix-blend-mode:normal" cx="120" cy="416" r="8" overflow="visible" fill="#546e7a"/><path style="isolation:auto;mix-blend-mode:normal" d="M368.513 232H392c8.864 0 16.095 7.137 16 16l-.513 48c-.095 8.863-7.136 16-16 16H368c-8.864 0-16.095-7.137-16-16l.513-48c.095-8.863 7.136-16 16-16z" overflow="visible" fill="#78909c"/><path style="isolation:auto;mix-blend-mode:normal" d="M380 232v80h11.486c8.864 0 15.906-7.137 16-16l.514-48c.095-8.863-7.136-16-16-16h-12z" overflow="visible" fill="#546e7a"/><circle style="isolation:auto;mix-blend-mode:normal" cx="380" cy="268" r="20" overflow="visible" fill="#37474f"/><path style="isolation:auto;mix-blend-mode:normal" d="M380 264.8a32 32 0 0 0-32 32 32 32 0 0 0 32 32 32 32 0 0 0 32-32 32 32 0 0 0-32-32zm0 12.8a19.2 19.2 0 0 1 19.2 19.2A19.2 19.2 0 0 1 380 316a19.2 19.2 0 0 1-19.2-19.2 19.2 19.2 0 0 1 19.2-19.2z" overflow="visible" fill="#37474f"/><ellipse style="isolation:auto;mix-blend-mode:normal" cx="656" cy="456" overflow="visible" fill="#546e7a"/><ellipse style="isolation:auto;mix-blend-mode:normal" cx="656" cy="456" overflow="visible" fill="#546e7a"/><ellipse style="isolation:auto;mix-blend-mode:normal" cx="656" cy="456" overflow="visible" fill="#546e7a"/><ellipse style="isolation:auto;mix-blend-mode:normal" cx="656" cy="456" overflow="visible" fill="#546e7a"/></g></svg>