<svg xmlns="http://www.w3.org/2000/svg" width="512" height="512"><g color="#000"><path fill="#8d6e63" d="M88 208h312v32H88z" overflow="visible" style="isolation:auto;mix-blend-mode:normal"/><path fill="#795548" d="M88 224h312v16H88z" overflow="visible" style="isolation:auto;mix-blend-mode:normal"/><path fill="#8d6e63" d="M88 304h312v32H88zm0 96h312v32H88z" overflow="visible" style="isolation:auto;mix-blend-mode:normal"/><path fill="#795548" d="M88 416h312v16H88zm0-96h312v16H88z" overflow="visible" style="isolation:auto;mix-blend-mode:normal"/><path fill="#a1887f" d="m104 176 16-16 16 16v288h-32zm40-48 16-16 16 16v336h-32zm40-32 16-16 16 16v368h-32zm40-16 16-16 16 16v384h-32z" overflow="visible" style="isolation:auto;mix-blend-mode:normal"/><path fill="#795548" d="m240 64 16 16v384h-16z" overflow="visible" style="isolation:auto;mix-blend-mode:normal"/><path fill="#78909c" d="M72 136h32v360H72z" overflow="visible" style="isolation:auto;mix-blend-mode:normal"/><path fill="#546e7a" d="M88 136h16v360H88z" overflow="visible" style="isolation:auto;mix-blend-mode:normal"/><circle cx="130.967" cy="-56.01" r="32" fill="#78909c" overflow="visible" style="isolation:auto;mix-blend-mode:normal" transform="rotate(75)"/><path fill="#a1887f" d="m416 176-16-16-16 16v288h32zm-40-48-16-16-16 16v336h32zm-40-32-16-16-16 16v368h32zm-40-16-16-16-16 16v384h32z" overflow="visible" style="isolation:auto;mix-blend-mode:normal"/><path fill="#795548" d="m280 64 16 16v384h-16z" overflow="visible" style="isolation:auto;mix-blend-mode:normal"/><path fill="#546e7a" d="m110.6 89.41-45.2 45.199a32 32 0 0 0 30.88 8.309 32 32 0 0 0 22.628-39.192 32 32 0 0 0-8.309-14.317z" overflow="visible" style="isolation:auto;mix-blend-mode:normal"/><path fill="#78909c" d="M416 128h32v360h-32z" overflow="visible" style="isolation:auto;mix-blend-mode:normal"/><path fill="#546e7a" d="M432 128h16v360h-16z" overflow="visible" style="isolation:auto;mix-blend-mode:normal"/><circle cx="212.273" cy="-390.359" r="32" fill="#78909c" overflow="visible" style="isolation:auto;mix-blend-mode:normal" transform="rotate(75)"/><path fill="#546e7a" d="m454.6 81.41-45.2 45.199a32 32 0 0 0 30.88 8.309 32 32 0 0 0 22.628-39.192 32 32 0 0 0-8.309-14.317z" overflow="visible" style="isolation:auto;mix-blend-mode:normal"/><path fill="#795548" d="m120 160 16 16v288h-16zm40-48 16 16v336h-16zm40-32 16 16v368h-16zm120 0 16 16v368h-16zm40 32 16 16v336h-16zm40 48 16 16v288h-16z" overflow="visible" style="isolation:auto;mix-blend-mode:normal"/><path fill="#78909c" d="M88 208h48v32H88zm0 96h48v32H88zm0 96h48v32H88z" overflow="visible" style="isolation:auto;mix-blend-mode:normal"/><circle cx="120" cy="224" r="8" fill="#546e7a" overflow="visible" style="isolation:auto;mix-blend-mode:normal"/><circle cx="120" cy="320" r="8" fill="#546e7a" overflow="visible" style="isolation:auto;mix-blend-mode:normal"/><circle cx="120" cy="416" r="8" fill="#546e7a" overflow="visible" style="isolation:auto;mix-blend-mode:normal"/><path fill="#78909c" d="M368.513 232H392c8.864 0 16.095 7.137 16 16l-.513 48c-.095 8.863-7.136 16-16 16H368c-8.864 0-16.095-7.137-16-16l.513-48c.095-8.863 7.136-16 16-16" overflow="visible" style="isolation:auto;mix-blend-mode:normal"/><path fill="#546e7a" d="M380 232v80h11.486c8.864 0 15.906-7.137 16-16l.514-48c.095-8.863-7.136-16-16-16z" overflow="visible" style="isolation:auto;mix-blend-mode:normal"/><circle cx="380" cy="268" r="20" fill="#37474f" overflow="visible" style="isolation:auto;mix-blend-mode:normal"/><path fill="#37474f" d="M380 264.8a32 32 0 0 0-32 32 32 32 0 0 0 32 32 32 32 0 0 0 32-32 32 32 0 0 0-32-32m0 12.8a19.2 19.2 0 0 1 19.2 19.2A19.2 19.2 0 0 1 380 316a19.2 19.2 0 0 1-19.2-19.2 19.2 19.2 0 0 1 19.2-19.2" overflow="visible" style="isolation:auto;mix-blend-mode:normal"/></g></svg>