<svg xmlns="http://www.w3.org/2000/svg" width="512" height="512"><g color="#000"><path style="isolation:auto;mix-blend-mode:normal" d="M134.77 23.303l-3.463 27.708a104 104 0 0 0-23.937 10.03L85.23 43.822 51.29 77.763l17.183 22.094a104 104 0 0 0-9.89 23.969l-27.813 3.477v48l27.71 3.462a104 104 0 0 0 10.029 23.938l-17.22 22.139 33.942 33.941 22.094-17.184a104 104 0 0 0 23.969 9.891l3.476 27.813h48l3.463-27.71a104 104 0 0 0 23.938-10.029l22.138 17.219 33.942-33.941-17.184-22.094a104 104 0 0 0 9.89-23.969l27.813-3.476v-48l-27.709-3.463a104 104 0 0 0-10.029-23.938l17.219-22.139-33.942-33.941-22.093 17.184a104 104 0 0 0-23.97-9.891l-3.476-27.812h-48zm24 96a32 32 0 0 1 32 32 32 32 0 0 1-32 32 32 32 0 0 1-32-32 32 32 0 0 1 32-32z" overflow="visible" fill="#f44336"/><path style="isolation:auto;mix-blend-mode:normal" d="M249.28 60.793l-67.896 67.896a32 32 0 0 1 9.386 22.614 32 32 0 0 1-32 32 32 32 0 0 1-22.613-9.387l-67.896 67.896 16.97 16.971 22.094-17.184a104 104 0 0 0 23.969 9.891l3.476 27.813h48l3.463-27.71a104 104 0 0 0 23.938-10.029l22.138 17.219 33.942-33.941-17.184-22.094a104 104 0 0 0 9.89-23.969l27.813-3.476v-48l-27.709-3.463a104 104 0 0 0-10.029-23.938l17.219-22.139-16.97-16.97z" overflow="visible" fill="#e53935"/><path style="isolation:auto;mix-blend-mode:normal" d="M158.77 79.303a72 72 0 0 0-72 72 72 72 0 0 0 72 72 72 72 0 0 0 72-72 72 72 0 0 0-72-72zm0 24a48 48 0 0 1 48 48 48 48 0 0 1-48 48 48 48 0 0 1-48-48 48 48 0 0 1 48-48z" overflow="visible" fill="#d32f2f"/><path style="isolation:auto;mix-blend-mode:normal" d="M209.65 100.424l-16.96 16.959a48 48 0 0 1 14.08 33.92 48 48 0 0 1-48 48 48 48 0 0 1-33.92-14.08l-16.959 16.958a72 72 0 0 0 50.88 21.122 72 72 0 0 0 72-72 72 72 0 0 0-21.122-50.88z" overflow="visible" fill="#b71c1c"/><g><path style="isolation:auto;mix-blend-mode:normal" d="M355.632 55.303l-4.506 27.037a72 72 0 0 0-28.897 16.748l-25.736-9.641-16 27.711 21.205 17.457a72 72 0 0 0-2.066 16.688 72 72 0 0 0 2.048 16.7l-21.187 17.444 16 27.711 25.705-9.629a72 72 0 0 0 28.93 16.756l4.504 27.018h32l4.506-27.038a72 72 0 0 0 28.896-16.748l25.736 9.641 16-27.711-21.205-17.457a72 72 0 0 0 2.067-16.687 72 72 0 0 0-2.05-16.702l21.188-17.443-16-27.711-25.705 9.629a72 72 0 0 0-28.93-16.756l-4.503-27.017h-32zm16 72a24 24 0 0 1 24 24 24 24 0 0 1-24 24 24 24 0 0 1-24-24 24 24 0 0 1 24-24z" overflow="visible" fill="#8bc34a"/><path style="isolation:auto;mix-blend-mode:normal" d="M371.632 95.303a56 56 0 0 0-56 56 56 56 0 0 0 56 56 56 56 0 0 0 56-56 56 56 0 0 0-56-56zm0 24a32 32 0 0 1 32 32 32 32 0 0 1-32 32 32 32 0 0 1-32-32 32 32 0 0 1 32-32z" overflow="visible" fill="#689f38"/><path style="isolation:auto;mix-blend-mode:normal" d="M446.77 89.447l-15.718 5.889-40.82 40.82a24 24 0 0 1 5.4 15.147 24 24 0 0 1-24 24 24 24 0 0 1-15.145-5.405l-33.935 33.936a72 72 0 0 0 28.576 16.45l4.504 27.019h32l4.506-27.038a72 72 0 0 0 28.896-16.748l25.736 9.641 16-27.711-21.205-17.457a72 72 0 0 0 2.067-16.687 72 72 0 0 0-2.05-16.702l21.188-17.443-16-27.711z" overflow="visible" fill="#7cb342"/><path style="isolation:auto;mix-blend-mode:normal" d="M412.87 113.515l-16.979 16.979a32 32 0 0 1 7.74 20.809 32 32 0 0 1-32 32 32 32 0 0 1-20.826-7.723l-16.966 16.969a56 56 0 0 0 37.793 14.754 56 56 0 0 0 56-56 56 56 0 0 0-14.762-37.788z" overflow="visible" fill="#558b2f"/></g><g><path style="isolation:auto;mix-blend-mode:normal" d="M399.708 241.013l-13.566 22.912a88 88 0 0 0-29.058-.055l-13.534-22.856-29.563 12.246 6.61 25.793a88 88 0 0 0-20.547 20.52l-25.771-6.603-12.245 29.565 22.912 13.566a88 88 0 0 0-.055 29.057l-22.857 13.534 12.247 29.564 25.793-6.61a88 88 0 0 0 20.52 20.547l-6.603 25.77 29.564 12.246 13.566-22.912a88 88 0 0 0 29.058.055l13.534 22.856 29.563-12.246-6.61-25.793a88 88 0 0 0 20.547-20.52l25.771 6.603 12.246-29.565-22.912-13.565a88 88 0 0 0 .055-29.058l22.856-13.534-12.246-29.563-25.794 6.61a88 88 0 0 0-20.52-20.548l6.603-25.77-29.564-12.246zm-15.831 80.034a32 32 0 0 1 17.32 41.81 32 32 0 0 1-41.81 17.318 32 32 0 0 1-17.32-41.81 32 32 0 0 1 41.81-17.318z" overflow="visible" fill="#03a9f4"/><path style="isolation:auto;mix-blend-mode:normal" d="M399.184 284.091a72 72 0 0 0-94.072 38.968 72 72 0 0 0 38.968 94.072 72 72 0 0 0 94.072-38.968 72 72 0 0 0-38.968-94.072zM390 306.264a48 48 0 0 1 25.978 62.715 48 48 0 0 1-62.714 25.979 48 48 0 0 1-25.979-62.715A48 48 0 0 1 390 306.264z" overflow="visible" fill="#0288d1"/><path style="isolation:auto;mix-blend-mode:normal" d="M476.04 310.003l-74.032 30.667a32 32 0 0 1-.812 22.186 32 32 0 0 1-41.81 17.32 32 32 0 0 1-16.285-15.105l-74.01 30.657 5.19 12.528 25.793-6.61a88 88 0 0 0 20.52 20.547l-6.603 25.77 29.564 12.246 13.566-22.912a88 88 0 0 0 29.058.055l13.534 22.856 29.563-12.246-6.61-25.793a88 88 0 0 0 20.547-20.52l25.771 6.603 12.246-29.565-22.912-13.565a88 88 0 0 0 .055-29.058l22.856-13.534-5.19-12.527z" overflow="visible" fill="#0288d1"/><path style="isolation:auto;mix-blend-mode:normal" d="M438.963 325.363l-22.16 9.18a48 48 0 0 1-.825 34.436 48 48 0 0 1-62.714 25.979 48 48 0 0 1-24.936-23.767l-22.191 9.192a72 72 0 0 0 37.943 36.748 72 72 0 0 0 94.072-38.968 72 72 0 0 0 .81-52.8z" overflow="visible" fill="#01579b"/></g><g><path style="isolation:auto;mix-blend-mode:normal" d="M168.79 333.138l3.55 25.842a56 56 0 0 0-20.842 19.813l-25.639-4.872-6.804 23.016 24.203 9.867a56 56 0 0 0 1.47 14.408 56 56 0 0 0 5.217 13.532l-17.036 19.765 16.53 17.4 20.622-16.007a56 56 0 0 0 27.551 8.121l8.612 24.674 23.334-5.614-3.55-25.843a56 56 0 0 0 20.842-19.812l25.639 4.871 6.804-23.016-24.203-9.867a56 56 0 0 0-1.47-14.407 56 56 0 0 0-5.217-13.532l17.036-19.765-16.53-17.4-20.622 16.006a56 56 0 0 0-27.551-8.121l-8.612-24.674-23.333 5.615zm26.64 59.416a16 16 0 0 1 19.3 11.813 16 16 0 0 1-11.813 19.3 16 16 0 0 1-19.299-11.813 16 16 0 0 1 11.813-19.3z" overflow="visible" fill="#ffc107"/><path style="isolation:auto;mix-blend-mode:normal" d="M189.816 369.22a40 40 0 0 0-29.532 48.249A40 40 0 0 0 208.532 447a40 40 0 0 0 29.532-48.248 40 40 0 0 0-48.248-29.532zm3.743 15.556a24 24 0 0 1 28.949 17.72 24 24 0 0 1-17.719 28.948 24 24 0 0 1-28.949-17.719 24 24 0 0 1 17.72-28.949z" overflow="visible" fill="#ffa000"/><path style="isolation:auto;mix-blend-mode:normal" d="M248.91 344.311l-20.357 15.8-21.031 34.361a16 16 0 0 1 7.208 9.895 16 16 0 0 1-11.813 19.3 16 16 0 0 1-12.09-1.919l-21.032 34.36.266-.206a56 56 0 0 0 27.551 8.121l8.612 24.674 23.334-5.614-3.55-25.843a56 56 0 0 0 20.842-19.812l25.639 4.871 6.804-23.016-24.203-9.867a56 56 0 0 0-1.47-14.407 56 56 0 0 0-5.217-13.532l17.036-19.765-16.53-17.4z" overflow="visible" fill="#ffa000"/><path style="isolation:auto;mix-blend-mode:normal" d="M220.044 374.014l-8.35 13.64a24 24 0 0 1 10.814 14.841 24 24 0 0 1-17.719 28.95 24 24 0 0 1-18.136-2.879l-8.349 13.64A40 40 0 0 0 208.532 447a40 40 0 0 0 29.532-48.248 40 40 0 0 0-18.02-24.738z" overflow="visible" fill="#ff6f00"/></g></g></svg>