<svg xmlns="http://www.w3.org/2000/svg" width="512" height="512"><path fill="#263238" d="M146.482 75.056h219.036l17.522 192.75 17.523 52.57-140.182-13.143-148.944 13.142 17.523-61.33z" class="hair"/><path fill="#ce93d8" d="m98.295 495.603 18.656-85.572 18.268-73.718 73.845-18.07 56.323-9.355 37.55 9.355 73.22 18.315 18.774 74.845 18.774 84.2-148.318.397z" class="arms"/><path fill="#ba68c8" d="m159.625 495.603 16.689-102.911 18.774-37.423 13.976-37.026 56.323-14.753 37.55 14.753 11.89 37.026 18.774 37.423 18.774 102.911-85.945.397z" class="chest"/><path fill="#5d4037" d="M212.193 276.143h87.614V327.6L256 381.705l-43.807-54.106z" class="neck"/><path fill="#795548" d="m378.034 177.91-18.775 56.133-28.161 28.067-23.468 23.389-23.468 9.355h-56.324L204.37 285.5l-23.468-23.39-28.161-32.744-18.775-51.456 9.387-56.133 18.775-64.327L256 38.738l93.872 18.71 18.775 64.328z" class="head"/><path fill="#263238" d="M227.838 142.826a18.774 21.05 0 0 1-18.774 21.05 18.774 21.05 0 0 1-18.775-21.05 18.774 21.05 0 0 1 18.775-21.05 18.774 21.05 0 0 1 18.774 21.05m93.872 0a18.774 21.05 0 0 1-18.774 21.05 18.774 21.05 0 0 1-18.774-21.05 18.774 21.05 0 0 1 18.774-21.05 18.774 21.05 0 0 1 18.775 21.05z" class="eye"/><path fill="#795548" d="M111.636 145.131 120 183.472l25.087 23.005h8.363l16.725-46.01-25.088-30.672H120z" class="ear"/><path fill="#5d4037" d="m136.724 183.472 8.362-7.668v-23.005l-8.362-7.668-8.363 15.337z" class="ear-hole"/><path fill="#795548" d="M400.364 145.131 392 183.472l-25.087 23.005h-8.363l-16.725-46.01 25.088-30.672H392z" class="ear"/><path fill="#5d4037" d="m375.276 183.472-8.362-7.668v-23.005l8.362-7.668 8.363 15.337z" class="ear-hole"/><path fill="#5d4037" d="m218.451 234.043 4.694-9.356L256 229.365l32.855-4.678 4.694 9.356-25.033 18.711h-25.032z" class="lips"/><path fill="#263238" d="M147.734 176.834v-29.413l11.89-32.939 30.665 4.38L304.188 92.58l21.903 30.665 37.55-3.985 9.386 28.162.626 25.033 13.768-27.307-21.903-70.091-20.652-30.894-23.155-12.913h-8.762l-8.761-8.762L222.832 16l-46.936 28.162-29.414 30.894-13.142 70.091z" class="hair"/></svg>