<svg xmlns="http://www.w3.org/2000/svg" width="512" height="512"><g color="#000"><path style="isolation:auto;mix-blend-mode:normal" d="M404.166 183.437c30.326 54.138 36.74 122.749-92.234 197.212s-258.68 91.263-289.706 37.524c-16.94-29.34 2.322-77.542 38.03-119.941 35.709-42.4 126.781-1.16 184.263-34.347 57.48-33.187 114.377-94.474 134.93-91.18C400 176 404.165 183.438 404.165 183.438z" overflow="visible" fill="#8bc34a"/><path style="isolation:auto;mix-blend-mode:normal" d="M406.777 117.666c-14.748.149-30.327 1.81-45.88 4.842-55.3 10.782-58.896 108.19-116.377 141.377a85.774 85.774 0 0 1-10.249 5.011l62.514 120.223a655.438 655.438 0 0 0 15.147-8.47c128.974-74.464 208.378-178.392 177.351-232.131-12.547-21.733-44.815-31.232-82.506-30.852z" overflow="visible" fill="#7cb342"/><path style="isolation:auto;mix-blend-mode:normal" d="M217.329 111.64c-11.895-.814-22.504 1.405-31.473 6.583-10.638 6.196-36.256-32.626-41.551-18.739-14.6-2.346-27.53-.455-38.184 5.586-49.44 28.545-39.215 138.813 22.838 246.291l62.273-35.953 4.172-2.408 23.075-13.322 89.519-51.684v-.002l62.273-35.953c-49.262-85.325-100.887-96.832-152.942-100.398z" overflow="visible" fill="#9ccc65"/><path style="isolation:auto;mix-blend-mode:normal" d="M106.487 312.44l26.966 46.706c9.928 17.196 71.997-.052 138.633-38.524 66.637-38.473 112.608-83.602 102.68-100.798L347.8 173.118c9.928 17.197-36.043 62.325-102.68 100.798-66.636 38.473-128.704 55.72-138.633 38.524z" overflow="visible" fill="#ffca28"/><path style="isolation:auto;mix-blend-mode:normal" d="M199.87 62.535a224.713 103.368 60 0 0-31.474 6.582 224.713 103.368 60 0 0-22.95 27.723l97.98 188.433 64.572-37.279a224.713 103.368 60 0 0 0-.002l62.273-35.953A224.713 103.368 60 0 0 199.87 62.535z" overflow="visible" fill="#8bc34a"/><path style="isolation:auto;mix-blend-mode:normal" d="M347.8 173.117c9.93 17.197-36.042 62.326-102.679 100.799a548.031 548.031 0 0 1-5.865 3.336l24.885 47.86a545.451 545.451 0 0 0 7.945-4.49c66.637-38.474 112.608-83.601 102.68-100.798L347.8 173.117z" overflow="visible" fill="#ffc107"/></g></svg>