<svg xmlns="http://www.w3.org/2000/svg" xmlns:xlink="http://www.w3.org/1999/xlink" width="512" height="512"><defs><lineargradient xlink:href="#a" id="b" gradientunits="userSpaceOnUse" gradienttransform="matrix(1.9285714,0,0,1.9285714,2978.2577,727.52696)" x1="312" y1="344" x2="312" y2="368"/></defs><path style="isolation:auto;mix-blend-mode:normal" d="M256 180c-13.296 0-24 10.704-24 24v76c0 13.296 10.704 24 24 24 35.346 0 64 28.654 64 64 0 35.346-28.654 64-64 64-35.346 0-64-28.654-64-64 0-13.255-10.745-24-24-24s-24 10.745-24 24c.005.68.039 1.36.102 2.037C145.212 431.057 194.97 479.955 256 480c61.856 0 112-50.144 112-112-.067-52.554-36.666-97.994-88-109.256V204c0-13.296-10.704-24-24-24z" color="#000" overflow="visible" fill="#9e9e9e"/><path d="M224 16h64l64 64-48 128h-96L160 80z" fill="#607d8b" fill-rule="evenodd"/><path d="M256 16v192h48l48-128-64-64h-32z" fill="#546e7a" fill-rule="evenodd"/><circle style="isolation:auto;mix-blend-mode:normal" cx="256" cy="112" r="48" color="#000" overflow="visible" fill="#fafafa"/><circle r="32" cy="112" cx="256" style="isolation:auto;mix-blend-mode:normal" color="#000" overflow="visible" fill="#90a4ae"/><path style="isolation:auto;mix-blend-mode:normal" d="M278.613 89.387l-45.226 45.226A32 32 0 0 0 256 144a32 32 0 0 0 32-32 32 32 0 0 0-9.387-22.613z" color="#000" overflow="visible" fill="#607d8b"/><path style="isolation:auto;mix-blend-mode:normal" d="M337.139 290.94l-33.895 33.894C313.65 336.215 320 351.364 320 368c0 35.346-28.654 64-64 64-16.636 0-31.785-6.351-43.166-16.756l-33.92 33.92C198.998 468.264 226.15 479.978 256 480c61.856 0 112-50.144 112-112-.038-29.536-11.615-56.823-30.861-77.06z" color="#000" overflow="visible" fill="#757575"/></svg>