<svg xmlns="http://www.w3.org/2000/svg" width="512" height="512"><path fill="#bcaaa4" fill-rule="evenodd" d="M418.184 113.572C444.607 148.066 445.626 210.786 448 272c-14.816-40.864-32-48-48-64 16 48-6.571 80.738-32 112 22.483-77.69-22.642-116.804-32-160zM184 384c16.728 19.406-96 72-136 64 61.208-41.631 82.594-75.679 80-112-17.387 11.716-38.356 24.365-64 16 53.316-37.963 48.784-72.278 64-96-10.067 8.63-24 24-48 16 28.15-26.049 28.565-58.634 32-64l16-64 128 144z"/><path fill="#795548" d="M85.027 133.163c6.569 7.663 65.684 15.326 72.252 7.663 6.569-7.663 0-76.631-6.568-84.294s-78.82-30.653-85.389-22.99c-6.568 7.663 13.137 91.958 19.705 99.62z" color="#000" overflow="visible" style="isolation:auto;mix-blend-mode:normal"/><path fill="#263238" d="M98.164 117.837c6.568 7.663 39.41 15.326 45.979 7.663 6.568-7.663 0-45.979-6.569-53.642-6.568-7.663-45.978-22.99-52.547-15.326s6.569 53.641 13.137 61.305" color="#000" overflow="visible" style="isolation:auto;mix-blend-mode:normal"/><path fill="#5d4037" d="M426.973 133.163c-6.569 7.663-65.684 15.326-72.252 7.663-6.569-7.663 0-76.631 6.568-84.294s78.82-30.653 85.389-22.99c6.568 7.663-13.137 91.958-19.705 99.62z" color="#000" overflow="visible" style="isolation:auto;mix-blend-mode:normal"/><path fill="#263238" d="M413.836 117.837c-6.568 7.663-39.41 15.326-45.979 7.663-6.568-7.663 0-45.979 6.569-53.642 6.568-7.663 45.978-22.99 52.547-15.326s-6.569 53.641-13.137 61.305" color="#000" overflow="visible" style="isolation:auto;mix-blend-mode:normal"/><path fill="#795548" d="M384 181.333c0 40.407-38.456 83.635-48 118.519C318.807 362.697 309.346 448 256 448c-53.278 0-64-74.074-80.512-148.148C167.616 264.536 128 221.844 128 181.333 128 77.63 176.471 48 256 48s128 14.815 128 133.333" color="#000" overflow="visible" style="isolation:auto;mix-blend-mode:normal"/><circle cx="256" cy="432" r="64" fill="#efebe9" color="#000" overflow="visible" style="isolation:auto;mix-blend-mode:normal"/><path fill="#d7ccc8" d="M256 368v128a64 64 0 0 0 64-64 64 64 0 0 0-64-64" color="#000" overflow="visible" style="isolation:auto;mix-blend-mode:normal"/><ellipse cx="256" cy="424" fill="#bcaaa4" color="#000" overflow="visible" rx="64" ry="56" style="isolation:auto;mix-blend-mode:normal"/><path fill="#5d4037" d="M256 48v400c53.346 0 62.807-85.303 80-148.148 9.544-34.884 48-78.112 48-118.518C384 62.815 335.529 48 256 48" color="#000" overflow="visible" style="isolation:auto;mix-blend-mode:normal"/><ellipse cx="256" cy="400" fill="#efebe9" color="#000" overflow="visible" rx="80" ry="64" style="isolation:auto;mix-blend-mode:normal"/><path fill="#fafafa" d="M288 160c0 48-16 96-32 128-16-32-32-80-32-128s16-80 32-112c16 32 32 64 32 112" color="#000" overflow="visible" style="isolation:auto;mix-blend-mode:normal"/><circle cx="168" cy="184" r="24" fill="#263238" color="#000" overflow="visible" style="isolation:auto;mix-blend-mode:normal"/><circle cx="344" cy="184" r="24" fill="#263238" color="#000" overflow="visible" style="isolation:auto;mix-blend-mode:normal"/><ellipse cx="208" cy="368" fill="#efebe9" color="#000" overflow="visible" rx="32" ry="48" style="isolation:auto;mix-blend-mode:normal"/><ellipse cx="208" cy="368" fill="#263238" color="#000" overflow="visible" rx="16" ry="32" style="isolation:auto;mix-blend-mode:normal"/><path fill="#a1887f" d="M256 368v112a64 56 0 0 0 64-56 64 56 0 0 0-64-56" color="#000" overflow="visible" style="isolation:auto;mix-blend-mode:normal"/><path fill="#d7ccc8" d="M256 336v128a80 64 0 0 0 80-64 80 64 0 0 0-80-64" color="#000" overflow="visible" style="isolation:auto;mix-blend-mode:normal"/><ellipse cx="304" cy="368" fill="#d7ccc8" color="#000" overflow="visible" rx="32" ry="48" style="isolation:auto;mix-blend-mode:normal"/><ellipse cx="304" cy="368" fill="#263238" color="#000" overflow="visible" rx="16" ry="32" style="isolation:auto;mix-blend-mode:normal"/><path fill="#eee" d="M256 48v240c16-32 32-80 32-128s-16-80-32-112" color="#000" overflow="visible" style="isolation:auto;mix-blend-mode:normal"/><path fill="#bcaaa4" d="M256 16c80 0 128 32 128 64s-113.606 90.612-160 80c31.58-25.736 52.315-49.19 32-64-21.66 28.227-49.696 52.203-96 64l32-64c-23.264 4.044-59.224 48.716-96 96 16-96 80-176 160-176" color="#000" overflow="visible" style="isolation:auto;mix-blend-mode:normal"/></svg>