<svg xmlns="http://www.w3.org/2000/svg" xmlns:xlink="http://www.w3.org/1999/xlink" width="512" height="512"><defs><lineargradient xlink:href="#a" id="b" gradientunits="userSpaceOnUse" gradienttransform="matrix(1.9285714,0,0,1.9285714,2978.2577,727.52696)" x1="312" y1="344" x2="312" y2="368"/></defs><path d="M418.184 113.572C444.607 148.066 445.626 210.786 448 272c-14.816-40.864-32-48-48-64 16 48-6.571 80.738-32 112 22.483-77.69-22.642-116.804-32-160zM184 384c16.728 19.406-96 72-136 64 61.208-41.631 82.594-75.679 80-112-17.387 11.716-38.356 24.365-64 16 53.316-37.963 48.784-72.278 64-96-10.067 8.63-24 24-48 16 28.15-26.049 28.565-58.634 32-64l16-64 128 144z" fill="#bcaaa4" fill-rule="evenodd"/><path d="M85.027 133.163c6.569 7.663 65.684 15.326 72.252 7.663 6.569-7.663 0-76.631-6.568-84.294-6.568-7.663-78.82-30.653-85.389-22.99-6.568 7.663 13.137 91.958 19.705 99.62z" style="isolation:auto;mix-blend-mode:normal" color="#000" overflow="visible" fill="#795548"/><path d="M98.164 117.837c6.568 7.663 39.41 15.326 45.979 7.663 6.568-7.663 0-45.979-6.569-53.642-6.568-7.663-45.978-22.99-52.547-15.326-6.568 7.663 6.569 53.641 13.137 61.305z" style="isolation:auto;mix-blend-mode:normal" color="#000" overflow="visible" fill="#263238"/><path d="M426.973 133.163c-6.569 7.663-65.684 15.326-72.252 7.663-6.569-7.663 0-76.631 6.568-84.294 6.568-7.663 78.82-30.653 85.389-22.99 6.568 7.663-13.137 91.958-19.705 99.62z" style="isolation:auto;mix-blend-mode:normal" color="#000" overflow="visible" fill="#5d4037"/><path d="M413.836 117.837c-6.568 7.663-39.41 15.326-45.979 7.663-6.568-7.663 0-45.979 6.569-53.642 6.568-7.663 45.978-22.99 52.547-15.326 6.568 7.663-6.569 53.641-13.137 61.305z" style="isolation:auto;mix-blend-mode:normal" color="#000" overflow="visible" fill="#263238"/><path style="isolation:auto;mix-blend-mode:normal" d="M384 181.333c0 40.407-38.456 83.635-48 118.519C318.807 362.697 309.346 448 256 448c-53.278 0-64-74.074-80.512-148.148C167.616 264.536 128 221.844 128 181.333 128 77.63 176.471 48 256 48s128 14.815 128 133.333z" color="#000" overflow="visible" fill="#795548"/><circle cy="432" cx="256" style="isolation:auto;mix-blend-mode:normal" r="64" color="#000" overflow="visible" fill="#efebe9"/><path style="isolation:auto;mix-blend-mode:normal" d="M256 368v128a64 64 0 0 0 64-64 64 64 0 0 0-64-64z" color="#000" overflow="visible" fill="#d7ccc8"/><ellipse style="isolation:auto;mix-blend-mode:normal" cx="256" cy="424" rx="64" ry="56" color="#000" overflow="visible" fill="#bcaaa4"/><path style="isolation:auto;mix-blend-mode:normal" d="M256 48v400c53.346 0 62.807-85.303 80-148.148 9.544-34.884 48-78.112 48-118.518C384 62.815 335.529 48 256 48z" color="#000" overflow="visible" fill="#5d4037"/><ellipse style="isolation:auto;mix-blend-mode:normal" cx="256" cy="400" rx="80" ry="64" color="#000" overflow="visible" fill="#efebe9"/><path style="isolation:auto;mix-blend-mode:normal" d="M288 160c0 48-16 96-32 128-16-32-32-80-32-128s16-80 32-112c16 32 32 64 32 112z" color="#000" overflow="visible" fill="#fafafa"/><circle style="isolation:auto;mix-blend-mode:normal" cx="168" cy="184" r="24" color="#000" overflow="visible" fill="#263238"/><circle r="24" cy="184" cx="344" style="isolation:auto;mix-blend-mode:normal" color="#000" overflow="visible" fill="#263238"/><ellipse ry="48" rx="32" cy="368" cx="208" style="isolation:auto;mix-blend-mode:normal" color="#000" overflow="visible" fill="#efebe9"/><ellipse ry="32" rx="16" style="isolation:auto;mix-blend-mode:normal" cx="208" cy="368" color="#000" overflow="visible" fill="#263238"/><path style="isolation:auto;mix-blend-mode:normal" d="M256 368v112a64 56 0 0 0 64-56 64 56 0 0 0-64-56z" color="#000" overflow="visible" fill="#a1887f"/><path style="isolation:auto;mix-blend-mode:normal" d="M256 336v128a80 64 0 0 0 80-64 80 64 0 0 0-80-64z" color="#000" overflow="visible" fill="#d7ccc8"/><ellipse style="isolation:auto;mix-blend-mode:normal" cx="304" cy="368" rx="32" ry="48" color="#000" overflow="visible" fill="#d7ccc8"/><ellipse cy="368" cx="304" style="isolation:auto;mix-blend-mode:normal" rx="16" ry="32" color="#000" overflow="visible" fill="#263238"/><path style="isolation:auto;mix-blend-mode:normal" d="M256 48v240c16-32 32-80 32-128s-16-80-32-112z" color="#000" overflow="visible" fill="#eee"/><path style="isolation:auto;mix-blend-mode:normal" d="M256 16c80 0 128 32 128 64s-113.606 90.612-160 80c31.58-25.736 52.315-49.19 32-64-21.66 28.227-49.696 52.203-96 64l32-64c-23.264 4.044-59.224 48.716-96 96 16-96 80-176 160-176z" color="#000" overflow="visible" fill="#bcaaa4"/></svg>