<svg xmlns="http://www.w3.org/2000/svg" width="512" height="512"><g transform="translate(0 -548.362)"><path fill="#b71c1c" d="M344 612.362h64v147.077h-64z"/><path fill="#eceff1" d="m72 804.362 184-184 184 184 1.23 232H72z"/><path fill="#f44336" fill-rule="evenodd" d="m256 620.362-216 216-24-24 240-240 240 240-24 24z"/><path fill="#cfd8dc" fill-rule="evenodd" d="m72 836.362 184-184 184 184v-32l-184-184-184 184z"/><circle cx="256" cy="764.362" r="48" fill="#03a9f4"/><path fill="#0288d1" d="M256 716.362a48 48 0 0 0-48 48 48 48 0 0 0 .998 9.497A48 48 0 0 1 256 735.562a48 48 0 0 1 47.002 38.503 48 48 0 0 0 .998-9.703 48 48 0 0 0-48-48"/><path fill="#03a9f4" d="M104 868.362h64v96h-64z"/><path fill="#0288d1" d="M104 868.362h64v16h-64z"/><path fill="#ff9800" d="M216 884.362h80v152h-80z"/><path fill="#ef6c00" d="M216 884.362h80v16h-80z"/><circle cx="276" cy="968.362" r="12" fill="#ef6c00"/><circle cx="276" cy="960.362" r="12" fill="#ffeb3b"/><path fill="#03a9f4" d="M344 868.362h64v96h-64z"/><path fill="#0288d1" d="M344 868.362h64v16h-64z"/></g></svg>