<svg xmlns="http://www.w3.org/2000/svg" width="512" height="512"><g transform="translate(0 -548.362)"><path fill="#b71c1c" d="M344 612.362h64v147.077h-64z"/><path d="M72 804.362l184-184 184 184 1.23 232H72z" fill="#eceff1"/><path d="M256 620.362l-216 216-24-24 240-240 240 240-24 24z" fill="#f44336" fill-rule="evenodd"/><path d="M72 836.362l184-184 184 184v-32l-184-184-184 184z" fill="#cfd8dc" fill-rule="evenodd"/><circle r="48" cy="764.362" cx="256" fill="#03a9f4"/><path d="M256 716.362a48 48 0 0 0-48 48 48 48 0 0 0 .998 9.497A48 48 0 0 1 256 735.562a48 48 0 0 1 47.002 38.503 48 48 0 0 0 .998-9.703 48 48 0 0 0-48-48z" fill="#0288d1"/><path fill="#03a9f4" d="M104 868.362h64v96h-64z"/><path fill="#0288d1" d="M104 868.362h64v16h-64z"/><path fill="#ff9800" d="M216 884.362h80v152h-80z"/><path fill="#ef6c00" d="M216 884.362h80v16h-80z"/><circle cx="276" cy="968.362" r="12" fill="#ef6c00"/><circle r="12" cy="960.362" cx="276" fill="#ffeb3b"/><path fill="#03a9f4" d="M344 868.362h64v96h-64z"/><path fill="#0288d1" d="M344 868.362h64v16h-64z"/></g></svg>