<svg xmlns="http://www.w3.org/2000/svg" width="512" height="512"><path d="M180.788 256.384s-92.068 65.423-68.878 95.268c23.19 29.846 193.644 23.098 216.834 52.944 23.19 29.846-68.879 95.269-68.879 95.269" fill="none" stroke="#607d8b" stroke-width="8" stroke-linecap="round" stroke-linejoin="round"/><g fill="#f44336" fill-rule="evenodd"><path d="M125.747 305.701l-1.882-36-34.118 37.882 36-1.882M125.747 305.701l36-1.882-34.118 37.882-1.882-36"/></g><g fill="#03a9f4" fill-rule="evenodd"><path d="M295.774 469.484l-1.882-36-34.118 37.882 36-1.882M295.774 469.484l36-1.882-34.118 37.882-1.882-36"/></g><g fill="#ffc107" fill-rule="evenodd"><path d="M175.63 374.11l30-24.031-54.032-5.968 24.032 30"/><path d="M175.63 374.11l24.032 30-54.032-5.967 30-24.032"/></g><g fill="#8bc34a" fill-rule="evenodd"><path d="M260.465 385.914l30-24.032-54.033-5.968 24.033 30M260.465 385.914l24.032 30-54.032-5.967 30-24.033"/></g><g transform="rotate(45 317.456 224.083)"><path d="M96 160L240 16v144z" fill="#f44336" fill-rule="evenodd"/><path d="M384 160L240 16v144z" fill="#ffc107" fill-rule="evenodd"/><path d="M384 160L240 376V160z" fill="#42a5f5" fill-rule="evenodd"/><path d="M96 160l144 216V160z" fill="#7cb342" fill-rule="evenodd"/><rect ry="4" y="8" x="236" height="376" width="8" fill="#795548"/><rect ry="4" y="156" x="88" height="8" width="304" fill="#795548"/></g></svg>