<svg xmlns="http://www.w3.org/2000/svg" width="512" height="512"><path fill="none" stroke="#607d8b" stroke-linecap="round" stroke-linejoin="round" stroke-width="8" d="M180.788 256.384s-92.068 65.423-68.878 95.268c23.19 29.846 193.644 23.098 216.834 52.944s-68.879 95.269-68.879 95.269"/><path fill="#f44336" fill-rule="evenodd" d="m125.747 305.701-1.882-36-34.118 37.882zm0 0 36-1.882-34.118 37.882z"/><path fill="#03a9f4" fill-rule="evenodd" d="m295.774 469.484-1.882-36-34.118 37.882zm0 0 36-1.882-34.118 37.882z"/><path fill="#ffc107" fill-rule="evenodd" d="m175.63 374.11 30-24.031-54.032-5.968zm0 0 24.032 30-54.032-5.967 30-24.032"/><path fill="#8bc34a" fill-rule="evenodd" d="m260.465 385.914 30-24.032-54.033-5.968zm0 0 24.032 30-54.032-5.967z"/><g transform="rotate(45 317.456 224.083)"><path fill="#f44336" fill-rule="evenodd" d="M96 160 240 16v144z"/><path fill="#ffc107" fill-rule="evenodd" d="M384 160 240 16v144z"/><path fill="#42a5f5" fill-rule="evenodd" d="M384 160 240 376V160z"/><path fill="#7cb342" fill-rule="evenodd" d="m96 160 144 216V160z"/><rect width="8" height="376" x="236" y="8" fill="#795548" ry="4"/><rect width="304" height="8" x="88" y="156" fill="#795548" ry="4"/></g></svg>