<svg xmlns="http://www.w3.org/2000/svg" width="512" height="512"><g transform="rotate(-45 -35.436 -296.73)scale(1.54419)"><path fill="#cfd8dc" d="M-352 184c8 16 55.167 39.984 88 40h144v-24h56v-24h-200c-32.821.012-80 0-88 8"/><path fill="#eceff1" d="M-344.83 180.6c-3.328.932-5.819 2.049-7.17 3.4 8 16 55.167 39.984 88 40h144v-8h-140c-29.809-.015-71.429-19.785-84.83-35.4"/><circle cx="28" cy="204" r="28" fill="#795548"/><path fill="#795548" d="M-96 176H32v32H-96z"/><circle cx="-96" cy="200" r="24" fill="#795548"/><ellipse cx="-40" cy="208" fill="#795548" rx="48" ry="16"/><circle cx="-96" cy="200" r="8" fill="#eceff1"/><path fill="#5d4037" d="M-119.65 195.92A24 24 0 0 0-120 200a24 24 0 0 0 24 24 24 24 0 0 0 16.756-6.82A48 16 0 0 0-40 224a48 16 0 0 0 42.477-8.574A28 28 0 0 0 28 232a28 28 0 0 0 28-28 28 28 0 0 0-.32-3.96A28 28 0 0 1 28 224a28 28 0 0 1-25.523-16.574A48 16 0 0 1-40 216a48 16 0 0 1-39.244-6.82A24 24 0 0 1-96 216a24 24 0 0 1-23.65-20.08"/><path fill="#a1887f" d="M-96 176a24 24 0 0 0-23.637 19.998l-.013-.078a24 24 0 0 0-.1.818 24 24 0 0 0-.148 1.229A24 24 0 0 0-120 200a24 24 0 0 0 .102 2.03 24 24 0 0 0 .148 1.234 24 24 0 0 0 .1.656l.002.014.011.064A24 24 0 0 1-96 184H32v.322a28 28 0 0 1 23.662 23.78l.05-.332a28 28 0 0 0 .167-1.377A28 28 0 0 0 56 204a28 28 0 0 0-.162-2.744l-.043-.342A28 28 0 0 0 32 176.322V176h-4z"/><path fill="#eceff1" d="M-256 176c-1.42 0-2.988.005-4.457.006l-38.479 38.479a166 166 0 0 0 8.295 3.017L-249.139 176zm18.178 0-44.13 44.129c6.502 1.747 12.961 2.985 19.087 3.539l47.67-47.668zm56.568 0-48.002 48H-184l48-48z"/></g></svg>