<svg xmlns="http://www.w3.org/2000/svg" width="512" height="512"><g fill-rule="evenodd" color="#000" font-family="sans-serif" font-weight="400"><path fill="#90a4ae" d="M210.054 119.716c-15.715 16.263-19.694 36.454-20.867 53.932s.44 34.315 1.664 49.963 2.046 30.08 1.108 40.167c-.937 10.086-3.289 13.992-4.299 15.002L53.761 412.68c-12.887 12.526-13.033 33.175-.324 45.883s33.357 12.563 45.884-.324l133.9-133.9c16.074-16.075 21.221-36.616 22.893-54.597 1.672-17.98.217-35.236-1.027-51.153-1.245-15.917-2.291-30.524-1.613-40.626s3.061-13.628 2.914-13.476c7.338-7.594 13.165-8.228 24.502-5.81 11.338 2.417 25.296 10.83 32.06 17.593 12.527 12.887 33.176 13.033 45.884.325s12.562-33.357-.325-45.884c-16.016-16.017-37.742-29.41-64.18-35.047-26.439-5.638-60.477-.577-84.275 24.052" overflow="visible" style="line-height:normal;text-indent:0;text-align:start;text-decoration-line:none;text-decoration-style:solid;text-decoration-color:#000;text-transform:none;block-progression:tb;isolation:auto;mix-blend-mode:normal"/><path fill="#607d8b" d="M141.436 324.362a32.22 32.22 0 0 0 .665 45.537c56.95 56.95 158.7 69.1 227.798 0 69.1-69.099 56.95-170.849 0-227.798a32.219 32.219 0 1 0-45.56 45.56c34.17 34.17 44.801 91.878 0 136.679-44.8 44.8-102.509 34.17-136.679 0a32.22 32.22 0 0 0-46.224.022" overflow="visible" style="line-height:normal;text-indent:0;text-align:start;text-decoration-line:none;text-decoration-style:solid;text-decoration-color:#000;text-transform:none;block-progression:tb;isolation:auto;mix-blend-mode:normal"/><path fill="#455a64" d="M119.716 210.054c-27.405 26.48-26.394 65.06-17.566 92.966s23.934 50.863 39.95 66.88c12.528 12.886 33.177 13.032 45.885.324s12.562-33.357-.325-45.884c-6.763-6.764-19.156-25.187-24.08-40.75-4.923-15.565-3.911-22.546.907-27.202-.152.147 3.374-2.236 13.476-2.914s24.71.368 40.626 1.613c15.917 1.244 33.173 2.699 51.153 1.027s38.522-6.819 54.598-22.894l133.899-133.9c12.887-12.526 13.033-33.175.324-45.883s-33.357-12.563-45.884.324l-133.9 133.9c-1.009 1.009-4.914 3.36-15.001 4.298s-24.518.116-40.167-1.108c-15.648-1.223-32.484-2.837-49.963-1.664s-37.669 5.152-53.932 20.867" overflow="visible" style="line-height:normal;text-indent:0;text-align:start;text-decoration-line:none;text-decoration-style:solid;text-decoration-color:#000;text-transform:none;block-progression:tb;isolation:auto;mix-blend-mode:normal"/><path fill="#607d8b" d="M119.716 210.054c-27.405 26.48-26.393 65.06-17.566 92.966 8.828 27.907 23.935 50.863 39.951 66.88a32.219 32.219 0 1 0 45.56-45.56c-6.763-6.763-19.157-25.186-24.08-40.75s-3.912-22.546.907-27.201c-.153.147 3.373-2.237 13.475-2.915s24.71.368 40.627 1.613c12.064.943 24.897 2.003 38.232 1.735l-68.008-68.008c-4.994-.055-10.047.03-15.165.374-17.479 1.173-37.669 5.151-53.933 20.866" overflow="visible" style="line-height:normal;text-indent:0;text-align:start;text-decoration-line:none;text-decoration-style:solid;text-decoration-color:#000;text-transform:none;block-progression:tb;isolation:auto;mix-blend-mode:normal"/><path fill="#90a4ae" d="M210.054 119.716c-15.715 16.264-19.693 36.454-20.866 53.933s.44 34.314 1.664 49.963c1.224 15.648 2.046 30.08 1.108 40.166-.938 10.087-3.29 13.993-4.299 15.002l45.56 45.56c16.075-16.075 21.222-36.617 22.894-54.597s.217-35.236-1.028-51.153c-1.244-15.917-2.29-30.525-1.613-40.627.534-7.95 2.08-11.73 2.661-12.947l-45.689-45.689c-.129.132-.263.256-.392.39z" overflow="visible" style="line-height:normal;text-indent:0;text-align:start;text-decoration-line:none;text-decoration-style:solid;text-decoration-color:#000;text-transform:none;block-progression:tb;isolation:auto;mix-blend-mode:normal"/></g></svg>