<svg xmlns="http://www.w3.org/2000/svg" width="512" height="512"><g transform="translate(34.024 5.094)"><path fill="#ffcdd2" d="M254.047 22.404c-23.973 17.297-56.926 44.85-74.12 55.905C146.17 100.014 126.336 98.506 108 140c-10.984 24.858 5.878 43.729 14.74 65.963 5.931 14.88 6.674 36.511 9.875 53.834 7.985 43.205 4.701 135.702 4.701 145.025s-23.309 32.632-51.279 41.955-37.292 9.323-51.277 13.985-9.324 18.646 0 18.646h51.277c18.647 0 37.294-4.66 51.28-4.66 13.984 0 23.308 4.66 41.954 4.66s23.308.001 32.631-9.322 4.662-37.294-4.662-51.28c-9.323-13.984-9.322-18.645-9.322-51.277 0 0 21.618-92.436 21.363-124.652s-4.43-43.12-17.129-57.852c108.153-25.722 187.698-80.87 208.93-137.379a230 230 0 0 0 7.885-25.242z" color="#000" overflow="visible" style="isolation:auto;mix-blend-mode:normal"/><path fill="#f8bbd0" d="M181.867 410.248c2.679 10.88 2.533 22.638-2.592 27.763-6.987 6.987-10.904 7.809-22.604 7.906 2.953.476 6.236.86 10.288.86 10.697 0 13.371 0 18.72-5.348 5.348-5.35 2.674-21.395-2.674-29.418a66 66 0 0 1-1.138-1.763" color="#000" overflow="visible" style="isolation:auto;mix-blend-mode:normal"/><ellipse cx="-75.79" cy="456.89" fill="#fce4ec" color="#000" overflow="visible" rx="13.75" ry="3.131" style="isolation:auto;mix-blend-mode:normal" transform="rotate(-14.167)"/><path fill="#f8bbd0" d="M413.91 22.404a231 231 0 0 1-6.828 21.242c-21.232 56.509-100.777 111.657-208.93 137.38 12.7 14.73 16.875 25.635 17.13 57.85.254 32.217-21.364 124.653-21.364 124.653 0 32.632-.001 37.293 9.322 51.278 9.324 13.985 13.986 41.956 4.662 51.279-9.323 9.323-13.984 9.322-32.63 9.322s-27.97-4.66-41.956-4.66c-13.985 0-32.632 4.66-51.279 4.66H30.76a8.8 8.8 0 0 1-3.897-.9c1.408 2.82 4.303 4.9 7.897 4.9h51.277c18.647 0 37.294-4.66 51.28-4.66 13.984 0 23.308 4.66 41.954 4.66s23.308.001 32.631-9.322 4.662-37.294-4.662-51.28c-9.323-13.984-9.322-18.645-9.322-51.277 0 0 21.618-92.436 21.363-124.652s-4.43-43.12-17.129-57.852c108.153-25.722 187.698-80.87 208.93-137.379a230 230 0 0 0 7.885-25.242z" color="#000" overflow="visible" style="isolation:auto;mix-blend-mode:normal"/><path fill="#f8bbd0" fill-rule="evenodd" d="M268.945 56.01s-120.607 98.288-111.011 127.978c20.261-15.54 41.142-1.9 41.142-1.9l60.387-17.543s-48.585 4.349-58.104-18.446c-9.52-22.796 67.586-90.089 67.586-90.089m-56.991 233.975s2.378-13.254 2.54-22.015c-.3 3.44-7.661 19.936-25.194 16.17-17.533-3.767-29.23-46.405-29.23-46.405-1.293 38.093 1.42 75.785 9.865 112.904 0 0 1.425-44.385 12.057-50.788s29.962-9.866 29.962-9.866"/></g></svg>