<svg xmlns="http://www.w3.org/2000/svg" width="512" height="512"><g fill-opacity=".995"><path fill="#b0bec5" d="M208 191.835v64h96v-64h-88z"/><path fill="#f44336" d="M256 223.835a192 80 0 0 0-93.018 10.12 168 84 0 0 0-.004.001 192 80 0 0 0-.023.006 192 80 0 0 0-16.09 4.162 192 80 0 0 0-.508.153 192 80 0 0 0-14.527 4.658 192 80 0 0 0-.98.357 192 80 0 0 0-12.82 5.035 192 80 0 0 0-1.419.633 192 80 0 0 0-11.02 5.287 192 80 0 0 0-1.773.973 192 80 0 0 0-9.201 5.426 192 80 0 0 0-2.008 1.365 192 80 0 0 0-7.388 5.44 192 80 0 0 0-2.092 1.804 192 80 0 0 0-5.655 5.346 192 80 0 0 0-2 2.283 192 80 0 0 0-4.025 5.147 192 80 0 0 0-1.7 2.775 192 80 0 0 0-2.544 4.855 192 80 0 0 0-1.19 3.278 192 80 0 0 0-1.246 4.494 192 80 0 0 0-.705 5.869H64v32.533h192.098v-32H448a192 80 0 0 0-.317-3.734 192 80 0 0 0-.505-3.096 192 80 0 0 0-1.143-3.926 192 80 0 0 0-1.45-3.994 192 80 0 0 0-2.07-3.846 192 80 0 0 0-2.414-3.935 192 80 0 0 0-2.966-3.719 192 80 0 0 0-3.352-3.826 192 80 0 0 0-3.848-3.582 192 80 0 0 0-4.242-3.658 192 80 0 0 0-4.67-3.395 192 80 0 0 0-5.146-3.496 192 80 0 0 0-5.408-3.15 192 80 0 0 0-5.967-3.27 192 80 0 0 0-6.166-2.926 192 80 0 0 0-6.725-3.008 192 80 0 0 0-6.761-2.623 192 80 0 0 0-7.49-2.742 192 80 0 0 0-7.3-2.312 192 80 0 0 0-8.14-2.426 192 80 0 0 0-13.024-3.326 192 80 0 0 0-1.007-.25 192 80 0 0 0-.002 0 168 84 0 0 0-.002 0 192 80 0 0 0-3.762-.758 192 80 0 0 0-3.957-.795 192 80 0 0 0-13.584-2.53 192 80 0 0 0-3.848-.585 192 80 0 0 0-14.414-1.99 192 80 0 0 0-11.373-1.21 192 80 0 0 0-.05-.005A192 80 0 0 0 256 223.835"/><path fill="#ef5350" d="M48 303.835c-8.864 0-16 7.136-16 16 0 5.292 2.556 9.954 6.492 12.863l.01.008.037.028q.51.375 1.051.709l.203.123.016.008a16 16 0 0 0 1.017.558q.148.074.297.143a16 16 0 0 0 .978.432c.157.062.318.116.477.174.3.107.6.212.908.302l.006.002c.203.06.41.107.616.159.269.067.536.138.81.19.288.057.582.093.875.134.215.03.426.069.643.09q.772.075 1.564.077h416c8.864 0 16-7.136 16-16s-7.136-16-16-16H88z"/><path fill="#cfd8dc" d="M203.444 176.165c-4.432 0-8 3.568-8 8a8 8 0 0 0 .162 1.615 7.97 7.97 0 0 0 3.066 4.803l.002.002.055.04q.256.188.527.354l.069.041q.265.16.543.3l.113.054.006.002q.255.124.522.228l.006.002q.103.04.207.077.224.083.453.152l.004.002c.1.03.203.052.304.078l.028.006c.134.033.267.07.404.096.115.022.233.035.35.053q.014.001.027.004c.123.017.246.04.371.052q.385.038.78.039h105.113c4.432 0 8-3.568 8-8s-3.568-8-8-8h-97.112z"/><path fill="#e53935" d="M256 303.835v32h208c8.864 0 16-7.136 16-16s-7.136-16-16-16H364z"/><path fill="#90a4ae" d="M256 191.835v64h48v-64h-32z"/><path fill="#d32f2f" d="M256 223.835v80h192a192 80 0 0 0-.317-3.734 192 80 0 0 0-.505-3.096 192 80 0 0 0-1.143-3.926 192 80 0 0 0-1.45-3.994 192 80 0 0 0-2.07-3.846 192 80 0 0 0-2.414-3.935 192 80 0 0 0-2.966-3.719 192 80 0 0 0-3.352-3.826 192 80 0 0 0-3.848-3.582 192 80 0 0 0-4.242-3.658 192 80 0 0 0-4.67-3.395 192 80 0 0 0-5.146-3.496 192 80 0 0 0-5.408-3.15 192 80 0 0 0-5.967-3.27 192 80 0 0 0-6.166-2.926 192 80 0 0 0-6.725-3.008 192 80 0 0 0-6.761-2.623 192 80 0 0 0-7.49-2.742 192 80 0 0 0-7.3-2.312 192 80 0 0 0-8.14-2.426 192 80 0 0 0-13.024-3.326 192 80 0 0 0-1.007-.25 192 80 0 0 0-.002 0 168 84 0 0 0-.002 0 192 80 0 0 0-3.762-.758 192 80 0 0 0-3.957-.795 192 80 0 0 0-13.584-2.53 192 80 0 0 0-3.848-.585 192 80 0 0 0-14.414-1.99 192 80 0 0 0-11.373-1.21 192 80 0 0 0-.05-.005A192 80 0 0 0 256 223.835"/><path fill="#b0bec5" d="M256 176.165v16h52.557c4.432 0 8-3.568 8-8s-3.568-8-8-8h-35.114z"/></g></svg>