<svg xmlns="http://www.w3.org/2000/svg" xmlns:xlink="http://www.w3.org/1999/xlink" width="512" height="512"><defs><lineargradient xlink:href="#a" id="b" gradientunits="userSpaceOnUse" gradienttransform="matrix(1.9285714,0,0,1.9285714,2978.2577,727.52696)" x1="312" y1="344" x2="312" y2="368"/></defs><path style="line-height:normal;text-indent:0;text-align:start;text-decoration-line:none;text-decoration-style:solid;text-decoration-color:#000;text-transform:none;block-progression:tb;isolation:auto;mix-blend-mode:normal" d="M224.379 55.969a8 8 0 0 0-2.908.441l-96 32c-7.593 2.532-7.175 13.41.59 15.352l103.996 26-137.028 54.81c-6.918 2.77-6.627 12.66.442 15.018l172.037 57.346-204.658 87.71c-6.36 2.728-6.493 11.695-.217 14.61L325.27 479.84a8 8 0 1 0 6.734-14.514L83.631 352.291l207.52-88.937c6.76-2.899 6.356-12.617-.622-14.944l-171.28-57.094 139.722-55.888c7.204-2.884 6.497-13.306-1.032-15.19L156.594 94.902l69.935-23.312c8.562-2.721 6.829-15.315-2.15-15.621z" color="#000" font-weight="400" font-family="sans-serif" white-space="normal" overflow="visible" fill="#546e7a" fill-rule="evenodd"/><g transform="rotate(30 435.512 265.261)"><path d="M416 440v2l4 10 12 24 8 12c4 8 12 8 16 0l8-12 12-24 4-10v-2z" fill="#d7ccc8" fill-rule="evenodd"/><path d="M416 240v200c0 8.837 14.327 16 32 16 17.673 0 32-27.163 32-36V240z" style="isolation:auto;mix-blend-mode:normal" color="#000" overflow="visible" fill="#f44336"/><path d="M448 440v54c3 0 6-2 8-6l8-12 12-24 4-10v-2h-32z" fill="#bcaaa4" fill-rule="evenodd"/><path d="M448 240v216c17.673 0 32-7.163 32-16V240z" style="isolation:auto;mix-blend-mode:normal" color="#000" overflow="visible" fill="#d32f2f"/><ellipse ry="16" rx="32" cy="240" cx="448" style="isolation:auto;mix-blend-mode:normal" color="#000" overflow="visible" fill="#d7ccc8"/><ellipse ry="8" rx="16" style="isolation:auto;mix-blend-mode:normal" cx="448" cy="240" color="#000" overflow="visible" fill="#607d8b"/><path d="M432 476l8 16c4 8 12 8 16 0l8-16c-7 6-25 6-32 0z" fill="#607d8b" fill-rule="evenodd"/><path d="M464 476c-3.5 3-9.75 4.5-16 4.5V498c3 0 6-2 8-6l8-16z" fill="#455a64" fill-rule="evenodd"/><path d="M448 224v32a32 16 0 0 0 32-16 32 16 0 0 0-32-16z" style="isolation:auto;mix-blend-mode:normal" color="#000" overflow="visible" fill="#bcaaa4"/><path d="M448 232v16a16 8 0 0 0 16-8 16 8 0 0 0-16-8z" style="isolation:auto;mix-blend-mode:normal" color="#000" overflow="visible" fill="#546e7a"/></g></svg>