<svg xmlns="http://www.w3.org/2000/svg" width="512" height="512"><path fill="#546e7a" fill-rule="evenodd" d="M224.379 55.969a8 8 0 0 0-2.908.441l-96 32c-7.593 2.532-7.175 13.41.59 15.352l103.996 26-137.028 54.81c-6.918 2.77-6.627 12.66.442 15.018l172.037 57.346-204.658 87.71c-6.36 2.728-6.493 11.695-.217 14.61L325.27 479.84a8 8 0 1 0 6.734-14.514L83.631 352.291l207.52-88.937c6.76-2.899 6.356-12.617-.622-14.944l-171.28-57.094 139.722-55.888c7.204-2.884 6.497-13.306-1.032-15.19L156.594 94.902l69.935-23.312c8.562-2.721 6.829-15.315-2.15-15.621" color="#000" font-family="sans-serif" font-weight="400" overflow="visible" style="line-height:normal;text-indent:0;text-align:start;text-decoration-line:none;text-decoration-style:solid;text-decoration-color:#000;text-transform:none;block-progression:tb;isolation:auto;mix-blend-mode:normal"/><g transform="rotate(30 435.512 265.261)"><path fill="#d7ccc8" fill-rule="evenodd" d="M416 440v2l4 10 12 24 8 12c4 8 12 8 16 0l8-12 12-24 4-10v-2z"/><path fill="#f44336" d="M416 240v200c0 8.837 14.327 16 32 16s32-27.163 32-36V240z" color="#000" overflow="visible" style="isolation:auto;mix-blend-mode:normal"/><path fill="#bcaaa4" fill-rule="evenodd" d="M448 440v54c3 0 6-2 8-6l8-12 12-24 4-10v-2z"/><path fill="#d32f2f" d="M448 240v216c17.673 0 32-7.163 32-16V240z" color="#000" overflow="visible" style="isolation:auto;mix-blend-mode:normal"/><ellipse cx="448" cy="240" fill="#d7ccc8" color="#000" overflow="visible" rx="32" ry="16" style="isolation:auto;mix-blend-mode:normal"/><ellipse cx="448" cy="240" fill="#607d8b" color="#000" overflow="visible" rx="16" ry="8" style="isolation:auto;mix-blend-mode:normal"/><path fill="#607d8b" fill-rule="evenodd" d="m432 476 8 16c4 8 12 8 16 0l8-16c-7 6-25 6-32 0"/><path fill="#455a64" fill-rule="evenodd" d="M464 476c-3.5 3-9.75 4.5-16 4.5V498c3 0 6-2 8-6z"/><path fill="#bcaaa4" d="M448 224v32a32 16 0 0 0 32-16 32 16 0 0 0-32-16" color="#000" overflow="visible" style="isolation:auto;mix-blend-mode:normal"/><path fill="#546e7a" d="M448 232v16a16 8 0 0 0 16-8 16 8 0 0 0-16-8" color="#000" overflow="visible" style="isolation:auto;mix-blend-mode:normal"/></g></svg>