<svg xmlns="http://www.w3.org/2000/svg" width="512" height="512"><path fill="#8d6e63" d="M352 16c-38.896.03-75.66 11.112-99.914 30.117L252 46 53 212l219 284 192-160z" color="#000" overflow="visible" style="isolation:auto;mix-blend-mode:normal"/><ellipse cx="160" cy="256" fill="#8d6e63" color="#000" overflow="visible" rx="128" ry="80" style="isolation:auto;mix-blend-mode:normal"/><path fill="#795548" d="M352 16 160 176l112 320 193.242-362.828C474.904 121.71 479.97 108.955 480 96c0-44.183-57.308-80-128-80" color="#000" overflow="visible" style="isolation:auto;mix-blend-mode:normal"/><path fill="#6d4c41" d="M273.274 293.254 272 496l192-160c15.572-62.29 15.982-139.728 1.242-202.828z" color="#000" overflow="visible" style="isolation:auto;mix-blend-mode:normal"/><path fill="#8d6e63" d="M48 288h224c16 64 16 144 0 208H48c-16-64-16-144 0-208" color="#000" overflow="visible" style="isolation:auto;mix-blend-mode:normal"/><path fill="#795548" d="M160 176v320h112c15.572-62.29 15.982-139.728 1.242-202.828A128 80 0 0 0 288 256a128 80 0 0 0-128-80" color="#000" overflow="visible" style="isolation:auto;mix-blend-mode:normal"/><path fill="#efebe9" d="M64 288h192q24 96 0 192H64q-24-96 0-192" color="#000" overflow="visible" style="isolation:auto;mix-blend-mode:normal"/><ellipse cx="160" cy="256" fill="#efebe9" color="#000" overflow="visible" rx="112" ry="64" style="isolation:auto;mix-blend-mode:normal"/><path fill="#d7ccc8" d="M256 288q24 96 0 192H64z" color="#000" overflow="visible" style="isolation:auto;mix-blend-mode:normal"/><circle cx="88" cy="248" r="8" fill="#bcaaa4" color="#000" opacity=".52" overflow="visible" style="isolation:auto;mix-blend-mode:normal"/><circle cx="144" cy="256" r="16" fill="#bcaaa4" color="#000" opacity=".52" overflow="visible" style="isolation:auto;mix-blend-mode:normal"/><circle cx="96" cy="368" r="16" fill="#bcaaa4" color="#000" opacity=".52" overflow="visible" style="isolation:auto;mix-blend-mode:normal"/><circle cx="192" cy="448" r="16" fill="#bcaaa4" color="#000" opacity=".52" overflow="visible" style="isolation:auto;mix-blend-mode:normal"/><circle cx="232" cy="376" r="8" fill="#bcaaa4" color="#000" opacity=".52" overflow="visible" style="isolation:auto;mix-blend-mode:normal"/><circle cx="216" cy="232" r="8" fill="#bcaaa4" color="#000" opacity=".52" overflow="visible" style="isolation:auto;mix-blend-mode:normal"/><circle cx="128" cy="456" r="8" fill="#bcaaa4" color="#000" opacity=".52" overflow="visible" style="isolation:auto;mix-blend-mode:normal"/><circle cx="160" cy="336" r="16" fill="#bcaaa4" color="#000" opacity=".52" overflow="visible" style="isolation:auto;mix-blend-mode:normal"/><circle cx="104" cy="312" r="8" fill="#bcaaa4" color="#000" opacity=".52" overflow="visible" style="isolation:auto;mix-blend-mode:normal"/><circle cx="240" cy="416" r="16" fill="#bcaaa4" color="#000" opacity=".52" overflow="visible" style="isolation:auto;mix-blend-mode:normal"/><circle cx="200" cy="280" r="8" fill="#bcaaa4" color="#000" opacity=".52" overflow="visible" style="isolation:auto;mix-blend-mode:normal"/><circle cx="88" cy="424" r="8" fill="#bcaaa4" color="#000" opacity=".52" overflow="visible" style="isolation:auto;mix-blend-mode:normal"/><circle cx="184" cy="392" r="8" fill="#bcaaa4" color="#000" opacity=".52" overflow="visible" style="isolation:auto;mix-blend-mode:normal"/></svg>