<svg xmlns="http://www.w3.org/2000/svg" width="512" height="512"><path style="isolation:auto;mix-blend-mode:normal" d="M352 16c-38.896.03-75.66 11.112-99.914 30.117L252 46 53 212l219 284 192-160z" color="#000" overflow="visible" fill="#8d6e63"/><ellipse ry="80" rx="128" cy="256" cx="160" style="isolation:auto;mix-blend-mode:normal" color="#000" overflow="visible" fill="#8d6e63"/><path d="M352 16L160 176l112 320 193.242-362.828C474.904 121.71 479.97 108.955 480 96c0-44.183-57.308-80-128-80z" style="isolation:auto;mix-blend-mode:normal" color="#000" overflow="visible" fill="#795548"/><path style="isolation:auto;mix-blend-mode:normal" d="M273.274 293.254L272 496l192-160c15.572-62.29 15.982-139.728 1.242-202.828z" color="#000" overflow="visible" fill="#6d4c41"/><path d="M48 288h224c16 64 16 144 0 208H48c-16-64-16-144 0-208z" style="isolation:auto;mix-blend-mode:normal" color="#000" overflow="visible" fill="#8d6e63"/><path style="isolation:auto;mix-blend-mode:normal" d="M160 176v320h112c15.572-62.29 15.982-139.728 1.242-202.828A128 80 0 0 0 288 256a128 80 0 0 0-128-80z" color="#000" overflow="visible" fill="#795548"/><path style="isolation:auto;mix-blend-mode:normal" d="M64 288h192c16 64 16 128 0 192H64c-16-64-16-128 0-192z" color="#000" overflow="visible" fill="#efebe9"/><ellipse style="isolation:auto;mix-blend-mode:normal" cx="160" cy="256" rx="112" ry="64" color="#000" overflow="visible" fill="#efebe9"/><path d="M256 288c16 64 16 128 0 192H64z" style="isolation:auto;mix-blend-mode:normal" color="#000" overflow="visible" fill="#d7ccc8"/><circle style="isolation:auto;mix-blend-mode:normal" cx="88" cy="248" r="8" color="#000" overflow="visible" opacity=".52" fill="#bcaaa4"/><circle r="16" cy="256" cx="144" style="isolation:auto;mix-blend-mode:normal" color="#000" overflow="visible" opacity=".52" fill="#bcaaa4"/><circle style="isolation:auto;mix-blend-mode:normal" cx="96" cy="368" r="16" color="#000" overflow="visible" opacity=".52" fill="#bcaaa4"/><circle r="16" cy="448" cx="192" style="isolation:auto;mix-blend-mode:normal" color="#000" overflow="visible" opacity=".52" fill="#bcaaa4"/><circle style="isolation:auto;mix-blend-mode:normal" cx="232" cy="376" r="8" color="#000" overflow="visible" opacity=".52" fill="#bcaaa4"/><circle r="8" cy="232" cx="216" style="isolation:auto;mix-blend-mode:normal" color="#000" overflow="visible" opacity=".52" fill="#bcaaa4"/><circle style="isolation:auto;mix-blend-mode:normal" cx="128" cy="456" r="8" color="#000" overflow="visible" opacity=".52" fill="#bcaaa4"/><circle r="16" cy="336" cx="160" style="isolation:auto;mix-blend-mode:normal" color="#000" overflow="visible" opacity=".52" fill="#bcaaa4"/><circle style="isolation:auto;mix-blend-mode:normal" cx="104" cy="312" r="8" color="#000" overflow="visible" opacity=".52" fill="#bcaaa4"/><circle style="isolation:auto;mix-blend-mode:normal" cx="240" cy="416" r="16" color="#000" overflow="visible" opacity=".52" fill="#bcaaa4"/><circle style="isolation:auto;mix-blend-mode:normal" cx="200" cy="280" r="8" color="#000" overflow="visible" opacity=".52" fill="#bcaaa4"/><circle r="8" cy="424" cx="88" style="isolation:auto;mix-blend-mode:normal" color="#000" overflow="visible" opacity=".52" fill="#bcaaa4"/><circle r="8" cy="392" cx="184" style="isolation:auto;mix-blend-mode:normal" color="#000" overflow="visible" opacity=".52" fill="#bcaaa4"/></svg>