<svg xmlns="http://www.w3.org/2000/svg" width="512" height="512"><path fill="#01579b" d="m70.445 496 20.487-82.506 27.955-62.821 85.57-26.06 61.852-9.02 41.234 9.02 85.851 26.06 27.544 64.144L441.555 496H266.31z"/><path fill="#b3e5fc" d="m145.06 496 16.746-99.285 18.84-36.104 28.257-36.103 56.516-14.234 37.678 14.234 28.258 36.103 18.839 36.104L369.032 496H266.466z"/><path fill="#f8bbd0" d="M208.903 283.326h94.194v50.705L256 407.784l-47.097-73.753z"/><path fill="#ffcdd2" d="m378.452 186.526-18.84 55.314-28.257 27.658-23.549 23.047-23.548 9.22h-56.516l-23.548-9.22-23.549-23.047-28.258-32.267-18.839-50.705 9.42-55.315 18.838-63.389L256 49.384l94.194 18.438 18.838 63.389z"/><path fill="#616161" d="M227.742 151.954a18.839 20.743 0 0 1-18.839 20.743 18.839 20.743 0 0 1-18.838-20.743 18.839 20.743 0 0 1 18.838-20.743 18.839 20.743 0 0 1 18.839 20.743m94.194 0a18.839 20.743 0 0 1-18.84 20.743 18.839 20.743 0 0 1-18.838-20.743 18.839 20.743 0 0 1 18.839-20.743 18.839 20.743 0 0 1 18.839 20.743"/><path fill="#ffcdd2" d="m103.945 150.795 9.419 46.095 28.258 27.657h9.42l18.838-55.314-28.258-36.877h-28.258z"/><path fill="#f8bbd0" d="m132.203 196.89 9.42-9.219v-27.658l-9.42-9.218-9.42 18.438z"/><path fill="#ffcdd2" d="m408.055 150.795-9.419 46.095-28.258 27.657h-9.42l-18.838-55.314 28.258-36.877h28.258z"/><path fill="#f8bbd0" d="m379.797 196.89-9.42-9.219v-27.658l9.42-9.218 9.42 18.438z"/><g clip-path="url(#d)" transform="translate(-559.307 -505.143)scale(2.01843)"><path fill="#eee" fill-rule="evenodd" d="m463.93 322.192-4-2.353-4.666-13.703-7.334-9.944-20-14-6 6-20-1.19-16 1.19-7.333-1.19L376 280l-18.07 12.192-6 14v12l-4 4-8-28 8-16 12-4L372 264l13.264-4.106 18.666-1.702 18.667 1.702 13.333 2.298 10 11.405 14 8.595 8 12z"/></g><path fill="#f8bbd0" d="m218.323 241.84 4.71-9.219 32.967 4.61 32.968-4.61 4.71 9.22-25.119 18.438h-25.118z"/><path fill="#eee" d="m239.993 269.935-40.369-32.294-16.147-32.295-16.148-16.148-16.147-56.516-8.074 8.074 8.074 48.442-8.074 24.221 8.074 24.222 8.074 24.22h8.073l8.074 24.222h16.148l8.073 16.147 16.148 8.074 16.147-8.074 8.074 16.148h32.295l8.074-16.148 16.147 8.074 16.148-8.074 8.073-16.147h16.148l8.074-24.221h8.073l8.074-24.221 8.074-24.222-8.074-24.22 16.148-48.443-8.074-8.074-40.369 72.664-16.147 32.295-32.295 32.294z"/><path fill="#eee" d="m183.477 205.346 16.147-8.074 16.148 8.074h64.59l16.147-8.074 16.148 8.074 16.147 16.147-16.147 16.148-16.148-16.148h-16.147l-16.148 8.074h-16.147l-16.148-8.074h-16.147l-16.148 16.148z"/></svg>