<svg xmlns="http://www.w3.org/2000/svg" width="512" height="512"><path fill="#455a64" fill-opacity=".995" d="M16 108v228.481L20 344l104 96 12 8h264V96H28c-6 0-12 6-12 12"/><circle cx="48" cy="352" r="8" fill="#37474f" fill-opacity=".995"/><circle cx="80" cy="352" r="8" fill="#37474f" fill-opacity=".995"/><circle cx="112" cy="352" r="8" fill="#37474f" fill-opacity=".995"/><circle cx="112" cy="384" r="8" fill="#37474f" fill-opacity=".995"/><circle cx="288" cy="112" r="8" fill="#37474f" fill-opacity=".995"/><circle cx="320" cy="112" r="8" fill="#37474f" fill-opacity=".995"/><circle cx="336" cy="128" r="8" fill="#37474f" fill-opacity=".995"/><circle cx="336" cy="160" r="8" fill="#37474f" fill-opacity=".995"/><circle cx="336" cy="192" r="8" fill="#37474f" fill-opacity=".995"/><circle cx="336" cy="224" r="8" fill="#37474f" fill-opacity=".995"/><circle cx="336" cy="256" r="8" fill="#37474f" fill-opacity=".995"/><circle cx="336" cy="288" r="8" fill="#37474f" fill-opacity=".995"/><circle cx="336" cy="320" r="8" fill="#37474f" fill-opacity=".995"/><circle cx="336" cy="352" r="8" fill="#37474f" fill-opacity=".995"/><path fill="#ffb300" fill-opacity=".995" d="M416 24a80 80 0 0 0-80 80v260h160V104a80 80 0 0 0-80-80"/><circle cx="304" cy="128" r="8" fill="#37474f" fill-opacity=".995"/><path fill="#ffa000" fill-opacity=".995" d="M416 24v336h80V104a80 80 0 0 0-80-80"/><path fill="#ff8f00" fill-opacity=".995" d="M416 24v1.703A80 80 0 0 1 480 104v256h16V104a80 80 0 0 0-80-80"/><path fill="#ffc107" fill-opacity=".995" d="M416 24v1.703A80 80 0 0 0 352 104v256h-16V104a80 80 0 0 1 80-80"/><ellipse cx="416" cy="374" fill="#455a64" fill-opacity=".995" rx="76" ry="78"/><path fill="#4fc3f7" fill-opacity=".995" d="M136 448h272v8H136z"/><circle cx="408" cy="372" r="16" fill="#263238" fill-opacity=".995"/><circle cx="288" cy="144" r="8" fill="#37474f" fill-opacity=".995"/><circle cx="336" cy="384" r="8" fill="#37474f" fill-opacity=".995"/><path fill="none" stroke="#4fc3f7" stroke-linecap="round" stroke-width="8.225" d="M415.947 359.924c6.163.293 9.8 6.726 8.956 12.39-1.243 8.333-10.021 13.05-17.89 11.457-10.501-2.127-16.328-13.327-13.959-23.389 2.985-12.673 16.638-19.62 28.889-16.46 14.846 3.828 22.92 19.951 18.963 34.387-4.665 17.021-23.267 26.224-39.888 21.465-19.196-5.496-29.53-26.583-23.967-45.387 6.324-21.372 29.9-32.84 50.887-26.469 23.55 7.15 36.151 33.218 28.97 56.387-7.973 25.726-36.535 39.463-61.885 31.472-27.904-8.796-42.777-39.854-33.975-67.385 9.618-30.082 43.173-46.091 72.885-36.477 32.26 10.439 49.406 46.492 38.979 78.385-11.26 34.438-49.81 52.72-83.885 41.48-36.616-12.079-56.035-53.13-43.982-89.384 12.899-38.794 56.45-59.351 94.884-46.484 40.973 13.718 62.667 59.769 48.986 100.383-11.7 34.73-46.218 57.622-82.672 55.887" transform="matrix(1.00874 0 0 .99978 -4.324 .081)"/><circle cx="32" cy="112" r="8" fill="#37474f" fill-opacity=".995"/><circle cx="64" cy="112" r="8" fill="#37474f" fill-opacity=".995"/><circle cx="48" cy="128" r="8" fill="#37474f" fill-opacity=".995"/><circle cx="32" cy="144" r="8" fill="#37474f" fill-opacity=".995"/><circle cx="64" cy="144" r="8" fill="#37474f" fill-opacity=".995"/><circle cx="48" cy="160" r="8" fill="#37474f" fill-opacity=".995"/><circle cx="32" cy="176" r="8" fill="#37474f" fill-opacity=".995"/><circle cx="64" cy="176" r="8" fill="#37474f" fill-opacity=".995"/><circle cx="48" cy="192" r="8" fill="#37474f" fill-opacity=".995"/><circle cx="32" cy="208" r="8" fill="#37474f" fill-opacity=".995"/><circle cx="64" cy="208" r="8" fill="#37474f" fill-opacity=".995"/><circle cx="48" cy="224" r="8" fill="#37474f" fill-opacity=".995"/><circle cx="32" cy="240" r="8" fill="#37474f" fill-opacity=".995"/><circle cx="64" cy="240" r="8" fill="#37474f" fill-opacity=".995"/><circle cx="48" cy="256" r="8" fill="#37474f" fill-opacity=".995"/><circle cx="32" cy="272" r="8" fill="#37474f" fill-opacity=".995"/><circle cx="64" cy="272" r="8" fill="#37474f" fill-opacity=".995"/><circle cx="48" cy="288" r="8" fill="#37474f" fill-opacity=".995"/><circle cx="32" cy="304" r="8" fill="#37474f" fill-opacity=".995"/><circle cx="64" cy="304" r="8" fill="#37474f" fill-opacity=".995"/><circle cx="48" cy="320" r="8" fill="#37474f" fill-opacity=".995"/><circle cx="32" cy="336" r="8" fill="#37474f" fill-opacity=".995"/><circle cx="80" cy="128" r="8" fill="#37474f" fill-opacity=".995"/><circle cx="80" cy="160" r="8" fill="#37474f" fill-opacity=".995"/><circle cx="80" cy="192" r="8" fill="#37474f" fill-opacity=".995"/><circle cx="80" cy="224" r="8" fill="#37474f" fill-opacity=".995"/><circle cx="80" cy="256" r="8" fill="#37474f" fill-opacity=".995"/><circle cx="80" cy="288" r="8" fill="#37474f" fill-opacity=".995"/><circle cx="80" cy="320" r="8" fill="#37474f" fill-opacity=".995"/><circle cx="96" cy="112" r="8" fill="#37474f" fill-opacity=".995"/><circle cx="128" cy="112" r="8" fill="#37474f" fill-opacity=".995"/><circle cx="112" cy="128" r="8" fill="#37474f" fill-opacity=".995"/><circle cx="96" cy="144" r="8" fill="#37474f" fill-opacity=".995"/><circle cx="128" cy="144" r="8" fill="#37474f" fill-opacity=".995"/><circle cx="112" cy="160" r="8" fill="#37474f" fill-opacity=".995"/><circle cx="96" cy="176" r="8" fill="#37474f" fill-opacity=".995"/><circle cx="128" cy="176" r="8" fill="#37474f" fill-opacity=".995"/><circle cx="112" cy="192" r="8" fill="#37474f" fill-opacity=".995"/><circle cx="96" cy="208" r="8" fill="#37474f" fill-opacity=".995"/><circle cx="128" cy="208" r="8" fill="#37474f" fill-opacity=".995"/><circle cx="112" cy="224" r="8" fill="#37474f" fill-opacity=".995"/><circle cx="96" cy="240" r="8" fill="#37474f" fill-opacity=".995"/><circle cx="128" cy="240" r="8" fill="#37474f" fill-opacity=".995"/><circle cx="112" cy="256" r="8" fill="#37474f" fill-opacity=".995"/><circle cx="96" cy="272" r="8" fill="#37474f" fill-opacity=".995"/><circle cx="128" cy="272" r="8" fill="#37474f" fill-opacity=".995"/><circle cx="112" cy="288" r="8" fill="#37474f" fill-opacity=".995"/><circle cx="96" cy="304" r="8" fill="#37474f" fill-opacity=".995"/><circle cx="128" cy="304" r="8" fill="#37474f" fill-opacity=".995"/><circle cx="112" cy="320" r="8" fill="#37474f" fill-opacity=".995"/><circle cx="96" cy="336" r="8" fill="#37474f" fill-opacity=".995"/><circle cx="128" cy="336" r="8" fill="#37474f" fill-opacity=".995"/><circle cx="144" cy="128" r="8" fill="#37474f" fill-opacity=".995"/><circle cx="144" cy="160" r="8" fill="#37474f" fill-opacity=".995"/><circle cx="144" cy="192" r="8" fill="#37474f" fill-opacity=".995"/><circle cx="144" cy="224" r="8" fill="#37474f" fill-opacity=".995"/><circle cx="144" cy="256" r="8" fill="#37474f" fill-opacity=".995"/><circle cx="144" cy="288" r="8" fill="#37474f" fill-opacity=".995"/><circle cx="144" cy="320" r="8" fill="#37474f" fill-opacity=".995"/><circle cx="144" cy="352" r="8" fill="#37474f" fill-opacity=".995"/><circle cx="160" cy="112" r="8" fill="#37474f" fill-opacity=".995"/><circle cx="192" cy="112" r="8" fill="#37474f" fill-opacity=".995"/><circle cx="176" cy="128" r="8" fill="#37474f" fill-opacity=".995"/><circle cx="160" cy="144" r="8" fill="#37474f" fill-opacity=".995"/><circle cx="192" cy="144" r="8" fill="#37474f" fill-opacity=".995"/><circle cx="176" cy="160" r="8" fill="#37474f" fill-opacity=".995"/><circle cx="160" cy="176" r="8" fill="#37474f" fill-opacity=".995"/><circle cx="192" cy="176" r="8" fill="#37474f" fill-opacity=".995"/><circle cx="176" cy="192" r="8" fill="#37474f" fill-opacity=".995"/><circle cx="160" cy="208" r="8" fill="#37474f" fill-opacity=".995"/><circle cx="192" cy="208" r="8" fill="#37474f" fill-opacity=".995"/><circle cx="176" cy="224" r="8" fill="#37474f" fill-opacity=".995"/><circle cx="160" cy="240" r="8" fill="#37474f" fill-opacity=".995"/><circle cx="192" cy="240" r="8" fill="#37474f" fill-opacity=".995"/><circle cx="176" cy="256" r="8" fill="#37474f" fill-opacity=".995"/><circle cx="160" cy="272" r="8" fill="#37474f" fill-opacity=".995"/><circle cx="192" cy="272" r="8" fill="#37474f" fill-opacity=".995"/><circle cx="176" cy="288" r="8" fill="#37474f" fill-opacity=".995"/><circle cx="160" cy="304" r="8" fill="#37474f" fill-opacity=".995"/><circle cx="192" cy="304" r="8" fill="#37474f" fill-opacity=".995"/><circle cx="176" cy="320" r="8" fill="#37474f" fill-opacity=".995"/><circle cx="160" cy="336" r="8" fill="#37474f" fill-opacity=".995"/><circle cx="192" cy="336" r="8" fill="#37474f" fill-opacity=".995"/><circle cx="176" cy="352" r="8" fill="#37474f" fill-opacity=".995"/><circle cx="208" cy="128" r="8" fill="#37474f" fill-opacity=".995"/><circle cx="208" cy="160" r="8" fill="#37474f" fill-opacity=".995"/><circle cx="208" cy="192" r="8" fill="#37474f" fill-opacity=".995"/><circle cx="208" cy="224" r="8" fill="#37474f" fill-opacity=".995"/><circle cx="208" cy="256" r="8" fill="#37474f" fill-opacity=".995"/><circle cx="208" cy="288" r="8" fill="#37474f" fill-opacity=".995"/><circle cx="208" cy="320" r="8" fill="#37474f" fill-opacity=".995"/><circle cx="208" cy="352" r="8" fill="#37474f" fill-opacity=".995"/><circle cx="224" cy="112" r="8" fill="#37474f" fill-opacity=".995"/><circle cx="256" cy="112" r="8" fill="#37474f" fill-opacity=".995"/><circle cx="240" cy="128" r="8" fill="#37474f" fill-opacity=".995"/><circle cx="224" cy="144" r="8" fill="#37474f" fill-opacity=".995"/><circle cx="256" cy="144" r="8" fill="#37474f" fill-opacity=".995"/><circle cx="240" cy="160" r="8" fill="#37474f" fill-opacity=".995"/><circle cx="224" cy="176" r="8" fill="#37474f" fill-opacity=".995"/><circle cx="256" cy="176" r="8" fill="#37474f" fill-opacity=".995"/><circle cx="240" cy="192" r="8" fill="#37474f" fill-opacity=".995"/><circle cx="224" cy="208" r="8" fill="#37474f" fill-opacity=".995"/><circle cx="256" cy="208" r="8" fill="#37474f" fill-opacity=".995"/><circle cx="240" cy="224" r="8" fill="#37474f" fill-opacity=".995"/><circle cx="224" cy="240" r="8" fill="#37474f" fill-opacity=".995"/><circle cx="256" cy="240" r="8" fill="#37474f" fill-opacity=".995"/><circle cx="240" cy="256" r="8" fill="#37474f" fill-opacity=".995"/><circle cx="224" cy="272" r="8" fill="#37474f" fill-opacity=".995"/><circle cx="256" cy="272" r="8" fill="#37474f" fill-opacity=".995"/><circle cx="240" cy="288" r="8" fill="#37474f" fill-opacity=".995"/><circle cx="224" cy="304" r="8" fill="#37474f" fill-opacity=".995"/><circle cx="256" cy="304" r="8" fill="#37474f" fill-opacity=".995"/><circle cx="240" cy="320" r="8" fill="#37474f" fill-opacity=".995"/><circle cx="224" cy="336" r="8" fill="#37474f" fill-opacity=".995"/><circle cx="256" cy="336" r="8" fill="#37474f" fill-opacity=".995"/><circle cx="240" cy="352" r="8" fill="#37474f" fill-opacity=".995"/><circle cx="320" cy="144" r="8" fill="#37474f" fill-opacity=".995"/><circle cx="272" cy="128" r="8" fill="#37474f" fill-opacity=".995"/><circle cx="304" cy="160" r="8" fill="#37474f" fill-opacity=".995"/><circle cx="272" cy="160" r="8" fill="#37474f" fill-opacity=".995"/><circle cx="288" cy="176" r="8" fill="#37474f" fill-opacity=".995"/><circle cx="272" cy="192" r="8" fill="#37474f" fill-opacity=".995"/><circle cx="320" cy="176" r="8" fill="#37474f" fill-opacity=".995"/><circle cx="272" cy="224" r="8" fill="#37474f" fill-opacity=".995"/><circle cx="304" cy="192" r="8" fill="#37474f" fill-opacity=".995"/><circle cx="272" cy="256" r="8" fill="#37474f" fill-opacity=".995"/><circle cx="288" cy="208" r="8" fill="#37474f" fill-opacity=".995"/><circle cx="272" cy="288" r="8" fill="#37474f" fill-opacity=".995"/><circle cx="320" cy="208" r="8" fill="#37474f" fill-opacity=".995"/><circle cx="272" cy="320" r="8" fill="#37474f" fill-opacity=".995"/><circle cx="304" cy="224" r="8" fill="#37474f" fill-opacity=".995"/><circle cx="272" cy="352" r="8" fill="#37474f" fill-opacity=".995"/><circle cx="288" cy="240" r="8" fill="#37474f" fill-opacity=".995"/><circle cx="320" cy="240" r="8" fill="#37474f" fill-opacity=".995"/><circle cx="304" cy="256" r="8" fill="#37474f" fill-opacity=".995"/><circle cx="288" cy="272" r="8" fill="#37474f" fill-opacity=".995"/><circle cx="320" cy="272" r="8" fill="#37474f" fill-opacity=".995"/><circle cx="304" cy="288" r="8" fill="#37474f" fill-opacity=".995"/><circle cx="288" cy="304" r="8" fill="#37474f" fill-opacity=".995"/><circle cx="320" cy="304" r="8" fill="#37474f" fill-opacity=".995"/><circle cx="304" cy="320" r="8" fill="#37474f" fill-opacity=".995"/><circle cx="288" cy="336" r="8" fill="#37474f" fill-opacity=".995"/><circle cx="320" cy="336" r="8" fill="#37474f" fill-opacity=".995"/><circle cx="304" cy="352" r="8" fill="#37474f" fill-opacity=".995"/><circle cx="160" cy="368" r="8" fill="#37474f" fill-opacity=".995"/><circle cx="128" cy="368" r="8" fill="#37474f" fill-opacity=".995"/><circle cx="144" cy="384" r="8" fill="#37474f" fill-opacity=".995"/><circle cx="160" cy="400" r="8" fill="#37474f" fill-opacity=".995"/><circle cx="144" cy="416" r="8" fill="#37474f" fill-opacity=".995"/><circle cx="160" cy="432" r="8" fill="#37474f" fill-opacity=".995"/><circle cx="176" cy="384" r="8" fill="#37474f" fill-opacity=".995"/><circle cx="176" cy="416" r="8" fill="#37474f" fill-opacity=".995"/><circle cx="192" cy="368" r="8" fill="#37474f" fill-opacity=".995"/><circle cx="224" cy="368" r="8" fill="#37474f" fill-opacity=".995"/><circle cx="208" cy="384" r="8" fill="#37474f" fill-opacity=".995"/><circle cx="192" cy="400" r="8" fill="#37474f" fill-opacity=".995"/><circle cx="224" cy="400" r="8" fill="#37474f" fill-opacity=".995"/><circle cx="208" cy="416" r="8" fill="#37474f" fill-opacity=".995"/><circle cx="192" cy="432" r="8" fill="#37474f" fill-opacity=".995"/><circle cx="224" cy="432" r="8" fill="#37474f" fill-opacity=".995"/><circle cx="240" cy="384" r="8" fill="#37474f" fill-opacity=".995"/><circle cx="240" cy="416" r="8" fill="#37474f" fill-opacity=".995"/><circle cx="256" cy="368" r="8" fill="#37474f" fill-opacity=".995"/><circle cx="288" cy="368" r="8" fill="#37474f" fill-opacity=".995"/><circle cx="272" cy="384" r="8" fill="#37474f" fill-opacity=".995"/><circle cx="256" cy="400" r="8" fill="#37474f" fill-opacity=".995"/><circle cx="288" cy="400" r="8" fill="#37474f" fill-opacity=".995"/><circle cx="272" cy="416" r="8" fill="#37474f" fill-opacity=".995"/><circle cx="256" cy="432" r="8" fill="#37474f" fill-opacity=".995"/><circle cx="288" cy="432" r="8" fill="#37474f" fill-opacity=".995"/><circle cx="304" cy="384" r="8" fill="#37474f" fill-opacity=".995"/><circle cx="304" cy="416" r="8" fill="#37474f" fill-opacity=".995"/><circle cx="320" cy="368" r="8" fill="#37474f" fill-opacity=".995"/><circle cx="320" cy="400" r="8" fill="#37474f" fill-opacity=".995"/><circle cx="336" cy="416" r="8" fill="#37474f" fill-opacity=".995"/><circle cx="320" cy="432" r="8" fill="#37474f" fill-opacity=".995"/><circle cx="352" cy="432" r="8" fill="#37474f" fill-opacity=".995"/><circle cx="64" cy="336" r="8" fill="#37474f" fill-opacity=".995"/><circle cx="128" cy="400" r="8" fill="#37474f" fill-opacity=".995"/><circle cx="128" cy="432" r="8" fill="#37474f" fill-opacity=".995"/><path fill="#ffb300" fill-opacity=".995" d="m16 328 4 8 108 8 8 104 20 4 4 4h-28c-8 0-8 0-16-8l-92-92c-8-8-8-12-8-16z"/><path fill="#4fc3f7" fill-opacity=".995" d="M16 322.05V328c0 8.864 7.28 16 16.145 16H118c5.54 0 10 4.46 10 10v46h.145v39.855c0 8.864 7.136 16.145 16 16.145H192v-8h-45.855c-5.54 0-10-4.605-10-10.145V392H136v-40c0-8.864-7.136-16-16-16H32c-8.167 0-14.997-6.063-16-13.95"/><path fill="#4fc3f7" fill-opacity=".995" d="M16 322.05V328c0 8.864 7.28 16 16.145 16H118c5.54 0 10 4.46 10 10v46h.145v39.855c0 8.864 7.136 16.145 16 16.145H192v-8h-45.855c-5.54 0-10-4.605-10-10.145V392H136v-40c0-8.864-7.136-16-16-16H32c-8.167 0-14.997-6.063-16-13.95"/></svg>