<svg xmlns="http://www.w3.org/2000/svg" width="512" height="512"><path fill="#455a64" d="m160 264 9.274-41.777 7.834-39.97 54.45-7.287 28-4.568 18.668 4.568 46.882 7.286 9.559 40.64L344 264h-88z"/><path fill="#8bc34a" d="m200 264 16-52 4-20 11.559-17.034 28-7.203 18.667 7.203 14 18.27L296 212l16 52h-56z"/><path fill="#3e2723" d="M231.559 154.412h46.667v25.121L256.34 192l-24.782-12.467z"/><path fill="#795548" d="m315.559 106.454-9.333 31.405-18 13.702-7.667 11.419-11.667 4.567h-26l-11.666-4.567-7.667-11.42-20-15.985-9.333-29.121 4.666-27.405 9.334-33.405 46.666-9.135 46.667 9.135 9.333 33.405z"/><path fill="#263238" d="M240.892 89.326a9.333 10.277 0 0 1-9.333 10.277 9.333 10.277 0 0 1-9.333-10.277 9.333 10.277 0 0 1 9.333-10.277 9.333 10.277 0 0 1 9.333 10.277m46.667 0a9.333 10.277 0 0 1-9.333 10.277 9.333 10.277 0 0 1-9.334-10.277 9.333 10.277 0 0 1 9.334-10.277 9.333 10.277 0 0 1 9.333 10.277"/><path fill="#795548" d="m179.559 88.751 4.667 22.838 14 13.702h4.666l9.334-27.405-14-18.27h-14z"/><path fill="#263238" d="m193.559 111.589 4.667-4.568V93.32l-4.667-4.568-4.667 9.135z"/><path fill="#795548" d="m330.226 88.751-4.667 22.838-14 13.702h-4.667l-9.333-27.405 14-18.27h14z"/><path fill="#263238" d="m316.226 111.589-4.667-4.568V93.32l4.667-4.568 4.666 9.135z"/><path fill="#3e2723" fill-rule="evenodd" d="m194.892 89.97 4-2.354 4.667-17.702L208 64l.226-16.356 28.666 4.326 16-1.19 16 1.19 7.334-1.19 23.333-5.136 3.333 16.326 4 8v18l4 4 8-34-8-16-12-6L288 28l-14.441-4.328-18.667-1.702-18.666 1.702-13.334 2.298-10 9.404-14 6.596-8 16z"/><path fill="#263238" d="m236.226 133.859 2.333-4.568 16.333 2.284 16.334-2.284 2.333 4.568-12.445 9.134H248.67z"/><path fill="#b71c1c" d="m16.226 497.97 6.832-40.652 6.65-35.02 52.295-8.773 26.667-4.444 17.778 4.444 52 8.889 6.889 35.556 6.889 40H108.67z"/><path fill="#f48fb1" d="m91.88 497.97-12.1-48.89-11.11-17.776 13.333-17.778 26.667-7.008 17.778 7.008 13.333 17.778-11.111 17.778-11.111 48.889h-8.395z"/><path fill="#ff9800" d="M80 392h48v24l-23.774 37.525L80 416z"/><path fill="#ffc107" d="m162.003 346.858-10.889 30.667-13.333 17.333-9.111 3.112-11.111 4.444H90.892l-11.11-4.444-9.112-3.112-13.333-19.555-10.89-28.444 4.445-26.667 8.89-30.667L80 280l16-4h16l16 4 20.67 9.525 8.889 30.667z"/><path fill="#424242" d="M90.892 330.192a8.889 10 0 0 1-8.889 10 8.889 10 0 0 1-8.889-10 8.889 10 0 0 1 8.89-10 8.889 10 0 0 1 8.888 10m44.445 0a8.889 10 0 0 1-8.89 10 8.889 10 0 0 1-8.888-10 8.889 10 0 0 1 8.889-10 8.889 10 0 0 1 8.889 10"/><path fill="#ffc107" d="m28.67 333.525 4.444 22.222 13.334 13.334h4.444l8.89-26.667-13.334-17.778H33.114z"/><path fill="#ff9800" d="m42.003 355.747 4.445-4.444V337.97l-4.445-4.445-4.444 8.889z"/><path fill="#ffc107" d="m179.781 333.525-4.444 22.222-13.334 13.334h-4.444l-8.889-26.667 13.333-17.778h13.334z"/><path fill="#ff9800" d="m166.448 355.747-4.445-4.444V337.97l4.445-4.445 4.444 8.889z"/><path fill="#a1887f" fill-rule="evenodd" d="m58.893 288-15.334 29.43 7.334 29.43v-14.715l4.443-8.83 4.867-4.835L68 304l-4-11.49zm90.666 0L144 292.908 140 304l8.246 14.48 4.87 4.835 4.443 8.83 4.445 14.714 2.889-29.43z"/><path fill="#ff9800" d="m86.448 373.525 2.222-4.444 15.556 2.222 15.555-2.222 2.222 4.444-11.852 8.89H98.3z"/><path fill="#01579b" d="m312 496 10.15-40.876L336 424l42.394-12.91 30.644-4.47 20.429 4.47L472 424l13.646 31.78L495.861 496h-86.823z"/><path fill="#b3e5fc" d="m348.967 496 8.297-49.19 9.333-17.886 14-17.887 28-7.052 18.667 7.052 14 17.887 9.333 17.887L459.93 496h-50.815z"/><path fill="#f8bbd0" d="M380.597 390.634h46.667v25.121l-23.334 36.54-23.333-36.54z"/><path fill="#ffcdd2" d="m464.597 342.676-9.333 27.405-14 13.702-11.667 11.419-11.667 4.567h-28l-11.666-4.567-11.667-11.419-14-15.986-9.333-25.121 4.666-27.405 9.334-31.405 46.666-9.134 46.667 9.134 9.333 31.405z"/><path fill="#616161" d="M389.93 325.548a9.333 10.277 0 0 1-9.333 10.277 9.333 10.277 0 0 1-9.333-10.277 9.333 10.277 0 0 1 9.333-10.277 9.333 10.277 0 0 1 9.333 10.277m46.667 0a9.333 10.277 0 0 1-9.333 10.277 9.333 10.277 0 0 1-9.334-10.277 9.333 10.277 0 0 1 9.334-10.277 9.333 10.277 0 0 1 9.333 10.277"/><path fill="#ffcdd2" d="m328.597 324.974 4.667 22.837 14 13.702h4.666l9.334-27.405-14-18.27h-14z"/><path fill="#f8bbd0" d="m342.597 347.81 4.667-4.567v-13.702l-4.667-4.567-4.667 9.134z"/><path fill="#ffcdd2" d="m479.264 324.974-4.667 22.837-14 13.702h-4.667l-9.333-27.405 14-18.27h14z"/><path fill="#f8bbd0" d="m465.264 347.81-4.667-4.567v-13.702l4.667-4.567 4.666 9.134z"/><g clip-path="url(#d)"><path fill="#eee" fill-rule="evenodd" d="m463.93 322.192-4-2.353-4.666-13.703-7.334-9.944-20-14-6 6-20-1.19-16 1.19-7.333-1.19L376 280l-18.07 12.192-6 14v12l-4 4-8-28 8-16 12-4L372 264l13.264-4.106 18.666-1.702 18.667 1.702 13.333 2.298 10 11.405 14 8.595 8 12z"/></g><path fill="#f8bbd0" d="m385.264 370.08 2.333-4.567 16.333 2.284 16.334-2.284 2.333 4.568-12.444 9.135h-12.445z"/><path fill="#7cb342" d="m232 168-20 28 36-4-4-8zm48 0 20 28-36-4 4-8z"/><path fill="#ffc107" d="m248 192-4-8h24l-4 8z"/><path fill="#ffc107" d="M250.666 188 248 204v60h16v-60l-2.666-16z"/><path fill="#8bc34a" fill-opacity=".995" d="M272 216h24v24l-4 4h-16l-4-4z"/><path fill="#7cb342" fill-opacity=".995" d="M272 216h24v8h-24z"/><path fill="#455a64" d="m300 196-24 68h68zm-88 0 24 68h-68z"/><path fill="#eee" d="m396 384-20-16-8-16-8-8-8-28-4 4 4 24-4 12 4 12 4 12h4l4 12h8l4 8 8 4 8-4 4 8h16l4-8 8 4 8-4 4-8h8l4-12h4l4-12 4-12-4-12 8-24-4-4-20 36-8 16-16 16z"/><path fill="#eee" d="m368 352 8-4 8 4h32l8-4 8 4 8 8-8 8-8-8h-8l-8 4h-8l-8-4h-8l-8 8z"/><path fill="#f8bbd0" d="m80 412-24 18 48 24zm48 0 22 18-46 24z"/></svg>