<svg xmlns="http://www.w3.org/2000/svg" xmlns:xlink="http://www.w3.org/1999/xlink" width="512" height="512"><defs><lineargradient xlink:href="#a" id="c" gradientunits="userSpaceOnUse" gradienttransform="matrix(1.9285714,0,0,1.9285714,2978.2577,727.52696)" x1="312" y1="344" x2="312" y2="368"/></defs><path d="M160 264l9.274-41.777 7.834-39.97 54.45-7.287 28-4.568 18.668 4.568 46.882 7.286 9.559 40.64L344 264h-88z" fill="#455a64"/><path d="M200 264l16-52 4-20 11.559-17.034 28-7.203 18.667 7.203 14 18.27L296 212l16 52h-56z" fill="#8bc34a"/><path d="M231.559 154.412h46.667v25.121L256.34 192l-24.782-12.467z" fill="#3e2723"/><path d="M315.559 106.454l-9.333 31.405-18 13.702-7.667 11.419-11.667 4.567h-26l-11.666-4.567-7.667-11.42-20-15.985-9.333-29.121 4.666-27.405 9.334-33.405 46.666-9.135 46.667 9.135 9.333 33.405z" fill="#795548"/><path d="M240.892 89.326a9.333 10.277 0 0 1-9.333 10.277 9.333 10.277 0 0 1-9.333-10.277 9.333 10.277 0 0 1 9.333-10.277 9.333 10.277 0 0 1 9.333 10.277zM287.559 89.326a9.333 10.277 0 0 1-9.333 10.277 9.333 10.277 0 0 1-9.334-10.277 9.333 10.277 0 0 1 9.334-10.277 9.333 10.277 0 0 1 9.333 10.277z" fill="#263238"/><path d="M179.559 88.751l4.667 22.838 14 13.702h4.666l9.334-27.405-14-18.27h-14z" fill="#795548"/><path d="M193.559 111.589l4.667-4.568V93.32l-4.667-4.568-4.667 9.135z" fill="#263238"/><path d="M330.226 88.751l-4.667 22.838-14 13.702h-4.667l-9.333-27.405 14-18.27h14z" fill="#795548"/><path d="M316.226 111.589l-4.667-4.568V93.32l4.667-4.568 4.666 9.135z" fill="#263238"/><path d="M194.892 89.97l4-2.354 4.667-17.702L208 64l.226-16.356 28.666 4.326 16-1.19 16 1.19 7.334-1.19 23.333-5.136 3.333 16.326 4 8v18l4 4 8-34-8-16-12-6L288 28l-14.441-4.328-18.667-1.702-18.666 1.702-13.334 2.298-10 9.404-14 6.596-8 16z" fill="#3e2723" fill-rule="evenodd"/><path d="M236.226 133.859l2.333-4.568 16.333 2.284 16.334-2.284 2.333 4.568-12.445 9.134H248.67z" fill="#263238"/><path d="M16.226 497.97l6.832-40.652 6.65-35.02 52.295-8.773 26.667-4.444 17.778 4.444 52 8.889 6.889 35.556 6.889 40H108.67z" fill="#b71c1c"/><path d="M91.88 497.97L79.78 449.08 68.67 431.304l13.333-17.778 26.667-7.008 17.778 7.008 13.333 17.778-11.111 17.778-11.111 48.889h-8.395z" fill="#f48fb1"/><path d="M80 392h48v24l-23.774 37.525L80 416z" fill="#ff9800"/><path d="M162.003 346.858l-10.889 30.667-13.333 17.333-9.111 3.112-11.111 4.444H90.892l-11.11-4.444-9.112-3.112-13.333-19.555-10.89-28.444 4.445-26.667 8.89-30.667L80 280l16-4h16l16 4 20.67 9.525 8.889 30.667z" fill="#ffc107"/><path d="M90.892 330.192a8.889 10 0 0 1-8.889 10 8.889 10 0 0 1-8.889-10 8.889 10 0 0 1 8.89-10 8.889 10 0 0 1 8.888 10zM135.337 330.192a8.889 10 0 0 1-8.89 10 8.889 10 0 0 1-8.888-10 8.889 10 0 0 1 8.889-10 8.889 10 0 0 1 8.889 10z" fill="#424242"/><path d="M28.67 333.525l4.444 22.222 13.334 13.334h4.444l8.89-26.667-13.334-17.778H33.114z" fill="#ffc107"/><path d="M42.003 355.747l4.445-4.444V337.97l-4.445-4.445-4.444 8.889z" fill="#ff9800"/><path d="M179.781 333.525l-4.444 22.222-13.334 13.334h-4.444l-8.889-26.667 13.333-17.778h13.334z" fill="#ffc107"/><path d="M166.448 355.747l-4.445-4.444V337.97l4.445-4.445 4.444 8.889z" fill="#ff9800"/><path d="M58.893 288l-15.334 29.43 7.334 29.43v-14.715l4.443-8.83 4.867-4.835L68 304l-4-11.49zm90.666 0L144 292.908 140 304l8.246 14.48 4.87 4.835 4.443 8.83 4.445 14.714 2.889-29.43z" fill="#a1887f" fill-rule="evenodd"/><path d="M86.448 373.525l2.222-4.444 15.556 2.222 15.555-2.222 2.222 4.444-11.852 8.89H98.3z" fill="#ff9800"/><path d="M312 496l10.15-40.876L336 424l42.394-12.91 30.644-4.47 20.429 4.47L472 424l13.646 31.78L495.861 496h-86.823z" fill="#01579b"/><path d="M348.967 496l8.297-49.19 9.333-17.886 14-17.887 28-7.052 18.667 7.052 14 17.887 9.333 17.887L459.93 496h-50.815z" fill="#b3e5fc"/><path d="M380.597 390.634h46.667v25.121l-23.334 36.54-23.333-36.54z" fill="#f8bbd0"/><path d="M464.597 342.676l-9.333 27.405-14 13.702-11.667 11.419-11.667 4.567h-28l-11.666-4.567-11.667-11.419-14-15.986-9.333-25.121 4.666-27.405 9.334-31.405 46.666-9.134 46.667 9.134 9.333 31.405z" fill="#ffcdd2"/><path d="M389.93 325.548a9.333 10.277 0 0 1-9.333 10.277 9.333 10.277 0 0 1-9.333-10.277 9.333 10.277 0 0 1 9.333-10.277 9.333 10.277 0 0 1 9.333 10.277zM436.597 325.548a9.333 10.277 0 0 1-9.333 10.277 9.333 10.277 0 0 1-9.334-10.277 9.333 10.277 0 0 1 9.334-10.277 9.333 10.277 0 0 1 9.333 10.277z" fill="#616161"/><path d="M328.597 324.974l4.667 22.837 14 13.702h4.666l9.334-27.405-14-18.27h-14z" fill="#ffcdd2"/><path d="M342.597 347.81l4.667-4.567v-13.702l-4.667-4.567-4.667 9.134z" fill="#f8bbd0"/><path d="M479.264 324.974l-4.667 22.837-14 13.702h-4.667l-9.333-27.405 14-18.27h14z" fill="#ffcdd2"/><path d="M465.264 347.81l-4.667-4.567v-13.702l4.667-4.567 4.666 9.134z" fill="#f8bbd0"/><g clip-path="url(#d)"><path d="M463.93 322.192l-4-2.353-4.666-13.703-7.334-9.944-20-14-6 6-20-1.19-16 1.19-7.333-1.19L376 280l-18.07 12.192-6 14v12l-4 4-8-28 8-16 12-4L372 264l13.264-4.106 18.666-1.702 18.667 1.702 13.333 2.298 10 11.405 14 8.595 8 12z" fill="#eee" fill-rule="evenodd" id="b"/></g><path d="M385.264 370.08l2.333-4.567 16.333 2.284 16.334-2.284 2.333 4.568-12.444 9.135h-12.445z" fill="#f8bbd0"/><path d="M232 168l-20 28 36-4-4-8zM280 168l20 28-36-4 4-8z" fill="#7cb342"/><path d="M248 192l-4-8h24l-4 8z" fill="#ffc107"/><path d="M250.666 188L248 204v60h16v-60l-2.666-16z" fill="#ffc107"/><path d="M272 216h24v24l-4 4h-16l-4-4z" fill="#8bc34a" fill-opacity=".995"/><path fill="#7cb342" fill-opacity=".995" d="M272 216h24v8h-24z"/><path d="M300 196l-24 68h68zM212 196l24 68h-68z" fill="#455a64"/><path d="M396 384l-20-16-8-16-8-8-8-28-4 4 4 24-4 12 4 12 4 12h4l4 12h8l4 8 8 4 8-4 4 8h16l4-8 8 4 8-4 4-8h8l4-12h4l4-12 4-12-4-12 8-24-4-4-20 36-8 16-16 16z" fill="#eee"/><path d="M368 352l8-4 8 4h32l8-4 8 4 8 8-8 8-8-8h-8l-8 4h-8l-8-4h-8l-8 8z" fill="#eee"/><path d="M80 412l-24 18 48 24zM128 412l22 18-46 24z" fill="#f8bbd0"/></svg>