<svg xmlns="http://www.w3.org/2000/svg" width="512" height="512"><g><path d="M302.926 196.272a57.807 75.934 33.44 0 1 89.612-12.44 57.807 75.934 33.44 0 1 11.201-99.523 57.807 75.934 33.44 0 1-89.611 12.44 57.807 75.934 33.44 0 1-11.202 99.523z" fill="#cfd8dc" fill-opacity=".995"/><path d="M314.128 183.832a41.15 50.797 29.883 0 1 61.608-6.22 41.15 50.797 29.883 0 1 5.6-68.423 41.15 50.797 29.883 0 1-61.608 6.22 41.15 50.797 29.883 0 1-5.6 68.423z" fill="#f8bbd0" fill-opacity=".995"/><path d="M230.11 196.272a75.934 57.807 56.56 0 1-89.612-12.44 75.934 57.807 56.56 0 1-11.201-99.523 75.934 57.807 56.56 0 1 89.612 12.44 75.934 57.807 56.56 0 1 11.201 99.523z" fill="#cfd8dc" fill-opacity=".995"/><path d="M218.909 183.832a50.797 41.15 60.117 0 1-61.608-6.22 50.797 41.15 60.117 0 1-5.601-68.423 50.797 41.15 60.117 0 1 61.608 6.22 50.797 41.15 60.117 0 1 5.6 68.423z" fill="#f8bbd0" fill-opacity=".995"/><path d="M263.867 356.517C216.358 231.934 59.074 496.345 21.914 316.905" fill="none" stroke="#b0bec5" stroke-width="9.417" stroke-linecap="round"/><path d="M239.172 364.352a14.746 70.403 0 0 1-14.746 70.403 14.746 70.403 0 0 1-14.746-70.403 14.746 70.403 0 0 1 14.746-70.403 14.746 70.403 0 0 1 14.746 70.403z" fill="#cfd8dc" fill-opacity=".995"/><path d="M209.68 442.52a16.816 18.834 0 0 1 16.816-18.834 16.816 18.834 0 0 1 16.816 18.834h-16.816z" fill="#cfd8dc" fill-opacity=".995"/><path d="M205.165 443.629a5.714 8 0 0 1 5.715-8 5.714 8 0 0 1 5.714 8h-5.714z" fill="#f8bbd0" fill-opacity=".995"/><path d="M215.165 444.629a7.143 9 0 0 1 7.143-9 7.143 9 0 0 1 7.143 9h-7.143z" fill="#f8bbd0" fill-opacity=".995"/><path d="M226.594 443.629a6.429 8 0 0 1 6.428-8 6.429 8 0 0 1 6.429 8h-6.429z" fill="#f8bbd0" fill-opacity=".995"/><path d="M234.808 442.629a5.179 6 0 0 1 5.179-6 5.179 6 0 0 1 5.178 6h-5.178z" fill="#f8bbd0" fill-opacity=".995"/><path d="M360.689 333.785c0 62.82-42.162 85.192-94.17 85.192-52.01 0-94.171-22.373-94.171-85.192 0-62.818 42.161-113.743 94.17-113.743 52.01 0 94.17 50.925 94.17 113.743z" fill="#cfd8dc" fill-opacity=".995"/><path d="M328.635 364.352a14.746 70.403 0 0 1-14.747 70.403 14.746 70.403 0 0 1-14.746-70.403 14.746 70.403 0 0 1 14.746-70.403 14.746 70.403 0 0 1 14.747 70.403z" fill="#cfd8dc" fill-opacity=".995"/><path d="M299.142 442.52a16.816 18.834 0 0 1 16.816-18.834 16.816 18.834 0 0 1 16.816 18.834h-16.816z" fill="#cfd8dc" fill-opacity=".995"/><path d="M323.02 365.334c0 38.635-25.296 52.466-56.502 52.466-31.205 0-56.502-13.83-56.502-52.466 0-38.635 25.297-69.955 56.502-69.955 31.206 0 56.503 31.32 56.503 69.955z" fill="#eceff1" fill-opacity=".995"/><path d="M341.855 210.625c0 46.808-56.503 113.005-75.337 113.005-18.834 0-75.336-66.197-75.336-113.005 0-46.808 33.729-84.753 75.336-84.753s75.337 37.945 75.337 84.753z" fill="#cfd8dc" fill-opacity=".995"/><path d="M280.644 290.028c0 7.447-10.594 19.476-14.126 19.476-3.531 0-14.125-12.03-14.125-19.476 0-7.447 6.324-13.483 14.125-13.483 7.802 0 14.126 6.036 14.126 13.483z" fill="#f8bbd0" fill-opacity=".995"/><path d="M228.85 196.5a9.417 14.126 0 0 1-9.417 14.125 9.417 14.126 0 0 1-9.417-14.125 9.417 14.126 0 0 1 9.417-14.126 9.417 14.126 0 0 1 9.417 14.126zM323.02 196.5a9.417 14.126 0 0 1-9.417 14.125 9.417 14.126 0 0 1-9.417-14.125 9.417 14.126 0 0 1 9.417-14.126 9.417 14.126 0 0 1 9.418 14.126z" fill="#455a64" fill-opacity=".995"/><path d="M367.331 376.123a14.084 70.403 0 0 1-14.083 70.403 14.084 70.403 0 0 1-14.084-70.403 14.084 70.403 0 0 1 14.084-70.403 14.084 70.403 0 0 1 14.083 70.403z" fill="#cfd8dc" fill-opacity=".995"/><path d="M339.164 454.291a16.816 18.834 0 0 1 16.816-18.834 16.816 18.834 0 0 1 16.816 18.834H355.98z" fill="#cfd8dc" fill-opacity=".995"/><path d="M337.211 455.517a5.714 8 0 0 1 5.715-8 5.714 8 0 0 1 5.714 8h-5.714z" fill="#f8bbd0" fill-opacity=".995"/><path d="M347.211 456.516a7.143 9 0 0 1 7.143-9 7.143 9 0 0 1 7.143 9h-7.143z" fill="#f8bbd0" fill-opacity=".995"/><path d="M358.64 455.517a6.429 8 0 0 1 6.429-8 6.429 8 0 0 1 6.428 8h-6.428z" fill="#f8bbd0" fill-opacity=".995"/><path d="M366.854 454.517a5.179 6 0 0 1 5.179-6 5.179 6 0 0 1 5.178 6h-5.178z" fill="#f8bbd0" fill-opacity=".995"/><path d="M200.961 379.654a15.484 70.403 0 0 1-15.484 70.403 15.484 70.403 0 0 1-15.484-70.403 15.484 70.403 0 0 1 15.484-70.403 15.484 70.403 0 0 1 15.484 70.403z" fill="#cfd8dc" fill-opacity=".995"/><path d="M169.993 457.823a17.657 18.834 0 0 1 17.657-18.834 17.657 18.834 0 0 1 17.657 18.834H187.65z" fill="#cfd8dc" fill-opacity=".995"/><path d="M168.17 458.863a5.714 7.619 0 0 1 5.714-7.62 5.714 7.619 0 0 1 5.715 7.62h-5.715z" fill="#f8bbd0" fill-opacity=".995"/><path d="M178.17 459.815a7.143 8.571 0 0 1 7.143-8.571 7.143 8.571 0 0 1 7.143 8.571h-7.143z" fill="#f8bbd0" fill-opacity=".995"/><path d="M189.599 458.863a6.429 7.619 0 0 1 6.428-7.62 6.429 7.619 0 0 1 6.429 7.62h-6.429z" fill="#f8bbd0" fill-opacity=".995"/><path d="M197.813 457.91a5.179 5.714 0 0 1 5.178-5.714 5.179 5.714 0 0 1 5.179 5.714h-5.179z" fill="#f8bbd0" fill-opacity=".995"/><path d="M282.495 298.082l84.022 11.114a2.35 2.35 0 0 1 2.025 2.642 2.35 2.35 0 0 1-2.642 2.025l-84.022-11.113a2.35 2.35 0 0 1-2.025-2.643 2.35 2.35 0 0 1 2.642-2.025zM285.68 290.121l83.215-16.075a2.35 2.35 0 0 1 2.758 1.865 2.35 2.35 0 0 1-1.865 2.758l-83.215 16.075a2.35 2.35 0 0 1-2.758-1.865 2.35 2.35 0 0 1 1.865-2.758zM250.143 298.082l-84.022 11.114a2.35 2.35 0 0 0-2.025 2.642 2.35 2.35 0 0 0 2.642 2.025l84.022-11.113a2.35 2.35 0 0 0 2.025-2.642 2.35 2.35 0 0 0-2.642-2.026zM246.958 290.121l-83.215-16.075a2.35 2.35 0 0 0-2.758 1.865 2.35 2.35 0 0 0 1.865 2.758l83.215 16.075a2.35 2.35 0 0 0 2.758-1.865 2.35 2.35 0 0 0-1.865-2.758z" fill="#b0bec5" fill-opacity=".995"/><path d="M296.926 444.106a5.714 8 0 0 1 5.714-8 5.714 8 0 0 1 5.714 8h-5.714z" fill="#f8bbd0" fill-opacity=".995"/><path d="M306.926 445.106a7.143 9 0 0 1 7.142-9 7.143 9 0 0 1 7.143 9h-7.143z" fill="#f8bbd0" fill-opacity=".995"/><path d="M318.354 444.106a6.429 8 0 0 1 6.429-8 6.429 8 0 0 1 6.428 8h-6.428z" fill="#f8bbd0" fill-opacity=".995"/><path d="M326.568 443.106a5.179 6 0 0 1 5.179-6 5.179 6 0 0 1 5.179 6h-5.179z" fill="#f8bbd0" fill-opacity=".995"/></g></svg>