<svg xmlns="http://www.w3.org/2000/svg" width="512" height="512"><path fill="#e0e0e0" d="m40 32 120 40 96-32 96 32 120-40v408l-120 40-96-32-96 32-120-40z" color="#000" overflow="visible" style="isolation:auto;mix-blend-mode:normal"/><path fill="#bdbdbd" d="m160 72 96-32v408l-96 32zm192 0 120-40v408l-120 40z" color="#000" overflow="visible" style="isolation:auto;mix-blend-mode:normal"/><path fill="#03a9f4" d="m64 84 96 32 96-32 96 32 96-32v340l-48-8-48 40-96-32-56-8-40 40-96-32z" color="#000" overflow="visible" style="isolation:auto;mix-blend-mode:normal"/><path fill="#039be5" d="m160 116 96-32v340l-96 32zm192 0 88-24 8 132v200l-96 32z" color="#000" overflow="visible" style="isolation:auto;mix-blend-mode:normal"/><path fill="#9ccc65" d="m64 64 96 32 48-16 48-8h24l72 24 96-32v144l-96 48-96-32-96 64-96-32z" color="#000" overflow="visible" style="isolation:auto;mix-blend-mode:normal"/><path fill="#7cb342" d="m160 96 48-16 48-8v184l-96 32zm192 0 96-32v144l-96 32z" color="#000" overflow="visible" style="isolation:auto;mix-blend-mode:normal"/><path fill="#ffc107" fill-rule="evenodd" d="M64 256h96l96-48h96l96-48v64l-96 48h-96l-96 48H64z"/><path fill="#ffa000" d="m160 256 96-48v64l-96 48zm192-48 96-48v64l-96 48z" color="#000" overflow="visible" style="isolation:auto;mix-blend-mode:normal"/><path fill="#ffa000" d="m208 80 48-16v208l-24-48z" color="#000" overflow="visible" style="isolation:auto;mix-blend-mode:normal"/><path fill="#ffc107" d="m280 72-24-8v144l48 8z" color="#000" overflow="visible" style="isolation:auto;mix-blend-mode:normal"/><circle cx="256" cy="240" r="8" fill="#f44336" color="#000" overflow="visible" style="isolation:auto;mix-blend-mode:normal"/><circle cx="160" cy="288" r="8" fill="#f44336" color="#000" overflow="visible" style="isolation:auto;mix-blend-mode:normal"/><circle cx="128" cy="288" r="8" fill="#f44336" color="#000" overflow="visible" style="isolation:auto;mix-blend-mode:normal"/><circle cx="192" cy="272" r="8" fill="#f44336" color="#000" overflow="visible" style="isolation:auto;mix-blend-mode:normal"/><circle cx="224" cy="256" r="8" fill="#f44336" color="#000" overflow="visible" style="isolation:auto;mix-blend-mode:normal"/><circle cx="96" cy="288" r="8" fill="#f44336" color="#000" overflow="visible" style="isolation:auto;mix-blend-mode:normal"/><g color="#000" transform="translate(160 -56)"><path fill="#f44336" d="M128 208c0 17.673-24 56-32 64-8-8-32-46.327-32-64s14.327-32 32-32 32 14.327 32 32" overflow="visible" style="isolation:auto;mix-blend-mode:normal"/><path fill="#d32f2f" d="M96 176v96c8-8 32-46.327 32-64s-14.327-32-32-32" overflow="visible" style="isolation:auto;mix-blend-mode:normal"/><circle cx="96" cy="208" r="16" fill="#fafafa" overflow="visible" style="isolation:auto;mix-blend-mode:normal"/></g></svg>