<svg xmlns="http://www.w3.org/2000/svg" xmlns:xlink="http://www.w3.org/1999/xlink" width="512" height="512"><defs><lineargradient xlink:href="#a" id="b" gradientunits="userSpaceOnUse" gradienttransform="matrix(1.9285714,0,0,1.9285714,2978.2577,727.52696)" x1="312" y1="344" x2="312" y2="368"/></defs><path d="M40 32l120 40 96-32 96 32 120-40v408l-120 40-96-32-96 32-120-40z" style="isolation:auto;mix-blend-mode:normal" color="#000" overflow="visible" fill="#e0e0e0"/><path d="M160 72l96-32v408l-96 32zM352 72l120-40v408l-120 40z" style="isolation:auto;mix-blend-mode:normal" color="#000" overflow="visible" fill="#bdbdbd"/><path style="isolation:auto;mix-blend-mode:normal" d="M64 84l96 32 96-32 96 32 96-32v340l-48-8-48 40-96-32-56-8-40 40-96-32z" color="#000" overflow="visible" fill="#03a9f4"/><path style="isolation:auto;mix-blend-mode:normal" d="M160 116l96-32v340l-96 32zM352 116l88-24 8 132v200l-96 32z" color="#000" overflow="visible" fill="#039be5"/><path d="M64 64l96 32 48-16 48-8h24l72 24 96-32v144l-96 48-96-32-96 64-96-32z" style="isolation:auto;mix-blend-mode:normal" color="#000" overflow="visible" fill="#9ccc65"/><path d="M160 96l48-16 48-8v184l-96 32zM352 96l96-32v144l-96 32z" style="isolation:auto;mix-blend-mode:normal" color="#000" overflow="visible" fill="#7cb342"/><path d="M64 256h96l96-48h96l96-48v64l-96 48h-96l-96 48H64z" fill="#ffc107" fill-rule="evenodd"/><path style="isolation:auto;mix-blend-mode:normal" d="M160 256l96-48v64l-96 48zM352 208l96-48v64l-96 48z" color="#000" overflow="visible" fill="#ffa000"/><path d="M208 80l48-16v208l-24-48z" style="isolation:auto;mix-blend-mode:normal" color="#000" overflow="visible" fill="#ffa000"/><path style="isolation:auto;mix-blend-mode:normal" d="M280 72l-24-8v144l48 8z" color="#000" overflow="visible" fill="#ffc107"/><circle r="8" cy="240" cx="256" style="isolation:auto;mix-blend-mode:normal" color="#000" overflow="visible" fill="#f44336"/><circle style="isolation:auto;mix-blend-mode:normal" cx="160" cy="288" r="8" color="#000" overflow="visible" fill="#f44336"/><circle r="8" cy="288" cx="128" style="isolation:auto;mix-blend-mode:normal" color="#000" overflow="visible" fill="#f44336"/><circle style="isolation:auto;mix-blend-mode:normal" cx="192" cy="272" r="8" color="#000" overflow="visible" fill="#f44336"/><circle r="8" cy="256" cx="224" style="isolation:auto;mix-blend-mode:normal" color="#000" overflow="visible" fill="#f44336"/><circle style="isolation:auto;mix-blend-mode:normal" cx="96" cy="288" r="8" color="#000" overflow="visible" fill="#f44336"/><g transform="translate(160 -56)" color="#000"><path d="M128 208c0 17.673-24 56-32 64-8-8-32-46.327-32-64 0-17.673 14.327-32 32-32 17.673 0 32 14.327 32 32z" style="isolation:auto;mix-blend-mode:normal" overflow="visible" fill="#f44336"/><path d="M96 176v96c8-8 32-46.327 32-64 0-17.673-14.327-32-32-32z" style="isolation:auto;mix-blend-mode:normal" overflow="visible" fill="#d32f2f"/><circle r="16" cy="208" cx="96" style="isolation:auto;mix-blend-mode:normal" overflow="visible" fill="#fafafa"/></g></svg>