<svg xmlns="http://www.w3.org/2000/svg" xmlns:xlink="http://www.w3.org/1999/xlink" width="512" height="512"><defs><lineargradient xlink:href="#a" id="b" gradientunits="userSpaceOnUse" gradienttransform="matrix(1.9285714,0,0,1.9285714,2978.2577,727.52696)" x1="312" y1="344" x2="312" y2="368"/></defs><path style="isolation:auto;mix-blend-mode:normal" d="M176.418 365.531a32 56 80.365 0 1-11.754-.914 56 40 30.643 0 0-31.125-54.302 56 40 30.643 0 0-56.48-5.395 56 32 47.514 0 1-28.088-20.732 56 32 47.514 0 1-16.463-60.348 240 192 0 0 1-15.537-67.652 240 48 0 0 0 22.785 20.281 62.134 35.505 67.583 0 1 16.697-32.18 62.134 35.505 67.583 0 1 34.77 11.278 32 56 45 0 0 .543 37.826 32 56 45 0 0 62.224-16.97 32 56 45 0 0 16.817-23.024 56 32 45 0 1 35.418 21.535 56 32 45 0 1 10.615 12.658 35.505 62.134 45 0 1 35.183-.646A56 32 45 0 1 256 157.963a56 32 45 0 1 11.348-5.555 56 32 45 0 0 21.623 35.78 56 32 45 0 0 62.224 16.97 56 32 45 0 0-6.965-50.462 35.505 62.134 45 0 1 45.782-1.338 35.505 62.134 45 0 1 5.308 8.994 35.505 62.134 45 0 1 5.65-6.164 35.505 62.134 45 0 1 52.874-25.438 35.505 62.134 45 0 1 16.168 6.608 35.505 62.134 45 0 1 1.32 40.392 240 48 0 0 0 25.639-21.562 240 192 0 0 1-26.953 88.029 32 56 45 0 1-21.047 55.97 32 56 45 0 1-61.858 17.296 48 40 41.81 0 0-62.443-2.186 48 40 41.81 0 0-6.469 38.281 32 56 45 0 1-27.455-4.42 32 56 45 0 1-2.21-2.712 240 192 0 0 1-56.563.503 32 56 80.365 0 1-39.002 17.239 32 56 80.365 0 1-16.553 1.343z" color="#000" overflow="visible" fill="#5d4037"/><ellipse style="isolation:auto;mix-blend-mode:normal" cx="256" cy="239.215" rx="208" ry="52.748" color="#000" overflow="visible" fill="#a1887f"/><path style="isolation:auto;mix-blend-mode:normal" d="M192.624 194.313c-11.019-41.123-42.176-68.504-69.59-61.158-27.416 7.346-40.708 46.637-29.69 87.76 11.02 41.123 38.851 56.095 66.267 48.749 27.415-7.346 44.032-34.228 33.013-75.35z" color="#000" overflow="visible" fill="#fafafa"/><path style="isolation:auto;mix-blend-mode:normal" d="M123.033 133.155l36.578 136.509c27.415-7.346 44.032-34.228 33.013-75.35-11.019-41.124-42.176-68.505-69.59-61.16z" color="#000" overflow="visible" fill="#eee"/><path style="isolation:auto;mix-blend-mode:normal" d="M322.9 210.24c0-42.573-23.007-77.085-51.39-77.085-28.382 0-51.39 34.512-51.39 77.086 0 42.573 23.008 64.238 51.39 64.238s51.39-21.665 51.39-64.238z" color="#000" overflow="visible" fill="#fafafa"/><path style="isolation:auto;mix-blend-mode:normal" d="M271.51 133.155v141.324c28.382 0 51.39-21.665 51.39-64.238 0-42.574-23.007-77.086-51.39-77.086z" color="#000" overflow="visible" fill="#eee"/><path style="isolation:auto;mix-blend-mode:normal" d="M59.127 186.526a62.134 35.505 45 0 0-16.168 6.607 62.134 35.505 45 0 0-1.32 40.393A240 48 0 0 1 16 211.963a240 192 0 0 0 26.953 88.03A56 32 45 0 0 64 355.962a56 32 45 0 0 61.857 17.295A240 192 0 0 0 136 378.24a240 192 0 0 0 23.81 9.526 56 32 45 0 0 .19.197 56 32 45 0 0 62.225 16.97 56 32 45 0 0 2.21-2.712 240 192 0 0 0 56.563.504A56 32 9.635 0 0 320 419.963a56 32 9.635 0 0 28.307.43 40 56 59.357 0 1 31.125-54.303 40 56 59.357 0 1 56.48-5.394A32 56 42.486 0 0 464 339.963a32 56 42.486 0 0 16.463-60.348A240 192 0 0 0 496 211.963a240 48 0 0 1-22.785 20.281 35.505 62.134 22.417 0 0-16.697-32.18 35.505 62.134 22.417 0 0-34.77 11.278 56 32 45 0 1-.543 37.826 56 32 45 0 1-62.225-16.97 56 32 45 0 1-16.816-23.024 32 56 45 0 0-35.418 21.535 32 56 45 0 0-10.615 12.658 62.134 35.505 45 0 0-35.184-.646 32 56 45 0 0-3.976-28.982 32 56 45 0 0-11.348-5.555A32 56 45 0 1 224 243.964a32 56 45 0 1-62.225 16.97 32 56 45 0 1 6.965-50.463 62.134 35.505 45 0 0-45.781-1.338 62.134 35.505 45 0 0-5.309 8.994 62.134 35.505 45 0 0-5.65-6.164 62.134 35.505 45 0 0-52.873-25.437z" color="#000" overflow="visible" fill="#795548"/><path d="M445.682 223.088c11.02-41.122-2.273-80.414-29.688-87.76-27.415-7.346-58.572 20.036-69.59 61.159-11.02 41.123 5.597 68.004 33.013 75.35 27.415 7.346 55.247-7.626 66.265-48.749z" style="isolation:auto;mix-blend-mode:normal" color="#000" overflow="visible" fill="#fafafa"/><path d="M415.994 135.328l-36.577 136.51c27.415 7.345 55.247-7.627 66.265-48.75 11.02-41.122-2.273-80.414-29.688-87.76z" style="isolation:auto;mix-blend-mode:normal" color="#000" overflow="visible" fill="#eee"/><path style="isolation:auto;mix-blend-mode:normal" d="M449.52 198.535a35.505 62.134 22.417 0 0-27.772 12.807 56 32 45 0 1-.543 37.826 56 32 45 0 1-62.225-16.97 56 32 45 0 1-16.816-23.024 32 56 45 0 0-35.418 21.535 32 56 45 0 0-10.615 12.658 62.134 35.505 45 0 0-35.184-.646 32 56 45 0 0-3.976-28.982 32 56 45 0 0-.971-.81v190.685a240 192 0 0 0 24.998-.89A56 32 9.635 0 0 320 419.965a56 32 9.635 0 0 28.307.429 40 56 59.357 0 1 31.125-54.303 40 56 59.357 0 1 56.48-5.394A32 56 42.486 0 0 464 339.963a32 56 42.486 0 0 16.463-60.348A240 192 0 0 0 496 211.963a240 48 0 0 1-22.785 20.281 35.505 62.134 22.417 0 0-16.697-32.18 35.505 62.134 22.417 0 0-6.998-1.529z" color="#000" overflow="visible" fill="#6d4c41"/><path d="M205.6 345.963s-32.302 21.333-57.6 21.333c-25.298 0-86.4-32-86.4-32s62.348 9.187 86.4 10.667c24.052 1.48 57.6 0 57.6 0M167.689 287.445s-25.575-29.06-49.987-35.696c-24.412-6.637-91.768 8.214-91.768 8.214s62.574 7.49 86.172 12.372c23.598 4.881 55.583 15.11 55.583 15.11M295.517 391.697s18.039-34.25 40.211-46.431c22.173-12.181 91.133-13.555 91.133-13.555S367.793 353.68 346 363.963c-21.793 10.284-50.483 27.734-50.483 27.734M485.601 238.876s-22.249 31.678-45.79 40.94c-23.543 9.261-92.118 1.852-92.118 1.852S409.076 267.39 432 259.963c22.924-7.428 53.601-21.087 53.601-21.087M407.735 298.147S377.22 321.965 352 323.963c-25.22 1.998-88.657-25.076-88.657-25.076s62.879 4.233 86.972 3.81c24.094-.425 57.42-4.55 57.42-4.55M240.455 273.75s-19.996 32.083-42.156 41.839-88.13 3.882-88.13 3.882 58.187-15.594 79.831-23.508c21.644-7.914 50.455-22.214 50.455-22.214" fill="#8d6e63" fill-rule="evenodd"/></svg>