<svg xmlns="http://www.w3.org/2000/svg" width="512" height="512"><g color="#000"><path d="M33.682 413.024a12.097 12.097 0 0 0 0 17.146l34.29 34.29a12.097 12.097 0 0 0 17.146 0l12.859-12.859-8.573-8.572-34.29-34.29-8.573-8.574z" style="isolation:auto;mix-blend-mode:normal" overflow="visible" fill="#90a4ae"/><path style="isolation:auto;mix-blend-mode:normal" d="M50.827 447.315l17.145 17.145a12.097 12.097 0 0 0 17.146 0l12.859-12.859-8.573-8.572-17.145-17.146z" overflow="visible" fill="#607d8b"/><rect style="isolation:auto;mix-blend-mode:normal" width="60.618" height="111.774" x="-318.223" y="398.09" ry="7.672" rx="8" transform="matrix(.7071 -.7071 .84366 .53688 0 0)" overflow="visible" fill="#607d8b"/><ellipse style="isolation:auto;mix-blend-mode:normal" cx="10.606" cy="352.24" rx="24.247" ry="48.494" transform="rotate(-45)" overflow="visible" fill="#455a64"/><path style="isolation:auto;mix-blend-mode:normal" d="M50.827 378.734l68.581-68.581c34.29-34.291 34.29-82.179 34.29-137.163l171.454 171.453c-46.236 0-102.872 0-137.162 34.29l-68.582 68.582z" overflow="visible" fill="#e0e0e0"/><rect style="isolation:auto;mix-blend-mode:normal" width="24.247" height="290.966" x="-13.641" y="206.757" ry="8" rx="8" transform="rotate(-45)" overflow="visible" fill="#90a4ae"/><path style="isolation:auto;mix-blend-mode:normal" d="M42.254 387.306a12.097 12.097 0 0 0 0 17.146l51.436 51.436a12.097 12.097 0 0 0 17.146 0l8.572-8.573-8.572-8.573L59.4 387.306l-8.573-8.572-8.573 8.572z" overflow="visible" fill="#ef5350"/><path d="M50.827 378.734l68.581-68.581c34.29-34.291 34.29-82.179 34.29-137.163l171.454 171.453c-46.236 0-102.872 0-137.162 34.29l-68.582 68.582z" style="isolation:auto;mix-blend-mode:normal" overflow="visible" fill="#e0e0e0"/><path style="isolation:auto;mix-blend-mode:normal" d="M85.118 413.024l34.29 34.291 68.582-68.581c34.29-34.29 90.926-34.29 137.162-34.29l-85.726-85.727L85.118 413.024z" overflow="visible" fill="#bdbdbd"/><path style="isolation:auto;mix-blend-mode:normal" d="M67.972 430.17l25.718 25.718a12.097 12.097 0 0 0 17.146 0l8.572-8.573-8.572-8.573-25.718-25.718-17.146 17.146z" overflow="visible" fill="#e53935"/><path style="isolation:auto;mix-blend-mode:normal" d="M239.425 258.717a48.494 24.247 45 0 0 51.436 17.145 48.494 24.247 45 0 0-17.145-51.436l-34.29 34.29z" overflow="visible" fill="#263238"/><path style="isolation:auto;mix-blend-mode:normal" d="M239.425 258.717l94.3 94.299a12.097 12.097 0 0 0 17.145 0 12.097 12.097 0 0 0 0-17.146l-94.3-94.299-17.144 17.146z" overflow="visible" fill="#607d8b"/><path style="isolation:auto;mix-blend-mode:normal" d="M176 410.07v70.14l22.662 14.423c3.586 2.282 8.995 1.595 12.129-1.54l31.55-31.548c3.135-3.134 2.77-7.494-.816-9.775L176 410.07z" overflow="visible" fill="#90a4ae"/><path style="line-height:normal;text-indent:0;text-align:start;text-decoration-line:none;text-decoration-style:solid;text-decoration-color:#000;text-transform:none;block-progression:tb;isolation:auto;mix-blend-mode:normal" d="M416.546 74.337a7.881 7.881 0 0 0-6.595 3.238l-41.832 55.774-9.334-9.335a7.881 7.881 0 0 0-11.877.843l-47.282 63.042a7.881 7.881 0 1 0 12.61 9.458l41.831-55.774 9.335 9.335a7.881 7.881 0 0 0 11.876-.843l47.282-63.042a7.881 7.881 0 0 0-6.014-12.696zM478.131 176.137a7.881 7.881 0 0 0-7.33-.493l-64.115 27.386-3.416-12.752a7.881 7.881 0 0 0-10.707-5.208l-72.468 30.955a7.881 7.881 0 1 0 6.19 14.496l64.115-27.386 3.416 12.751a7.881 7.881 0 0 0 10.707 5.209l72.469-30.956a7.881 7.881 0 0 0 1.14-14.002zM312.312 16.968a7.881 7.881 0 0 0-4.093 6.102l-8.34 69.217-12.752-3.417a7.881 7.881 0 0 0-9.863 6.668l-9.427 78.238a7.881 7.881 0 1 0 15.65 1.886l8.34-69.218 12.751 3.417a7.881 7.881 0 0 0 9.864-6.668l9.426-78.237a7.881 7.881 0 0 0-11.556-7.988z" font-weight="400" font-family="sans-serif" white-space="normal" overflow="visible" fill="#9e9e9e" fill-rule="evenodd"/></g></svg>