<svg xmlns="http://www.w3.org/2000/svg" width="512" height="512"><g color="#000"><path fill="#f06292" d="M256 52c-64 0-44 41.714-76 134.286-32 92.571-76 88.571-76 165.714 0 28 0 48-3.03 80.91C128 448 216 464 256 464s128-16 153.278-29.603C408 400 408 375.591 408 344c0-77.143-44-65.143-76-157.714C300 93.714 320 52 256 52" overflow="visible" style="isolation:auto;mix-blend-mode:normal"/><path fill="#f8bbd0" d="M256 32c-64 0-64 61.714-96 154.286C128 278.857 64 278.857 64 356c0 30.824 13.725 56.813 36.97 76.91C113.13 443.42 96 368 144 384s32 96 112 96 64-80 112-96 25.453 63.611 41.278 50.397C433.585 414.103 448 387.591 448 356c0-77.143-64-77.143-96-169.714C320 93.714 320 32 256 32" overflow="visible" style="isolation:auto;mix-blend-mode:normal"/><path fill="#f48fb1" d="M256 32v448c80 0 64-80 112-96s25.452 63.612 41.277 50.398C433.584 414.103 448 387.591 448 356c0-77.143-64-77.143-96-169.715C320 93.714 320 32 256 32" overflow="visible" style="isolation:auto;mix-blend-mode:normal"/></g></svg>