<svg xmlns="http://www.w3.org/2000/svg" width="512" height="512"><path fill="#eceff1" d="m89.846 495.89 18.345-84.431 29.503-72.734 72.152-18.22 55.385-9.231 36.923 9.23 71.538 18.462 30 73.846 18.462 83.077H265.23z"/><path fill="#212121" d="m394.462 292.923-22.133 17.624-42.483-26.855H182.154l-38.426 27.488-21.574-18.257L136 168.308l11.538-99.231 27.693-27.692 158.112.801 31.119 26.89L376 168.309z"/><path fill="#6d4c41" d="M214.462 278.966h83.076v50.77L256 403.581l-41.538-73.847z"/><path fill="#795548" d="m366.77 182.154-18.462 55.384-23.077 27.693-23.077 23.077-23.077 9.23h-46.154l-23.077-9.23-23.077-23.077-23.077-32.308-18.461-50.77 9.23-55.384 9.231-55.495L256 52.812l83.077 18.573 18.461 55.384z"/><path fill="#3e2723" d="M228.308 147.428a18.462 20.77 0 0 1-18.462 20.769 18.462 20.77 0 0 1-18.461-20.77 18.462 20.77 0 0 1 18.461-20.769 18.462 20.77 0 0 1 18.462 20.77m92.307 0a18.462 20.77 0 0 1-18.461 20.769 18.462 20.77 0 0 1-18.462-20.77 18.462 20.77 0 0 1 18.462-20.769 18.462 20.77 0 0 1 18.461 20.77"/><path fill="#795548" d="m115.23 141.329 7.254 36.264 21.758 21.758h7.252L166 155.834l-21.758-29.01h-21.758z"/><path fill="#4e342e" d="m136.989 177.593 7.253-7.253v-21.76l-7.253-7.252-7.253 14.505zm82.088 59.835 4.615-9.231L256 232.812l32.308-4.615 4.615 9.23-24.615 18.462h-24.616z"/><path fill="#795548" d="m395.78 141.11-7.253 36.264-21.758 21.758h-7.253l-14.505-43.517 21.758-29.01h21.758z"/><path fill="#4e342e" d="m374.022 177.374-7.253-7.253v-21.758l7.253-7.253 7.253 14.505z"/><path fill="#212121" fill-rule="evenodd" d="M154.462 159.077 159.077 136l23.077-23.077 92.308-4.615 27.692-23.077L316 112.923l27.692 4.615L352.923 136l4.615 23.077 9.231-32.308-23.077-66.923-92.307-16.154-87.693 27.582-18.461 55.495z"/><path fill="#cfd8dc" d="m214.462 320.615-27.693 4.616-4.615 27.692 23.077 4.615-13.846 36.924 60 36.923L256 403.692l-41.538-73.846zm83.076 0 23.077 4.616 18.462 23.077-27.692 9.23 9.23 36.924-60 36.923L256 403.692l41.538-73.846z"/><path fill="#cfd8dc" fill-opacity=".995" d="m166 29.846 28.154-3.692L224.846 16h58.846l34.154 10.154 32.77 3.692-13.847 60L304.462 76l-24.231-4.615h-50.77L207.539 76l-32.307 13.846z"/><path fill="#f44336" fill-opacity=".995" d="M249.077 20.615h13.846V66.77h-13.846z"/><path fill="#f44336" fill-opacity=".995" d="M279.077 50.615V36.77h-46.154v13.846z"/><path fill="#cfd8dc" fill-opacity=".995" d="M253.692 403.692h4.616V496h-4.616zm57.693 13.846h55.384v13.847h-55.384z"/></svg>