<svg xmlns="http://www.w3.org/2000/svg" width="512" height="512"><g fill-opacity=".995"><path fill="#ffe0b2" d="M481.667 246.27c-14.912-18.407-48.987-15.518-76.109 6.452-14.71 11.929-17.574 32.18-28.068 42.982-10.495 10.803-27.701 8.179-39.868 18.011-27.122 21.97-37.02 54.703-22.11 73.11 14.912 18.408 48.986 15.52 76.108-6.45 14.71-11.929 17.574-32.18 28.069-42.983s27.7-8.178 39.867-18.01c27.123-21.97 37.022-54.703 22.11-73.111z"/><path fill="#fff3e0" d="M459.38 250.457c-10.195-7.893-25.585-6.03-37.215.637-13.497 7.59-22.103 21.343-27.506 35.098-4.265 6.53-6.494 15.42-14.451 18.785-7.077 3.662-13.978 7.946-21.756 9.636-8.154 1.967-16.346 5.613-22.449 11.572-9.984 9.307-16.252 23.613-13.08 36.227 2.365 8.033 11.15 11.798 19.405 11.499 13.007-.592 25.628-8.061 34.62-17.744 6.737-7.165 11.128-15.884 14.552-24.717 4.267-5.943 5.765-14.359 13.005-17.89 8.297-4.196 16.728-8.798 25.892-10.01 17.716-5.713 32.979-22.405 33.133-40.715-.009-4.489-1.06-9.197-4.15-12.378"/><path fill="#ffcc80" d="M481.666 246.271a29.7 29.7 0 0 0-5.017-4.877c9.03 18.92-1.425 47.415-25.84 67.191-12.166 9.833-29.373 7.208-39.867 18.01s-13.358 31.054-28.068 42.983c-24.414 19.776-54.457 24.087-71.09 11.327a29.7 29.7 0 0 0 3.729 5.92c14.91 18.408 48.985 15.52 76.107-6.45 14.71-11.929 17.574-32.18 28.068-42.982 10.495-10.803 27.701-8.178 39.868-18.01 27.123-21.971 37.022-54.704 22.11-73.112"/><path fill="#ffb74d" d="M481.666 246.271a29 29 0 0 0-1.214-1.4c13.259 18.64 3.183 50.237-23.228 71.632-12.167 9.832-29.374 7.207-39.868 18.01s-13.358 31.054-28.068 42.983c-26.411 21.394-59.412 24.69-74.893 7.851.357.502.727.996 1.118 1.479 14.91 18.407 48.985 15.52 76.107-6.451 14.71-11.929 17.574-32.18 28.068-42.982 10.495-10.803 27.701-8.178 39.868-18.01 27.123-21.971 37.022-54.704 22.11-73.112"/><path fill="#ffb74d" d="M329.15 360.792c4.108.374 8.13 5.254 7.12 8.79s-6.691 4-9.906 3.812c-3.214-.188-7.395-.48-7.674-4.13-.278-3.65 6.352-8.847 10.46-8.472m91.15-82.368c3.66.073 8.105.677 8.143 4.713s-7.567 10.044-12.113 9.812-8.616-5.198-7.431-9.174 7.742-5.424 11.401-5.351m-14.14 27.086c-.312-3.12-3.193-2.68-6.488-2.542s-11.297 1.674-11.726 5.418 4.75 5.377 8.484 5.006c3.734-.372 10.041-4.763 9.73-7.882m54.524-60.175c3.8-.299 9.817 2.166 9.191 6.408-.626 4.241-9.282 7.493-12.938 6.938s-5.57-3.064-5.043-6.225c.527-3.162 4.99-6.821 8.79-7.12zm-109.766 94.237c3.862-.593 5.157 2.49 4.948 6.11s-6.044 10.794-9.27 10.985-3.11-.754-3.25-4.01c-.139-3.256 3.71-12.491 7.572-13.085m19.505-20.397c4.248-.323 9.287 4.546 7.433 9.176s-10.084 8.926-14.049 8.286-4.76-5.819-3.216-9.496 5.585-7.642 9.832-7.966m72.972-60.35c4.323.64 8.817 6.102 7.965 9.833s-6.774 3.898-10.15 3.51-7.77-.942-8.274-4.87 6.136-9.113 10.46-8.473zm-79.78 46.751c3.75.233 7.306 4.542 6.29 7.766-1.015 3.224-6.228 3.79-9.165 3.703s-6.757-.243-6.917-3.537 6.041-8.165 9.792-7.932m69.228-60.904c3.348-.029 7.401.403 7.332 4.051-.07 3.65-7.186 9.28-11.34 9.187-4.155-.093-7.752-4.479-6.566-8.105 1.187-3.626 7.227-5.105 10.574-5.133m-105.363 95.11c3.165.944 2.012 3.848 1.07 7.244s-4.474 11.4-8.467 11.102-4.435-6-3.145-9.806 7.378-9.483 10.543-8.54zm82.176-77.632c3.486-.368 8.93 1.706 8.247 5.558s-8.689 7.016-12.021 6.609-5.02-2.628-4.455-5.5c.564-2.873 4.743-6.297 8.229-6.666zm-20.526 24.865c3.55-.636 4.655 2.119 4.371 5.397s-5.812 9.919-8.77 10.175-2.826-.601-2.87-3.543c-.043-2.941 3.718-11.392 7.268-12.029zm-46.158 33.447c3.94.467 7.913 5.291 7.036 8.687-.876 3.396-6.3 3.7-9.381 3.437-3.08-.264-7.088-.652-7.448-4.191-.359-3.54 5.852-8.4 9.793-7.933m51.559 15.232c.551-3.717-2.926-8.09-6.29-7.766-3.365.325-5 5.306-5.525 8.197-.525 2.892-1.166 6.66 2.023 7.501s9.242-4.215 9.792-7.932m71.034-58.676c.722-3.269 1.142-7.324-2.442-8.013s-10.568 5.102-11.34 9.186 2.772 8.513 6.565 8.105c3.794-.409 6.494-6.01 7.217-9.278M363.336 367.95c-.266-3.292-3.347-2.766-6.864-2.55s-12.08 2.01-12.618 5.978c-.537 3.967 4.95 5.583 8.94 5.111 3.99-.471 10.808-5.248 10.542-8.54zm76.381-68.69c1.084-3.334.185-9.09-3.724-9.221-3.91-.133-8.667 7.043-8.96 10.387s1.527 5.456 4.454 5.5 7.145-3.333 8.23-6.666M421.92 311.4c1.36-3.341-1.106-4.994-4.372-5.397s-10.909 3.626-11.773 6.466c-.865 2.84.002 2.89 2.87 3.543 2.868.654 11.916-1.271 13.275-4.612m-40.405 48.595c.36-3.95-3.533-8.839-7.037-8.686-3.504.152-4.928 5.395-5.31 8.463-.38 3.068-.833 7.07 2.555 8.156s9.43-3.981 9.792-7.933m62.335-44.636c.28-2.823-2.484-6.292-4.993-6.165s-3.557 3.878-3.846 6.07c-.289 2.191-.634 5.05 1.787 5.808 2.42.757 6.773-2.89 7.052-5.713m-41.21 34.644c-.318-2.526-2.608-2.235-5.235-2.196-2.628.04-8.981 1.102-9.241 4.117s3.91 4.447 6.883 4.23 7.91-3.625 7.593-6.15zm77.501-71.439c.693-2.51-.187-6.943-3.122-7.185s-6.241 5.074-6.341 7.62 1.341 4.227 3.536 4.366c2.195.14 5.235-2.291 5.927-4.801M465.2 300.782c.9-2.506-1.008-3.859-3.47-4.284-2.462-.426-8.044 2.38-8.59 4.52-.546 2.142.105 2.21 2.278 2.813s8.884-.544 9.782-3.05zm-49.8 29.461c.128-3.008-2.966-6.885-5.586-6.895s-3.499 3.949-3.675 6.28c-.175 2.333-.37 5.376 2.207 6.329s6.925-2.705 7.053-5.714zm-38.125 46.27c-.317-2.526-2.607-2.235-5.235-2.196-2.628.04-8.98 1.103-9.24 4.117s3.91 4.448 6.882 4.23c2.973-.217 7.91-3.625 7.593-6.15zm-23.919 8.533c-.317-2.526-2.607-2.235-5.235-2.196-2.628.04-8.98 1.103-9.24 4.117s3.91 4.448 6.882 4.23c2.973-.217 7.911-3.624 7.593-6.15z"/></g><g fill-opacity=".995"><path fill="#b71c1c" d="M449.103 394.787c-19.35 9.575-38.58 6.345-51.542-4.522.748-17.651 9.846-34.897 29.197-44.472s34.01-4.083 40.878 9.799c6.87 13.882.818 29.62-18.533 39.195"/><path fill="#d32f2f" d="M448.312 390.754c-17.949 8.88-35.832 5.79-47.919-4.42.63-16.5 9.022-32.592 26.97-41.473 17.95-8.88 31.593-3.692 38.028 9.313s.87 27.7-17.079 36.58"/><path fill="#e53935" d="M446.244 380.4c-15.565 7.7-30.477 6.225-40.15-.995 1.355-12.675 9.228-25.425 24.793-33.126 15.565-7.702 26.8-4.407 31.572 5.237s-.65 21.182-16.215 28.883z"/><path fill="#ef9a9a" d="M457.142 353.902c-3.415-6.9-11.349-9.31-22.275-3.904-9.242 4.573-14.586 11.752-16.55 19.321 2.684-5.8 7.56-11.068 14.892-14.695 10.925-5.406 18.86-2.997 22.274 3.904 1.067 2.158 1.434 4.442 1.1 6.728 2.163-3.747 2.352-7.729.559-11.354"/></g><path fill="#ffe0b2" fill-opacity=".995" d="M220.873 325.76c-16.788 15.174-12.273 47.528 10.084 72.265 12.138 13.415 31.602 15.102 42.449 24.554 10.846 9.453 9.231 26 19.239 37.098 22.357 24.737 54.091 32.489 70.88 17.315s12.273-47.527-10.084-72.264c-12.138-13.415-31.602-15.101-42.449-24.554s-9.231-26-19.238-37.099c-22.358-24.736-54.092-32.489-70.88-17.315z"/><path fill="#fff3e0" fill-opacity=".995" d="M226.017 346.802c-7.002 10.133-4.43 24.717 2.53 35.466 7.936 12.483 21.499 19.982 34.9 24.425 6.448 3.731 15.044 5.398 18.663 12.815 3.859 6.56 8.301 12.922 10.316 20.254 2.297 7.676 6.198 15.303 12.197 20.816 9.393 9.043 23.363 14.283 35.232 10.606 7.54-2.67 10.678-11.245 9.966-19.104-1.236-12.376-9.013-24.03-18.714-32.106-7.182-6.057-15.725-9.794-24.328-12.605-5.888-3.763-13.994-4.758-17.736-11.481-4.431-7.697-9.256-15.503-10.885-24.18-6.364-16.605-23.075-30.301-40.548-29.503-4.281.24-8.718 1.487-11.593 4.597"/><path fill="#ffcc80" fill-opacity=".995" d="M220.874 325.76a28.4 28.4 0 0 0-4.393 5.038c17.58-9.59 45.3-1.088 65.425 21.178 10.008 11.098 8.392 27.646 19.239 37.099 10.846 9.452 30.31 11.138 42.449 24.554 20.124 22.266 25.788 50.7 14.475 67.225a28.4 28.4 0 0 0 5.456-3.862c16.788-15.174 12.273-47.527-10.084-72.264-12.138-13.415-31.602-15.101-42.449-24.554s-9.23-26-19.238-37.098c-22.358-24.737-54.092-32.49-70.88-17.316"/><path fill="#ffb74d" fill-opacity=".995" d="M220.874 325.76q-.659.598-1.274 1.231c17.096-13.61 47.756-5.63 69.528 18.458 10.007 11.098 8.392 27.646 19.238 37.099s30.311 11.138 42.45 24.554c21.77 24.088 26.619 55.396 11.356 71.033a29 29 0 0 0 1.353-1.143c16.788-15.174 12.273-47.527-10.084-72.264-12.138-13.415-31.602-15.101-42.449-24.554s-9.23-26-19.238-37.098c-22.358-24.737-54.092-32.49-70.88-17.316"/><path fill="#ffb74d" fill-opacity=".995" d="M337.987 465.328c.145-3.937 4.592-8.027 8.017-7.246s4.161 6.177 4.148 9.252c-.014 3.076-.075 7.08-3.543 7.534s-8.767-5.602-8.622-9.54m-56.708-70.603c-2.96.458-2.392 3.184-2.09 6.32s2.18 10.69 5.774 10.905c3.593.216 4.883-4.808 4.336-8.35-.547-3.544-5.06-9.333-8.02-8.875m35.343 50.935c-.765-3.653 2.109-5.047 5.572-5.036s10.61 5.209 10.958 8.276c.35 3.068-.559 3.005-3.657 3.306-3.1.302-12.107-2.893-12.873-6.546m-20.462-17.553c-.528-4.035 3.856-9.092 8.368-7.563s9.034 9.157 8.629 12.972-5.305 4.841-8.892 3.56c-3.588-1.283-7.578-4.934-8.106-8.969zm-12.621 7.197c.028-3.59 3.955-7.204 7.082-6.401 3.128.802 3.937 5.745 4.006 8.551.068 2.806.118 6.458-3.017 6.781s-8.1-5.341-8.071-8.93zm34.494 32.701c.737-3.067 3.567-2.117 6.854-1.394s11.106 3.68 11.028 7.503-5.496 4.54-9.191 3.506-9.427-6.548-8.69-9.615zm-53.516-56.08c-.79-3.354 1.78-4.55 4.922-4.449 3.142.102 9.761 5.032 10.158 7.84s-.428 2.727-3.23 2.92c-2.804.194-11.06-2.957-11.85-6.311m34.287 42.302c.242-3.783 4.639-7.822 7.923-7.161 3.284.66 3.855 5.82 3.762 8.77-.092 2.953-.255 6.796-3.613 7.321-3.357.526-8.314-5.148-8.072-8.93m11.867-49.969c-3.574-.333-7.566 3.21-7.083 6.402s5.32 4.496 8.105 4.847c2.785.35 6.413.768 7.05-2.318.638-3.085-4.498-8.597-8.072-8.93zm32.379 28.092c-3.126.423-2.466 3.335-2.078 6.678s2.541 11.42 6.354 11.728c3.812.307 5.07-5.01 4.414-8.792s-5.565-10.038-8.69-9.615zm-56.967-52.962c-3.257-1.125-4.707 1.312-4.922 4.448-.216 3.137 4.022 10.219 6.776 10.897s2.756-.15 3.231-2.92-1.828-11.301-5.085-12.425m48.441 36.032c-3.788-.14-8.25 3.826-7.923 7.16s5.401 4.422 8.347 4.628c2.946.205 6.786.43 7.648-2.857.86-3.288-4.285-8.79-8.072-8.931m-10.623-19.635c-2.393.434-1.997 2.603-1.824 5.107s1.515 8.51 4.404 8.602 4.04-3.96 3.68-6.784c-.361-2.824-3.866-7.358-6.26-6.925m-19.507-11.15c-2.876.032-6.415 3.184-6.288 5.684s3.947 3.133 6.18 3.18c2.234.047 5.147.076 5.922-2.432s-2.937-6.465-5.814-6.432m46.105 33.975c-2.394.434-1.998 2.604-1.825 5.108.173 2.505 1.515 8.51 4.404 8.602s4.04-3.96 3.68-6.784c-.361-2.824-3.866-7.359-6.26-6.925zm9.374 22.376c-2.393.433-1.997 2.602-1.824 5.107.173 2.504 1.515 8.51 4.404 8.602s4.04-3.96 3.68-6.784c-.362-2.825-3.867-7.359-6.26-6.925"/><path fill="#ffa726" d="m262.556 391.466-2.516 19.703-24.17-10.034-18.141-24.712 10.682-2.105-16.276-18.008 5-20.459 9.865 5.346 5.7-16.898 27.297.498 1.092 13.275 21.977 1.11 1.092 13.275 15.024 16.623-19.82 3.184-1.767 18.301z"/><path fill="#fb8c00" d="m217.134 335.852-4.999 20.459 16.276 18.008-10.682 2.104 18.14 24.712 24.171 10.034.302-2.366-17.638-7.323-18.14-24.712 10.682-2.104-16.276-18.008 4.275-17.494zm15.566-11.553-4.743 14.059 5.877 3.184 5.701-16.897 20.48.373-.018-.222z"/><path fill="#b71c1c" d="M228.895 335.58 227 341.196l-2.504-1.357c-5.658 6.57-8 14.629-6.11 23.387l10.025 11.092-4.89.963c1.598 2.519 3.53 5.064 5.84 7.618 9.382 10.38 20.52 16.188 31.954 18.287l1.241-9.72 15.039-.902 1.766-18.3 8.874-1.426c-1.882-8.994-6.344-17.999-13.757-26.2a59 59 0 0 0-6.517-6.22l-6.872-.348-.372-4.527c-11.407-6.101-22.906-5.122-31.822 2.035z"/><path fill="#d32f2f" fill-opacity=".995" d="M225.69 340.487c-6.187 6.055-9.151 13.674-7.948 22.028l10.67 11.804-5.65 1.112c1.482 2.352 3.28 4.726 5.432 7.107 9.67 10.699 21.388 16.13 33.28 17.401l1.082-8.473 15.039-.901 1.766-18.3 3.916-.63c-1.637-8.573-5.784-17.163-12.826-24.955-14.248-15.764-30.776-17.692-42.543-8.174l-.908 2.69z"/><path fill="#e53935" fill-opacity=".995" d="M224.744 343.448c-5.928 5.358-7.899 12.972-4.608 21.715l8.275 9.156-2.716.535a56 56 0 0 0 2.945 3.536c10.083 11.156 22.055 16.32 33.434 16.854l.482-3.778 9.698-.58c2.876-11.782-.616-26.185-12.132-38.926-12.792-14.154-26.608-16.438-35.378-8.512"/><path fill="#ef9a9a" fill-opacity=".995" d="M229.573 347.708c-6.275 5.671-6.452 14.779 2.528 24.714 7.596 8.404 16.782 11.909 25.37 11.723-6.934-1.104-13.96-4.685-19.985-11.352-8.979-9.935-8.803-19.042-2.528-24.713 1.962-1.774 4.268-2.844 6.785-3.173-4.608-1.169-8.874-.178-12.17 2.8z"/><g fill-opacity=".995"><path fill="#b71c1c" d="M411.34 477.795c-19.615-13.516-26.822-33.786-23.303-52.114 17.417-8.753 38.925-9.238 58.54 4.277s22.19 30.594 12.495 44.666-28.116 16.686-47.731 3.17z"/><path fill="#d32f2f" d="M414.804 474.867c-18.194-12.536-24.812-31.434-21.458-48.565 16.245-8.249 36.261-8.796 54.455 3.74s20.515 28.473 11.432 41.657-26.235 15.704-44.429 3.168"/><path fill="#e53935" d="M423.676 467.316c-15.778-10.871-22.358-26.038-20.59-39.238 12.946-5.497 29.462-4.75 45.24 6.12 15.778 10.872 18.632 23.471 11.896 33.248s-20.768 10.741-36.546-.13"/><path fill="#ef9a9a" d="M415.094 434.21c-4.82 6.994-2.883 15.936 8.192 23.567 9.37 6.455 19.157 7.754 27.508 5.584-7.032.526-14.727-1.347-22.16-6.468-11.074-7.63-13.01-16.572-8.19-23.567 1.507-2.188 3.512-3.767 5.896-4.671-4.774-.075-8.714 1.88-11.246 5.554z"/></g><g fill-opacity=".995"><path fill="#ffc107" d="M435.164 26.806c38.799 12.716 61.164 53.77 53.682 78.03-7.482 24.261-23.034 27.826-35.72 23.906s-13.855-28.467-14.83-37.11c-.973-8.644-6.7-19.888-17.869-23.645-11.17-3.758-22.422.991-27.787 6.029-5.366 5.038-20.935 27.386-33.821 22.84s-21.448-15.877-13.092-38.95c8.357-23.074 50.639-43.816 89.437-31.1"/><path fill="#ffd54f" d="M486.523 101.13c4.475-17.361-3.973-34.4-13.624-47.256-18.79-24.4-50.542-36.354-80.49-28.935-15.841 3.63-32.206 11.536-41.64 26.36-4.986 9.12-7.733 21.403-2.668 30.75 4.369 7.356 14.298 12.43 22.147 7.049 12.035-6.505 17.902-21.962 31.113-26.334 13.162-5.041 29.045-.17 35.753 12.678 7.429 13.268 2.626 31.364 11.996 43.728 4.74 5.84 13.058 6.052 19.845 3.95 9.437-3.044 14.76-12.687 17.568-21.99"/><path fill="#ffe082" d="M479.149 97.732c4.427-16.338-3.947-32.146-13.091-43.905-20.906-26.923-59.392-35.957-90.446-20.9-12.889 5.638-25.659 17.41-26.743 33.069-.783 8.425 5.508 18.25 14.234 16.328 9.304-3.067 14.212-12.704 21.434-19.143 10.494-11.002 26.984-14.236 39.864-8.026 11.041 4.853 19.027 16.036 20.278 28.829 1.74 10.002.772 22.109 8.115 29.627 9.146 5.98 22.15-1.498 25.04-12.268a42 42 0 0 0 1.315-3.611"/><path fill="#ffecb3" d="M476.024 87.834c3.75-15.693-4.983-30.193-14.108-41.097-22.666-26.94-66.024-32.29-94.78-9.115-7.39 6.331-13.624 17.738-9.21 27.328 2.462 4.57 8.75 3.846 11.613-.283 9.712-9 17.701-21.705 30.865-25.044 22.388-7.54 48.644 8.237 51.512 33.004 1.628 9.226.467 20.249 6.508 27.669 6.995 4.087 15.628-3.2 17.095-10.909z"/><path fill="#fff8e1" d="M467.794 80.908c3.843-14.01-4.587-26.83-12.928-36.24a55 55 0 0 0-7.401-6.949c9.142 9.475 14.011 23.01 13.84 36.814.393 3.784.036 8.93 3.138 11.062 1.711-.909 2.783-2.83 3.35-4.687zm-77.046-53.271c-8.94 3.024-18.166 7.644-23.806 15.952-1.298 2.16-2.694 5.732-1.882 7.569 7.706-9.057 16.01-18.158 26.41-23.738l-.659.198z"/><path fill="#ffd54f" d="M266.423 53.322c-16.688 23.846-38.636 73.17-12.82 93.429 13.17 9.786 33.369 8.887 42.673-6.572 9.304-15.46-7.13-29.266 7.72-58.935s38.258-1.699 54.062-20.78c9.793-12.634 6.624-31.13-7.077-41.312-32.638-18.168-68.358 13.676-84.558 34.17"/><path fill="#ffe082" d="M264.289 60.123c-13.112 19.175-23.558 41.234-23.6 64.77.385 10.33 6.577 21.138 17.33 23.86 9.327 2.75 21.427-.633 25.576-9.967 3.848-9.364-1.135-19.236-.31-28.865.306-14.873 5.19-30.502 16.562-40.847 7.397-6.117 17.753-6.972 26.911-5.21 6.216.822 13.914 1.175 18.237-4.195 8.791-10.358 4.16-27.865-8.08-33.547-11.005-5.2-24.283-2.788-34.944 2.251-13.94 6.734-25.646 17.31-35.489 28.956-.75.916-1.475 1.852-2.193 2.794"/><path fill="#ffecb3" d="M263.277 60.049c-12.769 18.172-22.52 39.372-22.35 61.701.468 8.953 8.764 17.785 18.377 16.299 5.755-.517 11.61-5.41 10.775-11.458-.09-10.19-3.481-20.446-.886-30.582 2.305-15.799 9.759-32.13 24.21-40.608 10.385-5.474 22.658-3.953 33.867-2.615 5.842-.603 8.461-7.449 7.338-12.512-1.166-8.173-8.99-14.611-17.448-13.86-15.017-.473-28.201 8.425-38.988 17.734a107.2 107.2 0 0 0-14.895 15.9z"/><path fill="#ffca28" d="M303.88 72.512c-1.257 1.664-2.469 3.63-3.629 5.949-14.85 29.669 1.584 43.475-7.72 58.935-8.79 14.605-27.3 16.208-40.424 8.09.482.432.976.856 1.497 1.265 13.169 9.786 33.368 8.888 42.672-6.572s-7.13-29.266 7.72-58.935 38.258-1.699 54.063-20.78c9.792-12.634 6.623-31.13-7.078-41.312-.362-.201-.725-.39-1.088-.58 11.412 10.484 13.543 27.339 4.42 39.11-14.57 17.59-35.601-4.807-50.433 14.83"/><path fill="#fff8e1" d="M256.095 78.903c-5.87 12.085-9.958 25.47-8.886 38.986.934 2.843 4.644 5.564 7.61 4.008 1.695-4.28-1.197-8.61-.894-12.998-1.007-10.535-.123-21.275 2.896-31.448z"/><path fill="#ffca28" d="M297.26 189.333c28.59-5.457 78.715-25.508 74.336-58.031-2.616-16.197-17.721-29.638-35.17-25.044s-15.296 25.95-46.628 36.862c-31.333 10.911-28.607-25.46-53.241-22.803-15.829 2.228-26.455 17.696-23.733 34.547 10.726 35.781 58.534 37.863 84.436 34.469"/><path fill="#ffd54f" d="M224.93 168.091c17.49 15.167 42.205 17.06 64.408 15.365 23.799-2.805 47.174-12.32 65.665-27.412 9.152-8.127 15.6-21.347 10.727-33.555-4.599-13.093-20.967-22.62-33.98-15.455-10.253 6.261-14.143 18.763-24.23 25.373-10.221 7.957-23.736 14.122-36.868 11.092-11.393-3.564-16.024-15.995-25.495-22.063-10.958-5.598-24.399 2.068-28.857 12.72-4.232 8.777-3.236 20.06 3.117 27.605a42.3 42.3 0 0 0 5.513 6.33"/><path fill="#ffe082" d="M298.298 177.822c22.769-4.602 45.638-13.13 62.08-29.97 6.926-7.673 10.025-19.739 4.216-29.188-4.769-8.475-15.802-14.486-25.284-10.689-9.288 4.03-12.6 14.58-19.904 20.907-10.59 10.447-24.99 18.245-40.355 17.73-9.567-.773-17.586-7.381-22.921-15.03-3.884-4.924-9.155-10.544-15.999-9.71-13.523 1.295-22.411 17.073-17.599 29.682 4.262 11.4 15.462 18.93 26.617 22.751 14.689 4.894 30.453 5.476 45.628 3.99a99 99 0 0 0 3.52-.473z"/><path fill="#ffecb3" d="M297.259 165.8c21.823-4.123 43.595-12.52 59.043-28.645 5.907-6.743 6.12-18.858-1.808-24.496-4.485-3.643-12.094-4.218-15.712.7-7.04 7.366-11.761 17.083-20.689 22.539-12.669 9.717-29.399 16.225-45.67 12.227-11.26-3.319-18.997-12.967-26.099-21.741-4.607-3.642-11.258-.561-13.984 3.851-4.863 6.672-3.744 16.742 2.843 22.102 10.434 10.81 26.088 13.625 40.311 14.473 7.28.397 14.585.07 21.765-1.01"/><path fill="#fff8e1" d="M346.906 120.276c-7.517 5.742-10.618 15.602-18.793 20.721a80 80 0 0 1-15.327 10.523c13.912-4.583 27.649-11.934 37.19-23.198.842-2.615.543-7.883-3.07-8.046M240.46 136.314c-3.317 6.394 4.326 11.303 9.117 14.027 3.56 2.084 9.65 4.18 12.373 4.487-8.57-4.285-14.963-12.308-21.49-18.514"/></g><g fill-opacity=".995"><path fill="#4e342e" d="m55.645 189.749-.17.088c-35.774 19.38-45.932 41.188-30.489 74.529 24.963 50.29 75.088 41.413 86.588 41.69 7.375-9.316 43.613-47.07 21.422-93.412-17.332-33.917-46.06-37.34-77.16-22.986l-.142.071z"/><path fill="#6d4c41" d="M54.752 194.047c-16.552 8.664-32.503 23-33.725 42.788-.64 17.255 8.186 41.684 22.807 51.487 14.62 9.802 35.954 19.43 61.663 16.531 3.384.912 6.05-.066 7.241-3.479 12.705-19.915 22.956-39.736 22.61-63.697-1.899-17.193-17.99-40.071-32.884-48.28-15.451-7.705-32.582-2.754-47.712 4.65"/><path fill="#795548" d="M52.817 200.816c-15.634 7.845-30.822 24.396-30.537 43.122-.295 18.5 20.814 44.515 37.698 51.823s31.62 6.268 49.107 7.854c12.018-19.17 17.55-39.82 16.81-63.085-1.659-19.9-20.871-41.56-40.125-45.263-11.149-1.954-22.904.62-32.953 5.55z"/><path fill="#8d6e63" d="M52.678 220.764c-13.556 6.064-24.98 21.437-20.328 36.758 3.588 17.551 19.323 31.294 36.972 33.414 8.964 2.269 18.145 3.522 27.327 4.508 9.17-18.274 15.272-41.267 5.861-60.763-7.61-14.192-25.787-23.988-41.629-17.372-2.821.93-5.544 2.133-8.203 3.455"/><path fill="#a1887f" d="M53.845 239.955c-9.691 4.074-18.248 15.895-12.893 26.346 5.675 13.691 21.042 20.082 35.031 20.733 2.849.657 7.447 2.497 7.456-2.247 4.98-13.863 6.787-31.869-4.929-42.93-6.79-5.728-17.029-6.178-24.665-1.902"/><path fill="#5d4037" d="M54.157 190.578c-17.5 9.76-28.076 21.297-32.288 34.572.88.58 1.849 1.068 2.215 2.03.726 1.91-1.616 4.401.11 6.27 1.725 1.869 6.429.098 8.95.871s2.885 2.88 6 3.258c3.113.379 7.934-2.447 11.603-3.032 3.67-.585 6.598.443 10.284-.623 3.686-1.065 7.31-4.377 11.149-6.124s8.516-2.252 11.81-4.337c3.293-2.085 4.728-5.136 7.706-7.575s8.22-4.269 10.173-6.892.901-4.495 2.198-6.995 5.884-5.007 5.811-7.598c-.073-2.59-3.173-2.633-3.899-4.542-.274-.721-.11-1.527.108-2.35-13.564-6.196-29.144-6.076-44.955-.073-1.07.667-2.148 1.303-3.247 1.803-1.184.539-2.45.952-3.728 1.337"/><path fill="#efebe9" d="M52.71 189.383c-11.792 6.949-24.08 17.013-28.017 31.345 1.853 2.015 1.62 4.934 1.364 7.351 4.231-.121 8.962.53 12.217 3.97 6.14.352 11.423-4.493 17.83-2.325 8.481-.53 14.013-8.782 22.693-8.98 6.938-3.166 10.034-11.86 17.858-13.76 3.787-3.179 1.588-10.275 6.45-12.72 2.418-1.313 1.319-2.68-.524-4.07-1.444-2.266-1.884-4.712-4.944-4.89-15.319-5.834-31.415-2.842-44.926 4.08z"/><path fill="#efebe9" d="M54.518 189.337c-12.277 6.653-26.506 15.265-29.803 29.808-.238 7.974 9.924 10.086 16.227 9.587C63.41 227.21 85.79 216.28 98.976 198.02c3.417-4.792 3.82-13.71-3.205-15.26-13.797-4.78-28.644.967-41.253 6.578z"/><path fill="#fafafa" d="M50.297 191.701c-9.848 5.767-21.606 13.268-23.432 25.537 3.741 6.816 12.964 4.837 19.318 4.063 19.823-3.292 39.06-13.453 49.77-30.987 1.782-4.053-1.312-8.653-5.796-8.232-13.905-2.836-27.803 3.408-39.86 9.62z"/><path fill="#bcaaa4" d="M47.346 253.13a7 7 0 0 0-.488.19c-6.918 4.023-4.84 12.103-1.008 15.926 8.522 10.906 23.841 16.389 39.924 16.917.278.033.503.026.687-.01-15.16-.989-29.354-6.446-37.435-16.787-3.832-3.822-5.91-11.903 1.008-15.926.964-.417 2.002-.61 3.021-.7a40 40 0 0 0-2.161-.179c-1.164.04-2.396.165-3.548.568z"/><path fill="#efebe9" d="M76.754 199.903c-1.645-1.237-2.003-4.471-.59-5.793 1.411-1.323 3.959-.052 5.275.868 1.316.921 3.015 2.14 2.12 3.848-.895 1.71-5.16 2.314-6.805 1.077m-15.681 3.218c-1.81-.739-1.504-2.458-.41-4.026 1.093-1.568 5.57-3.266 6.997-2.512 1.427.753 1.114 1.147.27 2.643s-5.048 4.634-6.857 3.895m-10.697-.576c-1.898-.96-2.69-4.454-.616-6.047 2.075-1.593 6.772-1.378 8.282-.06 1.51 1.32.41 3.848-1.268 5.095s-4.5 1.972-6.398 1.012m-7.36 13.61c-1.532-1.08-1.85-3.937-.522-5.118 1.328-1.18 3.704-.078 4.93.725s2.81 1.867 1.963 3.385c-.846 1.519-4.84 2.088-6.371 1.008m24.72-12.196c.783-1.455 2.179-.594 3.847.214 1.67.807 5.48 3.354 4.953 5.28s-3.519 1.562-5.367.543-4.217-4.582-3.433-6.037m-6.344 9.953c-1.042 1.683-4.174 2.412-5.615 1.258s-.459-3.681.307-5.02c.767-1.338 1.785-3.07 3.552-2.445s2.799 4.524 1.756 6.207m-27.507-4.478c-1.267 1.523-1 4.388.522 5.118s3.602-1.077 4.628-2.237 2.346-2.682 1.221-3.889-5.104-.515-6.371 1.008m26.57-21.167c-.801 1.545.657 2.111 2.214 2.93 1.557.817 5.701 2.241 7.032.603 1.33-1.639-.557-3.791-2.387-4.618-1.83-.826-6.059-.46-6.86 1.085zm-22.159 12.817c-1.25 1.677-.95 4.881.584 5.725s3.596-1.137 4.61-2.413 2.319-2.952 1.178-4.32c-1.14-1.369-5.12-.67-6.372 1.008m31.032-15.902c-.566 1.215.49 1.68 1.619 2.346s4.13 1.843 5.077.56c.948-1.285-.43-3.012-1.756-3.688s-4.374-.433-4.94.782m13.082 2.584c-.567 1.215.489 1.68 1.618 2.347 1.13.666 4.13 1.842 5.077.559.948-1.284-.43-3.011-1.755-3.687-1.326-.676-4.375-.434-4.94.781"/><path fill="#4e342e" d="m203.516 208.054-.164-.098c-35.186-20.43-59.091-17.732-79.495 12.825-29.909 47.516 3.794 85.667 9.552 95.626 11.794 1.438 62.903 12.686 90.885-30.407 19.911-32.47 7.86-58.771-20.601-77.831l-.135-.083z"/><path fill="#6d4c41" d="M199.382 209.532c-16.021-9.61-36.57-15.75-54.094-6.479-15.06 8.447-31.307 28.713-32.052 46.3s2.158 40.81 18.031 61.24c.986 3.363 3.21 5.13 6.744 4.367 23.618.462 45.877-1.12 66.145-13.905 13.684-10.582 24.821-36.238 24.063-53.228-1.478-17.202-14.631-29.242-28.837-38.295"/><path fill="#795548" d="M192.597 211.41c-14.843-9.254-36.885-13.59-52.717-3.586-15.943 9.392-27.142 40.965-24.578 59.183s11.132 30.253 18.893 46.004c22.623.264 43.13-5.777 62.6-18.536 16.118-11.788 24.59-39.474 17.713-57.835-4.142-10.534-12.467-19.224-21.911-25.23"/><path fill="#8d6e63" d="M175.501 221.688c-12.24-8.408-31.316-10.146-41.966 1.81-13.108 12.21-16.636 32.802-9.245 48.97 2.735 8.832 6.452 17.32 10.396 25.67 20.375-1.699 43.178-8.475 54.911-26.669 8.145-13.892 7.03-34.51-6.872-44.58-2.265-1.924-4.71-3.622-7.224-5.201"/><path fill="#a1887f" d="M159.731 232.686c-8.528-6.147-23.077-7.288-29.205 2.73-8.726 11.979-6.17 28.424.566 40.702.924 2.774 1.75 7.657 5.803 5.192 14.427-2.976 30.735-10.819 34.07-26.583 1.348-8.78-3.605-17.752-11.234-22.041"/><path fill="#5d4037" d="M202.033 207.217c-17.45-9.848-32.81-12.861-46.334-9.536-.035 1.053.053 2.134-.578 2.948-1.25 1.615-4.598.915-5.294 3.361s3.267 5.539 3.922 8.093-.953 3.964.347 6.819 6.224 5.495 8.635 8.322c2.412 2.827 3.062 5.862 5.892 8.452s7.546 3.957 11.038 6.322 6.36 6.095 9.857 7.818c3.496 1.724 6.848 1.359 10.48 2.63 3.634 1.27 7.929 4.79 11.185 5.089s4.306-1.574 7.115-1.77 7.34 2.411 9.513.999c2.173-1.413.593-4.08 1.844-5.695.473-.61 1.247-.89 2.062-1.133-1.781-14.806-10.005-28.04-23.369-38.403-1.127-.566-2.231-1.155-3.231-1.832-1.077-.73-2.089-1.594-3.084-2.484"/><path fill="#efebe9" d="M202.299 205.36c-12.077-6.443-27.071-11.684-41.354-7.574-.754 2.631-3.366 3.955-5.563 4.996 2.31 3.547 4.22 7.924 2.98 12.494 2.9 5.425 9.788 7.407 11.278 14.006 4.873 6.961 14.798 7.381 19.492 14.686 6.318 4.27 15.35 2.382 21.05 8.068 4.687 1.575 9.597-4 14.217-1.125 2.382 1.379 2.975-.27 3.2-2.569 1.182-2.413 3.041-4.064 1.598-6.769-3.006-16.113-13.95-28.29-26.898-36.213"/><path fill="#efebe9" d="M203.28 206.878c-12.076-7.01-26.842-14.665-40.973-9.898-6.929 3.952-3.434 13.726.276 18.845 13.01 18.382 34.004 31.783 56.46 33.52 5.871.418 13.691-3.887 11.353-10.69-3.113-14.265-15.755-23.941-27.115-31.777z"/><path fill="#fafafa" d="M199.062 204.508c-10.054-5.4-22.584-11.524-34.006-6.688-3.867 6.746 2.629 13.585 6.6 18.605 13.143 15.201 31.841 26.322 52.388 26.323 4.387-.591 6.7-5.63 4.004-9.237-4.828-13.345-17.4-21.951-28.986-29.003"/><path fill="#bcaaa4" d="M145.1 234.007a7 7 0 0 0-.417-.317c-7.039-3.808-12.852 2.177-14.117 7.44-4.865 12.958-1.56 28.889 6.372 42.89.117.254.24.443.367.58-7.058-13.453-9.799-28.41-5.186-40.696 1.265-5.264 7.078-11.249 14.117-7.441.858.605 1.564 1.39 2.172 2.214a40 40 0 0 0-.974-1.939c-.64-.972-1.39-1.959-2.334-2.731"/><path fill="#efebe9" d="M205.853 231.361c.198-2.048 2.772-4.039 4.636-3.523s2.108 3.352 2.009 4.955-.254 3.688-2.18 3.815c-1.924.127-4.663-3.198-4.465-5.247m-10.92-11.705c-.312-1.929 1.314-2.564 3.222-2.449s5.691 3.053 5.792 4.663-.399 1.548-2.116 1.607c-1.717.06-6.586-1.892-6.898-3.82zm-5.083-9.429c-.17-2.12 2.398-4.618 4.84-3.678 2.44.94 4.704 5.061 4.366 7.038-.338 1.976-3.069 2.355-5.008 1.573s-4.029-2.812-4.198-4.933m-15.452.813c.123-1.871 2.396-3.63 4.096-3.113s1.997 3.12 1.95 4.585c-.046 1.465-.128 3.37-1.865 3.44s-4.305-3.042-4.181-4.912m23.293 14.74c1.65-.09 1.642 1.55 1.823 3.394.18 1.845-.006 6.425-1.925 6.98-1.919.554-3.167-2.19-3.26-4.298s1.712-5.987 3.362-6.077zm-11.801-.227c-1.98-.012-4.233-2.305-4-4.136s2.902-2.31 4.444-2.354 3.55-.077 3.938 1.756c.388 1.834-2.402 4.747-4.382 4.734m-10.516-25.809c-1.96-.287-4.266 1.433-4.096 3.113s2.797 2.513 4.322 2.784 3.512.604 3.955-.985-2.22-4.625-4.18-4.912zm31.913 11.643c-1.735.121-1.459 1.66-1.345 3.416.114 1.755 1.058 6.034 3.15 6.315s2.945-2.45 2.697-4.443-2.766-5.41-4.502-5.288M184.8 199.156c-2.083-.193-4.661 1.734-4.581 3.482.08 1.75 2.844 2.477 4.462 2.678 1.617.2 3.727.44 4.3-1.247.574-1.687-2.097-4.72-4.18-4.913zm29.746 18.194c-1.332.15-1.18 1.294-1.159 2.606.02 1.31.58 4.484 2.17 4.624s2.345-1.936 2.23-3.42c-.113-1.484-1.91-3.96-3.241-3.81m4.612 12.512c-1.332.15-1.179 1.293-1.159 2.605.02 1.31.58 4.484 2.17 4.624s2.345-1.936 2.231-3.42-1.91-3.96-3.242-3.81z"/><path fill="#4e342e" d="M168.118 278.895q-.022-.093-.047-.185c-10.356-39.347-29.137-54.381-65.186-47.274-54.773 12.341-58.02 63.143-61.012 74.25 7.304 9.372 35.402 53.52 85.681 42.937 37.057-8.806 47.187-35.906 40.607-69.521l-.036-.155z"/><path fill="#6d4c41" d="M164.153 277.01c-4.497-18.134-14.647-37.026-33.584-42.9-16.611-4.708-42.436-1.92-55.422 9.964-12.987 11.883-27.393 30.33-30.666 55.993-1.687 3.072-1.369 5.893 1.665 7.86 16.34 17.06 33.169 31.714 56.53 37.051 17.154 2.228 43.192-7.986 54.694-20.513 11.145-13.186 10.393-31.002 6.783-47.456z"/><path fill="#795548" d="M158.035 273.527c-3.919-17.047-16.402-35.723-34.662-39.882-17.905-4.668-48.179 9.679-59.277 24.351-11.099 14.673-13.579 29.237-19.262 45.85 15.778 16.217 34.53 26.483 57.31 31.273 19.726 3.102 45.32-10.434 53.477-28.263 4.54-10.368 4.822-22.399 2.414-33.33z"/><path fill="#8d6e63" d="M138.688 268.667c-2.681-14.606-14.911-29.347-30.898-28.456-17.902-.67-34.98 11.362-41.22 28.007-4.328 8.17-7.72 16.795-10.852 25.481 15.582 13.237 36.476 24.612 57.646 20.086 15.59-4.033 29.413-19.372 26.737-36.33-.236-2.962-.759-5.892-1.413-8.788"/><path fill="#a1887f" d="M119.766 265.255c-1.663-10.38-11.121-21.493-22.543-18.766-14.646 2.271-24.494 15.687-28.44 29.125-1.312 2.612-4.19 6.643.417 7.775 12.29 8.122 29.355 14.142 42.877 5.38 7.172-5.24 10.034-15.082 7.69-23.514z"/><path fill="#5d4037" d="M167.664 277.253c-5.337-19.313-14.041-32.321-25.94-39.557-.772.718-1.476 1.543-2.498 1.67-2.027.254-3.893-2.612-6.117-1.378s-1.619 6.223-2.966 8.49c-1.348 2.266-3.481 2.121-4.587 5.057s.498 8.288.198 11.992c-.301 3.703-1.993 6.305-1.83 10.139.161 3.833 2.52 8.139 3.309 12.281.788 4.143.17 8.808 1.416 12.501 1.246 3.694 3.87 5.81 5.534 9.282 1.664 3.47 2.2 8.997 4.287 11.515s4.154 1.94 6.275 3.793c2.122 1.852 3.471 6.902 6.006 7.445 2.534.542 3.31-2.46 5.336-2.713.766-.095 1.51.256 2.257.662 9.233-11.71 12.806-26.876 10.719-43.658-.395-1.199-.757-2.396-.982-3.583-.244-1.277-.345-2.604-.417-3.938"/><path fill="#efebe9" d="M169.167 276.131c-3.957-13.103-10.825-27.425-23.817-34.644-2.396 1.323-5.177.406-7.465-.416-.884 4.14-2.636 8.581-6.75 10.929-1.797 5.882 1.66 12.162-1.964 17.874-1.493 8.365 5.213 15.693 3.35 24.174 1.432 7.49 9.145 12.557 9.14 20.608 2.19 4.433 9.605 3.977 10.829 9.279.703 2.66 2.29 1.916 4.078.455 2.544-.866 5.025-.714 5.923-3.645 9.296-13.5 10.2-29.848 6.676-44.614"/><path fill="#efebe9" d="M168.785 277.898c-3.556-13.503-8.553-29.367-21.902-36.015-7.69-2.12-12.15 7.253-13.158 13.495-3.842 22.19 1.478 46.52 16.095 63.657 3.846 4.455 12.415 6.957 15.585.5 7.91-12.272 5.844-28.058 3.38-41.637"/><path fill="#fafafa" d="M167.487 273.237c-3.27-10.934-7.773-24.134-19.26-28.814-7.509 2.02-7.77 11.45-8.524 17.807-1.496 20.038 3.82 41.134 18.32 55.693 3.514 2.69 8.716.774 9.37-3.682 6.048-12.838 3.273-27.82.094-41.004"/><path fill="#bcaaa4" d="M108.506 255.821a7 7 0 0 0-.07-.52c-2.27-7.673-10.613-7.568-15.234-4.75-12.614 5.697-21.569 19.28-25.892 34.781a2.2 2.2 0 0 0-.152.67c4.551-14.495 13.214-26.992 25.175-32.394 4.621-2.818 12.964-2.923 15.234 4.751.177 1.035.119 2.09-.036 3.101a39 39 0 0 0 .686-2.057c.237-1.141.408-2.368.289-3.582"/><path fill="#efebe9" d="M153.253 296.998c1.591-1.305 4.818-.886 5.768.799s-.887 3.859-2.093 4.92c-1.207 1.06-2.793 2.423-4.241 1.148-1.448-1.274-1.025-5.561.566-6.867m.587-15.997c1.146-1.582 2.744-.879 4.009.555 1.264 1.434 1.854 6.186.783 7.394-1.07 1.207-1.378.81-2.631-.364-1.254-1.175-3.307-6.002-2.161-7.585m3.093-10.255c1.383-1.617 4.965-1.56 6.021.833s-.265 6.905-1.904 8.06-3.835-.512-4.649-2.438c-.814-1.925-.85-4.838.532-6.455m-11.48-10.375c1.413-1.233 4.264-.864 5.096.705.833 1.57-.8 3.618-1.871 4.619s-2.48 2.287-3.754 1.105-.883-5.196.53-6.429zm5.995 26.905c1.228 1.106.06 2.258-1.119 3.688s-4.556 4.53-6.303 3.561c-1.747-.968-.685-3.789.744-5.343 1.428-1.554 5.45-3.012 6.678-1.906m-8.168-8.52c-1.388-1.411-1.354-4.626.108-5.753s3.685.426 4.804 1.487 2.56 2.461 1.535 4.03c-1.026 1.568-5.058 1.648-6.447.236m10.866-25.664c-1.18-1.591-4.026-2.012-5.096-.705s.193 3.754 1.077 5.026 2.05 2.914 3.489 2.108c1.439-.807 1.71-4.838.53-6.43zm14.272 30.827c-1.311-1.144-2.207.138-3.37 1.458s-3.53 5.007-2.252 6.688c1.277 1.681 3.815.357 5.051-1.225 1.237-1.581 1.881-5.777.57-6.921zm-7.204-24.563c-1.333-1.613-4.518-2.08-5.7-.79s.252 3.764 1.252 5.051c.999 1.288 2.318 2.952 3.918 2.168 1.6-.785 1.863-4.817.53-6.43zm8.1 33.914c-1.046-.837-1.749.078-2.663 1.018-.915.94-2.768 3.575-1.746 4.8 1.023 1.225 3.027.296 3.998-.832.971-1.129 1.457-4.148.411-4.985zm-5.609 12.097c-1.047-.837-1.749.078-2.664 1.018-.914.94-2.768 3.575-1.745 4.8s3.027.296 3.998-.832c.97-1.129 1.457-4.148.41-4.986z"/></g></svg>