<svg xmlns="http://www.w3.org/2000/svg" width="512" height="512"><g transform="translate(0 -540.362)" color="#000"><g transform="matrix(-.65628 -.21999 -.19553 .91289 404.134 159.8)" fill="#3e2723"><ellipse ry="136" rx="48" cy="820.362" cx="16" style="isolation:auto;mix-blend-mode:normal" overflow="visible"/><ellipse transform="rotate(15)" style="isolation:auto;mix-blend-mode:normal" cx="192.581" cy="792.902" rx="48" ry="136" overflow="visible"/><ellipse ry="136" rx="48" cy="720.675" cx="356.038" style="isolation:auto;mix-blend-mode:normal" transform="rotate(30)" overflow="visible"/></g><path d="M384 780.362c0 56-72 208-128 208s-128-152-128-208c0-101.62 57.308-160 128-160 70.692 0 128 58.38 128 160z" style="isolation:auto;mix-blend-mode:normal" overflow="visible" fill="#5d4037"/><g transform="matrix(-.89934 0 0 1 329.558 0)" fill="#3e2723"><ellipse style="isolation:auto;mix-blend-mode:normal" cx="16" cy="820.362" rx="48" ry="136" overflow="visible"/><ellipse ry="136" rx="48" cy="792.902" cx="192.581" style="isolation:auto;mix-blend-mode:normal" transform="rotate(15)" overflow="visible"/><ellipse transform="rotate(30)" style="isolation:auto;mix-blend-mode:normal" cx="356.038" cy="720.675" rx="48" ry="136" overflow="visible"/></g><g transform="matrix(.91824 0 0 1 184.932 0)" fill="#4e342e"><ellipse ry="136" rx="48" cy="820.362" cx="16" style="isolation:auto;mix-blend-mode:normal" overflow="visible"/><ellipse transform="rotate(15)" style="isolation:auto;mix-blend-mode:normal" cx="192.581" cy="792.902" rx="48" ry="136" overflow="visible"/><ellipse ry="136" rx="48" cy="720.675" cx="356.038" style="isolation:auto;mix-blend-mode:normal" transform="rotate(30)" overflow="visible"/></g><ellipse ry="96" rx="128" cy="668.362" cx="256" style="isolation:auto;mix-blend-mode:normal" overflow="visible" fill="#6d4c41"/><path style="isolation:auto;mix-blend-mode:normal" d="M384 780.362c0 56-72 208-128 208s-128-152-128-208c0-101.62 57.308-160 128-160 70.692 0 128 58.38 128 160z" overflow="visible" fill="#5d4037"/><path style="isolation:auto;mix-blend-mode:normal" d="M256 620.362v368c56 0 128-152 128-208 0-101.62-57.308-160-128-160z" overflow="visible" fill="#4e342e"/><path d="M336 879.84c0 29.218-45 108.522-80 108.522s-80-79.304-80-108.522c0-53.019 35.817-83.478 80-83.478s80 30.46 80 83.478z" style="isolation:auto;mix-blend-mode:normal" overflow="visible" fill="#bcaaa4"/><path style="isolation:auto;mix-blend-mode:normal" d="M198.4 588.362a86.4 88 0 0 0-86.4 88 86.4 88 0 0 0 86.4 88 86.4 88 0 0 0 57.591-22.542 86.4 88 0 0 0 57.609 22.542 86.4 88 0 0 0 86.4-88 86.4 88 0 0 0-86.4-88 86.4 88 0 0 0-57.591 22.543 86.4 88 0 0 0-57.609-22.543z" overflow="visible" fill="#795548"/><circle style="isolation:auto;mix-blend-mode:normal" cx="192" cy="684.362" r="40" overflow="visible" fill="#fff"/><path style="isolation:auto;mix-blend-mode:normal" d="M313.6 588.362a86.4 88 0 0 0-57.591 22.543 86.4 88 0 0 0-.009-.008v130.93a86.4 88 0 0 0 57.6 22.535 86.4 88 0 0 0 86.4-88 86.4 88 0 0 0-86.4-88z" overflow="visible" fill="#6d4c41"/><circle cy="684.362" cx="320" style="isolation:auto;mix-blend-mode:normal" r="40" overflow="visible" fill="#fff"/><ellipse ry="16" rx="16" style="isolation:auto;mix-blend-mode:normal" cx="320" cy="684.362" overflow="visible" fill="#263238"/><ellipse cy="684.362" cx="192" style="isolation:auto;mix-blend-mode:normal" rx="16" ry="16" overflow="visible" fill="#263238"/><path style="isolation:auto;mix-blend-mode:normal" d="M288 727.029c0 14.727-16 40-32 53.333-16-13.333-32-38.606-32-53.333 0-14.728 14.327-26.667 32-26.667 17.673 0 32 11.94 32 26.667z" overflow="visible" fill="#ffc107"/><path d="M208 604.362c-32-16-48 0-112-32 0 32 16 48 48 64s64 0 112 48c0-32-16-64-48-80z" style="isolation:auto;mix-blend-mode:normal" overflow="visible" fill="#4e342e"/><path style="isolation:auto;mix-blend-mode:normal" d="M304 604.362c32-16 48 0 112-32 0 32-16 48-48 64s-64 0-112 48c0-32 16-64 48-80z" overflow="visible" fill="#3e2723"/><path style="isolation:auto;mix-blend-mode:normal" d="M256 700.362v80c16-13.333 32-38.606 32-53.333 0-14.728-14.327-26.667-32-26.667z" overflow="visible" fill="#ffa000"/><ellipse style="isolation:auto;mix-blend-mode:normal" cx="192" cy="952.362" rx="44" ry="32" overflow="visible" fill="#6d4c41"/><path style="isolation:auto;mix-blend-mode:normal" d="M256 796.362v192c35 0 80-79.304 80-108.521 0-53.02-35.817-83.479-80-83.479z" overflow="visible" fill="#a1887f"/><ellipse ry="32" rx="44" cy="952.362" cx="320" style="isolation:auto;mix-blend-mode:normal" overflow="visible" fill="#5d4037"/><rect style="isolation:auto;mix-blend-mode:normal" width="480" height="32" x="16" y="956.362" ry="16" overflow="visible" fill="#37474f"/><path style="isolation:auto;mix-blend-mode:normal" d="M256 956.362v32h224c8.864 0 16-7.136 16-16s-7.136-16-16-16H256z" overflow="visible" fill="#263238"/><path style="isolation:auto;mix-blend-mode:normal" d="M216 940.362c8.864 0 12 7.136 12 16 0 8-4 16-12 32-8-16-12-23.825-12-32 0-8.864 3.136-16 12-16zM192 932.362c8.864 0 12 7.136 12 16 0 8-4 16-12 32-8-16-12-23.825-12-32 0-8.864 3.136-16 12-16zM168 940.362c8.864 0 12 7.136 12 16 0 8-4 16-12 32-8-16-12-23.825-12-32 0-8.864 3.136-16 12-16zM344 940.362c8.864 0 12 7.136 12 16 0 8-4 16-12 32-8-16-12-23.825-12-32 0-8.864 3.136-16 12-16zM320 932.362c8.864 0 12 7.136 12 16 0 8-4 16-12 32-8-16-12-23.825-12-32 0-8.864 3.136-16 12-16zM296 940.362c8.864 0 12 7.136 12 16 0 8-4 16-12 32-8-16-12-23.825-12-32 0-8.864 3.136-16 12-16z" overflow="visible" fill="#ffc107"/></g></svg>