<svg xmlns="http://www.w3.org/2000/svg" width="512" height="512"><g color="#000" transform="translate(0 -540.362)"><g fill="#3e2723" transform="matrix(-.65628 -.21999 -.19553 .91289 404.134 159.8)"><ellipse cx="16" cy="820.362" overflow="visible" rx="48" ry="136" style="isolation:auto;mix-blend-mode:normal"/><ellipse cx="192.581" cy="792.902" overflow="visible" rx="48" ry="136" style="isolation:auto;mix-blend-mode:normal" transform="rotate(15)"/><ellipse cx="356.038" cy="720.675" overflow="visible" rx="48" ry="136" style="isolation:auto;mix-blend-mode:normal" transform="rotate(30)"/></g><path fill="#5d4037" d="M384 780.362c0 56-72 208-128 208s-128-152-128-208c0-101.62 57.308-160 128-160s128 58.38 128 160" overflow="visible" style="isolation:auto;mix-blend-mode:normal"/><g fill="#3e2723" transform="matrix(-.89934 0 0 1 329.558 0)"><ellipse cx="16" cy="820.362" overflow="visible" rx="48" ry="136" style="isolation:auto;mix-blend-mode:normal"/><ellipse cx="192.581" cy="792.902" overflow="visible" rx="48" ry="136" style="isolation:auto;mix-blend-mode:normal" transform="rotate(15)"/><ellipse cx="356.038" cy="720.675" overflow="visible" rx="48" ry="136" style="isolation:auto;mix-blend-mode:normal" transform="rotate(30)"/></g><g fill="#4e342e" transform="matrix(.91824 0 0 1 184.932 0)"><ellipse cx="16" cy="820.362" overflow="visible" rx="48" ry="136" style="isolation:auto;mix-blend-mode:normal"/><ellipse cx="192.581" cy="792.902" overflow="visible" rx="48" ry="136" style="isolation:auto;mix-blend-mode:normal" transform="rotate(15)"/><ellipse cx="356.038" cy="720.675" overflow="visible" rx="48" ry="136" style="isolation:auto;mix-blend-mode:normal" transform="rotate(30)"/></g><ellipse cx="256" cy="668.362" fill="#6d4c41" overflow="visible" rx="128" ry="96" style="isolation:auto;mix-blend-mode:normal"/><path fill="#5d4037" d="M384 780.362c0 56-72 208-128 208s-128-152-128-208c0-101.62 57.308-160 128-160s128 58.38 128 160" overflow="visible" style="isolation:auto;mix-blend-mode:normal"/><path fill="#4e342e" d="M256 620.362v368c56 0 128-152 128-208 0-101.62-57.308-160-128-160" overflow="visible" style="isolation:auto;mix-blend-mode:normal"/><path fill="#bcaaa4" d="M336 879.84c0 29.218-45 108.522-80 108.522s-80-79.304-80-108.522c0-53.019 35.817-83.478 80-83.478s80 30.46 80 83.478" overflow="visible" style="isolation:auto;mix-blend-mode:normal"/><path fill="#795548" d="M198.4 588.362a86.4 88 0 0 0-86.4 88 86.4 88 0 0 0 86.4 88 86.4 88 0 0 0 57.591-22.542 86.4 88 0 0 0 57.609 22.542 86.4 88 0 0 0 86.4-88 86.4 88 0 0 0-86.4-88 86.4 88 0 0 0-57.591 22.543 86.4 88 0 0 0-57.609-22.543" overflow="visible" style="isolation:auto;mix-blend-mode:normal"/><circle cx="192" cy="684.362" r="40" fill="#fff" overflow="visible" style="isolation:auto;mix-blend-mode:normal"/><path fill="#6d4c41" d="M313.6 588.362a86.4 88 0 0 0-57.591 22.543 86.4 88 0 0 0-.009-.008v130.93a86.4 88 0 0 0 57.6 22.535 86.4 88 0 0 0 86.4-88 86.4 88 0 0 0-86.4-88" overflow="visible" style="isolation:auto;mix-blend-mode:normal"/><circle cx="320" cy="684.362" r="40" fill="#fff" overflow="visible" style="isolation:auto;mix-blend-mode:normal"/><circle cx="320" cy="684.362" r="16" fill="#263238" overflow="visible" style="isolation:auto;mix-blend-mode:normal"/><circle cx="192" cy="684.362" r="16" fill="#263238" overflow="visible" style="isolation:auto;mix-blend-mode:normal"/><path fill="#ffc107" d="M288 727.029c0 14.727-16 40-32 53.333-16-13.333-32-38.606-32-53.333 0-14.728 14.327-26.667 32-26.667s32 11.94 32 26.667" overflow="visible" style="isolation:auto;mix-blend-mode:normal"/><path fill="#4e342e" d="M208 604.362c-32-16-48 0-112-32 0 32 16 48 48 64s64 0 112 48c0-32-16-64-48-80" overflow="visible" style="isolation:auto;mix-blend-mode:normal"/><path fill="#3e2723" d="M304 604.362c32-16 48 0 112-32 0 32-16 48-48 64s-64 0-112 48c0-32 16-64 48-80" overflow="visible" style="isolation:auto;mix-blend-mode:normal"/><path fill="#ffa000" d="M256 700.362v80c16-13.333 32-38.606 32-53.333 0-14.728-14.327-26.667-32-26.667" overflow="visible" style="isolation:auto;mix-blend-mode:normal"/><ellipse cx="192" cy="952.362" fill="#6d4c41" overflow="visible" rx="44" ry="32" style="isolation:auto;mix-blend-mode:normal"/><path fill="#a1887f" d="M256 796.362v192c35 0 80-79.304 80-108.521 0-53.02-35.817-83.479-80-83.479" overflow="visible" style="isolation:auto;mix-blend-mode:normal"/><ellipse cx="320" cy="952.362" fill="#5d4037" overflow="visible" rx="44" ry="32" style="isolation:auto;mix-blend-mode:normal"/><rect width="480" height="32" x="16" y="956.362" fill="#37474f" overflow="visible" ry="16" style="isolation:auto;mix-blend-mode:normal"/><path fill="#263238" d="M256 956.362v32h224c8.864 0 16-7.136 16-16s-7.136-16-16-16z" overflow="visible" style="isolation:auto;mix-blend-mode:normal"/><path fill="#ffc107" d="M216 940.362c8.864 0 12 7.136 12 16 0 8-4 16-12 32-8-16-12-23.825-12-32 0-8.864 3.136-16 12-16m-24-8c8.864 0 12 7.136 12 16 0 8-4 16-12 32-8-16-12-23.825-12-32 0-8.864 3.136-16 12-16m-24 8c8.864 0 12 7.136 12 16 0 8-4 16-12 32-8-16-12-23.825-12-32 0-8.864 3.136-16 12-16m176 0c8.864 0 12 7.136 12 16 0 8-4 16-12 32-8-16-12-23.825-12-32 0-8.864 3.136-16 12-16m-24-8c8.864 0 12 7.136 12 16 0 8-4 16-12 32-8-16-12-23.825-12-32 0-8.864 3.136-16 12-16m-24 8c8.864 0 12 7.136 12 16 0 8-4 16-12 32-8-16-12-23.825-12-32 0-8.864 3.136-16 12-16" overflow="visible" style="isolation:auto;mix-blend-mode:normal"/></g></svg>