<svg xmlns="http://www.w3.org/2000/svg" width="512" height="512"><ellipse cx="256" cy="332.236" fill="#c5e1a5" color="#000" overflow="visible" rx="248" ry="171.764" style="isolation:auto;mix-blend-mode:normal"/><path fill="#5d4037" d="M244 428.603V468h-12v-39.397z" color="#000" overflow="visible" style="isolation:auto;mix-blend-mode:normal"/><path fill="#f1f8e9" fill-rule="evenodd" d="M226.383 171.462c-14.855 1.738-.48 9.446-.4 17.2 27.69-18.872 106.398 7.458 107.913 27.319s-55.506 10.265-53.865 65.132c1.539 51.435 115.945 135.84 179.7 148.36 28.798-28.736 44.243-62.876 44.269-97.856a120 120 0 0 0-1.72-18.418c-50.087-9.926-122.813-8.41-137.677-43.467-14.864-35.056 24.505-28.053 26.369-51.05 1.864-22.999-133.464-64.711-164.59-47.22z"/><g color="#000"><path fill="#795548" d="M416 178.667h32V264h-32z" overflow="visible" style="isolation:auto;mix-blend-mode:normal"/><path fill="#5d4037" d="M432 178.667h16V264h-16z" overflow="visible" style="isolation:auto;mix-blend-mode:normal"/></g><path fill="#8bc34a" d="M496 128.25c0 57.438-28.654 87.75-64 87.75s-64-30.312-64-87.75S396.654 8 432 8s64 62.812 64 120.25" color="#000" overflow="visible" style="isolation:auto;mix-blend-mode:normal"/><path fill="#5d4037" d="M376 429.473V468h-12v-38.527zm-96-30.237V460h-12v-60.764zM340 388v72h-12v-72z" color="#000" overflow="visible" style="isolation:auto;mix-blend-mode:normal"/><path fill="#a1887f" d="M220 424v8h172v-8l-12-8H232zm12-28v8h144v-8l-24-16h-96z" color="#000" overflow="visible" style="isolation:auto;mix-blend-mode:normal"/><path fill="#795548" d="M232 396h144v8H232zm-12 28h172v8H220z" color="#000" overflow="visible" style="isolation:auto;mix-blend-mode:normal"/><path fill="#689f38" d="M432 8v208c35.346 0 64-30.312 64-87.75S467.346 8 432 8" color="#000" overflow="visible" style="isolation:auto;mix-blend-mode:normal"/><path fill="#795548" d="M88 129.607h32V216H88z" color="#000" overflow="visible" style="isolation:auto;mix-blend-mode:normal"/><path fill="#5d4037" d="M104 129.607h16V216h-16z" color="#000" overflow="visible" style="isolation:auto;mix-blend-mode:normal"/><path fill="#8bc34a" d="m104 40 64 150.857H40z"/><path fill="#689f38" d="m104 40 64 150.857h-64z"/><path fill="#795548" d="M189.714 169.607h36.571V264h-36.571z" color="#000" overflow="visible" style="isolation:auto;mix-blend-mode:normal"/><path fill="#5d4037" d="M208 169.607h18.286V264H208z" color="#000" overflow="visible" style="isolation:auto;mix-blend-mode:normal"/><path fill="#8bc34a" d="m208 80 72 160H136z"/><path fill="#689f38" d="m208 80 72 160h-72z"/><g color="#000"><path fill="#795548" d="M104 322.667h32V408h-32z" overflow="visible" style="isolation:auto;mix-blend-mode:normal"/><path fill="#5d4037" d="M120 322.667h16V408h-16z" overflow="visible" style="isolation:auto;mix-blend-mode:normal"/></g><path fill="#8bc34a" d="M118.588 200a33.882 33 0 0 0-33.882 33 33.882 33 0 0 0 .002.048 39.53 38.5 0 0 0-38.12 38.452 39.53 38.5 0 0 0 5.642 19.741A45.176 44 0 0 0 24 332a45.176 44 0 0 0 45.176 44h101.648A45.176 44 0 0 0 216 332a45.176 44 0 0 0-28.237-40.759 39.53 38.5 0 0 0 5.649-19.741 39.53 38.5 0 0 0-39.53-38.5 39.53 38.5 0 0 0-1.414.048 33.882 33 0 0 0 .003-.048 33.882 33 0 0 0-33.883-33" color="#000" overflow="visible" style="isolation:auto;mix-blend-mode:normal"/><path fill="#689f38" d="M120 200.048V376h50.824A45.176 44 0 0 0 216 332a45.176 44 0 0 0-28.236-40.76 39.53 38.5 0 0 0 5.648-19.74 39.53 38.5 0 0 0-39.53-38.5 39.53 38.5 0 0 0-1.413.048 33.882 33 0 0 0 .002-.048A33.882 33 0 0 0 120 200.048" color="#000" overflow="visible" style="isolation:auto;mix-blend-mode:normal"/></svg>