<svg xmlns="http://www.w3.org/2000/svg" width="512" height="512"><g color="#000"><g transform="scale(.7619) rotate(30 329.494 151)" fill="#f44336"><path d="M216 224c-38.443.01-59.442 30.77-71.832 53.389-12.39 22.619-32.156 24.31-32.168 50.611-.012 26.301 30.696 56.014 56 56 25.304-.014 28.314-27.282 47.996-27.28 19.682.003 22.698 27.268 48.004 27.28 25.306.012 56.015-29.711 56-56-.015-26.289-19.76-27.937-32.117-50.576C275.525 254.784 254.443 223.99 216 224z" style="isolation:auto;mix-blend-mode:normal" overflow="visible"/><ellipse transform="matrix(.49819 .86707 -.86497 .50182 0 0)" ry="41.982" rx="33.667" cy="-180.702" cx="376.762" style="isolation:auto;mix-blend-mode:normal" overflow="visible"/><ellipse transform="matrix(.97206 .23471 -.28501 .95852 0 0)" style="isolation:auto;mix-blend-mode:normal" cx="301.756" cy="88.86" rx="33.531" ry="53.625" overflow="visible"/><ellipse ry="53.659" rx="33.776" cy="190.153" cx="112.23" style="isolation:auto;mix-blend-mode:normal" transform="matrix(.97247 -.23301 .28704 .95792 0 0)" overflow="visible"/><ellipse style="isolation:auto;mix-blend-mode:normal" cx="-159.976" cy="193.876" rx="33.667" ry="41.982" transform="matrix(.49819 -.86707 .86497 .50182 0 0)" overflow="visible"/></g><g transform="scale(-.66667) rotate(60 468.412 -836.22)" fill="#8bc34a"><path style="isolation:auto;mix-blend-mode:normal" d="M216 224c-38.443.01-59.442 30.77-71.832 53.389-12.39 22.619-32.156 24.31-32.168 50.611-.012 26.301 30.696 56.014 56 56 25.304-.014 28.314-27.282 47.996-27.28 19.682.003 22.698 27.268 48.004 27.28 25.306.012 56.015-29.711 56-56-.015-26.289-19.76-27.937-32.117-50.576C275.525 254.784 254.443 223.99 216 224z" overflow="visible"/><ellipse style="isolation:auto;mix-blend-mode:normal" cx="376.762" cy="-180.702" rx="33.667" ry="41.982" transform="matrix(.49819 .86707 -.86497 .50182 0 0)" overflow="visible"/><ellipse ry="53.625" rx="33.531" cy="88.86" cx="301.756" style="isolation:auto;mix-blend-mode:normal" transform="matrix(.97206 .23471 -.28501 .95852 0 0)" overflow="visible"/><ellipse transform="matrix(.97247 -.23301 .28704 .95792 0 0)" style="isolation:auto;mix-blend-mode:normal" cx="112.23" cy="190.153" rx="33.776" ry="53.659" overflow="visible"/><ellipse transform="matrix(.49819 -.86707 .86497 .50182 0 0)" ry="41.982" rx="33.667" cy="193.876" cx="-159.976" style="isolation:auto;mix-blend-mode:normal" overflow="visible"/></g><g transform="rotate(120 241.07 201.164) scale(.47619)" fill="#ffc107"><path d="M216 224c-38.443.01-59.442 30.77-71.832 53.389-12.39 22.619-32.156 24.31-32.168 50.611-.012 26.301 30.696 56.014 56 56 25.304-.014 28.314-27.282 47.996-27.28 19.682.003 22.698 27.268 48.004 27.28 25.306.012 56.015-29.711 56-56-.015-26.289-19.76-27.937-32.117-50.576C275.525 254.784 254.443 223.99 216 224z" style="isolation:auto;mix-blend-mode:normal" overflow="visible"/><ellipse transform="matrix(.49819 .86707 -.86497 .50182 0 0)" ry="41.982" rx="33.667" cy="-180.702" cx="376.762" style="isolation:auto;mix-blend-mode:normal" overflow="visible"/><ellipse transform="matrix(.97206 .23471 -.28501 .95852 0 0)" style="isolation:auto;mix-blend-mode:normal" cx="301.756" cy="88.86" rx="33.531" ry="53.625" overflow="visible"/><ellipse ry="53.659" rx="33.776" cy="190.153" cx="112.23" style="isolation:auto;mix-blend-mode:normal" transform="matrix(.97247 -.23301 .28704 .95792 0 0)" overflow="visible"/><ellipse style="isolation:auto;mix-blend-mode:normal" cx="-159.976" cy="193.876" rx="33.667" ry="41.982" transform="matrix(.49819 -.86707 .86497 .50182 0 0)" overflow="visible"/></g><g transform="rotate(-30 578.971 159.442) scale(.57143)" fill="#03a9f4"><path style="isolation:auto;mix-blend-mode:normal" d="M216 224c-38.443.01-59.442 30.77-71.832 53.389-12.39 22.619-32.156 24.31-32.168 50.611-.012 26.301 30.696 56.014 56 56 25.304-.014 28.314-27.282 47.996-27.28 19.682.003 22.698 27.268 48.004 27.28 25.306.012 56.015-29.711 56-56-.015-26.289-19.76-27.937-32.117-50.576C275.525 254.784 254.443 223.99 216 224z" overflow="visible"/><ellipse style="isolation:auto;mix-blend-mode:normal" cx="376.762" cy="-180.702" rx="33.667" ry="41.982" transform="matrix(.49819 .86707 -.86497 .50182 0 0)" overflow="visible"/><ellipse ry="53.625" rx="33.531" cy="88.86" cx="301.756" style="isolation:auto;mix-blend-mode:normal" transform="matrix(.97206 .23471 -.28501 .95852 0 0)" overflow="visible"/><ellipse transform="matrix(.97247 -.23301 .28704 .95792 0 0)" style="isolation:auto;mix-blend-mode:normal" cx="112.23" cy="190.153" rx="33.776" ry="53.659" overflow="visible"/><ellipse transform="matrix(.49819 -.86707 .86497 .50182 0 0)" ry="41.982" rx="33.667" cy="193.876" cx="-159.976" style="isolation:auto;mix-blend-mode:normal" overflow="visible"/></g></g></svg>