<svg xmlns="http://www.w3.org/2000/svg" width="512" height="512"><g color="#000"><g fill="#f44336" transform="rotate(30 251.041 115.047)scale(.7619)"><path d="M216 224c-38.443.01-59.442 30.77-71.832 53.389S112.012 301.699 112 328s30.696 56.014 56 56 28.314-27.282 47.996-27.28c19.682.003 22.698 27.268 48.004 27.28s56.015-29.711 56-56-19.76-27.937-32.117-50.576C275.525 254.784 254.443 223.99 216 224" overflow="visible" style="isolation:auto;mix-blend-mode:normal"/><ellipse cx="376.762" cy="-180.702" overflow="visible" rx="33.667" ry="41.982" style="isolation:auto;mix-blend-mode:normal" transform="rotate(60.12)skewX(.24)"/><ellipse cx="301.756" cy="88.86" overflow="visible" rx="33.531" ry="53.625" style="isolation:auto;mix-blend-mode:normal" transform="rotate(16.56)scale(.99864 1)skewY(-2.98)"/><ellipse cx="112.23" cy="190.153" overflow="visible" rx="33.776" ry="53.659" style="isolation:auto;mix-blend-mode:normal" transform="matrix(.97247 -.23301 .28704 .95792 0 0)"/><ellipse cx="-159.976" cy="193.876" overflow="visible" rx="33.667" ry="41.982" style="isolation:auto;mix-blend-mode:normal" transform="rotate(-60.12)skewX(-.24)"/></g><g fill="#8bc34a" transform="rotate(240 321.863 180.293)scale(.66667)"><path d="M216 224c-38.443.01-59.442 30.77-71.832 53.389S112.012 301.699 112 328s30.696 56.014 56 56 28.314-27.282 47.996-27.28c19.682.003 22.698 27.268 48.004 27.28s56.015-29.711 56-56-19.76-27.937-32.117-50.576C275.525 254.784 254.443 223.99 216 224" overflow="visible" style="isolation:auto;mix-blend-mode:normal"/><ellipse cx="376.762" cy="-180.702" overflow="visible" rx="33.667" ry="41.982" style="isolation:auto;mix-blend-mode:normal" transform="rotate(60.12)skewX(.24)"/><ellipse cx="301.756" cy="88.86" overflow="visible" rx="33.531" ry="53.625" style="isolation:auto;mix-blend-mode:normal" transform="rotate(16.56)scale(.99864 1)skewY(-2.98)"/><ellipse cx="112.23" cy="190.153" overflow="visible" rx="33.776" ry="53.659" style="isolation:auto;mix-blend-mode:normal" transform="matrix(.97247 -.23301 .28704 .95792 0 0)"/><ellipse cx="-159.976" cy="193.876" overflow="visible" rx="33.667" ry="41.982" style="isolation:auto;mix-blend-mode:normal" transform="rotate(-60.12)skewX(-.24)"/></g><g fill="#ffc107" transform="rotate(120 241.07 201.164)scale(.47619)"><path d="M216 224c-38.443.01-59.442 30.77-71.832 53.389S112.012 301.699 112 328s30.696 56.014 56 56 28.314-27.282 47.996-27.28c19.682.003 22.698 27.268 48.004 27.28s56.015-29.711 56-56-19.76-27.937-32.117-50.576C275.525 254.784 254.443 223.99 216 224" overflow="visible" style="isolation:auto;mix-blend-mode:normal"/><ellipse cx="376.762" cy="-180.702" overflow="visible" rx="33.667" ry="41.982" style="isolation:auto;mix-blend-mode:normal" transform="rotate(60.12)skewX(.24)"/><ellipse cx="301.756" cy="88.86" overflow="visible" rx="33.531" ry="53.625" style="isolation:auto;mix-blend-mode:normal" transform="rotate(16.56)scale(.99864 1)skewY(-2.98)"/><ellipse cx="112.23" cy="190.153" overflow="visible" rx="33.776" ry="53.659" style="isolation:auto;mix-blend-mode:normal" transform="matrix(.97247 -.23301 .28704 .95792 0 0)"/><ellipse cx="-159.976" cy="193.876" overflow="visible" rx="33.667" ry="41.982" style="isolation:auto;mix-blend-mode:normal" transform="rotate(-60.12)skewX(-.24)"/></g><g fill="#03a9f4" transform="rotate(-30 578.971 159.442)scale(.57143)"><path d="M216 224c-38.443.01-59.442 30.77-71.832 53.389S112.012 301.699 112 328s30.696 56.014 56 56 28.314-27.282 47.996-27.28c19.682.003 22.698 27.268 48.004 27.28s56.015-29.711 56-56-19.76-27.937-32.117-50.576C275.525 254.784 254.443 223.99 216 224" overflow="visible" style="isolation:auto;mix-blend-mode:normal"/><ellipse cx="376.762" cy="-180.702" overflow="visible" rx="33.667" ry="41.982" style="isolation:auto;mix-blend-mode:normal" transform="rotate(60.12)skewX(.24)"/><ellipse cx="301.756" cy="88.86" overflow="visible" rx="33.531" ry="53.625" style="isolation:auto;mix-blend-mode:normal" transform="rotate(16.56)scale(.99864 1)skewY(-2.98)"/><ellipse cx="112.23" cy="190.153" overflow="visible" rx="33.776" ry="53.659" style="isolation:auto;mix-blend-mode:normal" transform="matrix(.97247 -.23301 .28704 .95792 0 0)"/><ellipse cx="-159.976" cy="193.876" overflow="visible" rx="33.667" ry="41.982" style="isolation:auto;mix-blend-mode:normal" transform="rotate(-60.12)skewX(-.24)"/></g></g></svg>