<svg xmlns="http://www.w3.org/2000/svg" width="512" height="512"><g transform="rotate(15 419.821 335.974)"><ellipse cx="368" cy="400" fill="#8bc34a" color="#000" overflow="visible" rx="64" ry="80" style="isolation:auto;mix-blend-mode:normal"/><ellipse cx="432" cy="400" fill="#8bc34a" color="#000" overflow="visible" rx="64" ry="80" style="isolation:auto;mix-blend-mode:normal"/><ellipse cx="384" cy="328" fill="#8bc34a" color="#000" overflow="visible" rx="48" ry="104" style="isolation:auto;mix-blend-mode:normal"/><ellipse cx="416" cy="328" fill="#8bc34a" color="#000" overflow="visible" rx="48" ry="104" style="isolation:auto;mix-blend-mode:normal"/><path fill="#7cb342" d="M416 224a48 104 0 0 0-16.01 6.072 48 104 0 0 0-.08-.052v239.21a64 80 0 0 0 .07-.048A64 80 0 0 0 432 480a64 80 0 0 0 64-80 64 80 0 0 0-32.064-69.246A48 104 0 0 0 464 328a48 104 0 0 0-48-104" color="#000" overflow="visible" style="isolation:auto;mix-blend-mode:normal"/><path fill="#8d6e63" fill-rule="evenodd" d="M392 232c0 8 16 8 16 0l16-80c0-8-32-8-32 0z"/><path fill="#795548" fill-rule="evenodd" d="M408 146c-.254 0-.504.02-.758.023l-6.699 91.944c3.81-.174 7.457-2.149 7.457-5.967l16-80c0-4-8-6-16-6"/></g><g transform="rotate(-15 404.31 448.92)scale(.83333)"><ellipse cx="128" cy="400" fill="#8bc34a" color="#000" overflow="visible" rx="64" ry="80" style="isolation:auto;mix-blend-mode:normal"/><ellipse cx="192" cy="400" fill="#8bc34a" color="#000" overflow="visible" rx="64" ry="80" style="isolation:auto;mix-blend-mode:normal"/><ellipse cx="144" cy="328" fill="#8bc34a" color="#000" overflow="visible" rx="48" ry="104" style="isolation:auto;mix-blend-mode:normal"/><ellipse cx="176" cy="328" fill="#8bc34a" color="#000" overflow="visible" rx="48" ry="104" style="isolation:auto;mix-blend-mode:normal"/><path fill="#7cb342" d="M176 224a48 104 0 0 0-16.01 6.072 48 104 0 0 0-.08-.052v239.21a64 80 0 0 0 .07-.048A64 80 0 0 0 192 480a64 80 0 0 0 64-80 64 80 0 0 0-32.064-69.246A48 104 0 0 0 224 328a48 104 0 0 0-48-104" color="#000" overflow="visible" style="isolation:auto;mix-blend-mode:normal"/><path fill="#8d6e63" fill-rule="evenodd" d="M152 232c0 8 16 8 16 0l16-80c0-8-32-8-32 0z"/><path fill="#795548" fill-rule="evenodd" d="M168 146c-.254 0-.504.02-.758.023l-6.699 91.944c3.81-.174 7.457-2.149 7.457-5.967l16-80c0-4-8-6-16-6"/><ellipse cx="144" cy="328" fill="#f1f8e9" color="#000" overflow="visible" rx="32" ry="88" style="isolation:auto;mix-blend-mode:normal"/><ellipse cx="176" cy="328" fill="#f1f8e9" color="#000" overflow="visible" rx="32" ry="88" style="isolation:auto;mix-blend-mode:normal"/><ellipse cx="128" cy="400" fill="#f1f8e9" color="#000" overflow="visible" rx="48" ry="64" style="isolation:auto;mix-blend-mode:normal"/><ellipse cx="192" cy="400" fill="#f1f8e9" color="#000" overflow="visible" rx="48" ry="64" style="isolation:auto;mix-blend-mode:normal"/><path fill="#dcedc8" d="M176 240a32 88 0 0 0-15.99 11.9 32 88 0 0 0-.01-.013v195.722A48 64 0 0 0 192 464a48 64 0 0 0 48-64 48 64 0 0 0-32.314-60.41A32 88 0 0 0 208 328a32 88 0 0 0-32-88" color="#000" overflow="visible" style="isolation:auto;mix-blend-mode:normal"/><path fill="#37474f" d="M148.785 388c-3.314 5.74-10.653 7.706-16.393 4.392S124.686 381.74 128 376s16.653-18.098 22.392-14.785c5.74 3.314 1.706 21.045-1.607 26.785m22.43 0c3.314 5.74 10.653 7.706 16.393 4.392S195.314 381.74 192 376s-16.653-18.098-22.392-14.785c-5.74 3.314-1.706 21.045 1.607 26.785" color="#000" overflow="visible" style="isolation:auto;mix-blend-mode:normal"/></g><g transform="translate(-26.667 -64)scale(.66667)"><ellipse cx="368" cy="400" fill="#8bc34a" color="#000" overflow="visible" rx="64" ry="80" style="isolation:auto;mix-blend-mode:normal"/><ellipse cx="432" cy="400" fill="#8bc34a" color="#000" overflow="visible" rx="64" ry="80" style="isolation:auto;mix-blend-mode:normal"/><ellipse cx="384" cy="328" fill="#8bc34a" color="#000" overflow="visible" rx="48" ry="104" style="isolation:auto;mix-blend-mode:normal"/><ellipse cx="416" cy="328" fill="#8bc34a" color="#000" overflow="visible" rx="48" ry="104" style="isolation:auto;mix-blend-mode:normal"/><path fill="#7cb342" d="M416 224a48 104 0 0 0-16.01 6.072 48 104 0 0 0-.08-.052v239.21a64 80 0 0 0 .07-.048A64 80 0 0 0 432 480a64 80 0 0 0 64-80 64 80 0 0 0-32.064-69.246A48 104 0 0 0 464 328a48 104 0 0 0-48-104" color="#000" overflow="visible" style="isolation:auto;mix-blend-mode:normal"/><path fill="#8d6e63" fill-rule="evenodd" d="M392 232c0 8 16 8 16 0l16-80c0-8-32-8-32 0z"/><path fill="#795548" fill-rule="evenodd" d="M408 146c-.254 0-.504.02-.758.023l-6.699 91.944c3.81-.174 7.457-2.149 7.457-5.967l16-80c0-4-8-6-16-6"/></g></svg>