<svg xmlns="http://www.w3.org/2000/svg" width="512" height="512"><g transform="rotate(15 419.821 335.974)"><ellipse ry="80" rx="64" cy="400" cx="368" style="isolation:auto;mix-blend-mode:normal" color="#000" overflow="visible" fill="#8bc34a"/><ellipse style="isolation:auto;mix-blend-mode:normal" cx="432" cy="400" rx="64" ry="80" color="#000" overflow="visible" fill="#8bc34a"/><ellipse ry="104" rx="48" cy="328" cx="384" style="isolation:auto;mix-blend-mode:normal" color="#000" overflow="visible" fill="#8bc34a"/><ellipse style="isolation:auto;mix-blend-mode:normal" cx="416" cy="328" rx="48" ry="104" color="#000" overflow="visible" fill="#8bc34a"/><path d="M416 224a48 104 0 0 0-16.01 6.072 48 104 0 0 0-.08-.052v239.21a64 80 0 0 0 .07-.048A64 80 0 0 0 432 480a64 80 0 0 0 64-80 64 80 0 0 0-32.064-69.246A48 104 0 0 0 464 328a48 104 0 0 0-48-104z" style="isolation:auto;mix-blend-mode:normal" color="#000" overflow="visible" fill="#7cb342"/><path d="M392 232c0 8 16 8 16 0l16-80c0-8-32-8-32 0z" fill="#8d6e63" fill-rule="evenodd"/><path d="M408 146c-.254 0-.504.02-.758.023l-6.699 91.944c3.81-.174 7.457-2.149 7.457-5.967l16-80c0-4-8-6-16-6z" fill="#795548" fill-rule="evenodd"/></g><g transform="scale(.83333) rotate(-15 485.175 538.707)"><ellipse style="isolation:auto;mix-blend-mode:normal" cx="128" cy="400" rx="64" ry="80" color="#000" overflow="visible" fill="#8bc34a"/><ellipse ry="80" rx="64" cy="400" cx="192" style="isolation:auto;mix-blend-mode:normal" color="#000" overflow="visible" fill="#8bc34a"/><ellipse style="isolation:auto;mix-blend-mode:normal" cx="144" cy="328" rx="48" ry="104" color="#000" overflow="visible" fill="#8bc34a"/><ellipse ry="104" rx="48" cy="328" cx="176" style="isolation:auto;mix-blend-mode:normal" color="#000" overflow="visible" fill="#8bc34a"/><path style="isolation:auto;mix-blend-mode:normal" d="M176 224a48 104 0 0 0-16.01 6.072 48 104 0 0 0-.08-.052v239.21a64 80 0 0 0 .07-.048A64 80 0 0 0 192 480a64 80 0 0 0 64-80 64 80 0 0 0-32.064-69.246A48 104 0 0 0 224 328a48 104 0 0 0-48-104z" color="#000" overflow="visible" fill="#7cb342"/><path d="M152 232c0 8 16 8 16 0l16-80c0-8-32-8-32 0z" fill="#8d6e63" fill-rule="evenodd"/><path d="M168 146c-.254 0-.504.02-.758.023l-6.699 91.944c3.81-.174 7.457-2.149 7.457-5.967l16-80c0-4-8-6-16-6z" fill="#795548" fill-rule="evenodd"/><ellipse ry="88" rx="32" cy="328" cx="144" style="isolation:auto;mix-blend-mode:normal" color="#000" overflow="visible" fill="#f1f8e9"/><ellipse style="isolation:auto;mix-blend-mode:normal" cx="176" cy="328" rx="32" ry="88" color="#000" overflow="visible" fill="#f1f8e9"/><ellipse ry="64" rx="48" cy="400" cx="128" style="isolation:auto;mix-blend-mode:normal" color="#000" overflow="visible" fill="#f1f8e9"/><ellipse style="isolation:auto;mix-blend-mode:normal" cx="192" cy="400" rx="48" ry="64" color="#000" overflow="visible" fill="#f1f8e9"/><path d="M176 240a32 88 0 0 0-15.99 11.9 32 88 0 0 0-.01-.013v195.722A48 64 0 0 0 192 464a48 64 0 0 0 48-64 48 64 0 0 0-32.314-60.41A32 88 0 0 0 208 328a32 88 0 0 0-32-88z" style="isolation:auto;mix-blend-mode:normal" color="#000" overflow="visible" fill="#dcedc8"/><path d="M148.785 388c-3.314 5.74-10.653 7.706-16.393 4.392-5.74-3.313-7.706-10.652-4.392-16.392s16.653-18.098 22.392-14.785c5.74 3.314 1.706 21.045-1.607 26.785zM171.215 388c3.314 5.74 10.653 7.706 16.393 4.392 5.74-3.313 7.706-10.652 4.392-16.392s-16.653-18.098-22.392-14.785c-5.74 3.314-1.706 21.045 1.607 26.785z" style="isolation:auto;mix-blend-mode:normal" color="#000" overflow="visible" fill="#37474f"/></g><g transform="matrix(.66667 0 0 .66667 -26.667 -64)"><ellipse style="isolation:auto;mix-blend-mode:normal" cx="368" cy="400" rx="64" ry="80" color="#000" overflow="visible" fill="#8bc34a"/><ellipse ry="80" rx="64" cy="400" cx="432" style="isolation:auto;mix-blend-mode:normal" color="#000" overflow="visible" fill="#8bc34a"/><ellipse style="isolation:auto;mix-blend-mode:normal" cx="384" cy="328" rx="48" ry="104" color="#000" overflow="visible" fill="#8bc34a"/><ellipse ry="104" rx="48" cy="328" cx="416" style="isolation:auto;mix-blend-mode:normal" color="#000" overflow="visible" fill="#8bc34a"/><path style="isolation:auto;mix-blend-mode:normal" d="M416 224a48 104 0 0 0-16.01 6.072 48 104 0 0 0-.08-.052v239.21a64 80 0 0 0 .07-.048A64 80 0 0 0 432 480a64 80 0 0 0 64-80 64 80 0 0 0-32.064-69.246A48 104 0 0 0 464 328a48 104 0 0 0-48-104z" color="#000" overflow="visible" fill="#7cb342"/><path d="M392 232c0 8 16 8 16 0l16-80c0-8-32-8-32 0z" fill="#8d6e63" fill-rule="evenodd"/><path d="M408 146c-.254 0-.504.02-.758.023l-6.699 91.944c3.81-.174 7.457-2.149 7.457-5.967l16-80c0-4-8-6-16-6z" fill="#795548" fill-rule="evenodd"/></g></svg>