<svg xmlns="http://www.w3.org/2000/svg" xmlns:xlink="http://www.w3.org/1999/xlink" width="512" height="512"><defs><lineargradient xlink:href="#a" id="b" gradientunits="userSpaceOnUse" gradienttransform="matrix(1.9285714,0,0,1.9285714,2978.2577,727.52696)" x1="312" y1="344" x2="312" y2="368"/></defs><g color="#000"><path d="M89.244 39.964C57.233 95.41 125.757 177.3 232.894 239.155c107.138 61.856 212.318 80.255 244.33 24.81 21.736-37.648-129.327-74.667-193.99-112-76.21-44-172.254-149.648-193.99-112z" style="isolation:auto;mix-blend-mode:normal" overflow="visible" fill="#33691e"/><circle r="32" cy="26.667" cx="225.27" style="isolation:auto;mix-blend-mode:normal" transform="rotate(30)" overflow="visible" fill="#8bc34a"/><circle style="isolation:auto;mix-blend-mode:normal" cx="153.27" cy="2.667" r="24" transform="rotate(30)" overflow="visible" fill="#8bc34a"/><circle style="isolation:auto;mix-blend-mode:normal" cx="313.27" cy="34.667" r="40" transform="rotate(30)" overflow="visible" fill="#8bc34a"/><circle style="isolation:auto;mix-blend-mode:normal" cx="401.27" cy="26.667" r="32" transform="rotate(30)" overflow="visible" fill="#8bc34a"/><circle r="24" cy="2.667" cx="473.27" style="isolation:auto;mix-blend-mode:normal" transform="rotate(30)" overflow="visible" fill="#8bc34a"/><path style="isolation:auto;mix-blend-mode:normal" d="M87.816 42.439c-31.17 53.988 33.94 141.788 141.078 203.644 107.138 61.856 215.731 74.344 246.901 20.356 14.11-24.439-121.687-13.233-218.681-69.233C153.19 137.206 98.398 24.11 87.816 42.44z" overflow="visible" fill="#689f38"/><path style="isolation:auto;mix-blend-mode:normal" d="M89.244 39.964C57.233 95.41 125.757 177.3 232.894 239.155c107.138 61.856 212.318 80.255 244.33 24.81 21.736-37.648-129.327-74.667-193.99-112-76.21-44-172.254-149.648-193.99-112z" overflow="visible" fill="#33691e"/><g transform="rotate(30 662.444 -43.959)"><circle r="32" cy="352" cx="336" style="isolation:auto;mix-blend-mode:normal" overflow="visible" fill="#8bc34a"/><path d="M336 384a32 32 0 0 1 27.713-16 32 32 0 0 1 0-32A32 32 0 0 1 336 320v32z" style="isolation:auto;mix-blend-mode:normal" overflow="visible" fill="#7cb342"/></g><g transform="rotate(30 537.019 -53.566) scale(.75)"><circle style="isolation:auto;mix-blend-mode:normal" cx="336" cy="352" r="32" overflow="visible" fill="#8bc34a"/><path style="isolation:auto;mix-blend-mode:normal" d="M336 384a32 32 0 0 1 27.713-16 32 32 0 0 1 0-32A32 32 0 0 1 336 320v32z" overflow="visible" fill="#7cb342"/></g><circle r="40" cy="34.667" cx="313.27" style="isolation:auto;mix-blend-mode:normal" transform="rotate(30)" overflow="visible" fill="#8bc34a"/><path d="M233.966 221.299a40 40 0 0 1 40 0 40 40 0 0 1 20-34.641 40 40 0 0 1-20-34.641l-20 34.64z" style="isolation:auto;mix-blend-mode:normal" overflow="visible" fill="#7cb342"/><g transform="rotate(30 574.444 284.462)"><circle style="isolation:auto;mix-blend-mode:normal" cx="336" cy="352" r="32" overflow="visible" fill="#8bc34a"/><path style="isolation:auto;mix-blend-mode:normal" d="M336 384a32 32 0 0 1 27.713-16 32 32 0 0 1 0-32A32 32 0 0 1 336 320v32z" overflow="visible" fill="#7cb342"/></g><g transform="rotate(30 377.019 543.562) scale(.75)"><circle r="32" cy="352" cx="336" style="isolation:auto;mix-blend-mode:normal" overflow="visible" fill="#8bc34a"/><path d="M336 384a32 32 0 0 1 27.713-16 32 32 0 0 1 0-32A32 32 0 0 1 336 320v32z" style="isolation:auto;mix-blend-mode:normal" overflow="visible" fill="#7cb342"/></g><path d="M87.816 42.439c-31.17 53.988 33.94 141.788 141.078 203.644 107.138 61.856 215.731 74.344 246.901 20.356 14.11-24.439-121.687-13.233-218.681-69.233C153.19 137.206 98.398 24.11 87.816 42.44z" style="isolation:auto;mix-blend-mode:normal" overflow="visible" fill="#689f38"/><g transform="rotate(60 251.692 230.75)"><path d="M32 315.32C32 379.345 132.288 416 256 416s224-36.656 224-100.68c0-43.471-149.333 0-224 0-88 0-224-43.471-224 0z" style="isolation:auto;mix-blend-mode:normal" overflow="visible" fill="#33691e"/><circle r="32" cy="352" cx="160" style="isolation:auto;mix-blend-mode:normal" overflow="visible" fill="#8bc34a"/><circle style="isolation:auto;mix-blend-mode:normal" cx="88" cy="328" r="24" overflow="visible" fill="#8bc34a"/><circle style="isolation:auto;mix-blend-mode:normal" cx="248" cy="360" r="40" overflow="visible" fill="#8bc34a"/><circle style="isolation:auto;mix-blend-mode:normal" cx="336" cy="352" r="32" overflow="visible" fill="#8bc34a"/><circle r="24" cy="328" cx="408" style="isolation:auto;mix-blend-mode:normal" overflow="visible" fill="#8bc34a"/><path style="isolation:auto;mix-blend-mode:normal" d="M32 318.178C32 380.518 132.288 424 256 424s224-43.482 224-105.822c0-28.219-112 49.384-224 49.384-120 0-224-70.548-224-49.384z" overflow="visible" fill="#689f38"/><path style="isolation:auto;mix-blend-mode:normal" d="M32 315.32C32 379.345 132.288 416 256 416s224-36.656 224-100.68c0-43.471-149.333 0-224 0-88 0-224-43.471-224 0z" overflow="visible" fill="#33691e"/><g transform="translate(-176)"><circle r="32" cy="352" cx="336" style="isolation:auto;mix-blend-mode:normal" overflow="visible" fill="#8bc34a"/><path d="M336 384a32 32 0 0 1 27.713-16 32 32 0 0 1 0-32A32 32 0 0 1 336 320v32z" style="isolation:auto;mix-blend-mode:normal" overflow="visible" fill="#7cb342"/></g><g transform="matrix(.75 0 0 .75 -164 64)"><circle style="isolation:auto;mix-blend-mode:normal" cx="336" cy="352" r="32" overflow="visible" fill="#8bc34a"/><path style="isolation:auto;mix-blend-mode:normal" d="M336 384a32 32 0 0 1 27.713-16 32 32 0 0 1 0-32A32 32 0 0 1 336 320v32z" overflow="visible" fill="#7cb342"/></g><circle r="40" cy="360" cx="248" style="isolation:auto;mix-blend-mode:normal" overflow="visible" fill="#8bc34a"/><path d="M248 400a40 40 0 0 1 34.641-20 40 40 0 0 1 0-40A40 40 0 0 1 248 320v40z" style="isolation:auto;mix-blend-mode:normal" overflow="visible" fill="#7cb342"/><circle style="isolation:auto;mix-blend-mode:normal" cx="336" cy="352" r="32" overflow="visible" fill="#8bc34a"/><path style="isolation:auto;mix-blend-mode:normal" d="M336 384a32 32 0 0 1 27.713-16 32 32 0 0 1 0-32A32 32 0 0 1 336 320v32z" overflow="visible" fill="#7cb342"/><g transform="matrix(.75 0 0 .75 156 64)"><circle r="32" cy="352" cx="336" style="isolation:auto;mix-blend-mode:normal" overflow="visible" fill="#8bc34a"/><path d="M336 384a32 32 0 0 1 27.713-16 32 32 0 0 1 0-32A32 32 0 0 1 336 320v32z" style="isolation:auto;mix-blend-mode:normal" overflow="visible" fill="#7cb342"/></g><path d="M32 318.178C32 380.518 132.288 424 256 424s224-43.482 224-105.822c0-28.219-112 49.384-224 49.384-120 0-224-70.548-224-49.384z" style="isolation:auto;mix-blend-mode:normal" overflow="visible" fill="#689f38"/></g></g></svg>