<svg xmlns="http://www.w3.org/2000/svg" xmlns:xlink="http://www.w3.org/1999/xlink" width="512" height="512"><defs><lineargradient xlink:href="#a" id="b" gradientunits="userSpaceOnUse" gradienttransform="matrix(1.9285714,0,0,1.9285714,2978.2577,727.52696)" x1="312" y1="344" x2="312" y2="368"/></defs><g color="#000"><path d="M89.244 39.964C57.233 95.41 125.757 177.3 232.894 239.155c107.138 61.856 212.318 80.255 244.33 24.81 21.736-37.648-129.327-74.667-193.99-112-76.21-44-172.254-149.648-193.99-112z" style="isolation:auto;mix-blend-mode:normal" overflow="visible" fill="#33691e"/><path style="isolation:auto;mix-blend-mode:normal" d="M209.469 151.73a32 32 0 0 1-43.713 11.712 32 32 0 0 1-11.713-43.713 32 32 0 0 1 43.713-11.712 32 32 0 0 1 11.713 43.712zM152.187 90.945a24 24 0 0 1-32.785 8.784 24 24 0 0 1-8.784-32.784 24 24 0 0 1 32.784-8.785 24 24 0 0 1 8.785 32.785zM288.607 206.658a40 40 0 0 1-54.64 14.64 40 40 0 0 1-14.642-54.64 40 40 0 0 1 54.641-14.641 40 40 0 0 1 14.641 54.64zM361.89 239.73a32 32 0 0 1-43.714 11.712 32 32 0 0 1-11.712-43.713 32 32 0 0 1 43.712-11.712 32 32 0 0 1 11.713 43.712zM429.315 250.945a24 24 0 0 1-32.785 8.784 24 24 0 0 1-8.784-32.784 24 24 0 0 1 32.784-8.785 24 24 0 0 1 8.785 32.785z" overflow="visible" fill="#8bc34a"/><path style="isolation:auto;mix-blend-mode:normal" d="M87.816 42.439c-31.17 53.988 33.94 141.788 141.078 203.644 107.138 61.856 215.731 74.344 246.901 20.356 14.11-24.439-121.687-13.233-218.681-69.233C153.19 137.206 98.398 24.11 87.816 42.44z" overflow="visible" fill="#689f38"/><path style="isolation:auto;mix-blend-mode:normal" d="M89.244 39.964C57.233 95.41 125.757 177.3 232.894 239.155c107.138 61.856 212.318 80.255 244.33 24.81 21.736-37.648-129.327-74.667-193.99-112-76.21-44-172.254-149.648-193.99-112z" overflow="visible" fill="#33691e"/><path style="isolation:auto;mix-blend-mode:normal" d="M209.469 151.73a32 32 0 0 1-43.713 11.712 32 32 0 0 1-11.713-43.713 32 32 0 0 1 43.713-11.712 32 32 0 0 1 11.713 43.712z" overflow="visible" fill="#8bc34a"/><path style="isolation:auto;mix-blend-mode:normal" d="M165.756 163.442a32 32 0 0 1 32 0 32 32 0 0 1 16-27.713 32 32 0 0 1-16-27.712l-16 27.712z" overflow="visible" fill="#7cb342"/><path style="isolation:auto;mix-blend-mode:normal" d="M152.187 90.945a24 24 0 0 1-32.785 8.784 24 24 0 0 1-8.784-32.784 24 24 0 0 1 32.784-8.785 24 24 0 0 1 8.785 32.785z" overflow="visible" fill="#8bc34a"/><path style="isolation:auto;mix-blend-mode:normal" d="M119.402 99.73a24 24 0 0 1 24 0 24 24 0 0 1 12-20.785 24 24 0 0 1-12-20.785l-12 20.785z" overflow="visible" fill="#7cb342"/><path style="isolation:auto;mix-blend-mode:normal" d="M288.607 206.658a40 40 0 0 1-54.64 14.64 40 40 0 0 1-14.642-54.64 40 40 0 0 1 54.641-14.641 40 40 0 0 1 14.641 54.64z" overflow="visible" fill="#8bc34a"/><path style="isolation:auto;mix-blend-mode:normal" d="M233.966 221.299a40 40 0 0 1 40 0 40 40 0 0 1 20-34.641 40 40 0 0 1-20-34.641l-20 34.64z" overflow="visible" fill="#7cb342"/><path style="isolation:auto;mix-blend-mode:normal" d="M361.89 239.73a32 32 0 0 1-43.714 11.712 32 32 0 0 1-11.712-43.713 32 32 0 0 1 43.712-11.712 32 32 0 0 1 11.713 43.712z" overflow="visible" fill="#8bc34a"/><path style="isolation:auto;mix-blend-mode:normal" d="M318.176 251.442a32 32 0 0 1 32 0 32 32 0 0 1 16-27.713 32 32 0 0 1-16-27.712l-16 27.712z" overflow="visible" fill="#7cb342"/><g><path style="isolation:auto;mix-blend-mode:normal" d="M429.315 250.945a24 24 0 0 1-32.785 8.784 24 24 0 0 1-8.784-32.784 24 24 0 0 1 32.784-8.785 24 24 0 0 1 8.785 32.785z" overflow="visible" fill="#8bc34a"/><path style="isolation:auto;mix-blend-mode:normal" d="M396.53 259.73a24 24 0 0 1 24 0 24 24 0 0 1 12-20.785 24 24 0 0 1-12-20.785l-12 20.785z" overflow="visible" fill="#7cb342"/></g><path d="M87.816 42.439c-31.17 53.988 33.94 141.788 141.078 203.644 107.138 61.856 215.731 74.344 246.901 20.356 14.11-24.439-121.687-13.233-218.681-69.233C153.19 137.206 98.398 24.11 87.816 42.44z" style="isolation:auto;mix-blend-mode:normal" overflow="visible" fill="#689f38"/><g><path d="M68.605 82.776c-55.446 32.012-37.046 137.192 24.81 244.33 61.855 107.137 143.744 175.661 199.19 143.65 37.648-21.736-74.666-129.327-112-193.99-44-76.21-74.352-215.726-112-193.99z" style="isolation:auto;mix-blend-mode:normal" overflow="visible" fill="#33691e"/><path style="isolation:auto;mix-blend-mode:normal" d="M116.84 239.68a32 32 0 0 1-43.713-11.713 32 32 0 0 1 11.713-43.713 32 32 0 0 1 43.713 11.713 32 32 0 0 1-11.713 43.713zM97.625 158.398a24 24 0 0 1-32.785-8.785 24 24 0 0 1 8.785-32.784 24 24 0 0 1 32.784 8.784 24 24 0 0 1-8.784 32.785zM157.912 326.818a40 40 0 0 1-54.641-14.64 40 40 0 0 1 14.64-54.642 40 40 0 0 1 54.642 14.641 40 40 0 0 1-14.641 54.641zM204.84 392.1a32 32 0 0 1-43.713-11.712 32 32 0 0 1 11.713-43.713 32 32 0 0 1 43.713 11.713A32 32 0 0 1 204.84 392.1zM257.625 435.526a24 24 0 0 1-32.785-8.785 24 24 0 0 1 8.785-32.784 24 24 0 0 1 32.784 8.784 24 24 0 0 1-8.784 32.785z" overflow="visible" fill="#8bc34a"/><path style="isolation:auto;mix-blend-mode:normal" d="M66.13 84.205c-53.987 31.17-41.5 139.763 20.356 246.9 61.856 107.138 149.657 172.25 203.645 141.08 24.438-14.11-98.768-72.304-154.768-169.299-60-103.923-50.903-229.263-69.232-218.681z" overflow="visible" fill="#689f38"/><path style="isolation:auto;mix-blend-mode:normal" d="M68.605 82.776c-55.446 32.012-37.046 137.192 24.81 244.33 61.855 107.137 143.744 175.661 199.19 143.65 37.648-21.736-74.666-129.327-112-193.99-44-76.21-74.352-215.726-112-193.99z" overflow="visible" fill="#33691e"/><path style="isolation:auto;mix-blend-mode:normal" d="M116.84 239.68a32 32 0 0 1-43.713-11.713 32 32 0 0 1 11.713-43.713 32 32 0 0 1 43.713 11.713 32 32 0 0 1-11.713 43.713z" overflow="visible" fill="#8bc34a"/><path style="isolation:auto;mix-blend-mode:normal" d="M73.127 227.967a32 32 0 0 1 27.713 16 32 32 0 0 1 27.713-16 32 32 0 0 1 0-32l-27.713 16z" overflow="visible" fill="#7cb342"/><path style="isolation:auto;mix-blend-mode:normal" d="M97.625 158.398a24 24 0 0 1-32.785-8.785 24 24 0 0 1 8.785-32.784 24 24 0 0 1 32.784 8.784 24 24 0 0 1-8.784 32.785z" overflow="visible" fill="#8bc34a"/><path style="isolation:auto;mix-blend-mode:normal" d="M64.84 149.613a24 24 0 0 1 20.785 12 24 24 0 0 1 20.784-12 24 24 0 0 1 0-24l-20.784 12z" overflow="visible" fill="#7cb342"/><path style="isolation:auto;mix-blend-mode:normal" d="M157.912 326.818a40 40 0 0 1-54.641-14.64 40 40 0 0 1 14.64-54.642 40 40 0 0 1 54.642 14.641 40 40 0 0 1-14.641 54.641z" overflow="visible" fill="#8bc34a"/><path style="isolation:auto;mix-blend-mode:normal" d="M103.27 312.177a40 40 0 0 1 34.642 20 40 40 0 0 1 34.64-20 40 40 0 0 1 0-40l-34.64 20z" overflow="visible" fill="#7cb342"/><path style="isolation:auto;mix-blend-mode:normal" d="M204.84 392.1a32 32 0 0 1-43.713-11.712 32 32 0 0 1 11.713-43.713 32 32 0 0 1 43.713 11.713A32 32 0 0 1 204.84 392.1z" overflow="visible" fill="#8bc34a"/><path style="isolation:auto;mix-blend-mode:normal" d="M161.127 380.388a32 32 0 0 1 27.713 16 32 32 0 0 1 27.713-16 32 32 0 0 1 0-32l-27.713 16z" overflow="visible" fill="#7cb342"/><g><path style="isolation:auto;mix-blend-mode:normal" d="M257.625 435.526a24 24 0 0 1-32.785-8.785 24 24 0 0 1 8.785-32.784 24 24 0 0 1 32.784 8.784 24 24 0 0 1-8.784 32.785z" overflow="visible" fill="#8bc34a"/><path style="isolation:auto;mix-blend-mode:normal" d="M224.84 426.741a24 24 0 0 1 20.785 12 24 24 0 0 1 20.784-12 24 24 0 0 1 0-24l-20.784 12z" overflow="visible" fill="#7cb342"/></g><path d="M66.13 84.205c-53.987 31.17-41.5 139.763 20.356 246.9 61.856 107.138 149.657 172.25 203.645 141.08 24.438-14.11-98.768-72.304-154.768-169.299-60-103.923-50.903-229.263-69.232-218.681z" style="isolation:auto;mix-blend-mode:normal" overflow="visible" fill="#689f38"/></g></g></svg>