<svg xmlns="http://www.w3.org/2000/svg" width="512" height="512"><rect width="4" height="20" x="-484" y="150" fill="#a1887f" color="#000" overflow="visible" rx="2" ry="2" style="isolation:auto;mix-blend-mode:normal" transform="scale(-1 1)"/><rect width="4" height="20" x="-464" y="150" fill="#a1887f" color="#000" overflow="visible" rx="2" ry="2" style="isolation:auto;mix-blend-mode:normal" transform="scale(-1 1)"/><rect width="4" height="20" x="-444" y="150" fill="#a1887f" color="#000" overflow="visible" rx="2" ry="2" style="isolation:auto;mix-blend-mode:normal" transform="scale(-1 1)"/><rect width="4" height="20" x="-424" y="150" fill="#a1887f" color="#000" overflow="visible" rx="2" ry="2" style="isolation:auto;mix-blend-mode:normal" transform="scale(-1 1)"/><rect width="4" height="20" x="-404" y="150" fill="#a1887f" color="#000" overflow="visible" rx="2" ry="2" style="isolation:auto;mix-blend-mode:normal" transform="scale(-1 1)"/><rect width="4" height="20" x="-384" y="150" fill="#a1887f" color="#000" overflow="visible" rx="2" ry="2" style="isolation:auto;mix-blend-mode:normal" transform="scale(-1 1)"/><rect width="4" height="20" x="-364" y="150" fill="#a1887f" color="#000" overflow="visible" rx="2" ry="2" style="isolation:auto;mix-blend-mode:normal" transform="scale(-1 1)"/><rect width="4" height="20" x="-344" y="150" fill="#a1887f" color="#000" overflow="visible" rx="2" ry="2" style="isolation:auto;mix-blend-mode:normal" transform="scale(-1 1)"/><rect width="4" height="20" x="-324" y="150" fill="#a1887f" color="#000" overflow="visible" rx="2" ry="2" style="isolation:auto;mix-blend-mode:normal" transform="scale(-1 1)"/><rect width="4" height="20" x="-304" y="150" fill="#a1887f" color="#000" overflow="visible" rx="2" ry="2" style="isolation:auto;mix-blend-mode:normal" transform="scale(-1 1)"/><rect width="4" height="20" x="-284" y="150" fill="#a1887f" color="#000" overflow="visible" rx="2" ry="2" style="isolation:auto;mix-blend-mode:normal" transform="scale(-1 1)"/><rect width="4" height="20" x="-264" y="150" fill="#a1887f" color="#000" overflow="visible" rx="2" ry="2" style="isolation:auto;mix-blend-mode:normal" transform="scale(-1 1)"/><rect width="4" height="20" x="-244" y="150" fill="#a1887f" color="#000" overflow="visible" rx="2" ry="2" style="isolation:auto;mix-blend-mode:normal" transform="scale(-1 1)"/><rect width="4" height="20" x="-224" y="150" fill="#a1887f" color="#000" overflow="visible" rx="2" ry="2" style="isolation:auto;mix-blend-mode:normal" transform="scale(-1 1)"/><rect width="480" height="8" x="-496" y="168" fill="#795548" color="#000" overflow="visible" rx="4" ry="4" style="isolation:auto;mix-blend-mode:normal" transform="scale(-1 1)"/><path fill="#cfd8dc" d="M176 112H48v56h128zm-40-64H88v40h48z" color="#000" overflow="visible" style="isolation:auto;mix-blend-mode:normal"/><path fill="#b0bec5" d="M112 48H88v40h24z" color="#000" overflow="visible" style="isolation:auto;mix-blend-mode:normal"/><path fill="#8bc34a" fill-rule="evenodd" d="m192 112-56-40v16h-24l-80 24h90.588zm-40-64L112 8 72 48z"/><ellipse cx="-124" cy="68" fill="#eceff1" color="#000" overflow="visible" rx="8" ry="12" style="isolation:auto;mix-blend-mode:normal" transform="scale(-1 1)"/><path fill="#558b2f" fill-rule="evenodd" d="M112 48V8L72 48zm0 64V88.823L96 72l-64 40z"/><path fill="#b0bec5" d="M112 112H48v56h64z" color="#000" overflow="visible" style="isolation:auto;mix-blend-mode:normal"/><g fill="#cfd8dc" color="#000" transform="matrix(-1 0 0 1 530 -248)"><path d="M444 378h12v26h-12z" overflow="visible" style="isolation:auto;mix-blend-mode:normal"/><circle cx="450" cy="378" r="6" overflow="visible" style="isolation:auto;mix-blend-mode:normal"/></g><g fill="#cfd8dc" color="#000" transform="matrix(-1 0 0 1 510 -248)"><path d="M444 378h12v26h-12z" overflow="visible" style="isolation:auto;mix-blend-mode:normal"/><circle cx="450" cy="378" r="6" overflow="visible" style="isolation:auto;mix-blend-mode:normal"/></g><g fill="#cfd8dc" color="#000" transform="matrix(-1 0 0 1 550 -248)"><path d="M444 378h12v26h-12z" overflow="visible" style="isolation:auto;mix-blend-mode:normal"/><circle cx="450" cy="378" r="6" overflow="visible" style="isolation:auto;mix-blend-mode:normal"/></g><g fill="#eceff1" color="#000" transform="matrix(-1 0 0 1 574 -248)"><path d="M444 378h12v26h-12z" overflow="visible" style="isolation:auto;mix-blend-mode:normal"/><circle cx="450" cy="378" r="6" overflow="visible" style="isolation:auto;mix-blend-mode:normal"/></g><g fill="#eceff1" color="#000" transform="matrix(-1 0 0 1 614 -248)"><path d="M444 378h12v26h-12z" overflow="visible" style="isolation:auto;mix-blend-mode:normal"/><circle cx="450" cy="378" r="6" overflow="visible" style="isolation:auto;mix-blend-mode:normal"/></g><path fill="#eceff1" d="M152 144h-16v24h16z" color="#000" overflow="visible" style="isolation:auto;mix-blend-mode:normal"/><circle cx="-144" cy="144" r="8" fill="#eceff1" color="#000" overflow="visible" style="isolation:auto;mix-blend-mode:normal" transform="scale(-1 1)"/><circle cx="-144" cy="122" r="6" fill="#eceff1" color="#000" overflow="visible" style="isolation:auto;mix-blend-mode:normal" transform="scale(-1 1)"/><path fill="#5d4037" d="M464 168h-8l16 64h8zm-80 0h-8l16 64h8zm-80 0h-8l16 64h8zm-82 0h-8l16 64h8zm-80 0h-8l16 64h8zm-80 0h-8l16 64h8z" color="#000" overflow="visible" style="isolation:auto;mix-blend-mode:normal"/><path fill="#3e2723" d="M120 176h8l-16 56h-8zm-80 0h8l-16 56h-8zm160 0h8l-16 56h-8zm80 0h8l-16 56h-8zm80 0h8l-16 56h-8zm80 0h8l-16 56h-8z" color="#000" overflow="visible" style="isolation:auto;mix-blend-mode:normal"/><rect width="288" height="4" x="-496" y="148" fill="#bcaaa4" color="#000" overflow="visible" rx="2" ry="2" style="isolation:auto;mix-blend-mode:normal" transform="scale(-1 1)"/><rect width="4" height="20" x="28" y="406" fill="#a1887f" color="#000" overflow="visible" rx="2" ry="2" style="isolation:auto;mix-blend-mode:normal"/><rect width="4" height="20" x="48" y="406" fill="#a1887f" color="#000" overflow="visible" rx="2" ry="2" style="isolation:auto;mix-blend-mode:normal"/><rect width="4" height="20" x="68" y="406" fill="#a1887f" color="#000" overflow="visible" rx="2" ry="2" style="isolation:auto;mix-blend-mode:normal"/><rect width="4" height="20" x="88" y="406" fill="#a1887f" color="#000" overflow="visible" rx="2" ry="2" style="isolation:auto;mix-blend-mode:normal"/><rect width="4" height="20" x="108" y="406" fill="#a1887f" color="#000" overflow="visible" rx="2" ry="2" style="isolation:auto;mix-blend-mode:normal"/><rect width="4" height="20" x="128" y="406" fill="#a1887f" color="#000" overflow="visible" rx="2" ry="2" style="isolation:auto;mix-blend-mode:normal"/><rect width="4" height="20" x="148" y="406" fill="#a1887f" color="#000" overflow="visible" rx="2" ry="2" style="isolation:auto;mix-blend-mode:normal"/><rect width="4" height="20" x="168" y="406" fill="#a1887f" color="#000" overflow="visible" rx="2" ry="2" style="isolation:auto;mix-blend-mode:normal"/><rect width="4" height="20" x="188" y="406" fill="#a1887f" color="#000" overflow="visible" rx="2" ry="2" style="isolation:auto;mix-blend-mode:normal"/><rect width="4" height="20" x="208" y="406" fill="#a1887f" color="#000" overflow="visible" rx="2" ry="2" style="isolation:auto;mix-blend-mode:normal"/><rect width="4" height="20" x="228" y="406" fill="#a1887f" color="#000" overflow="visible" rx="2" ry="2" style="isolation:auto;mix-blend-mode:normal"/><rect width="4" height="20" x="248" y="406" fill="#a1887f" color="#000" overflow="visible" rx="2" ry="2" style="isolation:auto;mix-blend-mode:normal"/><rect width="4" height="20" x="268" y="406" fill="#a1887f" color="#000" overflow="visible" rx="2" ry="2" style="isolation:auto;mix-blend-mode:normal"/><rect width="4" height="20" x="288" y="406" fill="#a1887f" color="#000" overflow="visible" rx="2" ry="2" style="isolation:auto;mix-blend-mode:normal"/><rect width="480" height="8" x="16" y="424" fill="#795548" color="#000" overflow="visible" rx="4" ry="4" style="isolation:auto;mix-blend-mode:normal"/><path fill="#cfd8dc" d="M336 368h128v56H336zm40-64h48v40h-48z" color="#000" overflow="visible" style="isolation:auto;mix-blend-mode:normal"/><path fill="#b0bec5" d="M400 304h24v40h-24z" color="#000" overflow="visible" style="isolation:auto;mix-blend-mode:normal"/><path fill="#d32f2f" fill-rule="evenodd" d="m320 368 56-40v16h24l80 24h-90.588zm40-64 40-40 40 40z"/><ellipse cx="388" cy="324" fill="#eceff1" color="#000" overflow="visible" rx="8" ry="12" style="isolation:auto;mix-blend-mode:normal"/><path fill="#b71c1c" fill-rule="evenodd" d="M400 304v-40l40 40zm0 64v-23.177L416 328l64 40z"/><path fill="#b0bec5" d="M400 368h64v56h-64z" color="#000" overflow="visible" style="isolation:auto;mix-blend-mode:normal"/><g fill="#cfd8dc" color="#000" transform="translate(-18 8)"><path d="M444 378h12v26h-12z" overflow="visible" style="isolation:auto;mix-blend-mode:normal"/><circle cx="450" cy="378" r="6" overflow="visible" style="isolation:auto;mix-blend-mode:normal"/></g><g fill="#cfd8dc" color="#000" transform="translate(2 8)"><path d="M444 378h12v26h-12z" overflow="visible" style="isolation:auto;mix-blend-mode:normal"/><circle cx="450" cy="378" r="6" overflow="visible" style="isolation:auto;mix-blend-mode:normal"/></g><g fill="#cfd8dc" color="#000" transform="translate(-38 8)"><path d="M444 378h12v26h-12z" overflow="visible" style="isolation:auto;mix-blend-mode:normal"/><circle cx="450" cy="378" r="6" overflow="visible" style="isolation:auto;mix-blend-mode:normal"/></g><g fill="#eceff1" color="#000" transform="translate(-62 8)"><path d="M444 378h12v26h-12z" overflow="visible" style="isolation:auto;mix-blend-mode:normal"/><circle cx="450" cy="378" r="6" overflow="visible" style="isolation:auto;mix-blend-mode:normal"/></g><g fill="#eceff1" color="#000" transform="translate(-102 8)"><path d="M444 378h12v26h-12z" overflow="visible" style="isolation:auto;mix-blend-mode:normal"/><circle cx="450" cy="378" r="6" overflow="visible" style="isolation:auto;mix-blend-mode:normal"/></g><path fill="#eceff1" d="M360 400h16v24h-16z" color="#000" overflow="visible" style="isolation:auto;mix-blend-mode:normal"/><circle cx="368" cy="400" r="8" fill="#eceff1" color="#000" overflow="visible" style="isolation:auto;mix-blend-mode:normal"/><circle cx="368" cy="378" r="6" fill="#eceff1" color="#000" overflow="visible" style="isolation:auto;mix-blend-mode:normal"/><path fill="#5d4037" d="M48 424h8l-16 64h-8zm80 0h8l-16 64h-8zm80 0h8l-16 64h-8zm82 0h8l-16 64h-8zm80 0h8l-16 64h-8zm80 0h8l-16 64h-8z" color="#000" overflow="visible" style="isolation:auto;mix-blend-mode:normal"/><path fill="#3e2723" d="M392 432h-8l16 56h8zm80 0h-8l16 56h8zm-160 0h-8l16 56h8zm-80 0h-8l16 56h8zm-80 0h-8l16 56h8zm-80 0h-8l16 56h8z" color="#000" overflow="visible" style="isolation:auto;mix-blend-mode:normal"/><rect width="288" height="4" x="16" y="404" fill="#bcaaa4" color="#000" overflow="visible" rx="2" ry="2" style="isolation:auto;mix-blend-mode:normal"/><path fill="#29b6f6" d="M8 216v32h496v-28s-10.503-4-16-4-10.503 4-16 4-10.503-4-16-4-10.503 4-16 4-10.503-4-16-4-10.503 4-16 4-10.503-4-16-4-10.503 4-16 4-10.503-4-16-4-10.503 4-16 4-10.503-4-16-4-10.503 4-16 4-10.503-4-16-4-10.503 4-16 4-10.503-4-16-4-10.503 4-16 4-10.503-4-16-4-10.503 4-16 4-10.503-4-16-4-10.503 4-16 4-10.503-4-16-4-10.503 4-16 4-10.503-4-16-4-10.503 4-16 4-10.503-4-16-4-10.503 4-16 4-10.503-4-16-4-10.503 4-16 4-10.503-4-16-4-10.503 4-16 4-16-4-16-4m0 256v32h496v-28s-10.503-4-16-4-10.503 4-16 4-10.503-4-16-4-10.503 4-16 4-10.503-4-16-4-10.503 4-16 4-10.503-4-16-4-10.503 4-16 4-10.503-4-16-4-10.503 4-16 4-10.503-4-16-4-10.503 4-16 4-10.503-4-16-4-10.503 4-16 4-10.503-4-16-4-10.503 4-16 4-10.503-4-16-4-10.503 4-16 4-10.503-4-16-4-10.503 4-16 4-10.503-4-16-4-10.503 4-16 4-10.503-4-16-4-10.503 4-16 4-10.503-4-16-4-10.503 4-16 4-10.503-4-16-4-10.503 4-16 4-10.503-4-16-4-10.503 4-16 4-16-4-16-4" color="#000" overflow="visible" style="isolation:auto;mix-blend-mode:normal"/></svg>