<svg xmlns="http://www.w3.org/2000/svg" width="512" height="512"><rect ry="2" rx="2" y="150" x="-484" height="20" width="4" style="isolation:auto;mix-blend-mode:normal" transform="scale(-1 1)" color="#000" overflow="visible" fill="#a1887f"/><rect style="isolation:auto;mix-blend-mode:normal" width="4" height="20" x="-464" y="150" rx="2" ry="2" transform="scale(-1 1)" color="#000" overflow="visible" fill="#a1887f"/><rect ry="2" rx="2" y="150" x="-444" height="20" width="4" style="isolation:auto;mix-blend-mode:normal" transform="scale(-1 1)" color="#000" overflow="visible" fill="#a1887f"/><rect style="isolation:auto;mix-blend-mode:normal" width="4" height="20" x="-424" y="150" rx="2" ry="2" transform="scale(-1 1)" color="#000" overflow="visible" fill="#a1887f"/><rect ry="2" rx="2" y="150" x="-404" height="20" width="4" style="isolation:auto;mix-blend-mode:normal" transform="scale(-1 1)" color="#000" overflow="visible" fill="#a1887f"/><rect style="isolation:auto;mix-blend-mode:normal" width="4" height="20" x="-384" y="150" rx="2" ry="2" transform="scale(-1 1)" color="#000" overflow="visible" fill="#a1887f"/><rect ry="2" rx="2" y="150" x="-364" height="20" width="4" style="isolation:auto;mix-blend-mode:normal" transform="scale(-1 1)" color="#000" overflow="visible" fill="#a1887f"/><rect style="isolation:auto;mix-blend-mode:normal" width="4" height="20" x="-344" y="150" rx="2" ry="2" transform="scale(-1 1)" color="#000" overflow="visible" fill="#a1887f"/><rect ry="2" rx="2" y="150" x="-324" height="20" width="4" style="isolation:auto;mix-blend-mode:normal" transform="scale(-1 1)" color="#000" overflow="visible" fill="#a1887f"/><rect style="isolation:auto;mix-blend-mode:normal" width="4" height="20" x="-304" y="150" rx="2" ry="2" transform="scale(-1 1)" color="#000" overflow="visible" fill="#a1887f"/><rect ry="2" rx="2" y="150" x="-284" height="20" width="4" style="isolation:auto;mix-blend-mode:normal" transform="scale(-1 1)" color="#000" overflow="visible" fill="#a1887f"/><rect style="isolation:auto;mix-blend-mode:normal" width="4" height="20" x="-264" y="150" rx="2" ry="2" transform="scale(-1 1)" color="#000" overflow="visible" fill="#a1887f"/><rect ry="2" rx="2" y="150" x="-244" height="20" width="4" style="isolation:auto;mix-blend-mode:normal" transform="scale(-1 1)" color="#000" overflow="visible" fill="#a1887f"/><rect style="isolation:auto;mix-blend-mode:normal" width="4" height="20" x="-224" y="150" rx="2" ry="2" transform="scale(-1 1)" color="#000" overflow="visible" fill="#a1887f"/><rect ry="4" rx="4" y="168" x="-496" height="8" width="480" style="isolation:auto;mix-blend-mode:normal" transform="scale(-1 1)" color="#000" overflow="visible" fill="#795548"/><path style="isolation:auto;mix-blend-mode:normal" color="#000" overflow="visible" fill="#cfd8dc" d="M176 112H48v56h128zM136 48H88v40h48z"/><path style="isolation:auto;mix-blend-mode:normal" color="#000" overflow="visible" fill="#b0bec5" d="M112 48H88v40h24z"/><path d="M192 112l-56-40v16h-24l-80 24h90.588zM152 48L112 8 72 48z" fill="#8bc34a" fill-rule="evenodd"/><ellipse ry="12" rx="8" cy="68" cx="-124" style="isolation:auto;mix-blend-mode:normal" transform="scale(-1 1)" color="#000" overflow="visible" fill="#eceff1"/><path d="M112 48V8L72 48zM112 112V88.823L96 72l-64 40z" fill="#558b2f" fill-rule="evenodd"/><path style="isolation:auto;mix-blend-mode:normal" color="#000" overflow="visible" fill="#b0bec5" d="M112 112H48v56h64z"/><g transform="matrix(-1 0 0 1 530 -248)" color="#000" fill="#cfd8dc"><path style="isolation:auto;mix-blend-mode:normal" d="M444 378h12v26h-12z" overflow="visible"/><circle style="isolation:auto;mix-blend-mode:normal" cx="450" cy="378" r="6" overflow="visible"/></g><g transform="matrix(-1 0 0 1 510 -248)" color="#000" fill="#cfd8dc"><path d="M444 378h12v26h-12z" style="isolation:auto;mix-blend-mode:normal" overflow="visible"/><circle r="6" cy="378" cx="450" style="isolation:auto;mix-blend-mode:normal" overflow="visible"/></g><g transform="matrix(-1 0 0 1 550 -248)" color="#000" fill="#cfd8dc"><path style="isolation:auto;mix-blend-mode:normal" d="M444 378h12v26h-12z" overflow="visible"/><circle style="isolation:auto;mix-blend-mode:normal" cx="450" cy="378" r="6" overflow="visible"/></g><g transform="matrix(-1 0 0 1 574 -248)" fill="#eceff1" color="#000"><path d="M444 378h12v26h-12z" style="isolation:auto;mix-blend-mode:normal" overflow="visible"/><circle r="6" cy="378" cx="450" style="isolation:auto;mix-blend-mode:normal" overflow="visible"/></g><g transform="matrix(-1 0 0 1 614 -248)" fill="#eceff1" color="#000"><path style="isolation:auto;mix-blend-mode:normal" d="M444 378h12v26h-12z" overflow="visible"/><circle style="isolation:auto;mix-blend-mode:normal" cx="450" cy="378" r="6" overflow="visible"/></g><path d="M152 144h-16v24h16z" style="isolation:auto;mix-blend-mode:normal" color="#000" overflow="visible" fill="#eceff1"/><circle r="8" cy="144" cx="-144" style="isolation:auto;mix-blend-mode:normal" transform="scale(-1 1)" color="#000" overflow="visible" fill="#eceff1"/><circle style="isolation:auto;mix-blend-mode:normal" cx="-144" cy="122" r="6" transform="scale(-1 1)" color="#000" overflow="visible" fill="#eceff1"/><path style="isolation:auto;mix-blend-mode:normal" color="#000" overflow="visible" fill="#5d4037" d="M464 168h-8l16 64h8zM384 168h-8l16 64h8zM304 168h-8l16 64h8zM222 168h-8l16 64h8zM142 168h-8l16 64h8zM62 168h-8l16 64h8z"/><path style="isolation:auto;mix-blend-mode:normal" color="#000" overflow="visible" fill="#3e2723" d="M120 176h8l-16 56h-8zM40 176h8l-16 56h-8zM200 176h8l-16 56h-8zM280 176h8l-16 56h-8zM360 176h8l-16 56h-8zM440 176h8l-16 56h-8z"/><rect rx="2" ry="2" y="148" x="-496" height="4" width="288" style="isolation:auto;mix-blend-mode:normal" transform="scale(-1 1)" color="#000" overflow="visible" fill="#bcaaa4"/><rect style="isolation:auto;mix-blend-mode:normal" width="4" height="20" x="28" y="406" rx="2" ry="2" color="#000" overflow="visible" fill="#a1887f"/><rect ry="2" rx="2" y="406" x="48" height="20" width="4" style="isolation:auto;mix-blend-mode:normal" color="#000" overflow="visible" fill="#a1887f"/><rect style="isolation:auto;mix-blend-mode:normal" width="4" height="20" x="68" y="406" rx="2" ry="2" color="#000" overflow="visible" fill="#a1887f"/><rect ry="2" rx="2" y="406" x="88" height="20" width="4" style="isolation:auto;mix-blend-mode:normal" color="#000" overflow="visible" fill="#a1887f"/><rect style="isolation:auto;mix-blend-mode:normal" width="4" height="20" x="108" y="406" rx="2" ry="2" color="#000" overflow="visible" fill="#a1887f"/><rect ry="2" rx="2" y="406" x="128" height="20" width="4" style="isolation:auto;mix-blend-mode:normal" color="#000" overflow="visible" fill="#a1887f"/><rect style="isolation:auto;mix-blend-mode:normal" width="4" height="20" x="148" y="406" rx="2" ry="2" color="#000" overflow="visible" fill="#a1887f"/><rect ry="2" rx="2" y="406" x="168" height="20" width="4" style="isolation:auto;mix-blend-mode:normal" color="#000" overflow="visible" fill="#a1887f"/><rect style="isolation:auto;mix-blend-mode:normal" width="4" height="20" x="188" y="406" rx="2" ry="2" color="#000" overflow="visible" fill="#a1887f"/><rect ry="2" rx="2" y="406" x="208" height="20" width="4" style="isolation:auto;mix-blend-mode:normal" color="#000" overflow="visible" fill="#a1887f"/><rect style="isolation:auto;mix-blend-mode:normal" width="4" height="20" x="228" y="406" rx="2" ry="2" color="#000" overflow="visible" fill="#a1887f"/><rect ry="2" rx="2" y="406" x="248" height="20" width="4" style="isolation:auto;mix-blend-mode:normal" color="#000" overflow="visible" fill="#a1887f"/><rect style="isolation:auto;mix-blend-mode:normal" width="4" height="20" x="268" y="406" rx="2" ry="2" color="#000" overflow="visible" fill="#a1887f"/><rect ry="2" rx="2" y="406" x="288" height="20" width="4" style="isolation:auto;mix-blend-mode:normal" color="#000" overflow="visible" fill="#a1887f"/><rect style="isolation:auto;mix-blend-mode:normal" width="480" height="8" x="16" y="424" rx="4" ry="4" color="#000" overflow="visible" fill="#795548"/><path style="isolation:auto;mix-blend-mode:normal" color="#000" overflow="visible" fill="#cfd8dc" d="M336 368h128v56H336zM376 304h48v40h-48z"/><path style="isolation:auto;mix-blend-mode:normal" color="#000" overflow="visible" fill="#b0bec5" d="M400 304h24v40h-24z"/><path d="M320 368l56-40v16h24l80 24h-90.588zM360 304l40-40 40 40z" fill="#d32f2f" fill-rule="evenodd"/><ellipse style="isolation:auto;mix-blend-mode:normal" cx="388" cy="324" rx="8" ry="12" color="#000" overflow="visible" fill="#eceff1"/><path d="M400 304v-40l40 40zM400 368v-23.177L416 328l64 40z" fill="#b71c1c" fill-rule="evenodd"/><path style="isolation:auto;mix-blend-mode:normal" color="#000" overflow="visible" fill="#b0bec5" d="M400 368h64v56h-64z"/><g transform="translate(-18 8)" color="#000" fill="#cfd8dc"><path d="M444 378h12v26h-12z" style="isolation:auto;mix-blend-mode:normal" overflow="visible"/><circle r="6" cy="378" cx="450" style="isolation:auto;mix-blend-mode:normal" overflow="visible"/></g><g transform="translate(2 8)" color="#000" fill="#cfd8dc"><path style="isolation:auto;mix-blend-mode:normal" d="M444 378h12v26h-12z" overflow="visible"/><circle style="isolation:auto;mix-blend-mode:normal" cx="450" cy="378" r="6" overflow="visible"/></g><g transform="translate(-38 8)" color="#000" fill="#cfd8dc"><path d="M444 378h12v26h-12z" style="isolation:auto;mix-blend-mode:normal" overflow="visible"/><circle r="6" cy="378" cx="450" style="isolation:auto;mix-blend-mode:normal" overflow="visible"/></g><g transform="translate(-62 8)" fill="#eceff1" color="#000"><path style="isolation:auto;mix-blend-mode:normal" d="M444 378h12v26h-12z" overflow="visible"/><circle style="isolation:auto;mix-blend-mode:normal" cx="450" cy="378" r="6" overflow="visible"/></g><g transform="translate(-102 8)" fill="#eceff1" color="#000"><path d="M444 378h12v26h-12z" style="isolation:auto;mix-blend-mode:normal" overflow="visible"/><circle r="6" cy="378" cx="450" style="isolation:auto;mix-blend-mode:normal" overflow="visible"/></g><path style="isolation:auto;mix-blend-mode:normal" d="M360 400h16v24h-16z" color="#000" overflow="visible" fill="#eceff1"/><circle style="isolation:auto;mix-blend-mode:normal" cx="368" cy="400" r="8" color="#000" overflow="visible" fill="#eceff1"/><circle r="6" cy="378" cx="368" style="isolation:auto;mix-blend-mode:normal" color="#000" overflow="visible" fill="#eceff1"/><path style="isolation:auto;mix-blend-mode:normal" color="#000" overflow="visible" fill="#5d4037" d="M48 424h8l-16 64h-8zM128 424h8l-16 64h-8zM208 424h8l-16 64h-8zM290 424h8l-16 64h-8zM370 424h8l-16 64h-8zM450 424h8l-16 64h-8z"/><path style="isolation:auto;mix-blend-mode:normal" color="#000" overflow="visible" fill="#3e2723" d="M392 432h-8l16 56h8zM472 432h-8l16 56h8zM312 432h-8l16 56h8zM232 432h-8l16 56h8zM152 432h-8l16 56h8zM72 432h-8l16 56h8z"/><rect style="isolation:auto;mix-blend-mode:normal" width="288" height="4" x="16" y="404" ry="2" rx="2" color="#000" overflow="visible" fill="#bcaaa4"/><path style="isolation:auto;mix-blend-mode:normal" d="M8 216v32h496v-28s-10.503-4-16-4-10.503 4-16 4-10.503-4-16-4-10.503 4-16 4-10.503-4-16-4-10.503 4-16 4-10.503-4-16-4-10.503 4-16 4-10.503-4-16-4-10.503 4-16 4-10.503-4-16-4-10.503 4-16 4-10.503-4-16-4-10.503 4-16 4-10.503-4-16-4-10.503 4-16 4-10.503-4-16-4-10.503 4-16 4-10.503-4-16-4-10.503 4-16 4-10.503-4-16-4-10.503 4-16 4-10.503-4-16-4-10.503 4-16 4-10.503-4-16-4-10.503 4-16 4-10.503-4-16-4-10.503 4-16 4-10.503-4-16-4-10.503 4-16 4-16-4-16-4zM8 472v32h496v-28s-10.503-4-16-4-10.503 4-16 4-10.503-4-16-4-10.503 4-16 4-10.503-4-16-4-10.503 4-16 4-10.503-4-16-4-10.503 4-16 4-10.503-4-16-4-10.503 4-16 4-10.503-4-16-4-10.503 4-16 4-10.503-4-16-4-10.503 4-16 4-10.503-4-16-4-10.503 4-16 4-10.503-4-16-4-10.503 4-16 4-10.503-4-16-4-10.503 4-16 4-10.503-4-16-4-10.503 4-16 4-10.503-4-16-4-10.503 4-16 4-10.503-4-16-4-10.503 4-16 4-10.503-4-16-4-10.503 4-16 4-10.503-4-16-4-10.503 4-16 4-16-4-16-4z" color="#000" overflow="visible" fill="#29b6f6"/></svg>