<svg xmlns="http://www.w3.org/2000/svg" width="512" height="512"><path d="M227.778 258.118l19.578 19.578L69.892 455.575 32 480l13.052-39.156z" fill="#cfd8dc"/><path d="M240.83 271.17l13.052 13.052L71.156 466.948 32 480l26.104-26.104z" fill="#90a4ae"/><path d="M306.043 205.957c-16.016-16.045-34.167-29.403-52.63-38.734-37.593-18.942-72.242-19.12-90.894-.468-13.988 13.99-9.5 44.329 11.772 79.59 10.472 17.322 24.43 34.874 40.47 50.894 80.218 8.933 94.299-34.631 91.282-91.282z" fill="#4fc3f7"/><path d="M306.09 101.495l-65.26 91.364c-7.218 7.219-6.426 21.352 2.08 37.076 8.505 15.724 23.43 30.65 39.155 39.156 15.724 8.505 33.609-37.674 40.828-44.893l31.159-26.751z" fill="#03a9f4"/><path d="M308.23 208.08a129.207 73.833 45 0 0-2.187-2.123l-91.282 91.282a129.207 55.374 45 0 0 50.893 40.47 129.207 55.374 45 0 0 79.591 11.772 129.207 73.833 45 0 0-.468-90.895 129.207 73.833 45 0 0-36.547-50.506z" fill="#29b6f6"/><path d="M398.039 214.814c-11.406-34.566-18.682-47.433-65.787-35.066L259.78 252.22c6.76 6.76 14.423 12.618 22.285 16.87 15.724 8.506 29.857 9.298 37.076 2.08z" fill="#039be5"/><path d="M306.09 101.495l-65.26 91.364c-7.218 7.219-6.425 21.352 2.08 37.076 4.253 7.862 10.109 15.525 16.87 22.285 6.76 6.76 14.422 12.616 22.284 16.87 15.724 8.504 29.857 9.298 37.076 2.08l78.899-56.356c-10.394-31.5-17.373-44.97-54.178-37.754z" fill="#29b6f6"/><path d="M319.141 36.236c-23.314 23.315-29.932 59.785-17.36 95.671 6.205 17.62 16.713 34.118 30.471 47.84 48.273 11.002 70.425-11.59 65.2-65.2l-78.31-78.31z" fill="#4fc3f7"/><path d="M361.637 175.164c-.262-.004-.54.006-.807.006l-88.072 88.072c3.04 2.174 6.156 4.144 9.306 5.848 15.724 8.505 29.857 9.298 37.077 2.08l78.898-56.356c-8.445-25.594-14.637-39.286-36.402-39.65z" opacity=".677" fill="#039be5"/><path d="M397.453 114.547l-65.2 65.2a110.749 92.29 45 0 0 47.84 30.472 110.749 92.29 45 0 0 95.67-17.36z" fill="#29b6f6"/><path d="M475.764 192.859a110.749 36.916 45 0 1-104.415-52.208A110.749 36.916 45 0 1 319.14 36.236a110.749 36.916 45 0 1 104.415 52.208 110.749 36.916 45 0 1 52.208 104.415z" fill="#81d4fa"/></svg>