<svg xmlns="http://www.w3.org/2000/svg" viewBox="0 0 512.00001 512.00001" height="512" width="512"><g transform="translate(0 -540.362)" color="#000"><path style="isolation:auto;mix-blend-mode:normal" d="M236 824.362l-12 12h-56l.862 12H228l12-12h54a6.526 6.526 0 0 0 6.526-6.526c0-3.605-.922-5.474-4.526-5.474z" overflow="visible" fill="#03a9f4"/><path style="isolation:auto;mix-blend-mode:normal" d="M404.851 815.233a1.628 1.628 0 0 0-2.229-.598l-4.239 2.448-2.826 1.631-4.239 2.448a1.628 1.628 0 0 0-.597 2.228 1.628 1.628 0 0 0 2.229.598l4.239-2.448L413.62 850l2.826-1.63-16.432-28.461 4.239-2.448a1.628 1.628 0 0 0 .597-2.228z" overflow="visible" fill="#263238"/><path style="isolation:auto;mix-blend-mode:normal" d="M276 796.362l-16 16h84l32 32v64h40v-19.478l-32-.522v-56l-36-36z" overflow="visible" fill="#ffa000"/><rect style="isolation:auto;mix-blend-mode:normal" width="4" height="32" x="440" y="780.362" ry="2" overflow="visible" fill="#455a64"/><rect style="isolation:auto;mix-blend-mode:normal" width="12" height="36" x="436" y="804.362" ry="4" overflow="visible" fill="#90a4ae"/><path style="isolation:auto;mix-blend-mode:normal" d="M412 828.362l-12 12 16.276 35.263-.276 32.737h16l16-40h40v-8h-68v-24z" overflow="visible" fill="#263238"/><path style="isolation:auto;mix-blend-mode:normal" d="M442 804.362v36h2c2.216 0 4-1.784 4-4v-28c0-2.216-1.784-4-4-4h-2z" overflow="visible" fill="#607d8b"/><path style="isolation:auto;mix-blend-mode:normal" d="M420 860.362h68l-4-16-26.842-8H420z" overflow="visible" fill="#ffa000"/><path d="M465.6 872.362v2.319a30.4 30.4 0 0 0-2.898.776l-1.16-2.007-11.084 6.4 1.158 2.005a30.4 30.4 0 0 0-2.122 2.124l-2.007-1.159-6.4 11.084 1.99 1.149a30.4 30.4 0 0 0-.779 2.91H440v12.8h2.319a30.4 30.4 0 0 0 .776 2.898l-2.008 1.159 6.4 11.084 2.006-1.157a30.4 30.4 0 0 0 2.123 2.121l-1.158 2.007 11.084 6.4 1.149-1.99a30.4 30.4 0 0 0 2.909.779v2.298h12.8v-2.319a30.4 30.4 0 0 0 2.898-.776l1.16 2.008 11.084-6.4-1.158-2.006a30.4 30.4 0 0 0 2.122-2.123l2.006 1.158 6.4-11.084-1.989-1.148a30.4 30.4 0 0 0 .779-2.91H504v-12.8h-2.319a30.4 30.4 0 0 0-.776-2.898l2.007-1.16-6.4-11.084-2.005 1.158a30.4 30.4 0 0 0-2.123-2.122l1.158-2.006-11.084-6.4-1.149 1.989a30.4 30.4 0 0 0-2.909-.778v-2.299h-12.8z" style="isolation:auto;mix-blend-mode:normal" overflow="visible" fill="#37474f"/><path style="isolation:auto;mix-blend-mode:normal" d="M496.512 882.82l-2.004 1.157a30.4 30.4 0 0 0-1.063-1.06l-42.89 42.89a30.4 30.4 0 0 0 1.062 1.061l-1.16 2.006 11.086 6.4 1.148-1.988a30.4 30.4 0 0 0 2.909.777v2.3h12.8v-2.32a30.4 30.4 0 0 0 2.899-.777l1.158 2.008 11.086-6.4-1.158-2.004a30.4 30.4 0 0 0 2.12-2.125l2.007 1.16 6.4-11.086-1.988-1.148a30.4 30.4 0 0 0 .777-2.908H504v-12.801h-2.318a30.4 30.4 0 0 0-.778-2.899l2.008-1.158-6.4-11.086z" overflow="visible" fill="#263238"/><path style="isolation:auto;mix-blend-mode:normal" d="M472 886.585a17.778 17.778 0 0 0-17.777 17.777A17.778 17.778 0 0 0 472 922.14a17.778 17.778 0 0 0 17.777-17.778A17.778 17.778 0 0 0 472 886.585zm0 10.666a7.111 7.111 0 0 1 7.111 7.111 7.111 7.111 0 0 1-7.111 7.111 7.111 7.111 0 0 1-7.111-7.11A7.111 7.111 0 0 1 472 897.25z" overflow="visible" fill="#c62828"/><path style="isolation:auto;mix-blend-mode:normal" d="M200.4 880.362v2.03a26.6 26.6 0 0 0-2.536.679l-1.015-1.757-9.698 5.6 1.013 1.755a26.6 26.6 0 0 0-1.857 1.858l-1.755-1.014-5.6 9.699 1.74 1.004a26.6 26.6 0 0 0-.68 2.546H178v11.2h2.029a26.6 26.6 0 0 0 .68 2.536l-1.757 1.015 5.6 9.699 1.754-1.013a26.6 26.6 0 0 0 1.858 1.856l-1.013 1.756 9.698 5.6 1.005-1.74a26.6 26.6 0 0 0 2.546.68v2.011h11.2v-2.029a26.6 26.6 0 0 0 2.536-.68l1.015 1.758 9.698-5.6-1.013-1.755a26.6 26.6 0 0 0 1.857-1.858l1.755 1.014 5.6-9.7-1.74-1.004a26.6 26.6 0 0 0 .68-2.546H234v-11.2h-2.029a26.6 26.6 0 0 0-.68-2.536l1.757-1.014-5.6-9.7-1.754 1.014a26.6 26.6 0 0 0-1.858-1.857l1.013-1.755-9.698-5.6-1.005 1.74a26.6 26.6 0 0 0-2.546-.68v-2.012h-11.2z" overflow="visible" fill="#37474f"/><path style="isolation:auto;mix-blend-mode:normal" d="M227.45 889.513l-1.757 1.013a26.6 26.6 0 0 0-.927-.93l-37.532 37.532a26.6 26.6 0 0 0 .93.928l-1.014 1.755 9.7 5.6 1.004-1.74a26.6 26.6 0 0 0 2.546.68v2.011h11.2v-2.03a26.6 26.6 0 0 0 2.537-.679l1.013 1.758 9.7-5.6-1.014-1.755a26.6 26.6 0 0 0 1.857-1.858l1.756 1.014 5.6-9.7-1.74-1.003a26.6 26.6 0 0 0 .68-2.547H234v-11.2h-2.03a26.6 26.6 0 0 0-.679-2.537l1.758-1.013-5.6-9.7z" overflow="visible" fill="#263238"/><ellipse ry="17.5" rx="17.5" cy="908.362" cx="205.5" style="isolation:auto;mix-blend-mode:normal" overflow="visible" fill="#cfd8dc"/><path style="isolation:auto;mix-blend-mode:normal" overflow="visible" fill="#607d8b" d="M24 842.888h8v26.105h-8z"/><path style="isolation:auto;mix-blend-mode:normal" d="M20 860.362c24 0 40 52 32.526 80.421C44 912.363 32 896.363 12 888.363z" overflow="visible" fill="#b0bec5"/><path style="isolation:auto;mix-blend-mode:normal" overflow="visible" fill="#607d8b" d="M80 842.888h8v26.105h-8z"/><path d="M76 860.362c24 0 40 52 32.526 80.421C100 912.363 88 896.363 68 888.363z" style="isolation:auto;mix-blend-mode:normal" overflow="visible" fill="#b0bec5"/><path style="isolation:auto;mix-blend-mode:normal" overflow="visible" fill="#607d8b" d="M136 842.888h8v26.105h-8z"/><path style="isolation:auto;mix-blend-mode:normal" d="M218.12 896.243l-24.727 24.727a17.5 17.5 0 0 0 12.107 4.892 17.5 17.5 0 0 0 17.5-17.5 17.5 17.5 0 0 0-4.88-12.119z" overflow="visible" fill="#b0bec5"/><path style="isolation:auto;mix-blend-mode:normal" d="M14 836.362a6 6 0 1 0 0 12h166l20 20v40a6 6 0 1 0 12 0v-46l-26-26H20z" overflow="visible" fill="#03a9f4"/><path style="isolation:auto;mix-blend-mode:normal" d="M132 860.362c24 0 40 52 32.526 80.421C156 912.363 144 892.363 124 884.363z" overflow="visible" fill="#b0bec5"/><g transform="translate(-2.952 2.628)" fill="#37474f"><path style="isolation:auto;mix-blend-mode:normal" d="M302.952 813.734v4.348a57 57 0 0 0-5.434 1.456l-2.174-3.765-20.783 12 2.17 3.76a57 57 0 0 0-3.978 3.982l-3.762-2.173-12 20.784 3.73 2.153a57 57 0 0 0-1.46 5.455h-4.309v24h4.348a57 57 0 0 0 1.456 5.435l-3.765 2.173 12 20.784 3.76-2.171a57 57 0 0 0 3.982 3.978l-2.172 3.762 20.783 12 2.153-3.73a57 57 0 0 0 5.455 1.46v4.31h24v-4.349a57 57 0 0 0 5.435-1.456l2.174 3.765 20.783-12-2.17-3.76a57 57 0 0 0 3.978-3.982l3.761 2.173 12-20.784-3.73-2.153a57 57 0 0 0 1.46-5.455h4.31v-24h-4.348a57 57 0 0 0-1.456-5.434l3.764-2.174-12-20.784-3.76 2.171a57 57 0 0 0-3.981-3.978l2.172-3.762-20.783-12-2.154 3.73a57 57 0 0 0-5.455-1.46v-4.309h-24z" overflow="visible"/><circle cy="875.52" cx="313.579" style="isolation:auto;mix-blend-mode:normal" r="32.632" overflow="visible"/><circle style="isolation:auto;mix-blend-mode:normal" cx="313.579" cy="875.52" r="13.053" overflow="visible"/></g><path d="M357.96 835.972l-3.759 2.17a57 57 0 0 0-1.99-1.99l-80.422 80.421a57 57 0 0 0 1.992 1.988l-2.172 3.762 20.784 12 2.152-3.728a57 57 0 0 0 5.455 1.457v4.31h24v-4.347a57 57 0 0 0 5.434-1.456l2.175 3.764 20.784-12-2.172-3.76a57 57 0 0 0 3.978-3.982l3.762 2.174 12-20.783-3.729-2.155a57 57 0 0 0 1.46-5.455H372v-24h-4.348a57 57 0 0 0-1.455-5.433l3.764-2.176-12-20.781z" style="isolation:auto;mix-blend-mode:normal" overflow="visible" fill="#263238"/><path d="M312.001 843.73a32.632 32.632 0 0 0-32.633 32.631 32.632 32.632 0 0 0 32.633 32.633 32.632 32.632 0 0 0 32.63-32.633 32.632 32.632 0 0 0-32.63-32.63zm0 19.578a13.053 13.053 0 0 1 13.053 13.053A13.053 13.053 0 0 1 312 889.414a13.053 13.053 0 0 1-13.053-13.053 13.053 13.053 0 0 1 13.053-13.053z" style="isolation:auto;mix-blend-mode:normal" overflow="visible" fill="#c62828"/><path d="M335.06 853.302l-13.833 13.834a13.053 13.053 0 0 1 3.828 9.224 13.053 13.053 0 0 1-13.053 13.053 13.053 13.053 0 0 1-9.227-3.826l-13.836 13.836a32.632 32.632 0 0 0 23.063 9.57 32.632 32.632 0 0 0 32.63-32.633 32.632 32.632 0 0 0-9.571-23.058z" style="isolation:auto;mix-blend-mode:normal" overflow="visible" fill="#b71c1c"/><path d="M31.332 928.307s9.28.096 13.945-.215c4.666-.31 8.813-1.638 14.013-1.656 5.2-.018 11.773 2.797 16.985 1.888 5.213-.909 7.64-5.66 13.16-6.454 5.521-.793 13.189 2.109 18.534 3.191 5.346 1.083 9.077 2.87 13.555 3.161 4.479.291 7.728-.332 12.944-1.29 5.215-.957 13.037-4.95 18.156-4.905 5.118.045 6.384 3.225 11.436 3.307 5.052.081 12.115-5.22 17.842-4.542 5.727.678 9.423 6.378 14.326 7.544 4.903 1.167 9.077-.246 14.046-.246 4.97-.001 10.763 1.389 15.765.271 5.001-1.117 8.247-6.347 13.445-6.609 5.199-.261 9.464 5.083 15.226 5.667 5.763.584 13.392-2.302 18.287-2.844 4.895-.543 6.656-.823 11.02-.733 4.364.09 9.39 1.392 15.06 1.624 5.671.233 13.886-.59 18.899-.481 5.012.109 6.247-.226 11.15.77 4.902.997 12.208 6.595 17.81 6.142 5.601-.452 7.83-6.91 13.104-7.044 5.275-.135 10.044 6.59 15.164 7.179 5.12.59 8.344-2.49 13.825-2.99 5.48-.5 13.215 1.106 18.869.584 5.653-.522 9.724-3.241 14.84-3.243 5.116-.003 10.202 3.709 15.15 3.297 4.949-.412 8.617-5.203 13.268-5.306 4.65-.102 7.764 4.296 12.86 4.495 5.096.198 10.709-4.934 16.412-4.34 5.704.594 23.572 7.833 23.572 7.833v104H8v-112c8 0 16 4 23.332 3.945z" style="isolation:auto;mix-blend-mode:normal" overflow="visible" fill="#795548"/><circle style="isolation:auto;mix-blend-mode:normal" cx="335.453" cy="947.402" r="4" overflow="visible" fill="#8d6e63"/><circle r="4" cy="967.449" cx="132.721" style="isolation:auto;mix-blend-mode:normal" overflow="visible" fill="#8d6e63"/><circle style="isolation:auto;mix-blend-mode:normal" cx="244.175" cy="997.831" r="4" overflow="visible" fill="#8d6e63"/><circle r="4" cy="957.633" cx="425.257" style="isolation:auto;mix-blend-mode:normal" overflow="visible" fill="#8d6e63"/><circle style="isolation:auto;mix-blend-mode:normal" cx="145.862" cy="965.196" r="4" overflow="visible" fill="#8d6e63"/><circle r="4" cy="960.362" cx="208" style="isolation:auto;mix-blend-mode:normal" overflow="visible" fill="#8d6e63"/><circle style="isolation:auto;mix-blend-mode:normal" cx="304.948" cy="974.249" r="4" overflow="visible" fill="#8d6e63"/><circle r="4" cy="1008.202" cx="352.95" style="isolation:auto;mix-blend-mode:normal" overflow="visible" fill="#8d6e63"/><circle style="isolation:auto;mix-blend-mode:normal" cx="279.276" cy="983.151" r="4" overflow="visible" fill="#8d6e63"/><circle r="4" cy="985.303" cx="445.469" style="isolation:auto;mix-blend-mode:normal" overflow="visible" fill="#8d6e63"/><circle style="isolation:auto;mix-blend-mode:normal" cx="306.407" cy="1010.416" r="4" overflow="visible" fill="#8d6e63"/><circle r="4" cy="1002.477" cx="418.226" style="isolation:auto;mix-blend-mode:normal" overflow="visible" fill="#8d6e63"/><circle style="isolation:auto;mix-blend-mode:normal" cx="48" cy="946.362" r="6" overflow="visible" fill="#8d6e63"/><circle r="6" cy="1001.018" cx="202.195" style="isolation:auto;mix-blend-mode:normal" overflow="visible" fill="#8d6e63"/><circle style="isolation:auto;mix-blend-mode:normal" cx="357.304" cy="954.859" r="6" overflow="visible" fill="#8d6e63"/><circle r="6" cy="956.374" cx="280.868" style="isolation:auto;mix-blend-mode:normal" overflow="visible" fill="#8d6e63"/><circle style="isolation:auto;mix-blend-mode:normal" cx="431.167" cy="1008.316" r="6" overflow="visible" fill="#8d6e63"/><circle r="6" cy="1020.362" cx="106" style="isolation:auto;mix-blend-mode:normal" overflow="visible" fill="#8d6e63"/><circle style="isolation:auto;mix-blend-mode:normal" cx="102.214" cy="975.985" r="6" overflow="visible" fill="#8d6e63"/><circle r="6" cy="969.343" cx="248.382" style="isolation:auto;mix-blend-mode:normal" overflow="visible" fill="#8d6e63"/><circle style="isolation:auto;mix-blend-mode:normal" cx="320" cy="996.362" r="8" overflow="visible" fill="#8d6e63"/><circle r="8" cy="1004.887" cx="50.257" style="isolation:auto;mix-blend-mode:normal" overflow="visible" fill="#8d6e63"/><circle r="8" cy="996.362" cx="144" style="isolation:auto;mix-blend-mode:normal" overflow="visible" fill="#8d6e63"/><circle style="isolation:auto;mix-blend-mode:normal" cx="425.257" cy="957.633" r="4" overflow="visible" fill="#8d6e63"/><circle style="isolation:auto;mix-blend-mode:normal" cx="445.469" cy="985.303" r="4" overflow="visible" fill="#8d6e63"/><circle r="6" cy="954.859" cx="357.304" style="isolation:auto;mix-blend-mode:normal" overflow="visible" fill="#8d6e63"/><circle r="6" cy="946.362" cx="112" style="isolation:auto;mix-blend-mode:normal" overflow="visible" fill="#8d6e63"/><path style="isolation:auto;mix-blend-mode:normal" d="M484.563 891.8l-7.538 7.537a7.111 7.111 0 0 1 2.086 5.025 7.111 7.111 0 0 1-7.111 7.111 7.111 7.111 0 0 1-5.025-2.085l-7.538 7.537A17.778 17.778 0 0 0 472 922.14a17.778 17.778 0 0 0 17.777-17.778 17.778 17.778 0 0 0-5.214-12.562z" overflow="visible" fill="#b71c1c"/><circle r="8" cy="988.362" cx="392" style="isolation:auto;mix-blend-mode:normal" overflow="visible" fill="#8d6e63"/><circle r="6" cy="954.362" cx="472" style="isolation:auto;mix-blend-mode:normal" overflow="visible" fill="#8d6e63"/></g></svg>