<svg xmlns="http://www.w3.org/2000/svg" width="512" height="512"><g fill-opacity=".995"><path d="M394.871 207l-17.783.063-51.145.181-2.203.008L113.13 208H46c17.673 0 32 14.327 32 32v2.564A64 64 0 0 0 22 306a64 64 0 0 0 57.35 63.582C87.644 423.218 133.31 464 188.742 464H319.258c55.334 0 100.932-40.637 109.346-94.13A64 64 0 0 0 490 306a64 64 0 0 0-60-63.86V240c0-17.673 14.327-32 32-32h-32zM430 274.281A32 32 0 0 1 458 306a32 32 0 0 1-28 31.709V288zm-352 .76V336.941A32 32 0 0 1 54 306a32 32 0 0 1 24-30.959z" fill="#e53935"/><path d="M208 64v64h96V64h-88z" fill="#b0bec5"/><path d="M256 96a192 80 0 0 0-93.018 10.12 168 84 0 0 0-.003.001 192 80 0 0 0-.024.006 192 80 0 0 0-16.09 4.162 192 80 0 0 0-.508.152 192 80 0 0 0-14.527 4.659 192 80 0 0 0-.98.357 192 80 0 0 0-12.82 5.035 192 80 0 0 0-1.419.633 192 80 0 0 0-11.02 5.287 192 80 0 0 0-1.773.973 192 80 0 0 0-9.2 5.426 192 80 0 0 0-2.009 1.365 192 80 0 0 0-7.388 5.44 192 80 0 0 0-2.092 1.804 192 80 0 0 0-5.654 5.346 192 80 0 0 0-2 2.283 192 80 0 0 0-4.026 5.146 192 80 0 0 0-1.699 2.776 192 80 0 0 0-2.545 4.855 192 80 0 0 0-1.19 3.278 192 80 0 0 0-1.245 4.494 192 80 0 0 0-.706 5.869H64V208h192.098v-32H448a192 80 0 0 0-.316-3.734 192 80 0 0 0-.506-3.096 192 80 0 0 0-1.143-3.926 192 80 0 0 0-1.45-3.994 192 80 0 0 0-2.07-3.846 192 80 0 0 0-2.413-3.935 192 80 0 0 0-2.967-3.719 192 80 0 0 0-3.352-3.826 192 80 0 0 0-3.847-3.582 192 80 0 0 0-4.243-3.658 192 80 0 0 0-4.67-3.395 192 80 0 0 0-5.146-3.496 192 80 0 0 0-5.408-3.15 192 80 0 0 0-5.967-3.27 192 80 0 0 0-6.166-2.926 192 80 0 0 0-6.725-3.008 192 80 0 0 0-6.761-2.623 192 80 0 0 0-7.49-2.742 192 80 0 0 0-7.3-2.312 192 80 0 0 0-8.14-2.426 192 80 0 0 0-13.024-3.326 192 80 0 0 0-1.007-.25 192 80 0 0 0-.002 0 168 84 0 0 0-.002 0 192 80 0 0 0-3.762-.758 192 80 0 0 0-3.957-.795 192 80 0 0 0-13.584-2.53 192 80 0 0 0-3.848-.585 192 80 0 0 0-14.414-1.99 192 80 0 0 0-11.373-1.21 192 80 0 0 0-.05-.005A192 80 0 0 0 256 96z" fill="#f44336"/><path d="M48 176c-8.864 0-16 7.136-16 16 0 5.292 2.556 9.954 6.492 12.863l.01.008.037.028c.34.25.69.486 1.05.709l.204.123.016.008c.328.195.662.38 1.005.552l.012.006c.098.05.198.096.297.143l.012.006c.318.15.638.296.967.426.156.062.317.116.476.174.3.107.6.212.908.302l.006.002c.203.06.41.107.616.158.269.067.536.139.81.192.288.056.582.092.875.133.215.03.425.069.643.09.514.049 1.036.077 1.564.077h416c8.864 0 16-7.136 16-16s-7.136-16-16-16H88z" fill="#ef5350"/><path d="M203.444 48.33c-4.432 0-8 3.568-8 8a8.171 8.171 0 0 0 .162 1.615 7.965 7.965 0 0 0 3.066 4.803l.002.002.055.04c.171.126.346.243.528.354l.068.041c.177.107.357.207.543.3l.113.054.006.002c.171.082.344.159.522.228l.006.002c.068.027.138.052.207.077.15.054.299.107.453.152l.004.002c.1.03.203.052.305.078l.027.006c.134.033.267.07.404.096.115.022.233.035.35.052l.027.004c.124.018.246.041.371.053.257.025.517.039.781.039h105.112c4.432 0 8-3.568 8-8s-3.568-8-8-8h-97.112z" fill="#cfd8dc"/><path d="M394.871 207l-17.783.063-51.145.181-2.203.008-67.74.24V464h63.258c55.334 0 100.932-40.637 109.346-94.13A64 64 0 0 0 490 306a64 64 0 0 0-60-63.86V240c0-17.673 14.327-32 32-32h-32l-35.129-1zM430 274.281A32 32 0 0 1 458 306a32 32 0 0 1-28 31.709V274.281z" fill="#c62828"/><path d="M256 176v32h208c8.864 0 16-7.136 16-16s-7.136-16-16-16H364z" fill="#e53935"/><path d="M256 64v64h48V64h-48z" fill="#90a4ae"/><path d="M256 96v80h192a192 80 0 0 0-.316-3.734 192 80 0 0 0-.506-3.096 192 80 0 0 0-1.143-3.926 192 80 0 0 0-1.45-3.994 192 80 0 0 0-2.07-3.846 192 80 0 0 0-2.413-3.935 192 80 0 0 0-2.967-3.719 192 80 0 0 0-3.352-3.826 192 80 0 0 0-3.847-3.582 192 80 0 0 0-4.243-3.658 192 80 0 0 0-4.67-3.395 192 80 0 0 0-5.146-3.496 192 80 0 0 0-5.408-3.15 192 80 0 0 0-5.967-3.27 192 80 0 0 0-6.166-2.926 192 80 0 0 0-6.725-3.008 192 80 0 0 0-6.761-2.623 192 80 0 0 0-7.49-2.742 192 80 0 0 0-7.3-2.312 192 80 0 0 0-8.14-2.426 192 80 0 0 0-13.024-3.326 192 80 0 0 0-1.007-.25 192 80 0 0 0-.002 0 168 84 0 0 0-.002 0 192 80 0 0 0-3.762-.758 192 80 0 0 0-3.957-.795 192 80 0 0 0-13.584-2.53 192 80 0 0 0-3.848-.585 192 80 0 0 0-14.414-1.99 192 80 0 0 0-11.373-1.21 192 80 0 0 0-.05-.005A192 80 0 0 0 256 96z" fill="#d32f2f"/><path d="M256 48.33v16h52.557c4.432 0 8-3.568 8-8s-3.568-8-8-8H256z" fill="#b0bec5"/></g></svg>