<svg xmlns="http://www.w3.org/2000/svg" width="512" height="512"><path fill="#ffc107" d="M256 96A192 192 0 0 0 64 288a192 192 0 0 0 192 192 192 192 0 0 0 192-192A192 192 0 0 0 256 96m0 48a144 144 0 0 1 144 144 144 144 0 0 1-144 144 144 144 0 0 1-144-144 144 144 0 0 1 144-144" color="#000" overflow="visible" style="isolation:auto;mix-blend-mode:normal"/><path fill="#ffa000" d="M255.191 144a160.81 160 0 0 0-160.81 160 160.81 160 0 0 0 160.81 160A160.81 160 0 0 0 416 304a160.81 160 0 0 0-145.26-159.227A144 144 0 0 1 400 288a144 144 0 0 1-144 144 144 144 0 0 1-144-144 144 144 0 0 1 143.527-143.982 160.81 160 0 0 0-.336-.018" color="#000" overflow="visible" style="isolation:auto;mix-blend-mode:normal"/><g fill-rule="evenodd"><path fill="#80deea" d="M236.444 144.923h39.112L304.889 76H207.11z"/><path fill="#4dd0e1" d="M275.556 144.923 344 76h-39.111zm-39.112 0L168 76h39.111z"/><path fill="#b2ebf2" d="m168 76 39.111-43.077V76zm39.111 0L256 32.923 304.889 76zM344 76l-39.111-43.077V76z"/><path fill="#80deea" d="M207.111 32.923V76L256 32.923zm97.778 0V76L256 32.923z"/></g><path fill="#ffa000" d="M197.145 105.348a192 192 0 0 0-18.698 7.16l37.438 37.435a144 144 0 0 1 25.295-5.02h-4.735zm117.607.105-39.197 39.47h-3.823a144 144 0 0 1 25.944 5.401l36.972-36.972a192 192 0 0 0-19.896-7.899" color="#000" overflow="visible" style="isolation:auto;mix-blend-mode:normal"/></svg>