<svg xmlns="http://www.w3.org/2000/svg" width="512" height="512"><g fill-rule="evenodd" color="#000" font-family="sans-serif" font-weight="400"><path fill="#263238" d="M496 496c-52.345-103.448-118.847-166.106-166.633-197.028-41.427-26.808-79.262-41.766-110.712-54.864-29.249-12.181-53.36-22.913-65.495-31.517-11.509-8.16-12.44-10.208-11.363-16.591 1.033-6.122 2.555-7.983 15.27-14.939 12.125-6.632 32.917-14.046 55.212-21.487 21.103-7.043 43.486-14.089 61.335-24.631 16.402-9.688 27.537-24.018 19.984-38.943-6.571-12.987-25.677-22.634-42.747-28.028-16.063-5.076-32.27-8.087-46.3-10.838-13.565-2.66-25.16-5.09-31.244-7.098-5.931-1.957-6.476-2.457-6.21-4.036.261-1.546.954-2.023 7.184-3.83 6.08-1.764 16.848-3.784 28.7-5.865 11.51-2.021 24.013-4.095 34.625-7.299 10.125-3.056 18.152-7.789 15.512-13.006h-40.48c.17 1.008-.279 1.327-5.05 2.57-4.87 1.268-14.074 2.793-24.772 4.452-10.984 1.703-23.584 3.553-35.85 6.64-12.86 3.236-26.712 8.912-30.47 16.338-4.17 8.242 5.27 15.875 17.817 20.888 13.328 5.326 29.375 8.812 44.271 12.24 15.476 3.561 29.664 7.05 37.764 10.12 8.367 3.172 9.32 4.012 9.783 6.752.475 2.817-.217 3.713-8.049 7.24-8.108 3.653-23.767 8.115-42.301 13.056-19.405 5.174-42.109 10.914-65.322 20.77-25.28 10.736-55.542 30.632-69.863 58.934-17.651 34.884-6.18 71.018 16.837 97.072 26.495 29.989 63.37 51.058 99.507 73 39.859 24.204 78.755 49.43 102.765 73.007C285.998 464.896 289.55 472 293.598 496z" overflow="visible" style="line-height:normal;text-indent:0;text-align:start;text-decoration-line:none;text-decoration-style:solid;text-decoration-color:#000;text-transform:none;block-progression:tb;isolation:auto;mix-blend-mode:normal"/><path fill="#eceff1" d="M386.402 458.71c-11.392-35.583-37.909-64.277-58.933-85.39-20.85-9.326-7.326 12.46 6.42 27.723 13.747 15.262 26.095 40.562 41.552 61.771 6.448 2.675 8.717 1.542 10.961-4.104M275.721 341.424c-.013-14.424-19.098-17.217-27.951-24.323-10.876-3.582-22.558-16.634-32.96-12.769-8.393 12.239 15.021 15.961 22.866 22.44 11.381 5.01 21.89 15.214 34.209 18.084zm-97.08-52.302c1.595-11.531-15.524-12.09-22.115-17.985-8.839-2.725-15.713-12.684-25.35-10.484-9.764 7.62 5.786 12.485 11.134 16.26 10.547 4.86 20.14 13.442 32.578 15.27zm-72.773-45.239c6.297-8.393-6.987-12.825-7.877-19.746-4.717-4.633.008-15.369-9.203-15.706-9.878 5.23-2.243 14.162-.948 20.383 4.002 5.373 5.865 16.089 15.666 15.851l1.898-.628zm-7.1-57.105c7.552-7.834 13.985-16.043 24.32-21.587 5.534-5.982-7.348-4.984-10.507-.46-7.9 5.803-17.865 12.905-19.835 21.033 1.616 1.525 2.963 1.683 6.022 1.014m52.035-34.651c9.912-4.31 21.74-6.479 30.358-10.954.325-5.198-9.643-1.753-13.6-.215-7.217 2.764-16.402 4.372-22.432 8.522-.756 2.19 2.371 3.659 5.674 2.647m55.704-17.845c9.082-3.243 19.932-5.326 26.586-9.676-1.575-4.59-9.309-.888-12.974.37-5.919 2.416-13.836 3.541-19.007 6.682-.592 1.863 2.382 3.315 5.395 2.624m46.039-18.344c5.693-4.08 11.752-8.81 10.232-14.024-6.848-2.671-6.15 2.884-8.109 4.718-1.61 2.971-6.502 5.004-8.387 7.989.739 1.626 4.2 2.354 6.264 1.317m6.824-24.857c-1.171-4.251-8.691-7.927-14.824-10.855-5.737-2.416-7.411 1.742-1.607 2.849 5.47 2.317 8.157 5.662 12.33 8.496 2.02.317 2.89.183 4.101-.49m-34.468-16.098c.737-2.373-6.957-2.796-10.324-3.99-4.502-.65-9.17-2.971-13.725-2.262-3.552 2.048 5.441 2.72 8.416 3.71 4.763.842 8.855 2.622 13.942 3.093zm-39.436-9.041c.467-2.269-7.366-2.38-10.552-3.606-3.987-.481-7.702-2.93-11.963-1.71-1.288 2.067 5.888 2.47 8.926 3.563 4.095.63 8.237 2.715 12.706 2.068l.708-.253zm-33.802-9.15c2.467-1.799-3.935-2.793-4.71-4.354-2.6-1.085-.86-3.672-5.476-3.753-4.201 1.174-.265 3.21.729 4.587 2.039 1.342 3.623 3.14 7.575 3.82zm-6.6-13.443c3.468-1.994 6.326-4.19 11.423-5.684 2.76-1.526-3.815-1.56-5.184-.288-3.945 1.578-8.622 3.465-9.299 5.635.869.415 1.549.474 3.06.337m25.64-9.34c5.259-1.24 11.615-1.897 16.297-3.227-.063-1.702-5.887-.353-8.238.061-3.661.774-8.252 1.235-11.193 2.372-.338.637 1.385 1.076 3.134.794m30.319-5.336c5.067-1.012 11.18-1.671 15.077-3.043-.008-1.308-4.498-.633-6.174-.116-3.713.865-8.612 1.27-11.889 2.341-.343.581 1.3 1.032 2.986.818m26.655-5.975c3.438-1.377 7.194-3.02 6.572-4.807-3.395-.942-3.937.756-4.658 1.41-1 1.135-4.189 1.912-5.491 3.004.405.537 2.375.754 3.577.393" overflow="visible" style="line-height:normal;text-indent:0;text-align:start;text-decoration-line:none;text-decoration-style:solid;text-decoration-color:#000;text-transform:none;block-progression:tb;isolation:auto;mix-blend-mode:normal"/></g></svg>