<svg xmlns="http://www.w3.org/2000/svg" xmlns:xlink="http://www.w3.org/1999/xlink" height="512" width="512"><defs><lineargradient gradienttransform="matrix(1.9285714,0,0,1.9285714,2978.2577,727.52696)" y2="368" x2="312" y1="344" x1="312" gradientunits="userSpaceOnUse" id="b" xlink:href="#a"/></defs><path style="isolation:auto;mix-blend-mode:normal" d="M16 93.143L256 24.57v257.143L16 367.43z" color="#000" overflow="visible" fill="#e1f5fe"/><path d="M496 76L256 24.571v257.143l240 85.715z" style="isolation:auto;mix-blend-mode:normal" color="#000" overflow="visible" fill="#b3e5fc"/><path style="isolation:auto;mix-blend-mode:normal" d="M256 281.714l240 85.715-240 120-240-120z" color="#000" overflow="visible" fill="#ffcc80"/><path d="M461.128 137.026L284.052 93.032v124.897l177.076 56.093V137.026" style="isolation:auto;mix-blend-mode:normal" color="#000" overflow="visible" fill="#fff"/><path d="M472.619 139.88L274.605 90.684v-5.647l198.014 48.58v6.263" style="isolation:auto;mix-blend-mode:normal" color="#000" overflow="visible" fill="#ff9800"/><path d="M461.128 267.795l-177.076-55.543v5.677l177.076 56.093v-6.227" style="isolation:auto;mix-blend-mode:normal" color="#000" overflow="visible" fill="#b0bec5"/><path style="isolation:auto;mix-blend-mode:normal" d="M461.128 137.026l-67.105-16.672-4.349 149.215 10.525 9.304L411 270.286l21.966 19.374 11.17-8.672 22.721 19.828-5.729-163.79" color="#000" overflow="visible" fill="#f06292"/><path d="M432.966 289.66l11.17-8.672-5.6-149.576-5.57 158.248M400.199 278.873L411 270.286l-5.416-147.06-5.385 155.647" fill="#ec407a" fill-rule="evenodd"/><path d="M284.052 93.032l48.748 12.11 5.018 141.507-10.01 8.394-19.703-17.99-9.697 8.311-19.092-17.61 4.736-134.722" style="isolation:auto;mix-blend-mode:normal" color="#000" overflow="visible" fill="#f06292"/><path d="M308.105 237.053l-9.697 8.311L303.244 97.8l4.861 139.253M337.818 246.65l-10.01 8.393 4.992-149.9 5.018 141.506" fill="#ec407a" fill-rule="evenodd"/><path d="M145.312 140.53l95.281-29.388v176.075l-95.281 34.029V140.53" style="isolation:auto;mix-blend-mode:normal" color="#000" overflow="visible" fill="#cfd8dc"/><path d="M150.737 144.872l84.692-26.26v170.45l-84.692 30.246V144.872" style="isolation:auto;mix-blend-mode:normal" color="#000" overflow="visible" fill="#e1f5fe"/><path d="M235.429 289.061l-84.692 30.247V144.872l84.692-26.26v170.45" fill="#a1887f" fill-rule="evenodd"/><path d="M177.626 226.106c0 4.947-3.59 10.166-8.026 11.66-2.134.72-4.184.463-5.696-.714-1.514-1.178-2.365-3.18-2.365-5.567 0-2.386.851-4.957 2.365-7.148 1.512-2.188 3.562-3.815 5.696-4.524 4.437-1.473 8.026 1.346 8.026 6.293" style="isolation:auto;mix-blend-mode:normal" color="#000" overflow="visible" fill="#455a64"/><path d="M39.133 173.28l84.32-26.007v96.95l-84.32 28.197v-99.14" style="isolation:auto;mix-blend-mode:normal" color="#000" overflow="visible" fill="#ffa000"/><path d="M44.872 177.697l73.075-22.658v84.956l-73.075 24.319v-86.617" style="isolation:auto;mix-blend-mode:normal" color="#000" overflow="visible" fill="#cfd8dc"/><path d="M83.032 234.68l-9.385 4.787-14.27 8.07-2.725 12.857 49.235-16.386-2.68-10.874-13.944 1.199-6.23.346" fill="#f44336"/><path d="M83.032 233.699l-9.385 5.768-4.71 8.379-3.146 7.876-.243 1.71L97.29 246.87l-.268-1.527-3.1-5.755-4.66-5.254-6.23-.634" fill="#b71c1c"/><path d="M73.647 231.792l15.615-5.102v9.342l-7.791 16.181-7.824-11.04v-9.381" fill="#ff9800"/><path d="M101.662 204.862l-3.092 11.162-4.648 6.599-3.883 5.51-3.89 2.974-9.369 3.07-3.917-.423-3.926-2.985-4.722-4.445-3.154-8.389 1.578-10.771 3.152-11.261 15.68-8.369 15.55-1.519 3.095 9.183 1.546 9.664" fill="#ffc107"/><path d="M76.78 206.483c0 1.017-.33 2.098-.917 3.006-.587.908-1.385 1.568-2.216 1.835-1.733.557-3.139-.71-3.139-2.832 0-2.121 1.406-4.29 3.139-4.843.831-.266 1.629-.116 2.216.416.587.531.917 1.401.917 2.418M92.37 201.49c0 2.109-1.391 4.265-3.108 4.817-.825.265-1.617.116-2.2-.413-.584-.53-.913-1.398-.913-2.412s.329-2.092.913-2.996c.583-.904 1.375-1.56 2.2-1.823 1.717-.548 3.108.718 3.108 2.827" fill="#3e2723"/><path d="M54.737 214.83l1.583 8.059 4.741 3.603 1.578-.512 3.152-11.277-4.73-5.324-4.741 1.516-1.583 3.934" fill="#ffc107"/><path d="M59.482 221.868l1.58-2.222v-3.422-1.711l-1.58-1.205-1.58 3.932 1.58 4.628" fill="#ff9800"/><path d="M107.831 197.805l-1.54 8.948-4.63 6.574-1.545.501-3.094-9.167 4.64-8.264 4.629-1.48 1.54 2.888" fill="#ffc107"/><path d="M103.206 207.75l-1.544-1.195v-3.386-1.693l1.544-2.188 1.543 2.888-1.543 5.573" fill="#ff9800"/><path d="M62.639 217.427v-8.553l1.576-5.633 3.15-6.128 6.282-.286 2.842-4.311 4.982 1.827 4.678-4.886 3.113 2.412 6.21-3.667 3.098 4.1 1.546 4.59 1.546 7.97 3.087-17.91-4.633-15.466-4.644 8.237-3.102-9.207-4.664 6.554-6.235-3.152-6.257 7.067-4.706-3.646-3.144 11.231-4.725-5.354-4.737 18.61 4.737 15.601" fill="#3e2723" fill-rule="evenodd"/><path d="M75.214 223.607l.783-1.958 5.474-.924 5.457-2.62.778 1.446-4.154 4.752-4.165 1.355-4.173-2.05" fill="#ff9800"/><rect rx="4.573" style="isolation:auto;mix-blend-mode:normal" width="17.438" height="9.799" x="195.455" y="321.299" transform="skewY(-29.805) scale(.86772 1)" ry="4.573" color="#000" overflow="visible" fill="#546e7a"/></svg>