<svg xmlns="http://www.w3.org/2000/svg" width="512" height="512"><path fill="#e1f5fe" d="M16 93.143 256 24.57v257.143L16 367.43z" color="#000" overflow="visible" style="isolation:auto;mix-blend-mode:normal"/><path fill="#b3e5fc" d="M496 76 256 24.571v257.143l240 85.715z" color="#000" overflow="visible" style="isolation:auto;mix-blend-mode:normal"/><path fill="#ffcc80" d="m256 281.714 240 85.715-240 120-240-120z" color="#000" overflow="visible" style="isolation:auto;mix-blend-mode:normal"/><path fill="#fff" d="M461.128 137.026 284.052 93.032v124.897l177.076 56.093z" color="#000" overflow="visible" style="isolation:auto;mix-blend-mode:normal"/><path fill="#ff9800" d="M472.619 139.88 274.605 90.684v-5.647l198.014 48.58z" color="#000" overflow="visible" style="isolation:auto;mix-blend-mode:normal"/><path fill="#b0bec5" d="m461.128 267.795-177.076-55.543v5.677l177.076 56.093z" color="#000" overflow="visible" style="isolation:auto;mix-blend-mode:normal"/><path fill="#f06292" d="m461.128 137.026-67.105-16.672-4.349 149.215 10.525 9.304L411 270.286l21.966 19.374 11.17-8.672 22.721 19.828z" color="#000" overflow="visible" style="isolation:auto;mix-blend-mode:normal"/><path fill="#ec407a" fill-rule="evenodd" d="m432.966 289.66 11.17-8.672-5.6-149.576zm-32.767-10.787L411 270.286l-5.416-147.06z"/><path fill="#f06292" d="m284.052 93.032 48.748 12.11 5.018 141.507-10.01 8.394-19.703-17.99-9.697 8.311-19.092-17.61z" color="#000" overflow="visible" style="isolation:auto;mix-blend-mode:normal"/><path fill="#ec407a" fill-rule="evenodd" d="m308.105 237.053-9.697 8.311L303.244 97.8zm29.713 9.597-10.01 8.393 4.992-149.9 5.018 141.506"/><path fill="#cfd8dc" d="m145.312 140.53 95.281-29.388v176.075l-95.281 34.029z" color="#000" overflow="visible" style="isolation:auto;mix-blend-mode:normal"/><path fill="#e1f5fe" d="m150.737 144.872 84.692-26.26v170.45l-84.692 30.246z" color="#000" overflow="visible" style="isolation:auto;mix-blend-mode:normal"/><path fill="#a1887f" fill-rule="evenodd" d="m235.429 289.061-84.692 30.247V144.872l84.692-26.26v170.45"/><path fill="#455a64" d="M177.626 226.106c0 4.947-3.59 10.166-8.026 11.66-2.134.72-4.184.463-5.696-.714-1.514-1.178-2.365-3.18-2.365-5.567s.851-4.957 2.365-7.148c1.512-2.188 3.562-3.815 5.696-4.524 4.437-1.473 8.026 1.346 8.026 6.293" color="#000" overflow="visible" style="isolation:auto;mix-blend-mode:normal"/><path fill="#ffa000" d="m39.133 173.28 84.32-26.007v96.95l-84.32 28.197z" color="#000" overflow="visible" style="isolation:auto;mix-blend-mode:normal"/><path fill="#cfd8dc" d="m44.872 177.697 73.075-22.658v84.956l-73.075 24.319z" color="#000" overflow="visible" style="isolation:auto;mix-blend-mode:normal"/><path fill="#f44336" d="m83.032 234.68-9.385 4.787-14.27 8.07-2.725 12.857 49.235-16.386-2.68-10.874-13.944 1.199z"/><path fill="#b71c1c" d="m83.032 233.699-9.385 5.768-4.71 8.379-3.146 7.876-.243 1.71L97.29 246.87l-.268-1.527-3.1-5.755-4.66-5.254-6.23-.634"/><path fill="#ff9800" d="m73.647 231.792 15.615-5.102v9.342l-7.791 16.181-7.824-11.04z"/><path fill="#ffc107" d="m101.662 204.862-3.092 11.162-4.648 6.599-3.883 5.51-3.89 2.974-9.369 3.07-3.917-.423-3.926-2.985-4.722-4.445-3.154-8.389 1.578-10.771 3.152-11.261 15.68-8.369 15.55-1.519 3.095 9.183z"/><path fill="#3e2723" d="M76.78 206.483c0 1.017-.33 2.098-.917 3.006s-1.385 1.568-2.216 1.835c-1.733.557-3.139-.71-3.139-2.832s1.406-4.29 3.139-4.843c.831-.266 1.629-.116 2.216.416.587.531.917 1.401.917 2.418m15.59-4.993c0 2.109-1.391 4.265-3.108 4.817-.825.265-1.617.116-2.2-.413-.584-.53-.913-1.398-.913-2.412s.329-2.092.913-2.996c.583-.904 1.375-1.56 2.2-1.823 1.717-.548 3.108.718 3.108 2.827"/><path fill="#ffc107" d="m54.737 214.83 1.583 8.059 4.741 3.603 1.578-.512 3.152-11.277-4.73-5.324-4.741 1.516-1.583 3.934"/><path fill="#ff9800" d="m59.482 221.868 1.58-2.222v-5.133l-1.58-1.205-1.58 3.932z"/><path fill="#ffc107" d="m107.831 197.805-1.54 8.948-4.63 6.574-1.545.501-3.094-9.167 4.64-8.264 4.629-1.48z"/><path fill="#ff9800" d="m103.206 207.75-1.544-1.195v-5.079l1.544-2.188 1.543 2.888z"/><path fill="#3e2723" fill-rule="evenodd" d="M62.639 217.427v-8.553l1.576-5.633 3.15-6.128 6.282-.286 2.842-4.311 4.982 1.827 4.678-4.886 3.113 2.412 6.21-3.667 3.098 4.1 1.546 4.59 1.546 7.97 3.087-17.91-4.633-15.466-4.644 8.237-3.102-9.207-4.664 6.554-6.235-3.152-6.257 7.067-4.706-3.646-3.144 11.231-4.725-5.354-4.737 18.61z"/><path fill="#ff9800" d="m75.214 223.607.783-1.958 5.474-.924 5.457-2.62.778 1.446-4.154 4.752-4.165 1.355z"/><rect width="17.438" height="9.799" x="195.455" y="321.299" fill="#546e7a" color="#000" overflow="visible" rx="4.573" ry="4.573" style="isolation:auto;mix-blend-mode:normal" transform="scale(.86772 1)skewY(-26.43)"/></svg>