<svg xmlns="http://www.w3.org/2000/svg" width="512" height="512"><g color="#000"><path fill="#cfd8dc" d="M171.835 78.975q-17.127-36.613 17.656-52.883 34.782-16.271 51.91 20.342c16.552 35.387 13.919 90.176 2.325 95.6s-55.338-27.672-71.891-63.059" overflow="visible" style="isolation:auto;mix-blend-mode:normal"/><path fill="#37474f" d="M243.7 140.834c2.198-1.789 3.18-4.62 3.594-7.337.876-5.733-.043-11.533-1.046-17.185-1.032-4.956-2.914-9.795-2.93-14.916.287-3.79 1.994-7.408 1.658-11.255-.953-5.94-3.395-11.585-3.759-17.63-.71-5.268-2.492-10.435-5.502-14.84-1.558-2.546-2.974-5.323-3.13-8.36a14.6 14.6 0 0 0-2.593-6.647c-4.03-6.712-9.48-12.715-16.298-16.661-6.77-3.631-15.315-3.737-22.14-.188-3.02 1.466-6.083 3.219-8.049 6.026-.412.495-.602 1.108-.83 1.698-.493.242-1.129.177-1.51.635-2.669 2.11-4.333 5.226-5.42 8.394-.394 1.221-.652 2.54-.363 3.813-1.342 1.12-1.894 2.934-1.812 4.637-.148 3.86.82 7.642 1.758 11.353 1.005 3.57 2.246 7.11 4.116 10.326.672.85 1.353 1.894 1.118 3.03.002 1.573 1.057 2.844 1.675 4.217 3.193 6.02 7.223 11.533 10.936 17.232.993 1.53 2.12 3.004 3.599 4.098 2.332 1.891 4.852 3.568 6.951 5.733 5.94 5.698 9.506 13.34 15.28 19.182 2.924 2.981 6.593 5.049 9.865 7.604 1.443 1.084 2.79 2.29 4.09 3.535 2.783 2.217 6.222 3.803 9.83 3.806.314-.064.633-.135.912-.3" overflow="visible" style="isolation:auto;mix-blend-mode:normal"/><path fill="#cfd8dc" d="M243.956 141.647c1.73-2.62 1.978-5.88 1.874-8.934-.32-11.8-2.348-23.513-5.489-34.876-1.77-5.318-3.64-10.617-4.865-16.095-.477-2.035-1.099-4.037-1.967-5.94-1.55-3.636-2.954-7.335-4.074-11.126-.936-3.098-2.229-6.095-3.962-8.833-2.208-3.87-3.683-8.093-5.275-12.238-2.149-4.564-5.431-8.473-8.864-12.122-2.924-2.95-6.419-5.564-10.528-6.527-6.438-1.48-13.71 1.004-17.65 6.364-3.35 4.437-4.463 10.304-3.574 15.735.423 3.343.783 6.7.932 10.064.584 1.788 1.697 3.334 2.482 5.032 4.073 7.734 7.716 15.69 11.994 23.315 3.433 6.206 7.246 12.212 11.583 17.828 4.05 5.478 7.86 11.132 12.018 16.527 2.513 2.815 5.783 4.78 9.009 6.666 2.702 1.858 4.637 4.612 6.088 7.51 1.46 2.519 3.027 5.18 5.608 6.696a8.8 8.8 0 0 0 4.512 1.125z" overflow="visible" style="isolation:auto;mix-blend-mode:normal"/><path fill="#37474f" d="M243.743 141.499c.934-2.476.396-5.168-.132-7.67-2.529-12.284-5.872-24.425-10.485-36.098-1.454-3.853-2.83-7.742-4.522-11.498-1.92-2.913-4.458-5.524-5.496-8.931-.855-3.52-.504-7.319-2.082-10.656-2.177-4.238-5.467-7.9-6.939-12.493-.767-2.954-.848-6.135-2.339-8.865-3.07-3.559-7.024-6.384-9.413-10.506-1.746-2.812-3.185-5.958-5.831-8.066-3.342-2.364-8.621-1.026-10.392 2.677-1.397 2.648-1.301 5.761-.949 8.65.68 5.352 2.078 10.622 4.2 15.583 2.362 4.088 6.595 6.744 8.724 10.992 1.198 2.303.926 5.028 1.954 7.39 1.026 2.889 3.14 5.22 4.303 8.042 1.524 3.933 1.596 8.356 3.743 12.06 3.728 6.561 7.265 13.288 11.965 19.228 2.473 3.444 4.441 7.213 6.669 10.814 1.628 2.684 3.411 5.278 5.43 7.685 2.91 3.718 5.71 7.595 9.312 10.69.672.492 1.394.933 2.19 1.196z" overflow="visible" style="isolation:auto;mix-blend-mode:normal"/><path fill="#cfd8dc" d="M243.435 141.151c-1.92-7.409-6.008-13.995-8.45-21.216a1618 1618 0 0 0-15.442-38.426c-1.33-3.806-2.935-7.529-5.016-10.988-1.597-2.806-3.574-5.367-5.331-8.068a12.8 12.8 0 0 1-1.823-4.717c-.593-2.726-1.051-5.558-2.498-7.993-2.527-5.13-5.302-10.134-8.15-15.09-1.696-2.802-3.593-5.505-5.896-7.844-1.103-.538-2.41.84-1.9 1.928.337 2.665 1.526 5.11 2.241 7.678 3.284 9.647 7.554 18.927 12.247 27.962 1.781 3.821 3.283 7.86 6.002 11.145 1.93 2.542 3.464 5.482 3.88 8.681.345 1.913 1.089 3.731 2.083 5.396.954 1.685 1.89 3.41 3.169 4.876 1.706 1.883 3.895 3.493 4.8 5.957 1.085 3.08.626 6.57 2.25 9.481 4.547 8.392 8.954 16.868 13.892 25.04a181 181 0 0 0 3.933 6.209l.009-.01z" overflow="visible" style="isolation:auto;mix-blend-mode:normal"/></g><g color="#000"><path fill="#cfd8dc" d="M54.822 96.904q-40.02-4.726-34.625-36.37 5.396-31.64 45.416-26.914c38.68 4.568 83.113 31.336 81.315 41.884-1.799 10.547-53.426 25.97-92.106 21.401z" overflow="visible" style="isolation:auto;mix-blend-mode:normal"/><path fill="#37474f" d="M145.83 75.44c-1.068 2.185-3.489 3.655-5.967 4.645-5.226 2.092-11.042 2.77-16.74 3.347-5.041.384-10.218.063-15.121 1.296-3.54 1.15-6.502 3.389-10.279 4.057-5.96.686-12.072.116-17.958 1.296-5.247.716-10.709.555-15.8-.77-2.89-.62-5.961-1.071-8.911-.458a17.4 17.4 0 0 1-7.114-.447c-7.597-1.574-14.93-4.453-20.697-8.92-5.45-4.504-8.05-11.28-6.65-17.575.52-2.76 1.3-5.626 3.41-7.873.354-.449.885-.75 1.382-1.074.087-.451-.16-.941.166-1.356 1.238-2.638 3.731-4.72 6.444-6.356 1.052-.61 2.238-1.137 3.54-1.216.68-1.341 2.253-2.221 3.905-2.57 3.648-1.057 7.548-1.206 11.37-1.363 3.709-.068 7.458.059 11.08.765 1.009.328 2.205.616 3.224.153 1.504-.382 3.029.15 4.522.307 6.69 1.077 13.14 2.944 19.676 4.513 1.753.42 3.493.958 4.97 1.868 2.491 1.397 4.831 2.995 7.515 4.139 7.185 3.342 15.535 4.32 22.81 7.496 3.705 1.603 6.755 4.02 10.155 6.003 1.458.885 3.005 1.663 4.577 2.396 2.932 1.675 5.454 4.027 6.511 6.897.031.266.056.538-.02.8" overflow="visible" style="isolation:auto;mix-blend-mode:normal"/><path fill="#cfd8dc" d="M146.73 75.166c-1.248-2.398-3.842-4.053-6.456-5.371-10.055-5.147-20.97-9.064-32.202-12.047-5.42-1.186-10.88-2.293-16.136-3.933-1.964-.594-3.981-1.072-6.05-1.333-3.89-.574-7.756-1.28-11.542-2.224-3.106-.758-6.322-1.22-9.562-1.258-4.449-.223-8.79-1.117-13.13-1.894-4.997-.58-10.065-.07-14.997.661-4.068.695-8.169 1.94-11.221 4.366-4.76 3.813-6.656 10.01-4.323 15.196 1.884 4.353 6.187 7.798 11.221 9.65 3.03 1.227 6.038 2.504 8.936 3.932 1.817.406 3.72.334 5.57.56 8.702.68 17.356 1.763 26.08 2.252 7.073.431 14.186.507 21.26.04 6.8-.329 13.617-.41 20.409-.853 3.73-.47 7.165-1.855 10.507-3.244 3.032-1.038 6.397-1.133 9.617-.826 2.906.13 5.992.248 8.672-.86 1.395-.6 2.581-1.524 3.41-2.633l-.063-.18z" overflow="visible" style="isolation:auto;mix-blend-mode:normal"/><path fill="#37474f" d="M146.459 75.429c-2.095 1.345-4.827 1.572-7.374 1.76-12.487.975-25.075 1.267-37.586.434-4.11-.22-8.232-.37-12.318-.802-3.347-.82-6.585-2.205-10.147-2.202-3.616.175-7.147 1.378-10.8.934-4.689-.702-9.153-2.43-13.974-2.485-3.05.109-6.116.818-9.162.295-4.301-1.579-8.158-4.038-12.799-4.936-3.199-.707-6.629-1.086-9.417-2.68-3.238-2.085-3.501-6.613-.477-8.923 2.124-1.756 5.129-2.437 7.994-2.859 5.318-.761 10.766-.93 16.131-.447 4.6.885 8.377 3.609 13.062 4.27 2.552.393 5.079-.486 7.637-.242 3.064.114 5.91 1.23 8.949 1.469 4.207.257 8.458-.762 12.627.046 7.365 1.371 14.832 2.55 21.886 4.846 4.017 1.131 8.196 1.781 12.29 2.678 3.043.643 6.045 1.432 8.937 2.453 4.407 1.413 8.932 2.698 12.944 4.812.668.415 1.3.883 1.785 1.452z" overflow="visible" style="isolation:auto;mix-blend-mode:normal"/><path fill="#cfd8dc" d="M146.03 75.304c-7.253-2.034-15.003-2.182-22.384-3.767a1910 1910 0 0 0-40.617-6.725c-3.914-.806-7.908-1.381-11.943-1.505-3.222-.164-6.447.048-9.67.043-1.699-.02-3.388-.307-4.946-.876-2.606-.827-5.228-1.797-8.058-1.897-5.677-.573-11.384-.917-17.091-1.187-3.273-.093-6.574-.002-9.791.539-1.054.524-.614 2.061.576 2.2 2.415.98 5.113 1.263 7.653 1.933 9.873 2.102 19.978 3.35 30.11 4.19 4.172.499 8.375 1.29 12.612.89 3.184-.188 6.484.08 9.39 1.247 1.79.63 3.72.939 5.657 1.004 1.932.102 3.89.235 5.815.01 2.51-.332 5.054-1.124 7.612-.633 3.172.645 5.843 2.553 9.169 2.746 9.512.65 19.018 1.437 28.56 1.714 2.45.068 4.9.1 7.35.085z" overflow="visible" style="isolation:auto;mix-blend-mode:normal"/></g><g color="#000"><path fill="#cfd8dc" d="M83.27 314.087q-26.735 17.01-48.458-9.273c-21.723-26.283-12.81-31.954 5.013-43.294 25.84-16.44 72.41-19.333 79.65-10.572s-10.364 46.699-36.204 63.139z" overflow="visible" style="isolation:auto;mix-blend-mode:normal"/><path fill="#37474f" d="M118.795 251.464c1.099 2.171.86 4.506.21 6.512-1.365 4.235-4.179 7.722-7.005 11.072-2.6 2.871-5.83 5.287-7.684 8.718-1.135 2.67-1.082 5.853-2.73 8.286-2.892 3.567-6.856 6.277-9.317 10.173-2.457 3.223-5.726 5.904-9.696 7.53-2.15 1.022-4.27 2.26-5.486 4.23-1.094 1.47-2.633 2.62-4.444 3.316-5.607 2.725-12.085 4.347-18.907 3.985-6.671-.553-13.483-4.256-17.617-9.653-1.866-2.318-3.665-4.848-4.215-7.6-.148-.514-.079-1.01-.048-1.506-.303-.38-.83-.618-.968-1.094-1.357-2.594-1.556-5.42-1.279-8.027.127-.994.396-1.994 1.083-2.72-.662-1.345-.447-2.806.23-3.913 1.27-2.655 3.397-4.766 5.474-6.843 2.08-1.952 4.337-3.78 6.975-5.113.838-.274 1.752-.674 1.975-1.54.566-1.055 1.86-1.442 2.843-2.09 4.695-2.631 9.87-4.552 14.862-6.737 1.338-.588 2.761-1.08 4.326-1.16 2.529-.24 5.129-.252 7.57-.779 6.757-1.2 12.33-4.755 19.007-6.126 3.39-.709 7.041-.476 10.553-.746 1.533-.09 3.034-.305 4.513-.566 3.002-.26 6.298.195 9.159 1.786.226.182.454.371.616.605" overflow="visible" style="isolation:auto;mix-blend-mode:normal"/><path fill="#cfd8dc" d="M119.098 250.8c-2.6-1.143-5.391-1.043-7.93-.682-9.823 1.331-19.177 4.017-27.98 7.56-4.05 1.898-8.06 3.875-12.37 5.352-1.597.566-3.132 1.245-4.527 2.112-2.69 1.569-5.467 3.027-8.387 4.267-2.381 1.03-4.595 2.335-6.489 3.968-2.734 2.116-5.933 3.678-9.04 5.326-3.33 2.132-5.847 5.109-8.111 8.182-1.795 2.602-3.178 5.631-3.031 8.999.253 5.275 4.025 10.853 9.436 13.51 4.499 2.27 9.678 2.623 14.028 1.418 2.706-.642 5.438-1.235 8.226-1.66 1.364-.63 2.403-1.66 3.644-2.441 5.542-3.956 11.37-7.59 16.773-11.7 4.409-3.307 8.561-6.898 12.265-10.873 3.655-3.731 7.513-7.289 11.073-11.1 1.778-2.263 2.668-5.053 3.5-7.8.931-2.326 2.792-4.122 4.887-5.545 1.773-1.394 3.642-2.888 4.314-5.087.333-1.16.29-2.456-.103-3.705z" overflow="visible" style="isolation:auto;mix-blend-mode:normal"/><path fill="#37474f" d="M119.147 251.133c-.15 2.074-1.544 3.644-2.861 5.09-6.42 7.128-13.434 13.8-21.286 19.598-2.537 1.944-5.027 3.946-7.717 5.72-2.57 1.107-5.52 1.738-7.567 3.567-1.943 1.985-3.03 4.69-5.48 6.233-3.25 1.883-7.174 2.888-9.99 5.32-1.67 1.644-2.878 3.744-5.041 4.917-3.714 1.033-7.863 1.183-11.238 2.895-2.395 1.115-4.666 2.592-7.521 2.838-3.499.11-7.203-3.12-7.276-6.387-.155-2.394 1.04-4.442 2.358-6.224a38.4 38.4 0 0 1 8.93-8.605c3.34-1.7 7.651-1.614 10.866-3.525 1.777-1.016 2.54-2.966 4.204-4.097 1.853-1.486 4.366-2.117 6.302-3.497 2.622-1.967 4.269-4.904 7.302-6.441 5.314-2.758 10.535-5.711 16.395-7.622 3.199-1.22 6.113-2.88 9.173-4.313 2.255-1.082 4.601-2.035 7.066-2.76 3.645-1.21 7.257-2.575 11.224-3.062.71-.033 1.441-.01 2.166.164z" overflow="visible" style="isolation:auto;mix-blend-mode:normal"/><path fill="#cfd8dc" d="M118.803 251.26c-5.77 2.208-10.345 6.072-15.835 8.68a1157 1157 0 0 0-28.647 15.83c-2.885 1.409-5.634 3.03-8.053 5.007-1.982 1.53-3.672 3.342-5.53 4.991a9.2 9.2 0 0 1-3.533 1.886c-2.149.721-4.419 1.345-6.126 2.722-3.716 2.485-7.269 5.156-10.765 7.883-1.956 1.609-3.784 3.37-5.211 5.421-.195.93 1.264 1.847 2.059 1.34 2.157-.51 3.932-1.683 5.92-2.488 7.33-3.501 14.123-7.756 20.612-12.326 2.791-1.77 5.83-3.338 7.955-5.807 1.684-1.773 3.794-3.266 6.381-3.889 1.524-.45 2.877-1.21 4.043-2.155 1.191-.916 2.422-1.82 3.354-2.974 1.183-1.534 2.026-3.428 3.883-4.375 2.331-1.147 5.365-1.099 7.43-2.661 5.984-4.395 12.07-8.685 17.779-13.373a121 121 0 0 0 4.295-3.705z" overflow="visible" style="isolation:auto;mix-blend-mode:normal"/></g><g color="#000"><path fill="#cfd8dc" d="M389.316 471.362q-35.104 20.04-54.14-13.31-19.038-33.348 16.066-53.388c33.928-19.368 88.75-21.185 95.096-10.07 6.346 11.117-23.094 57.4-57.022 76.768" overflow="visible" style="isolation:auto;mix-blend-mode:normal"/><path fill="#37474f" d="M445.424 395.208c.765 2.729-.066 5.608-1.294 8.067-2.59 5.19-6.685 9.397-10.763 13.437-3.701 3.455-8.029 6.322-10.995 10.498-1.95 3.262-2.642 7.202-5.134 10.15-4.204 4.305-9.454 7.51-13.237 12.238-3.618 3.895-8.053 7.09-13.052 8.952-2.74 1.182-5.499 2.636-7.378 5.026a14.6 14.6 0 0 1-5.95 3.936c-7.164 3.16-15.078 4.922-22.923 4.216-7.625-.937-14.668-5.778-18.197-12.612-1.622-2.94-3.115-6.138-3.103-9.565-.05-.642.147-1.253.3-1.866-.262-.482-.819-.795-.866-1.39-.964-3.262-.527-6.767.412-9.983.381-1.224.931-2.451 1.901-3.325-.45-1.689.145-3.489 1.194-4.833 2.104-3.238 5.076-5.77 7.981-8.262 2.88-2.337 5.936-4.514 9.318-6.063 1.039-.308 2.196-.768 2.66-1.832.908-1.284 2.504-1.713 3.8-2.479 6.08-3.078 12.551-5.259 18.87-7.774 1.694-.677 3.466-1.232 5.304-1.273 2.996-.2 6.022-.117 8.985-.676 8.138-1.23 15.458-5.418 23.544-6.862 4.109-.75 8.299-.323 12.445-.525 1.804-.053 3.6-.262 5.38-.53 3.552-.207 7.276.48 10.225 2.558.22.234.44.476.573.772" overflow="visible" style="isolation:auto;mix-blend-mode:normal"/><path fill="#cfd8dc" d="M445.934 394.397c-2.752-1.513-6.02-1.495-9.057-1.144-11.735 1.276-23.244 4.247-34.316 8.299-5.157 2.194-10.286 4.49-15.647 6.154-1.99.64-3.935 1.422-5.762 2.443-3.497 1.838-7.07 3.538-10.758 4.962-3.013 1.184-5.894 2.716-8.483 4.665-3.68 2.515-7.767 4.327-11.77 6.25-4.375 2.512-8.004 6.1-11.363 9.818-2.703 3.153-5.026 6.849-5.652 11.022-.953 6.537 2.112 13.583 7.774 17.077 4.694 2.978 10.631 3.612 15.973 2.285 3.297-.692 6.614-1.323 9.955-1.744 1.736-.728 3.186-1.962 4.815-2.882 7.377-4.687 15.012-8.963 22.266-13.845 5.907-3.925 11.584-8.213 16.83-12.99 5.13-4.48 10.457-8.737 15.497-13.32 2.603-2.732 4.297-6.151 5.914-9.519 1.632-2.843 4.22-4.996 6.992-6.677 2.391-1.659 4.917-3.437 6.219-6.132a8.8 8.8 0 0 0 .756-4.59z" overflow="visible" style="isolation:auto;mix-blend-mode:normal"/><path fill="#37474f" d="M445.912 394.812c-.664 2.56-2.656 4.45-4.53 6.19-9.149 8.578-18.881 16.57-29.38 23.448-3.41 2.31-6.777 4.693-10.325 6.787-3.248 1.272-6.827 1.942-9.64 4.128-2.727 2.382-4.631 5.689-7.844 7.506-4.223 2.207-9.023 3.302-12.873 6.205-2.33 1.972-4.23 4.525-7.023 5.895-4.561 1.137-9.42 1.166-13.748 3.157-3.048 1.29-6.038 3.031-9.415 3.227-4.094.006-7.636-4.132-6.947-8.18.385-2.967 2.258-5.456 4.212-7.612 3.64-3.982 7.822-7.481 12.417-10.311 4.286-1.978 9.276-1.708 13.465-3.951 2.306-1.19 3.656-3.574 5.857-4.91 2.505-1.77 5.576-2.455 8.153-4.09 3.513-2.335 6.122-5.908 10.012-7.695 6.83-3.212 13.597-6.67 20.862-8.812 4.007-1.388 7.788-3.332 11.684-4.99 2.878-1.254 5.83-2.345 8.868-3.148 4.522-1.36 9.044-2.913 13.771-3.365.834-.015 1.678.041 2.48.285z" overflow="visible" style="isolation:auto;mix-blend-mode:normal"/><path fill="#cfd8dc" d="M445.482 394.956c-7.23 2.514-13.462 7.123-20.461 10.142a1618 1618 0 0 0-37.048 18.508c-3.686 1.633-7.265 3.535-10.545 5.89-2.667 1.82-5.059 3.997-7.61 5.967a12.8 12.8 0 0 1-4.552 2.2c-2.67.812-5.455 1.498-7.765 3.137-4.908 2.935-9.67 6.107-14.38 9.348-2.654 1.917-5.195 4.027-7.34 6.512-.446 1.143 1.033 2.334 2.077 1.737 2.629-.551 4.97-1.935 7.47-2.856 9.35-4.055 18.253-9.064 26.878-14.474 3.663-2.084 7.567-3.91 10.621-6.885 2.377-2.13 5.183-3.898 8.338-4.57 1.878-.5 3.63-1.39 5.21-2.515 1.601-1.088 3.245-2.16 4.603-3.554 1.737-1.854 3.165-4.165 5.548-5.267 2.981-1.331 6.497-1.157 9.267-3.012 7.995-5.212 16.086-10.292 23.83-15.876a181 181 0 0 0 5.87-4.424z" overflow="visible" style="isolation:auto;mix-blend-mode:normal"/></g><g color="#000"><path fill="#cfd8dc" d="M436.163 313.741q23.157 23.547-3.227 49.493-26.384 25.945-49.54 2.398c-22.38-22.758-32.582-68.315-23.788-76.964s54.175 2.315 76.555 25.073" overflow="visible" style="isolation:auto;mix-blend-mode:normal"/><path fill="#37474f" d="M360.292 289.254c2.283-1.456 4.95-1.616 7.307-1.316 4.977.631 9.325 2.821 13.523 5.047 3.623 2.082 6.828 4.867 10.97 6.117 3.18.668 6.758.075 9.746 1.292 4.45 2.253 8.096 5.712 12.854 7.484 3.998 1.882 7.507 4.66 9.932 8.308 1.471 1.952 3.184 3.838 5.584 4.706a10.2 10.2 0 0 1 4.4 3.831c3.907 5.082 6.7 11.212 7.31 18.02.37 6.69-2.788 14.055-8.253 19.059-2.335 2.24-4.917 4.448-7.937 5.46-.558.233-1.127.249-1.691.302-.383.365-.572.926-1.088 1.143-2.722 1.783-5.877 2.46-8.856 2.629-1.139.044-2.306-.053-3.227-.608-1.417.882-3.095.918-4.444.437-3.182-.805-5.878-2.55-8.529-4.25-2.51-1.725-4.907-3.646-6.801-6.028-.434-.782-1.02-1.619-2.03-1.692-1.274-.38-1.903-1.594-2.78-2.456-3.665-4.196-6.6-8.987-9.808-13.552-.861-1.222-1.628-2.546-1.953-4.08-.646-2.46-1.048-5.029-2.005-7.354-2.36-6.477-7.197-11.384-9.738-17.753-1.304-3.231-1.586-6.882-2.414-10.308-.33-1.5-.795-2.949-1.31-4.367-.74-2.924-.72-6.26.648-9.36.17-.254.35-.512.59-.711" overflow="visible" style="isolation:auto;mix-blend-mode:normal"/><path fill="#cfd8dc" d="M359.497 289.067c-.9 2.765-.371 5.508.414 7.956 2.965 9.488 7.387 18.28 12.692 26.383 2.742 3.682 5.569 7.312 7.876 11.324.875 1.482 1.87 2.885 3.055 4.117 2.168 2.393 4.226 4.891 6.058 7.568 1.515 2.18 3.316 4.147 5.44 5.742 2.792 2.345 5.029 5.243 7.35 8.035 2.899 2.93 6.629 4.913 10.43 6.63 3.2 1.333 6.82 2.185 10.594 1.468 5.907-1.146 11.63-5.824 13.82-11.626 1.886-4.834 1.513-10.016-.494-14.112-1.127-2.567-2.203-5.168-3.098-7.852-.913-1.242-2.227-2.094-3.294-3.19-5.284-4.806-10.248-9.952-15.686-14.596-4.384-3.798-9.05-7.294-14.082-10.282-4.75-2.979-9.334-6.19-14.16-9.063-2.816-1.374-6.093-1.78-9.312-2.136-2.76-.525-5.062-2.06-6.978-3.89-1.836-1.516-3.798-3.11-6.376-3.401-1.358-.132-2.812.13-4.16.731z" overflow="visible" style="isolation:auto;mix-blend-mode:normal"/><path fill="#37474f" d="M359.866 288.961c2.36-.204 4.337.908 6.163 1.965 8.99 5.137 17.555 10.94 25.26 17.719 2.569 2.178 5.196 4.3 7.597 6.659 1.63 2.352 2.781 5.162 5.148 6.875 2.526 1.584 5.737 2.2 7.841 4.36 2.607 2.893 4.324 6.604 7.485 8.976 2.102 1.371 4.648 2.21 6.294 4.148 1.717 3.497 2.504 7.574 4.937 10.62 1.614 2.18 3.617 4.174 4.32 6.956.646 3.44-2.442 7.652-6.115 8.279-2.674.56-5.16-.273-7.365-1.273-4.079-1.875-7.816-4.349-11.03-7.37-2.414-3.014-2.959-7.29-5.592-10.145-1.41-1.584-3.72-2.008-5.243-3.461-1.951-1.58-3.037-3.958-4.881-5.637-2.607-2.259-6.163-3.388-8.348-6.126-3.9-4.786-8.007-9.447-11.034-14.917-1.85-2.956-4.156-5.556-6.228-8.338-1.556-2.046-2.98-4.204-4.163-6.519-1.907-3.398-3.984-6.737-5.124-10.578-.144-.696-.227-1.423-.138-2.17z" overflow="visible" style="isolation:auto;mix-blend-mode:normal"/><path fill="#cfd8dc" d="M360.06 289.28c3.35 5.33 8.386 9.197 12.143 14.183 7.249 8.655 14.61 17.21 22.112 25.638 2.017 2.613 4.254 5.056 6.842 7.112 2.021 1.7 4.314 3.063 6.45 4.62a8.9 8.9 0 0 1 2.651 3.174c1.134 2.002 2.176 4.14 3.982 5.594 3.354 3.253 6.895 6.312 10.488 9.306 2.105 1.661 4.362 3.169 6.887 4.232 1.076.035 1.893-1.564 1.203-2.264-.897-2.046-2.483-3.602-3.687-5.43-5.038-6.654-10.846-12.648-16.964-18.288-2.41-2.46-4.63-5.199-7.73-6.88-2.25-1.364-4.246-3.197-5.333-5.65-.735-1.43-1.793-2.638-3.032-3.63-1.21-1.023-2.412-2.086-3.852-2.812-1.905-.91-4.165-1.42-5.51-3.096-1.64-2.11-2.038-5.119-4.106-6.895-5.845-5.17-11.588-10.46-17.721-15.308a127 127 0 0 0-4.817-3.618z" overflow="visible" style="isolation:auto;mix-blend-mode:normal"/></g><g color="#000"><path fill="#cfd8dc" d="M187.865 265.063q-32.982-23.368-10.782-54.7 22.2-31.334 55.18-7.965c31.878 22.585 56.662 71.518 49.262 81.963s-61.783 3.287-93.66-19.298" overflow="visible" style="isolation:auto;mix-blend-mode:normal"/><path fill="#37474f" d="M280.584 283.791c-2.151 1.845-5.112 2.307-7.86 2.231-5.797-.158-11.34-2.095-16.724-4.087-4.694-1.897-9.12-4.61-14.157-5.538-3.78-.39-7.644.645-11.37-.37-5.676-1.995-10.797-5.402-16.68-6.836-5.058-1.636-9.825-4.308-13.624-8.054-2.228-1.986-4.71-3.873-7.67-4.568a14.6 14.6 0 0 1-6.08-3.734c-5.888-5.16-10.825-11.592-13.496-19.002-2.368-7.307-.952-15.736 3.755-21.82 1.98-2.71 4.25-5.414 7.362-6.849.56-.317 1.198-.395 1.819-.515.325-.442.375-1.079.893-1.372 2.551-2.251 5.913-3.334 9.225-3.84 1.271-.17 2.615-.19 3.817.32 1.34-1.121 3.223-1.34 4.885-.957 3.824.541 7.373 2.166 10.858 3.75 3.334 1.624 6.598 3.475 9.43 5.887.717.813 1.622 1.668 2.783 1.64 1.547.28 2.61 1.546 3.851 2.398 5.356 4.213 10.064 9.16 15.012 13.827 1.328 1.25 2.579 2.621 3.392 4.27 1.446 2.633 2.647 5.41 4.405 7.861 4.55 6.86 11.435 11.727 16.157 18.449 2.413 3.408 3.795 7.387 5.727 11.06.81 1.613 1.757 3.153 2.752 4.655 1.686 3.132 2.635 6.798 1.996 10.349-.119.298-.246.6-.458.845" overflow="visible" style="isolation:auto;mix-blend-mode:normal"/><path fill="#cfd8dc" d="M281.534 283.91c.21-3.132-1.186-6.088-2.785-8.692-6.11-10.1-13.66-19.282-22.005-27.609-4.166-3.749-8.412-7.43-12.184-11.588-1.42-1.533-2.95-2.967-4.645-4.193-3.143-2.394-6.192-4.916-9.04-7.659-2.344-2.231-4.949-4.197-7.809-5.721-3.832-2.274-7.2-5.216-10.633-8.033-4.123-2.906-8.909-4.682-13.697-6.159-3.998-1.119-8.33-1.666-12.377-.472-6.329 1.895-11.423 7.647-12.2 14.255-.72 5.512 1.212 11.162 4.669 15.445 2.018 2.697 3.99 5.438 5.782 8.29 1.392 1.265 3.123 2.06 4.645 3.148 7.362 4.71 14.46 9.827 21.948 14.343 6.052 3.699 12.334 7.036 18.88 9.775 6.227 2.76 12.333 5.794 18.615 8.43 3.575 1.205 7.39 1.298 11.125 1.343 3.267.28 6.311 1.718 9.005 3.52 2.513 1.47 5.19 3.009 8.184 3.051a8.8 8.8 0 0 0 4.479-1.251z" overflow="visible" style="isolation:auto;mix-blend-mode:normal"/><path fill="#37474f" d="M281.149 284.067c-2.602.478-5.156-.53-7.524-1.495-11.638-4.674-22.99-10.125-33.656-16.74-3.533-2.117-7.115-4.163-10.51-6.496-2.525-2.408-4.642-5.37-7.811-6.997-3.311-1.468-7.112-1.799-10.116-3.945-3.783-2.896-6.801-6.786-11.058-9.051-2.771-1.28-5.887-1.926-8.308-3.879-2.956-3.655-5.032-8.048-8.664-11.132-2.456-2.219-5.296-4.194-6.9-7.173-1.732-3.71.525-8.667 4.484-9.75 2.854-.903 5.9-.256 8.68.605 5.146 1.62 10.083 3.935 14.588 6.906 3.602 3.05 5.463 7.69 9.264 10.54 2.053 1.588 4.783 1.806 6.924 3.237 2.66 1.525 4.578 4.02 7.148 5.666 3.6 2.2 7.94 3.057 11.201 5.829 5.795 4.836 11.785 9.513 16.794 15.195 2.949 3.047 6.307 5.654 9.455 8.486 2.351 2.08 4.586 4.297 6.596 6.711 3.141 3.526 6.457 6.97 8.862 11.065.365.75.67 1.539.788 2.368z" overflow="visible" style="isolation:auto;mix-blend-mode:normal"/><path fill="#cfd8dc" d="M280.836 283.737c-5.33-5.493-12.138-9.198-17.829-14.27a1618 1618 0 0 0-32.413-25.775c-3.037-2.653-6.272-5.095-9.791-7.075-2.775-1.65-5.759-2.9-8.621-4.38a12.8 12.8 0 0 1-3.916-3.2c-1.862-2.076-3.66-4.313-6.121-5.715-4.732-3.21-9.617-6.19-14.543-9.09-2.859-1.599-5.843-3.012-9.002-3.907-1.224.077-1.68 1.921-.698 2.615 1.61 2.15 3.852 3.69 5.742 5.568 7.622 6.764 15.92 12.722 24.465 18.258 3.436 2.442 6.738 5.21 10.724 6.723 2.935 1.256 5.721 3.054 7.663 5.63 1.245 1.492 2.79 2.706 4.478 3.662 1.662.993 3.329 2.031 5.164 2.673 2.414.794 5.112 1.112 7.117 2.808 2.465 2.14 3.79 5.401 6.641 7.13 8.1 5.049 16.12 10.24 24.45 14.904 2.14 1.193 4.301 2.35 6.488 3.455z" overflow="visible" style="isolation:auto;mix-blend-mode:normal"/></g><g color="#000"><path fill="#cfd8dc" d="M382.615 267.356q-25.966-20.405-3.105-49.5 22.863-29.097 48.83-8.692c25.098 19.721 41.022 63.607 33.401 73.306s-54.028 4.607-79.126-15.114" overflow="visible" style="isolation:auto;mix-blend-mode:normal"/><path fill="#37474f" d="M460.99 281.976c-2.08 1.735-4.704 2.234-7.081 2.236-5.017.008-9.61-1.61-14.056-3.282-3.859-1.604-7.392-3.958-11.66-4.67-3.239-.257-6.712.786-9.831-.04-4.701-1.667-8.758-4.634-13.703-5.785-4.205-1.357-8.04-3.664-10.91-6.974-1.708-1.75-3.647-3.402-6.138-3.957a10.2 10.2 0 0 1-4.852-3.24c-4.523-4.541-8.074-10.266-9.546-16.94-1.22-6.588.974-14.296 5.757-19.956 2.03-2.519 4.31-5.038 7.177-6.426.523-.303 1.085-.39 1.638-.516.333-.41.45-.991.933-1.272 2.473-2.116 5.517-3.189 8.45-3.736 1.123-.189 2.293-.242 3.278.192 1.293-1.056 2.953-1.305 4.352-1 3.258.393 6.155 1.78 9 3.13 2.71 1.39 5.332 2.99 7.515 5.112.53.72 1.218 1.475 2.23 1.418 1.31.216 2.089 1.34 3.07 2.083 4.168 3.694 7.69 8.072 11.453 12.191 1.01 1.103 1.94 2.318 2.457 3.798.955 2.358 1.68 4.854 2.926 7.039 3.166 6.123 8.59 10.374 11.92 16.367 1.706 3.04 2.45 6.624 3.708 9.917.519 1.446 1.165 2.823 1.857 4.164 1.106 2.806 1.51 6.118.55 9.366-.138.274-.283.552-.495.781z" overflow="visible" style="isolation:auto;mix-blend-mode:normal"/><path fill="#cfd8dc" d="M461.8 282.06c.541-2.857-.333-5.51-1.424-7.838-4.149-9.033-9.655-17.191-15.95-24.551-3.189-3.303-6.455-6.543-9.254-10.228-1.057-1.359-2.222-2.624-3.555-3.695-2.455-2.097-4.814-4.312-6.973-6.734-1.78-1.97-3.818-3.69-6.127-5.002-3.068-1.97-5.656-4.56-8.314-7.033-3.249-2.537-7.201-4.028-11.19-5.247-3.344-.914-7.043-1.298-10.694-.106-5.713 1.89-10.795 7.258-12.226 13.292-1.255 5.035-.225 10.127 2.287 13.934 1.445 2.402 2.844 4.845 4.073 7.393 1.064 1.116 2.477 1.793 3.674 2.744 5.854 4.095 11.433 8.566 17.418 12.48 4.832 3.208 9.906 6.08 15.277 8.403 5.092 2.35 10.047 4.95 15.2 7.184 2.968 1.004 6.27.99 9.508.933 2.805.169 5.284 1.398 7.417 2.968 2.014 1.271 4.164 2.602 6.758 2.562 1.363-.042 2.771-.488 4.033-1.256z" overflow="visible" style="isolation:auto;mix-blend-mode:normal"/><path fill="#37474f" d="M461.448 282.212c-2.314.503-4.416-.348-6.362-1.163-9.572-3.95-18.807-8.614-27.312-14.356-2.826-1.833-5.702-3.603-8.384-5.637-1.917-2.125-3.417-4.766-5.982-6.164-2.708-1.249-5.97-1.45-8.333-3.325-2.954-2.537-5.13-5.998-8.567-7.949-2.26-1.092-4.892-1.599-6.771-3.313-2.149-3.249-3.45-7.192-6.25-9.904-1.879-1.955-4.12-3.679-5.17-6.348-1.08-3.33 1.446-7.901 5.008-8.99 2.582-.897 5.153-.387 7.468.324 4.284 1.34 8.306 3.316 11.878 5.903 2.78 2.682 3.865 6.855 6.84 9.35 1.6 1.392 3.946 1.519 5.641 2.765 2.137 1.318 3.517 3.539 5.56 4.97 2.874 1.908 6.544 2.575 9.06 5.012 4.478 4.25 9.145 8.35 12.845 13.39 2.212 2.696 4.83 4.98 7.24 7.476 1.803 1.831 3.49 3.79 4.96 5.935 2.324 3.127 4.81 6.175 6.43 9.839.23.672.406 1.382.413 2.134z" overflow="visible" style="isolation:auto;mix-blend-mode:normal"/><path fill="#cfd8dc" d="M461.215 281.92c-4-4.86-9.49-8.053-13.85-12.52a1123 1123 0 0 0-25.2-22.611c-2.333-2.335-4.863-4.473-7.692-6.183-2.22-1.428-4.669-2.488-6.986-3.76a8.9 8.9 0 0 1-3.034-2.81c-1.38-1.841-2.685-3.83-4.662-5.041-3.741-2.8-7.643-5.383-11.589-7.894-2.299-1.38-4.729-2.587-7.37-3.32-1.071.103-1.677 1.793-.905 2.398 1.151 1.916 2.923 3.257 4.35 4.917 5.844 5.957 12.369 11.163 19.156 15.977 2.704 2.133 5.255 4.566 8.543 5.84 2.405 1.066 4.619 2.629 6.01 4.923.911 1.325 2.114 2.389 3.47 3.215 1.33.86 2.658 1.761 4.179 2.298 2.005.659 4.312.878 5.859 2.369 1.895 1.884 2.673 4.817 4.951 6.315 6.456 4.384 12.826 8.899 19.528 12.925a127 127 0 0 0 5.238 2.975l.004-.012z" overflow="visible" style="isolation:auto;mix-blend-mode:normal"/></g><g color="#000"><path fill="#cfd8dc" d="M282.652 382.328q-35.105 20.038-54.141-13.31-19.038-33.35 16.067-53.388c33.928-19.368 88.75-21.186 95.095-10.07 6.346 11.117-23.093 57.4-57.021 76.768" overflow="visible" style="isolation:auto;mix-blend-mode:normal"/><path fill="#37474f" d="M338.76 306.174c.764 2.728-.066 5.608-1.295 8.067-2.59 5.189-6.685 9.397-10.763 13.437-3.7 3.454-8.028 6.322-10.995 10.497-1.95 3.263-2.641 7.202-5.134 10.152-4.204 4.304-9.453 7.508-13.236 12.237-3.618 3.894-8.053 7.09-13.052 8.952-2.74 1.182-5.5 2.635-7.379 5.026a14.6 14.6 0 0 1-5.95 3.935c-7.163 3.161-15.077 4.923-22.923 4.216-7.624-.936-14.667-5.777-18.196-12.612-1.622-2.939-3.115-6.137-3.103-9.564-.051-.642.147-1.253.3-1.867-.263-.481-.819-.795-.867-1.389-.963-3.263-.526-6.768.412-9.983.382-1.225.932-2.452 1.902-3.325-.451-1.69.144-3.489 1.193-4.833 2.105-3.238 5.076-5.77 7.982-8.262 2.88-2.337 5.936-4.515 9.317-6.063 1.04-.308 2.197-.768 2.66-1.832.909-1.284 2.504-1.714 3.8-2.48 6.08-3.077 12.552-5.258 18.871-7.773 1.694-.677 3.465-1.232 5.304-1.273 2.996-.2 6.022-.117 8.985-.676 8.138-1.23 15.458-5.419 23.544-6.863 4.108-.749 8.298-.323 12.445-.524 1.803-.053 3.599-.262 5.38-.53 3.551-.207 7.276.48 10.225 2.558.22.233.44.476.573.772" overflow="visible" style="isolation:auto;mix-blend-mode:normal"/><path fill="#cfd8dc" d="M339.27 305.362c-2.753-1.512-6.021-1.494-9.057-1.143-11.735 1.276-23.245 4.246-34.316 8.298-5.157 2.195-10.287 4.49-15.647 6.155-1.99.64-3.936 1.422-5.762 2.442-3.498 1.84-7.07 3.539-10.759 4.963-3.012 1.183-5.894 2.715-8.482 4.665-3.68 2.515-7.768 4.327-11.77 6.25-4.375 2.512-8.005 6.1-11.364 9.818-2.702 3.152-5.025 6.848-5.652 11.022-.952 6.537 2.113 13.583 7.775 17.077 4.693 2.977 10.631 3.611 15.973 2.285 3.297-.692 6.614-1.324 9.955-1.744 1.735-.728 3.186-1.962 4.815-2.883 7.377-4.686 15.012-8.962 22.265-13.845 5.907-3.925 11.584-8.212 16.83-12.99 5.131-4.48 10.458-8.736 15.498-13.319 2.602-2.732 4.296-6.151 5.914-9.519 1.632-2.844 4.22-4.996 6.991-6.678 2.392-1.658 4.918-3.436 6.22-6.132a8.8 8.8 0 0 0 .755-4.588l-.183-.134z" overflow="visible" style="isolation:auto;mix-blend-mode:normal"/><path fill="#37474f" d="M339.248 305.778c-.665 2.56-2.657 4.45-4.53 6.19-9.15 8.578-18.881 16.57-29.38 23.447-3.41 2.31-6.777 4.694-10.325 6.787-3.248 1.273-6.827 1.943-9.64 4.129-2.728 2.382-4.632 5.689-7.845 7.506-4.222 2.207-9.023 3.302-12.872 6.205-2.33 1.972-4.231 4.524-7.023 5.895-4.561 1.137-9.42 1.166-13.748 3.157-3.048 1.29-6.038 3.031-9.416 3.227-4.093.005-7.635-4.132-6.947-8.18.386-2.968 2.259-5.456 4.212-7.613 3.641-3.982 7.822-7.48 12.418-10.31 4.286-1.979 9.276-1.708 13.465-3.951 2.306-1.191 3.655-3.575 5.856-4.911 2.505-1.77 5.577-2.455 8.153-4.09 3.514-2.334 6.123-5.907 10.012-7.694 6.83-3.212 13.598-6.67 20.863-8.812 4.007-1.388 7.787-3.333 11.684-4.99 2.878-1.255 5.83-2.346 8.867-3.148 4.523-1.36 9.045-2.913 13.772-3.365.834-.015 1.678.041 2.48.284q-.03.12-.056.237" overflow="visible" style="isolation:auto;mix-blend-mode:normal"/><path fill="#cfd8dc" d="M338.818 305.922c-7.23 2.514-13.462 7.123-20.461 10.142a1618 1618 0 0 0-37.048 18.507c-3.686 1.634-7.266 3.536-10.545 5.89-2.667 1.82-5.06 3.998-7.61 5.968a12.8 12.8 0 0 1-4.553 2.2c-2.669.812-5.455 1.498-7.764 3.137-4.908 2.935-9.67 6.106-14.38 9.348-2.655 1.917-5.195 4.027-7.34 6.512-.447 1.143 1.033 2.333 2.076 1.736 2.63-.55 4.97-1.934 7.471-2.855 9.349-4.055 18.253-9.064 26.877-14.474 3.664-2.085 7.568-3.91 10.622-6.886 2.377-2.13 5.182-3.897 8.337-4.57 1.879-.5 3.631-1.389 5.21-2.514 1.602-1.088 3.246-2.161 4.603-3.554 1.738-1.854 3.166-4.165 5.548-5.267 2.982-1.331 6.497-1.157 9.267-3.012 7.996-5.213 16.087-10.292 23.831-15.877a181 181 0 0 0 5.87-4.423z" overflow="visible" style="isolation:auto;mix-blend-mode:normal"/></g><g color="#000"><path fill="#cfd8dc" d="M402.14 67.098q36.854 16.607 21.077 51.617t-52.628 18.403c-35.618-16.05-69.33-59.32-64.07-70.99 5.258-11.67 60.004-15.08 95.622.97z" overflow="visible" style="isolation:auto;mix-blend-mode:normal"/><path fill="#37474f" d="M307.551 66.506c1.758-2.223 4.575-3.245 7.286-3.697 5.72-.958 11.532-.12 17.198.802 4.97.962 9.835 2.775 14.956 2.72 3.786-.342 7.379-2.1 11.23-1.819 5.953.87 11.632 3.23 17.681 3.51 5.278.635 10.47 2.343 14.917 5.29 2.568 1.522 5.365 2.898 8.404 3.012a14.6 14.6 0 0 1 6.682 2.498c6.77 3.935 12.849 9.3 16.891 16.06 3.727 6.717 3.954 15.26.501 22.135-1.423 3.04-3.132 6.129-5.91 8.134-.49.42-1.1.618-1.687.855-.235.496-.161 1.13-.614 1.518-2.072 2.698-5.163 4.406-8.316 5.538-1.215.412-2.53.689-3.808.417-1.1 1.359-2.906 1.935-4.61 1.878-3.857.202-7.653-.712-11.377-1.597-3.583-.954-7.142-2.145-10.383-3.97-.86-.66-1.913-1.325-3.046-1.074-1.572.02-2.858-1.017-4.24-1.616-6.065-3.107-11.635-7.058-17.386-10.69-1.543-.972-3.033-2.078-4.148-3.54-1.924-2.306-3.636-4.802-5.831-6.87-5.78-5.859-13.473-9.316-19.397-15.006-3.022-2.883-5.14-6.522-7.742-9.757-1.104-1.427-2.329-2.757-3.593-4.04-2.256-2.75-3.89-6.167-3.945-9.774.06-.315.126-.636.287-.917" overflow="visible" style="isolation:auto;mix-blend-mode:normal"/><path fill="#cfd8dc" d="M306.596 66.57c.395 3.116 2.332 5.749 4.401 7.998 7.933 8.74 17.105 16.303 26.893 22.874 4.808 2.88 9.681 5.679 14.18 9.036 1.688 1.232 3.465 2.346 5.364 3.224 3.544 1.747 7.02 3.637 10.34 5.782 2.73 1.74 5.663 3.17 8.762 4.117 4.198 1.497 8.068 3.738 11.977 5.844 4.605 2.061 9.641 2.886 14.624 3.417 4.139.331 8.494.037 12.238-1.911 5.848-3.074 9.743-9.697 9.24-16.331-.353-5.547-3.332-10.723-7.546-14.263-2.499-2.26-4.96-4.57-7.266-7.026-1.608-.975-3.46-1.422-5.162-2.198-8.13-3.211-16.077-6.871-24.292-9.866-6.649-2.47-13.455-4.54-20.405-5.972-6.64-1.515-13.215-3.32-19.886-4.702-3.74-.498-7.502.143-11.177.815-3.26.353-6.523-.475-9.512-1.727-2.748-.96-5.672-1.956-8.617-1.424a8.8 8.8 0 0 0-4.156 2.088z" overflow="visible" style="isolation:auto;mix-blend-mode:normal"/><path fill="#37474f" d="M306.944 66.344c2.462-.968 5.162-.469 7.67.023 12.32 2.355 24.507 5.526 36.244 9.973 3.873 1.4 7.781 2.72 11.56 4.359 2.94 1.879 5.587 4.38 9.009 5.368 3.531.806 7.325.401 10.684 1.931 4.269 2.117 7.977 5.356 12.59 6.762 2.965.725 6.147.761 8.897 2.213 3.602 3.02 6.483 6.933 10.639 9.263 2.836 1.706 6.002 3.1 8.147 5.717 2.412 3.307 1.149 8.606-2.53 10.429-2.627 1.433-5.741 1.382-8.634 1.07-5.362-.602-10.65-1.926-15.642-3.979-4.12-2.302-6.837-6.498-11.115-8.566-2.319-1.165-5.04-.855-7.415-1.849-2.904-.986-5.265-3.067-8.103-4.189-3.954-1.469-8.378-1.478-12.111-3.572-6.615-3.635-13.391-7.076-19.397-11.691-3.479-2.425-7.275-4.339-10.907-6.515-2.707-1.59-5.326-3.337-7.76-5.32-3.76-2.859-7.676-5.603-10.822-9.16-.502-.666-.953-1.382-1.227-2.173z" overflow="visible" style="isolation:auto;mix-blend-mode:normal"/><path fill="#cfd8dc" d="M307.314 66.607c6.285 4.368 13.678 6.699 20.236 10.584a1618 1618 0 0 0 36.756 19.08c3.489 2.02 7.133 3.797 10.966 5.064 3.04 1.087 6.208 1.741 9.301 2.645a12.8 12.8 0 0 1 4.457 2.389c2.226 1.68 4.42 3.53 7.104 4.435 5.26 2.243 10.626 4.23 16.017 6.132 3.112 1.02 6.312 1.834 9.584 2.107 1.187-.311 1.28-2.208.183-2.7-1.992-1.803-4.487-2.882-6.703-4.363-8.778-5.177-18.065-9.432-27.513-13.226-3.84-1.737-7.613-3.821-11.815-4.541-3.122-.67-6.2-1.9-8.6-4.056-1.51-1.225-3.259-2.12-5.098-2.734-1.822-.656-3.656-1.355-5.581-1.633-2.521-.316-5.23-.111-7.523-1.39-2.83-1.629-4.756-4.574-7.886-5.724-8.918-3.401-17.784-6.958-26.856-9.937-2.329-.76-4.671-1.48-7.03-2.146v.014z" overflow="visible" style="isolation:auto;mix-blend-mode:normal"/></g><g color="#000"><path fill="#cfd8dc" d="M301.648 203.478q-32.887 2.27-36.262-25.497-3.375-27.768 29.512-30.038c31.786-2.194 73.507 13.594 74.632 22.85s-36.096 30.492-67.882 32.685" overflow="visible" style="isolation:auto;mix-blend-mode:normal"/><path fill="#37474f" d="M368.644 170.912c-.319 2.026-1.884 3.658-3.61 4.89-3.64 2.6-8.088 4.092-12.468 5.479-3.906 1.119-8.09 1.66-11.681 3.479-2.53 1.535-4.337 3.905-7.171 5.067-4.562 1.52-9.548 1.997-13.932 3.926-3.988 1.434-8.36 2.155-12.72 1.829-2.442-.074-4.986.025-7.178 1.01a13.16 13.16 0 0 1-5.75.739c-6.408-.146-12.921-1.442-18.576-4.335-5.413-2.976-9.113-8.332-9.526-13.907-.255-2.43-.329-4.99.8-7.234.172-.437.52-.776.837-1.131-.04-.397-.355-.775-.196-1.18.343-2.438 1.818-4.602 3.573-6.42.687-.685 1.5-1.319 2.514-1.591.214-1.248 1.25-2.244 2.476-2.8 2.638-1.472 5.695-2.213 8.69-2.947 2.924-.64 5.929-1.122 8.972-1.09.88.12 1.9.177 2.595-.378 1.101-.56 2.439-.348 3.662-.449 5.567-.135 11.135.439 16.698.746 1.492.081 3.002.266 4.395.808 2.313.797 4.556 1.788 6.961 2.34 6.508 1.714 13.369 1.234 19.907 2.791 3.327.782 6.33 2.359 9.507 3.511 1.37.524 2.786.943 4.21 1.32 2.731.963 5.3 2.567 6.833 4.843.089.221.175.449.178.684" overflow="visible" style="isolation:auto;mix-blend-mode:normal"/><path fill="#cfd8dc" d="M369.291 170.538c-1.57-1.845-4.027-2.845-6.42-3.555-9.22-2.798-18.826-4.415-28.457-5.187-4.586-.157-9.185-.24-13.75-.81-1.702-.196-3.418-.286-5.122-.182-3.225.123-6.461.13-9.693-.078-2.647-.156-5.31-.044-7.89.433-3.582.51-7.241.432-10.872.453-4.104.292-8 1.522-11.736 2.92-3.058 1.23-6.01 2.934-7.844 5.477-2.853 3.993-2.858 9.563.247 13.608 2.547 3.407 6.794 5.662 11.235 6.446 2.7.567 5.395 1.18 8.039 1.94 1.54.06 3.031-.3 4.554-.4 7.067-.788 14.193-1.228 21.23-2.183 5.716-.745 11.377-1.798 16.875-3.307 5.314-1.35 10.702-2.491 15.981-3.935 2.846-.986 5.235-2.704 7.55-4.412 2.154-1.359 4.8-1.97 7.428-2.214 2.337-.346 4.813-.73 6.671-2.095a6.13 6.13 0 0 0 2.068-2.775z" overflow="visible" style="isolation:auto;mix-blend-mode:normal"/><path fill="#37474f" d="M369.14 170.803c-1.337 1.474-3.449 2.096-5.423 2.657-9.669 2.792-19.584 5.02-29.709 6.278-3.313.459-6.619.98-9.964 1.253-2.854-.171-5.757-.84-8.582-.278-2.826.718-5.335 2.297-8.34 2.493-3.89.14-7.849-.629-11.686.083-2.393.571-4.653 1.657-7.196 1.69-3.794-.666-7.448-2.152-11.346-2.187-2.709-.098-5.52.118-8.119-.8-3.072-1.264-4.376-5.075-2.536-7.516 1.26-1.827 3.479-2.879 5.65-3.688a51.5 51.5 0 0 1 12.686-2.916c3.863.03 7.518 1.753 11.394 1.579 2.12-.067 3.91-1.212 6-1.407 2.457-.384 4.985.118 7.453-.157 3.4-.443 6.525-1.978 10.027-1.945 6.174.009 12.382-.163 18.532.682 3.46.331 6.932.227 10.397.346 2.57.07 5.141.268 7.682.682 3.837.51 7.738.891 11.431 2.06.63.248 1.246.546 1.767.954z" overflow="visible" style="isolation:auto;mix-blend-mode:normal"/><path fill="#cfd8dc" d="M368.77 170.765c-6.246-.59-12.429.502-18.667.314a1490 1490 0 0 0-33.844.663c-3.3-.07-6.607.068-9.838.597-2.595.367-5.102 1.054-7.66 1.557-1.352.25-2.761.272-4.134.033-2.268-.295-4.583-.708-6.851-.348-4.642.405-9.252 1.01-13.844 1.677-2.619.435-5.215 1.032-7.636 1.997-.71.612.011 1.85.99 1.782 2.152.453 4.36.27 6.538.441 8.339.236 16.656-.29 24.896-1.168 3.43-.232 6.955-.22 10.22-1.225 2.48-.662 5.162-.952 7.749-.416 1.572.254 3.177.214 4.73-.035 1.558-.218 3.142-.412 4.616-.905 1.91-.678 3.736-1.751 5.884-1.736 2.672.05 5.252 1.253 7.937.895 7.703-.942 15.433-1.767 23.07-3.032 1.958-.327 3.91-.685 5.85-1.083z" overflow="visible" style="isolation:auto;mix-blend-mode:normal"/></g><g color="#000"><path fill="#cfd8dc" d="M144.15 187.605q-7.185 32.234-43.303 24.183-36.117-8.05-28.932-40.285c6.945-31.154 39.647-64.473 51.686-61.79 12.039 2.684 27.493 46.738 20.549 77.892" overflow="visible" style="isolation:auto;mix-blend-mode:normal"/><path fill="#37474f" d="M123.48 110.605c2.463 1.126 4.046 3.277 5.075 5.42 2.174 4.52 2.699 9.362 3.112 14.095.22 4.173-.376 8.376.825 12.533 1.167 3.032 3.609 5.714 4.21 8.884.528 4.96-.395 9.9.702 14.857.593 4.379.168 8.834-1.577 12.852-.84 2.296-1.493 4.759-.917 7.245a10.2 10.2 0 0 1-.826 5.775c-2.142 6.042-5.77 11.717-11.155 15.928-5.414 3.946-13.313 5.297-20.484 3.428-3.149-.743-6.406-1.71-8.896-3.697-.5-.34-.821-.81-1.173-1.254-.514-.124-1.088.023-1.55-.292-2.976-1.317-5.26-3.598-7.02-6.007-.655-.932-1.208-1.964-1.242-3.04-1.511-.71-2.453-2.1-2.782-3.493-1.053-3.108-1.054-6.32-1.066-9.469.084-3.044.394-6.1 1.365-8.985.42-.79.804-1.736.316-2.624-.372-1.276.305-2.463.552-3.668 1.53-5.356 3.958-10.424 6.047-15.597.559-1.387 1.253-2.75 2.364-3.856 1.714-1.88 3.653-3.613 5.085-5.68 4.154-5.5 5.645-12.227 9.612-17.82 2.004-2.851 4.915-5.072 7.342-7.628 1.08-1.093 2.043-2.27 2.954-3.474 2.053-2.21 4.865-4.005 8.21-4.541.306.005.62.016.917.108" overflow="visible" style="isolation:auto;mix-blend-mode:normal"/><path fill="#cfd8dc" d="M123.205 109.837c-2.81.746-4.825 2.68-6.454 4.67-6.354 7.645-11.333 16.135-15.252 24.991-1.601 4.303-3.112 8.648-5.227 12.764-.768 1.54-1.406 3.138-1.796 4.802-.83 3.12-1.81 6.205-3.061 9.198-1.007 2.457-1.68 5.038-1.866 7.687-.45 3.618-1.668 7.07-2.75 10.537-.886 4.026-.523 8.234.1 12.358.621 3.411 1.872 6.913 4.525 9.691 4.172 4.336 11.209 6.6 17.27 5.285 5.082-1.044 9.23-4.173 11.578-8.083 1.542-2.34 3.14-4.657 4.908-6.867.547-1.441.548-3.008.888-4.498 1.164-7.049 2.786-14.011 3.73-21.1.807-5.744 1.206-11.561.98-17.408-.08-5.607.125-11.2-.086-16.813-.376-3.11-1.816-6.08-3.266-8.978-1.06-2.602-1.022-5.369-.527-7.97.276-2.366.548-4.88-.608-7.202-.628-1.212-1.638-2.289-2.875-3.095z" overflow="visible" style="isolation:auto;mix-blend-mode:normal"/><path fill="#37474f" d="M123.495 110.09c1.453 1.869 1.594 4.133 1.699 6.24.572 10.339.355 20.682-1.15 30.833-.432 3.34-.785 6.7-1.462 9.996-1.089 2.648-2.822 5.14-2.974 8.059.042 2.98 1.27 6.01.6 8.951-1.012 3.76-3.194 7.218-3.468 11.16-.009 2.51.671 5.103-.063 7.538-2.002 3.342-4.997 6.218-6.233 9.916-.952 2.539-1.538 5.304-3.492 7.405-2.536 2.413-7.75 2.108-10.272-.634-1.924-1.94-2.575-4.48-2.933-6.875-.642-4.443-.597-8.924.193-13.263 1.219-3.665 4.513-6.446 5.478-10.207.564-2.045-.335-4.216.057-6.283.266-2.496 1.673-4.7 2.08-7.16.48-3.417-.504-7.015.607-10.337 1.899-5.875 3.58-11.855 6.528-17.369 1.475-3.16 2.405-6.507 3.615-9.758.872-2.418 1.91-4.786 3.21-7.037 1.816-3.448 3.491-7.006 6.096-10.05.506-.499 1.071-.964 1.746-1.295z" overflow="visible" style="isolation:auto;mix-blend-mode:normal"/><path fill="#cfd8dc" d="M123.333 110.426c-2.655 5.707-3.165 12.037-5.31 17.9a1123 1123 0 0 0-9.507 32.494c-1.098 3.112-1.933 6.318-2.253 9.608-.33 2.62-.227 5.286-.374 7.925a8.9 8.9 0 0 1-1.223 3.95c-1.065 2.04-2.294 4.076-2.534 6.382-.907 4.583-1.552 9.218-2.112 13.862-.251 2.67-.291 5.383.189 8.08.556.923 2.341.74 2.554-.219 1.23-1.865 1.675-4.042 2.556-6.046 2.847-7.845 4.724-15.978 6.134-24.178.756-3.36 1.848-6.712 1.576-10.228-.077-2.63.376-5.302 1.844-7.547.802-1.394 1.241-2.94 1.401-4.518.202-1.572.44-3.159.267-4.762-.272-2.093-1.07-4.268-.394-6.307.88-2.524 3.19-4.492 3.557-7.194 1.164-7.716 2.485-15.411 3.222-23.195.185-1.998.33-4 .42-6.01z" overflow="visible" style="isolation:auto;mix-blend-mode:normal"/></g><g color="#000"><path fill="#cfd8dc" d="M97.668 377.5q39.18-9.939 48.622 27.282t-29.738 47.16c-37.867 9.606-91.184-3.28-94.332-15.686s37.58-49.15 75.448-58.756" overflow="visible" style="isolation:auto;mix-blend-mode:normal"/><path fill="#37474f" d="M23.264 435.909c-.008-2.834 1.561-5.387 3.402-7.429 3.88-4.31 8.951-7.271 13.96-10.076 4.489-2.34 9.425-3.949 13.398-7.18 2.75-2.623 4.469-6.236 7.658-8.412 5.2-3.026 11.116-4.712 16.023-8.259 4.527-2.787 9.654-4.682 14.97-5.143 2.956-.407 6.002-1.071 8.451-2.873a14.6 14.6 0 0 1 6.786-2.204c7.746-1.133 15.844-.718 23.216 2.057 7.097 2.938 12.592 9.484 14.168 17.013.779 3.266 1.364 6.747.437 10.046-.122.632-.476 1.168-.788 1.718.125.535.577.985.464 1.57.058 3.402-1.299 6.663-3.062 9.511-.695 1.079-1.552 2.114-2.72 2.697-.017 1.748-1.071 3.323-2.44 4.34-2.893 2.558-6.433 4.205-9.898 5.83-3.4 1.483-6.926 2.766-10.599 3.355-1.083.02-2.321.153-3.052 1.055-1.218.995-2.87.983-4.325 1.375-6.68 1.342-13.499 1.716-20.26 2.453-1.813.2-3.669.262-5.451-.19-2.941-.606-5.835-1.494-8.84-1.746-8.17-.988-16.343 1.094-24.522.327-4.159-.375-8.083-1.905-12.132-2.818-1.753-.43-3.539-.709-5.327-.926-3.477-.748-6.883-2.405-9.17-5.195-.15-.283-.298-.576-.347-.896" overflow="visible" style="isolation:auto;mix-blend-mode:normal"/><path fill="#cfd8dc" d="M22.557 436.554c2.248 2.193 5.403 3.048 8.422 3.52 11.65 1.904 23.535 2.114 35.286 1.166 5.556-.739 11.112-1.581 16.722-1.754 2.089-.085 4.173-.32 6.206-.815 3.86-.839 7.758-1.523 11.692-1.91 3.22-.337 6.405-1.043 9.42-2.231 4.217-1.441 8.641-2.096 13.011-2.88 4.888-1.253 9.343-3.742 13.573-6.428 3.446-2.317 6.672-5.258 8.39-9.113 2.663-6.045 1.59-13.654-2.933-18.533-3.728-4.122-9.281-6.319-14.783-6.466-3.362-.214-6.728-.491-10.06-.978-1.866.238-3.594 1.04-5.409 1.493-8.36 2.546-16.86 4.628-25.154 7.397-6.74 2.205-13.356 4.821-19.687 8.025-6.141 2.948-12.41 5.627-18.491 8.697-3.238 1.94-5.783 4.782-8.241 7.595-2.332 2.305-5.401 3.688-8.52 4.569-2.749.96-5.657 1.999-7.631 4.249a8.8 8.8 0 0 0-1.954 4.22z" overflow="visible" style="isolation:auto;mix-blend-mode:normal"/><path fill="#37474f" d="M22.688 436.16c1.324-2.29 3.749-3.58 6.019-4.756 11.107-5.824 22.62-10.927 34.574-14.752 3.902-1.315 7.784-2.714 11.762-3.784 3.47-.36 7.098-.049 10.392-1.405 3.265-1.567 5.982-4.245 9.564-5.138 4.658-1 9.577-.774 14.062-2.544 2.772-1.278 5.285-3.23 8.342-3.806 4.699.123 9.389 1.392 14.092.63 3.282-.43 6.628-1.31 9.935-.597 3.946 1.087 6.255 6.02 4.51 9.737-1.163 2.758-3.633 4.656-6.091 6.212-4.572 2.866-9.535 5.121-14.72 6.621-4.658.763-9.395-.83-14.03.213-2.541.531-4.478 2.468-6.956 3.169-2.886 1.036-6.029.876-8.949 1.764-4.009 1.312-7.477 4.058-11.703 4.742-7.439 1.272-14.884 2.797-22.458 2.922-4.232.268-8.394 1.132-12.592 1.69-3.108.44-6.245.703-9.386.665-4.721.103-9.494.392-14.17-.434-.807-.208-1.606-.488-2.313-.936z" overflow="visible" style="isolation:auto;mix-blend-mode:normal"/><path fill="#cfd8dc" d="M23.141 436.136c7.638-.493 14.875-3.27 22.427-4.31a1618 1618 0 0 0 40.644-7.945c3.988-.59 7.946-1.467 11.735-2.861 3.055-1.041 5.942-2.501 8.926-3.72a12.8 12.8 0 0 1 4.975-.903c2.79-.07 5.657.012 8.32-.95 5.514-1.518 10.95-3.303 16.354-5.17 3.07-1.139 6.082-2.493 8.812-4.316.736-.982-.372-2.524-1.537-2.227-2.68-.171-5.306.537-7.962.757-10.092 1.412-20.01 3.861-29.766 6.773-4.087 1.03-8.336 1.747-12.074 3.799-2.86 1.418-6.035 2.372-9.255 2.178-1.944-.02-3.87.37-5.692 1.032-1.834.621-3.705 1.216-5.385 2.196-2.17 1.323-4.163 3.17-6.753 3.595-3.229.486-6.57-.62-9.735.428-9.097 2.889-18.25 5.623-27.205 8.938a181 181 0 0 0-6.837 2.695z" overflow="visible" style="isolation:auto;mix-blend-mode:normal"/></g><g color="#000"><path fill="#cfd8dc" d="M123.746 381.838q-33.148-23.131-11.173-54.622c21.975-31.491 33.024-23.78 55.123-8.36 32.038 22.357 57.17 71.113 49.846 81.61s-61.758 3.728-93.796-18.628" overflow="visible" style="isolation:auto;mix-blend-mode:normal"/><path fill="#37474f" d="M216.597 399.903c-2.138 1.86-5.096 2.343-7.844 2.287-5.798-.117-11.356-2.014-16.753-3.968-4.707-1.863-9.153-4.545-14.196-5.436-3.784-.364-7.64.7-11.372-.289-5.69-1.954-10.835-5.324-16.729-6.716-5.07-1.6-9.856-4.239-13.681-7.957-2.243-1.97-4.738-3.84-7.703-4.514a14.6 14.6 0 0 1-6.106-3.69c-5.925-5.117-10.908-11.514-13.631-18.905-2.42-7.29-1.065-15.728 3.598-21.845 1.961-2.725 4.211-5.445 7.313-6.902.558-.322 1.195-.404 1.815-.528.322-.445.367-1.082.884-1.38 2.535-2.268 5.889-3.375 9.196-3.905 1.27-.18 2.615-.209 3.82.294 1.332-1.131 3.214-1.365 4.878-.993 3.828.514 7.389 2.114 10.885 3.672 3.346 1.6 6.622 3.428 9.47 5.82.724.807 1.636 1.656 2.796 1.62 1.549.27 2.621 1.527 3.868 2.37 5.386 4.175 10.13 9.088 15.11 13.72 1.337 1.24 2.598 2.603 3.423 4.246 1.465 2.622 2.686 5.39 4.46 7.829 4.6 6.826 11.52 11.645 16.29 18.333 2.437 3.39 3.847 7.36 5.806 11.02.821 1.606 1.779 3.14 2.784 4.634 1.709 3.12 2.684 6.78 2.07 10.334-.116.299-.241.602-.451.849" overflow="visible" style="isolation:auto;mix-blend-mode:normal"/><path fill="#cfd8dc" d="M217.548 400.016c.187-3.135-1.23-6.08-2.848-8.673-6.18-10.057-13.797-19.184-22.202-27.45-4.193-3.72-8.464-7.371-12.265-11.501-1.431-1.524-2.972-2.947-4.676-4.16-3.16-2.372-6.227-4.873-9.094-7.594-2.36-2.215-4.979-4.162-7.85-5.666-3.848-2.247-7.238-5.164-10.69-7.956-4.144-2.877-8.942-4.619-13.74-6.061-4.007-1.09-8.342-1.606-12.38-.384-6.316 1.94-11.369 7.729-12.1 14.342-.679 5.517 1.293 11.153 4.78 15.411 2.038 2.683 4.03 5.41 5.842 8.248 1.4 1.256 3.138 2.038 4.667 3.115 7.396 4.658 14.53 9.724 22.05 14.186 6.078 3.655 12.384 6.947 18.95 9.64 6.246 2.716 12.374 5.705 18.674 8.296 3.584 1.18 7.4 1.246 11.135 1.264 3.269.257 6.323 1.673 9.03 3.456 2.523 1.45 5.212 2.971 8.205 2.992a8.8 8.8 0 0 0 4.47-1.283z" overflow="visible" style="isolation:auto;mix-blend-mode:normal"/><path fill="#37474f" d="M217.164 400.174c-2.599.497-5.16-.493-7.535-1.44-11.67-4.592-23.062-9.96-33.775-16.5-3.548-2.09-7.145-4.112-10.556-6.42-2.542-2.39-4.68-5.337-7.861-6.941-3.321-1.445-7.125-1.748-10.143-3.873-3.804-2.87-6.85-6.737-11.123-8.972-2.78-1.26-5.9-1.884-8.336-3.82-2.981-3.633-5.09-8.01-8.743-11.069-2.471-2.201-5.326-4.156-6.95-7.124-1.76-3.696.462-8.67 4.413-9.782 2.848-.923 5.899-.297 8.684.544 5.158 1.583 10.111 3.862 14.637 6.801 3.624 3.025 5.518 7.65 9.34 10.474 2.064 1.573 4.796 1.771 6.946 3.187 2.672 1.506 4.607 3.987 7.19 5.614 3.614 2.175 7.96 3.001 11.241 5.75 5.83 4.794 11.853 9.428 16.902 15.074 2.97 3.026 6.348 5.609 9.515 8.419 2.367 2.063 4.618 4.263 6.644 6.663 3.167 3.504 6.508 6.924 8.941 11.002.37.747.682 1.533.806 2.362z" overflow="visible" style="isolation:auto;mix-blend-mode:normal"/><path fill="#cfd8dc" d="M216.849 399.847c-5.37-5.455-12.204-9.111-17.931-14.142a1618 1618 0 0 0-32.597-25.544c-3.056-2.63-6.308-5.05-9.841-7.004-2.787-1.63-5.78-2.858-8.652-4.318a12.8 12.8 0 0 1-3.94-3.171c-1.876-2.064-3.69-4.288-6.16-5.672-4.755-3.177-9.662-6.121-14.609-8.987-2.87-1.577-5.864-2.969-9.028-3.842-1.224.086-1.666 1.933-.68 2.62 1.624 2.14 3.878 3.662 5.782 5.527 7.67 6.71 16.01 12.608 24.594 18.082 3.454 2.418 6.775 5.163 10.773 6.647 2.943 1.235 5.742 3.013 7.702 5.575 1.256 1.483 2.81 2.686 4.504 3.63 1.67.981 3.343 2.007 5.184 2.636 2.419.776 5.12 1.076 7.136 2.757 2.48 2.123 3.829 5.374 6.692 7.082 8.136 4.991 16.192 10.125 24.557 14.73a181 181 0 0 0 6.511 3.408z" overflow="visible" style="isolation:auto;mix-blend-mode:normal"/></g></svg>