<svg xmlns="http://www.w3.org/2000/svg" width="512" height="512"><path d="M226.35 279.073l-46.588-44.121-45.18 80.882c15.529 14.707 80.472-16.54 91.767-36.76z" style="isolation:auto;mix-blend-mode:normal" color="#000" overflow="visible" fill="#546e7a"/><path d="M224.237 91.567C154.356 25.385 56.237 9.755 16 18.025c1.762 14.532 6.237 34.013 13.279 55.993 1.777 5.548 77.073 37.305 75.308 51.092-1.765 13.787-65.324-22.768-63.024-17.017 20.139 50.364 51.382 106.474 92.315 145.24 58.372 55.281 173.617 110.502 237.39 126.106-1.585 43.684 5.568 103.989 18.843 116.561-4.016-15.86 2.826-90.076 14.121-110.297 11.295-20.22 56.13-47.711 91.768-36.76-22.882-25.386-78.449-25.403-109.094-4.509-33.78-76.804-104.254-197.545-162.669-252.867z" fill="#78909c" fill-rule="evenodd"/><path d="M175.487 91.104L216.8 152.48 288 72.844c-13.771-20.459-94.713-1.649-112.513 18.26zM43.176 43.763l19.412 18.383-19.766 35.387c-6.47-6.128-4.587-44.924.354-53.77zM56.586 126.027l-11.647-11.03 11.295-20.221c3.882 3.677 3.176 26.196.352 31.25z" style="isolation:auto;mix-blend-mode:normal" color="#000" overflow="visible" fill="#78909c"/><ellipse style="isolation:auto;mix-blend-mode:normal" cx="151.811" cy="-32.59" transform="matrix(.72607 .68763 -.48766 .87303 0 0)" rx="10.694" ry="11.581" color="#000" overflow="visible" fill="#455a64"/><path style="isolation:auto;mix-blend-mode:normal" d="M70.177 53.875l19.411 18.383-19.766 35.387c-6.47-6.128-4.587-44.924.355-53.77zM74.056 142.572l-11.647-11.03 11.295-20.22c3.883 3.676 3.176 26.195.352 31.25z" color="#000" overflow="visible" fill="#78909c"/><path d="M84.823 75.475l15.53 14.707-14.12 25.276c-5.176-4.902-4.94-33.664-1.41-39.983zM90.468 150.386l-11.647-11.03 11.295-20.221c3.882 3.677 3.176 26.196.352 31.25z" style="isolation:auto;mix-blend-mode:normal" color="#000" overflow="visible" fill="#78909c"/><path d="M210.82 264.366c-21.406-20.581-60.704-103.866-86.115-143.391C99.294 81.45 60.471 44.683 20.686 43.343c2.216 9.403 5.086 19.73 8.593 30.675 1.777 5.548 77.073 37.305 75.308 51.092-1.765 13.787-65.324-22.768-63.024-17.017 20.139 50.364 51.382 106.474 92.315 145.24 58.372 55.281 173.617 110.502 237.39 126.106-64.446-116.906-139.042-94.491-160.448-115.073z" fill="#b0bec5" fill-rule="evenodd"/><path style="isolation:auto;mix-blend-mode:normal" d="M90.82 181.637c14.47 5.975 24.563 13.631 40.94 54.232L92.229 306.64c-15.53-14.707-12.703-104.784-1.408-125.004z" color="#000" overflow="visible" fill="#78909c"/></svg>