<svg xmlns="http://www.w3.org/2000/svg" width="512" height="512"><path style="isolation:auto;mix-blend-mode:normal" d="M176 80l64-16h32l64 16v80H176z" color="#000" overflow="visible" fill="#9fa8da"/><path d="M32 416h64l16 16H16l16-16M416 416h64l16 16h-96l16-16" fill="#b71c1c" fill-rule="evenodd"/><path style="isolation:auto;mix-blend-mode:normal" d="M144 80h64l16 32 32-16 32 16 16-32h64l48 32 64 160v160h-64V320l-32-112v40l-8 104 8 144H128l8-144-8-96v-48L96 320v112H32V272l64-160z" color="#000" overflow="visible" fill="#c5cae9"/><path d="M176 48l48-16h64l48 16v32l-64-16h-32l-64 16z" fill="#b71c1c" fill-rule="evenodd"/><path d="M32 456h64l16-24H16l16 24M416 456h64l16-24h-96l16 24" fill="#e53935" fill-rule="evenodd"/><path style="isolation:auto;mix-blend-mode:normal" d="M240 96h32v400h-32z" color="#000" overflow="visible" fill="#9fa8da"/><path d="M176 48l-16 32 48 80 48-64-48-16z" fill="#f44336" fill-rule="evenodd"/><circle r="8" cy="200" cx="256" style="isolation:auto;mix-blend-mode:normal" color="#000" overflow="visible" fill="#c5cae9"/><circle style="isolation:auto;mix-blend-mode:normal" cx="256" cy="256" r="8" color="#000" overflow="visible" fill="#c5cae9"/><circle r="8" cy="312" cx="256" style="isolation:auto;mix-blend-mode:normal" color="#000" overflow="visible" fill="#c5cae9"/><circle style="isolation:auto;mix-blend-mode:normal" cx="256" cy="368" r="8" color="#000" overflow="visible" fill="#c5cae9"/><circle r="8" cy="424" cx="256" style="isolation:auto;mix-blend-mode:normal" color="#000" overflow="visible" fill="#c5cae9"/><path d="M96 320l32-112v48zM416 312l-32-112v48z" fill="#9fa8da" fill-rule="evenodd"/><path d="M336 48l16 32-48 80-48-64 48-16z" fill="#f44336" fill-rule="evenodd"/><path style="isolation:auto;mix-blend-mode:normal" d="M288 208h64v48l-16 16h-32l-16-16z" color="#000" overflow="visible" fill="#9fa8da"/><path style="isolation:auto;mix-blend-mode:normal" color="#000" overflow="visible" fill="#f44336" d="M288 192h64v16h-64z"/><circle style="isolation:auto;mix-blend-mode:normal" cx="256" cy="144" r="8" color="#000" overflow="visible" fill="#c5cae9"/></svg>