<svg xmlns="http://www.w3.org/2000/svg" width="512" height="512"><path fill="#9fa8da" d="m176 80 64-16h32l64 16v80H176z" color="#000" overflow="visible" style="isolation:auto;mix-blend-mode:normal"/><path fill="#b71c1c" fill-rule="evenodd" d="M32 416h64l16 16H16zm384 0h64l16 16h-96z"/><path fill="#c5cae9" d="M144 80h64l16 32 32-16 32 16 16-32h64l48 32 64 160v160h-64V320l-32-112v40l-8 104 8 144H128l8-144-8-96v-48L96 320v112H32V272l64-160z" color="#000" overflow="visible" style="isolation:auto;mix-blend-mode:normal"/><path fill="#b71c1c" fill-rule="evenodd" d="m176 48 48-16h64l48 16v32l-64-16h-32l-64 16z"/><path fill="#e53935" fill-rule="evenodd" d="M32 456h64l16-24H16zm384 0h64l16-24h-96z"/><path fill="#9fa8da" d="M240 96h32v400h-32z" color="#000" overflow="visible" style="isolation:auto;mix-blend-mode:normal"/><path fill="#f44336" fill-rule="evenodd" d="m176 48-16 32 48 80 48-64-48-16z"/><circle cx="256" cy="200" r="8" fill="#c5cae9" color="#000" overflow="visible" style="isolation:auto;mix-blend-mode:normal"/><circle cx="256" cy="256" r="8" fill="#c5cae9" color="#000" overflow="visible" style="isolation:auto;mix-blend-mode:normal"/><circle cx="256" cy="312" r="8" fill="#c5cae9" color="#000" overflow="visible" style="isolation:auto;mix-blend-mode:normal"/><circle cx="256" cy="368" r="8" fill="#c5cae9" color="#000" overflow="visible" style="isolation:auto;mix-blend-mode:normal"/><circle cx="256" cy="424" r="8" fill="#c5cae9" color="#000" overflow="visible" style="isolation:auto;mix-blend-mode:normal"/><path fill="#9fa8da" fill-rule="evenodd" d="m96 320 32-112v48zm320-8-32-112v48z"/><path fill="#f44336" fill-rule="evenodd" d="m336 48 16 32-48 80-48-64 48-16z"/><path fill="#9fa8da" d="M288 208h64v48l-16 16h-32l-16-16z" color="#000" overflow="visible" style="isolation:auto;mix-blend-mode:normal"/><path fill="#f44336" d="M288 192h64v16h-64z" color="#000" overflow="visible" style="isolation:auto;mix-blend-mode:normal"/><circle cx="256" cy="144" r="8" fill="#c5cae9" color="#000" overflow="visible" style="isolation:auto;mix-blend-mode:normal"/></svg>