<svg xmlns="http://www.w3.org/2000/svg" width="512" height="512"><path style="isolation:auto;mix-blend-mode:normal" d="M128 112h256l96 288-64 16-32-16-48 32-32-16-48 32-48-32-32 16-48-32-32 16-64-16z" color="#000" overflow="visible" fill="#ec407a"/><path style="isolation:auto;mix-blend-mode:normal" d="M256 112v336l-48-32-32 16-48-32-32 16-64-16 96-288h128z" color="#000" overflow="visible" fill="#f06292"/><path style="isolation:auto;mix-blend-mode:normal" d="M144 64c80 16 144 16 224 0l16 48c-80 16-176 16-256 0z" color="#000" overflow="visible" fill="#ad1457"/><path d="M96 416l48-176-16 160zM176 432l32-208v192zM336 432l-48-160 16 144zM416 416l-64-192 32 176z" fill="#880e4f" fill-rule="evenodd"/><path d="M384 64l-34.697 23.13A16 16 0 0 0 336 80a16 16 0 0 0-15.166 10.945L288 80v64l36.693-36.693.131.123L288 240l20-16 12 16 16-112 16 96 12-16 20 16-36.523-116.875a16 16 0 0 0 1.83-2.254L384 128z" fill="#fb8c00" fill-rule="evenodd"/><path d="M288 80v64l36.693-36.693.131.123L288 240l20-16 12 16 16-112V80a16 16 0 0 0-15.166 10.945L288 80z" fill="#ffa726" fill-rule="evenodd"/></svg>