<svg xmlns="http://www.w3.org/2000/svg" xmlns:xlink="http://www.w3.org/1999/xlink" width="512" height="512"><defs><lineargradient xlink:href="#a" id="b" gradientunits="userSpaceOnUse" gradienttransform="matrix(1.9285714,0,0,1.9285714,2978.2577,727.52696)" x1="312" y1="344" x2="312" y2="368"/></defs><path style="isolation:auto;mix-blend-mode:normal" d="M32 256a224 224 0 0 1 224 224 224 224 0 0 1 224-224H256z" color="#000" overflow="visible" fill="#f5f5f5"/><path style="isolation:auto;mix-blend-mode:normal" d="M256 256v224a224 224 0 0 0 224-224H256z" color="#000" overflow="visible" fill="#e0e0e0"/><ellipse style="isolation:auto;mix-blend-mode:normal" cx="256" cy="256" rx="224" ry="80" color="#000" overflow="visible" fill="#e0e0e0"/><path style="isolation:auto;mix-blend-mode:normal" d="M256 176v160a224 80 0 0 0 224-80 224 80 0 0 0-224-80z" color="#000" overflow="visible" fill="#bdbdbd"/><ellipse style="isolation:auto;mix-blend-mode:normal" cx="256" cy="272" rx="192" ry="64" color="#000" overflow="visible" fill="#ff9800"/><path style="isolation:auto;mix-blend-mode:normal" d="M316.664 211.336L195.336 332.664A192 64 0 0 0 256 336a192 64 0 0 0 192-64 192 64 0 0 0-131.336-60.664z" color="#000" overflow="visible" fill="#f57c00"/><g color="#000"><path d="M200 256c-11.046 19.132-28.407 20.55-43.713 11.713-15.305-8.837-22.758-24.581-11.713-43.713 8-13.856 21.857-5.856 59.713-39.426 5.857 21.857 6.759 52.294-4.287 71.426z" style="isolation:auto;mix-blend-mode:normal" overflow="visible" fill="#7cb342"/><path d="M204.287 184.574l-48 83.139c15.306 8.836 32.667 7.419 43.713-11.713 11.046-19.132 10.144-49.57 4.287-71.426z" style="isolation:auto;mix-blend-mode:normal" overflow="visible" fill="#689f38"/></g><g color="#000"><path style="isolation:auto;mix-blend-mode:normal" d="M96 288c11.046 19.132 28.407 20.55 43.713 11.713 15.305-8.837 22.758-24.581 11.713-43.713-8-13.856-21.857-5.856-59.713-39.426C85.856 238.431 84.954 268.868 96 288z" overflow="visible" fill="#689f38"/><path style="isolation:auto;mix-blend-mode:normal" d="M91.713 216.574l48 83.139C124.407 308.549 107.046 307.132 96 288c-11.046-19.132-10.144-49.57-4.287-71.426z" overflow="visible" fill="#7cb342"/></g><ellipse style="isolation:auto;mix-blend-mode:normal" cx="248" cy="232" rx="28" ry="8" color="#000" overflow="visible" fill="#ffc107"/><ellipse ry="8" rx="28" cy="288" cx="184" style="isolation:auto;mix-blend-mode:normal" color="#000" overflow="visible" fill="#ffc107"/><ellipse style="isolation:auto;mix-blend-mode:normal" cx="336" cy="272" rx="44" ry="16" color="#000" overflow="visible" fill="#ffc107"/><path style="isolation:auto;mix-blend-mode:normal" d="M32 256a224 224 0 0 0 224 224 224 224 0 0 0 224-224 224 80 0 0 1-224 80 224 80 0 0 1-224-80z" color="#000" overflow="visible" fill="#f5f5f5"/><path style="isolation:auto;mix-blend-mode:normal" d="M480 256a224 80 0 0 1-224 80v144a224 224 0 0 0 224-224z" color="#000" overflow="visible" fill="#e0e0e0"/><path d="M446.535 48.001c-11.043.103-21.668 5.694-26.752 16.159l-98.145 201.99a183.305 183.305 0 0 1-3.084 6.01h37.557l119.098-176c9.935-14.683 3.64-34.85-11.713-43.713A33.344 33.344 0 0 0 446.535 48zm1.39 16.16a15.93 15.93 0 0 1 7.57 2.143c7.654 4.418 10.275 14.203 5.856 21.856-4.418 7.652-14.202 10.273-21.855 5.855-7.653-4.418-10.276-14.203-5.858-21.855 3.038-5.262 8.613-8.146 14.288-7.998z" style="isolation:auto;mix-blend-mode:normal" color="#000" overflow="visible" fill="#b0bec5"/><path style="isolation:auto;mix-blend-mode:normal" d="M463.496 52.447l-8 13.857c7.653 4.418 10.274 14.203 5.855 21.856-4.418 7.652-14.202 10.273-21.855 5.855L336.644 272.16h19.467l119.098-176c9.935-14.683 3.64-34.85-11.713-43.713z" color="#000" overflow="visible" fill="#90a4ae"/></svg>