<svg xmlns="http://www.w3.org/2000/svg" width="512" height="512"><path fill="#f5f5f5" d="M32 256a224 224 0 0 0 224 224 224 224 0 0 0 224-224H256z" color="#000" overflow="visible" style="isolation:auto;mix-blend-mode:normal"/><path fill="#e0e0e0" d="M256 256v224a224 224 0 0 0 224-224z" color="#000" overflow="visible" style="isolation:auto;mix-blend-mode:normal"/><ellipse cx="256" cy="256" fill="#e0e0e0" color="#000" overflow="visible" rx="224" ry="80" style="isolation:auto;mix-blend-mode:normal"/><path fill="#bdbdbd" d="M256 176v160a224 80 0 0 0 224-80 224 80 0 0 0-224-80" color="#000" overflow="visible" style="isolation:auto;mix-blend-mode:normal"/><ellipse cx="256" cy="272" fill="#ff9800" color="#000" overflow="visible" rx="192" ry="64" style="isolation:auto;mix-blend-mode:normal"/><path fill="#f57c00" d="M316.664 211.336 195.336 332.664A192 64 0 0 0 256 336a192 64 0 0 0 192-64 192 64 0 0 0-131.336-60.664" color="#000" overflow="visible" style="isolation:auto;mix-blend-mode:normal"/><g color="#000"><path fill="#7cb342" d="M200 256c-11.046 19.132-28.407 20.55-43.713 11.713-15.305-8.837-22.758-24.581-11.713-43.713 8-13.856 21.857-5.856 59.713-39.426 5.857 21.857 6.759 52.294-4.287 71.426" overflow="visible" style="isolation:auto;mix-blend-mode:normal"/><path fill="#689f38" d="m204.287 184.574-48 83.139c15.306 8.836 32.667 7.419 43.713-11.713s10.144-49.57 4.287-71.426" overflow="visible" style="isolation:auto;mix-blend-mode:normal"/></g><g color="#000"><path fill="#689f38" d="M96 288c11.046 19.132 28.407 20.55 43.713 11.713 15.305-8.837 22.758-24.581 11.713-43.713-8-13.856-21.857-5.856-59.713-39.426C85.856 238.431 84.954 268.868 96 288" overflow="visible" style="isolation:auto;mix-blend-mode:normal"/><path fill="#7cb342" d="m91.713 216.574 48 83.139C124.407 308.549 107.046 307.132 96 288s-10.144-49.57-4.287-71.426" overflow="visible" style="isolation:auto;mix-blend-mode:normal"/></g><ellipse cx="248" cy="232" fill="#ffc107" color="#000" overflow="visible" rx="28" ry="8" style="isolation:auto;mix-blend-mode:normal"/><ellipse cx="184" cy="288" fill="#ffc107" color="#000" overflow="visible" rx="28" ry="8" style="isolation:auto;mix-blend-mode:normal"/><ellipse cx="336" cy="272" fill="#ffc107" color="#000" overflow="visible" rx="44" ry="16" style="isolation:auto;mix-blend-mode:normal"/><path fill="#f5f5f5" d="M32 256a224 224 0 0 0 224 224 224 224 0 0 0 224-224 224 80 0 0 1-224 80 224 80 0 0 1-224-80" color="#000" overflow="visible" style="isolation:auto;mix-blend-mode:normal"/><path fill="#e0e0e0" d="M480 256a224 80 0 0 1-224 80v144a224 224 0 0 0 224-224" color="#000" overflow="visible" style="isolation:auto;mix-blend-mode:normal"/><path fill="#b0bec5" d="M446.535 48.001c-11.043.103-21.668 5.694-26.752 16.159l-98.145 201.99a183 183 0 0 1-3.084 6.01h37.557l119.098-176c9.935-14.683 3.64-34.85-11.713-43.713A33.34 33.34 0 0 0 446.535 48zm1.39 16.16a15.9 15.9 0 0 1 7.57 2.143c7.654 4.418 10.275 14.203 5.856 21.856-4.418 7.652-14.202 10.273-21.855 5.855s-10.276-14.203-5.858-21.855c3.038-5.262 8.613-8.146 14.288-7.998z" color="#000" overflow="visible" style="isolation:auto;mix-blend-mode:normal"/><path fill="#90a4ae" d="m463.496 52.447-8 13.857c7.653 4.418 10.274 14.203 5.855 21.856-4.418 7.652-14.202 10.273-21.855 5.855L336.644 272.16h19.467l119.098-176c9.935-14.683 3.64-34.85-11.713-43.713" color="#000" overflow="visible" style="isolation:auto;mix-blend-mode:normal"/></svg>