<svg xmlns="http://www.w3.org/2000/svg" width="512" height="512"><g color="#000"><path d="M127.905 293.586a15.965 15.965 0 0 0-22.628 0l-53.74 53.74c-22.627 22.627-2.828 93.338 8.486 104.651 11.313 11.314 79.196 33.942 101.823 11.314l56.568-56.568a15.965 15.965 0 0 0 0-22.628z" style="isolation:auto;mix-blend-mode:normal" overflow="visible" fill="#90a4ae"/><path style="isolation:auto;mix-blend-mode:normal" overflow="visible" fill="#795548" d="M331.552 157.821l22.627 22.627-147.078 147.079-22.628-22.628z"/><path style="isolation:auto;mix-blend-mode:normal" overflow="visible" fill="#a1887f" d="M331.552 157.821l11.313 11.314-147.078 147.078-11.314-11.314z"/><path d="M173.16 338.84L60.023 451.977c-11.314-11.313-33.942-79.196-11.314-101.823l56.568-56.568a15.965 15.965 0 0 1 22.628 0z" style="isolation:auto;mix-blend-mode:normal" overflow="visible" fill="#b0bec5"/><path d="M207.1 327.527l-44.883 44.884c-6.268 6.267-28.655 11.684-31.484 8.856-2.828-2.829 2.589-25.216 8.856-31.484l44.884-44.884z" style="isolation:auto;mix-blend-mode:normal" overflow="visible" fill="#e0e0e0"/><path style="isolation:auto;mix-blend-mode:normal" overflow="visible" fill="#795548" d="M393.777 50.34l67.882 67.883-16.97 16.97-67.883-67.882z"/><path style="isolation:auto;mix-blend-mode:normal" overflow="visible" fill="#a1887f" d="M393.777 50.34l67.882 67.883-8.485 8.485-67.882-67.882z"/><path d="M382.463 39.027l-16.97 16.97a64 64 0 0 0-9.843 77.726l-24.098 24.098 22.627 22.627 24.123-24.123a64 64 0 0 0 77.7-9.818l16.97-16.97-16.97-16.97-16.97 16.97a40 40 0 0 1-56.569 0 40 40 0 0 1 0-56.569l16.97-16.97-16.97-16.97z" style="isolation:auto;mix-blend-mode:normal" overflow="visible" fill="#e0e0e0"/><path d="M456.002 112.566l-16.97 16.97a40 40 0 0 1-56.569 0l-8.485 8.486-8.485 8.485-22.628 22.628 11.314 11.313 24.123-24.123a64 64 0 0 0 77.7-9.818l16.97-16.97-16.97-16.97zM195.787 316.213l-65.054 65.054c2.829 2.828 25.217-2.59 31.484-8.857l44.884-44.883z" style="isolation:auto;mix-blend-mode:normal" overflow="visible" fill="#bdbdbd"/></g></svg>