<svg xmlns="http://www.w3.org/2000/svg" width="512" height="512"><g color="#000"><path fill="#b0bec5" d="M192 216h32v136h-32zM384 88h32v136h-32z" overflow="visible" style="isolation:auto;mix-blend-mode:normal"/><path fill="#0288d1" d="M352 224v64h-96v64h-96v64H64v64h96l288-192v-64z" overflow="visible" style="isolation:auto;mix-blend-mode:normal"/><path fill="#b0bec5" d="M96 280h32v136H96z" overflow="visible" style="isolation:auto;mix-blend-mode:normal"/><path fill="#78909c" d="M112 272h16v144h-16zm96-64h16v144h-16z" overflow="visible" style="isolation:auto;mix-blend-mode:normal"/><path fill="#b0bec5" d="M288 152h32v136h-32z" overflow="visible" style="isolation:auto;mix-blend-mode:normal"/><path fill="#78909c" d="M400 80h16v144h-16zm-96 64h16v144h-16z" overflow="visible" style="isolation:auto;mix-blend-mode:normal"/><path fill="#795548" fill-rule="evenodd" d="M428 52a12 12 0 0 0-6.656 2.016l-384 256A12 12 0 0 0 32 320v36a12.001 12.001 0 1 0 24 0v-29.578L431.633 76H460a12.001 12.001 0 1 0 0-24z" font-family="sans-serif" font-weight="400" overflow="visible" style="line-height:normal;text-indent:0;text-align:start;text-decoration-line:none;text-decoration-style:solid;text-decoration-color:#000;text-transform:none;block-progression:tb;isolation:auto;mix-blend-mode:normal"/><path fill="#01579b" d="M60 416h100v8H60c-2.216 0-4-1.784-4-4s1.784-4 4-4m96-64h100v8H156c-2.216 0-4-1.784-4-4s1.784-4 4-4m96-72h100v8H252c-2.216 0-4-1.784-4-4s1.784-4 4-4m96-64h100v8H348c-2.216 0-4-1.784-4-4s1.784-4 4-4" overflow="visible" style="isolation:auto;mix-blend-mode:normal"/><path fill="#4e342e" fill-rule="evenodd" d="M426 64 44.367 318.422V364a12 12 0 0 1-.691 4.152c6.813.184 12.412-5.336 12.324-12.152v-29.578L431.633 76H460c6.691.09 12.164-5.308 12.164-12z" font-family="sans-serif" font-weight="400" overflow="visible" style="line-height:normal;text-indent:0;text-align:start;text-decoration-line:none;text-decoration-style:solid;text-decoration-color:#000;text-transform:none;block-progression:tb;isolation:auto;mix-blend-mode:normal"/></g></svg>