<svg xmlns="http://www.w3.org/2000/svg" width="512" height="512"><g color="#000"><path style="isolation:auto;mix-blend-mode:normal" overflow="visible" fill="#b0bec5" d="M192 216h32v136h-32zM384 88h32v136h-32z"/><path style="isolation:auto;mix-blend-mode:normal" d="M352 224v64h-96v64h-96v64H64v64h96l288-192v-64z" overflow="visible" fill="#0288d1"/><path style="isolation:auto;mix-blend-mode:normal" overflow="visible" fill="#b0bec5" d="M96 280h32v136H96z"/><path style="isolation:auto;mix-blend-mode:normal" overflow="visible" fill="#78909c" d="M112 272h16v144h-16zM208 208h16v144h-16z"/><path style="isolation:auto;mix-blend-mode:normal" overflow="visible" fill="#b0bec5" d="M288 152h32v136h-32z"/><path style="isolation:auto;mix-blend-mode:normal" overflow="visible" fill="#78909c" d="M400 80h16v144h-16zM304 144h16v144h-16z"/><path style="line-height:normal;text-indent:0;text-align:start;text-decoration-line:none;text-decoration-style:solid;text-decoration-color:#000;text-transform:none;block-progression:tb;isolation:auto;mix-blend-mode:normal" d="M428 52a12.001 12.001 0 0 0-6.656 2.016l-384 256A12.001 12.001 0 0 0 32 320v36a12.001 12.001 0 1 0 24 0v-29.578L431.633 76H460a12.001 12.001 0 1 0 0-24h-32z" font-weight="400" font-family="sans-serif" white-space="normal" overflow="visible" fill="#795548" fill-rule="evenodd"/><path style="isolation:auto;mix-blend-mode:normal" d="M60 416h100v8H60c-2.216 0-4-1.784-4-4s1.784-4 4-4zM156 352h100v8H156c-2.216 0-4-1.784-4-4s1.784-4 4-4zM252 280h100v8H252c-2.216 0-4-1.784-4-4s1.784-4 4-4zM348 216h100v8H348c-2.216 0-4-1.784-4-4s1.784-4 4-4z" overflow="visible" fill="#01579b"/><path style="line-height:normal;text-indent:0;text-align:start;text-decoration-line:none;text-decoration-style:solid;text-decoration-color:#000;text-transform:none;block-progression:tb;isolation:auto;mix-blend-mode:normal" d="M426 64L44.367 318.422V364a11.952 11.952 0 0 1-.691 4.152c6.813.184 12.412-5.336 12.324-12.152v-29.578L431.633 76H460c6.691.09 12.164-5.308 12.164-12z" font-weight="400" font-family="sans-serif" white-space="normal" overflow="visible" fill="#4e342e" fill-rule="evenodd"/></g></svg>