<svg xmlns="http://www.w3.org/2000/svg" width="512" height="512"><path style="isolation:auto;mix-blend-mode:normal" d="M184 56h144l16 23.094L328 464H184L168 79.094z" color="#000" overflow="visible" fill="#bbdefb"/><path d="M184 48l40-16h64l40 16v32l-56-16h-32l-56 16z" fill="#64b5f6" fill-rule="evenodd"/><path style="isolation:auto;mix-blend-mode:normal" color="#000" overflow="visible" fill="#d32f2f" d="M224 112h64v20h-64z"/><path d="M280 120l-12 40h-24l-12-40z" fill="#f44336" fill-rule="evenodd"/><path d="M184 48l-16 32 56 64 32-48-48-16zM328 48l16 32-56 64-32-48 48-16z" fill="#90caf9" fill-rule="evenodd"/><path d="M240 280v112l16 32 16-32V280l-4-116v-4h-24v4z" fill="#f44336" fill-rule="evenodd"/><path d="M128 480l8-128-8-104-18.666 53.334L104 320v96H32V272l64-160 48-32h24l32 136 56 120-48 144M384 480l-8-128 8-104 18.666 53.334L408 320v96h72V272l-64-160-48-32h-24l-32 136-56 120 48 144" style="isolation:auto;mix-blend-mode:normal" color="#000" overflow="visible" fill="#212121"/><circle style="isolation:auto;mix-blend-mode:normal" cx="288" cy="368" r="8" color="#000" overflow="visible" fill="#424242"/><circle r="8" cy="328" cx="288" style="isolation:auto;mix-blend-mode:normal" color="#000" overflow="visible" fill="#424242"/><path style="isolation:auto;mix-blend-mode:normal" color="#000" overflow="visible" fill="#b3e5fc" d="M36 416h64v16H36z"/><path style="isolation:auto;mix-blend-mode:normal" color="#000" overflow="visible" fill="#81d4fa" d="M84 416h16v16H84z"/><circle cy="424" cx="92" style="isolation:auto;mix-blend-mode:normal" r="4" color="#000" overflow="visible" fill="#b3e5fc"/><path style="isolation:auto;mix-blend-mode:normal" color="#000" overflow="visible" fill="#b3e5fc" d="M476 416h-64v16h64z"/><path style="isolation:auto;mix-blend-mode:normal" color="#000" overflow="visible" fill="#81d4fa" d="M428 416h-16v16h16z"/><circle r="4" style="isolation:auto;mix-blend-mode:normal" cx="-420" cy="424" transform="scale(-1 1)" color="#000" overflow="visible" fill="#b3e5fc"/><path d="M168 80l-24 104 40 8-24 16 96 128-40-128-48-128M344 80l24 104-40 8 24 16-96 128 40-128 48-128" fill="#424242" fill-rule="evenodd"/><path style="isolation:auto;mix-blend-mode:normal" color="#000" overflow="visible" fill="#d32f2f" d="M244 160h24v4h-24z"/></svg>