<svg xmlns="http://www.w3.org/2000/svg" width="512" height="512"><path fill="#bbdefb" d="M184 56h144l16 23.094L328 464H184L168 79.094z" color="#000" overflow="visible" style="isolation:auto;mix-blend-mode:normal"/><path fill="#64b5f6" fill-rule="evenodd" d="m184 48 40-16h64l40 16v32l-56-16h-32l-56 16z"/><path fill="#d32f2f" d="M224 112h64v20h-64z" color="#000" overflow="visible" style="isolation:auto;mix-blend-mode:normal"/><path fill="#f44336" fill-rule="evenodd" d="m280 120-12 40h-24l-12-40z"/><path fill="#90caf9" fill-rule="evenodd" d="m184 48-16 32 56 64 32-48-48-16zm144 0 16 32-56 64-32-48 48-16z"/><path fill="#f44336" fill-rule="evenodd" d="M240 280v112l16 32 16-32V280l-4-116v-4h-24v4z"/><path fill="#212121" d="m128 480 8-128-8-104-18.666 53.334L104 320v96H32V272l64-160 48-32h24l32 136 56 120-48 144m176 0-8-128 8-104 18.666 53.334L408 320v96h72V272l-64-160-48-32h-24l-32 136-56 120 48 144" color="#000" overflow="visible" style="isolation:auto;mix-blend-mode:normal"/><circle cx="288" cy="368" r="8" fill="#424242" color="#000" overflow="visible" style="isolation:auto;mix-blend-mode:normal"/><circle cx="288" cy="328" r="8" fill="#424242" color="#000" overflow="visible" style="isolation:auto;mix-blend-mode:normal"/><path fill="#b3e5fc" d="M36 416h64v16H36z" color="#000" overflow="visible" style="isolation:auto;mix-blend-mode:normal"/><path fill="#81d4fa" d="M84 416h16v16H84z" color="#000" overflow="visible" style="isolation:auto;mix-blend-mode:normal"/><circle cx="92" cy="424" r="4" fill="#b3e5fc" color="#000" overflow="visible" style="isolation:auto;mix-blend-mode:normal"/><path fill="#b3e5fc" d="M476 416h-64v16h64z" color="#000" overflow="visible" style="isolation:auto;mix-blend-mode:normal"/><path fill="#81d4fa" d="M428 416h-16v16h16z" color="#000" overflow="visible" style="isolation:auto;mix-blend-mode:normal"/><circle cx="-420" cy="424" r="4" fill="#b3e5fc" color="#000" overflow="visible" style="isolation:auto;mix-blend-mode:normal" transform="scale(-1 1)"/><path fill="#424242" fill-rule="evenodd" d="m168 80-24 104 40 8-24 16 96 128-40-128zm176 0 24 104-40 8 24 16-96 128 40-128z"/><path fill="#d32f2f" d="M244 160h24v4h-24z" color="#000" overflow="visible" style="isolation:auto;mix-blend-mode:normal"/></svg>