<svg xmlns="http://www.w3.org/2000/svg" width="512" height="512"><g color="#000"><path fill="#78909c" d="m175.398 138.477-36.921 36.921 249.22 286.141L480 480l-36.932-80.43z" overflow="visible" style="isolation:auto;mix-blend-mode:normal"/><path fill="#b0bec5" d="m175.398 138.477 286.141 249.22L480 480 156.938 156.938z" overflow="visible" style="isolation:auto;mix-blend-mode:normal"/><path fill="#cfd8dc" d="m161.553 152.323-9.23 9.23 261.526 261.526 10.769 1.539-1.539-10.769z" overflow="visible" style="isolation:auto;mix-blend-mode:normal"/><path fill="#ff9800" d="M41.558 41.558a32.634 32.634 0 0 1 46.152 0 32.63 32.63 0 0 1 8.39 31.635l49.556 39.645 43.588-43.589h27.691V96.94l-49.229 70.766-70.766 49.229H69.25v-27.691l43.588-43.588-39.656-49.57a32.63 32.63 0 0 1-31.624-8.376 32.634 32.634 0 0 1 0-46.152" overflow="visible" style="isolation:auto;mix-blend-mode:normal"/><path fill="#ffb74d" d="M41.558 41.558a32.634 32.634 0 0 1 46.152 0 32.63 32.63 0 0 1 8.39 31.635l49.556 39.645 43.588-43.589h27.691V96.94l-49.229 70.766z" overflow="visible" style="isolation:auto;mix-blend-mode:normal"/></g></svg>