<svg xmlns="http://www.w3.org/2000/svg" width="512" height="512"><path d="M416.297 85.219c-3.732-3.918-8.893-6.335-14.612-6.335H238.547c-5.741 0-10.645 2.315-14.465 6.179L23.76 287.703c-10.683 10.808-10.313 28.48.97 39.763l151.335 151.336c11.283 11.283 29.081 11.778 39.763.97l195.52-197.84c4.802-4.801 10.981-11.705 10.981-20.298V100.56c0-6.004-2.3-11.422-6.032-15.34" style="fill:#03a9f4;stroke-width:.849889"/><circle cx="355.03" cy="-125.464" r="40.744" style="fill:#fafafa;stroke-width:.977663" transform="rotate(45)"/><path d="M475.185 44.097c-3.499-3.43-7.402-6.44-11.568-9.017a69 69 0 0 0-2.382-1.397 74 74 0 0 0-4.745-2.423 80 80 0 0 0-2.828-1.23 73 73 0 0 0-3.483-1.329c-.434-.14-1.14-.395-1.686-.562-13.232-4.293-27.548-4.7-41.16-2.092-12.974 2.465-25.377 7.618-36.518 14.675-.468.308-1.143.73-1.626 1.05a114 114 0 0 0-8.41 6.107 107 107 0 0 0-5.335 4.51 118 118 0 0 0-12.677 13.343c-.328.416-.924 1.163-1.255 1.574a124 124 0 0 0-4.556 6.252 112 112 0 0 0-5.16 8.362 108 108 0 0 0-7.268 15.86 106 106 0 0 0-2.745 8.801c-.09.375-.286 1.13-.384 1.514a95 95 0 0 0-1.41 6.81c-1.727 10.106-1.78 20.53.176 30.608.135.687.332 1.617.509 2.393 1.455 6.368 3.742 12.552 6.863 18.293.311.554.74 1.34 1.117 1.972a66.3 66.3 0 0 0 8.347 11.295c.443.477 1.067 1.14 1.596 1.673 9.18 9.368 21.214 15.76 33.982 18.615 15.06 3.44 30.963 2.21 45.643-2.382a103 103 0 0 0 11.061-4.15c9.678-4.269 18.717-9.956 26.827-16.74a128 128 0 0 0 3.263-2.842c1.996-1.8 4.076-3.786 5.985-5.792a121 121 0 0 0 6.67-7.554 117 117 0 0 0 8.603-12.186c.78-1.28 1.628-2.73 2.39-4.101 3.823-6.857 6.942-14.24 9.128-21.707 4.28-14.569 5.236-30.277 1.626-45.094-2.953-12.264-9.166-23.798-18.162-32.685zm-18.184 19.397c5.76 5.806 9.976 13.092 12.248 20.941 3.258 11.09 2.802 23.06-.325 34.125-4.466 15.795-14.125 29.933-26.697 40.407-11.262 9.379-25.062 15.947-39.67 17.76-10.805 1.361-22.089-.052-31.916-4.874-8.829-4.261-16.27-11.323-20.963-19.933-5.056-9.138-7.023-19.793-6.351-30.167.949-14.846 6.965-29.11 15.965-40.857 10.147-13.238 24.224-23.568 40.147-28.676 10.844-3.47 22.636-4.41 33.77-1.781 8.758 2.034 17 6.393 23.426 12.707q.184.172.366.348" style="fill:#cfd8dc;stroke-width:.887254"/><path d="M459.387 65.84c6.393 7.348 10.335 16.668 11.66 26.285 1.628 11.647-.348 23.633-4.816 34.457-6.65 16.176-18.664 30.013-33.51 39.207-11.087 6.843-23.92 11.115-37.004 11.31-10.169.158-20.48-2.293-29.163-7.676a49.6 49.6 0 0 1-6.211-4.538l-18.82 18.82c9.373 8.495 21.214 14.08 33.606 16.45 8.68 1.687 17.625 1.856 26.39.772.605-.086 1.474-.19 2.178-.302 13.277-1.97 26.064-6.792 37.58-13.646.477-.289 1.17-.7 1.66-1.01 1.79-1.11 3.44-2.182 5.172-3.388a122 122 0 0 0 6.202-4.646 108 108 0 0 0 5.062-4.295 118 118 0 0 0 12.676-13.342c.328-.416.924-1.163 1.256-1.574a124 124 0 0 0 4.555-6.252 112 112 0 0 0 5.16-8.362c4.345-7.761 7.745-16.058 10.013-24.662.09-.374.287-1.129.384-1.513a94 94 0 0 0 1.41-6.81c2.36-13.772 1.594-28.207-3.138-41.411-2.97-8.342-7.533-16.128-13.47-22.705z" style="fill:#b0bec5;stroke-width:.887254"/><path d="m416.148 85.065-48.018 48.018a41 41 0 0 1 .44.434 40.744 40.744 0 0 1 0 57.62 40.744 40.744 0 0 1-57.62 0 41 41 0 0 1-.434-.44L100.398 400.814q-.584.585-1.191 1.128l76.858 76.859c11.283 11.283 29.081 11.778 39.763.97l195.52-197.84c4.802-4.801 10.981-11.705 10.981-20.298V100.56c0-6.004-2.3-11.422-6.032-15.34z" style="fill:#0288d1;stroke-width:.849889"/><rect width="190.137" height="217.3" x="259.342" y="-43.977" ry="11.437" style="fill:#e3f2fd;stroke-width:.728631" transform="rotate(45)"/><path d="M281.703 219.51 128.048 373.165l59.136 59.136a11.413 11.413 0 0 0 16.176 0l137.479-137.48a11.413 11.413 0 0 0 0-16.175z" style="fill:#bbdefb;stroke-width:.728631"/><rect width="162.975" height="27.162" x="272.924" y="118.998" ry="13.581" style="fill:#90caf9;stroke-width:.619897" transform="rotate(45)"/><rect width="162.975" height="27.162" x="272.924" y="51.092" ry="13.581" style="fill:#90caf9;stroke-width:.619897" transform="rotate(45)"/><rect width="162.975" height="27.162" x="272.924" y="-16.814" ry="13.581" style="fill:#90caf9;stroke-width:.619897" transform="rotate(45)"/></svg>