<svg xmlns="http://www.w3.org/2000/svg" width="512" height="512"><path fill="#64b5f6" d="M491.506 357.564c7.008 20.016-4.213 42.16-25.064 49.46S423.008 404.016 416 384s-4.335-52.73 8.145-97.785c37.858 27.431 60.353 51.333 67.36 71.35zm-23.742-140.723c3.599 20.9-11.133 40.882-32.904 44.63-21.771 3.75-42.337-10.155-45.936-31.055s6.624-40.105 11.076-92.825c30.624 20.703 64.165 58.35 67.764 79.25" color="#000" overflow="visible" style="isolation:auto;mix-blend-mode:normal"/><path fill="#d7ccc8" d="M397.332 130C345.5 173.833 277.722 216.333 198 209.666 118.278 203 58.5 149.833 14.668 98 66.5 54.167 134.278 11.667 214 18.334 293.722 25 353.5 78.167 397.332 130" color="#000" overflow="visible" style="isolation:auto;mix-blend-mode:normal"/><circle cx="214.783" cy="96.437" r="80" fill="#795548" color="#000" overflow="visible" style="isolation:auto;mix-blend-mode:normal" transform="rotate(4.78)"/><path fill="#3e2723" d="M253.833 118a48 48 0 0 1-42.424 43.694 48 48 0 0 1-51.132-33.085 48 48 0 0 1 22.474-56.603 48 48 0 0 1 59.9 11L206 114z" color="#000" overflow="visible" style="isolation:auto;mix-blend-mode:normal"/><path fill="#64b5f6" d="M416 448c0 21.208-17.909 38.4-40 38.4s-40-17.192-40-38.4 13.333-51.2 40-89.6c26.667 38.4 40 68.392 40 89.6M303.405 295.967C299.841 314.714 314.434 332.637 336 336s41.94-9.11 45.504-27.856-6.562-35.974-10.972-83.262c-30.336 18.57-63.562 52.338-67.127 71.085" color="#000" overflow="visible" style="isolation:auto;mix-blend-mode:normal"/></svg>