<svg xmlns="http://www.w3.org/2000/svg" width="512" height="512"><ellipse cy="144" cx="256" style="isolation:auto;mix-blend-mode:normal" color="#000" overflow="visible" fill="#795548"/><ellipse cy="144" cx="256" style="isolation:auto;mix-blend-mode:normal" color="#000" overflow="visible" fill="#795548"/><ellipse cy="144" cx="256" style="isolation:auto;mix-blend-mode:normal" color="#000" overflow="visible" fill="#795548"/><path style="isolation:auto;mix-blend-mode:normal" d="M32 288c18.028-18.028 112.027 32.4 224 32 111.973-.4 207.942-48.23 224-32 16.058 16.23 16 56 0 72-48 48-144 56-224 56s-176-8-224-56c-16.349-16-18.028-53.972 0-72z" color="#000" overflow="visible" fill="#f48fb1"/><path style="isolation:auto;mix-blend-mode:normal" d="M468.662 284.643C436.634 284.283 352.227 319.657 256 320v96c80 0 176-8 224-56 16-16 16.058-55.77 0-72-2.258-2.282-6.097-3.299-11.338-3.357z" color="#000" overflow="visible" fill="#f06292"/><path style="isolation:auto;mix-blend-mode:normal" d="M474 259.775c0 14.259-10.802 51.839-21.151 60.519-10.35 8.68-20.85-11.031-20.85-26.373C432 278.578 442.5 264.807 453 256c10.5-8.807 21-10.485 21 3.775z" color="#000" overflow="visible" fill="#f5f5f5"/><path d="M444 288c0 15.111-14.403 46.705-28.202 48.02C402 337.332 388 308.443 388 292.185c0-16.259 14-22.853 28-24.186 14-1.333 28 4.889 28 20z" style="isolation:auto;mix-blend-mode:normal" color="#000" overflow="visible" fill="#f5f5f5"/><path style="isolation:auto;mix-blend-mode:normal" d="M400 305.663c0 17.778-18.518 55.907-36.26 58.373C346 366.502 328 333.448 328 314.32s18-27.818 36-30.32c18-2.502 36 3.885 36 21.663z" color="#000" overflow="visible" fill="#f5f5f5"/><path d="M336 325.333C336 344.89 315.424 384 295.712 384 276 384 256 344.889 256 323.848c0-21.04 20-27.848 40-27.848s40 9.778 40 29.333zM32 259.775c0 14.259 10.802 51.839 21.151 60.519 10.35 8.68 20.85-11.031 20.85-26.373C74 278.578 63.5 264.807 53 256c-10.5-8.807-21-10.485-21 3.775z" style="isolation:auto;mix-blend-mode:normal" color="#000" overflow="visible" fill="#f5f5f5"/><path style="isolation:auto;mix-blend-mode:normal" d="M61.798 289.98c0 15.112 14.404 46.706 28.202 48.02 13.798 1.314 27.798-27.575 27.798-43.833 0-16.26-14-22.853-28-24.186-14-1.334-28 4.889-28 20z" color="#000" overflow="visible" fill="#f5f5f5"/><path d="M182 315.983c0 17.778-18.518 50.599-36.26 47.979C128 361.342 110 323.128 110 304s18-22.658 36-20c18 2.658 36 14.205 36 31.983z" style="isolation:auto;mix-blend-mode:normal" color="#000" overflow="visible" fill="#f5f5f5"/><path style="isolation:auto;mix-blend-mode:normal" d="M256 325.333C256 344.89 235.424 384 215.712 384 196 384 176 344.889 176 323.848c0-21.04 20-27.848 40-27.848s40 9.778 40 29.333z" color="#000" overflow="visible" fill="#f5f5f5"/><path d="M32 88c32 24 56 0 104 0s76.575 16.155 120 16c43.425-.155 88-16 128-16s64 32 96 0 16 40 0 56-48 48-224 48-207.651-32-224-48c-16.349-16-32-80 0-56z" style="isolation:auto;mix-blend-mode:normal" color="#000" overflow="visible" fill="#f48fb1"/><path style="isolation:auto;mix-blend-mode:normal" d="M492.49 79.904C489.582 80.072 485.5 82.5 480 88c-32 32-56 0-96 0s-84.575 15.845-128 16v88c176 0 208-32 224-48 13.25-13.25 26.5-64.904 12.49-64.096z" color="#000" overflow="visible" fill="#f06292"/><path style="isolation:auto;mix-blend-mode:normal" d="M42.578 153.549c3.444-11.805 19.76-30.857 28.792-26.492 9.032 4.366 11.309 32.405 7.603 45.106-3.705 12.701-14.068 12.38-23.232 7.952-9.164-4.43-16.607-14.762-13.163-26.566z" color="#000" overflow="visible" fill="#f5f5f5"/><path style="isolation:auto;mix-blend-mode:normal" d="M68.654 126.422a8.119 8.119 0 0 0-.834.031v56.367c4.89-.497 9.071-3.524 11.153-10.658 3.705-12.701 1.43-40.74-7.602-45.105a6.536 6.536 0 0 0-2.717-.635z" color="#000" overflow="visible" fill="#eee"/><path d="M128.23 187.215c0-16-14.462-52.74-28.317-57.281C86.058 125.392 72 152.784 72 170c0 17.215 14.058 27.392 28.115 32 14.058 4.608 28.115 1.215 28.115-14.785z" style="isolation:auto;mix-blend-mode:normal" color="#000" overflow="visible" fill="#f5f5f5"/><path style="isolation:auto;mix-blend-mode:normal" d="M97.818 129.506v71.683c.765.285 1.53.56 2.297.811 14.058 4.608 28.115 1.215 28.115-14.785s-14.463-52.74-28.318-57.281a9.943 9.943 0 0 0-2.094-.428z" color="#000" overflow="visible" fill="#eee"/><path style="isolation:auto;mix-blend-mode:normal" d="M182 193.333C182 175.556 165.54 140 149.77 140 134 140 118 175.556 118 194.683 118 213.811 134 220 150 220s32-8.889 32-26.667z" color="#000" overflow="visible" fill="#f5f5f5"/><path style="isolation:auto;mix-blend-mode:normal" d="M149.77 140c-.813 0-1.625.117-2.436.299v79.635c.887.039 1.776.066 2.666.066 16 0 32-8.888 32-26.666S165.54 140 149.77 140z" color="#000" overflow="visible" fill="#eceff1"/><path d="M256 202.667C256 183.11 235.712 136 216 136s-40 47.111-40 68.152c0 21.04 20 27.848 40 27.848s40-9.778 40-29.333z" style="isolation:auto;mix-blend-mode:normal" color="#000" overflow="visible" fill="#f5f5f5"/><path style="isolation:auto;mix-blend-mode:normal" d="M216 136v96c20 0 40-9.778 40-29.334C256 183.11 235.712 136 216 136z" color="#000" overflow="visible" fill="#eceff1"/><path d="M469.142 153.549c-3.443-11.805-19.76-30.857-28.792-26.492-9.032 4.366-11.308 32.405-7.603 45.106s14.069 12.38 23.233 7.952c9.164-4.43 16.606-14.762 13.162-26.566z" style="isolation:auto;mix-blend-mode:normal" color="#000" overflow="visible" fill="#f5f5f5"/><path style="isolation:auto;mix-blend-mode:normal" d="M383.49 187.215c0-16 14.463-52.74 28.318-57.281 13.855-4.542 27.913 22.85 27.913 40.066 0 17.215-14.058 27.392-28.116 32-14.057 4.608-28.115 1.215-28.115-14.785z" color="#000" overflow="visible" fill="#f5f5f5"/><path d="M393.72 193.333c0-17.777-16.46-53.333-32.23-53.333-15.77 0-31.77 35.556-31.77 54.683 0 19.128 16 25.317 32 25.317s32-8.889 32-26.667z" style="isolation:auto;mix-blend-mode:normal" color="#000" overflow="visible" fill="#f5f5f5"/><path d="M361.49 140c-.812 0-1.624.117-2.436.299v79.635c.888.039 1.777.066 2.667.066 16 0 32-8.888 32-26.666S377.26 140 361.49 140z" style="isolation:auto;mix-blend-mode:normal" color="#000" overflow="visible" fill="#eceff1"/><path style="isolation:auto;mix-blend-mode:normal" d="M335.72 202.667c0-19.556-20.288-66.667-40-66.667-19.711 0-40 47.111-40 68.152 0 21.04 20 27.848 40 27.848s40-9.778 40-29.333z" color="#000" overflow="visible" fill="#f5f5f5"/><path d="M295.72 136v96c20 0 40-9.778 40-29.334 0-19.556-20.288-66.666-40-66.666z" style="isolation:auto;mix-blend-mode:normal" color="#000" overflow="visible" fill="#eceff1"/><path style="isolation:auto;mix-blend-mode:normal" d="M416.707 129.605v70.461c12.166-5.256 23.014-14.944 23.014-30.066 0-15.18-10.931-38.258-23.014-40.395zM445.645 126.762v56.129c3.34-.049 6.921-1.126 10.335-2.776 9.165-4.43 16.606-14.762 13.163-26.566-2.843-9.743-14.451-24.412-23.498-26.787zM466.686 249.22c-3.841.089-8.764 2.652-13.686 6.78a74.762 74.762 0 0 0-3.867 3.482v62.758c1.229-.28 2.474-.904 3.717-1.947 10.349-8.68 21.15-46.258 21.15-60.518 0-7.575-2.962-10.654-7.314-10.554zM418.621 267.838c-.588.016-1.178.066-1.767.11v67.9C430.32 333.094 444 302.726 444 288c0-14.167-12.305-20.522-25.379-20.162zM370.715 283.484a53.79 53.79 0 0 0-5.506.366v79.896c17.28-4.268 34.791-40.794 34.791-58.082 0-15.555-13.781-22.39-29.285-22.18zM297.041 296.016v87.918c19.297-1.688 38.959-39.483 38.959-58.6 0-19.216-19.312-28.985-38.959-29.318zM52.568 255.656v64.1c.194.182.389.374.582.537C63.5 328.973 74 309.263 74 293.92c0-15.342-10.5-29.113-21-37.92-.144-.12-.288-.226-.432-.344zM89.457 269.959v67.953c.181.028.362.07.543.088 13.798 1.314 27.799-27.575 27.799-43.834 0-16.259-14-22.852-28-24.186-.114-.01-.228-.011-.342-.021zM145.715 283.965v79.992l.025.004c17.741 2.62 36.26-30.2 36.26-47.979 0-17.777-18-29.324-36-31.982-.095-.014-.19-.021-.285-.035zM216 296c-.256 0-.511.015-.768.018v87.966c.16.005.321.016.48.016C235.426 384 256 344.89 256 325.334 256 305.778 236 296 216 296z" color="#000" overflow="visible" fill="#eee"/></svg>