<svg xmlns="http://www.w3.org/2000/svg" width="512" height="512"><g font-weight="400" font-family="Arial Black" letter-spacing="0" word-spacing="0"><g style="line-height:125%;-inkscape-font-specification:'Arial Black, '" font-size="120" fill="#263238"><path d="M190.118 154.102v194.635h-53.783V221.199q-13.054 9.921-25.325 16.056-12.14 6.136-30.546 11.749v-43.6q27.152-8.746 42.164-21.017 15.013-12.27 23.498-30.285h43.992zM248.208 252.268q0-54.566 19.58-76.366 19.712-21.8 59.919-21.8 19.32 0 31.72 4.83 12.402 4.699 20.234 12.4 7.833 7.572 12.271 16.057 4.57 8.355 7.31 19.581 5.353 21.409 5.353 44.645 0 52.085-17.623 76.235T326.27 352q-24.15 0-39.032-7.702-14.881-7.702-24.41-22.583-6.92-10.574-10.836-28.85-3.785-18.406-3.785-40.597zm52.738.13q0 36.551 6.396 49.997 6.527 13.315 18.798 13.315 8.094 0 13.968-5.613 6.005-5.744 8.746-18.015 2.872-12.27 2.872-38.248 0-38.118-6.527-51.172-6.397-13.184-19.32-13.184-13.185 0-19.059 13.445-5.874 13.316-5.874 49.475z"/></g><g style="line-height:125%;-inkscape-font-specification:'Arial Black, '" font-size="120" fill="#03a9f4"><path d="M82.64 389.353L98.913 457.8 80 462.298l-10.664-44.852q-3.762 4.58-7.564 7.765-3.756 3.172-9.76 6.685l-3.646-15.333q8.818-5.346 13.071-10.917 4.254-5.57 5.731-12.615l15.471-3.678zM111.277 419.018q-4.563-19.19.5-28.493 5.11-9.315 19.249-12.677 6.794-1.616 11.56-.954 4.754.616 8.152 2.67 3.388 2.007 5.658 4.62 2.305 2.556 4.208 6.275 3.672 7.081 5.615 15.253 4.356 18.317.177 28.283-4.178 9.967-19.327 13.57-8.493 2.018-14.37.554-5.878-1.464-10.474-5.9-3.317-3.14-6.222-9.24-2.87-6.157-4.726-13.961zm18.557-4.364q3.056 12.854 6.43 17.048 3.409 4.137 7.724 3.11 2.847-.676 4.443-3.141 1.632-2.522 1.57-7.067-.016-4.555-2.189-13.691-3.187-13.405-6.574-17.45-3.352-4.102-7.897-3.021-4.636 1.102-5.578 6.322-.952 5.174 2.071 17.89z"/></g><g style="line-height:125%;-inkscape-font-specification:'Arial Black, '" font-size="120" fill="#e91e63"><path d="M378.715 402.668l37.93 66.85L398.173 480l-24.855-43.805q-2.55 5.951-5.569 10.45-2.974 4.473-8.202 9.988l-8.497-14.975q7.622-8.296 10.387-15.436 2.765-7.14 2.168-14.98l15.11-8.574zM417.798 425.064q-10.634-18.741-8.157-30.045 2.522-11.329 16.331-19.164 6.636-3.765 11.837-4.523 5.175-.803 9.366.316 4.166 1.074 7.344 3.124 3.197 1.979 6.327 5.3 6.01 6.31 10.538 14.292 10.15 17.89 8.804 29.618-1.346 11.73-16.142 20.124-8.295 4.707-14.907 4.961-6.613.255-12.786-2.999-4.437-2.283-9.343-7.797-4.888-5.584-9.212-13.207zm18.139-10.232q7.123 12.554 11.94 15.925 4.837 3.302 9.052.91 2.78-1.577 3.703-4.65.943-3.143-.506-7.891-1.405-4.775-6.468-13.697-7.428-13.092-12.214-16.304-4.766-3.282-9.205-.763-4.529 2.569-3.926 8.332.577 5.718 7.624 18.138z"/></g><g style="line-height:125%;-inkscape-font-specification:'Arial Black, '" font-size="120" fill="#f44336"><path d="M84.004 47.192l-27.975 62.86-17.37-7.73 18.331-41.19q-5.642 1.328-10.487 1.546-4.802.237-11.554-.596l6.267-14.081q10.026 1.077 16.638-.728 6.612-1.805 11.942-6.404l14.208 6.323zM88.656 87.246q7.843-17.623 17.3-21.85 9.5-4.207 22.485 1.572 6.24 2.776 9.55 6.119 3.33 3.3 4.753 6.913 1.44 3.571 1.655 6.95.275 3.354-.454 7.374-1.348 7.683-4.688 15.188-7.486 16.822-16.648 22.088-9.163 5.267-23.076-.924-7.8-3.471-11.499-8.098-3.699-4.626-4.638-10.802-.714-4.41.647-10.875 1.423-6.488 4.613-13.655zm17.014 7.622q-5.254 11.804-5.12 17.066.194 5.239 4.157 7.002 2.614 1.164 5.318.195 2.765-.992 5.414-4.561 2.69-3.55 6.425-11.94 5.478-12.31 5.246-17.465-.17-5.177-4.344-7.035-4.258-1.895-8.088 1.603-3.811 3.456-9.008 15.135z"/></g><g style="line-height:125%;-inkscape-font-specification:'Arial Black, '" font-size="120" fill="#ff5722"><path d="M259.314 400.809l-25.435 72.531-20.042-7.028 16.666-47.527q-6.16 1.99-11.535 2.674-5.326.7-12.919.386l5.698-16.248q11.261.29 18.46-2.322 7.197-2.61 12.713-8.215l16.394 5.749zM268.133 444.982q7.13-20.334 17.276-25.899 10.195-5.548 25.178-.294 7.2 2.525 11.19 5.945 4.007 3.372 5.92 7.266 1.929 3.845 2.474 7.587.61 3.71.165 8.252-.803 8.678-3.84 17.337-6.806 19.41-16.53 26.106-9.723 6.697-25.776 1.067-9-3.156-13.539-7.97-4.539-4.816-6.145-11.607-1.197-4.844-.268-12.166.995-7.354 3.895-15.624zm19.636 6.94q-4.777 13.622-4.15 19.468.692 5.815 5.265 7.418 3.016 1.058 5.939-.266 2.988-1.356 5.613-5.57 2.674-4.198 6.069-13.878 4.98-14.205 4.254-19.923-.66-5.749-5.476-7.438-4.913-1.722-8.86 2.52-3.929 4.195-8.654 17.67z"/></g><g style="line-height:125%;-inkscape-font-specification:'Arial Black, '" font-size="120" fill="#fb8c00"><path d="M209.673 26.335l18.913 74.498L208 106.06l-12.393-48.816q-4.032 5.066-8.133 8.607-4.05 3.528-10.55 7.465l-4.237-16.689q9.543-5.986 14.097-12.141 4.553-6.156 6.05-13.876l16.84-4.274zM241.447 58.264q-5.303-20.886.074-31.133 5.426-10.26 20.816-14.166 7.395-1.877 12.61-1.234 5.204.594 8.95 2.78 3.734 2.138 6.257 4.954 2.561 2.754 4.701 6.785 4.129 7.674 6.387 16.568 5.061 19.936.662 30.892-4.398 10.956-20.887 15.142-9.244 2.347-15.688.845-6.445-1.502-11.538-6.272-3.676-3.375-6.95-9.99-3.238-6.677-5.394-15.171zm20.198-5.075q3.552 13.99 7.307 18.516 3.792 4.462 8.489 3.27 3.098-.787 4.8-3.506 1.74-2.782 1.598-7.745-.093-4.976-2.618-14.92-3.703-14.59-7.47-18.952-3.73-4.425-8.676-3.169-5.047 1.281-5.989 6.999-.954 5.667 2.56 19.507z"/></g><g style="line-height:125%;-inkscape-font-specification:'Arial Black, '" font-size="120" fill="#8bc34a"><path d="M399.764 36.136l-39.022 66.22-18.298-10.783 25.57-43.391q-6.43.758-11.836.386-5.36-.347-12.748-2.127l8.742-14.834q10.99 2.468 18.559 1.303 7.567-1.166 14.066-5.593l14.967 8.82zM399.847 81.181q10.94-18.564 21.972-22.056 11.077-3.465 24.756 4.596 6.573 3.874 9.824 8.003 3.277 4.085 4.398 8.276 1.147 4.146.955 7.923-.12 3.758-1.438 8.127-2.471 8.357-7.13 16.263-10.442 17.72-21.28 22.404-10.837 4.683-25.494-3.954-8.216-4.841-11.735-10.445t-3.777-12.578q-.234-4.984 2.097-11.987 2.402-7.022 6.852-14.572zM417.763 91.8q-7.328 12.436-7.847 18.293-.45 5.838 3.726 8.298 2.753 1.623 5.877.891 3.195-.75 6.588-4.376 3.437-3.599 8.645-12.437 7.642-12.968 8.039-18.718.467-5.768-3.93-8.36-4.486-2.643-9.18.754-4.668 3.353-11.918 15.655z"/></g></g></svg>