<svg xmlns="http://www.w3.org/2000/svg" width="512" height="512"><path d="m32 288 160 192M480 96l-64-64" style="fill:#689f38"/><path d="m32 320 160 160L480 96l-64-64-224 320-96-160Z" style="fill:#8bc34a"/><path d="m32 320 160 160L480 96l-64-64-224 320-96-160Z" style="fill:#9ccc65"/><path d="M416 32 192 352v128L480 96z" style="fill:#7cb342"/><path d="M454.285 70.285 192 420 58.302 267.397 32 320l160 160L480 96Z" style="fill:#7cb342"/><path d="M454.285 70.285 192 420v60L480 96z" style="fill:#689f38"/></svg>