<svg xmlns="http://www.w3.org/2000/svg" width="512" height="512"><g transform="translate(525.01 335.07)scale(.42666)"><rect width="416" height="32" x="-576" y="272" fill="#8d6e63" color="#000" overflow="visible" rx="37.501" ry="37.501" style="isolation:auto;mix-blend-mode:normal"/><path fill="#90a4ae" fill-rule="evenodd" d="M-532 304h72l-36 64m220-64h72l-36 64"/><circle cx="-496" cy="360" r="40" fill="#ff9800" color="#000" overflow="visible" style="isolation:auto;mix-blend-mode:normal"/><circle cx="-240" cy="360" r="40" fill="#ff9800" color="#000" overflow="visible" style="isolation:auto;mix-blend-mode:normal"/><path fill="#ffb74d" d="M-524.284 388.284a40 40 0 0 1 0-56.568 40 40 0 0 1 56.568 0L-496 360z" color="#000" overflow="visible" style="isolation:auto;mix-blend-mode:normal"/><circle cx="-496" cy="360" r="16" fill="#607d8b" color="#000" overflow="visible" style="isolation:auto;mix-blend-mode:normal"/><path fill="#ffb74d" d="M-268.284 388.284a40 40 0 0 1 0-56.568 40 40 0 0 1 56.568 0L-240 360z" color="#000" overflow="visible" style="isolation:auto;mix-blend-mode:normal"/><circle cx="-240" cy="360" r="16" fill="#607d8b" color="#000" overflow="visible" style="isolation:auto;mix-blend-mode:normal"/><path fill="#8d6e63" d="M-83.799 244.563a16 16 0 0 0-4.773.675l-92 27.428a15.967 15.967 0 0 0-10.762 19.906L-68.668 256a15.97 15.97 0 0 0-15.13-11.438z" color="#000" overflow="visible" style="isolation:auto;mix-blend-mode:normal"/><path fill="#3e2723" d="M-191.333 292.571a15.965 15.965 0 0 0 19.904 10.762l91.999-27.429A15.965 15.965 0 0 0-68.67 256z" color="#000" overflow="visible" style="isolation:auto;mix-blend-mode:normal"/><path fill="#8d6e63" d="M-652.201 244.563A15.97 15.97 0 0 0-667.332 256l122.666 36.572a15.967 15.967 0 0 0-10.762-19.906l-92-27.428a16 16 0 0 0-4.773-.675" color="#000" overflow="visible" style="isolation:auto;mix-blend-mode:normal"/><path fill="#3e2723" d="M-544.667 292.571a15.965 15.965 0 0 1-19.904 10.762l-91.999-27.429A15.965 15.965 0 0 1-667.33 256z" color="#000" overflow="visible" style="isolation:auto;mix-blend-mode:normal"/><path fill="#3e2723" d="M-576 288c0 8.864 7.136 16 16 16h384c8.864 0 16-7.136 16-16z" color="#000" overflow="visible" style="isolation:auto;mix-blend-mode:normal"/><path fill="#78909c" d="M-507.314 371.314a16 16 0 0 1 0-22.628 16 16 0 0 1 22.628 0L-496 360zm256.344.343a16 16 0 0 1 0-22.628 16 16 0 0 1 22.627 0l-11.314 11.314z" color="#000" overflow="visible" style="isolation:auto;mix-blend-mode:normal"/></g><path fill="#f44336" d="m459.054 341.824-60.292-16.155a4.45 4.45 0 0 1-3.153-5.46l16.156-60.292a4.45 4.45 0 0 1 5.46-3.153l60.292 16.155a4.45 4.45 0 0 1 3.152 5.46l-16.155 60.292a4.45 4.45 0 0 1-5.46 3.153" color="#000" overflow="visible" style="isolation:auto;mix-blend-mode:normal"/><path fill="#d32f2f" d="M459.054 341.824a4.45 4.45 0 0 0 5.46-3.153l16.155-60.291a4.44 4.44 0 0 0-.441-3.386l-84.177 48.6a4.44 4.44 0 0 0 2.711 2.075z" color="#000" overflow="visible" style="isolation:auto;mix-blend-mode:normal"/><circle cx="500.673" cy="175.697" r="31.209" fill="#ffcdd2" color="#000" overflow="visible" style="isolation:auto;mix-blend-mode:normal" transform="rotate(15)"/><path fill="#ffebee" d="M446.217 269.148a31.21 31.21 0 0 0-38.223 22.068 31.2 31.2 0 0 0 3.134 23.673l54.023-31.19a31.2 31.2 0 0 0-18.934-14.55z" color="#000" overflow="visible" style="isolation:auto;mix-blend-mode:normal"/><path fill="#263238" d="m425.08 314.322-.561 2.093-10.952-2.934.561-2.093 2.892-.055 22.42-32.461 7.784 2.085 3.133 39.309 2.53 1.507-.56 2.093-16.025-4.294.56-2.092 4.368.34-.77-10.868-13.823-3.704-5.967 9.063zm13.99-29.343-10.488 15.41 11.703 3.136-1.216-18.546z" font-family="Liberation Serif" font-weight="700" letter-spacing="0" style="line-height:125%;-inkscape-font-specification:&quot;Liberation Serif Bold&quot;" word-spacing="0"/><path fill="#8bc34a" d="m420.061 398.071-60.291 16.155a4.45 4.45 0 0 1-5.46-3.152l-16.156-60.292a4.45 4.45 0 0 1 3.153-5.46l60.291-16.155a4.45 4.45 0 0 1 5.461 3.152l16.155 60.292a4.45 4.45 0 0 1-3.153 5.46" color="#000" overflow="visible" style="isolation:auto;mix-blend-mode:normal"/><path fill="#689f38" d="M420.061 398.071a4.45 4.45 0 0 0 3.153-5.46l-16.155-60.292a4.45 4.45 0 0 0-2.075-2.71l-48.6 84.176c.988.57 2.193.761 3.386.441z" color="#000" overflow="visible" style="isolation:auto;mix-blend-mode:normal"/><circle cx="271.51" cy="457.56" r="31.209" fill="#dcedc8" color="#000" overflow="visible" style="isolation:auto;mix-blend-mode:normal" transform="rotate(-15)"/><path fill="#f1f8e9" d="M372.607 341.55a31.21 31.21 0 0 0-22.069 38.224 31.2 31.2 0 0 0 14.55 18.934l31.191-54.023a31.2 31.2 0 0 0-23.672-3.134z" color="#000" overflow="visible" style="isolation:auto;mix-blend-mode:normal"/><path fill="#263238" d="M384.881 360.092q-.44-1.64-1.12-2.722-.658-1.119-1.657-1.684-1.006-.594-2.383-.626-1.347-.04-3.14.44l-4.226 1.133 3.6 13.437 4.47-1.197q1.854-.497 2.939-1.312 1.115-.823 1.606-1.91.483-1.117.41-2.485-.051-1.405-.499-3.074m7.843 16.989q-1.025-3.827-3.563-5.152-2.508-1.333-7.098-.103l-5.259 1.41 4.194 15.653q1.475-.334 2.82-.663 1.14-.244 2.303-.525l1.824-.489q1.915-.513 3.099-1.447 1.183-.934 1.718-2.218.536-1.285.492-2.907-.013-1.631-.53-3.56zm-25.712 18.948-.563-2.1 5.05-2.187-8.804-32.86-5.46.661-.563-2.1 19.79-5.303q4.53-1.214 7.732-1.424t5.326.423q2.155.625 3.347 2.033 1.222 1.4 1.77 3.443.516 1.928.233 3.669-.252 1.733-1.091 3.222-.847 1.46-2.159 2.645-1.32 1.155-2.899 1.948 3.087-.518 5.453-.32 2.397.19 4.12 1.025 1.752.825 2.852 2.257 1.093 1.404 1.61 3.332.67 2.503.291 4.856t-2.038 4.432q-1.636 2.042-4.627 3.769-2.968 1.69-7.498 2.903-3.647.978-7.258 1.852-3.61.875-6.65 1.69z" font-family="Liberation Serif" font-weight="700" letter-spacing="0" style="line-height:125%;-inkscape-font-specification:&quot;Liberation Serif Bold&quot;" word-spacing="0"/><path fill="#03a9f4" d="M493.542 416h-62.419a4.45 4.45 0 0 1-4.458-4.458v-62.419a4.45 4.45 0 0 1 4.458-4.458h62.419a4.45 4.45 0 0 1 4.458 4.458v62.419a4.45 4.45 0 0 1-4.458 4.458" color="#000" overflow="visible" style="isolation:auto;mix-blend-mode:normal"/><path fill="#0288d1" d="M493.542 416a4.45 4.45 0 0 0 4.458-4.458v-62.419c0-1.235-.497-2.35-1.303-3.156l-68.73 68.73a4.44 4.44 0 0 0 3.156 1.303z" color="#000" overflow="visible" style="isolation:auto;mix-blend-mode:normal"/><circle cx="462.332" cy="380.332" r="31.209" fill="#bbdefb" color="#000" overflow="visible" style="isolation:auto;mix-blend-mode:normal"/><path fill="#e3f2fd" d="M462.332 349.123a31.21 31.21 0 0 0-31.209 31.21 31.2 31.2 0 0 0 9.154 22.054l44.11-44.11a31.2 31.2 0 0 0-22.055-9.154" color="#000" overflow="visible" style="isolation:auto;mix-blend-mode:normal"/><path fill="#263238" d="M464.68 399.841q-4.928 0-8.807-1.341-3.85-1.342-6.533-3.879t-4.112-6.182q-1.4-3.674-1.4-8.282 0-5.249 1.4-9.098 1.43-3.85 4.083-6.358 2.683-2.537 6.533-3.761 3.879-1.225 8.808-1.225 4.17 0 7.699.612 3.558.583 6.387 1.342l.175 9.39h-2.625l-.816-5.658q-1.838-1.254-4.142-1.924-2.304-.7-4.812-.7-3.062 0-5.483.904-2.42.875-4.112 2.916-1.662 2.041-2.537 5.337t-.875 8.136q0 4.257.875 7.407t2.508 5.22 3.995 3.12q2.392 1.02 5.396 1.02 3.295 0 5.745-.874 2.48-.875 3.879-2.07l.933-6.416h2.654l-.175 9.915q-1.254.495-2.975.933-1.691.437-3.645.787-1.925.32-3.996.525-2.07.204-4.024.204z" font-family="Liberation Serif" font-weight="700" letter-spacing="0" style="line-height:125%;-inkscape-font-specification:&quot;Liberation Serif Bold&quot;" word-spacing="0"/><g color="#000" transform="rotate(-45 -229.106 438.856)scale(.85219 .83888)"><path fill="#cfd8dc" d="M70 588h140v60H70z" overflow="visible" style="isolation:auto;mix-blend-mode:normal"/><ellipse cx="299.326" cy="564.373" fill="#cfd8dc" overflow="visible" rx="23.95" ry="58.842" style="isolation:auto;mix-blend-mode:normal" transform="matrix(.93069 .36582 -.34122 .93998 0 0)"/><circle cx="96" cy="616" r="40" fill="#cfd8dc" overflow="visible" style="isolation:auto;mix-blend-mode:normal"/><circle cx="96" cy="616" r="32" fill="#b0bec5" overflow="visible" style="isolation:auto;mix-blend-mode:normal"/><circle cx="138" cy="634" r="6" fill="#607d8b" overflow="visible" style="isolation:auto;mix-blend-mode:normal"/><ellipse cx="24.756" cy="671.23" fill="#cfd8dc" overflow="visible" rx="23.95" ry="58.842" style="isolation:auto;mix-blend-mode:normal" transform="matrix(-.93069 .36582 .34122 .93998 0 0)"/><circle cx="196" cy="616" r="40" fill="#cfd8dc" overflow="visible" style="isolation:auto;mix-blend-mode:normal"/><circle cx="196" cy="616" r="32" fill="#b0bec5" overflow="visible" style="isolation:auto;mix-blend-mode:normal"/><circle cx="196" cy="600" r="8" fill="#ffc107" overflow="visible" style="isolation:auto;mix-blend-mode:normal"/><circle cx="180" cy="616" r="8" fill="#689f38" overflow="visible" style="isolation:auto;mix-blend-mode:normal"/><circle cx="212" cy="616" r="8" fill="#2196f3" overflow="visible" style="isolation:auto;mix-blend-mode:normal"/><circle cx="196" cy="632" r="8" fill="#f44336" overflow="visible" style="isolation:auto;mix-blend-mode:normal"/><path fill="#2196f3" d="M116 614v4c0 2.216-1.784 4-4 4H80c-2.216 0-4-1.784-4-4v-4c0-2.216 1.784-4 4-4h32c2.216 0 4 1.784 4 4" overflow="visible" style="isolation:auto;mix-blend-mode:normal"/><path fill="#2196f3" d="M98 636h-4c-2.216 0-4-1.784-4-4v-32c0-2.216 1.784-4 4-4h4c2.216 0 4 1.784 4 4v32c0 2.216-1.784 4-4 4" overflow="visible" style="isolation:auto;mix-blend-mode:normal"/><circle cx="154" cy="634" r="6" fill="#607d8b" overflow="visible" style="isolation:auto;mix-blend-mode:normal"/></g><g transform="translate(160)"><circle cx="-81.812" cy="431.661" r="64" fill="#cfd8dc" transform="rotate(-.24)"/><path fill="#b0bec5" d="M-34.935 386.556a64 64 0 0 1 .38 90.509 64 64 0 0 1-90.51.38L-80 432z"/><path fill="#37474f" d="M-80.269 368a64 64 0 0 0-19.201 3.11l-3.01 6.351 22.297 13.41L-58 377.276l-3.103-6.409a64 64 0 0 0-19.166-2.865zm-45.046 26.142-6.9.938a64 64 0 0 0-11.753 36.51l5.084 4.773 19.688-16.991-6.12-25.23zm90.29-.379-5.908 25.28 19.83 16.826 5.074-4.844a64 64 0 0 0-12.104-36.383zm-45.08 13.083-24.744 20.19 10.047 27.52 29.793-.126 9.816-27.404zm-49.917 56.316-1.268 6.995a64 64 0 0 0 30.903 22.44l6.46-3.528-10.13-23.912zm100.282-.421-25.948 2.213-9.928 23.996 6.483 3.47a64 64 0 0 0 30.724-22.671z"/><path fill="#263238" d="m-35.025 393.764-5.909 25.279 19.83 16.826 5.038-4.808a64 64 0 0 0-.059-1.46 64 64 0 0 0-.307-4.576 64 64 0 0 0-.195-1.394 64 64 0 0 0-.85-5.047 64 64 0 0 0-.22-.9 64 64 0 0 0-1.479-5.405l-.148-.422a64 64 0 0 0-2.178-5.666 64 64 0 0 0-6.63-11.55zm-31.19 24.334L-80 432l-16.838 16.98 2.035 5.575 29.793-.125 9.817-27.405zm36.475 44.642-25.948 2.213-9.927 23.998 6.482 3.469.004-.002a64 64 0 0 0 5.93-2.387 64 64 0 0 0 15.965-10.521l.005-.006.008-.008a64 64 0 0 0 8.813-9.748zm-82.516 1.787-12.701 12.807a64 64 0 0 0 24.57 15.264l6.46-3.53-10.13-23.912z"/></g><g transform="rotate(14.439 333.08 2524.752)"><path fill="#e65100" fill-rule="evenodd" d="m-179.295 122.686-60.225 19.058a19.4 19.4 0 0 0-6.64 2.352c-9.378 5.444-12.621 17.555-7.242 27.049 5.377 9.492 17.727 13.071 30.282 1.267s27.4-30.835 43.825-49.726"/><ellipse cx="-175.529" cy="174.905" fill="#fb8c00" rx="47.656" ry="48.246" transform="rotate(.17)skewX(.004)"/><ellipse cx="-282.909" cy="86.832" fill="#ef6c00" rx="22.194" ry="22.333" transform="matrix(.86482 -.50208 .49286 .8701 0 0)"/><ellipse cx="-141.782" cy="82.14" fill="#e65100" rx="15.318" ry="15.508" transform="rotate(.17)skewX(.004)"/><ellipse cx="-143.486" cy="83.865" fill="#ffb74d" rx="10.212" ry="10.339" transform="rotate(.17)skewX(.004)"/><ellipse cx="-207.266" cy="82.122" fill="#e65100" rx="15.318" ry="15.508" transform="rotate(.17)skewX(.004)"/><ellipse cx="-205.567" cy="83.847" fill="#ffb74d" rx="10.212" ry="10.339" transform="rotate(.17)skewX(.004)"/><path fill="#e65100" fill-rule="evenodd" d="m-172.705 122.82 60.224 19.058a19.4 19.4 0 0 1 6.641 2.351c9.378 5.445 12.62 17.555 7.242 27.05-5.377 9.492-17.727 13.07-30.282 1.267s-27.4-30.835-43.825-49.727z"/><path fill="#ff9800" d="M-128.194 114.564c.064-21.926-23.694-46.387-47.522-46.458s-47.726 24.25-47.79 46.175c-.063 21.926 21.231 36.455 47.551 36.533s47.698-14.325 47.761-36.25"/><path fill="#f57c00" d="M-175.895 126.139a47.656 48.246.004 0 0-.105.004v96.48a47.656 48.246.004 0 0 47.621-48.098 47.656 48.246.004 0 0-47.516-48.386"/><ellipse cx="21.853" cy="263.691" fill="#e65100" rx="22.196" ry="22.331" transform="rotate(29.863)scale(-.99994 1)skewY(-.612)"/><path fill="#fb8c00" d="M-175.955 150.814c-.091 0-.18-.005-.272-.006V68.121c.171-.002.342-.016.512-.016 23.828.07 47.585 24.534 47.522 46.46-.064 21.925-21.442 36.327-47.762 36.25z"/><ellipse cx="-175.529" cy="119.765" fill="#ffb74d" rx="22.126" ry="13.785" transform="rotate(.17)skewX(.004)"/><ellipse cx="124.073" cy="175.529" fill="#ffb74d" rx="14.646" ry="11.914" transform="rotate(90.17)skewY(-.004)"/><ellipse cx="-175.529" cy="114.596" fill="#263238" rx="8.51" ry="3.446" transform="rotate(.17)skewX(.004)"/><path fill="#263238" d="M-175.855 112.352a1.71 1.71 0 0 1 1.697 1.728l-.05 17.231a1.71 1.71 0 0 1-1.707 1.718 1.71 1.71 0 0 1-1.697-1.728l.05-17.23a1.71 1.71 0 0 1 1.707-1.719"/><ellipse cx="-192.106" cy="97.694" fill="#263238" rx="5.446" ry="5.259" transform="rotate(.13)skewX(-.088)"/><ellipse cx="-158.106" cy="97.617" fill="#263238" rx="5.446" ry="5.259" transform="rotate(.13)skewX(-.088)"/></g><g color="#000"><path fill="#ffc107" d="M63.468 57.74c-8.115-2.5-16.045-.141-17.711 5.269-3.018 9.795 8.286 7.915 5.268 17.71-2.15 7.94-20.041-4.878-24.489-7.544L8.43 131.948l58.755 18.102c2.666-4.448 15.484-22.338 7.545-24.489-9.796-3.018-7.916 8.287-17.711 5.269-5.41-1.667-7.77-9.596-5.269-17.711s8.912-13.342 14.322-11.676c9.796 3.018 1.88 11.305 11.676 14.323 8.01 2.497 5.828-17.555 7.544-24.488-6.947-1.708-26.966.463-24.47-7.54 3.018-9.796 11.304-1.88 14.322-11.676 1.667-5.41-3.56-11.822-11.675-14.322z" overflow="visible" style="isolation:auto;mix-blend-mode:normal"/><path fill="#f44336" d="M118.852 69.44c2.5-8.114.141-16.044-5.269-17.71-9.795-3.018-7.915 8.286-17.71 5.268-7.94-2.15 4.878-20.04 7.544-24.488L44.644 14.402 26.542 73.157c4.448 2.666 22.338 15.484 24.489 7.545 3.018-9.796-8.287-7.916-5.269-17.711 1.667-5.41 9.596-7.77 17.711-5.269s13.342 8.913 11.676 14.322c-3.018 9.796-11.305 1.88-14.323 11.676-2.497 8.01 17.555 5.828 24.488 7.544 1.708-6.947-.463-26.966 7.54-24.47 9.796 3.018 1.88 11.304 11.676 14.322 5.41 1.667 11.822-3.56 14.322-11.675z" overflow="visible" style="isolation:auto;mix-blend-mode:normal"/><path fill="#2196f3" d="M51.772 113.106c-2.5 8.115-.14 16.045 5.27 17.711 9.795 3.018 7.915-8.286 17.71-5.268 7.94 2.15-4.878 20.041-7.545 24.489l58.773 18.107 18.103-58.755c-4.448-2.666-22.339-15.484-24.49-7.545-3.017 9.796 8.287 7.916 5.27 17.711-1.667 5.41-9.597 7.77-17.712 5.27s-13.342-8.913-11.675-14.323c3.018-9.796 11.304-1.88 14.322-11.676 2.498-8.01-17.555-5.828-24.487-7.544-1.709 6.947.463 26.966-7.54 24.47-9.796-3.018-1.88-11.304-11.676-14.322-5.41-1.667-11.822 3.56-14.323 11.675" overflow="visible" style="isolation:auto;mix-blend-mode:normal"/><path fill="#e53935" d="m102.96 33.234-44.524 23.55c1.635.113 3.33.412 5.037.938 8.115 2.5 13.342 8.913 11.676 14.322-3.018 9.796-11.305 1.88-14.323 11.676-2.497 8.01 17.555 5.828 24.488 7.544 1.708-6.947-.463-26.966 7.54-24.47 9.796 3.018 1.88 11.304 11.676 14.322 5.41 1.667 11.822-3.56 14.322-11.675s.141-16.045-5.269-17.711c-9.795-3.018-7.915 8.286-17.71 5.268-7.62-2.063 3.79-18.5 7.087-23.764M45.604 63.572 26.97 73.428c4.953 3.059 21.962 15.023 24.06 7.274 2.957-9.595-7.818-7.995-5.426-17.13" overflow="visible" style="isolation:auto;mix-blend-mode:normal"/><path fill="#1976d2" d="m144.083 109.39-19.22 10.166c-1.256 4.075-6.065 6.416-11.829 6.257l-45.809 24.23 58.755 18.102z" overflow="visible" style="isolation:auto;mix-blend-mode:normal"/><path fill="#ffa000" d="M85.288 91.294 66.089 101.45c9.767 3.023 1.868 11.3 11.658 14.317 8.004 2.495 5.831-17.525 7.54-24.472zM54.23 107.722 8.429 131.948l58.755 18.102c2.666-4.448 15.484-22.338 7.545-24.489-9.796-3.018-7.916 8.287-17.711 5.269-5.41-1.667-7.77-9.596-5.269-17.711a22 22 0 0 1 2.481-5.397" overflow="visible" style="isolation:auto;mix-blend-mode:normal"/><path fill="#689f38" d="M176.163 108.317c8.278-1.892 13.965-7.9 12.704-13.418-2.284-9.992-11.134-2.712-13.418-12.704-2.108-7.951 19.795-5.796 24.98-5.71l-13.705-59.953-59.934 13.7c-.086 5.185-2.241 27.088 5.71 24.98 9.992-2.284 2.712-11.134 12.704-13.418 5.518-1.261 11.526 4.426 13.418 12.704 1.893 8.278-1.047 16.011-6.566 17.273-9.992 2.284-7.28-8.85-17.272-6.566-8.185 1.842 3.73 18.117 5.71 24.979 6.871-1.994 23.122-13.884 24.962-5.705 2.285 9.992-8.85 7.28-6.565 17.272 1.261 5.519 8.994 8.458 17.272 6.566" overflow="visible" style="isolation:auto;mix-blend-mode:normal"/><path fill="#8bc34a" d="m140.49 90.168 11.548-18.393c-9.97 2.265-7.268-8.853-17.254-6.57-8.18 1.84 3.712 18.093 5.705 24.963zm18.682-29.755 27.552-43.881-59.934 13.7c-.086 5.185-2.241 27.088 5.71 24.98 9.992-2.284 2.712-11.134 12.704-13.418 5.518-1.261 11.526 4.426 13.418 12.704.465 2.034.635 4.034.55 5.915" overflow="visible" style="isolation:auto;mix-blend-mode:normal"/></g><g color="#000" transform="rotate(-12.862 913.356 -1597.005)scale(.46816)"><path fill="#f44336" d="M-464 96c17.728 0 32 14.272 32 32v208c0 17.728-14.272 32-32 32s-32-14.272-32-32V128c0-17.728 14.272-32 32-32" overflow="visible" style="isolation:auto;mix-blend-mode:normal"/><path fill="#e91e63" d="M-304 128c17.728 0 32 14.272 32 32v144c0 17.728-14.272 32-32 32s-32-14.272-32-32V160c0-17.728 14.272-32 32-32" overflow="visible" style="isolation:auto;mix-blend-mode:normal"/><path fill="#2196f3" d="M-144 160c17.728 0 32 14.272 32 32v80c0 17.728-14.272 32-32 32s-32-14.272-32-32v-80c0-17.728 14.272-32 32-32" overflow="visible" style="isolation:auto;mix-blend-mode:normal"/><path fill="#ffc107" d="M-384 112c17.728 0 32 14.272 32 32v176c0 17.728-14.272 32-32 32s-32-14.272-32-32V144c0-17.728 14.272-32 32-32" overflow="visible" style="isolation:auto;mix-blend-mode:normal"/><path fill="#7cb342" d="M-224 144c17.728 0 32 14.272 32 32v112c0 17.728-14.272 32-32 32s-32-14.272-32-32V176c0-17.728 14.272-32 32-32" overflow="visible" style="isolation:auto;mix-blend-mode:normal"/><path fill="#ffa000" d="m-352 207.365-64 64.002V320c0 17.728 14.272 32 32 32s32-14.272 32-32z" overflow="visible" style="isolation:auto;mix-blend-mode:normal"/><path fill="#d32f2f" d="m-432 200-64 64v72c0 17.728 14.272 32 32 32s32-14.272 32-32z" overflow="visible" style="isolation:auto;mix-blend-mode:normal"/><circle cx="-464" cy="128" r="16" fill="#fff" overflow="visible" style="isolation:auto;mix-blend-mode:normal"/><circle cx="-464" cy="336" r="16" fill="#fff" overflow="visible" style="isolation:auto;mix-blend-mode:normal"/><circle cx="-384" cy="320" r="16" fill="#fff" overflow="visible" style="isolation:auto;mix-blend-mode:normal"/><circle cx="-384" cy="144" r="16" fill="#fff" overflow="visible" style="isolation:auto;mix-blend-mode:normal"/><circle cx="-304" cy="160" r="16" fill="#fff" overflow="visible" style="isolation:auto;mix-blend-mode:normal"/><path fill="#c2185b" d="m-272 209.365-64 64V304c0 17.728 14.272 32 32 32s32-14.272 32-32z" overflow="visible" style="isolation:auto;mix-blend-mode:normal"/><circle cx="-304" cy="304" r="16" fill="#fff" overflow="visible" style="isolation:auto;mix-blend-mode:normal"/><path fill="#689f38" d="m-192 207.365-64 64V288c0 17.728 14.272 32 32 32s32-14.272 32-32z" overflow="visible" style="isolation:auto;mix-blend-mode:normal"/><circle cx="-224" cy="288" r="16" fill="#fff" overflow="visible" style="isolation:auto;mix-blend-mode:normal"/><circle cx="-224" cy="176" r="16" fill="#fff" overflow="visible" style="isolation:auto;mix-blend-mode:normal"/><circle cx="-144" cy="192" r="16" fill="#fff" overflow="visible" style="isolation:auto;mix-blend-mode:normal"/><path fill="#1976d2" d="m-112 199.365-64 64V272c0 17.728 14.272 32 32 32s32-14.272 32-32z" overflow="visible" style="isolation:auto;mix-blend-mode:normal"/><circle cx="-144" cy="272" r="16" fill="#fff" overflow="visible" style="isolation:auto;mix-blend-mode:normal"/><path fill="#8d6e63" d="M-381.373 195.373a7.98 7.98 0 0 1 0 11.313L-508.45 333.765a7.983 7.983 0 0 1-11.313 0 7.98 7.98 0 0 1 0-11.314l127.078-127.078a7.98 7.98 0 0 1 11.313 0z" overflow="visible" style="isolation:auto;mix-blend-mode:normal"/><circle cx="-131.522" cy="415.82" r="24" fill="#b0bec5" overflow="visible" style="isolation:auto;mix-blend-mode:normal" transform="rotate(45)"/><path fill="#78909c" d="m-370.826 183.346-33.877 33.877A24 24 0 0 0-404 218a24 24 0 0 0 33.941 0 24 24 0 0 0 0-33.941 24 24 0 0 0-.767-.713" overflow="visible" style="isolation:auto;mix-blend-mode:normal"/><path fill="#8d6e63" d="M-308.627 205.373a7.98 7.98 0 0 0 0 11.313l127.078 127.079a7.983 7.983 0 0 0 11.314 0 7.98 7.98 0 0 0 0-11.314l-127.079-127.078a7.98 7.98 0 0 0-11.313 0" overflow="visible" style="isolation:auto;mix-blend-mode:normal"/><g transform="rotate(-90 -302.97 211.03)"><circle cx="363.453" cy="-65.012" r="24" fill="#b0bec5" overflow="visible" style="isolation:auto;mix-blend-mode:normal" transform="rotate(135)scale(1 -1)"/><path fill="#78909c" d="m-319.174 193.346 33.877 33.877A24 24 0 0 1-286 228a24 24 0 0 1-33.941 0 24 24 0 0 1 0-33.941 24 24 0 0 1 .767-.713" overflow="visible" style="isolation:auto;mix-blend-mode:normal"/></g></g><g transform="rotate(45 8.635 823.632)scale(1.07786)"><path fill="#f44336" fill-rule="evenodd" d="m-288 32-64 64h64z"/><path fill="#8bc34a" fill-rule="evenodd" d="m-288 32 64 64h-64z"/><path fill="#03a9f4" fill-rule="evenodd" d="m-288 192 64-96h-64z"/><path fill="#ffc107" fill-rule="evenodd" d="m-288 192-64-96h64z"/><path fill="#689f38" d="m-256 64-32 32h64z" color="#000" overflow="visible" style="isolation:auto;mix-blend-mode:normal"/><path fill="#ffa000" d="m-288 96-38.4 38.4L-288 192z" color="#000" overflow="visible" style="isolation:auto;mix-blend-mode:normal"/><rect width="136" height="4" x="-356" y="94" fill="#8d6e63" color="#000" overflow="visible" rx="1.856" ry="1.856" style="isolation:auto;mix-blend-mode:normal"/><path fill="#8d6e63" d="M-290 194V30c0-1.108.892-2 2-2s2 .892 2 2v164c0 1.108-.892 2-2 2s-2-.892-2-2" color="#000" overflow="visible" style="isolation:auto;mix-blend-mode:normal"/><path fill="#607d8b" fill-rule="evenodd" d="M-288.03 189.973A2 2 0 0 0-290 192c0 8.146.857 13.86 2.564 17.902s4.544 6.44 7.811 7.063c6.534 1.244 13.617-3.229 20.617-7.229s13.917-7.527 17.883-6.771c1.983.378 3.522 1.479 4.877 4.687S-234 216.146-234 224a2 2 0 1 0 4 0c0-8.146-.857-13.86-2.564-17.902s-4.544-6.44-7.811-7.063c-6.534-1.244-13.617 3.229-20.617 7.229s-13.917 7.527-17.883 6.771c-1.983-.378-3.522-1.479-4.877-4.687S-286 199.854-286 192a2 2 0 0 0-2.03-2.027" color="#000" font-family="sans-serif" font-weight="400" overflow="visible" style="line-height:normal;text-indent:0;text-align:start;text-decoration-line:none;text-decoration-style:solid;text-decoration-color:#000;text-transform:none;block-progression:tb;isolation:auto;mix-blend-mode:normal"/><path fill="#f44336" fill-rule="evenodd" d="m-288 32-64 64h64z"/><path fill="#8bc34a" fill-rule="evenodd" d="m-288 32 64 64h-64z"/><path fill="#ffc107" fill-rule="evenodd" d="m-288 192-64-96h64z"/><path fill="#ffa000" d="m-288 96-38.4 38.4L-288 192z" color="#000" overflow="visible" style="isolation:auto;mix-blend-mode:normal"/><path fill="#03a9f4" fill-rule="evenodd" d="m-288 192 64-96h-64z"/><path fill="#0288d1" d="M-288 96v.451l38.22 38.219L-224 96z" color="#000" overflow="visible" style="isolation:auto;mix-blend-mode:normal"/><path fill="#689f38" d="m-256 64-32 32h64z" color="#000" overflow="visible" style="isolation:auto;mix-blend-mode:normal"/><rect width="136" height="4" x="-356" y="94" fill="#8d6e63" color="#000" overflow="visible" rx="1.856" ry="1.856" style="isolation:auto;mix-blend-mode:normal"/><path fill="#d32f2f" d="m-288 32-32.195 32.195L-288.391 96h.391z" color="#000" overflow="visible" style="isolation:auto;mix-blend-mode:normal"/><path fill="#8d6e63" d="M-290 194V30c0-1.108.892-2 2-2s2 .892 2 2v164c0 1.108-.892 2-2 2s-2-.892-2-2" color="#000" overflow="visible" style="isolation:auto;mix-blend-mode:normal"/><path fill="#607d8b" fill-rule="evenodd" d="M-288.03 189.973A2 2 0 0 0-290 192c0 8.146.857 13.86 2.564 17.902s4.544 6.44 7.811 7.063c6.534 1.244 13.617-3.229 20.617-7.229s13.917-7.527 17.883-6.771c1.983.378 3.522 1.479 4.877 4.687S-234 216.146-234 224a2 2 0 1 0 4 0c0-8.146-.857-13.86-2.564-17.902s-4.544-6.44-7.811-7.063c-6.534-1.244-13.617 3.229-20.617 7.229s-13.917 7.527-17.883 6.771c-1.983-.378-3.522-1.479-4.877-4.687S-286 199.854-286 192a2 2 0 0 0-2.03-2.027" color="#000" font-family="sans-serif" font-weight="400" overflow="visible" style="line-height:normal;text-indent:0;text-align:start;text-decoration-line:none;text-decoration-style:solid;text-decoration-color:#000;text-transform:none;block-progression:tb;isolation:auto;mix-blend-mode:normal"/></g></svg>