<svg xmlns="http://www.w3.org/2000/svg" width="512" height="512"><g transform="matrix(.42666 0 0 .42666 525.01 335.07)"><rect ry="37.501" y="272" x="-576" height="32" width="416" style="isolation:auto;mix-blend-mode:normal" rx="37.501" color="#000" overflow="visible" fill="#8d6e63"/><path d="M-532 304h72l-36 64M-276 304h72l-36 64" fill="#90a4ae" fill-rule="evenodd"/><circle r="40" cy="360" cx="-496" style="isolation:auto;mix-blend-mode:normal" color="#000" overflow="visible" fill="#ff9800"/><circle style="isolation:auto;mix-blend-mode:normal" cx="-240" cy="360" r="40" color="#000" overflow="visible" fill="#ff9800"/><path d="M-524.284 388.284a40 40 0 0 1 0-56.568 40 40 0 0 1 56.568 0L-496 360z" style="isolation:auto;mix-blend-mode:normal" color="#000" overflow="visible" fill="#ffb74d"/><circle style="isolation:auto;mix-blend-mode:normal" cx="-496" cy="360" r="16" color="#000" overflow="visible" fill="#607d8b"/><path style="isolation:auto;mix-blend-mode:normal" d="M-268.284 388.284a40 40 0 0 1 0-56.568 40 40 0 0 1 56.568 0L-240 360z" color="#000" overflow="visible" fill="#ffb74d"/><circle r="16" cy="360" cx="-240" style="isolation:auto;mix-blend-mode:normal" color="#000" overflow="visible" fill="#607d8b"/><path d="M-83.799 244.563c-1.575-.017-3.18.2-4.773.675l-92 27.428a15.967 15.967 0 0 0-10.762 19.906L-68.668 256a15.966 15.966 0 0 0-15.13-11.438z" style="isolation:auto;mix-blend-mode:normal" color="#000" overflow="visible" fill="#8d6e63"/><path style="isolation:auto;mix-blend-mode:normal" d="M-191.333 292.571a15.965 15.965 0 0 0 19.904 10.762l91.999-27.429A15.965 15.965 0 0 0-68.67 256z" color="#000" overflow="visible" fill="#3e2723"/><path d="M-652.201 244.563A15.966 15.966 0 0 0-667.332 256l122.666 36.572a15.967 15.967 0 0 0-10.762-19.906l-92-27.428a16.086 16.086 0 0 0-4.773-.675z" style="isolation:auto;mix-blend-mode:normal" color="#000" overflow="visible" fill="#8d6e63"/><path d="M-544.667 292.571a15.965 15.965 0 0 1-19.904 10.762l-91.999-27.429A15.965 15.965 0 0 1-667.33 256z" style="isolation:auto;mix-blend-mode:normal" color="#000" overflow="visible" fill="#3e2723"/><path d="M-576 288c0 8.864 7.136 16 16 16h384c8.864 0 16-7.136 16-16h-416z" style="isolation:auto;mix-blend-mode:normal" color="#000" overflow="visible" fill="#3e2723"/><path d="M-507.314 371.314a16 16 0 0 1 0-22.628 16 16 0 0 1 22.628 0L-496 360zM-250.97 371.657a16 16 0 0 1 0-22.628 16 16 0 0 1 22.627 0l-11.314 11.314z" style="isolation:auto;mix-blend-mode:normal" color="#000" overflow="visible" fill="#78909c"/></g><path style="isolation:auto;mix-blend-mode:normal" d="M459.054 341.824l-60.292-16.155a4.449 4.449 0 0 1-3.153-5.46l16.156-60.292a4.449 4.449 0 0 1 5.46-3.153l60.292 16.155a4.449 4.449 0 0 1 3.152 5.46l-16.155 60.292a4.449 4.449 0 0 1-5.46 3.153z" color="#000" overflow="visible" fill="#f44336"/><path style="isolation:auto;mix-blend-mode:normal" d="M459.054 341.824a4.449 4.449 0 0 0 5.46-3.153l16.155-60.291a4.444 4.444 0 0 0-.441-3.386l-84.177 48.6a4.444 4.444 0 0 0 2.711 2.075l60.292 16.155z" color="#000" overflow="visible" fill="#d32f2f"/><circle style="isolation:auto;mix-blend-mode:normal" cx="500.673" cy="175.697" r="31.209" transform="rotate(15)" color="#000" overflow="visible" fill="#ffcdd2"/><path style="isolation:auto;mix-blend-mode:normal" d="M446.217 269.148a31.21 31.21 0 0 0-38.223 22.068 31.21 31.21 0 0 0 3.134 23.673l54.023-31.19a31.21 31.21 0 0 0-18.934-14.55z" color="#000" overflow="visible" fill="#ffebee"/><path style="line-height:125%;-inkscape-font-specification:'Liberation Serif Bold'" d="M425.08 314.322l-.561 2.093-10.952-2.934.561-2.093 2.892-.055 22.42-32.461 7.784 2.085 3.133 39.309 2.53 1.507-.56 2.093-16.025-4.294.56-2.092 4.368.34-.77-10.868-13.823-3.704-5.967 9.063 4.41 2.011zm13.99-29.343l-10.488 15.41 11.703 3.136-1.216-18.546z" font-weight="700" font-family="Liberation Serif" letter-spacing="0" word-spacing="0" fill="#263238"/><path style="isolation:auto;mix-blend-mode:normal" d="M420.061 398.071l-60.291 16.155a4.449 4.449 0 0 1-5.46-3.152l-16.156-60.292a4.449 4.449 0 0 1 3.153-5.46l60.291-16.155a4.449 4.449 0 0 1 5.461 3.152l16.155 60.292a4.449 4.449 0 0 1-3.153 5.46z" color="#000" overflow="visible" fill="#8bc34a"/><path style="isolation:auto;mix-blend-mode:normal" d="M420.061 398.071a4.449 4.449 0 0 0 3.153-5.46l-16.155-60.292a4.445 4.445 0 0 0-2.075-2.71l-48.6 84.176c.988.57 2.193.761 3.386.441l60.291-16.155z" color="#000" overflow="visible" fill="#689f38"/><circle style="isolation:auto;mix-blend-mode:normal" cx="271.51" cy="457.56" r="31.209" transform="rotate(-15)" color="#000" overflow="visible" fill="#dcedc8"/><path style="isolation:auto;mix-blend-mode:normal" d="M372.607 341.55a31.21 31.21 0 0 0-22.069 38.224 31.21 31.21 0 0 0 14.55 18.934l31.191-54.023a31.21 31.21 0 0 0-23.672-3.134z" color="#000" overflow="visible" fill="#f1f8e9"/><path style="line-height:125%;-inkscape-font-specification:'Liberation Serif Bold'" d="M384.881 360.092q-.44-1.64-1.12-2.722-.658-1.119-1.657-1.684-1.006-.594-2.383-.626-1.347-.04-3.14.44l-4.226 1.133 3.6 13.437 4.47-1.197q1.854-.497 2.939-1.312 1.115-.823 1.606-1.91.483-1.117.41-2.485-.051-1.405-.499-3.074zm7.843 16.989q-1.025-3.827-3.563-5.152-2.508-1.333-7.098-.103l-5.259 1.41 4.194 15.653q1.475-.334 2.82-.663 1.14-.244 2.303-.525l1.824-.489q1.915-.513 3.099-1.447 1.183-.934 1.718-2.218.536-1.285.492-2.907-.013-1.631-.53-3.56zm-25.712 18.948l-.563-2.1 5.05-2.187-8.804-32.86-5.46.661-.563-2.1 19.79-5.303q4.53-1.214 7.732-1.424 3.201-.21 5.326.423 2.155.625 3.347 2.033 1.222 1.4 1.77 3.443.516 1.928.233 3.669-.252 1.733-1.091 3.222-.847 1.46-2.159 2.645-1.32 1.155-2.899 1.948 3.087-.518 5.453-.32 2.397.19 4.12 1.025 1.752.825 2.852 2.257 1.093 1.404 1.61 3.332.67 2.503.291 4.856-.38 2.353-2.038 4.432-1.636 2.042-4.627 3.769-2.968 1.69-7.498 2.903-3.647.978-7.258 1.852-3.61.875-6.65 1.69l-7.964 2.134z" font-weight="700" font-family="Liberation Serif" letter-spacing="0" word-spacing="0" fill="#263238"/><path d="M493.542 416h-62.419a4.449 4.449 0 0 1-4.458-4.458v-62.419a4.449 4.449 0 0 1 4.458-4.458h62.419a4.449 4.449 0 0 1 4.458 4.458v62.419a4.449 4.449 0 0 1-4.458 4.458z" style="isolation:auto;mix-blend-mode:normal" color="#000" overflow="visible" fill="#03a9f4"/><path d="M493.542 416a4.449 4.449 0 0 0 4.458-4.458v-62.419c0-1.235-.497-2.35-1.303-3.156l-68.73 68.73a4.444 4.444 0 0 0 3.156 1.303h62.419z" style="isolation:auto;mix-blend-mode:normal" color="#000" overflow="visible" fill="#0288d1"/><circle r="31.209" cy="380.332" cx="462.332" style="isolation:auto;mix-blend-mode:normal" color="#000" overflow="visible" fill="#bbdefb"/><path d="M462.332 349.123a31.21 31.21 0 0 0-31.209 31.21 31.21 31.21 0 0 0 9.154 22.054l44.11-44.11a31.21 31.21 0 0 0-22.055-9.154z" style="isolation:auto;mix-blend-mode:normal" color="#000" overflow="visible" fill="#e3f2fd"/><path style="line-height:125%;-inkscape-font-specification:'Liberation Serif Bold'" d="M464.68 399.841q-4.928 0-8.807-1.341-3.85-1.342-6.533-3.879-2.683-2.537-4.112-6.182-1.4-3.674-1.4-8.282 0-5.249 1.4-9.098 1.43-3.85 4.083-6.358 2.683-2.537 6.533-3.761 3.879-1.225 8.808-1.225 4.17 0 7.699.612 3.558.583 6.387 1.342l.175 9.39h-2.625l-.816-5.658q-1.838-1.254-4.142-1.924-2.304-.7-4.812-.7-3.062 0-5.483.904-2.42.875-4.112 2.916-1.662 2.041-2.537 5.337-.875 3.295-.875 8.136 0 4.257.875 7.407.875 3.15 2.508 5.22t3.995 3.12q2.392 1.02 5.396 1.02 3.295 0 5.745-.874 2.48-.875 3.879-2.07l.933-6.416h2.654l-.175 9.915q-1.254.495-2.975.933-1.691.437-3.645.787-1.925.32-3.996.525-2.07.204-4.024.204z" font-weight="700" font-family="Liberation Serif" letter-spacing="0" word-spacing="0" fill="#263238"/><g transform="rotate(-45 -229.106 438.856) scale(.85219 .83888)" color="#000"><path style="isolation:auto;mix-blend-mode:normal" overflow="visible" fill="#cfd8dc" d="M70 588h140v60H70z"/><ellipse transform="matrix(.93069 .36582 -.34122 .93998 0 0)" ry="58.842" rx="23.95" style="isolation:auto;mix-blend-mode:normal" cx="299.326" cy="564.373" overflow="visible" fill="#cfd8dc"/><circle r="40" cy="616" cx="96" style="isolation:auto;mix-blend-mode:normal" overflow="visible" fill="#cfd8dc"/><circle style="isolation:auto;mix-blend-mode:normal" cx="96" cy="616" r="32" overflow="visible" fill="#b0bec5"/><circle r="6" cy="634" cx="138" style="isolation:auto;mix-blend-mode:normal" overflow="visible" fill="#607d8b"/><ellipse cy="671.23" cx="24.756" style="isolation:auto;mix-blend-mode:normal" rx="23.95" ry="58.842" transform="matrix(-.93069 .36582 .34122 .93998 0 0)" overflow="visible" fill="#cfd8dc"/><circle style="isolation:auto;mix-blend-mode:normal" cx="196" cy="616" r="40" overflow="visible" fill="#cfd8dc"/><circle r="32" cy="616" cx="196" style="isolation:auto;mix-blend-mode:normal" overflow="visible" fill="#b0bec5"/><circle r="8" cy="600" cx="196" style="isolation:auto;mix-blend-mode:normal" overflow="visible" fill="#ffc107"/><circle style="isolation:auto;mix-blend-mode:normal" cx="180" cy="616" r="8" overflow="visible" fill="#689f38"/><circle r="8" cy="616" cx="212" style="isolation:auto;mix-blend-mode:normal" overflow="visible" fill="#2196f3"/><circle style="isolation:auto;mix-blend-mode:normal" cx="196" cy="632" r="8" overflow="visible" fill="#f44336"/><path d="M116 614v4c0 2.216-1.784 4-4 4H80c-2.216 0-4-1.784-4-4v-4c0-2.216 1.784-4 4-4h32c2.216 0 4 1.784 4 4z" style="isolation:auto;mix-blend-mode:normal" overflow="visible" fill="#2196f3"/><path style="isolation:auto;mix-blend-mode:normal" d="M98 636h-4c-2.216 0-4-1.784-4-4v-32c0-2.216 1.784-4 4-4h4c2.216 0 4 1.784 4 4v32c0 2.216-1.784 4-4 4z" overflow="visible" fill="#2196f3"/><circle style="isolation:auto;mix-blend-mode:normal" cx="154" cy="634" r="6" overflow="visible" fill="#607d8b"/></g><g transform="translate(160)"><circle transform="rotate(-.24)" cx="-81.812" cy="431.661" r="64" fill="#cfd8dc"/><path d="M-34.935 386.556a64 64 0 0 1 .38 90.509 64 64 0 0 1-90.51.38L-80 432z" fill="#b0bec5"/><path d="M-80.269 368a64 64 0 0 0-19.201 3.11l-3.01 6.351 22.297 13.41L-58 377.276l-3.103-6.409a64 64 0 0 0-19.166-2.865zm-45.046 26.142l-6.9.938a64 64 0 0 0-11.753 36.51l5.084 4.773 19.688-16.991-6.12-25.23zm90.29-.379l-5.908 25.28 19.83 16.826 5.074-4.844a64 64 0 0 0-12.104-36.383l-6.893-.879zm-45.08 13.083l-24.744 20.19 10.047 27.52 29.793-.126 9.816-27.404-24.913-20.18zm-49.917 56.316l-1.268 6.995a64 64 0 0 0 30.903 22.44l6.46-3.528-10.13-23.912-25.965-1.995zm100.282-.421l-25.948 2.213-9.928 23.996 6.483 3.47a64 64 0 0 0 30.724-22.671l-1.33-7.008z" fill="#37474f"/><path d="M-35.025 393.764l-5.909 25.279 19.83 16.826 5.038-4.808a64 64 0 0 0-.059-1.46 64 64 0 0 0-.307-4.576 64 64 0 0 0-.195-1.394 64 64 0 0 0-.85-5.047 64 64 0 0 0-.22-.9 64 64 0 0 0-1.479-5.405 64 64 0 0 0-.148-.422 64 64 0 0 0-2.178-5.666 64 64 0 0 0-6.63-11.55l-6.893-.877zm-31.19 24.334L-80 432l-16.838 16.98 2.035 5.575 29.793-.125 9.817-27.405-11.022-8.927zm36.475 44.642l-25.948 2.213-9.927 23.998 6.482 3.469a64 64 0 0 0 .004-.002 64 64 0 0 0 5.93-2.387 64 64 0 0 0 15.965-10.521 64 64 0 0 0 .005-.006 64 64 0 0 0 .008-.008 64 64 0 0 0 8.813-9.748l-1.332-7.008zm-82.516 1.787l-12.701 12.807a64 64 0 0 0 24.57 15.264l6.46-3.53-10.13-23.912-8.199-.629z" fill="#263238"/></g><g transform="rotate(14.439 333.08 2524.752)"><path d="M-179.295 122.686l-60.225 19.058a19.416 19.416 0 0 0-6.64 2.352c-9.378 5.444-12.621 17.555-7.242 27.049 5.377 9.492 17.727 13.071 30.282 1.267s27.4-30.835 43.825-49.726z" fill="#e65100" fill-rule="evenodd"/><ellipse transform="rotate(.17) skewX(.004)" ry="48.246" rx="47.656" cy="174.905" cx="-175.529" fill="#fb8c00"/><ellipse ry="22.333" rx="22.194" transform="matrix(.86482 -.50208 .49286 .8701 0 0)" cy="86.832" cx="-282.909" fill="#ef6c00"/><ellipse ry="15.508" rx="15.318" transform="rotate(.17) skewX(.004)" cx="-141.782" cy="82.14" fill="#e65100"/><ellipse transform="rotate(.17) skewX(.004)" cy="83.865" cx="-143.486" rx="10.212" ry="10.339" fill="#ffb74d"/><ellipse ry="15.508" rx="15.318" transform="rotate(.17) skewX(.004)" cy="82.122" cx="-207.266" fill="#e65100"/><ellipse transform="rotate(.17) skewX(.004)" ry="10.339" rx="10.212" cx="-205.567" cy="83.847" fill="#ffb74d"/><path d="M-172.705 122.82l60.224 19.058a19.416 19.416 0 0 1 6.641 2.351c9.378 5.445 12.62 17.555 7.242 27.05-5.377 9.492-17.727 13.07-30.282 1.267-12.555-11.804-27.4-30.835-43.825-49.727z" fill="#e65100" fill-rule="evenodd"/><path d="M-128.194 114.564c.064-21.926-23.694-46.387-47.522-46.458-23.828-.07-47.726 24.25-47.79 46.175-.063 21.926 21.231 36.455 47.551 36.533 26.32.078 47.698-14.325 47.761-36.25z" fill="#ff9800"/><path d="M-175.895 126.139a47.656 48.246.004 0 0-.105.004v96.48a47.656 48.246.004 0 0 47.621-48.098 47.656 48.246.004 0 0-47.516-48.386z" fill="#f57c00"/><ellipse ry="22.331" rx="22.196" transform="matrix(-.86185 -.50716 -.49792 .86722 0 0)" cx="21.853" cy="263.691" fill="#e65100"/><path d="M-175.955 150.814c-.091 0-.18-.005-.272-.006V68.121c.171-.002.342-.016.512-.016 23.828.07 47.585 24.534 47.522 46.46-.064 21.925-21.442 36.327-47.762 36.25z" fill="#fb8c00"/><ellipse transform="rotate(.17) skewX(.004)" ry="13.785" rx="22.126" cy="119.765" cx="-175.529" fill="#ffb74d"/><ellipse transform="rotate(90.166) skewX(-.004)" cx="124.073" cy="175.529" rx="14.646" ry="11.914" fill="#ffb74d"/><ellipse transform="rotate(.17) skewX(.004)" ry="3.446" rx="8.51" cy="114.596" cx="-175.529" fill="#263238"/><path d="M-175.855 112.352c.943.003 1.7.774 1.697 1.728l-.05 17.231a1.709 1.709 0 0 1-1.707 1.718 1.709 1.709 0 0 1-1.697-1.728l.05-17.23a1.709 1.709 0 0 1 1.707-1.719z" fill="#263238"/><ellipse transform="rotate(.13) skewX(-.088)" ry="5.259" rx="5.446" cy="97.694" cx="-192.106" fill="#263238"/><ellipse cx="-158.106" cy="97.617" rx="5.446" ry="5.259" transform="rotate(.13) skewX(-.088)" fill="#263238"/></g><g color="#000"><path d="M63.468 57.74c-8.115-2.5-16.045-.141-17.711 5.269-3.018 9.795 8.286 7.915 5.268 17.71-2.15 7.94-20.041-4.878-24.489-7.544L8.43 131.948l58.755 18.102c2.666-4.448 15.484-22.338 7.545-24.489-9.796-3.018-7.916 8.287-17.711 5.269-5.41-1.667-7.77-9.596-5.269-17.711 2.5-8.115 8.912-13.342 14.322-11.676 9.796 3.018 1.88 11.305 11.676 14.323 8.01 2.497 5.828-17.555 7.544-24.488-6.947-1.708-26.966.463-24.47-7.54 3.018-9.796 11.304-1.88 14.322-11.676 1.667-5.41-3.56-11.822-11.675-14.322z" style="isolation:auto;mix-blend-mode:normal" overflow="visible" fill="#ffc107"/><path style="isolation:auto;mix-blend-mode:normal" d="M118.852 69.44c2.5-8.114.141-16.044-5.269-17.71-9.795-3.018-7.915 8.286-17.71 5.268-7.94-2.15 4.878-20.04 7.544-24.488L44.644 14.402 26.542 73.157c4.448 2.666 22.338 15.484 24.489 7.545 3.018-9.796-8.287-7.916-5.269-17.711 1.667-5.41 9.596-7.77 17.711-5.269 8.115 2.5 13.342 8.913 11.676 14.322-3.018 9.796-11.305 1.88-14.323 11.676-2.497 8.01 17.555 5.828 24.488 7.544 1.708-6.947-.463-26.966 7.54-24.47 9.796 3.018 1.88 11.304 11.676 14.322 5.41 1.667 11.822-3.56 14.322-11.675z" overflow="visible" fill="#f44336"/><path d="M51.772 113.106c-2.5 8.115-.14 16.045 5.27 17.711 9.795 3.018 7.915-8.286 17.71-5.268 7.94 2.15-4.878 20.041-7.545 24.489l58.773 18.107 18.103-58.755c-4.448-2.666-22.339-15.484-24.49-7.545-3.017 9.796 8.287 7.916 5.27 17.711-1.667 5.41-9.597 7.77-17.712 5.27-8.115-2.501-13.342-8.913-11.675-14.323 3.018-9.796 11.304-1.88 14.322-11.676 2.498-8.01-17.555-5.828-24.487-7.544-1.709 6.947.463 26.966-7.54 24.47-9.796-3.018-1.88-11.304-11.676-14.322-5.41-1.667-11.822 3.56-14.323 11.675z" style="isolation:auto;mix-blend-mode:normal" overflow="visible" fill="#2196f3"/><path d="M102.96 33.234l-44.524 23.55c1.635.113 3.33.412 5.037.938 8.115 2.5 13.342 8.913 11.676 14.322-3.018 9.796-11.305 1.88-14.323 11.676-2.497 8.01 17.555 5.828 24.488 7.544 1.708-6.947-.463-26.966 7.54-24.47 9.796 3.018 1.88 11.304 11.676 14.322 5.41 1.667 11.822-3.56 14.322-11.675s.141-16.045-5.269-17.711c-9.795-3.018-7.915 8.286-17.71 5.268-7.62-2.063 3.79-18.5 7.087-23.764zM45.604 63.572L26.97 73.428c4.953 3.059 21.962 15.023 24.06 7.274 2.957-9.595-7.818-7.995-5.426-17.13z" style="isolation:auto;mix-blend-mode:normal" overflow="visible" fill="#e53935"/><path d="M144.083 109.39l-19.22 10.166c-1.256 4.075-6.065 6.416-11.829 6.257l-45.809 24.23 58.755 18.102 18.103-58.755z" style="isolation:auto;mix-blend-mode:normal" overflow="visible" fill="#1976d2"/><path d="M85.288 91.294L66.089 101.45c9.767 3.023 1.868 11.3 11.658 14.317 8.004 2.495 5.831-17.525 7.54-24.472zM54.23 107.722L8.429 131.948l58.755 18.102c2.666-4.448 15.484-22.338 7.545-24.489-9.796-3.018-7.916 8.287-17.711 5.269-5.41-1.667-7.77-9.596-5.269-17.711a22.129 22.129 0 0 1 2.481-5.397z" style="isolation:auto;mix-blend-mode:normal" overflow="visible" fill="#ffa000"/><path style="isolation:auto;mix-blend-mode:normal" d="M176.163 108.317c8.278-1.892 13.965-7.9 12.704-13.418-2.284-9.992-11.134-2.712-13.418-12.704-2.108-7.951 19.795-5.796 24.98-5.71l-13.705-59.953-59.934 13.7c-.086 5.185-2.241 27.088 5.71 24.98 9.992-2.284 2.712-11.134 12.704-13.418 5.518-1.261 11.526 4.426 13.418 12.704 1.893 8.278-1.047 16.011-6.566 17.273-9.992 2.284-7.28-8.85-17.272-6.566-8.185 1.842 3.73 18.117 5.71 24.979 6.871-1.994 23.122-13.884 24.962-5.705 2.285 9.992-8.85 7.28-6.565 17.272 1.261 5.519 8.994 8.458 17.272 6.566z" overflow="visible" fill="#689f38"/><path style="isolation:auto;mix-blend-mode:normal" d="M140.49 90.168l11.548-18.393c-9.97 2.265-7.268-8.853-17.254-6.57-8.18 1.84 3.712 18.093 5.705 24.963zm18.682-29.755l27.552-43.881-59.934 13.7c-.086 5.185-2.241 27.088 5.71 24.98 9.992-2.284 2.712-11.134 12.704-13.418 5.518-1.261 11.526 4.426 13.418 12.704.465 2.034.635 4.034.55 5.915z" overflow="visible" fill="#8bc34a"/></g><g transform="rotate(-12.862 913.356 -1597.005) scale(.46816)" color="#000"><path d="M-464 96c17.728 0 32 14.272 32 32v208c0 17.728-14.272 32-32 32s-32-14.272-32-32V128c0-17.728 14.272-32 32-32z" style="isolation:auto;mix-blend-mode:normal" overflow="visible" fill="#f44336"/><path style="isolation:auto;mix-blend-mode:normal" d="M-304 128c17.728 0 32 14.272 32 32v144c0 17.728-14.272 32-32 32s-32-14.272-32-32V160c0-17.728 14.272-32 32-32z" overflow="visible" fill="#e91e63"/><path d="M-144 160c17.728 0 32 14.272 32 32v80c0 17.728-14.272 32-32 32s-32-14.272-32-32v-80c0-17.728 14.272-32 32-32z" style="isolation:auto;mix-blend-mode:normal" overflow="visible" fill="#2196f3"/><path d="M-384 112c17.728 0 32 14.272 32 32v176c0 17.728-14.272 32-32 32s-32-14.272-32-32V144c0-17.728 14.272-32 32-32z" style="isolation:auto;mix-blend-mode:normal" overflow="visible" fill="#ffc107"/><path d="M-224 144c17.728 0 32 14.272 32 32v112c0 17.728-14.272 32-32 32s-32-14.272-32-32V176c0-17.728 14.272-32 32-32z" style="isolation:auto;mix-blend-mode:normal" overflow="visible" fill="#7cb342"/><path d="M-352 207.365l-64 64.002V320c0 17.728 14.272 32 32 32s32-14.272 32-32V207.365z" style="isolation:auto;mix-blend-mode:normal" overflow="visible" fill="#ffa000"/><path d="M-432 200l-64 64v72c0 17.728 14.272 32 32 32s32-14.272 32-32V200z" style="isolation:auto;mix-blend-mode:normal" overflow="visible" fill="#d32f2f"/><circle r="16" cy="128" cx="-464" style="isolation:auto;mix-blend-mode:normal" overflow="visible" fill="#fff"/><circle style="isolation:auto;mix-blend-mode:normal" cx="-464" cy="336" r="16" overflow="visible" fill="#fff"/><circle r="16" cy="320" cx="-384" style="isolation:auto;mix-blend-mode:normal" overflow="visible" fill="#fff"/><circle style="isolation:auto;mix-blend-mode:normal" cx="-384" cy="144" r="16" overflow="visible" fill="#fff"/><circle r="16" cy="160" cx="-304" style="isolation:auto;mix-blend-mode:normal" overflow="visible" fill="#fff"/><path d="M-272 209.365l-64 64V304c0 17.728 14.272 32 32 32s32-14.272 32-32v-94.635z" style="isolation:auto;mix-blend-mode:normal" overflow="visible" fill="#c2185b"/><circle style="isolation:auto;mix-blend-mode:normal" cx="-304" cy="304" r="16" overflow="visible" fill="#fff"/><path d="M-192 207.365l-64 64V288c0 17.728 14.272 32 32 32s32-14.272 32-32v-80.635z" style="isolation:auto;mix-blend-mode:normal" overflow="visible" fill="#689f38"/><circle r="16" cy="288" cx="-224" style="isolation:auto;mix-blend-mode:normal" overflow="visible" fill="#fff"/><circle style="isolation:auto;mix-blend-mode:normal" cx="-224" cy="176" r="16" overflow="visible" fill="#fff"/><circle r="16" cy="192" cx="-144" style="isolation:auto;mix-blend-mode:normal" overflow="visible" fill="#fff"/><path d="M-112 199.365l-64 64V272c0 17.728 14.272 32 32 32s32-14.272 32-32v-72.635z" style="isolation:auto;mix-blend-mode:normal" overflow="visible" fill="#1976d2"/><circle style="isolation:auto;mix-blend-mode:normal" cx="-144" cy="272" r="16" overflow="visible" fill="#fff"/><path d="M-381.373 195.373a7.982 7.982 0 0 1 0 11.313L-508.45 333.765a7.983 7.983 0 0 1-11.313 0 7.982 7.982 0 0 1 0-11.314l127.078-127.078a7.982 7.982 0 0 1 11.313 0z" style="isolation:auto;mix-blend-mode:normal" overflow="visible" fill="#8d6e63"/><circle transform="rotate(45)" r="24" cy="415.82" cx="-131.522" style="isolation:auto;mix-blend-mode:normal" overflow="visible" fill="#b0bec5"/><path d="M-370.826 183.346l-33.877 33.877A24 24 0 0 0-404 218a24 24 0 0 0 33.941 0 24 24 0 0 0 0-33.941 24 24 0 0 0-.767-.713z" style="isolation:auto;mix-blend-mode:normal" overflow="visible" fill="#78909c"/><path style="isolation:auto;mix-blend-mode:normal" d="M-308.627 205.373a7.982 7.982 0 0 0 0 11.313l127.078 127.079a7.983 7.983 0 0 0 11.314 0 7.982 7.982 0 0 0 0-11.314l-127.079-127.078a7.982 7.982 0 0 0-11.313 0z" overflow="visible" fill="#8d6e63"/><g transform="rotate(-90 -302.97 211.03)"><circle transform="scale(-1 1) rotate(45)" r="24" cy="-65.012" cx="363.453" style="isolation:auto;mix-blend-mode:normal" overflow="visible" fill="#b0bec5"/><path d="M-319.174 193.346l33.877 33.877A24 24 0 0 1-286 228a24 24 0 0 1-33.941 0 24 24 0 0 1 0-33.941 24 24 0 0 1 .767-.713z" style="isolation:auto;mix-blend-mode:normal" overflow="visible" fill="#78909c"/></g></g><g transform="rotate(45 8.635 823.632) scale(1.07786)"><path d="M-288 32l-64 64h64V32" fill="#f44336" fill-rule="evenodd"/><path d="M-288 32l64 64h-64V32" fill="#8bc34a" fill-rule="evenodd"/><path d="M-288 192l64-96h-64v96" fill="#03a9f4" fill-rule="evenodd"/><path d="M-288 192l-64-96h64v96" fill="#ffc107" fill-rule="evenodd"/><path d="M-256 64l-32 32h64l-32-32z" style="isolation:auto;mix-blend-mode:normal" color="#000" overflow="visible" fill="#689f38"/><path d="M-288 96l-38.4 38.4L-288 192V96z" style="isolation:auto;mix-blend-mode:normal" color="#000" overflow="visible" fill="#ffa000"/><rect rx="1.856" ry="1.856" y="94" x="-356" height="4" width="136" style="isolation:auto;mix-blend-mode:normal" color="#000" overflow="visible" fill="#8d6e63"/><path d="M-290 194V30c0-1.108.892-2 2-2s2 .892 2 2v164c0 1.108-.892 2-2 2s-2-.892-2-2z" style="isolation:auto;mix-blend-mode:normal" color="#000" overflow="visible" fill="#8d6e63"/><path d="M-288.03 189.973A2 2 0 0 0-290 192c0 8.146.857 13.86 2.564 17.902 1.708 4.042 4.544 6.44 7.811 7.063 6.534 1.244 13.617-3.229 20.617-7.229s13.917-7.527 17.883-6.771c1.983.378 3.522 1.479 4.877 4.687 1.355 3.209 2.248 8.494 2.248 16.348a2 2 0 1 0 4 0c0-8.146-.857-13.86-2.564-17.902-1.708-4.042-4.544-6.44-7.811-7.063-6.534-1.244-13.617 3.229-20.617 7.229s-13.917 7.527-17.883 6.771c-1.983-.378-3.522-1.479-4.877-4.687-1.355-3.209-2.248-8.494-2.248-16.348a2 2 0 0 0-2.03-2.027z" style="line-height:normal;text-indent:0;text-align:start;text-decoration-line:none;text-decoration-style:solid;text-decoration-color:#000;text-transform:none;block-progression:tb;isolation:auto;mix-blend-mode:normal" color="#000" font-weight="400" font-family="sans-serif" white-space="normal" overflow="visible" fill="#607d8b" fill-rule="evenodd"/><path d="M-288 32l-64 64h64V32" fill="#f44336" fill-rule="evenodd"/><path d="M-288 32l64 64h-64V32" fill="#8bc34a" fill-rule="evenodd"/><path d="M-288 192l-64-96h64v96" fill="#ffc107" fill-rule="evenodd"/><path style="isolation:auto;mix-blend-mode:normal" d="M-288 96l-38.4 38.4L-288 192V96z" color="#000" overflow="visible" fill="#ffa000"/><path d="M-288 192l64-96h-64v96" fill="#03a9f4" fill-rule="evenodd"/><path d="M-288 96v.451l38.22 38.219L-224 96h-64z" style="isolation:auto;mix-blend-mode:normal" color="#000" overflow="visible" fill="#0288d1"/><path style="isolation:auto;mix-blend-mode:normal" d="M-256 64l-32 32h64l-32-32z" color="#000" overflow="visible" fill="#689f38"/><rect style="isolation:auto;mix-blend-mode:normal" width="136" height="4" x="-356" y="94" ry="1.856" rx="1.856" color="#000" overflow="visible" fill="#8d6e63"/><path d="M-288 32l-32.195 32.195L-288.391 96h.391V32z" style="isolation:auto;mix-blend-mode:normal" color="#000" overflow="visible" fill="#d32f2f"/><path style="isolation:auto;mix-blend-mode:normal" d="M-290 194V30c0-1.108.892-2 2-2s2 .892 2 2v164c0 1.108-.892 2-2 2s-2-.892-2-2z" color="#000" overflow="visible" fill="#8d6e63"/><path style="line-height:normal;text-indent:0;text-align:start;text-decoration-line:none;text-decoration-style:solid;text-decoration-color:#000;text-transform:none;block-progression:tb;isolation:auto;mix-blend-mode:normal" d="M-288.03 189.973A2 2 0 0 0-290 192c0 8.146.857 13.86 2.564 17.902 1.708 4.042 4.544 6.44 7.811 7.063 6.534 1.244 13.617-3.229 20.617-7.229s13.917-7.527 17.883-6.771c1.983.378 3.522 1.479 4.877 4.687 1.355 3.209 2.248 8.494 2.248 16.348a2 2 0 1 0 4 0c0-8.146-.857-13.86-2.564-17.902-1.708-4.042-4.544-6.44-7.811-7.063-6.534-1.244-13.617 3.229-20.617 7.229s-13.917 7.527-17.883 6.771c-1.983-.378-3.522-1.479-4.877-4.687-1.355-3.209-2.248-8.494-2.248-16.348a2 2 0 0 0-2.03-2.027z" color="#000" font-weight="400" font-family="sans-serif" white-space="normal" overflow="visible" fill="#607d8b" fill-rule="evenodd"/></g></svg>