<svg xmlns="http://www.w3.org/2000/svg" width="512" height="512"><ellipse cy="144" cx="256" style="isolation:auto;mix-blend-mode:normal" color="#000" overflow="visible" fill="#795548"/><ellipse cy="144" cx="256" style="isolation:auto;mix-blend-mode:normal" color="#000" overflow="visible" fill="#795548"/><ellipse cy="144" cx="256" style="isolation:auto;mix-blend-mode:normal" color="#000" overflow="visible" fill="#795548"/><g transform="matrix(.73253 .33984 -.33984 .73253 128.826 47.29)"><path d="M48 256l416 8v128l-416 8z" style="isolation:auto;mix-blend-mode:normal" color="#000" overflow="visible" fill="#795548"/><ellipse ry="72" rx="40" cy="328" cx="48" style="isolation:auto;mix-blend-mode:normal" color="#000" overflow="visible" fill="#bcaaa4"/><ellipse style="isolation:auto;mix-blend-mode:normal" cx="48" cy="328" rx="36" ry="64.8" color="#000" overflow="visible" fill="#a1887f"/><ellipse style="isolation:auto;mix-blend-mode:normal" cx="48" cy="328" rx="32" ry="57.6" color="#000" overflow="visible" fill="#bcaaa4"/><g transform="scale(-.9054) rotate(43.831 876.52 -639.966)" color="#000"><path d="M331.863 359.271l35.416 31.982-25.597 31.575-38.616-28.035z" style="isolation:auto;mix-blend-mode:normal" overflow="visible" fill="#6d4c41"/><ellipse ry="22.864" rx="10.809" cy="92.96" cx="484.041" style="isolation:auto;mix-blend-mode:normal" transform="rotate(39.031)" overflow="visible" fill="#6d4c41"/><ellipse ry="20.324" rx="9.728" cy="-93.041" cx="-530.029" transform="rotate(-140.969)" style="isolation:auto;mix-blend-mode:normal" overflow="visible" fill="#a1887f"/></g><path d="M464 264a36 64 0 0 0-36 64 36 64 0 0 0 36 64 36 64 0 0 0 36-64 36 64 0 0 0-3.24-26.344l-20.274-17.01 3.496-13.908A36 64 0 0 0 464 264z" style="isolation:auto;mix-blend-mode:normal" color="#000" overflow="visible" fill="#795548"/><ellipse ry="50.4" rx="28" cy="329.2" cx="48" style="isolation:auto;mix-blend-mode:normal" color="#000" overflow="visible" fill="#a1887f"/><ellipse ry="43.2" rx="24" cy="329.444" cx="48.104" style="isolation:auto;mix-blend-mode:normal" color="#000" overflow="visible" fill="#bcaaa4"/><g fill-rule="evenodd"><path d="M72.104 321.844l14.605-11.99 113.395 11.99L87.872 333.76z" fill="#4e342e"/><path d="M72.104 321.844l14.605-11.992 113.395 11.992z" fill="#3e2723"/></g><path d="M480 270.67l-71.158 11.336 87.981 19.706-20.336-17.066z" fill="#3e2723" fill-rule="evenodd"/><path d="M408.842 282.006l87.981 19.706-20.336-17.066z" fill="#4e342e" fill-rule="evenodd"/><path style="isolation:auto;mix-blend-mode:normal" d="M358.002 343.432l35.417 31.982-25.598 31.575-38.616-28.035z" color="#000" overflow="visible" fill="#5d4037"/><ellipse transform="rotate(39.031)" style="isolation:auto;mix-blend-mode:normal" cx="494.372" cy="64.195" rx="10.809" ry="22.864" color="#000" overflow="visible" fill="#5d4037"/><ellipse style="isolation:auto;mix-blend-mode:normal" transform="rotate(-140.969)" cx="-540.36" cy="-64.276" rx="9.728" ry="20.324" color="#000" overflow="visible" fill="#a1887f"/><path d="M136 368l96-8 80 8z" fill="#3e2723" fill-rule="evenodd"/><path d="M136 368h176l-80 16z" fill="#4e342e" fill-rule="evenodd"/><path d="M271.05 283.755l65.727-8 54.773 8z" fill="#3e2723" fill-rule="evenodd"/><path d="M271.05 283.755h120.5l-54.773 9.525z" fill="#4e342e" fill-rule="evenodd"/><ellipse ry="32.4" rx="18" cy="329.084" cx="48" style="isolation:auto;mix-blend-mode:normal" color="#000" overflow="visible" fill="#a1887f"/><ellipse style="isolation:auto;mix-blend-mode:normal" cx="48.104" cy="329.444" rx="14" ry="25.2" color="#000" overflow="visible" fill="#bcaaa4"/><ellipse ry="10.8" rx="6" cy="328.677" cx="48" style="isolation:auto;mix-blend-mode:normal" color="#000" overflow="visible" fill="#a1887f"/></g><g transform="matrix(.5299 -.18254 .18254 .5299 23.197 -158.105)"><path d="M48 456l336 8v128l-336 8z" style="isolation:auto;mix-blend-mode:normal" color="#000" overflow="visible" fill="#795548"/><ellipse ry="72" rx="40" cy="528" cx="48" style="isolation:auto;mix-blend-mode:normal" color="#000" overflow="visible" fill="#bcaaa4"/><ellipse style="isolation:auto;mix-blend-mode:normal" cx="48" cy="528" rx="36" ry="64.8" color="#000" overflow="visible" fill="#a1887f"/><ellipse style="isolation:auto;mix-blend-mode:normal" cx="48" cy="528" rx="32" ry="57.6" color="#000" overflow="visible" fill="#bcaaa4"/><path d="M258.08 474.452L287.407 456l17.025 24.108-27.2 21.466z" style="isolation:auto;mix-blend-mode:normal" color="#000" overflow="visible" fill="#5d4037"/><ellipse ry="16.601" rx="7.848" cy="553.031" cx="-62.872" style="isolation:auto;mix-blend-mode:normal" transform="rotate(-35.229)" color="#000" overflow="visible" fill="#5d4037"/><ellipse ry="14.757" rx="7.063" cy="-553.09" cx="29.481" transform="rotate(144.771)" style="isolation:auto;mix-blend-mode:normal" color="#000" overflow="visible" fill="#a1887f"/><path d="M384 464a36 64 0 0 0-36 64 36 64 0 0 0 36 64 36 64 0 0 0 36-64 36 64 0 0 0-3.24-26.344l-20.274-17.01 3.496-13.908A36 64 0 0 0 384 464z" style="isolation:auto;mix-blend-mode:normal" color="#000" overflow="visible" fill="#795548"/><ellipse ry="50.4" rx="28" cy="529.2" cx="48" style="isolation:auto;mix-blend-mode:normal" color="#000" overflow="visible" fill="#a1887f"/><ellipse ry="43.2" rx="24" cy="529.444" cx="48.104" style="isolation:auto;mix-blend-mode:normal" color="#000" overflow="visible" fill="#bcaaa4"/><g fill-rule="evenodd"><path d="M360.104 521.844l-14.604-11.99-113.396 11.99 112.233 11.916z" fill="#4e342e"/><path d="M360.104 521.844L345.5 509.852l-113.396 11.992z" fill="#3e2723"/></g><path d="M400 470.67l-71.158 11.336 87.981 19.706-20.336-17.066z" fill="#3e2723" fill-rule="evenodd"/><path d="M328.842 482.006l87.981 19.706-20.336-17.066z" fill="#4e342e" fill-rule="evenodd"/><path d="M136 568l96-8 80 8z" fill="#3e2723" fill-rule="evenodd"/><path d="M136 568h176l-80 16z" fill="#4e342e" fill-rule="evenodd"/><ellipse ry="32.4" rx="18" cy="529.084" cx="48" style="isolation:auto;mix-blend-mode:normal" color="#000" overflow="visible" fill="#a1887f"/><ellipse style="isolation:auto;mix-blend-mode:normal" cx="48.104" cy="529.444" rx="14" ry="25.2" color="#000" overflow="visible" fill="#bcaaa4"/><ellipse ry="10.8" rx="6" cy="528.677" cx="48" style="isolation:auto;mix-blend-mode:normal" color="#000" overflow="visible" fill="#a1887f"/><path d="M111.604 500.327l65.728-8 54.772 8z" fill="#3e2723" fill-rule="evenodd"/><path d="M111.604 500.327h120.5l-54.772 9.525z" fill="#4e342e" fill-rule="evenodd"/></g><g transform="scale(-.67984 .67984) rotate(-10.562 -1273.51 4429.853)"><path style="isolation:auto;mix-blend-mode:normal" d="M48 456l336 8v128l-336 8z" color="#000" overflow="visible" fill="#795548"/><ellipse style="isolation:auto;mix-blend-mode:normal" cx="48" cy="528" rx="40" ry="72" color="#000" overflow="visible" fill="#bcaaa4"/><ellipse ry="64.8" rx="36" cy="528" cx="48" style="isolation:auto;mix-blend-mode:normal" color="#000" overflow="visible" fill="#a1887f"/><ellipse ry="57.6" rx="32" cy="528" cx="48" style="isolation:auto;mix-blend-mode:normal" color="#000" overflow="visible" fill="#bcaaa4"/><path style="isolation:auto;mix-blend-mode:normal" d="M258.08 474.452L287.407 456l17.025 24.108-27.2 21.466z" color="#000" overflow="visible" fill="#5d4037"/><ellipse transform="rotate(-35.229)" style="isolation:auto;mix-blend-mode:normal" cx="-62.872" cy="553.031" rx="7.848" ry="16.601" color="#000" overflow="visible" fill="#5d4037"/><ellipse style="isolation:auto;mix-blend-mode:normal" transform="rotate(144.771)" cx="29.481" cy="-553.09" rx="7.063" ry="14.757" color="#000" overflow="visible" fill="#a1887f"/><path style="isolation:auto;mix-blend-mode:normal" d="M384 464a36 64 0 0 0-36 64 36 64 0 0 0 36 64 36 64 0 0 0 36-64 36 64 0 0 0-3.24-26.344l-20.274-17.01 3.496-13.908A36 64 0 0 0 384 464z" color="#000" overflow="visible" fill="#795548"/><ellipse style="isolation:auto;mix-blend-mode:normal" cx="48" cy="529.2" rx="28" ry="50.4" color="#000" overflow="visible" fill="#a1887f"/><ellipse style="isolation:auto;mix-blend-mode:normal" cx="48.104" cy="529.444" rx="24" ry="43.2" color="#000" overflow="visible" fill="#bcaaa4"/><g fill-rule="evenodd"><path d="M360.104 521.844l-14.604-11.99-113.396 11.99 112.233 11.916z" fill="#4e342e"/><path d="M360.104 521.844L345.5 509.852l-113.396 11.992z" fill="#3e2723"/></g><path d="M400 470.67l-71.158 11.336 87.981 19.706-20.336-17.066z" fill="#3e2723" fill-rule="evenodd"/><path d="M328.842 482.006l87.981 19.706-20.336-17.066z" fill="#4e342e" fill-rule="evenodd"/><path d="M136 568l96-8 80 8z" fill="#3e2723" fill-rule="evenodd"/><path d="M136 568h176l-80 16z" fill="#4e342e" fill-rule="evenodd"/><ellipse style="isolation:auto;mix-blend-mode:normal" cx="48" cy="529.084" rx="18" ry="32.4" color="#000" overflow="visible" fill="#a1887f"/><ellipse ry="25.2" rx="14" cy="529.444" cx="48.104" style="isolation:auto;mix-blend-mode:normal" color="#000" overflow="visible" fill="#bcaaa4"/><ellipse style="isolation:auto;mix-blend-mode:normal" cx="48" cy="528.677" rx="6" ry="10.8" color="#000" overflow="visible" fill="#a1887f"/><path d="M111.604 500.327l65.728-8 54.772 8z" fill="#3e2723" fill-rule="evenodd"/><path d="M111.604 500.327h120.5l-54.772 9.525z" fill="#4e342e" fill-rule="evenodd"/></g></svg>