<svg xmlns="http://www.w3.org/2000/svg" width="512" height="512"><g transform="rotate(24.888 -42.739 315.545)scale(.80752)"><path fill="#795548" d="m48 256 416 8v128l-416 8z" color="#000" overflow="visible" style="isolation:auto;mix-blend-mode:normal"/><ellipse cx="48" cy="328" fill="#bcaaa4" color="#000" overflow="visible" rx="40" ry="72" style="isolation:auto;mix-blend-mode:normal"/><ellipse cx="48" cy="328" fill="#a1887f" color="#000" overflow="visible" rx="36" ry="64.8" style="isolation:auto;mix-blend-mode:normal"/><ellipse cx="48" cy="328" fill="#bcaaa4" color="#000" overflow="visible" rx="32" ry="57.6" style="isolation:auto;mix-blend-mode:normal"/><g color="#000" transform="rotate(223.831 233.11 319.275)scale(.9054)"><path fill="#6d4c41" d="m331.863 359.271 35.416 31.982-25.597 31.575-38.616-28.035z" overflow="visible" style="isolation:auto;mix-blend-mode:normal"/><ellipse cx="484.041" cy="92.96" fill="#6d4c41" overflow="visible" rx="10.809" ry="22.864" style="isolation:auto;mix-blend-mode:normal" transform="rotate(39.031)"/><ellipse cx="-530.029" cy="-93.041" fill="#a1887f" overflow="visible" rx="9.728" ry="20.324" style="isolation:auto;mix-blend-mode:normal" transform="rotate(-140.969)"/></g><path fill="#795548" d="M464 264a36 64 0 0 0-36 64 36 64 0 0 0 36 64 36 64 0 0 0 36-64 36 64 0 0 0-3.24-26.344l-20.274-17.01 3.496-13.908A36 64 0 0 0 464 264" color="#000" overflow="visible" style="isolation:auto;mix-blend-mode:normal"/><ellipse cx="48" cy="329.2" fill="#a1887f" color="#000" overflow="visible" rx="28" ry="50.4" style="isolation:auto;mix-blend-mode:normal"/><ellipse cx="48.104" cy="329.444" fill="#bcaaa4" color="#000" overflow="visible" rx="24" ry="43.2" style="isolation:auto;mix-blend-mode:normal"/><g fill-rule="evenodd"><path fill="#4e342e" d="m72.104 321.844 14.605-11.99 113.395 11.99L87.872 333.76z"/><path fill="#3e2723" d="m72.104 321.844 14.605-11.992 113.395 11.992z"/></g><path fill="#3e2723" fill-rule="evenodd" d="m480 270.67-71.158 11.336 87.981 19.706-20.336-17.066z"/><path fill="#4e342e" fill-rule="evenodd" d="m408.842 282.006 87.981 19.706-20.336-17.066z"/><path fill="#5d4037" d="m358.002 343.432 35.417 31.982-25.598 31.575-38.616-28.035z" color="#000" overflow="visible" style="isolation:auto;mix-blend-mode:normal"/><ellipse cx="494.372" cy="64.195" fill="#5d4037" color="#000" overflow="visible" rx="10.809" ry="22.864" style="isolation:auto;mix-blend-mode:normal" transform="rotate(39.031)"/><ellipse cx="-540.36" cy="-64.276" fill="#a1887f" color="#000" overflow="visible" rx="9.728" ry="20.324" style="isolation:auto;mix-blend-mode:normal" transform="rotate(-140.969)"/><path fill="#3e2723" fill-rule="evenodd" d="m136 368 96-8 80 8z"/><path fill="#4e342e" fill-rule="evenodd" d="M136 368h176l-80 16z"/><path fill="#3e2723" fill-rule="evenodd" d="m271.05 283.755 65.727-8 54.773 8z"/><path fill="#4e342e" fill-rule="evenodd" d="M271.05 283.755h120.5l-54.773 9.525z"/><ellipse cx="48" cy="329.084" fill="#a1887f" color="#000" overflow="visible" rx="18" ry="32.4" style="isolation:auto;mix-blend-mode:normal"/><ellipse cx="48.104" cy="329.444" fill="#bcaaa4" color="#000" overflow="visible" rx="14" ry="25.2" style="isolation:auto;mix-blend-mode:normal"/><ellipse cx="48" cy="328.677" fill="#a1887f" color="#000" overflow="visible" rx="6" ry="10.8" style="isolation:auto;mix-blend-mode:normal"/></g><g transform="rotate(-19.008 -460.603 -148.333)scale(.56046)"><path fill="#795548" d="m48 456 336 8v128l-336 8z" color="#000" overflow="visible" style="isolation:auto;mix-blend-mode:normal"/><ellipse cx="48" cy="528" fill="#bcaaa4" color="#000" overflow="visible" rx="40" ry="72" style="isolation:auto;mix-blend-mode:normal"/><ellipse cx="48" cy="528" fill="#a1887f" color="#000" overflow="visible" rx="36" ry="64.8" style="isolation:auto;mix-blend-mode:normal"/><ellipse cx="48" cy="528" fill="#bcaaa4" color="#000" overflow="visible" rx="32" ry="57.6" style="isolation:auto;mix-blend-mode:normal"/><path fill="#5d4037" d="M258.08 474.452 287.407 456l17.025 24.108-27.2 21.466z" color="#000" overflow="visible" style="isolation:auto;mix-blend-mode:normal"/><ellipse cx="-62.872" cy="553.031" fill="#5d4037" color="#000" overflow="visible" rx="7.848" ry="16.601" style="isolation:auto;mix-blend-mode:normal" transform="rotate(-35.229)"/><ellipse cx="29.481" cy="-553.09" fill="#a1887f" color="#000" overflow="visible" rx="7.063" ry="14.757" style="isolation:auto;mix-blend-mode:normal" transform="rotate(144.771)"/><path fill="#795548" d="M384 464a36 64 0 0 0-36 64 36 64 0 0 0 36 64 36 64 0 0 0 36-64 36 64 0 0 0-3.24-26.344l-20.274-17.01 3.496-13.908A36 64 0 0 0 384 464" color="#000" overflow="visible" style="isolation:auto;mix-blend-mode:normal"/><ellipse cx="48" cy="529.2" fill="#a1887f" color="#000" overflow="visible" rx="28" ry="50.4" style="isolation:auto;mix-blend-mode:normal"/><ellipse cx="48.104" cy="529.444" fill="#bcaaa4" color="#000" overflow="visible" rx="24" ry="43.2" style="isolation:auto;mix-blend-mode:normal"/><g fill-rule="evenodd"><path fill="#4e342e" d="m360.104 521.844-14.604-11.99-113.396 11.99 112.233 11.916z"/><path fill="#3e2723" d="M360.104 521.844 345.5 509.852l-113.396 11.992z"/></g><path fill="#3e2723" fill-rule="evenodd" d="m400 470.67-71.158 11.336 87.981 19.706-20.336-17.066z"/><path fill="#4e342e" fill-rule="evenodd" d="m328.842 482.006 87.981 19.706-20.336-17.066z"/><path fill="#3e2723" fill-rule="evenodd" d="m136 568 96-8 80 8z"/><path fill="#4e342e" fill-rule="evenodd" d="M136 568h176l-80 16z"/><ellipse cx="48" cy="529.084" fill="#a1887f" color="#000" overflow="visible" rx="18" ry="32.4" style="isolation:auto;mix-blend-mode:normal"/><ellipse cx="48.104" cy="529.444" fill="#bcaaa4" color="#000" overflow="visible" rx="14" ry="25.2" style="isolation:auto;mix-blend-mode:normal"/><ellipse cx="48" cy="528.677" fill="#a1887f" color="#000" overflow="visible" rx="6" ry="10.8" style="isolation:auto;mix-blend-mode:normal"/><path fill="#3e2723" fill-rule="evenodd" d="m111.604 500.327 65.728-8 54.772 8z"/><path fill="#4e342e" fill-rule="evenodd" d="M111.604 500.327h120.5l-54.772 9.525z"/></g><g transform="rotate(-169.438 278.37 -80.027)scale(.67984 -.67984)"><path fill="#795548" d="m48 456 336 8v128l-336 8z" color="#000" overflow="visible" style="isolation:auto;mix-blend-mode:normal"/><ellipse cx="48" cy="528" fill="#bcaaa4" color="#000" overflow="visible" rx="40" ry="72" style="isolation:auto;mix-blend-mode:normal"/><ellipse cx="48" cy="528" fill="#a1887f" color="#000" overflow="visible" rx="36" ry="64.8" style="isolation:auto;mix-blend-mode:normal"/><ellipse cx="48" cy="528" fill="#bcaaa4" color="#000" overflow="visible" rx="32" ry="57.6" style="isolation:auto;mix-blend-mode:normal"/><path fill="#5d4037" d="M258.08 474.452 287.407 456l17.025 24.108-27.2 21.466z" color="#000" overflow="visible" style="isolation:auto;mix-blend-mode:normal"/><ellipse cx="-62.872" cy="553.031" fill="#5d4037" color="#000" overflow="visible" rx="7.848" ry="16.601" style="isolation:auto;mix-blend-mode:normal" transform="rotate(-35.229)"/><ellipse cx="29.481" cy="-553.09" fill="#a1887f" color="#000" overflow="visible" rx="7.063" ry="14.757" style="isolation:auto;mix-blend-mode:normal" transform="rotate(144.771)"/><path fill="#795548" d="M384 464a36 64 0 0 0-36 64 36 64 0 0 0 36 64 36 64 0 0 0 36-64 36 64 0 0 0-3.24-26.344l-20.274-17.01 3.496-13.908A36 64 0 0 0 384 464" color="#000" overflow="visible" style="isolation:auto;mix-blend-mode:normal"/><ellipse cx="48" cy="529.2" fill="#a1887f" color="#000" overflow="visible" rx="28" ry="50.4" style="isolation:auto;mix-blend-mode:normal"/><ellipse cx="48.104" cy="529.444" fill="#bcaaa4" color="#000" overflow="visible" rx="24" ry="43.2" style="isolation:auto;mix-blend-mode:normal"/><g fill-rule="evenodd"><path fill="#4e342e" d="m360.104 521.844-14.604-11.99-113.396 11.99 112.233 11.916z"/><path fill="#3e2723" d="M360.104 521.844 345.5 509.852l-113.396 11.992z"/></g><path fill="#3e2723" fill-rule="evenodd" d="m400 470.67-71.158 11.336 87.981 19.706-20.336-17.066z"/><path fill="#4e342e" fill-rule="evenodd" d="m328.842 482.006 87.981 19.706-20.336-17.066z"/><path fill="#3e2723" fill-rule="evenodd" d="m136 568 96-8 80 8z"/><path fill="#4e342e" fill-rule="evenodd" d="M136 568h176l-80 16z"/><ellipse cx="48" cy="529.084" fill="#a1887f" color="#000" overflow="visible" rx="18" ry="32.4" style="isolation:auto;mix-blend-mode:normal"/><ellipse cx="48.104" cy="529.444" fill="#bcaaa4" color="#000" overflow="visible" rx="14" ry="25.2" style="isolation:auto;mix-blend-mode:normal"/><ellipse cx="48" cy="528.677" fill="#a1887f" color="#000" overflow="visible" rx="6" ry="10.8" style="isolation:auto;mix-blend-mode:normal"/><path fill="#3e2723" fill-rule="evenodd" d="m111.604 500.327 65.728-8 54.772 8z"/><path fill="#4e342e" fill-rule="evenodd" d="M111.604 500.327h120.5l-54.772 9.525z"/></g></svg>